<svg xmlns="http://www.w3.org/2000/svg" viewBox="0 0 256 256">
  <defs/>
  <path fill="#fce8ce" d="M18 251c-2-2-2-3-2-8 0-6 1-9 5-11l3-2v-71h-4c-6 0-7 0-7-12l1-9c1 1 6-5 6-6v-1c1 1 6-4 5-5l1-1h2l-5-1-5 1v4c0 5-1 8-4 8-2 0-3-1-3-5l-1-4v4l1 5 1 2-4-8v-5h3c0-1-1-2-6-2s-5 0-5-2 1-2 4-3c6 0 8-1 8-3 0-1-1-2-4-1-6 1-8 0-8-3 0-2 1-2 5-3l4-1-1-3-2-1 1 3v1l-1-1H5l-2 1H2c3-1 4-3 2-5-1-2-2-4 0-3l-2-5c-3-5-3-11 0-11l3 3 10 16c1 1 1 0 6-11 5-9 6-10 9-9s3 3 1 7l-6 11-4 7 4 1c6 1 5 5-2 6l-4 1c0 1 1 2 5 2s6 1 6 3c-1 3 0 2 5-5l7-6c2 0 2-1 0-4v-9h6l3 5c6 9 5 8 12 8h6l-1-4c-4-7-2-11 3-8 2 1 2 0 3-2s0-2-2-4c-3-3-4-5-2-8l1-4c-2-3-4-14-3-17 1-10 3-17 7-23 1-2 1-3-1-6-3-4-3-6 0-8 2-2 2-3 3-8 0-6 2-11 5-13l8-1c8-2 18 0 33 4l6 1 3-1 4-1h3l4-2h-4c-5 0-7-2-7-4l15-1h15c0 2-4 4-7 4l-4 1 15 1a73 73 0 0123 2l5 2c2 4 3 6 1 11l-1 10-1 7c-2 3-3 7-1 9l1 4 2 4 1 4 4 5 4 6c-1 5-7 14-11 14v3c2 4-2 7-5 5h-2l1 4a116 116 0 014 4l1-4c2-2 2-3 3-2v-1-2l1-1c0-2 1-3 2-3v-2l2-2c2-2 4-3 3-1l2 1c2 1 3 3 1 6-1 2-1 2 1 0l1-4c0-3 0-3 1-2s1 2-2 9c-3 5-3 7-3 11 0 6 1 7 7 7 5 0 6 0 8 4l16 18 3 4v11l-1 11-3 1c-4 0-4 0-4 26l1 25 3-6 4-7c1-3 6-3 6-1l-5 12-5 11 3 2c3 0 4 0 4 2s-2 3-7 3h-4c0 2 4 3 6 3 5 0 8 5 3 6-1 1-2 2-2 5 0 6-1 11-3 11l-2 1H125l-107-1zm59-147l-1-2v1l1 1zm128-11c0-2 0-2-2 1v2l2-3zm-10-23c1-3 0-3-3 1l-3 3 3-2 3-2zm-15-43l-1-6-2-6c-1-3-1-3-1-1v6c2 3 2 6 1 8 0 5 1 7 2 4l1-5zm-97-8v0zm11 2c1-1 0-11-1-11l-1 7c0 5 0 6 2 4zm95-1v-4c-1-1-1-1-1 2 0 5 0 5 1 2zM19 127l1-2v4l-1-2zm-16-1l1-1v2l-1-1zm251-6c-2-2-2-4 0-4s2 0 2 2c0 3-1 4-2 2zm0-10c-2-1-2-2 0-3 1-2 2-1 2 2v3zM1 97v-1l2 2c0 1-2 1-2-1zm253-8l-2-6c-1-2 0-3 1-3 3-1 3 0 3 7v5zM59 24l-1-6 1-5h-5l-7-1c-1-1-1-4 1-4l5-1c6-1 6-3 0-3-4 1-7-1-7-3l15-1 15 1c0 1-2 2-5 2-4 0-5 0-5 2s0 2 5 2c3 0 5 0 5 2 2 2 0 3-5 4h-6v6c-1 6-3 9-6 5zm169 0c-1 0-2-3-1-6v-6h-5c-6 0-9-1-8-4 1-1 2-2 7-2s6 0 6-2l-6-2-6-1 14-1 15 1-5 1c-4 0-5 0-5 2s0 2 5 2c4 0 5 1 6 2 1 3-1 4-6 4-6 0-6 0-6 6l-1 5c-1 1-3 2-4 1zM71 14h5l-3 1-2-1zm175-5l2-2-1 2-1 2V9z"/>
  <path fill="#fde4bb" d="M18 251c-2-2-2-3-2-8 0-6 2-9 5-12l3-1v-71h-4c-6 0-7-1-7-11v-7l7-8 7-8-3-1h-5l-1 5c0 5-1 8-4 8-2 0-3-3-3-9v-4H5c-5 0-5 0-5-2s1-2 6-3c5 0 5-1 5-2 1-2 1-3-3-2-5 1-8-1-8-3s1-2 4-3h5c1-1 0-3-1-4l-5-9c-5-9-3-17 1-10l2 3 9 15 2-2 4-8 4-7c1-3 3-5 5-4 3 1 3 4 1 7a157 157 0 00-8 16c-2 2-2 2 2 3 6 1 4 6-3 6l-3 1c0 1 1 2 4 2 4 0 7 2 7 3-1 3 0 2 5-5 4-5 6-6 8-6h2l-1-2-1-6c0-3 1-4 2-4 2 0 3 0 4 3l4 6 2 3h16l-2-4c-2-3-2-4-1-5 1-2 4-1 7 3l3 2-1-3v-2c-3 1-4-1-3-5 1-2 0-2-2-5-4-3-4-3-2-7 1-2 2-3 1-4-2-3-4-15-3-18 1-8 2-12 5-18l3-7-2-3c-3-4-3-6 0-8 2-2 2-3 3-9 1-9 2-11 9-13 10-2 25 0 40 5h6l6-2c4 0 6-1 6-2l-5-1c-4 1-5 0-6-1s-2-2-1-3a132 132 0 0129 2l-5 1-5 2 11 1a86 86 0 0126 2c4 0 5 1 6 3 3 4 3 5 1 10l-1 10-1 7c-3 3-3 7-2 9l2 4c1 4 4 9 7 13 4 5 4 6 2 11-2 4-7 9-9 9v3c1 2 1 2-1 4-1 1-2 2-4 1s-2-1-2 2 0 5 2 7l2 2 3-5 6-10c2-5 3-6 6-5s3 3-1 10l-2 5c1-1 1 0 1 5l-1 5v1l7 1c5 0 7 1 8 2l18 20 3 4v11l-1 12h-3l-3 1-1 26 1 24 2-4c4-9 6-11 9-11l2 2-5 11-5 11c-1 1 1 1 3 1 2 1 4 1 4 3s-2 3-7 3h-4c0 2 3 3 6 3 4 0 6 2 5 4l-2 2c-1 1-2 2-2 7l-1 7c-1 3-4 3-112 3l-106-1zm191-41v0zm-107-4h-2 2zm-29-7h-2v1l2-1zm11 1l-2-1h-1l1 1h2zm15-4h-1 1zm110-16v0zm24-31l-1 1c0 1 0 2 1 1v-2zm-107-19v-1l-1 1v1l1-1zm11-23c3-5 3-5 1-6l-1-9c0-8 0-8 2-9 3-2 4 1 4 6s1 5 7 7h3v-7c1-7 1-10-2-13l-3-3c-1-3-2-1-2 3s0 4-3 4c-2 0-3-1-5-6s-2-5-3-3c-3 7-4 9-8 12l-5 4c-1 0-6-5-6-7l-1-3-2-5-1-5v-3h-1l-1 5-1 7c-1 4-3 4-6-1-2-4-2-4-5 2-2 4-3 9-2 10l2 5c1 3 2 4 4 4l3 1c1 1 1 0 1-5 0-7 1-10 4-9 1 1 2 3 2 8 0 7 0 10-2 10s-2 0 0 4c2 6 2 6 14 6h11zm11-1c1-3-1-2-2 1l1 2 1-3zm35 2l-1-1h-3c-2-1-2-1-3 1-1 1-1 1 3 1l4-1zM94 97l-1-1-1 1 1 1 1-1zm70-4h-6c0 1 4 2 5 1l1-1zm30-21c3-3 3-4 2-5s-7 4-7 6 2 2 5-1zm-9-31v-1l-1 1v2l1-2zm3-10c0-2 0-2-1 1v3l1-4zm-8 0c2-3 1-7 0-11l-3-6-1-2c-2 0-2 4 0 8l1 8v5c0 2 3 1 3-2zM84 17l-1-5-1 12c1 1 1 1 2-7zm106 1c0-2-2-4-3-4v6l1 4 1-2 1-4zm-95 3v-5-6l-2-1c-2 0-2 0-2 9l1 5 3-2zm159 99c-2-2-2-4 1-4l1 2c0 3 0 3-2 2zm0-10v-3c2-2 2-1 2 2v3zm1-20l-1-1-2-8c0-1 3-2 4-1v7l-1 3zM59 24V13h-6l-6-1c-2-2 0-4 6-5 4 0 5-1 5-2l-4-1c-4 1-8-1-8-3l15-1 15 1c0 1-2 2-5 2-5 0-5 0-5 2s0 2 5 2c5 1 5 1 5 3 1 2 0 2-5 3h-6v3c0 7-1 9-3 9l-3-1zm168-1V12h-5c-6 0-9-1-7-4l6-2c5 0 6 0 6-2l-5-1-6-2c-1-1 1-1 13-1l15 1-5 1c-5 0-5 0-5 2s0 2 5 2c4 0 5 1 6 2 1 3-1 4-6 4-6 0-6 0-6 6l-1 5c0 1-4 2-5 0zm19-14l1-1c1-1 1 0 0 0 0 2-1 2-1 1z"/>
  <path fill="#f2d3ae" d="M18 251c-2-2-2-3-2-8 0-6 2-9 5-12l3-1v-71h-4c-6 0-7-1-7-11v-7l7-8 7-8-4-1h-5v6c-1 5-2 7-4 7s-3-4-3-9v-4H5c-5 0-5 0-5-2s1-2 6-3c5 0 5-1 5-2 1-2 1-3-3-2-5 1-8-1-8-3s1-2 4-2c6-1 6-1 4-5-6-10-8-14-8-18s2-5 4-1l2 3 9 15 6-10 7-11c1-1 4 0 4 2a2434 2434 0 00-10 20c-1 3 0 4 1 4 4 0 5 0 5 2s-2 4-6 4l-4 1c-1 2 0 2 5 2 4 1 5 1 6 3s1 1 6-5c5-5 6-6 9-6h3l-1-2c-2-4-2-8 0-8l4 5 4 5h18l-2-2c-1-3-1-6 2-6l6 8v-4l-3-5c-2 0-2-2-1-5 1-2 0-2-2-5-4-3-4-3-2-7 1-2 2-3 1-6-2-6-4-13-3-16l5-18 4-7-3-3c-3-4-3-6 0-8 2-2 2-3 3-8 1-7 2-12 5-13 5-1 14-2 20-1l22 4c6 2 7 2 8 1l7-2c4 0 5 0 5-2l-6-2-5-1c-1-2 0-2 14-2 13 0 15 0 14 1 0 1-2 2-5 2l-5 1c0 2 1 3 9 2 11-1 30 1 33 4 3 2 4 7 2 11l-1 10-1 7c-3 3-3 7-2 9l2 4c1 4 4 9 7 13 4 4 4 6 2 11-2 4-7 9-9 9v3c1 2 1 2-1 4l-4 1c-2-1-2-1-2 1-1 3 1 9 3 10a2032 2032 0 0111-17c2-3 4-4 6-2 1 1 1 2-2 8-2 5-3 7-3 12 0 6 1 7 9 6l7 1 18 21 3 4v11l-1 12h-7v52l5-8c3-7 4-8 6-8s3 1 3 2l-5 11-6 12h3c3 0 5 1 5 3s-2 3-7 3l-4 1c0 1 4 3 7 3 4-1 6 4 2 5-1 1-2 2-2 7l-1 7c-1 3-4 3-112 3l-106-1zm207-6h5v-5l-1-5v1l-3 1a238505 238505 0 01-201 1c-1-1-3 2-3 5v3h99l104-1zm-3-48v-34h-28l1 2 1 5c0 4 1 4 3 2 3-1 8 1 9 4 2 3 1 44 0 47-1 2-6 4-8 4-4-1-6-3-7-6l1-3h5l2 2 1-8-1-8c-2 1-8-5-8-6 1-2 0 0-3 2l-5 4-1 21c0 2-5 1-7 0l-1-4v-1c-2 1-3 2-5 1-1-1-2-4-3-15v-6h3c3 0 4 1 4 5l1 3 1-4c0-3-1-4-2-4l-2-3-1-1-3 1-3 1v12c0 14 0 17-3 17-4 0-5-2-4-13 0-8 0-9-1-4-1 10-2 12-7 14l-3-1-2-1h-1a14698 14698 0 007-19c0-3 0-3 3-3s3 0 3 2c1 1 1 1 1-1 0-3 0-3-4-3-6 0-10-4-6-8 4-5 4-5 1-8l-3-4 4-6 2-1c2-2 10-7 13-7 2 0 3 1 3 2 1 3-1 5-5 7-5 2-7 4-6 6 0 1 3 0 6-3l6-3c2 0 2 1 2 3l-1 4v1l4 4c2 3 2 3 2 1l-1-3v-1l1-4v-5h12v-3l2-6c1-1 1-1-54-1H81v2c0 2-1 2 12 3 9 0 9 0 10 2 1 3-1 4-12 4l-11 2 9 2c9 0 11 1 11 3 0 3-3 4-8 4-4 0-4 0-4 2l8 1c10 0 12 1 10 5-1 2-2 3-7 3s-5 0-3 1l7 1c4 0 6 1 6 4 0 2-9 4-21 5h-7c0 2 2 3 12 3h10l1 1 2 3c0 3-3 4-14 4H81v4c-1 5-3 7-5 4-2-1-2-2-2-5v-3H63l-12-1c-2-2-2-3-1-5l12-1c11 0 12-1 12-2 0-2-1-2-7-2a345 345 0 00-8-1c1-1 0-2-5-1s-5 0-6-2c-3-3-1-4 4-5 7-1 7-2 1-2h-5c-1 1-1 1 0 0l-1-2v-4c1-1 1-2 10-2 8 0 11 0 11-2l-7-1c-7 0-9-1-9-4s4-4 11-4c6 1 7 0 8-1 2-2 2-2-9-2-10 0-12 0-12-3l1-2c1-2 4-2 12-2 11 0 11 0 11-2v-2H30v68h192zm-80 7c-1-1-1-2 1-2l1 1c0 1-1 2-2 1zm35 6h-1c0 1 0 2 1 1v-1zM74 198c0-2-1-2-2-2l-5 2-2 2h4c4 0 5 0 5-2zm12 1c1-1-2-3-3-3-2 0-2 0-2 2s0 2 2 2l3-1zm115-11v-8h-5a111 111 0 005 16v-8zm-14-3c1-4 1-5-1-5s-2 1-2 8v8l2-3 1-8zm-21 5c2-1 2-1 2-4l-1-3-1 1-1 1c-1-1-3 1-2 2 1 0 0 0 0 0l-3 1c-1 2-1 2 2 2h4zm-87-3c-1-2-1-2-2-1-2 1-2 2 1 2 2 0 2 0 1-1zm154-39v-5H20v10h213v-5zM29 137c-1-1 5-3 9-4h1l4-5c4-5 5-8 3-9s-2-1-4 1l-9 10c-7 7-8 9-6 8l2-1zm193 0l-4-1a3801 3801 0 00-178 2c1 1 181 0 182-1zm9 0l-4-5-4-5-1-1-2-3-3-2c-1 1-1 1-1-1s0-2-3 0l-5 1c-2 0-2 0 1 5l5 5 2 1h2c3 0 11 4 10 5l1 1 2-1zM72 126l1-3-4 3c-3 4-3 5-1 4 1 0 3-1 4-4zm25 2l2-4-2-1c-1 0-2 0-2 2l-2 4c-1 0-1 2 2 2 1 0 2-1 2-3zm29-2c0-4 0-4-2-4s-3 1-3 4c-1 4-1 5 3 5 2 0 2 0 2-5zm27 3l-1-1-1-3c0-2 0-2-2-2s-3 0-2 5c1 2 1 3 3 3s3-1 3-2zm29 0c0-2-3-6-4-6l-2 1 2 4c0 2 1 3 2 3l2-2zm18-1l1-1v-2c0-2-1-2-2-2l-2 1v3l2 2 1-1zm-9-3c1-3 1-3-1-3-3 1-4 3-2 5 1 1 2 1 3-2zm-49-1h-1l-1 1 1 1 1-2zm45 0l-1-1-1 1h2zm-111-6l-16-1 8 1h8zm24 0zm21 0h-2 2zm11 0h-2 2zm29-1l-1-1v1 1l1-1zm13 1h-2 2zm4 0h-1 1zm14-1l-2-1-2 1 2 1 2-1zm-54-9c3-6 3-6 1-7-2 0-2-1-2-9s0-8 2-9h3c1 0 2 13 1 14 0 2 3 1 7 0 3-1 3-2 3-8 1-7 1-10-2-13l-3-3c-1-3-2-1-2 3s0 4-3 4c-2 0-3-1-5-6s-2-5-3-3c-3 7-4 9-8 12l-5 4c-1 0-6-5-6-7l-1-3-2-5-1-5v-3h-1l-1 5c0 5-2 10-3 10l-4-4c-2-4-2-4-5 1-3 6-3 8-1 13l2 7c1 3 1 3 3 3 2-1 6 3 8 8l1 4h26l1-3zm-31-8c-2-3-1-14 0-16 1-1 2-2 3-1s2 3 2 8v8c-1 3-4 3-5 1zm86 7c2-4 2-7 1-6s-4 8-3 9c0 2 1 1 2-3zm-45-1c0-3-1-3-2 0-2 4-1 4 1 3l1-3zm33 3l3-1-2-1h-3c-1-2-2-1-3 1-2 2-2 2 0 2l5-1zm-80-2v-3c-1-2-1-2-2 0v4c1 1 2 0 2-1zm-7-10l-1-1-1 1 1 1 1-1zm70-3l-3-1c-3-1-4 1-1 1h4zm30-22c3-3 3-4 2-5s-7 4-7 6 2 2 5-1zm-9-31v-1l-1 1v2l1-2zm3-10c0-2 0-2-1 1v3l1-4zm-8 1c2-3 1-8 0-12l-3-6-1-2c-2 0-2 4 0 8l1 8v5c0 1 2 1 3-1zM84 17l-1-5-1 12c1 1 1 1 2-7zm106 1c0-2-2-4-3-4v6l1 4 1-2 1-4zm-95 3v-5-6l-2-1-2 2 1 12 3-2zm159 99c-2-2-2-4 1-4l1 2c0 3 0 3-2 2zm0-10c-1-2 0-4 1-4l1 2c0 3-1 4-2 2zm0-23c-3-5-3-6-1-7 3-1 3 0 3 6v5zM60 25l-1-7v-5h-5c-5 0-8-1-8-3 1-2 5-3 10-3 2 0 3 0 3-2l-6-2-6-1c0-2 1-2 15-2l14 1c0 1-2 2-5 2-5 0-5 0-5 2s0 2 5 2c5 1 5 1 5 3 1 2 0 2-5 3h-6v3c0 7-1 9-3 9h-2zm167-2V12h-5c-5 0-8-1-8-3 1-2 5-3 10-3 2 0 3 0 3-2l-5-1-6-2c-1-1 1-1 13-1l15 1-5 1c-5 0-5 0-5 2s0 2 5 2c8 0 8 5-1 6h-5v4c0 7-1 8-3 8l-3-1zm19-14l1-1c1-1 1 0 0 0 0 2-1 2-1 1z"/>
  <path fill="#f3ce91" d="M19 251c-3-1-3-2-3-7 0-6 2-10 5-13l3-1v-71h-4c-6 0-7-1-7-11v-8l6-6a928 928 0 0124-23c4 0 5-1 3-4-2-2-2-6 0-6 1-1 6 6 7 9h18v-2c-2-3-2-5-1-5 2-1 5 1 6 4 2 4 4 4 3 1l-1-4-2-3c-3 0-3-2-2-5 1-2 1-2-2-5-4-3-4-4-1-8v-5c-3-5-3-21 0-27l5-12c1-1 0-3-1-5-4-5-4-6-1-8 2-1 2-3 3-9C79 7 80 5 90 4h17l19 5h6l7-1c5 0 5-1 6-2 0-3-2-4-6-3-3 1-7-1-6-2h28l-1 1h-2l-4 1-3 1c-2 3 0 3 10 2h15l11 2c7 1 11 6 8 13l-1 9-2 8-1 4-1 1 1 4 2 4c1 5 4 11 8 14l3 5c0 4-6 12-10 13-2 1-2 1-2 4v4h-3c-3 0-3 0-4 3 0 2 0 4 2 6 2 5 3 5 4 3v3c-2 3-1 5 0 5s4-6 4-12c1-5 7-15 9-15 2-1 3 2 1 5-3 5-5 12-4 11v4c0 6 1 7 7 6 6 0 8 1 12 5a2198 2198 0 0012 13l6 8-1 11v12h-7v27c0 14 0 26 1 25l4-7c3-7 5-9 7-9 3 0 1 4-4 14l-5 11 2 1c2-1 4 0 5 1v2l-4 1-6 1c0 2 4 4 8 4 2 0 3 0 3 2s-1 3-2 3c-2 0-2 1-3 7 0 7-1 9-3 9l-2 1c-1 1-210 1-212-1zm211-10v-6h-2v2H126c-114 0-104 0-104 6v3h208zm-197-8h191v-74H30v37a609 609 0 003 37zm42-8v-7H63l-12-1c-2-2-2-4 0-5l17-1c7 0 7 0 7-2-1-2-1-2-7-3l-8-1h-5c-4 1-8-1-8-3s2-3 7-4 6-2 0-2c-5 0-7-1-7-4s3-4 12-4l9-1v-2h-7l-8-2c-1-2-1-2 1-4l9-1c7 0 10-1 10-3l-10-1-11-1-1-2c0-3 0-3 11-3s12 0 12-2l2-4c2-1 2-1 3 1l2 3c0 2 0 2 10 2 9 0 11 1 12 2l-1 3-12 1c-11 0-11 0-11 2 1 2 1 2 10 2 10 1 11 1 11 3 0 3-2 4-8 4-6-1-7 0-5 2l8 1c8 0 11 1 11 4s-1 3-8 4h-4l3 2 6 1c3-1 5 0 5 3 0 2-8 4-20 5l-7 1c0 2 1 2 12 2 12 1 14 1 12 5-1 2-5 3-15 3h-8l-1 4-2 4c-2 1-3 1-4-1zm0-27c-1-3-1-3-3-3l-5 3-2 2h5c5 0 5 0 5-2zm11 0l-3-3c-2 0-2 0-2 2 0 3 0 3 3 3s3 0 2-2zm-7-12c-1-2-1-2-3-1-2 3-2 3 2 3h3zm81 40v-28h-3l-8-2c-2-2-1-5 2-9l3-2-3-2c-3-2-4-4-3-7 1-2 10-8 14-10 5-2 7-2 7 2 0 2-2 3-5 5l-7 4v2c2 1 2 1 7-3 4-3 6-3 8-1 1 1-1 5-4 7l-7 5-4 4h4c8-1 8-1 7-5 0-3 1-4 4-3l3 3c1 3 1 3 2-5v-7h6l6-1 1-4c0-4 0-4 2-4 3-1 4 1 4 5v4l4-1c8-1 9 0 9 26 0 22-1 25-6 27-4 2-10-1-9-5 0-2 1-3 2-3l4 1c2 1 2 0 2-6v-7l-3-3c-2 0-3-1-5-4l-1-3-3 3-4 4c-2 1-2 1-3 11 0 11 0 12-2 12-3 0-4-2-4-6 0-1 0-2-1-1 0 2-2 2-4 2-1-1-2-2-3-12-1-8-1-9 3-9 2 0 3 2 4 11 1 5 1 5 1-2 0-8 0-8-3-11-2-2-3-3-5-2s-2 1-3 15c0 11-1 14-2 15h-4zm43-36c0-9-1-10-4-10s-3 0-2 8c2 5 4 10 5 9l1-7zm-17 2l2-8c0-4 0-4-2-4s-2 0-3 8c0 8 1 10 3 4zm-38 31c-2-1-2-4 0-6l3-7c2-10 2-10 4-10 3 0 3 1 3 6 1 11-5 20-10 17zm-74-62h1c1 1 0 1-1 1v-1zm87 0l1-1 1 1-1 1-1-1zm58 0l1-1 1 1-1 1-1-1zm14-13v-5H115l-95-1v12h213zM30 137c0-2 3-3 8-3l2-1c-1 0 0-2 2-3a56 56 0 006-7l1-2-2-2c-3-2-3-2-4-1l-17 18c-2 2-1 3 2 3 2 0 2-1 2-2zm202 0l-14-16-3-3-3 1-5 2c-1 0-1 1 2 5 2 4 3 5 6 6l9 2c4 2 4 2 3 3h-4c-1-1-28-2-92-2-89 0-90 0-93 2l-4 2 99-1 99-1zm-170-8c1-1 1-2-4-1l-6-2c0-1-1-1-3 1l-2 3 7 1c6 0 7-1 8-2zm10-2c2-5 2-5 0-5l-4 4-2 5h2l4-4zm17 2l-5-1-5-1c-1-2-2-1-2 1v1h-1c0 2 0 2 6 1l7-1zm9-2c2-5 2-5-1-5-2 0-2 1-4 4l-1 5h2c2 0 3-1 4-4zm18 3l-3-1-5-1c-2-1-2-2-2-4l-1-2c-1 0-2 1-3 5v4h7l7-1zm10-4c0-4 0-4-2-4-3 0-3 0-3 3-1 5-1 6 2 6h3zm6 3l-1-4c0-4-1-3-1 2 0 3 0 4 2 4v-2zm11-2c0-4 0-4-2-4l-2 2 2 4v1 1c1 0 2-1 2-4zm10 2l-2-5c0-2-1-2-2-2-2 0-2 0-2 4v5h3c3 0 3-1 3-2zm21 1l-2-3c0-2 0-2-1 0 0 2-1 2-3 2l-4-2c-4 0-5-1-4-4l-2-1c-2 0-3 3-2 6s1 3 10 3l8-1zm9-1c-2-5-4-7-5-7-2 0-2 1-1 6 1 2 2 3 4 3s2-1 2-2zm23 1l-2-4-3-4h-16c-1 1 0 3 1 5l2 4h9l9-1zm-12-4c-2-1-2-2-1-2 1-1 3-1 3 1s-1 2-2 1zm-113-3h-2c-1 0-1 0 0 0h2zm112-5l-1-1h-23l10 1a305 305 0 0114 0zm13 0c0-1-1-2-3-2-4 0-5 2-1 2l3 1 1-1zm-130-1l-9-1-8 1 9 1 8-1zm29 0l-10-1-11 1 11 1c7 0 11 0 10-1zm30 0l-10-1-10 1 9 1 11-1zm27 0l-10-1-10 1c-1 1 3 1 10 1l10-1zm-24-9l3-5c0-1 0-2-2-2s-2-1-2-8 0-8 2-10 4 0 4 9l1 7c3-1 4 4 1 9-1 3-1 4 2 2 1-2 2-2 1-6l1-6 3-2 2-12c1-2 0-3-2-5l-2-4-2-3-1-2-1 2-1 5c0 5-4 3-7-4-2-3-4-4-4-1s-9 15-12 15c-1 0-5-5-5-7l-1-3-4-12-1-1-1 4c0 5-2 10-3 11l-3-4c-1-2-2-4-3-3l-5 10c-1 2 0 4 1 7l2 11 1 9c2 1 2 0 1-3l1-6 2-1 6 8 1 4h12l13 1 2-4zm-30-8l-1-9 1-8c3-1 4 2 4 9s-1 9-3 9l-1-1zm76 8l-2-1h-3c-1-2-2-1-3 1l-2 2h5c4 0 5 0 5-2zM95 97c-1-2-4-2-4-1l1 2c1 1 3 0 3-1zm69-3c0-2-3-3-5-2-3 1-2 3 1 3 4 1 4 0 4-1zm29-21c4-2 4-4 2-6l-4 2c-2 3-3 5-2 6s1 1 4-2zm-8-32v-1l-1 1v2l1-2zm3-10c0-2 0-2-1 1v4l1-5zm-8 2c2-2 2-8 0-13a1073 1073 0 01-4-8c-2 0-2 7 0 10v6c0 3 1 7 3 7l1-2zM84 17l-1-5-1 12c1 1 1 1 2-7zm106 1c0-2-2-4-3-4v6l1 4 1-2 1-4zm-96 4l2-3-1-11c-2 0-4 2-4 4 0 11 0 12 3 10zM12 135v-6c0-5 0-5-7-5-3 1-4 0-5-1 0-3 0-3 6-4 5 0 6-1 6-2 0-2-1-2-5-2-6 0-8-2-5-4 1-1 2-2 4-1 5 1 4-1-1-10s-7-16-4-16c2 0 3 2 4 5l3 4 2 5 4 5 2 2 3-5 2-6 1-1 3-5 4-4c4-1 4 2-6 20l-3 4 4 1c4 0 5 1 4 3 0 1-2 2-5 2-4 0-5 0-5 2 0 3 1 3 6 3 4 0 5 1 5 2v1l-1 1h-5c-5 0-6 1-6 5 0 8 0 8-2 8l-3-1zm242-15c-1-2-1-3 1-4l1 2c0 3 0 3-2 2zm0-11l1-2c1-1 1-1 1 1s-1 3-2 1zm1-21c-2-3-3-7-1-7 2-1 2 1 2 5 0 3-1 4-1 2zM60 24l-2-6v-5l-5-1c-5 0-5 0-5-2 0-1 0-2 5-2 6 0 6-1 6-3s0-2-5-2c-4 1-7 0-7-2l14-1 15 1-1 1c-9 1-10 1-10 3s3 3 7 3l4 1c1 1-1 4-4 3-7 0-7 0-7 5l-1 4-1 2c1 2-2 2-3 1zm168-1l-2-6v-5h-5l-6-2c0-2 1-2 7-3 5 0 5 0 5-3 0-2 0-2-5-2-3 1-5 0-6-1s0-1 13-1c14 0 18 1 10 1-5 1-7 2-6 4l6 2c8 0 7 5-1 5h-5v4c0 7-3 10-5 7z"/>
  <path fill="#d8c6a7" d="M19 251c-3-1-3-2-3-7 0-6 2-10 5-13l3-1v-71h-4c-6 0-7-1-7-11v-8l6-6a923 923 0 0125-23h5l-1-4c-3-3-1-5 1-1l2 4h21v-1l-1-4h3l2 4v1l2 1c2 0 2 0 0-5l-3-5c-2 0-2-2-1-5 1-2 1-2-2-5-4-3-4-4-1-8v-5c-3-5-3-21 0-27l5-12c1-1 0-3-1-5-4-5-4-6-1-8 2-1 2-3 3-9C79 7 80 5 90 4h17l19 5 6 1h8a111 111 0 0147-2c7 1 11 6 8 13l-1 9-2 8-1 4-1 1 1 4 2 4c1 5 4 11 8 14l3 5c0 4-6 12-10 13-2 1-2 1-2 4v4h-3c-3 0-3 0-4 3v5l-1 4c0 3 0 4-2 4l-3-1c-1 0-2 0-3 2l-2 2h8c9 1 11 2 9 4 0 2-2 2-13 2-8 0-12 1-12 2h10c11 0 16 1 16 2l-4 2c-4 0-4 1-2 5l2 4h9l9-1c0-1-5-8-7-8l-3-1c-2-2-1-2 2-2h5l3-1c0-1-1-2-3-2l-6 2-3-1c-2-1-1-3 1-10s2-7 4-9h2v12l7 1c7-1 9 0 13 4a210 210 0 0011 13l6 8-1 11v12h-7v69l3 1c4 3 4 4 4 11-1 8-2 11-4 11l-2 1c-1 1-210 1-212-1zm211-10v-6h-2v2H126c-114 0-104 0-104 6v3h208zm-10-8h4v-74H30v37l1 37h189zm-145-8v-7H63l-12-1c-2-2-2-4 0-5l17-1c7 0 7 0 7-2-1-2-1-2-7-3l-8-1h-5c-4 1-8-1-8-3s2-3 7-4 6-2 0-2c-5 0-7-1-7-4s3-4 12-4l9-1v-2h-7l-8-2c-1-2-1-2 1-4l9-1c7 0 10-1 10-3l-10-1-11-1-1-2c0-3 0-3 11-3 12 0 12 0 12-2 2-5 7-5 7 0 0 2 0 2 10 2 9 0 11 1 12 2l-1 3-12 1c-11 0-11 0-11 2 1 2 1 2 10 2 10 1 11 1 11 3 0 3-2 4-8 4-6-1-7 0-5 2l8 1c8 0 11 1 11 4s-1 3-8 4h-4l3 2 6 1c3-1 5 0 5 3 0 2-8 4-20 5l-7 1c0 2 1 2 12 2 12 1 14 1 12 5-1 2-5 3-15 3h-8l-1 4-2 4c-2 1-3 1-4-1zm0-27c-1-3-1-3-3-3l-5 3-2 2h5c5 0 5 0 5-2zm11 0l-3-3c-2 0-2 0-2 2 0 3 0 3 3 3s3 0 2-2zm-7-12c-1-2-1-2-3-1-2 3-2 3 2 3h3zm81 40v-28h-3l-8-2c-2-2-1-5 2-9l3-2-3-2c-3-2-4-4-3-7 1-2 10-8 14-10 5-2 7-2 7 2 0 2-2 3-5 5l-7 4v2c2 1 2 1 7-3 4-3 6-3 8-1 1 1-1 5-4 7l-7 5-4 4h4c8-1 8-1 7-5 0-3 1-4 4-3l3 3c1 3 1 3 2-5v-7h6l6-1 1-4c0-4 0-4 2-4 3-1 4 1 4 5v4l4-1c8-1 9 0 9 26 0 22-1 25-6 27-4 2-10-1-9-5 0-2 1-3 2-3l4 1c2 1 2 0 2-6v-7l-3-3c-2 0-3-1-5-4l-1-3-3 3-4 4c-2 1-2 1-3 11 0 11 0 12-2 12-3 0-4-2-4-6 0-1 0-2-1-1 0 2-2 2-4 2-1-1-2-2-3-12-1-8-1-9 3-9 2 0 3 2 4 11 1 5 1 5 1-2 0-8 0-8-3-11-2-2-3-3-5-2s-2 1-3 15c0 11-1 14-2 15h-4zm43-36c0-9-1-10-4-10s-3 0-2 8c2 5 4 10 5 9l1-7zm-17 2l2-8c0-4 0-4-2-4s-2 0-3 8c0 8 1 10 3 4zm-38 31c-2-1-2-4 0-6l3-7c2-10 2-10 4-10 3 0 3 1 3 6 1 11-5 20-10 17zm85-75v-5H115l-95-1v12h213zM30 137c0-2 3-3 8-3l2-1c-1 0 0-2 2-3a56 56 0 006-7l1-2-2-2c-3-2-3-2-4-1l-17 18c-2 2-1 3 2 3 2 0 2-1 2-2zm202 0l-14-16-3-3-3 1-5 2c-1 0-1 1 2 5 2 4 3 5 6 6l9 2c4 2 4 2 3 3h-4c-1-1-28-2-92-2-89 0-90 0-93 2l-4 2 99-1 99-1zm-170-8c1-1 3-3 3-5 2-2 2-2 0-2s-3 0-3 2c0 3-5 3-7 0l-2-3-2 4-2 3-1 1c-1 1 0 2 6 2s7-1 8-2zm10-2c2-5 2-5 0-5l-4 4-2 5h2l4-4zm18 0c2-5 2-5-1-5-2 0-2 1-2 2 0 3-3 3-5 0-1-2-2-3-3-2l-3 8 6 1h6zm8 0c2-5 2-5-1-5-2 0-2 1-4 4l-1 5h2c2 0 3-1 4-4zm19 0c2-5 2-5-1-5-1 0-2 0-2 2s0 3-2 3c-3 0-5-2-4-5 1-2 1-2-2-1-3 2-3 2-4 8 0 1 0 2 7 2h7zm9-1c0-4 0-4-2-4-3 0-3 0-3 3-1 5-1 6 2 6h3zm17 1c0-3 0-4-2-5l-3-1-4 1h-4v9h13zm-8-3h1l-1 1v-1zm18 5l-2-5c0-2-1-2-2-2-2 0-2 0-2 4v5h3c3 0 3-1 3-2zm21 1l-2-5c0-3 0-3-2-3l-3 1h-1l-1 1-2-1-4-1c-3 0-4 2-3 6 1 3 1 3 10 3l8-1zm9-1c-2-5-4-7-5-7-2 0-2 1-1 6 1 2 2 3 4 3s2-1 2-2zm-76-11l-25-1c-19 0-24 0-23 1h48zm30 0c0-1-3-2-12-2-15 0-16 2-2 2h14zm26 0v-1c-1-1-23-1-23 1h23zm-111-1l-2-1v1h2zm87-9c2-5 3-7 5-7s2 3 1 6c-3 4-2 5 1 3s3-2 2-6l1-6 3-2 2-12c1-2 0-3-2-5l-2-4-2-3-1-2-1 2-1 5c0 5-4 3-7-4-2-3-4-4-4-1s-9 15-12 15c-1 0-5-5-5-7l-1-3-4-12-1-1-1 4c0 5-2 10-3 11l-3-4c-1-2-2-4-3-3l-5 10c-1 2 0 4 1 7l2 11c0 7 0 7 2 9l2 2v-10c2 0 5 4 6 7l1 3 14 1h14zm-31-8l-1-9 1-8c3-1 4 2 4 9s-1 9-3 9l-1-1zm30 1l-1-9c0-6 0-8 2-9h2c2 2 2 13 1 16-1 2-3 3-4 2zm-43-4c-1-2-4-2-4-1l1 2c1 1 3 0 3-1zm69-3c0-2-3-3-5-2-3 1-2 3 1 3 4 1 4 0 4-1zm29-21c4-2 4-4 2-6l-4 2c-2 3-3 5-2 6s1 1 4-2zm-8-32v-1l-1 1v2l1-2zm3-10c0-2 0-2-1 1v4l1-5zm-8 2c2-2 2-8 0-13a1073 1073 0 01-4-8c-2 0-2 7 0 10v6c0 3 1 7 3 7l1-2zM84 17l-1-5-1 12c1 1 1 1 2-7zm106 1c0-2-2-4-3-4v6l1 4 1-2 1-4zm-96 4l2-3-1-11c-2 0-4 2-4 4 0 11 0 12 3 10z"/>
  <path fill="#efda71" d="M18 250c-2-2-2-3-2-6 0-7 2-11 7-14l1-36v-35h-9l-1-4v-9c0-6-2-4 18-25l8-10h9l-1-4c-3-3-1-5 1-1l2 4c0 1 18 2 21 1v-2l-1-4h3l2 3c0 2 3 4 4 3l-1-5-3-5c-2-1-3-3-1-6 0-1 0-2-3-3-3-3-4-5-1-8v-7c-3-6-3-19 0-25 0-3 2-7 4-10l2-5-1-2-3-4c-1-3-1-3 1-5l3-5C79 6 80 6 89 4h15c10 1 10 2 21 5 3 1 6 2 7 1l2 1 6-1c7-3 31-5 44-3 6 1 8 2 10 4 2 3 2 6 0 11v8c0 4 0 5-2 7-2 5-3 9-1 10l2 4c1 6 3 10 6 12 4 5 5 7 3 11s-7 10-10 10v5c0 2 0 2-3 2h-4v7l-2 8h-5c0-1-2 0-3 2l-2 3 7-1c8 0 12 1 12 3 0 3-3 3-15 3-8 0-11 1-11 2l13 1c11 0 14 0 13 2l-4 1-4 1 2 4 2 4h9l9-1-6-8-4-1-2-1 2-1c6-2 7-1 12 6l4 6 6 2 8 3h-3l-7-1-89-1-86-1 3-6 5-6-2-2-2-3-6 6c-16 18-16 18-14 18 3 0 5-2 5-3 1-2 4-3 8-3 3 0 2 2-1 3l-3 2 198-1a1534 1534 0 01-18-20c-1 2-7 3-8 2s0-2 2-3h-3c-3-1-7 0-8 1l-3-1c-2-1-1-3 1-10s2-7 4-9h2v12l8 1h8l10 12 11 12-1 11-1 12-3 1h-3v69l3 1 3 3c1 2 0 17-1 18l-108 1c-107 1-107 1-109-1zm212-8a1195 1195 0 00-2-6v1H126c-96 0-102 0-104 2l-1 4v3h209zm-6-46v-37H30v75h194zM76 226l-1-5-1-3H63c-8 0-11 0-12-2-3-3-1-4 12-5h11l1-2v-3h-7l-7-1-7-1c-4 0-6 0-6-2-2-2 0-3 6-4 7-1 8-4 1-3-4 1-5 0-6-1-4-4 0-5 13-5 5-1 6-1 6-4l-7-1-7-1c-2-4 0-5 9-5 8 0 10 0 10-2s-2-2-10-2c-10 0-14-1-12-4 1-1 3-2 12-2h11l1-3 2-3c2 0 4 2 4 4s1 2 10 2l11 1v4l-11 1-12 1c-2 3-1 4 10 4h10v2c0 2 0 3-6 3-7 0-8 1-6 4l10 2 9 1c0 3-2 4-8 5h-5l3 2 8 1h4v2c1 2-4 4-8 4l-11 1c-8 0-8 0-8 3 0 2 0 2 10 2h12c2 1 3 3 1 5l-12 1H81v4c0 3-1 4-2 5h-3zm-1-29c0-2-1-2-3-2l-5 2-2 3h5c5 0 5 0 5-3zm11 0l-4-2-1 2c0 3 0 3 3 3h4zm-6-11c-1-2-4-3-5 0-1 2-1 2 2 2 4 0 4 0 3-2zm117 39l-3-4c0-3 2-4 5-2s4 1 4-9l-1-7c-3 0-6-1-8-4l-1-3-2 2c-2 3-3 4-6 5-2 0-2 1-2 11 0 9-1 10-2 11-3 2-4-1-4-14l-1-12-3-2c-1-2-1-2-4-1l-3 1v9c0 17-1 20-4 20l-2-1v-28h-4c-8 0-9-3-5-9l3-4-3-2c-3-2-3-5-1-8 7-6 13-9 18-9l1 2c0 2-1 3-5 5-6 3-8 5-7 6 0 2 3 2 5 0 6-5 10-6 10-2 0 2-1 3-3 5l-12 10 11-1v-3c0-3 2-5 4-4l3 4 2 3v-7c0-10 0-10 7-10h5l1-3c0-7 6-7 6 0v3h5c7 0 7 0 8 23 0 20 0 25-3 28-2 3-6 3-9 1zm6-36l-1-9-6-1c-1 2 2 14 4 16 2 4 3 3 3-6zm-17 4l2-9 1-4h-6v8l1 8 2-3zm-39 28l1-3c2-2 3-4 4-9 1-8 2-10 4-8 1 0 2 2 2 6l-2 9c-2 7-6 9-9 5zm24-1l-2-9c-1-9-1-11 3-11 1 0 2 1 3 8 2 8 1 12-1 12h-3zm62-71v-6h-8l-107-1-98 1v10l107 1h106zm-81-24c-1-3-1-3-4-3-2 0-2 0-2 2l1 4c0 2 0 3 3 3s3-1 2-6zm-89 3l3-4c1-2 1-2-1-2s-3 0-3 2c0 3-5 3-7 0l-2-2-3 4-3 4 7 1c7 0 7 0 9-3zm8 1l3-5c1-2 0-2-2-2l-4 4-2 5h2l3-2zm19-2c2-4 2-5-1-5-2 0-2 1-2 2 0 3-3 3-5 0-2-4-4-3-6 4l-1 3 7-1h6zm8 0c2-5 2-5-1-5l-3 1-1 4c-2 4-2 4 1 4s3-1 4-4zm19 0c2-5 2-5-1-5-1 0-2 0-2 2s0 3-2 3c-3 0-5-2-4-5 1-2 0-2-2-1l-3 3-2 5c-1 2 0 2 7 2h8l1-4zm9 1l1-5-3-1c-4 0-4 0-4 4v5h3c3 0 3 0 3-3zm17-1c0-3 0-4-2-5l-3-1-4 1h-4v9h13zm-8-3h1l-1 1v-1zm39 5l-1-1-1-4c0-2 0-2-2-2l-3 1s0 1 0 0l-2 1-2-1c-1-1-7-2-8-1l1 5 1 4h8c7 0 9-1 9-2zm9 1l-1-4c-2-4-2-4-4-4-3 0-3 0-2 3 1 5 2 6 5 6l2-1zm-76-12l-25-1c-19 0-24 0-23 1h48zm30-1l-12-1-12 1c0 2 23 2 24 0zm25 1l1-1c-1-1-23-1-23 1h22zm-110-1l-2-1v1h2zm87-9c2-5 3-7 5-7s2 3 1 6c-3 4-2 5 1 4 2-2 4-7 2-8-1-2 0-4 2-6 2-1 3-2 4-6 1-7 1-10-3-16-4-5-4-5-5-4l-1 5c0 6-3 5-7-3-1-4-3-6-3-5 0 3-5 13-9 16l-4 3-3-3-3-5v-2l-4-12c0-4-2-2-2 3 0 4-2 10-3 10l-3-4-3-4-2 5c-4 6-4 9-2 14l2 12c0 7 0 7 2 9l2 1v-10c2 0 5 4 6 7l1 3 14 1h14zm-32-8c-1-1 0-15 1-16 2-2 3 0 3 9 0 7 0 7-2 7h-2zm30 0l2-17h2l1 9c0 7 0 8-2 8h-3zm-42-3c0-1-1-2-3-2s-2 0-1 2 4 2 4 0zm69-4c-2-2-5-2-7-1-1 2 0 3 3 3 4 1 6-1 4-2zm29-19c4-3 5-5 3-7-1-2-1-1-4 2s-5 7-3 7l4-2zm-7-34l1-4 2-8c-1-2 0-6 1-8 1-3 1-3-1-4l-2-2v9c0 7 0 11-2 13l-2 6c0 2 0 2 1 1l2-3zm-5-8c2-3 1-8 0-12l-3-6c0-2-1-2-2-2l-2 1c0 4 0 7 2 10v4l1 7c1 1 3 1 4-2zM84 20v-8c0-5-1-1-2 7-1 7 1 8 2 1zm11 2l1-9-2-5c-3 0-4 3-3 10l1 5 3-1z"/>
  <path fill="#f88f8f" d="M18 250c-2-2-2-3-2-6 0-7 2-11 7-14l1-36v-35h-9l-1-4v-9c0-6-1-4 18-25l8-10h40l-1-5-3-5c-2-1-3-3-1-6 0-1 0-2-3-3-3-3-4-5-1-8v-7c-3-6-3-19 0-25 0-3 2-7 4-10l2-5-1-2-3-4c-1-3-1-3 1-5l3-5C79 6 80 6 89 4h15c10 1 10 2 21 5 3 1 6 2 7 1l2 1 6-1c7-3 31-5 44-3 6 1 8 2 10 4 2 3 2 6 0 11v8c0 4 0 5-2 7-2 5-3 9-1 10l2 4c1 6 3 10 6 12 4 5 5 7 3 11s-7 10-10 10v5c0 2 0 2-3 2h-4v7l-2 8h-5c0-1-2 0-3 2l-2 3 7-1c8 0 12 1 12 3l-2 2-70 1H48l2 2 71 1a1889 1889 0 0167 3l-4 1 2 4 2 4h9l9-1c0-2-5-8-8-8-3-1-3-2 0-3 4-1 5-1 10 6l4 6 6 2 8 3h-3l-7-1-89-1-86-1 3-6 5-6-2-2-2-3-6 6c-16 18-16 18-14 18 3 0 5-2 5-3 1-2 4-3 8-3 3 0 2 2-1 3l-3 2 198-1a1534 1534 0 01-18-20c-1 2-7 3-8 2s0-2 2-3h-4c-6-1-8-1-7-4 1-2 2-2 10-2h10l10 12 11 12-1 11-1 12-3 1h-3v69l3 1 3 3c1 2 0 17-1 18l-108 1c-107 1-107 1-109-1zm212-8a1195 1195 0 00-2-6v1H126c-96 0-102 0-104 2l-1 4v3h209zm-6-46v-37H30v75h194zM76 226l-1-5-1-3H63c-8 0-11 0-12-2-3-3-1-4 12-5h11l1-2v-3h-7l-7-1-7-1c-4 0-6 0-6-2-2-2 0-3 6-4 7-1 8-4 1-3-4 1-5 0-6-1-4-4 0-5 13-5 5-1 6-1 6-4l-7-1-7-1c-2-4 0-5 9-5 8 0 10 0 10-2s-2-2-10-2c-10 0-14-1-12-4 1-1 3-2 12-2h11l1-3 2-3c2 0 4 2 4 4s1 2 10 2l11 1v4l-11 1-12 1c-2 3-1 4 10 4h10v2c0 2 0 3-6 3-7 0-8 1-6 4l10 2 9 1c0 3-2 4-8 5h-5l3 2 8 1h4v2c1 2-4 4-8 4l-11 1c-8 0-8 0-8 3 0 2 0 2 10 2h12c2 1 3 3 1 5l-12 1H81v4c0 3-1 4-2 5h-3zm-1-29c0-2-1-2-3-2l-5 2-2 3h5c5 0 5 0 5-3zm11 0l-4-2-1 2c0 3 0 3 3 3h4zm-6-11c-1-2-4-3-5 0-1 2-1 2 2 2 4 0 4 0 3-2zm117 39l-3-4c0-3 2-4 5-2s4 1 4-9l-1-7c-3 0-6-1-8-4l-1-3-2 2c-2 3-3 4-6 5-2 0-2 1-2 11 0 9-1 10-2 11-3 2-4-1-4-14l-1-12-3-2c-1-2-1-2-4-1l-3 1v9c0 17-1 20-4 20l-2-1v-28h-4c-8 0-9-3-5-9l3-4-3-2c-3-2-3-5-1-8 7-6 13-9 18-9l1 2c0 2-1 3-5 5-6 3-8 5-7 6 0 2 3 2 5 0 6-5 10-6 10-2 0 2-1 3-3 5l-12 10 11-1v-3c0-3 2-5 4-4l3 4 2 3v-7c0-10 0-10 7-10h5l1-3c0-7 6-7 6 0v3h5c7 0 7 0 8 23 0 20 0 25-3 28-2 3-6 3-9 1zm6-36l-1-9-6-1c-1 2 2 14 4 16 2 4 3 3 3-6zm-17 4l2-9 1-4h-6v8l1 8 2-3zm-39 28l1-3c2-2 3-4 4-9 1-8 2-10 4-8 1 0 2 2 2 6l-2 9c-2 7-6 9-9 5zm24-1l-2-9c-1-9-1-11 3-11 1 0 2 1 3 8 2 8 1 12-1 12h-3zm62-71v-6h-8l-107-1-98 1v10l107 1h106zm-81-24c-1-3-1-3-4-3-2 0-2 0-2 2l1 4c0 2 0 3 3 3s3-1 2-6zm-88 1l3-4-5-1h-7l-8 9 7 1h7zm7 3l3-5c1-2 0-2-2-2l-4 4-2 5h2l3-2zm19-2c2-5 2-5-3-6-5 0-8 0-9 2l-2 4-1 4 7-1h6zm8 0c2-5 2-5-1-5l-3 1-1 4c-2 4-2 4 1 4s3-1 4-4zm19 0l1-5-5-1c-6-1-10 0-10 3l-2 5c-1 2 0 2 7 2h8zm9 1l1-5-3-1c-4 0-4 0-4 4v5h3c3 0 3 0 3-3zm17-1c0-5-2-7-8-6l-5 1v9h13zm31 2l-1-1-1-3c0-3 0-3-4-4l-13 2 1 4 1 4h8c7 0 9-1 9-2zm9 1l-1-4c-2-4-2-4-4-4-3 0-3 0-2 3 1 5 2 6 5 6l2-1zm-60-18h16c5 0 9-2 10-6l-1-3c-1-2 0-4 2-6 2-1 3-2 4-6 1-7 1-10-3-16-4-5-4-5-5-4l-1 5c0 6-3 5-7-3-1-4-3-6-3-5 0 3-5 13-9 16l-4 3-3-3-3-5v-2l-4-12c0-4-2-2-2 3 0 4-2 10-3 10l-3-4-3-4-2 5c-4 6-4 9-2 14l2 12c0 7 0 7 2 9 4 2 5 3 7 2h15zm-16-12c-1-1 0-15 1-16 2-2 3 0 3 9 0 7 0 7-2 7h-2zm30 0l2-17h2l1 9c0 7 0 8-2 8h-3zm-42-3c0-1-1-2-3-2s-2 0-1 2 4 2 4 0zm69-4c-2-2-5-2-7-1-1 2 0 3 3 3 4 1 6-1 4-2zm29-19c4-3 5-5 3-7-1-2-1-1-4 2s-5 7-3 7l4-2zm-7-34l1-4 2-8c-1-2 0-6 1-8 1-3 1-3-1-4l-2-2v9c0 7 0 11-2 13l-2 6c0 2 0 2 1 1l2-3zm-5-8c2-3 1-8 0-12l-3-6c0-2-1-2-2-2l-2 1c0 4 0 7 2 10v4l1 7c1 1 3 1 4-2zM84 20v-8c0-5-1-1-2 7-1 7 1 8 2 1zm11 2l1-9-2-5c-3 0-4 3-3 10l1 5 3-1z"/>
  <path fill="#ceb395" d="M18 250c-2-2-2-3-2-6 0-7 2-11 7-14l1-36v-35h-9l-1-4v-9c0-6-1-4 18-25l8-10h40l-1-5-3-5c-2-1-3-3-1-6 0-1 0-2-3-3-3-3-4-5-1-8v-7c-3-6-3-19 0-25 0-3 2-7 4-10l2-5-1-2-3-4c-1-3-1-3 1-5l3-5C79 6 80 6 89 4h15c10 1 10 2 21 5 3 1 6 2 7 1l2 1 6-1c7-3 31-5 44-3 6 1 8 2 10 4 2 3 2 6 0 11v8c0 4 0 5-2 7-2 5-3 9-1 10l2 4c1 6 3 10 6 12 4 5 5 7 3 11s-7 10-10 10v5c0 2 0 2-3 2h-4v7l-2 8h-5c0-1-2 0-3 2l-2 3 7-1c8 0 12 1 12 3l-2 2-70 1H48l2 2 71 1a1889 1889 0 0167 3l-4 1 2 4 2 4h9l9-1c0-2-5-8-8-8-3-1-3-2 0-3 4-1 5-1 10 6l4 6 6 2 8 3h-3l-7-1-89-1-86-1 3-6 5-6-2-2-2-3-6 6c-16 18-16 18-14 18 3 0 5-2 5-3 1-2 4-3 8-3 3 0 2 2-1 3l-3 2 198-1a1534 1534 0 01-18-20c-1 2-7 3-8 2s0-2 2-3h-4c-6-1-8-1-7-4 1-2 2-2 10-2h10l10 12 11 12-1 11-1 12-3 1h-3v69l3 1 3 3c1 2 0 17-1 18l-108 1c-107 1-107 1-109-1zm212-8a1195 1195 0 00-2-6v1H126c-96 0-102 0-104 2l-1 4v3h209zm-6-46v-37H30v75h194zM76 226l-1-5-1-3H63c-8 0-11 0-12-2-3-3-1-4 12-5h11l1-2v-3h-7l-7-1-7-1c-4 0-6 0-6-2-2-2 0-3 6-4 7-1 8-4 1-3-4 1-5 0-6-1-4-4 0-5 13-5 5-1 6-1 6-4l-7-1-7-1c-2-4 0-5 9-5 8 0 10 0 10-2s-2-2-10-2c-10 0-14-1-12-4 1-1 3-2 12-2h11l1-3 2-3c2 0 4 2 4 4s1 2 10 2l11 1v4l-11 1-12 1c-2 3-1 4 10 4h10v2c0 2 0 3-6 3-7 0-8 1-6 4l10 2 9 1c0 3-2 4-8 5h-5l3 2 8 1h4v2c1 2-4 4-8 4l-11 1c-8 0-8 0-8 3 0 2 0 2 10 2h12c2 1 3 3 1 5l-12 1H81v4c0 3-1 4-2 5h-3zm-1-29c0-2-1-2-3-2l-5 2-2 3h5c5 0 5 0 5-3zm11 0l-4-2-1 2c0 3 0 3 3 3h4zm-6-11c-1-2-4-3-5 0-1 2-1 2 2 2 4 0 4 0 3-2zm117 39l-3-4c0-3 2-4 5-2s4 1 4-9l-1-7c-3 0-6-1-8-4l-1-3-2 2c-2 3-3 4-6 5-2 0-2 1-2 11 0 9-1 10-2 11-3 2-4-1-4-14l-1-12-3-2c-1-2-1-2-4-1l-3 1v9c0 17-1 20-4 20l-2-1v-28h-4c-8 0-9-3-5-9l3-4-3-2c-3-2-3-5-1-8 7-6 13-9 18-9l1 2c0 2-1 3-5 5-6 3-8 5-7 6 0 2 3 2 5 0 6-5 10-6 10-2 0 2-1 3-3 5l-12 10 11-1v-3c0-3 2-5 4-4l3 4 2 3v-7c0-10 0-10 7-10h5l1-3c0-7 6-7 6 0v3h5c7 0 7 0 8 23 0 20 0 25-3 28-2 3-6 3-9 1zm6-36l-1-9-6-1c-1 2 2 14 4 16 2 4 3 3 3-6zm-17 4l2-9 1-4h-6v8l1 8 2-3zm-39 28l1-3c2-2 3-4 4-9 1-8 2-10 4-8 1 0 2 2 2 6l-2 9c-2 7-6 9-9 5zm24-1l-2-9c-1-9-1-11 3-11 1 0 2 1 3 8 2 8 1 12-1 12h-3zm62-71v-6h-8l-107-1-98 1v10l107 1h106zm-81-24c-1-3-1-3-4-3-2 0-2 0-2 2l1 4c0 2 0 3 3 3s3-1 2-6zm-88 1l3-4-5-1h-7l-8 9 7 1h7zm7 3l3-5c1-2 0-2-2-2l-4 4-2 5h2l3-2zm19-2c2-5 2-5-3-6-5 0-8 0-9 2l-2 4-1 4 7-1h6zm8 0c2-5 2-5-1-5l-3 1-1 4c-2 4-2 4 1 4s3-1 4-4zm19 0l1-5-5-1c-6-1-10 0-10 3l-2 5c-1 2 0 2 7 2h8zm9 1l1-5-3-1c-4 0-4 0-4 4v5h3c3 0 3 0 3-3zm17-1c0-5-2-7-8-6l-5 1v9h13zm31 2l-1-1-1-3c0-3 0-3-4-4l-13 2 1 4 1 4h8c7 0 9-1 9-2zm9 1l-1-4c-2-4-2-4-4-4-3 0-3 0-2 3 1 5 2 6 5 6l2-1zm-60-18h16c5 0 9-2 10-6l-1-3c-1-2 0-4 2-6 2-1 3-2 4-6 1-7 1-10-3-16-4-5-4-5-5-4l-1 5c0 6-3 5-7-3-1-4-3-6-3-5 0 3-5 13-9 16l-4 3-3-3-3-5v-2l-4-12c0-4-2-2-2 3 0 4-2 10-3 10l-3-4-3-4-2 5c-4 6-4 9-2 14l2 12c0 7 0 7 2 9 4 2 5 3 7 2h15zm-16-12c-1-1 0-15 1-16 2-2 3 0 3 9 0 7 0 7-2 7h-2zm30 0l2-17h2l1 9c0 7 0 8-2 8h-3zm-42-2c-1-5-1-6-3-6-3 0-3 1-2 3l1 4c0 2 0 2 2 2 1 0 2-1 2-3zm70-6l-1-5-3-1c-3-2-3-2-4 2l-1 7c0 3 1 3 5 3h4zm-90-6v0zm118-10l4-4c1-3 1-3-4-8l-5-4 1 5v7c-1 2 0 6 1 6l3-2zm-7-36l1-4 2-8c-1-2 0-6 1-8 1-3 1-3-1-4l-2-2v9c0 7 0 11-2 13l-2 6c0 2 0 2 1 1l2-3zm-4-14c0-11-1-13-5-14s-25 0-30 2l-4 1h4l13 5 4 3 12 8 2 3c2 2 2 2 3 1l1-9zm-98-6v-8c0-5-1-1-2 7-1 7 1 8 2 1zm12 1l16-5 7-1 3-1h1l-4-2-6-1-7-2-9-1c-6 0-8 1-9 10v6h2l6-3z"/>
  <path fill="#cbac69" d="M18 250c-2-2-2-4-1-10 1-4 1-5 4-8l3-2v-36l1-35h-4l-6-1-1-10v-8l8-8 13-15 5-6h6a647 647 0 0034-1l-2-5c0-3 0-4-2-4s-3-2-1-5c1-2 0-2-3-5s-3-4-1-7v-8a46 46 0 016-38l-2-4c-3-4-3-7 0-8l3-13c1-4 3-8 6-8h2c10-2 25-1 40 4l5 2h3l7-1c8-3 27-4 39-3 14 2 17 5 15 13l-1 9-2 8c-3 4-3 8-1 11l2 4 1 4 2 3 3 5c4 3 4 4 3 7l-2 6-8 7v2c2 4 0 6-4 5h-3v7c-1 8-2 10-6 8-2-1-2-1-4 2l-3 3h9c10 0 12 1 9 4l-71 1a20163 20163 0 00-69 2l69 1a11380 11380 0 0170 1l-3 2c-3 0-3 0-1 5 2 3 3 3 7 4h10l5-1-3-4c-1-3-3-4-4-4l-3-2c-2-1-2-1 0-1h4c2-1 3 0 6 6 4 5 5 7 7 7 9 2 14 5 7 4a3682 3682 0 00-180-2c-1-1 0-3 3-7l5-6-5-5-1 1-7 8-10 11-3 4h4c3 0 3-1 4-2 0-2 8-5 8-3l-3 2-2 2h79l120-1-7-9c-11-13-11-12-12-11l-9 1 3-2h-3c-7-1-9-1-8-4 1-2 2-2 10-2h10l4 6 13 14 3 4v11c0 12 0 13-4 13h-3v35l1 34 3 3c2 2 3 6 2 14-1 4-1 5-3 6l-108 1c-93 0-105-1-107-2zm212-4l1-6-1-6c-1-1-1-1-2 1v2H126c-97 0-102 0-104 2v7h208zm-6-49v-38l-97-1H30v76h194v-37zM75 222v-5H52c-2-2-2-4 1-5l12-1h10v-2c0-2 0-2-7-3l-8-2h-4c-4 1-6 1-8-1s0-3 6-5l6-2-6-1c-5 0-6-1-6-2-1-3 1-4 9-4 9 0 10 0 11-3l1-2h-7c-8 0-8 0-8-3 0-2 0-2 8-2 9 0 11-1 11-4l-10-1-11-1v-3c0-2 2-2 11-2h11l1-3c2-3 4-3 5 0 1 2 2 3 6 3l10 1c6 0 8 1 5 4l-11 1-11 1c-2 3-1 4 10 4h10v2c0 2 0 3-6 3s-7 0-7 2c0 3 2 3 10 3s10 1 9 4c0 1-2 2-6 2l-6 1c0 1 6 3 10 3l4 2c1 2-4 4-8 4l-10 1c-8 0-8 0-8 3l1 2h10c10 0 13 1 13 3s-3 3-14 3H81v3c0 4-1 6-3 6s-2-1-3-4zm13-22l-5-5c-3 0-3 5-1 5h6zm-13-2c0-2 0-3-3-3-2 0-3 0-5 2l-2 3h5c6 0 6 0 5-2zm6-10c0-1-2-4-4-4s-4 4-2 5l6-1zm79 37v-28h-4c-5 0-8-2-7-5l3-5 2-2-3-3c-3-3-3-5-1-8 4-3 12-8 16-8 3-1 3-1 3 1s-2 3-6 5l-7 6 1 1c2 1 3 1 6-1 6-5 9-5 9-2 0 2-2 3-4 5-5 3-12 10-11 11l6-1 6-1v-4c0-3 0-3 2-3l4 3 2 4v-6l1-8c1-2 1-3 6-3h5v-3c0-3 1-4 2-5 2-1 2-1 3 1l2 4v3h4c5 0 5 1 7 3l1 24c0 19 0 21-2 23-2 3-8 4-10 1l-2-4c1-2 4-2 6 0s3-1 3-8v-8l-3-1c-3-1-4-2-6-5l-2-4-2 4-4 4-3 1v11c0 9 0 10-2 11-3 0-4-2-4-15l-1-11-2-1-1-2h-4l-3 1v13l-1 14c-1 2-5 2-5 1zm43-36l-1-9-3-1h-4l1 3c1 9 2 13 4 14l3 2v-9zm-17 5c1-3 4-13 3-14l-3-1h-2l-1 9c0 9 1 10 3 6zm-38 29c-1-2 0-4 1-6l3-9c1-7 1-8 3-8 3 0 3 3 2 11-1 7-2 9-4 11l-5 1zm23-6l-1-10c-1-6-1-7 1-7s2 1 3 5l1 10c1 4 0 5-1 5-2 0-2 0-3-3zm62-69l-1-5-106-1H20v12h213zM60 131c1-1 8-8 8-10l-15 1c-2 1-7 8-6 9h13zm12-4l3-5h-3l-4 3-2 4c-1 2-1 3 2 3 2 0 3-1 4-5zm16 4l4-8c0-1-3-2-8-2h-5l-3 5-2 4 2 1h12zm10-2l1-5c1-2 1-2-2-2-2 0-3 0-3 2l-2 4c-1 2 0 4 3 4l3-3zm18 2l2-5v-4l-5-1h-8l-3 4-1 4v2h15zm10-2l1-5c1-2 1-2-1-3-5-1-6 0-6 5v6h3c3 0 3-1 3-3zm17-3v-5h-10l-4 1v4l1 5h7l6 1zm10 1c-1-5-1-5-5-5h-2v4c1 5 1 6 4 6h3zm21 4v-5c-1-4-1-4-6-4l-9-1c-5 1-5 2-3 7l1 3h17zm9 0l-1-5c-1-4-4-5-7-4-1 0 1 6 3 8 1 2 4 2 5 1zm-37-20c2-2 4-6 2-9-1-2 0-4 3-5 2-1 4-6 4-12 0-4-1-5-4-10s-4-6-5-4l-1 5c0 7-3 5-7-4l-3-6v3c-2 7-9 17-13 17l-6-7-1-4-2-8c-1-5-3-5-3 1l-3 10-3-4-2-4-3 3-3 8c-2 3-2 4 1 8l2 12c0 7 0 7 2 9l4 2a314 314 0 0041-1zm-39-13v-8c0-5 0-6 2-6s2 1 2 8-1 8-2 8-2 0-2-2zm31-6l1-9c3-1 3 1 3 8 0 8 0 9-3 9l-1-8zm24 10h-2 2zm-67-2v-4c-1-3-1-4-3-4h-3l1 5c1 3 1 4 3 4l2-1zm70-8l-1-5-3-1c-3-2-3-2-4 2l-1 7c0 3 1 3 5 3h4zm-90-6v0zm118-10l4-4 1-3-5-5-5-4v4l1 6c-1 3 0 8 1 8l3-2zm-7-36l1-4c1-1 2-3 2-7-1-4 0-7 1-9 1-3 1-2-1-5s-4-1-2 2c2 5 0 18-3 23l-1 3c1 1 3-1 3-3zm-4-14c0-11-1-13-5-14s-25 0-30 2l-4 1h4l13 5 5 3 10 8c4 5 5 5 6 4l1-9zm-98-9c0-7 0-8-1-5-2 3-2 13 0 13l1-8zm12 4l16-5 7-1 3-1h1l-4-2-6-1-16-3c-7 0-8 1-9 10v6h2l6-3z"/>
  <path fill="#b49f88" d="M18 250c-2-2-2-4-1-10 1-4 1-5 4-8l3-2v-36l1-35h-4l-6-1-1-10v-8l8-8 13-15 5-6 5 1h7a434 434 0 0127-2c-1-8-1-9-3-9s-3-2-1-5c1-2 0-2-3-5s-3-4-1-7v-8a46 46 0 016-38l-2-4c-3-4-3-7 0-8l3-13c1-4 3-8 6-8h2c8-2 20-1 32 2 17 5 18 5 23 3 8-3 27-4 39-3 14 2 17 5 15 13l-1 9-2 8c-3 4-3 8-1 11l2 4 1 4 2 3 3 5c4 3 4 4 3 7l-2 6-8 7v2c2 4 0 6-4 5h-3v7c-1 8-2 10-6 8-2-1-2-1-4 2l-3 3h9c10 1 11 1 9 4-2 2-20 2-23 0h-4l-12 1c-10 0-12-1-6-4 3-3 5-7 3-10-1-2 0-4 3-5 2-1 4-6 4-12 0-4-1-5-4-10s-4-6-5-4l-1 5c0 7-3 5-7-4l-3-6v3c-2 7-9 17-13 17l-6-7-1-4-2-8c-1-5-3-5-3 1l-3 10-3-4-2-4-3 3-3 8c-2 3-2 4 1 8l2 12c0 7 0 7 3 10l3 4c-1 1-2 2-13 1a380 380 0 00-42 0c-2 1-2 1 0 2l3 2-3 5-3 6c1 1 11 1 13-1 2 0 4-2 5-4 3-4 3-4 2-5l-3-1h-3l6-1h11l2 1-4 5-2 6h14c5-7 5-9 0-10l-5-2h9c14 0 16 0 12 3-2 1-4 7-3 9h15l2-5c0-4 0-4-2-5l-4-1c0-1 17-2 21-1l3 1-4 1c-3 1-3 1-3 5 0 5 0 5 9 6h5v-5l-1-6c-2-1-2-1 0-2h18c2 1 2 1 0 2l-3 1c-3 0-3 2-1 6l1 3h17v-5c-1-3-2-4-4-4-5-2-4-3 3-3a200 200 0 0015 0c2 0 2 1 1 2l-3 1c-3 0-3 0-1 5 2 3 3 3 7 4h10l5-1-3-4-4-5c-3 0-4-2-2-2h3c2-1 3 0 6 6 4 5 5 7 7 7 9 2 14 5 7 4a3682 3682 0 00-180-2c-1-1 0-3 3-7l5-6-5-5-1 1-7 8-10 11-3 4h4c3 0 3-1 4-2 0-2 8-5 8-3l-3 2-2 2h79l120-1-7-9c-11-13-11-12-12-11l-9 1 3-2h-2c-8-1-9-2-6-4 1-2 3-2 9-2h8l4 6 13 14 3 4v11c0 12 0 13-4 13h-3v35l1 34 3 3c2 2 3 6 2 14-1 4-1 5-3 6l-108 1c-93 0-105-1-107-2zm212-4l1-6-1-6c-1-1-1-1-2 1v2H126c-97 0-102 0-104 2v7h208zm-6-49v-38l-97-1H30v76h194v-37zM75 222v-5H52c-2-2-2-4 1-5l12-1h10v-2c0-2 0-2-7-3l-8-2h-4c-4 1-6 1-8-1s0-3 6-5l6-2-6-1c-5 0-6-1-6-2-1-3 1-4 9-4 9 0 10 0 11-3l1-2h-7c-8 0-8 0-8-3 0-2 0-2 8-2 9 0 11-1 11-4l-10-1-11-1v-3c0-2 2-2 11-2h11l1-3c2-3 4-3 5 0 1 2 2 3 6 3l10 1c6 0 8 1 5 4l-11 1-11 1c-2 3-1 4 10 4h10v2c0 2 0 3-6 3s-7 0-7 2c0 3 2 3 10 3s10 1 9 4c0 1-2 2-6 2l-6 1c0 1 6 3 10 3l4 2c1 2-4 4-8 4l-10 1c-8 0-8 0-8 3l1 2h10c10 0 13 1 13 3s-3 3-14 3H81v3c0 4-1 6-3 6s-2-1-3-4zm13-22l-5-5c-3 0-3 5-1 5h6zm-13-2c0-2 0-3-3-3-2 0-3 0-5 2l-2 3h5c6 0 6 0 5-2zm6-10c0-1-2-4-4-4s-4 4-2 5l6-1zm79 37v-28h-4c-5 0-8-2-7-5l3-5 2-2-3-3c-3-3-3-5-1-8 4-3 12-8 16-8 3-1 3-1 3 1s-2 3-6 5l-7 6 1 1c2 1 3 1 6-1 6-5 9-5 9-2 0 2-2 3-4 5-5 3-12 10-11 11l6-1 6-1v-4c0-3 0-3 2-3l4 3 2 4v-6l1-8c1-2 1-3 6-3h5v-3c0-3 1-4 2-5 2-1 2-1 3 1l2 4v3h4c5 0 5 1 7 3l1 24c0 19 0 21-2 23-2 3-8 4-10 1l-2-4c1-2 4-2 6 0s3-1 3-8v-8l-3-1c-3-1-4-2-6-5l-2-4-2 4-4 4-3 1v11c0 9 0 10-2 11-3 0-4-2-4-15l-1-11-2-1-1-2h-4l-3 1v13l-1 14c-1 2-5 2-5 1zm43-36l-1-9-3-1h-4l1 3c1 9 2 13 4 14l3 2v-9zm-17 5c1-3 4-13 3-14l-3-1h-2l-1 9c0 9 1 10 3 6zm-38 29c-1-2 0-4 1-6l3-9c1-7 1-8 3-8 3 0 3 3 2 11-1 7-2 9-4 11l-5 1zm23-6l-1-10c-1-6-1-7 1-7s2 1 3 5l1 10c1 4 0 5-1 5-2 0-2 0-3-3zm62-69l-1-5-106-1H20v12h213zM72 127l3-5h-3l-4 3-2 4c-1 2-1 3 2 3 2 0 3-1 4-5zm26 2l1-5c1-2 1-2-2-2-2 0-3 0-3 2l-2 4c-1 2 0 4 3 4l3-3zm28 0l1-5c1-2 0-3-4-3-3 0-4 2-3 6 0 4 0 5 3 5s3-1 3-3zm27-2c-1-5-1-5-5-5h-2v4c1 5 1 6 4 6h3zm30 4l-1-5c-1-4-4-5-7-4-1 0 1 6 3 8 1 2 4 2 5 1zm-14-23c3-5 3-7 1-7s-3 2-4 5l-2 4v2c1 2 3 0 5-4zm-7-6h-2 2zm-67-2v-4c-1-3-1-4-3-4h-3l1 5c1 3 1 4 3 4l2-1zm70-8l-1-5-3-1c-3-2-3-2-4 2l-1 7c0 3 1 3 5 3h4zm-90-6v0zm118-10l4-4 1-3-5-5-5-4v4l1 6c-1 3 0 8 1 8l3-2zm-7-36l1-4c1-1 2-3 2-7-1-4 0-7 1-9 1-3 1-2-1-5s-4-1-2 2c2 5 0 18-3 23l-1 3c1 1 3-1 3-3zm-4-14c0-11-1-13-5-14s-25 0-30 2l-4 1h4l13 5 5 3 10 8c4 5 5 5 6 4l1-9zm-98-9c0-7 0-8-1-5-2 3-2 13 0 13l1-8zm12 4l16-5 7-1 3-1h1l-4-2-6-1-16-3c-7 0-8 1-9 10v6h2l6-3zm16 95l-2-3c0-2 26-2 27 0l-1 2c-1 1-23 2-24 1zm-5-18v-8c0-5 0-6 2-6s2 1 2 8-1 8-2 8-2 0-2-2zm31-6l1-9c3-1 3 1 3 8 0 8 0 9-3 9l-1-8z"/>
  <path fill="#d47474" d="M18 250c-1-2-2-10 0-14l4-4 3-2v-71h-4c-6 0-7-1-7-10v-9l5-5a2036 2036 0 0119-20c2-4 4-4 9-3h7l14-1h12l-1-5-3-5c-2 0-3-3-1-4 1-2 1-4-3-6-3-2-3-4-1-7 2-2 2-3 0-7-4-10-2-23 4-34l3-6-3-3c-3-4-3-6 0-7l2-5c1-11 1-12 4-14 6-6 27-5 44 1l7 2 3 1 3-1c9-5 39-6 52-2 4 1 6 6 5 11l-2 9-1 8-2 5v5l3 4c1 7 3 10 6 13l3 5c1 4-5 13-10 15v6c-1 2-2 2-4 1l-3-1v4c0 5-1 11-3 12h-3c-1-1-2-1-4 2l-4 3h10c9 0 9 0 9 2 0 3-1 3-12 3l-11-1h-5l-10 1c-12 0-13-1-7-5 4-2 4-3 4-6l-1-3c-1-1 0-2 1-3l3-2c1 0 3-6 3-12 0-4-1-5-4-11-4-5-4-5-5-4l-1 6-1 4c-2-1-6-7-7-11l-1-3-2 5c-2 5-5 10-9 13-3 3-3 3-6-1s-4-8-6-15l-1-7-2 5-3 12-3-4c-3-5-3-5-9 8-1 2-1 3 1 7 2 3 2 5 2 11 0 8 0 8 4 11 5 5 4 5-9 5H50c-2 0-2 1-1 2l3 1c2 0 2 0-2 6l-4 6 8 1h7l4-5 2-6-3-1h-4l10-1c9 0 11 0 10 1-2 1-6 9-6 11h7c7 0 7 0 9-3l2-5c0-2 0-2-2-2l-5-1 9-1 12 1-2 1c-1 0-2 2-3 7l-1 4h8c9 0 11-1 10-7 0-3-1-4-2-4l-4-1 12-1c10 0 11 0 9 1l-8 1h-5v6c0 4 0 5 3 5s3-1 4-5c0-4 2-4 2 1v3h15l-1-4-1-6c-2-2-1-2 7-2h11c2 1 2 1 0 2l-4 1-1 4 1 5h19a549 549 0 00-5-10l-3-1c-1-1 3-1 11-1l11 1-4 2c-2 0-2 0 0 5l3 5h9l10-1c0-2-5-9-7-10-4 0-3-2 0-2s4 1 7 6c4 6 5 6 10 8l7 2h-7l-89-1-87-1 4-6 5-6-2-2-4-3-4 5a601 601 0 01-17 18l4 1c3 0 4-1 4-2 0-2 2-3 5-3h3l-3 2-2 2a6863 6863 0 00199-1c0-2-17-21-18-21l-2 1-8 2 3-2 3-1-3-1-10-1 2-2c1-2 3-2 9-2 8 0 6-1 19 14l9 11v10c0 11-1 14-5 13l-2-1v70l3 2 3 3v8c0 5-1 8-2 9l-108 1c-102 1-106 1-108-1zm212-5v-11h-2v2l-103 1-103 1v9c1 1 208-1 208-2zm-10-11l4-1 1-37v-38h-98l-97 1v76h93l97-1zM76 221v-4H52c-2-2-2-5 0-5a223 223 0 0015 0h9l-1-3v-3l-7-1-8-1h-5c-5 0-7 0-7-3 0-1 1-2 4-2l6-2 4-2h-7c-6-1-7-1-7-3s1-2 9-2c8-1 9-1 11-3l1-2-7-1c-7 0-9-1-8-4l9-1c7 0 9-1 9-2 2-3 1-4-9-4s-11 0-11-2 2-3 7-2l10-1c5 0 6 0 6-2 1-4 5-4 5 0 0 2 1 2 11 3 10 0 12 1 11 3l-12 2H79l-1 2-1 3h11c10 0 12 0 11 4l-7 1h-7l1 3 1 2h8c9 0 11 1 10 4-1 1-2 2-7 2l-6 1 12 4c2-1 3-1 3 1v1c-4 3-9 3-19 4l-7 1v2c0 3 0 3 11 3h12v3l-11 1c-12 0-13 0-13 6 0 3-1 3-2 4-2 0-2 0-2-5zm13-21l-1-1-2-2c-1-3-6-3-6 0l1 3h8zm-13-3c0-2-1-2-4-2-2 0-4 0-6 2l-2 3h12zm5-8c0-3-1-5-4-5l-2 1-1 2c0 2 0 2 3 2h4zm79 36v-28h-5c-7-1-8-3-3-10l3-3-3-2-3-3c-1-1 1-6 2-6l4-2c4-3 11-6 13-5s1 3-4 6c-5 2-8 5-8 6l2 2c2 1 2 1 4-2 4-2 7-4 8-3 3 1 1 3-4 7l-9 8-2 2h3l7-1c4-1 4-2 4-5s0-3 2-3l4 4c2 4 3 4 3-6v-7l6-1c5 0 6 0 6-2 0-6 0-6 2-6 2 1 2 1 2 5l1 3h5c8 0 8 1 8 28 0 21 0 21-3 23-2 2-6 2-9 0-4-3-2-7 3-4h3c1-1 2-32 1-37 0-4 0-4-4-4-3 0-3 0-3 2 0 5 2 14 5 16 2 3 2 4 0 5-3 1-4 0-6-4l-3-3-2 3-4 4-3 1v10c0 10-1 13-4 12l-1-13-1-13-3-2c-2-2-2-3-5-1l-4 1v26c-1 3-4 4-5 2zm27-32l2-9c0-5 0-5-3-5h-3v9l1 9 3-4zm-38 29c-2-2-2-3 1-5 1-2 2-3 2-8 1-7 2-9 4-8l1 8c0 7-2 12-5 13h-3zm22-6l-2-10 1-5c3-1 3 0 5 9v9c-2 3-3 1-4-3zm62-67v-7h-82l-107-1-24 1v6l-1 7h214zM72 127c3-4 3-6 0-6-2 0-4 4-7 10l2 1c3 0 3-1 5-5zm26 1c3-5 2-7-1-7-2 0-2 0-4 4-2 6-2 7 1 7s3-1 4-4zm55 1l-1-4c0-3-1-3-4-3s-3 0-3 2l1 5c1 2 1 3 4 3 2 0 3-1 3-3zm31 1l-4-8h-5v3l2 5 4 2c3 0 3-1 3-2zm-15-22c3-5 3-7 1-7l-3-1h-1l1 1v3l-2 4-1 2v2c1 2 3 0 5-4zm-7-6h-4 4zm-67-2v-4c-1-3-1-4-3-4h-3l1 5c1 3 1 4 3 4l2-1zm70-8l-1-5-3-1c-3-2-3-2-4 2l-1 7c0 3 1 3 5 3h4zm-90-6v0zm118-10l4-4 1-3-5-5-5-4v4l1 6c-1 3 0 8 1 8l3-2zm-6-38c2-4 2-6 2-9-1-3 0-5 1-8v-5c-1-3-3-3-4-2l1 5c0 4-1 16-3 20-1 3-2 5 0 5l3-6zm-5-12c0-9-1-13-4-14-2-1-22 0-30 1l-5 2h4l13 5 5 3c4 2 8 5 13 11 2 2 2 2 3 1l1-9zm-98-9c1-7 0-9-1-6-1 2-2 11-1 13 1 4 2 1 2-7zm13 5l15-6 7-1 3-1h1l-4-2-6-1-16-3c-7 0-8 1-9 10v6h2l7-2zm15 94l-2-3c0-2 26-2 27 0l-1 2c-1 1-23 2-24 1zm-4-17c-1-1-2-11-1-14 1-2 3-2 4 1l-1 14-2-1zm30-7c0-8 0-9 2-8 2 0 2 1 2 7 0 7 0 9-3 9l-1-8z"/>
  <path fill="#a78f71" d="M18 250c-1-2-2-10 0-14l4-4 3-2v-71h-4c-6 0-7-1-7-10v-9l5-5a2036 2036 0 0119-20c2-4 4-4 9-3h7l14-1h12l-1-5-3-5c-2 0-3-3-1-4 1-2 1-4-3-6-3-2-3-4-1-7 2-2 2-3 0-7-4-10-2-23 4-34l3-6-3-3c-3-4-3-6 0-7l2-5c1-11 1-12 4-14 6-6 27-5 44 1l7 2 3 1 3-1c9-5 39-6 52-2 4 1 6 6 5 11l-2 9-1 8-2 5v5l3 4c1 7 3 10 6 13l3 5c1 4-5 13-10 15v6c-1 2-2 2-4 1l-3-1v4c0 5-1 11-3 12h-3c-1-1-2-1-4 2l-4 3h10c9 0 9 0 9 2 0 3-1 3-12 3l-11-1h-5l-10 1c-12 0-13-1-7-5 4-2 4-3 4-6l-1-3c-1-1 0-2 1-3l3-2c1 0 3-6 3-12 0-4-1-5-4-11-4-5-4-5-5-4l-1 6-1 4c-2-1-6-7-7-11l-1-3-2 5c-2 5-5 10-9 13-3 3-3 3-6-1s-4-8-6-15l-1-7-2 5-3 12-3-4c-3-5-3-5-9 8-1 2-1 3 1 7 2 3 2 5 2 11 0 8 0 8 4 11 5 5 4 5-9 5H50c-2 0-2 1-1 2l3 1c2 0 2 0-2 6l-4 6 8 1h7l4-5 2-6-3-1h-4l10-1c9 0 11 0 10 1-2 1-6 9-6 11h7c7 0 7 0 9-3l2-5c0-2 0-2-2-2l-5-1 9-1 12 1-2 1c-1 0-2 2-3 7l-1 4h8c9 0 11-1 10-7 0-3-1-4-2-4l-4-1 12-1c10 0 11 0 9 1l-8 1h-5v6c0 4 0 5 3 5s3-1 4-5c0-4 2-4 2 1v3h15l-1-4-1-6c-2-2-1-2 7-2h11c2 1 2 1 0 2l-4 1-1 4 1 5h19a549 549 0 00-5-10l-3-1c-1-1 3-1 11-1l11 1-4 2c-2 0-2 0 0 5l3 5h9l10-1c0-2-5-9-7-10-4 0-3-2 0-2s4 1 7 6c4 6 5 6 10 8l7 2h-7l-89-1-87-1 4-6 5-6-2-2-4-3-4 5a601 601 0 01-17 18l4 1c3 0 4-1 4-2 0-2 2-3 5-3h3l-3 2-2 2a6863 6863 0 00199-1c0-2-17-21-18-21l-2 1-8 2 3-2 3-1-3-1-10-1 2-2c1-2 3-2 9-2 8 0 6-1 19 14l9 11v10c0 11-1 14-5 13l-2-1v70l3 2 3 3v8c0 5-1 8-2 9l-108 1c-102 1-106 1-108-1zm212-5v-11h-2v2l-103 1-103 1v9c1 1 208-1 208-2zm-10-11l4-1 1-37v-38h-98l-97 1v76h93l97-1zM76 221v-4H52c-2-2-2-5 0-5a223 223 0 0015 0h9l-1-3v-3l-7-1-8-1h-5c-5 0-7 0-7-3 0-1 1-2 4-2l6-2 4-2h-7c-6-1-7-1-7-3s1-2 9-2c8-1 9-1 11-3l1-2-7-1c-7 0-9-1-8-4l9-1c7 0 9-1 9-2 2-3 1-4-9-4s-11 0-11-2 2-3 7-2l10-1c5 0 6 0 6-2 1-4 5-4 5 0 0 2 1 2 11 3 10 0 12 1 11 3l-12 2H79l-1 2-1 3h11c10 0 12 0 11 4l-7 1h-7l1 3 1 2h8c9 0 11 1 10 4-1 1-2 2-7 2l-6 1 12 4c2-1 3-1 3 1v1c-4 3-9 3-19 4l-7 1v2c0 3 0 3 11 3h12v3l-11 1c-12 0-13 0-13 6 0 3-1 3-2 4-2 0-2 0-2-5zm13-21l-1-1-2-2c-1-3-6-3-6 0l1 3h8zm-13-3c0-2-1-2-4-2-2 0-4 0-6 2l-2 3h12zm5-8c0-3-1-5-4-5l-2 1-1 2c0 2 0 2 3 2h4zm79 36v-28h-5c-7-1-8-3-3-10l3-3-3-2-3-3c-1-1 1-6 2-6l4-2c4-3 11-6 13-5s1 3-4 6c-5 2-8 5-8 6l2 2c2 1 2 1 4-2 4-2 7-4 8-3 3 1 1 3-4 7l-9 8-2 2h3l7-1c4-1 4-2 4-5s0-3 2-3l4 4c2 4 3 4 3-6v-7l6-1c5 0 6 0 6-2 0-6 0-6 2-6 2 1 2 1 2 5l1 3h5c8 0 8 1 8 28 0 21 0 21-3 23-2 2-6 2-9 0-4-3-2-7 3-4h3c1-1 2-32 1-37 0-4 0-4-4-4-3 0-3 0-3 2 0 5 2 14 5 16 2 3 2 4 0 5-3 1-4 0-6-4l-3-3-2 3-4 4-3 1v10c0 10-1 13-4 12l-1-13-1-13-3-2c-2-2-2-3-5-1l-4 1v26c-1 3-4 4-5 2zm27-32l2-9c0-5 0-5-3-5h-3v9l1 9 3-4zm-38 29c-2-2-2-3 1-5 1-2 2-3 2-8 1-7 2-9 4-8l1 8c0 7-2 12-5 13h-3zm22-6l-2-10 1-5c3-1 3 0 5 9v9c-2 3-3 1-4-3zm62-67v-7h-82l-107-1-24 1v6l-1 7h214zM72 127c3-4 3-6 0-6-2 0-4 4-7 10l2 1c3 0 3-1 5-5zm26 1c3-5 2-7-1-7-2 0-2 0-4 4-2 6-2 7 1 7s3-1 4-4zm55 1l-1-4c0-3-1-3-4-3s-3 0-3 2l1 5c1 2 1 3 4 3 2 0 3-1 3-3zm31 1l-4-8h-5v3l2 5 4 2c3 0 3-1 3-2zm-15-22c3-5 3-7 1-7l-3-1h-1l1 1v3l-2 4-1 2v2c1 2 3 0 5-4zm-74-8v-7c-1-3-1-4-2-3l-2 2c-2 0-2 0-2 4l2 6c2 1 4 0 4-2zm67 2h-4 4zm2-4c2 0 2-1 2-6l-1-6-4-1-3-1c-1 1-3 12-2 13 0 2 5 2 8 1zM76 87c0-2-1-2-2-1 0 1 0 3 2 3v-2zm119-11l3-6c0-1-9-12-10-11v10c1 12 1 12 7 7zm-8-38c2-4 2-6 2-9-1-3 0-5 1-8v-5c-1-3-3-3-4-2l1 5c0 4-1 16-3 20-1 3-2 5 0 5l3-6zm-5-2c2-5 1-22-1-24-3-2-28-1-38 2l-5 1 9 2c13 4 21 8 28 15l6 5 1-1zM84 17c1-7 0-9-1-6-1 2-2 11-1 13 1 4 2 1 2-7zm14 4c9-3 18-5 24-5l6-1c-1-3-21-7-31-7h-7l-1 3-1 12c0 1 4 1 10-2zm14 95l-2-3c0-2 26-2 27 0l-1 2c-1 1-23 2-24 1zm-4-17c-1-1-2-11-1-14 1-2 3-2 4 1l-1 14-2-1zm30-7c0-8 0-9 2-8 2 0 2 1 2 7 0 7 0 9-3 9l-1-8z"/>
  <path fill="#91705d" d="M19 250c-2-1-2-2-2-6 0-6 2-11 5-12l3-2v-72h-5c-6 0-6 0-6-10 0-7 0-7 3-10l22-24c1-2 2-3 6-2 5 0 6 2 4 3l-4 1-4 3a600 600 0 01-18 20l105 1h105v-2l-18-21h-2l-7 3 2-2 4-2h-3c-6 0-10-1-10-2s1-2 3-2h15l15 18 5 6v8c0 12 0 14-4 14l-3 1v69l3 3c3 2 3 3 3 4v14l-4 1c-2 1-16 2-107 2-93 0-104-1-106-2zm212-9v-7c-2-2-3-1-3 1v2h-97a4324 4324 0 01-108 1l-2 5v4h210zm-8-7c2 0 2-5 2-38v-38H30v37 39l96 1 97-1zm-147-9l-1-5v-4H63l-12-1c0-2 1-2 5-3h20v-7h-7l-8-1-7-1c-5 0-6 0-6-2 0-1 1-2 4-2 4-1 9-3 8-4l-6-1c-5 0-6 0-6-2l1-2h3l8-1c7 0 7 0 9-2l1-3h-7l-9-1c-2-3 1-4 10-5h8l1-2v-3H63c-10 0-11 0-11-2s1-2 11-2h11l1-3c2-3 4-3 5 0 1 2 1 2 10 3 10 0 13 1 12 3l-12 1c-10 0-11 0-12 2-2 4-1 5 10 5s11 0 11 2c-1 1-1 2-7 2s-6 0-6 2c1 3 3 4 11 4s8 0 8 2c-1 2-1 2-7 2l-6 1c0 2 9 5 11 5 2-1 3 0 3 1 1 2-2 3-7 3l-4 1-8 1h-7v5h12l12 1v4H80v5c0 3-1 4-2 5l-2-1zm13-25l-7-6c-2 0-3 3-2 6 1 1 9 2 9 0zm-13-3c0-2-1-2-3-3-2 0-4 1-7 4l-2 2h12zm5-8v-3c-2-3-6-3-7 0v3h7zm80 35l-1-14v-14h-4c-7 0-9-3-4-8l3-3-3-3c-4-3-4-6 2-10 7-6 13-8 14-6s-1 3-5 6c-6 3-8 5-7 6 2 3 4 3 7 0 5-4 8-4 8-2 1 1 0 2-2 3l-13 12h10c4-1 4-1 3-5 0-3 0-3 2-3l4 4 2 4 1-7c0-11 0-11 6-11h6v-3l2-4c2 0 2 0 2 4l1 3h5c5 0 7 2 8 6a280 280 0 01-3 44l-4 3c-3 0-7-4-7-6 1-2 3-2 5 0 4 3 4 1 4-20v-20l-4-2c-3 0-3 1-3 3-1 5 2 14 5 16 2 3 2 4 0 5s-5-1-7-5c-1-3-3-4-3-2 0 3-4 7-6 7s-2 0-2 10l-1 12h-3l-1-13c0-11 0-12-2-13l-2-2c-2-2-3-2-6 0-3 1-3 1-3 10 0 13-1 19-2 20l-2-2zm26-31l2-9 1-5h-7v9c0 10 1 12 4 5zm-38 29c-2-2-2-3 1-5 1-1 2-3 2-8 1-8 2-10 4-8s1 13-1 17c-1 3-5 6-6 4zm23-2l-3-14 1-5c2-2 3-1 4 4l1 9v5c-1 2-2 2-3 1zm61-71c0-6 0-7-3-7a6001 6001 0 00-211 1v9l1 3h213zM32 137l1-1h3v1h-3-1zm186-2l-89-1-88-1 3-5c6-7 6-8 4-9v-2l1 1 3 1 1 1-4 5-4 6h17l3-5c4-5 5-6 2 0l-2 5h3c2 0 3-1 5-4l2-5-4-1-3-1 5-1c6 0 6 0 3 7-2 2-3 5-2 5l7 1h8l1-3 2-5v3l-1 5h4c3 0 3-1 4-5l1-6h-6l-8-1 8-1 11 1-2 2-2 3-1 5 9 1h9v-3c1-3 2-2 2 1 0 2 0 2 3 2 3 1 3 1 4-3l1-4v4l1 4h15v-5c0-3 0-5-2-6l-2-2h11c10 0 13 1 6 2-3 1-3 1-3 4 2 7 1 7 12 7 9 0 9 0 9-2l-1-6c-1-3-1-3-4-3l-3-1 11-1 10 1-3 1c-3 0-3 1 0 6l3 5h9l10-1c0-3-5-9-7-10-3-1-2-2 1-2 2 0 3 1 5 4l4 6c0 2 2 3 7 4l6 2h-5zm-65-7c-1-6-2-7-5-7s-3 0-2 4c0 6 0 7 4 6 3 0 3 0 3-3zm31 3l-2-5c-1-5-1-5-4-5-4 0-5 1-2 6 2 4 2 5 5 5l3-1zm-71-11l10-1 10 1h-20zm-52-4c-8-1-10-2-6-4h18c3 0 5 2 3 3l-15 1zm20-1c-4-1-4-2-2-3s2-1 1-4l-2-5c0-2 0-3-1-2-2 1-4-2-2-4 1-3 1-4-2-5-3-2-4-5-2-8l2-2-2-6c-3-10-1-24 5-35l2-4-2-2c-3-4-4-7-1-9l2-3c0-5 2-13 4-15 3-4 18-5 31-2l22 6 4-1c6-3 15-4 29-4 15 0 23 1 26 4 2 2 3 6 1 9l-1 9-3 12v6l3 4 1 6 2 3 2 4c4 3 5 5 4 9-1 3-7 10-9 10l-2 1v7l-4-1c-2 0-2 0-2 3l-3 13c-1 1-2 1-3-1-2-1-2-1-3 1l-3 4c-2 1-2 1 7 1 8 0 9 0 10 2s-1 3-11 3c-11 1-12 0-10-5l2-6c2-4 2-7-1-7s-5 2-4 5l-1 3-2 5-1 4c-1 1-14 2-18 1-3-1-2-2 1-4 4-2 5-7 4-9-1-3-1-4 2-5 2-2 4-5 4-12 0-5 0-6-4-12l-4-6-2 8c0 3 0 3-2 3-1 0-5-7-6-12-1-1-1-1-3 4-3 7-6 11-9 13l-3 2-2-2c-2-2-6-12-7-18 0-5-2-6-2-2l-4 13-3-4-2-4-2 4c-2 1-4 5-4 8-2 4-2 4 0 8s2 6 2 12c0 7 0 7 3 10 3 2 4 4 2 5-3 1-18 0-22-1zm81-13c2 0 1-1-2-1s-4 1-2 1l2 1 2-1zm-67-3v-4l-1-5c0-2 0-2-1 0l-2 2c-2 0-2 0-2 4l2 6c2 1 4 0 4-3zm61 2l-2-1-2 1h4zm8-3c2 0 2-1 2-6l-1-6-4-1-3-1c-1 1-3 12-2 13 0 2 5 2 8 1zM76 87c0-2-1-2-2-1 0 1 0 3 2 3v-2zm119-11l3-6c0-2-9-12-10-11v10c1 12 1 12 7 7zm-7-25l-1-1-1 1 1 1 1-1zm-2-10l2-5 1-7 1-7c1-4 1-7-2-9-2-1-1-2-2 11 0 9 0 11-2 15-1 2-2 4-1 5 0 1 3-1 3-3zm-4-5c2-7 1-20-1-23-2-2-10-3-23-1-10 1-23 4-19 4 5 0 17 4 24 7 5 2 8 4 12 9l6 5 1-1zM84 18l1-8c-2-2-5 11-4 14 2 4 3 1 3-6zm11 5c3-3 20-7 27-7l6-1c-1-3-21-7-31-7h-7l-1 3-1 12h7zm18 92c-4-2-2-3 10-3s15 1 12 3c-1 1-19 2-22 0zm25-16v-8c0-6 0-7 2-7s2 1 2 6c0 7-1 10-3 10l-1-1zm-31-3l2-12c1 0 2 2 2 10 0 5 0 6-2 6l-2-4z"/>
  <path fill="#6d5548" d="M19 250c-2-2-2-3-2-8 0-6 1-6 4-9l4-3v-72h-5c-4 0-4 0-5-2v-15l9-10a593 593 0 0020-19l4 1c2 1 0 3-3 3l-4 2a292 292 0 01-18 21l64 1h105c48 0 45 0 35-10-12-14-11-14-19-14l-7-2c0-1 1-2 4-2 8-1 10-1 13 2l16 18 3 4v10l-1 12h-7v69l3 3 3 2v16l-2 2-2 1-106 1H21zm212-4v-12a438 438 0 01-106 2c-81 0-102 1-103 2l-1 5v4h105l105-1zm-97-11h91v-78H29v39l1 39h104zm-58-11v-3-5H52l-1-2 18-2c7 0 7-1 7-5-1-1-1-2-3-2-10 0-12 0-13-2H49c-2-2 0-4 3-4s10-3 10-4l-6-1c-5 1-6 0-7-1-2-2 0-3 10-3 8-1 9-1 10-3l1-3-8-1c-7 0-8 0-8-2l8-1c9 0 11-1 11-5 0-2 0-2-10-2l-10-1c-2-2 0-3 11-3h10l1-3c1-2 2-2 3-2h2v3c0 1 1 2 5 2l10 1 6 1c0 2-1 2-11 2-12 0-13 0-13 5 0 2 1 2 11 2l11 1c0 2-1 2-6 2-8 0-9 1-7 4l2 3h8c8 0 9 1 8 3 0 1-2 2-6 2l-6 1c0 1 8 4 11 4s3 1 1 3l-5 1h-3l-8 1h-8v7h12c11 0 12 0 12 2 0 1-1 2-12 2H80v4c0 5-3 8-4 4zm13-23c1-1-5-7-7-7s-3 5-1 7h8zm-14-1l1-3c-1-4-5-4-10 0l-2 3h11zm7-12c0-2-3-5-5-5-1 0-4 4-4 6h4l5-1zm79 37v-15l-1-13h-4c-7-1-9-4-4-9l3-4-3-2c-3-2-3-4-2-7 2-2 16-10 17-9 2 1 1 3-5 6l-6 4c-2 2-2 2 0 4 3 2 3 2 7-2l6-3c3 0 3 2 1 4-3 1-14 11-14 12 0 2 12 1 13-1l1-2c-2-3-1-4 1-4l4 4 2 4 1-8 1-8c0-1 1-2 5-2h6v-4l2-4c1-1 2 0 2 3 1 5 1 5 5 5 6 0 6 0 8 3 1 4 2 39 0 43s-4 6-6 6c-3 0-7-4-6-6l3-1c0 2 3 2 4 1 2-2 2-40 0-41l-4-1h-3l1 6c0 7 2 13 5 14 3 2 2 4-1 4s-5-3-6-7c-1-2-3-2-3 0s-4 7-6 7-2 1-3 11c0 10 0 11-2 11l-1-2a909 909 0 01-3-24l-3-2c0-2-1-2-3-1-5 1-6 1-6 16l-1 14h-2zm25-30l4-15-4-1h-3l-1 8 1 9c0 2 2 1 3-1zm-38 26c0-1 0-2 2-3 1-2 2-4 2-9 1-7 2-9 4-8s2 4 0 12l-3 8c-2 2-4 2-5 0zm22-10v-10c1-1 3 1 4 5l1 8c1 4 0 6-2 6l-3-9zm64-61l-1-7v-2H126c-96 0-106 0-107 2v12l107-1h107zM33 136h2l-1 1c-1 0-2 0-1-1zm83-2l-75-1 4-5 5-7c1-2 2-3 2-1l-3 5-4 6 9 1h8l2-4c3-4 4-5 2-1s-1 5 2 5 3-1 5-5c2-3 3-5 2-6l-3-1-3-1h9l-2 6-3 6h12l13-1 2-4c1-2 1-3 1-1-2 7-3 7 8 7h9v-3l1-3v3c0 3 0 3 4 2 3 0 4 0 4-2l1-2v2c0 2 1 2 8 2h8v-2c0-2 0-3 1-2l1 2c0 2 0 3 4 3s4 0 3-3l1-3 1 1c0 4 0 5 11 5 7 0 10-1 10-2h1c0 1 1 2 4 2h3v-4l-1-3 2 3 2 4h11l10-1-7-10-1-1 2-1 2 1 4 7 3 6-95 1zm99 0h1-1zm-40-6l-1-1h1l1 1h-1zm-31-4l-1-4c-1-1 1-1 8-1 6 0 9 0 8 1l-3 1-3 1c-1 2-1 2-1 0l-3-1c-4 0-4 0-4 2-1 3-1 3-1 1zm-43-3l-8-1-6-1h9l9 1s-3 2-4 1zm13-1l3-1c4 0 4 0 0 1h-3zm13 0c-2-1-2-1 2-1l3 1h-5zm45 0h2l-1 1-1-1zm6 0c-3-1-2-1 3-1l6 1h-9zm-9-1h2c1 1 0 1-1 1s-2 0-1-1zm39 0l3-2c2 0 2 1-1 2h-2zm-151-4c-3-2-2-3 5-3 7-1 12 0 13 2 0 1-1 2-8 2l-10-1zm25 0l-2-4c0-5-2-11-4-11s-3-1-1-2c1-2 1-5-2-7s-3-4-1-7v-6c-4-11-3-23 3-34 3-7 3-7 2-9l-4-6 2-2c2-1 2-2 3-8 1-8 2-11 5-13 7-3 25-2 40 3l8 2 3 1 6-1c9-3 16-4 30-4 15 1 21 2 23 5 2 2 2 8 0 11v7l-1 7-3 6 1 4 3 5 1 5 2 3 3 4 3 6c0 5-4 11-9 13-2 0-3 1-2 2v3c1 2 0 2-3 2s-3 0-3 4c-2 10-2 11-4 12l-3-1-3 2c-4 4-6 4-4 0 4-8 3-10-2-10l-3-1v-5c0-5 0-6-1-5l-5-2-4-1v-1l-3-4-4-7c-2-3-2-4-3-2l-1 6-1 4c-2 0-6-7-7-11 0-3-2-4-2-2l-3 8c-3 6-7 11-10 11-2 0-9-15-9-21l-1-3c-1 0-3 4-3 7s-2 8-3 8l-2-3-2-4c-1-1-8 12-8 16l-1 3-1 2c0 1 0 2-1 1-2 0-2 0-2 3 0 6 1 8 4 8 2 0 3 0 3-4l-1-7v-3c1 0 3 6 3 13 0 6 0 7 2 10l3 4H82zm-5-26l-1-3-2-1v3c2 2 3 2 3 1zm118-13c5-5 4-7-1-13-7-6-7-6-7 1 1 15 1 15 3 15 1 0 4-1 5-3zM76 58l1-7v-3l-1 3-2 11 2-4zm112-7l-2-2 1 2c1 2 2 2 1 0zm-3-8l3-6c2-4 2-6 1-8v-5c2-3 2-8 1-10l-3-2-1 9c1 8 1 9-1 14-3 7-3 9-2 9l2-1zm-3-8V16l-2-5c-3-2-32 0-40 3-3 2-2 2 5 4 8 1 20 6 25 9l7 7c3 4 4 4 5 1zM80 30h-1 1zm24-5c1-1 0-1-1-1l-4 2h2l3-1zm-19-7V9c-1-1-3 3-4 9 0 6 0 8 2 8l2-8zm9 5c12-4 23-7 30-7l4-1c0-3-29-9-36-7-3 1-5 5-5 11 0 7 0 7 7 4zm35-1c7 0 10 0 9-1h-22c-8 2-10 3-2 2l15-1zm-17 92v-1l12-1c11 0 11 0 11 2 0 1 0 2-11 2-8 0-11-1-12-2zm31 0l3-3c3-2 5-6 3-9-1-1 0-2 2-5 3-2 4-3 4-6l1-5v3c-1 10-2 9 4 9l5 1v3l-1 4-2 6-1 3h-9c-7 1-9 0-9-1zm20-12l-4-1-6-1h-2l3 1 3 1h6zm6 12c0-2 1-2 10-2 10 0 10 0 10 2s0 2-10 2-10 0-10-2zm-61-15V84c2-1 2 2 3 9 0 5-1 8-3 6zm30 0c-1-1 0-14 1-15 2-1 3 2 3 7 0 6-1 10-4 8z"/>
  <path fill="#4c4845" d="M21 251c-4-2-4-3-4-9 1-6 3-9 6-10 2-1 2-2 2-37v-37h-5c-5 0-6-1-5-11l1-7 5-6a1462 1462 0 0122-22l4 1c2 1 0 3-2 3l-3 1-10 11-9 11a6127 6127 0 00211-1c0-2-19-22-20-22h-6c-4 0-5-1-5-2 0-2 1-2 5-2 7-1 8-1 19 12l9 12v10c0 12 0 12-5 12h-2v70l3 2 4 3-1 8v7l-3 2-106 1H21zm210-5c2-2 1-11 0-12-2-3-3-2-3 0v2H23l-1 2-1 6v4l105-1 105-1zm-12-11h6v-78l-98 1H29v38l1 39h189zM77 225l-1-5v-4H64l-12-1c0-1 1-2 6-2l12-1c6 0 7 0 6-4v-3h-7l-8-2-7-1h-6c0-2 2-3 5-3s9-3 9-4c0-2-2-2-6-1h-7l-1-2 15-3c4 0 7-1 7-4 0-2-1-2-8-2-6 0-7-1-7-2l8-1c8 0 9-1 10-2 2-4 1-5-10-5l-10-1-1-2h11c10 0 11-1 13-4 1-2 4-1 4 1-1 2 1 3 11 3h10v2l-11 1-12 1-1 3v2l11 1 10 1c0 1-1 2-6 2l-7 1v2c0 3 2 4 10 4 9 1 11 1 9 3-1 1-3 2-7 2h-6l11 6c3 0 3 1 1 2l-4 1-11 1h-8v7h4c19 0 22 0 19 3l-13 1H80v4c0 4-2 7-3 5zm13-24l-2-3-3-3-3-2c-2 0-3 7-1 8h9zm-14-4c0-2 0-3-3-3-3-1-3-1-6 2l-4 4 7 1 6-1zm6-8l-1-4c-1-3-5-3-7 1-2 3-1 3 3 3h5zm115 34c-2-1-2-2-1-3h2c2 2 4 2 5-1 1-5 2-35 1-38s-2-3-5-3h-4v4c1 9 2 13 6 16 2 3 2 3 0 3-2 1-5-1-6-5l-3-3-2 4c-2 2-3 4-5 4l-3 1v11c0 9 0 11-2 11l-1-13c0-11 0-13-2-13l-3-2c-2-2-2-2-6-1l-3 1-1 14c0 13 0 14-2 15l-1-14-1-15h-5c-6-1-7-2-3-7 3-4 3-6 0-7-4-3-3-5 1-9 5-4 14-8 15-7 0 2-2 4-6 6s-7 4-7 6c0 1 2 3 4 3l5-3c3-3 6-4 7-2l-8 8-8 7h13c2 0 3-2 1-5 0-2 0-2 2-2l3 4c4 7 5 5 5-5v-9h11v-4l2-4 2 4v4h6l6 2 1 3c2 1 1 37 0 41-2 4-2 4-5 5-2 1-3 0-5-2zm-10-29l1-5 1-3 1-4c0-4 0-4-4-4h-3l-1 9 1 10c0 2 3 0 4-3zm-39 27l1-2c2-2 3-4 4-14 1-4 2-4 3-3l1 4a1207 1207 0 00-3 14c-2 2-4 2-6 1zm24-2l-1-7-1-7c-1-1 0-4 1-4 2 0 5 18 3 18h-2zm61-64l1-7-1-6H19v14l106-1h108zM34 136h1c1 1 0 1-1 1v-1zm181-2h1-1zm-173-1l7-10c4-4 3-2-1 3l-4 5 9 1c7 0 9-1 10-2h1c0 1 0 2 3 2 4 0 4-1 6-5l2-2-1 3-1 2c0 1 3 2 13 2 12 0 13 0 13-2v-2 2c1 2 1 2 14 2s14-1 14-2h1c0 1 1 2 8 2 8 0 9-1 9-2h1c0 2-1 2 18 2l12-2h1c0 1 1 2 4 2 4 0 4-1 3-2v-2l1 2c2 1 3 2 12 2l11-1c0-2-5-10-6-10-2 0-1-2 0-2l2 1a74 74 0 008 13 3760 3760 0 01-170 0zm112-5v-1 1zm-78-6l-2-2-2-1h2c3 0 4 2 2 3 0 1-1 1 0 0zm76 0l-5-1-4-1 8-1c7 0 8 0 6 1l-3 2h-2zm-53-2c-1-1-1-1 2-1l3 1h-5zm82 0l3-1h3l-3 1h-3zm-66-1h3l-2 1-1-1zm14 0h2l-1 1c-1 0-2 0-1-1zm-68-4l-5-2 9-1c7 0 8 1 8 2s-6 2-12 1zm22-1l-3-6c-2-8-2-8-4-8-1 0-2-1-1-5 1-2 1-2-2-4s-3-4-1-7c1-2 1-3-1-7a47 47 0 017-39l-2-4c-3-3-3-5-1-7 2-1 2-3 3-9C79 6 82 5 98 5c7 0 11 1 19 3a210 210 0 0020 4c3-2 15-4 27-5 11 0 13 0 25 2 5 1 7 8 5 13l-2 7c0 4 0 8-2 11l-2 5 2 2 2 5 1 4 2 3 3 5c4 4 5 7 2 11-1 3-6 8-8 8s-2 2-1 4c2 3 0 4-3 3s-3-1-3 2l-3 13h-3c-1-2-2-1-4 2l-3 2v-3c3-7 2-11-1-11l-2-1-1 1c-2 1-2 1-2-5 0-5 0-6-1-5l-5-1c-3-2-7-6-12-16-2-2-3 1-4 6 0 5 0 5-1 4-2-1-6-9-6-11 0-3-2-2-4 3l-3 7-1 3-3 3-3 3-3-3c-2-2-7-16-7-19l-1-3c-1-1-3 3-3 7l-1 5c-1 2-1 2-2 1l-3-3-1-3-2 3c-3 4-6 10-6 13l-1 3-1 3-1 1c-2 0-2 0-2 3 0 7 1 8 4 8h3v-5l-1-8 1 1 2 10c0 7 0 8 2 11l3 4c0 1-19 1-20-1zm-6-26c0-3-1-4-3-3-1 1-2 2 0 4 2 1 3 1 3-1zm115-9c3-2 6-5 7-8 0-2-1-3-5-8l-7-5c-1 1 1 22 2 22l3-1zM78 54c2-1 2-1 1-2v-5-3c-2 0-7 15-6 19 1 2 1 2 2-3l3-6zm43 2v-2h-3-1l-1-2v2l1 2 1 1c0 1 1 1 3-1zm53-3l-3-8c-2 0-1 2 1 7s3 6 2 1zm14-2v-2h-2v2c1 2 3 2 2 0zm-2-9c4-10 5-11 3-13l1-7c2-5 1-8-2-9s-3 0-2 6 0 15-3 20l-1 4c1 2 3 2 4-1zm-4-7c2-3 2-18 0-21l-1-3h-13l-20 1c-12 3-14 4-5 5 12 2 26 9 33 16l5 5 1-3zm-99-5l-3-1c-3 0-4 0-3 1l2 1 4-1zm24-5l21-2h18c1 0-8-3-13-3-9-1-28 2-37 6l-3 2 5-1 9-2zm-23-4l1-8c1-3 0-5-2-3-2 1-3 13-2 15l2 1 1-5zm12 2l26-7 7-1c0-3-29-9-37-8l-4 4-1 9c0 6 1 6 9 3zm16 92c-1-2 2-3 12-3 9 0 11 1 11 2l-11 1h-12zm32-1l3-3c2-2 3-3 3-7l1-6 3-2c1-1 1-1 1 1s1 3 6 3c3 0 4 0 3 1h-6c-6-2-7-2-7-1l10 3h3l-2 6-2 6h-8c-6 1-8 0-8-1zm25 0c0-3 1-3 10-3l10 1v2c-1 1-2 2-10 2s-10-1-10-2zm-61-15v-8l1-7 1 7c1 8 0 10-2 8zm30 0c-1-2 0-14 1-15 2-1 2 0 3 6s-2 12-4 9zm17-8v-1 1z"/>
  <path fill="#5a4738" d="M21 251c-4-2-4-3-4-9 1-6 3-9 6-10 2-1 2-2 2-37v-37h-5c-5 0-6-1-5-11l1-7 5-6a1462 1462 0 0122-22l4 1c2 1 0 3-2 3l-3 1-10 11-9 11a6127 6127 0 00211-1c0-2-19-22-20-22h-6c-4 0-5-1-5-2 0-2 1-2 5-2 7-1 8-1 19 12l9 12v10c0 12 0 12-5 12h-2v70l3 2 4 3-1 8v7l-3 2-106 1H21zm210-5c2-2 1-11 0-12-2-3-3-2-3 0v2H23l-1 2-1 6v4l105-1 105-1zm-12-11h6v-78l-98 1H29v38l1 39h189zM77 225l-1-5v-4l-8-1-8 1c0 1-6 1-8-1v-1l12-1 13-1-1-3v-4h-7c-6-1-7-1-9-3H48l5-3 7-2 1-1 1-1c0-2 0-2-3-2l-4 1c-1 1-5 0-6-1-1-2-1-2 3-2l4-1 6-1c5 1 6 0 7-2 3-3 3-4-6-4-7 0-8-1-8-2l8-1c9 0 11-1 11-4s-2-5-2-4l-10 1-9-1v-2h11c8 0 11-1 11-2l1-1v-1c0-2 1-2 3-1v2 2l11 1h11v2c-1 2-15 2-19 0-2-1-2 0-4 1-2 2-2 4-1 6l11 1 10 1c0 1-1 2-6 2l-8 1v1l1 1c0 4 2 5 11 5l8 1c1 2-2 3-7 3-7-1-9 0-6 2l2 1 6 2 2 1 2 1c0 2-1 2-4 1l-4 1-8 1-7 1a1203 1203 0 010 6h11c10 0 13 1 12 3H91c-12 0-12 0-11 5 0 3-2 7-3 5zm14-24l-2-2c-1-1-2-1-1-2l-1-1-1-1c0-2-6-3-6-1v3c-1 4 2 6 8 5l3-1zm-15-4v-4h-3c-3 0-4 1-7 3-4 4-4 5 4 5h6zm7-9l-1-1-1-2c0-2-1-2-3-2l-3 1-1 2v3c1 1 9 0 9-1zm114 36l-1-4h3c2 2 4 2 4 0l1-1v-19c0-22 0-23-6-23-4 1-5 1-4 3l1 5 1 3v3l1 3 1 1 2 3c1 1 2 2 1 3s-5-1-6-4c-1-5-3-5-5-2-1 4-3 6-5 6s-2 1-3 12c0 9 0 11-2 11l-1-9c0-19 0-18-2-17-1 0-2 0-3-2 0-2-1-3-2-3l-4 2c-4 1-4 1-4 6 0 19 0 23-2 24l-1-15v-14l-6-1c-7 0-7-2-3-6l3-4c0-1-3-5-5-5-1 0-1-4 2-5l3-3 10-5 1-1h1c1 1-1 4-6 6l-6 4c-1 2-1 2 1 4s4 2 7-1 6-4 7-4c2 1 2 1 0 3l-2 1-3 3-4 3c-1 0-7 6-6 7h11l3-1c1 0 2 0 2-2l-1-3c-2-1-1-2 1-2l3 4 3 4c1 0 2-1 2-9v-9h11v-4l2-4 2 4v4h5c6 0 7 1 7 3l1 3a229 229 0 01-1 41c0 2-1 3-5 4l-4-1zm-10-30l2-6v-1l1-5v-4h-8v10c0 9 0 10 2 10l3-4zm-39 27l1-2c2-1 4-6 4-8v-1-4c1-5 2-6 3-3l1 6-1 5c0 4-5 9-8 7zm24-2a229 229 0 01-3-15l1-2c1-2 2-1 2 2l1 2 1 4a371 371 0 000 9h-2zm61-64l1-7-1-6H19v14l106-1h108zM34 136h1c1 1 0 1-1 1v-1zm181-2h1-1zm-173-1l7-10c4-4 3-2-1 3l-4 5 9 1c7 0 9-1 10-2h1c0 1 0 2 3 2 4 0 4-1 6-5l2-2-1 3-1 2c0 1 3 2 13 2 12 0 13 0 13-2v-2 2c1 2 1 2 14 2s14-1 14-2h1c0 1 1 2 8 2 8 0 9-1 9-2h1c0 2-1 2 18 2l12-2h1c0 1 1 2 4 2 4 0 4-1 3-2v-2l1 2c2 1 3 2 12 2l11-1c0-2-5-10-6-10-2 0-1-2 0-2l2 1a74 74 0 008 13 3760 3760 0 01-170 0zm112-5v-1 1zm-78-6l-2-2-2-1h2c3 0 4 2 2 3 0 1-1 1 0 0zm76 0l-5-1-4-1 8-1c7 0 8 0 6 1l-3 2h-2zm-53-2c-1-1-1-1 2-1l3 1h-5zm82 0l3-1h3l-3 1h-3zm-66-1h3l-2 1-1-1zm14 0h2l-1 1c-1 0-2 0-1-1zm-68-4l-5-2 9-1c7 0 8 1 8 2s-6 2-12 1zm22-1l-3-6c-2-8-2-8-4-8-1 0-2-1-1-5 1-2 1-2-2-4s-3-4-1-7c1-2 1-3-1-7a47 47 0 017-39l-2-4c-3-3-3-5-1-7 2-1 2-3 3-9C79 6 82 5 98 5c7 0 11 1 19 3a210 210 0 0020 4c3-2 15-4 27-5 11 0 13 0 25 2 5 1 7 8 5 13l-2 7c0 4 0 8-2 11l-2 5 2 2 2 5 1 4 2 3 3 5c4 4 5 7 2 11-1 3-6 8-8 8s-2 2-1 4c2 3 0 4-3 3s-3-1-3 2l-3 13h-3c-1-2-2-1-4 2s-5 3-3 0c4-10 4-11 2-13s-5-2-6 0c-2 2-2 2-2-4 0-5 0-6-1-5l-5-1c-3-2-7-6-12-16-2-2-3 1-4 6 0 5 0 5-1 4-2-1-6-9-6-11 0-3-2-2-4 3l-3 7-1 3-3 3-3 3-3-3c-2-2-7-16-7-19l-1-3c-1-1-3 3-3 7l-1 5c-1 2-1 2-2 1l-3-3-1-3-2 3c-3 4-6 10-6 13l-1 3-1 3-1 1c-2 0-2 0-2 3 0 7 1 8 4 8h3v-5l-1-8 1 1 2 10c0 7 0 8 2 11l3 4c0 1-19 1-20-1zm12-4l-2-1-2 1 2 1 2-1zM83 92c0-5 0-7-2-4v8c1 0 2-1 2-4zm98-2c0-4 1-5 4-4l1-2-2-12c-1-13-2-20-4-25-6-14-15-20-36-26-13-3-30-2-47 4-7 3-10 4-15 4h-6l4 4 3 4-4 6c-4 6-7 15-6 21l5 16 1-5c-1-6 3-19 5-19v6c0 7 2 16 4 21 2 3 4 4 4 2 0-4 0-6 3-10l9-11 1 4c1 3 1 3 2-3a105 105 0 003-20c0-6 4-16 5-16v13c0 13 1 21 4 30 2 8 3 8 7 1 3-3 5-8 6-11 2-5 3-7 3-5l1 3 3 5 2 6 2 2v-3c0-4 2-10 3-10l3 5 11 16 3 2v-7c0-7-2-17-4-22-1-3 1-3 4 1s6 9 6 15l2 9c1 3 1 3 2 2 5-7 3-32-3-38-2-2-4-7-3-7l3 2c6 7 10 20 10 30l-1 9-1 6 1 5c1 5 2 6 2 2zM77 88c0-3-1-4-3-3-1 1-2 2 0 4 2 1 3 1 3-1zm115-9c3-2 6-5 7-8 0-2-1-3-5-8l-7-5c-1 1 1 22 2 22l3-1zm-4-28v-2h-2v2c1 2 3 2 2 0zm-2-9l4-13v-7c2-5 1-9-2-9-3-1-3 1-2 6 1 6 0 15-3 20l-1 4c1 2 2 2 4-1zm-4-7c2-3 2-18 0-21l-1-3h-13l-20 1c-12 3-14 4-5 5 12 2 26 9 33 16l5 5 1-3zM85 18c1-8 0-10-2-8-2 1-3 13-2 14 2 3 3 2 4-6zm11 5l26-7 7-1c0-3-29-9-37-8l-4 4-1 9c0 6 1 6 9 3zm16 92c-1-2 2-3 12-3 9 0 11 1 11 2l-11 1h-12zm32-1l3-3c2-2 3-3 3-7l1-6 3-2c1-1 1-1 1 1s1 3 6 3c3 0 4 0 3 1h-6c-6-2-7-2-7-1l10 3c4 0 4 0 2 3l-2 5v4c-1 1-17 1-17-1zm16-5c1-2 1-2-3-3s-5-1-5 1c0 4 6 6 8 2zm9 5c0-3 1-3 10-3l10 1v2c-1 1-2 2-10 2s-10-1-10-2zm-61-15v-8l1-7 1 7c1 8 0 10-2 8zm30 0c-1-2 0-14 1-15 2-1 2 0 3 6s-2 12-4 9zm17-8v-1 1z"/>
  <path fill="#4e3329" d="M71 251H20l-2-2-1-7c1-5 3-8 6-10 2-1 2-5 2-37v-36l-3-1c-7 0-7 0-7-9v-9l6-6 13-14c7-8 9-9 12-7 3 1 2 3-2 3l-3 1-9 11-10 11 106 1h105v-2c0-1-3-6-9-12l-8-10h-6c-6 0-6-1-6-2 0-2 0-2 6-2h6l10 12 10 12v10c0 11 0 11-2 12h-3c-2-1-2 4-2 35v35l3 2c4 3 4 3 4 10 0 12 3 12-61 11H71zm160-4v-14c-2-2-3-1-3 1v2H48h88l88-1 1-77-195-1h-2v38a438 438 0 000 41h-3c-2-3-6 6-4 11l105 1 105-1zM43 236h1-1zm33-16v-4H57c-3 1-4 0-5-1v-1l12-1 13-1-1-3v-4h-7c-6-1-7-1-9-3h-2c-2 1-9 1-9-1l1-1h3l7-3 1-1 1-1c0-2 0-2-3-2l-5 1h-4c-2-2-1-3 2-3l4-1 6-1c5 1 6 0 7-2 3-3 3-4-6-4-7 0-8-1-8-2l8-1c9 0 11-1 11-4s-2-5-2-4c-1 2-17 2-18 0l-2-2h23l1-3c1-3 3-3 3-1 0 3 1 4 11 4s11 0 10 1c0 2-1 2-8 2l-10-1c-2-1-2 0-4 1-2 2-2 4-1 6l11 1c8 0 9 0 10 2l-7 1-7 1v1l1 1c0 4 2 5 9 5l9 1c2 1 0 2-5 2-6 0-8 0-8 2l11 5 2 1c0 2-1 2-3 1l-5 1-8 1-7 1v3c-1 3 0 3 13 4l10 1-11 1c-13 0-13 0-12 5 0 2-1 5-3 5l-1-5zm14-19l-1-3-3-3c-2-2-6-3-6-1v7c3 2 10 2 10 0zm-14-4v-4h-3c-3 0-4 1-7 3-4 4-4 5 4 5h6zm6-8v-3c-1-3-2-3-5-3l-4 3c-1 3 1 4 6 4l3-1zm79 35v-28h-5c-6 0-7-2-5-6l3-3c2-1 2-3-2-6-3-2-3-2-2-5l2-2 3-1c2-3 11-7 12-6s-2 3-6 5l-6 4c-1 2-1 2 1 3 2 3 4 3 7 0s6-4 7-3c1 0 1 2-1 3l-9 6c-5 5-6 6-4 7h10l3-1c2 0 2-2 1-5-1-2-1-2 1-2l4 7 2 1c1 0 2-1 2-9v-8l6-1h5v-4l2-4c2 0 2 1 2 4v4h5c4 0 6 1 6 2 1 1 2 6 2 23 0 21 0 22-2 24s-6 2-8 0c-3-3-1-5 2-2 2 2 2 2 4-1l1-21c0-23 1-23-9-21l1 10v3c0 2 2 6 5 8v2c-1 1-5-1-6-4-1-4-4-5-4-2-1 3-4 6-7 6l-2 12c0 9 0 11-2 11l-1-22c0-4-1-5-2-5l-3-2-2-2-4 2c-4 1-4 1-4 6l-1 23h-2zm26-31c2-2 3-6 3-10v-5h-8v10c0 9 0 10 2 10l3-5zm-38 28l1-3c2-2 4-9 4-14l1-2c2 0 2 2 1 5v6c0 3-2 7-5 8h-2zm23-6l-1-8-1-3v-2c1-2 2-1 2 2l1 3 1 4 1 5-2 4-1-5zm61-67v-6H19a103 103 0 000 11v3l107-1h107zM43 132l3-5 3-3-2 3c-2 2-2 4-2 5l-1 1-1-1zm12 1l7-2h2l1 2H55zm15-1l2-2 1 1c1 2 1 2 10 1l10 1H80c-9 0-12 0-10-1zm26 0c2 0 3-1 3-3v1c1 2 1 2 11 2l11 1h-13c-10 0-14 0-12-1zm30 0h2l3 1h-3c-4 0-4 0-2-1zm10 1h2-2zm7 0l3-2c1 1 1 2-1 2h-2zm6 0h1-1zm5-1c-1 0-1 0 0 0h2v1l-2-1zm6 1l8-1a178 178 0 0011 0c3 1 6 0 6-3l1 1 2 2h22c1 1-6 1-25 1h-25zm46-7l-4-6 2 2 3 5 2 3-3-4zm-54-5l-4-1h-5l8-1c5 0 7 0 5 1l-3 1h-1zm-89-6l-6-2c-1-1 0-1 7-1l9 1a629 629 0 00-11 2zm19-1l-2-8c-1-5-2-6-3-6-2 0-2-2-1-5 0-2 0-3-3-4-3-2-4-5-1-7v-6c-1-2-3-13-2-19 1-5 5-17 7-19s2-4 0-5l-3-6 2-2 2-3c-1-2 2-14 3-16 3-3 14-4 23-3l30 7h4c10-5 35-6 51-3 5 1 7 8 4 13v7l-1 7-3 6c-1 3-1 4 1 6l2 4 1 4 2 3c0 1 1 4 3 5l4 6c0 4-4 10-8 11-4 2-4 3-3 6 2 3 0 4-3 3l-3-1-1 8-3 8h-5c-4 7-5 5-2-3 2-5 2-6 0-8l-3-2c-2 0-4-2-4-5 0-1-1-2-3-2-6-1-9-4-14-14-3-4-3-4-4-3l-2 6-1 4-6-12c0-2-2-1-3 2-2 7-6 14-10 16-2 1-2 1-4-1-3-5-7-16-7-21l-1-2c-1 0-3 4-3 7s-1 7-3 7l-2-2-1-4c-2 0-9 12-9 16l-1 3-1 2c0 1 0 2-2 2s-2 0-1 5c0 6 0 6 4 6l3 1v-6-6c1 0 2 9 1 13 0 3 0 4 3 6 4 5 3 6-7 6-8 0-9-1-11-2zm13-4l-2-1-2 1 2 1 2-1zm-2-5h-2l1 1 1-1zM83 92c0-5 0-7-2-4v8c1 0 2-1 2-4zm98-2c0-4 1-5 4-4l1-2-2-12c-1-13-2-20-4-25-6-14-15-20-36-26-13-3-29-2-47 4-10 4-14 5-18 4-4-2-4-1 0 4 4 4 4 5 1 9-5 5-8 14-7 22l5 16 1-5c-1-6 3-19 5-19v6c0 7 2 16 4 21 2 3 4 4 4 2 0-4 0-6 3-10l9-11 1 4c1 3 1 3 2-3a105 105 0 003-20c0-6 4-16 5-16v13c0 13 1 21 4 30 2 8 3 8 7 1 3-3 5-8 6-11 2-5 3-7 3-5l1 3 3 5 2 6 2 2v-3c0-4 2-10 3-10l3 5 10 15 4 4v-8c0-7-2-17-4-22-1-3 1-3 4 1s6 9 6 15l2 9c1 3 1 3 2 2 5-7 3-32-3-38-2-2-4-7-3-7l3 2c6 7 10 20 10 30l-1 9-1 6 1 5c1 5 2 6 2 2zM77 87c0-2-3-4-4-1 0 1 1 4 3 4l1-3zm116-8c3-2 5-5 6-8 0-2 0-3-5-8l-7-5v9c1 14 1 14 6 12zm-6-30c-2-2-3-1-1 2s2 3 2 1l-1-3zm1-11c2-4 2-6 2-9-1-2 0-5 1-8 1-4 0-7-3-9l-2 1v6c1 5 0 15-3 20l-1 5c2 2 3 1 6-6zm-5-5c1-4 1-14-1-19l-1-3h-14c-13 0-23 1-28 3-3 2-2 3 5 4 13 2 26 8 32 16l5 4 2-5zM85 20l1-9c1-3-3-3-4 0-2 4-2 12-1 14 2 4 3 2 4-5zm10 3l23-6c9 0 11-1 11-2 0-2 0-2-9-4-8-3-23-4-28-4-4 1-5 4-5 12 0 6 0 6 2 6l6-2zm18 91c-2-2 1-2 11-2 9 0 11 0 11 2-1 2-21 2-22 0zm31 0l3-3 2-3 1-3v-2c-1-2-1-4 1-4l2-2 2-2v2c0 2-1 3-2 3-3 0-2 1 2 2l7 1c2-1 3-1 2 1l-4 10c0 1-2 2-8 2-7 0-8-1-8-2zm16-5c1-2 1-2-3-3s-5-1-5 1c0 4 6 6 8 2zm9 6c0-2 2-3 10-3 9 0 10 0 9 2 0 1-2 2-10 2l-9-1zm-11-15h2-2zm-50-7v-7c1-3 2 0 2 6l-1 7-1-6zm30 5c-1-2 0-14 2-14l1 7c0 6-1 9-3 7zm28-4l1-1v2l-1-1z"/>
  <path fill="#312d2a" d="M19 249l-1-7c0-5 0-5 3-8l4-4v-72l-5-1h-4l-1-8v-8l4-4a4800 4800 0 0125-25c3 1 3 3 1 3l-5 3-16 18-2 3v2h-3l-1 8v6l66 1h67-61c-48 0-61 1-62 2a2336 2336 0 00-1 78h-1c0-2-2-1-4 1l-2 6v5h105l105-1c1-1 2-3 2-7 1-5 1-5-1-7-3-2-2-2-4 2l-5 1h-1l4-2a608 608 0 000-77c-1-1 1-1 4-1l5-1v-7l-1-7v-1c1 0 1-4-1-6a162 162 0 00-14-15c-3-4-3-4-8-4-5 1-6 1-5-1v-2h11l10 12 11 12-1 11v10h-3l-4 1v70l3 3c3 3 3 3 3 9 0 7-1 10-3 9l-1 1-106 1c-100 0-104 0-106-2zm57-29v-4h-8a1159 1159 0 00-16-2l12-1 12-1v-4c0-4 1-4-9-4-4 1-5 0-6-1-1-2-2-2-3-1h-9l3-2c5 0 10-3 10-5s0-2-6-2h-7v-1l9-1c8-1 9-1 11-3 4-4 3-5-6-5l-8-1c0-1 2-2 8-2 9 0 11-1 11-5 0-3-1-4-2-3-1 2-17 2-19 0v-2h21l2-3c1-2 4-3 3 0-1 2 2 3 10 3 10 0 12 0 11 2s-14 2-18 0c-4-1-7 3-5 7l11 1c7 0 10 1 10 2l-6 1c-9 0-9 0-6 4l1 4h8c8 1 11 2 3 3l-8 1c0 1 8 6 11 6l2 2h-3l-6 1-8 1c-6 0-6 0-7 2-1 5 0 5 12 5l12 2-12 1-11 1-1 4c-1 6-2 6-3 0zm14-19l-1-3-3-3c-2-2-6-3-6-1-1 3-1 5 1 7 1 2 9 2 9 0zm-14-4v-4h-3c-3 0-5 0-7 3-4 4-4 5 4 5h6zm6-8v-3c-1-3-2-3-5-3l-4 3 1 3h8zm79 35v-28l-5-1c-5 0-5 0-5-2l2-5 3-3-5-5v-4l1-2 3-2c3-3 12-7 12-5l-4 4c-3 1-9 5-9 7 0 1 3 3 6 3l4-2c3-3 7-4 6-2l-1 2-4 2-3 3c-2 0-8 7-8 8h13c4-1 4-1 3-5 0-4 1-4 4 1l3 4c2 0 2-1 2-8 0-10 0-10 6-10h5v-3c0-4 2-6 3-4l1 4v3h5c4 0 6 1 6 2 1 1 2 6 2 23 0 21 0 22-2 24l-4 2c-3 0-5-2-5-4s1-2 2 0c2 2 3 2 5-1l1-21-1-21c-2-1-6-2-8 0v6c1 7 2 12 5 14l2 2-2 1c-2 0-4-1-5-5s-3-3-5 0-3 4-6 5c-2 1-2 2-2 11l-1 11c-2 1-2 3-2-12 0-14 0-14-2-14l-3-2c-1-2-3-2-8 0-2 1-2 1-2 15 0 12-1 16-3 14zm27-30l2-10c1-7 0-8-5-7l-3 1v10c0 10 0 10 2 10l4-4zm-40 26l2-1c1 0 3-5 4-12l1-5c1 0 2 1 1 7l-1 8-2 2c-1 2-5 3-5 1zm24-6c-2-11-2-12-1-12s2 2 2 7l1 9c-1 1-2-1-2-4zm-14-58zm32 0zM63 114l-5-1 7-1c5 0 7 1 7 2h-9zm21 1c-2-1-5-9-5-13 0-2 0-2-2-2-3 0-3 0-1-4 1-3 0-3-3-6l-3-3 2-2v-7l-2-12c0-9 2-18 6-24l3-4-3-4-2-6 9 9-3 3c-6 8-9 19-6 30 1 7 4 12 5 9v-5c-1-5 3-17 5-17v8c0 8 2 17 6 22 2 3 2 4 0 3-1 0-2 1-2 5 0 6 1 7 4 8s5-1 4-5c0-4 0-4 1-2v7c0 5 0 5 2 7l2 4c0 1 0 2-8 1h-9zm11-4v-1l-3-1c-1-1-3 1-2 2h5zm-1-6h-3l1 1 2-1zm-12-4v0zm1-7c0-8 0-8-2-6l-1 5c-1 2-1 3 1 3 1 1 2 1 1 2v1l1-5zm-5-6c0-4-4-6-5-2-1 1 0 2 1 4 3 2 4 1 4-2zm36 27c-1-2 1-2 10-2s12 1 9 2h-19zm31-1l2-3 3-3 1-3-1-3v-3c1-1 1 0 1 1v1l2 1 6 1c5 0 5 1 4 3h-7l-1-1c-3-3-4 3-1 6 2 2 4 1 6-1l2-3-1 3c-1 5-1 6-9 6-6 0-7-1-7-2zm25 0c0-1 1-2 8-2 8 0 10 0 9 2-1 1-3 2-9 2-7 0-8-1-8-2zm2-6l2-6c3-6 2-9-2-9l-3-4-3-5c-3-1-4-5-3-8 1-2-1-14-3-19l-1-4c1-1 7 6 8 10l2 10 2 8c1 2 1 2 2 0l3-8c2-10 0-20-6-30-3-5-4-7-2-7l10 17c1 5 2 8 1 15l-1 12v3l1 6 1 4 2-4c0-3 0-4 3-3 2 0 2 0 1-1l-2-16a53 53 0 00-2-15c-2-11-9-21-19-26-7-4-18-7-27-8-11-2-26 0-42 6-8 4-11 4-16 2-2-1-3-1-1-2l1-4c0-5 2-13 4-14 3-3 16-4 26-2l15 4h-2l-21-3c-8-1-12 0-12 4v15l13-5a154 154 0 0130-6c-2 0-2-2-1-3l4 1h4l6-3c5-1 9-2 24-2 19 0 23 1 25 5 2 2 1 6-1 10v12l-3 7c-1 3-1 4 1 6l2 5 1 3 2 4 2 4c4 3 5 5 4 9-1 3-7 10-10 10v7l-3-1-4 1-3 15h-2c-2-2-3-2-4 1-1 2-3 3-3 2zm23-31l4-5c1-3 1-3-2-6-4-5-9-9-10-9v20c1 2 1 3 3 3l5-3zm-7-28l-2-1c-2 0-1 2 0 4 2 2 2 2 2 0v-3zm-3-5l2-3 2-4 1-8c-1-3 0-5 1-7 2-6 0-10-5-10l-1 11c0 10 0 12-2 15l-1 6c1 2 1 2 3 0zm-3-7c2-4 3-10 2-17l-2-8c-4-4-45-1-45 4l12 3c12 3 19 7 25 14l7 6 1-2zM85 25l1-10-1-7c-2 0-4 4-4 10-1 6 0 9 2 9l2-2zm23 71v-8l1-4 1 4-1 11-1-3zm31-4c0-8 2-10 2-2l-1 9-1-7zm-47-6c0-3 3-11 7-16 3-5 6-6 6-3v5l1 2-2-3-2-3c-2 0-7 10-8 15-1 4-2 5-2 3zm28-4c-3-4-6-12-7-20l-1-2c-1 0-3 3-3 5 0 4 0 6-2 6v-3l2-17c1-9 4-22 6-22v16a71 71 0 004 30l1 3 2 2 3-5a41 41 0 015-6l1-3 2-7c1-3 2-3 2-1l2 4 2 4 2 6 2 3v-5l1-7c1-2 4-2 4 0v2l3 4 6 9c4 4 4 6 1 4l-10-13-2-2-2 8-1 3-6-12c0-2-2-2-3 1-1 6-4 10-4 10l-1 2c0 1-5 5-7 5l-2-2zm4-71h1-1z"/>
  <path fill="#2b110d" d="M19 249l-1-7c0-5 1-6 4-9l3-2v-73l-4-1-5-1-1-8v-7l5-5a4944 4944 0 0119-21c1-2 4-3 6-2 1 1 1 1-1 1l-3 2-9 12c-6 5-10 10-10 11l-2 2c-2 1-2 2-2 8v7h6l5 1v79c1 1-1 1-3-1-2-1-2 0-4 1-2 3-2 13 0 12a25805 25805 0 01209-1c2-1 2-10 1-13-2-3-3-3-5 0-1 1-1 2-4 2s-3 0 0 0l2-1 1-38v-40c-1-1 0-1 4-1h5l-1-7v-10c0-3-1-5-9-13l-7-8c-2-3-2-3-8-3-6 1-6 1-5-1s2-2 6-2h5l5 6 14 17c1 1 2 5 1 12v10h-8l1 30v36c0 5 1 6 3 8 3 3 3 3 3 10 0 6-1 9-3 8l-1 1-106 1c-103 0-104 0-106-2zm49-93zm27 0h4-4zm65 0h4-4zm22 0h1-1zm10 0h1-1zm29 0h1-1zM88 115c-5-1-5-1-6-4l-2-7c-1-4-1-4-3-4-3 0-3 0-1-4v-4l-4-3-2-2 2-3c2-3 2-3 0-8-3-7-2-17 1-26l4-9 2-4-1-2c-3-2-4-5-4-6 1-1 7 7 7 9l-2 3-4 8c-3 8-3 17-1 25 2 5 4 9 5 7l1-2c2-2 2-2 1 2l-2 9c-1 5-1 7 1 7l2 4c0 5 1 8 3 8l2 1c0 1 0 1 0 0l-1-3v-3l1-6v-6l1 2 2 8 3 1c1 1 2 1 3-1v-3l1-1v5c0 4 0 5 2 7l2 4c0 1-5 2-13 1zm8-4c1-1-1-3-4-3-2 0-4 2-3 3h7zm-1-5c0-1-4-2-5-1v1h5zM78 88c0-4-4-6-5-2-1 1 0 2 1 4 3 2 4 1 4-2zm36 27v-1h20l-1 1h-19zm31-1l2-2 3-3 2 1 6 2c3 0 3 0 2 2l-8 1-7-1zm25 0c0-1 2-2 8-2l9 1c0 2-3 3-10 2l-7-1zm-109 0l-3-1h13c1 1-4 2-10 1zm111-6l2-5c1-3 2-3 4-3l2-1 1-3v-3l2-4c1-2 1-3 3-2l1-3c-1-2-2-6-3-20 0-8-1-10-4-18-4-9-8-15-18-20-11-5-19-7-33-7l-17 1-25 8h-6l-4-1 2-8c0-8 3-13 7-13 9-1 23 0 28 1 6 2 12 4 7 3-14-3-26-4-30-3-3 1-4 3-4 13l1 6 13-5a152 152 0 0130-6c-2 0-2-2-1-3l4 1 5-1c7-3 12-4 28-3 16 0 23 0 26 3 1 2 1 8-1 11v12l-3 7v6l2 3 2 5 1 4 3 4c3 3 4 3 4 7s-1 4-4 8l-6 4v3c0 4 0 4-2 4l-3-1c-1-2-2 0-2 2l-1 8c-1 6-2 7-5 5h-2c0 1-3 5-4 4zm23-31l4-5c1-3 1-3-2-6-4-5-9-9-10-9v20c1 2 1 3 3 3l5-3zm-7-26c0-2-2-4-3-3s1 5 3 5v-2zm-2-8l2-4 1-2 1-8 1-8c3-3 0-9-4-9-2 0-2 0-2 8v9l-1-1c1-1-1-15-2-16-2-2-17-3-28-1-9 1-18 3-18 5l13 3c12 3 18 7 26 14 6 7 6 7 9 0 1-3 1-3 1-1l-2 7c-3 5-1 9 3 4zM86 18c0-11 0-12-3-9-1 1-2 3-2 8-1 8-1 10 2 9 2 0 2-1 3-8zm72 87l-5-1-3-2v-1l11 2 3 1c0 1-2 2-6 1zm-49-13v-3 3zm30 0c0-9 2-9 2-1l-1 7c-1 1-1 0-1-6zm-53-4c-2-6-4-13-4-19 0-10 1-11 2-1 0 8 3 17 6 20 2 2 2 2 0 2s-3 0-4-2zm83-5c-2-2-2-2-2 0h-2l-1-10-1-11-2-4c0-3 0-3 1-2l1 2 2 6 1 6 3 9c3 4 4 6 4 3l2-3c2-4 2-16 1-23-1-3-2-8-4-10l-1-4 6 13c4 9 2 23-3 29-2 2-2 2-5-1zm-44-1l3-5 3-4 1-2-6 11c-2 2-2 2-1 0zm-6-1l-1-2-1-3-2-6c0-4 0-4 1 1l3 6v2l1 1 1 2c-1 1-1 0-2-1zm39 1l-10-14 4 5 5 6 3 4-2-1zm-63-6l5-7-1 2-3 5-2 4 1-4zm43-6c0-2 0-2 1-1v2l-1-1zm-5-2l1-4c1-1 1-1 1 1l-2 3c0 1 0 1 0 0zm-31 0l1-1 1 1h-1-1zm35-2c0-1 0-1 0 0v0zm8-1c0-3 2-3 3 0l-1 1c-2 1-2 0-2-1zm-36-2c0-1 0-1 0 0v0zm4-7c-1-10 0-21 1-22v17l-1 13v-8zm-4 5l1-2h1l-1 2h-1zm15-50h1-1z"/>
</svg>
