<svg xmlns="http://www.w3.org/2000/svg" viewBox="0 0 256 256">
  <defs/>
  <path fill="#fff" d="M110 94h39v26h-39zM137 35h27v14h-27zM83 36h10v11H83z"/>
  <path fill="#fff" d="M78 44h15v10H78z"/>
  <path fill="#fff" d="M79 39h8v9h-8z"/>
  <path fill="#fff" d="M82 36h3v5h-3zM138 90h9v7h-9z"/>
  <path fill="#f3e7d4" d="M123 247l-2-4-1-5-3-12c-2-9-2-9-4-8l-3 1-3 1c-5 3-10 4-14 2l-4-1-2-1-2-1-3-1h-3l-5 5-5 5c-1 0-3-3-6-11l-3-7-6-2-8-3-1-2 4-4c8-8 20-16 27-17l3-1c1-4 2-6 5-9l3-5-2-6c-2-5-2-5-1-6 1-2 9-5 12-5l1-1-4-5-4-3-3-2-2 2-2 5c0 2-4 7-6 8l-3 1h-4l-4 2-4 2-4-1-8-4-6-5-3-4c-2-2-2-2-1-3l12-8v-4-5-4c-1-2-2-6-1-8l6-6 2 2 2 1 3-2 2-2-1-5c-1-4-1-8 1-19l1-4-5 1c-8 2-12-2-6-5 3-1 9-9 13-16l12-20 2-2-2-2-2-3c0-1 4-4 6-4l2-2c2-6 11-11 18-10h4l3-1 5-3 7-3c7-2 18 0 23 3l4 2 4 1 3 1c5 1 13 8 13 11l2 2c4 3 4 6 0 9l-1 2 2 3c3 3 9 16 11 21l3 4c2 2 7 5 10 5 4 1 2 5-5 10-3 1-3 2-3 3 3 6 4 17 2 22l1 6a853 853 0 015 2c3-2 4-2 6 1 3 3 4 6 2 9v5l-1 3v1l-1 3-2 3c-1 3-4 7-7 8l-3-1-1-1-1-1c-2 1-3-1-3-3l-2-4-2-3-4-4c-4-5-5-8-4-10 2-2 1-5-1-6l-4-2-2-1v3c1 4-1 8-4 11l-3 4-1 2-1 3c1 2 0 4-2 6-1 3-2 4-1 5v2c-1 1 0 2 4 4l8 6 3 2-3 3c-4 4-4 5 1 6 3 1 7 3 7 5l1 3 1 3-1 4c0 2 2 4 4 4 4 0 6 4 4 7-1 0-1 1 1 2 4 4 8 9 12 17 2 4 2 4 1 5l-4 1c-3-1-13-2-14-1-2 0-3 1-4 4l-4 6c-1 2-1 2-2 1l-2-3-2-5c-2-4-3-4-4-3l-6 1-10 1-5 1c-4 0-4 0-5 3a20188 20188 0 01-6 23c-2 2-4 1-7-1zM81 128c2-1 2-1 2-3l-1-9c0-3 0-6-1-5l-1 6c1 2 0 4-3 8l-3 4c0 2 0 2 3 0l4-1zm49-17v-11l-4-1-4 1-1 4-1 4-2 2h5a918 918 0 007 1zm12-18h-1l-1-1v1c-1 1 0 3 1 1l1-1zM87 44h1c1 2 3 1 3 0l-1-2-1-1c0-2-2-4-3-4s-4 2-6 5v3c2 2 5 1 7-1zm62 1c1-1 0-3-1-4l-4 2c0 3 3 4 5 2zm7-2l-1-1-1 1 1 1 1-1z"/>
  <path fill="#e1e6e5" d="M123 247l-2-4-1-5-3-12c-2-9-2-9-4-8l-3 1-3 1c-5 3-10 4-14 2l-4-1-2-1-2-1-3-1h-3l-5 5-5 5c-1 0-3-3-6-11l-3-7-6-2-8-3-1-2 4-4c8-8 20-16 27-17l3-1c1-4 2-6 5-9l3-5-2-6c-2-5-2-5-1-6 1-2 9-5 12-5l1-1-4-5-4-3-3-2-2 2-2 5c0 2-4 7-6 8l-3 1h-4l-4 2-4 2-4-1-8-4-6-5-3-4c-2-2-2-2-1-3l12-8v-4-5-4c-1-2-2-6-1-8l6-6 2 2 2 1 3-2 2-2-1-5c-1-4-1-8 1-19l1-4-5 1c-8 2-12-2-6-5 3-1 9-9 13-16l12-20 2-2-2-2-2-3c0-1 4-4 6-4l2-2c2-6 11-11 18-10h4l3-1 5-3 7-3c7-2 18 0 23 3l4 2 4 1 3 1c5 1 13 8 13 11l2 2c4 3 4 6 0 9l-1 2 2 3c3 3 9 16 11 21l3 4c2 2 7 5 10 5 4 1 2 5-5 10-3 1-3 2-3 3 3 6 4 17 2 22l1 6a853 853 0 015 2c3-2 4-2 6 1 3 3 4 6 2 9v5l-1 3v1l-1 3-2 3c-1 3-4 7-7 8l-3-1-1-1-1-1c-2 1-3-1-3-3l-2-4-2-3-4-4c-4-5-5-8-4-10 2-2 1-5-1-6l-4-2-2-1v3c1 4-1 8-4 11l-3 4-1 2-1 3c1 2 0 4-2 6-1 3-2 4-1 5v2c-1 1 0 2 4 4l8 6 3 2-3 3c-4 4-4 5 1 6 3 1 7 3 7 5l1 3 1 3-1 4c0 2 2 4 4 4 4 0 6 4 4 7-1 0-1 1 1 2 4 4 8 9 12 17 2 4 2 4 1 5l-4 1c-3-1-13-2-14-1-2 0-3 1-4 4l-4 6c-1 2-1 2-2 1l-2-3-2-5c-2-4-3-4-4-3l-6 1-10 1-5 1c-4 0-4 0-5 3a20188 20188 0 01-6 23c-2 2-4 1-7-1zm5-9l-2-1-1-1v2c-2 1-1 3 0 4 2 0 2 0 2-2l1-2zm1-9v-3c0-1 0-2-2-2l-2 3v3c0 1 3 1 4-1zm-7-5l-2-1v3c1 1 2 0 2-2zm51-4l2-4c0-2-1-1-2 1l-3 3h-2l3 5 2-5zm-102 2c1-1 2-2 0-2-1 1-3-1-3-3h-1l-1-2-1-1 4 10 2-2zm31-3l1-2-1-1h-2l-5 1h-2v2h9zm40-1c-3-2-8-3-8-1l6 1h2zm-53-1l-1-1-1 1 1 1 1-1zm36-3l2-1-2-2c-2-1-6 0-6 1h-1l-1 1c0 3 6 3 8 1zm35 1c2-1 4-3 4-5l-1 1-7 4h4zm32-1l-1-2c-1-5-1-5-4-2-4 4-4 5 1 5l4-1zm-110-1c-1 0-1 0 0 0 1-1-2-4-3-4l-1 2 1 1v1l2 1 1-1zm-16-14l4-4 2-3 3-3c1 0 3-2 3-4h-1l-3 1h-2l-1 1-2 1-1 1-2 1-2 1-3 1-1 1-1 1-1 1-1 1-2 2-4 3c-3 2-3 3 0 3h4l1 1h2c-1 1 0 1 1 1h1v1h1l2-2 3-6zm108 6l1-2c-1 0 0 0 0 0l1-1-3 2c-2 1-2 2-1 2l2-1zm-100-2v-1l1-1h-1c0-2-1-2-2-1s0 4 1 4l1-1zm17-2h-1v-1c1-1 1-1-1-3l-3-2c-2 0-2 0-1 2l1 2v2h1l1 1c1 1 3 0 3-1zm7 1v-1l-1 1v1l1-1zm8 1l-5-1 3 1h2zm16-4h-1v1l1-1zm42-4v-1c1 0 1 0 0 0l-2 1c-1 1 0 3 1 2l1-2zm-33-1c2-2 2-3 1-3-2 0-5 4-5 4 1 1 1 1 4-1zm-34-2c2-2 2-2 3-8 0-5 0-5-2-8l-2-5c0-1-1-1-3 1h-1l-2 2-1 1-1 2-1 2-1 2 1 9 1 1 3 3c2 1 3 1 6-2zm-4-1l1-1h1l-2 1zm4-2h0c-1 1-1 1 0 0zm-1-11l-2-3 2 2 3 3-3-2zm18 14l-1-1c-2 0-3 1-3 2h2l2-1zm45-1v-1h-1c1-1 0-4-1-4l-1 3c1 2 2 3 3 2zm-21-3v-1c1 0 1-1 0 0v1zm-4-4h1l4-2h-1c0 1 0 0 0 0h1l7-1h9l2 1-1-3-2-3v-3l-2-3-6-2c-8 0-9 0-8 1h-1l-5 1-3 1 2 2 3 4c3 4 2 5-4 9l-2 2 3-2c2 0 3-1 3-2zm5-7v-2l1 4-1-2zm-3-5l-1-1h1l1 1h-1zm10 14c2 0 1-2 0-2l-3 1-1 1c1 1 1 1 0 0l2 1 2-1zm26 0l1-1-2 1-1 1 2-1zm-58-7l1-1-3-9c-3-12-3-11-6-10l-2 1v-1l1 8c2 7 2 14 1 18l3-3 5-3zm55 4l1-1 1-1-1-3v-1l-6-5v3l1 5 1 3c2 2 4 1 3 0zm-2-4v-1c-1-1-1-1 0 0v1zm-13 4h-2l1 1 1-1zm-64-13h-1v1l1-1zm8-5l-2-1-1 1h-1l-1 1v1h-1c1 1 6-1 6-2zm27 2h-3 2l2 1c1-1 1-1-1-1zm36-3l2-3c1-1 0-2-1-3l-2-2v3l-3 3c-2 1-3 3-1 2l2 1c1 1 2 1 3-1zm-2-1a112 112 0 002-1l-1 1h-1zm-18 0c1-1 1-1 0 0h1c4-2 0-3-15-2-8 0-9 0-8 2h22zm-20-1s0-1 0 0v0zm-28 0l1-4-1-2 2-1-2-1c-5 1-5 1-4 2v2c-1 1 1 5 2 5l2-1zm-35-12l-1-2-1 1c-2 2-2 3 1 3h3zm-9-2c0-2 0-2-1-1s-1 3 1 3v-2zm58-1c0-2-2-4-3-3v2c2 3 3 3 3 1zm43 0v-2l-2 2h2zm-107-3l-1-2v2l1 1v-1zm28-2h-1l1 1v-1zm80 1v-2h-2v1l2 1zm-98-4v-2l-2 1h-2l1 2c2 2 3 1 3-1zm48 1l2-3c0-1 0-1 0 0h-3l-2 1-1 1v1h4zm-24-2l4-3c2-1 4-5 3-5 0-1-6 1-10 4-6 4-6 4-4 5 3 2 4 2 7-1zm54 2l-1-1-1 1h2zm18-4l-2-1c-2 1-2 2 1 2 2 0 2 0 1-1zm-68-8c2-1 2-1 2-3l-1-9c0-3 0-6-1-5l-1 6c1 2 0 4-3 8l-3 4c0 2 0 2 3 0l4-1zm74-1h-1v2c0 2 0 2 1 1v-3zm-56 1l5-1c2 0 4-2 4-3s-2-1-9 1c-7 1-10 2-8 3h8zm63-6c3-3 3-4-1-3l-4-1-1 1-1 3 1 2c2 2 3 2 6-2zm-66 1c2 0 2-2 1-4-2-2-4-3-8-3s-4 0-4 2 1 3 4 4l5 2 2-1zm27-1l-1-1v1 1l1-1zm7-9l-2-1h-2l3-1 2 1 1 1 3-1 4-2c3-3 4-6 1-10-3-3-7-3-17-2-7 0-8 1-10 2-3 3-4 5-3 7l1 3c0 1 4 3 7 3h12zm12-1h-1v1h2l-1-1zm4-3h-1l-1 2 1 1 1-3zm-40-8l-2-1-1 1h3zm41-2h-3l2 1c1 0 2 0 1-1zm-45-4l-1-1-1-1c-1-2-2-2-2-1l1 1v1l2 3 1-2zm40 1v-2-1l-2-2h-1l-1 2 3 3h1zm13-4l-3 3h1l2-3zM87 44h1c1 2 3 1 3 0l-1-2-1-1c0-2-2-4-3-4-2 0-5 3-6 5v3c2 2 5 1 7-1zm62 1c1-1 0-3-1-4l-4 2c0 3 3 4 5 2zm7-2l-1-1-1 1 1 1 1-1zM86 32l-2-2c-2 0-2 1-1 3h2l1-1zm6-3l5-2 6-2c4-2 5-4 2-5l-7-1h-2l-1 1h-1s-1 0 0 0l-1 1-2 1v1l-1 1-1 1v4h3zm67-4l2-2 1-1-1-2h-6v6c1 1 2 1 4-1zm-4-5h1l-1 1v-1zm-43 1c0-2-2-4-3-2-1 1 0 3 1 3l2-1zm17 0c6 0 7 0 8-2 1-3 1-6-1-7l-2-1h-5a50 50 0 00-7 0c-4 1-8 6-6 7l1 1 1 2 1 1h2l8-1zm5-2l1-1v1c0 2-1 2-1 0zm0-5l-1-2 1 1c2 1 2 1 0 1zm15 4l-1 1 1 1v-2z"/>
  <path fill="#e4dad2" d="M123 247c-1-1-2-2-2-5l-3-14-3-10h-2l-3 1-3 1-10 3-4-1-4-1-3-1-1-1-3-1c-3-1-4-1-7 4-6 7-5 7-7 5l-6-13-2-4-6-2c-6-2-8-3-8-5l16-14c5-4 13-7 16-7l1-2 5-9c2-1 3-3 3-5l-2-5c-2-4-2-5-1-6 1-2 7-4 11-5h3l-1-2-3-3-5-4-3-2-2 2-2 4c0 4-3 7-8 9-3 2-4 2-5 1l-4 2-4 2-3-1-7-3c-4-2-11-10-12-12 0-1 1-3 7-6l6-3-1-3v-5-5c-2-4-1-9 3-12l2-2 2 2 3 1 2-2c1-2 2-2 1-4V86l2-5v-3l-5 1c-5 1-7 0-9-1-1-1 0-2 3-4 3-1 8-8 12-16l13-20c2-2 2-2 0-5l-2-2 2-2 4-2 2-3c2-5 11-10 18-9h4l3-1 5-3c4-3 7-4 14-4 6 0 12 2 15 4l5 2 4 1 2 1c3 0 14 7 14 10l2 4 3 4-2 3-2 3 2 4 11 19c0 2 2 4 3 5 2 3 7 5 9 5l3 2c1 1 1 1-3 4l-6 5-1 2c3 8 4 16 2 22l1 6a851 851 0 015 2c2-2 4-2 6 1 3 2 3 5 2 9v5l-1 3v2l-1 2-3 4c-1 3-5 7-7 7s-3-1-3-2l-1-1c-2 1-3-1-3-3l-2-4-2-3-3-4-4-5-1-5 1-3c0-2-1-2-2-3l-4-2-2-2v3c1 4-1 8-4 12l-3 4-1 2-1 3c1 2 0 3-2 6-1 3-2 4-1 5l-1 2 5 4 8 6 3 2-3 3c-2 2-3 2-3 4 0 1 1 2 4 2 4 1 6 3 7 5l1 3 1 5c-1 5-1 5 4 6 3 1 4 3 3 5s-1 3 3 6l11 16-1 4h-19l-2 4-4 6c-1 2-1 2-3 1l-1-3-2-5-4-4-13 2-4 1-6 1h-3l-1 6c-1 8-4 17-5 19-2 3-4 3-7 0zm5-9l-2-2-2 2v3l2 1 1-1 1-3zm1-9v-3c0-1 0-2-2-2l-2 3v3c0 1 3 1 4-1zm-7-5l-2-1v3c1 1 2 0 2-2zm53-8c0-2-1-1-2 1l-3 3c-2 0-2 0 0 3l1 2 2-4 2-5zm-104 6c1-1 2-2 0-2-1 1-3-1-3-3h-1l-1-2-1-1 4 10 2-2zm31-3c2-1 2-2 1-3h-6c-5 1-6 2-3 3h8zm40-1c0-1-6-3-7-2-2 1 1 2 5 3l2-1zm-53-1l-1-1-1 1 1 1 1-1zm36-3l2-1-2-1c-1-1-2-2-4-1-3 0-4 1-4 2 0 3 6 4 8 1zm38-1l1-3-2 1-4 3c-3 1-2 2 0 2l5-3zm28-1l-1-4-3 2c-5 5-5 5 4 6h2zm-109 1c0-2-2-4-3-4-2 1 0 5 2 5l1-1zm-14-16l7-7 4-5-12 4c-5 2-11 7-15 11l-4 3 7 2 7 2 2-4 4-6zm106 8l2-3c-2 0-6 4-4 4l2-1zm-100-2c1-2 0-4-1-4l-2 3c1 2 3 2 3 1zm32 0l-3-1c-2 0-2 1 0 1h3zm-15-3c0-2-3-5-5-5s-2 1 0 4c1 4 5 5 5 1zm8 2l-1-1-1 1h2zm23-3h-1v1l1-1zm42-3v-2c-1 0-3 2-2 3 0 1 1 1 2-1zm-33-2c2-1 2-3 1-3s-6 3-5 4c1 2 2 1 4-1zm-34-2c3-2 3-2 3-8 0-5 0-5-2-8l-2-5c0-1-1-1-4 1-8 6-9 18-1 22 2 1 3 1 6-2zm17 0l-1-1c-2 0-3 1-3 2h2l2-1zm45-2c0-2-1-5-2-4-2 1-1 5 1 5l1-1zm-20-2c0-2-2-1-2 0l1 1 1-1zm7-7h9l2 1-1-3-2-4-2-5c-2-2-2-2-7-2l-16 3 2 2 3 4c3 4 2 5-4 9-1 1 1 1 4-1 5-3 7-3 12-4zm-1 5c3-1 3-2 0-2-3 1-4 1-3 2h3zm27 0c2-1 0-2-1 0l-1 1 2-1zm-58-7l1-1-3-9c-3-12-3-11-6-10l-2 1v-1l1 8c2 7 2 14 1 18l3-3 5-3zm56 3c1-3 0-6-3-8l-3-2v3l1 5c0 4 4 6 5 2zm-16 1h-2l1 1 1-1zm-70-6l1-2-1 1-2 3c0 1 1 1 2-2zm6-7h-1v1l1-1zm6-3c2-2 3-3 0-3-2 0-4 2-4 4l4-1zm30 1c1-1-3-2-6-1h-2l3 1a207 207 0 005 0zm35-4l2-3c1-1 1-1-1-3l-2-2v3l-3 3c-2 1-2 2 0 3 3 1 3 1 4-1zm-19-1c2-1 2-3-1-3l-22 1v2l12 1 11-1zm-48-2v-5c2-3 2-3 0-2-6 1-6 1-5 3 1 6 1 6 3 5l2-1zm-36-11l-1-2-1 1c-2 2-2 3 1 3h3zm-9-2c0-2 0-2-1-1s-1 3 1 3v-2zm58-1c0-2-1-3-3-3-1 0-2 1 0 3 1 2 3 2 3 0zm44 0l-2-2-1 2h3zm-108-3l-1-2v2l1 1v-1zm28-2h-1l1 1v-1zm80 0l-1-2c-1 0-2 0-2 2l2 1 1-1zm-98-3v-2l-2 1h-2l1 2c2 2 3 1 3-1zm48 1l2-3-5 1c-2 0-2 2 0 2h3zm-24-2l4-3c2-1 4-5 3-5 0-1-6 1-10 4-6 4-6 4-4 5 3 2 4 2 7-1zm54 2l-1-1-1 1h2zm18-4l-2-1c-2 1-2 2 1 2 2 0 2 0 1-1zm-92-2v-1l-2 1h2zm20-5l5-2c2 0 2 0 1-4l-1-8-1-5-1 6c0 5 0 5-3 8l-3 7 3-2zm80 0l-2-2-2-1 1 2c0 2 0 3 1 2l2-1zm-58-1l5-1c2 0 4-2 4-3s-2-1-9 1c-7 1-10 2-8 3h8zm63-5l2-3c0-2 0-2-4-2l-4 1v2 3c2 2 2 2 6-1zm-66 0c2 0 2-2 1-4-2-2-5-3-8-3s-4 0-4 2 1 3 4 4l5 2 2-1zm26-1l-1-1c0 2 2 2 1 1zm64-2l-2-1h-2l1 1h3zm5-2v-2c-1-1-3 1-2 2h2zm-119-3h-2c-2 1-2 1 0 1l2-1zm-6-4v-3l-1 2c-2 2-2 5 0 4l1-3zm64 2l-2-1h-2l3-1 2 1 1 1 3-1 4-2c3-3 4-6 1-10-3-3-7-3-17-2-7 0-8 1-10 2-3 3-4 5-3 7l1 3c0 1 4 3 7 3h12zm13 0l-2-1v1h2zm40 0l-4-8c-1-1-2-2-3-1-2 1-4 6-3 7 2 2 9 3 10 2zm-85-3c-2-2-7-6-9-6s-1 5 1 6c2 2 9 3 9 2l-1-2zm48-1h-1l-1 2 1 1 1-3zm13 0l4-4 3-3-2-1c-5-1-7 0-10 2l-3 5-1 3h4l5-2zm28-5c1-2 2-7 1-10l-2-3-2 3c-2 2-2 3-2 5 1 6 2 7 5 5zm-119-4c-1-3-2-2-2 0l1 3c1 1 1-1 1-3zm38 1l-2-1-1 1h3zM71 86h-2l2 13c1 1 1 0 1-5l-1-8zm76 13h-3l2 1c1 0 2 0 1-1zm11-4c0-1-2 0-3 2l-1 1 2-1 2-2zm-47 1c2-2 1-2-1-1l-5 1c-1-1-2 0-1 1s6 0 7-1zm-9-1l-1-1-1-1c-1-2-2-2-2-1l1 1v1l2 3 1-2zm40 1v-2-1l-2-2h-1l-1 2 3 3h1zm8-1c2-1 2-3 1-2l-5 1c-2 0-3 0-2 2l6-1zm5-3l-3 3h1l2-3zM87 77c3-3 6-10 9-20l7-17 1 9 2 13c0 4 3 10 4 10 2 0 3-5 3-13v-8l2 5c3 6 4 9 7 9 5 0 7-7 4-15l-1-4c0-2 5 4 7 8 3 6 8 11 14 14 3 2 5 2 9 2l6-1v-9l-1-5 3 1c4 2 6 2 9 1 2-2 3-5 2-8-2-5-11-15-15-18l-20-5c-5 0-11 1-12 3l-4-1c-7-4-16-3-20 1-1 2-2 2-3 2-3-2-11 2-16 7-2 2-9 11-15 23l-7 10-3 4 3-1c4-2 12-8 18-14l4-3-2 6c-2 5-3 14-2 15 2 1 4 1 7-1zm-1-45l-2-2c-2 0-3 1-1 3h2l1-1zm11-5c8-2 10-4 10-5l-3-3c-6-2-14 2-15 7-1 2 0 4 1 4l7-3zm64-7c-2-1-6-2-6 0-2 2-1 5 0 6 2 1 2 1 5-2l3-3zm-49 1c0-2-2-4-3-2-1 1 0 3 1 3l2-1zm18 0c5 0 6 0 7-2 1-3 1-6-1-7l-2-1-6-1c-9 1-14 4-12 9 1 2 3 4 6 3l8-1zm19-3l-1 1 1 1v-2z"/>
  <path fill="#d5d1cb" d="M123 247c-1-1-2-2-2-5l-6-25-2 1-3 1-4 1c-4 3-10 4-14 1h-3l-3-1-1-1-3-1c-3-1-4-1-7 4-5 7-5 6-7 5l-7-14-1-3-6-2c-6-2-8-3-8-5a70 70 0 0129-21c4 0 4-1 5-3l3-6c3-3 4-5 4-7l-2-5c-2-4-2-5-1-6 1-2 8-5 11-5h3l-1-2-4-4-5-4-2-2-2 3-2 5c0 3-3 6-7 8-3 2-4 2-5 1s-1-1-4 2c-3 1-3 2-7 1-4 0-6-1-9-4-4-2-11-9-11-11l8-7 4-2v-6l-1-8c-1-4 0-7 2-10 3-3 4-3 7-1l2 1 2-2c2-3 2-3 1-5-1-3-1-13 1-17l1-5v-3H52c-1-1 0-2 3-4 3-1 8-8 13-17l12-19 2-2-1-2-2-3c0-1 3-4 5-4l3-3 4-5c3-2 10-4 13-4h4l3-1 5-3c4-3 7-4 14-4 6 0 11 1 15 4l5 2 4 1 3 1c5 1 10 6 13 10 0 2 2 3 3 5 3 2 3 4 0 6l-2 3 3 4 6 12 5 10c1 3 8 7 10 7l3 2 2 1-4 3c-2 2-4 4-6 4l-1 2c3 9 4 17 2 23l2 6 2 3 2-1c3-2 4-2 7 1 2 3 2 3 1 6v7l-3 8-2 4c-1 3-5 7-7 7s-3-1-3-2l-1-1c-2 1-3-1-3-3l-2-4-2-3-3-4-4-5-1-5 1-3c0-2-1-2-2-3l-4-2-2-2v3c1 4-1 8-4 12l-3 4-1 2-1 3c1 2 0 4-1 6l-3 6c0 3 1 3 5 5 6 3 11 7 11 8l-3 3c-2 2-3 2-3 4 0 1 1 2 4 2 4 1 6 3 7 5l1 3 1 5c-1 5-1 5 4 6 3 1 4 3 3 5s-1 3 3 6l11 16-1 4h-19l-2 4-4 6c-1 2-1 2-3 1l-1-3-5-9h-2l-7 1-8 2-6 1h-4l-1 6c-1 8-4 17-5 19-2 3-4 3-7 0zm5-8c1-2 0-2-1-3-3 0-3 0-3 3l1 3c2 0 3 0 3-3zm1-10v-3c0-1 0-2-2-2l-2 3v3c0 1 3 1 4-1zm-7-5l-2-1v3c1 1 2 0 2-2zm52-4l2-5-2-2-2-1-3 2-3 2 1 3 4 6 3-5zm-102 1l3-4-2-4c-3-5-4-6-7-3l-2 4 5 11 3-4zm29-2c2 0 3-1 3-2l-6-1-6 1 1 2h8zm41-1l-7-3v3h7zm-53-1l-1-1-1 1h2zm73-3l2-4 1-2-2 2-5 4c-2 1-3 1-2 2l6-2zm-37 1c3-2 3-2 1-4-3-2-9 0-9 2l1 2h7zm67-1l-4-10-1-1-5 4-6 6v2h6a506 506 0 0110-1zm-61 0l-1-1c-1-1-2 1-1 2l2-1zm-48 0l-4-5c-2 0-1 2 0 4s3 2 4 1zm86-8l-2 2h1l1-2zm-105-3c2-4 5-7 10-12l6-7-3 1c-7 1-18 7-26 15l-3 3 7 2 6 3 3-5zm13 3l-1-1c0-1 0 0 0 0v1h1zm98-1l1-3-5 4 4-1zm-100-4l-2-2c-2 0-3 3-1 4 2 2 3 1 3-2zm32 2l-6-1 4 1h2zm12-2l-1-1v3l1-2zm-29 1l1-2c0-2-4-6-5-6-2 0-2 5 1 8h3zm9 0l-2-1-1 1h3zm24 0l-1-1v1h1zm0-3h-2l1 1 1-1zm41-2v-4l-3 3c0 2 2 2 3 1zm-32-3v-3l-5 3v2c1 1 2 0 5-2zm-34 1c2-1 2-2 2-14a2210 2210 0 01-1-12c-1-1-8 3-10 6-4 5-5 10-3 15 2 3 3 4 7 5h5zm13-2l3-1c0 1 0 0 0 0h-5c-1 3 0 3 2 1zm48-3c1-1 0-4-2-4l-1 1c0 4 2 5 3 3zm-28-3c8-4 14-6 22-6h4l-2-5c-2-6-5-9-9-9-7 0-25 5-25 7l3 4c2 0 2 1 0 3l-1 6 2 4 6-4zm36 3v-1l-1 1 1 1v-1zm-28-2c0-1 0-2-1-1l-2 1 1 1 2-1zm33-1c2-2 1-4-1-2l-1 3 2-1zm-25-2c2-1 0-2-3-1s-3 2-3 3c1 1 5 0 6-2zm-33-6l1-1-3-9c-3-12-3-11-6-10l-2 1v-1l1 8c2 7 2 14 1 18l3-3 5-3zm55 4c2-2 2-6 1-7-2-2-7-6-9-6-2-1-2 0-1 1l1 3 1 3c0 2 1 5 3 7s3 2 4-1zm-15 0h-2l1 1 1-1zm-70-6l2-3-2 2-2 3c-1 3 1 1 2-2zm7-7h-1l-1 1h1l1-1zm5-3c3-2 3-3 1-3-3 0-5 2-5 3 0 2 1 1 4 0zm32 0s-2-2-3-1h-4c-4 0-5 1-2 2l9-1zm34-5l3-3-3-2-3-2v3c0 3 0 4-3 4-2 1-2 2 0 3 3 1 4 1 6-3zm-27 2c7 0 10-1 11-2 2-2-1-2-16-2l-14 1c1 4 3 4 19 3zm-41-2l1-2v-6h-1l-5 1c-2 1-2 1-1 2l1 2 2 4 3-1zm-30-11h-2c-2 0-3 0-3-2v-3l-2 2-3 3h10zm-12-1l-1-3h-3c-2 1-2 1 0 2 1 2 3 2 4 1zm15 0l-1-1h-1l2 1zm40-3c0-3-1-5-2-5-2 1-3 3-1 5 1 2 3 2 3 0zm44-1l-1-1-2 1 2 2 1-2zm-106-2l-2-2h-1c-1 1-1 1 1 2l2 2h2zm16 0l-1 1h1v-1zm90-1c1-1 0-3-1-3l-2 2c0 2 1 2 3 1zm-80-1h-1l1 1v-1zm-18-2v-4l-3 2-2 1 1 2c2 1 3 1 4-1zm4 0l-1 1c-1 1-1 1 0 0l1-1zm46-1v-2l-6 1c-1 3 4 4 6 1zm-26-1l4-3c2-1 4-5 3-5 0-1-6 1-10 4-6 4-6 4-4 5 3 2 4 2 7-1zm54 2h-2 2zm18-5h-1-2l-1 1 3 1c2 0 2 0 1-2zm-92-1v-1l-2 1h2zm20-5l5-2c2 0 2 0 1-4l-1-8-1-5-1 6c0 5 0 5-3 8l-3 7 3-2zm79 1l-1-3-2-2v2c0 3 1 5 3 3zm-57-2l5-1c2 0 4-2 4-3s-2-1-9 1c-7 1-10 2-8 3h8zm62-5l3-4-1-2-4 1c-3 0-3 0-4 3l1 4c1 2 2 1 5-2zm-67 1c4-1 4-1 4-3 0-4-8-7-12-5-2 0-2 1-1 4 0 3 2 5 3 5l6-1zm29-2l-1-2c-1 0-2 1-1 2h2zm63-2l-2-1h-2l1 1h3zm5-2v-2c-1-1-3 1-2 2h2zm-119-3h-2c-2 1-2 1 0 1l2-1zm-6-4c0-3 0-3-1-2s-3 4-2 5h2l1-3zm64 2l-2-1h-2l3-1 2 1 1 1 3-1 4-2c3-3 4-6 1-10-3-3-7-3-17-2-7 0-8 1-10 2-3 3-4 5-3 7l1 3c0 1 4 3 7 3h12zm13 0l-3-1 2 2 1-1zm40 0l-4-8c-1-2-2-2-3-1-2 1-4 6-3 7 2 2 9 3 10 2zm-85-3c-2-2-7-6-9-6s-1 5 1 6c2 2 9 3 9 2l-1-2zm50 0c0-3 0-4-2-3-3 1-3 6 0 6l2-3zm11-1l4-4 3-3-2-1c-7-1-11 1-13 6l-1 4 9-2zm28-5c1-2 2-7 1-10l-2-3-2 3c-2 2-2 3-2 5 1 6 2 7 5 5zm-119-4c-1-2-2-3-2-1l1 3 1 1v-3zm38 1l-2-1-1 1h3zM71 86h-2l2 13c1 1 1 0 1-5l-1-8zm76 13h-3l2 1c1 0 2 0 1-1zm11-4c0-1-2 0-3 2l-1 1 2-1 2-2zm-47 1c2-2 1-2-1-1l-5 1c-1-1-2 0-1 1s6 0 7-1zm-9-1l-1-2-2-1v4c2 1 2 1 3-1zm40 1v-2-1l-2-1c-1-2-2-2-2 0l3 4h1zm9-1c1-2 1-3-1-2l-3 1-3 1c0 2 5 2 7 0zm4-2c1-3 0-3-2 0v3l2-3zM87 77c3-3 6-10 9-20l7-17 1 9 2 13c0 4 3 10 4 10 2 0 3-5 3-13v-8l2 5c3 6 4 9 7 9 5 0 7-7 4-15l-1-4c0-2 5 4 7 8 3 6 8 11 14 14 3 2 5 2 9 2l6-1v-9l-1-5 3 1c4 2 6 2 9 1 3-2 4-5 1-10-2-4-10-13-13-15s-15-5-21-6c-5 0-11 1-12 3 0 1-1 1-5-1-3-2-5-3-8-3-5 0-9 2-11 4-1 2-2 2-3 2-4-2-15 4-18 8L70 59l-7 11-4 5 3-2c4-1 12-7 18-13l4-3-2 6c-2 5-3 14-2 15 2 1 4 1 7-1zm-2-43l1-2c0-2 0-2-2-2s-3 1-2 3l3 1zm83-2h-1l-1 1h1l1-1zm-71-4c6-2 11-5 11-6 0-2-5-4-9-3-5 0-8 2-10 5-2 4-1 7 2 6l6-2zm64-3l3-3-5-3h-4c-1 1-2 0-3-1h-4v3l2 1 2-1 1 2c1 2 2 4 4 4l4-2zm-49-3l2-1c1-2 1-2-1-3h-4c-1 1-1 6 1 5l2-1zm21 0c4-1 4-1 5-3l1-4c0-4-1-5-9-5-6 0-10 1-12 3-3 3-3 5-1 8 2 2 2 2 7 1h9z"/>
  <path fill="#ecd0b0" d="M123 247c-1-1-2-2-2-5l-6-25-2 1-4 1-2 1c-3 3-11 4-15 1h-3l-3-1-4-2-3-1-3 3-4 6c-2 2-3 3-4 1l-7-15c-1-2-1-2-7-4-10-4-10-4-5-9 9-9 20-15 26-17l4-1 4-8 4-7-2-6-2-5 12-5c3 0 3 0 2-2l-3-3-5-4-3-3-2 3-2 5c0 2-4 7-6 7l-1 1c-1 1-4 2-6 1-1-1-1 0-3 2-2 1-3 2-5 1h-4l-6-3c-5-3-12-11-12-13l6-4c7-5 8-5 7-6l-1-6-1-7c-1-2 0-6 3-9 2-3 3-3 6-1l2 1 2-2c2-3 2-3 1-6s-1-12 1-17l1-5c0-2 0-2-3-2l-6 1c-5 0-6-3-1-5 3-2 7-8 12-16l13-21 1-1-1-2-2-3 5-4 2-3c3-5 9-9 16-9h6l3-1 5-3c5-3 7-4 14-4s12 2 15 4l5 2 4 1 4 2c3 0 11 6 12 10l3 3c3 3 3 5 0 8l-3 1 4 5 7 15c4 8 5 9 8 11l6 3c5 2 5 3 1 6l-6 4-1 3c3 10 4 16 2 21l1 7 2 3 3-1c4-2 5-2 7 2 2 3 2 3 0 14l-2 6-2 4c-1 3-5 7-7 7l-3-2-1-1c-1 1-3-2-3-3l-2-4-2-3-4-4c-4-4-5-8-3-10 1-2 0-5-2-6l-4-3-2-1v3c1 4-1 8-4 12l-3 4-1 1-1 4c0 3 0 4-2 7s-3 8-1 8 15 9 15 10l-3 3c-2 2-3 2-3 4s0 2 3 2c4 1 8 4 8 6l1 2v7l3 4 4 2c2 1 2 2 1 3-1 2-1 3 3 7 6 5 12 16 11 18l-3 1h-9l-8-1-3 6-3 6c-2 1-2 1-3-1l-1-2-2-4-2-4-3-1-7 1-8 2-6 1h-4l-1 6-5 20c-2 2-4 2-7-1zm7-7l1-3-3-1h-4v2c0 3 1 4 4 4l2-2zm-1-11v-3c0-1 0-2-2-2l-2 3v3c0 1 3 1 4-1zm-7-5l-2-1v3c1 1 2 0 2-2zm51-2l3-6 9-1h8l-5-11c-2-3-4-3-6 0s-7 6-10 6c-5 0-7 3-5 8l4 8 2-4zm-100-2c3-3 3-4 2-5l-1-4c-1-3-4-6-6-6-1 0-4 5-4 8l5 12 4-5zm29-1l3-2 4-1 4-1 2-1 4 2 6-1h5l4 2c1 1 2 2 5 2l6-1c2-1 2-1-2-1l-9-3c-8-4-10-5-17-3l-8 3c-4 2-18 2-22 1s-10-8-12-15l-2-3-1 1c-2 2-2 2-1 4l2 2c3 1 5 3 5 6 0 2 2 5 6 6l3 1 2 1c1-1 2 0 3 1h10zm49-2c1-1 1-1-1-1l-1 1h2zm9-1c2-1 3-2 4-5l1-3-3 2c-1 2-3 3-6 4l-2 2h6zm9-9h1c2 0 6-2 6-4l1-3 1-1c0-2-1-1-3 2l-5 4-4 3c1 1 3 0 3-1zm-105-4l5-6c1-2 1-2 1 0v1l10-14-4 1c-5 1-13 5-17 9l-11 9 13 5 3-5zm58 2c1-3 1-6-1-6v1a601 601 0 01-1 6l-2 1h2l2-2zm-21-2l4 1 3-1-12-3v2l2 1h3zm18-4l-1-3v3c-1 4 0 5 1 4v-4zm-27 3l3-2-5-3-5-5c-1-2-1 6 1 9 1 2 3 2 6 1zm63-2v-3l-3 3h3zm-40-3c-1-6 0-6-3-6-2 0-3 1-3 2l-1 1h-1l1 1 3-1c2-2 3-2 2 0-1 1-1 1 0 0l1 2 1 3v-2zm37 1c1-2 1-2-1-1-1 1-2 2 0 2l1-1zm-51-1l-1-4c-1-3 0-8 3-13 2-3 3-3 2-7-1-7-2-7-9-4-7 4-12 10-12 16 0 2 2 7 4 8l11 5 2-1zm64-1v-3l1-2 1-1 3-2 3-3c1-2 0-2-3 1l-4 3-5 8h1l3-1zm-34-1l3-4 2-2c1 1 2 1 3-1l3-1c2 0 6-1 7-3 1-1 1-1-1-1-4 0-9 3-16 7-6 4-7 5-6 6 0 1 3 1 5-1zm-13 0v-1l-1 1 1 1v-1zm62-1v-1l-1 1v1l1-1zm-50-5l15-7h11c2 1 2 0 0-5l-4-7c-2-2-3-3-7-3l-14 3-11 2c-3 0-3 0-1 6l1 7c0 4 2 7 3 7l7-3zm30 2c0-1-1-5-3-6-1-1-2-1-1 2v4h4zm-46-12l1-1-3-9c-3-12-3-11-6-10l-2 1v-1l1 8c2 7 2 14 1 18l3-3 5-3zm55 5c2-2 3-5 2-7-2-3-9-7-12-8l-4 2c0 2 5 10 7 12 4 3 5 3 7 1zm-15-1h-3l2 1c2 0 2 0 1-1zm-67-9l-1-1c-2 1-4 4-4 7 0 2 0 2 2-2l3-4zm87 5v-1l-1 1 1 1v-1zm-2-5l-1-1c-2-1-2-1 0 0l1 1zm-82-3l6-4c4-3 5-4 1-4-2 0-5 3-5 4l-2 2-1 2h1zm39-4a174 174 0 0119-4v-2l-9-1h-25l3 8c2 1 8 0 12-1zm32-3l3-3c1-1 1-2-4-5-4-2-5-3-3-1l2 4-3 3-2 1 5 3 2-2zm-67-2l1-2v-5l2-2h-3l-8 4 5 6 3-1zm-30-10v-2h-1c0 1-3 1-3-1-1-2 0-3 1-3l1-1 2 2c1 4 1 4 3 2v-1l-4-3 4-1h-6l-4 3c-2 3-3 4-2 5h9zm-11-3c2-1 2-3 0-4v-2c1-1 3-1 3 1v1l1-1c-1-2-1-2 2-2l3-1h-3c-3-1-3-1-10 5l-3 2 2 1c1 2 3 2 5 0zm54 0c1-1 0-7-1-8s-3 1-3 3c0 3 3 6 4 5zm43-1l1-2v-3c2-2 1-3-1-3l-2 4c0 4 0 5 2 4zm-104-4v-3l3 1h3l2-4c-1-1-1-1 0 0h1c0-2-3-2-9 2l-4 3 3 3c2 0 2 0 1-2zm55 1h-1v1l1-1zm46-4l-1 1 1 1v-2zm-76 1h-1l1 1v-1zm32-3c2-3 2-3 0-3-5 0-8 2-6 4 1 2 4 1 6-1zm-26-1l4-3c2-1 4-5 3-5 0-1-6 1-10 4-6 4-6 4-4 5 3 2 4 2 7-1zm54 1c0-2-3-3-3-1l-1 1-1-1v-1l-1 2 4 1c3 0 3 0 2-1zm19-4c-2-2-3-2-4-1-3 1-2 3 2 3h3l-1-2zm-92-1c-1-1-4-2-4 0l2 1 2-1zm18-4l5-2 3-1-1-4-1-8-1-5-1 6c0 5 0 5-3 8l-3 7 2-1zm80 0v-2l2-2c4-2 6-5 6-8l-1-3-5 2c-2 0-3 1-2 2l-1 2-1 3v1l-1 3c0 3 1 3 3 2zm-57-2l5-1c2 0 4-2 4-3s-2-1-9 1c-7 1-10 2-8 3h8zm-1-5l1-3v-3l-3-1c-3-1-5-2-7-1h-4v4l1 6v1l6-1 6-2zm25 1c0-2-1-5-2-4v3c2 3 2 3 2 1zm64-4l-5-2v2h5zm4-2c0-2-2-3-2-1l1 2 1-1zm-118-3v-1l-4 2 4-1zm-8-1l1-5c-1-1-3 2-3 4s1 3 2 1zm80 0l2-2 2-8-5 6-2 1c-2 0-2 2-1 3h4zm38-1l-1-4-3-4-2-3-2 2c-2 2-4 7-2 8l8 2 2-1zm-53 0l-2-1h-2l3-1 2 1 1 1 3-1 4-2c3-3 4-6 1-10-3-3-7-3-17-2-7 0-8 1-10 2-3 3-4 5-3 7l1 3c0 1 4 3 7 3h12zm-30-1l-8-7c-3-1-4-1-4 2 0 2 0 3 3 4 3 2 9 3 9 1zm58-2l6-6c2-3 1-3-4-3-4 0-7 1-9 6s-2 5 2 4l5-1zm29-6l1-5c1-3 0-8-1-8l-3 2-2 6c0 4 1 7 2 7l3-2zm-119-2v-3l-1-2v5c1 2 2 1 1 0zm38-1l-2-1-1 1h3zM70 85l-1-2v7l2 8 1 3v-7c0-7 0-7-2-9zm77 14h-3l2 1c1 0 2 0 1-1zm11-4h-1l-4 3c0 1 4-1 5-3zm-47 1l2-1c0-1-2-2-3-1l-4 1c-3 0-3 1-1 2 1 1 4 1 6-1zm-9-1l-1-2-2-1v4c2 1 2 1 3-1zm40 1v-2-1l-2-1c-1-2-2-2-2 0l3 4h1zm7 0l3-3h-2l-4 1c-3-1-4 1-1 2h4zm6-3c1-3 0-3-2 0v3l2-3zM88 76c3-3 5-8 9-19 3-11 6-18 6-16l1 9c1 11 2 17 4 20 3 5 5 2 5-10v-9l2 6 4 7c3 2 5 2 7-1s2-7 1-13l-2-5 3 3 4 6c2 5 8 11 13 14l9 3c6 0 8-1 8-6l-1-6-1-3 3 1h9c6-3 3-11-7-21-6-5-6-5-16-8l-14-2c-6 0-7 0-8 2l-1 1-4-2-8-2c-4 0-9 2-11 4-1 1-1 2-3 1-5-1-14 4-18 10-4 4-9 13-12 19l-7 11-3 5c1 1 14-8 20-15l4-3-2 5-3 15c1 2 1 2 3 2 3 0 4 0 6-3zm82-42l2-2-1-1h-3c-2 1-2 3-1 4 0 1 1 1 3-1zm-83-1l10-5 8-3c3-2 5-2 10-2l15-1h9l1-3c2-5 2-6-1-8l-9-1c-7 0-10 1-14 5-3 2-3 3-5 2l-3 1c0 2-1 2-2 1-8-2-16 1-18 8-1 2-2 2-3 2-2 0-3 1-3 2 0 3 3 4 5 2zm76-7l2-2-5-5-4-1-3-1c-3-2-5 0-5 4l1 2 2-1c1-1 2-1 2 1l1 3c1 2 5 2 9 0z"/>
  <path fill="#b3c6c9" d="M123 247c-1-1-2-2-2-5l-6-25-2 1-4 1-2 1c-3 3-11 4-15 1h-3l-3-1-4-2-3-1-3 3-4 6c-2 2-3 3-4 1l-7-15c-1-2-1-2-7-4-10-4-10-4-5-9 9-9 20-15 26-17l4-1 4-8 4-7-2-6-2-5 12-5c3 0 3 0 2-2l-3-3-5-4-3-3-2 3-2 5c0 2-4 7-6 7l-1 1c-1 1-4 2-6 1-1-1-1 0-3 2-2 1-3 2-5 1h-4l-6-3c-5-3-12-11-12-13l6-4c7-5 8-5 7-6l-1-6-1-7c-1-2 0-6 3-9 2-3 3-3 6-1l2 1 2-2c2-3 2-3 1-6s-1-12 1-17l1-5c0-2 0-2-3-2l-6 1c-5 0-6-3-1-5 3-2 7-8 12-16l13-21 1-1-1-2-2-3 5-4 2-3c3-5 9-9 16-9h6l3-1 5-3c5-3 7-4 14-4s12 2 15 4l5 2 4 1 4 2c3 0 11 6 12 10l3 3c3 3 3 5 0 8l-3 1 4 5 7 15c4 8 5 9 8 11l6 3c5 2 5 3 1 6l-6 4-1 3c3 10 4 16 2 21l1 7 2 3 3-1c4-2 5-2 7 2 2 3 2 3 0 14l-2 6-2 4c-1 3-5 7-7 7l-3-2-1-1c-1 1-3-2-3-3l-2-4-2-3-4-4c-4-4-5-8-3-10 1-2 0-5-2-6l-4-3-2-1v3c1 4-1 8-4 12l-3 4-1 1-1 4c0 3 0 4-2 7s-3 8-1 8 15 9 15 10l-3 3c-2 2-3 2-3 4s0 2 3 2c4 1 8 4 8 6l1 2v7l3 4 4 2c2 1 2 2 1 3-1 2-1 3 3 7 6 5 12 16 11 18l-3 1h-9l-8-1-3 6-3 6c-2 1-2 1-3-1l-1-2-2-4-2-4-3-1-7 1-8 2-6 1h-4l-1 6-5 20c-2 2-4 2-7-1zm7-7l1-3-3-1h-4v2c0 3 1 4 4 4l2-2zm0-11c2-8 2-8-2-8h-3v5l-1 6 1 2c3 1 4 1 5-5zm-8-3c0-5 0-5-2-5v4l2 5v-4zm51-4l3-6 9-1h8l-5-11c-2-3-4-3-6 0s-7 6-10 6c-5 0-7 3-5 8l4 8 2-4zm-100-2c3-3 3-4 2-5l-1-4c-1-3-4-6-6-6-1 0-4 5-4 8l5 12 4-5zm29-1l3-2 4-1 4-1 2-1 4 2 6-1h5l4 2c1 1 2 2 5 2l6-1c2-1 2-1-2-1l-9-3c-8-4-10-5-17-3l-8 3c-4 2-18 2-22 1s-10-8-12-15l-2-3-1 1c-2 2-2 2-1 4l2 2c3 1 5 3 5 6 0 2 2 5 6 6l3 1 2 1c1-1 2 0 3 1h10zm49-2c1-1 1-1-1-1l-1 1h2zm9-1c2-1 3-2 4-5l1-3-3 2c-1 2-3 3-6 4l-2 2h6zm9-9h1c2 0 6-2 6-4l1-3 1-1c0-2-1-1-3 2l-5 4-4 3c1 1 3 0 3-1zm-105-4l5-6c1-2 1-2 1 0v1l10-14-4 1c-5 1-13 5-17 9l-11 9 13 5 3-5zm58 2c1-3 1-6-1-6v1a601 601 0 01-1 6l-2 1h2l2-2zm-21-2l4 1 3-1-12-3v2l2 1h3zm18-4l-1-3v3c-1 4 0 5 1 4v-4zm-27 3l3-2-5-3-5-5c-1-2-1 6 1 9 1 2 3 2 6 1zm63-2v-3l-3 3h3zm-40-3c-1-6 0-6-3-6-2 0-3 1-3 2l-1 1h-1l1 1 3-1c2-2 3-2 2 0-1 1-1 1 0 0l1 2 1 3v-2zm37 1c1-2 1-2-1-1-1 1-2 2 0 2l1-1zm-51-1l-1-4c-1-3 0-8 3-13 2-3 3-3 2-7-1-7-2-7-9-4-7 4-12 10-12 16 0 2 2 7 4 8l11 5 2-1zm64-1v-3l1-2 1-1 3-2 3-3c1-2 0-2-3 1l-4 3-5 8h1l3-1zm-34-1l3-4 2-2c1 1 2 1 3-1l3-1c2 0 6-1 7-3 1-1 1-1-1-1-4 0-9 3-16 7-6 4-7 5-6 6 0 1 3 1 5-1zm-13 0v-1l-1 1 1 1v-1zm62-1v-1l-1 1v1l1-1zm-78-5l-1 2h1v-2zm28 0l15-7h11c2 1 2 0 0-5l-4-7c-2-2-3-3-7-3l-14 3-11 2c-3 0-3 0-1 6l1 7c0 4 2 7 3 7l7-3zm30 2c0-1-1-5-3-6-1-1-2-1-1 2v4h4zm-51-5l3-1c3 0 6-2 5-4l-3-8c-3-12-4-16-6-19l-2-4-3 2c-1 0-2 1-1 2l5 22-3 12h2l3-2zm60-2c2-2 3-5 2-7-2-3-9-7-12-8l-4 2c0 2 5 10 7 12 4 3 5 3 7 1zm-15-1h-3l2 1c2 0 2 0 1-1zm-67-9l-1-1c-2 1-4 4-4 7 0 2 0 2 2-2l3-4zm87 5v-1l-1 1 1 1v-1zm-2-5l-1-1c-2-1-2-1 0 0l1 1zm-82-3l6-4c4-3 5-4 1-4-2 0-5 3-5 4l-2 2-1 2h1zm39-4a174 174 0 0119-4v-2l-9-1h-25l3 8c2 1 8 0 12-1zm32-3l3-3c1-1 1-2-4-5-4-2-5-3-3-1l2 4-3 3-2 1 5 3 2-2zm-67-2l1-2v-5l2-2h-3l-8 4 5 6 3-1zm-30-10v-2h-1c0 1-3 1-3-1-1-2 0-3 1-3l1-1 2 2c1 4 1 4 3 2v-1l-4-3 4-1h-6l-4 3c-2 3-3 4-2 5h9zm-11-3c2-1 2-3 0-4v-2c1-1 3-1 3 1v1l1-1c-1-2-1-2 2-2l3-1h-3c-3-1-3-1-10 5l-3 2 2 1c1 2 3 2 5 0zm54 0c1-1 0-7-1-8s-3 1-3 3c0 3 3 6 4 5zm43-1l1-2v-3c2-2 1-3-1-3l-2 4c0 4 0 5 2 4zm-104-4v-3l3 1h3l2-4c-1-1-1-1 0 0h1c0-2-3-2-9 2l-4 3 3 3c2 0 2 0 1-2zm27 1l-1-1v1l1 1v-1zm28 0h-1v1l1-1zm46-4l-1 1 1 1v-2zm-75 1h-1-1l1 1 1-1zm5-3c4-3 13-7 18-8l14-2c9-1 10-1 10-3l-1-3c-1-2-1-2-4-1-17 2-38 9-46 15l-1 2 3 1 4 2 3-3zm26 0c2-3 2-3 0-3-5 0-8 2-6 4 1 2 4 1 6-1zm28 0c0-2-3-3-3-1l-1 1-1-1v-1l-1 2 4 1c3 0 3 0 2-1zm19-4c-2-2-3-2-4-1-3 1-2 3 2 3h3l-1-2zm-92-1c-1-1-4-2-4 0l2 1 2-1zm18-4l5-2 3-1-1-4-1-8-1-5-1 6c0 5 0 5-3 8l-3 7 2-1zm80 0v-2l2-2c4-2 6-5 6-8l-1-3-5 2c-2 0-3 1-2 2l-1 2-1 3v1l-1 3c0 3 1 3 3 2zm-58-7l1-3v-3l-3-1c-3-1-5-2-7-1h-4v4l1 6v1l6-1 6-2zm25 1c0-2-1-5-2-4v3c2 3 2 3 2 1zm64-4l-5-2v2h5zm4-2c0-2-2-3-2-1l1 2 1-1zm-118-3v-1l-4 2 4-1zm61-1c4 0 4-1 5-3l2-1c1 0 5-6 5-8l1-1 1-1-2-2h-3l1-1-1-1-1-2v-1l-2-2c-1-1-2-2-2 0 0 1-5 2-9 1l-7-2-5-1-2 4c-3 4-7 7-10 7l-2 1 2 1 1 2 1 5c2 4 2 4 6 5 6 2 10 2 14 1l7-1zm-7-2l2-1 2 1h-4zm-62 2l1-5c-1-1-3 2-3 4s1 3 2 1zm80 0l2-2 2-8-5 6-2 1c-2 0-2 2-1 3h4zm38-1l-1-4-3-4-2-3-2 2c-2 2-4 7-2 8l8 2 2-1zm-83-1l-8-7c-3-1-4-1-4 2 0 2 0 3 3 4 3 2 9 3 9 1zm58-2l6-6c2-3 1-3-4-3-4 0-7 1-9 6s-2 5 2 4l5-1zm29-6l1-5c1-3 0-8-1-8l-3 2-2 6c0 4 1 7 2 7l3-2zm-119-2v-3l-1-2v5c1 2 2 1 1 0zm2-17l-1-2v7l2 8 1 3v-7c0-7 0-7-2-9zm88 10h-1l-4 3c0 1 4-1 5-3zm-56 2v-2-1l-2-2-2-2 2 7c1 1 3 2 2 0zm9-1l2-1c0-1-2-2-3-1l-4 1c-3 0-3 1-1 2 1 1 4 1 6-1zm38 0l3-3h-2l-4 1c-3-1-4 1-1 2h4zm4-1l2-3v-3l-1 2-2 4c-2 2-1 2 1 0zM88 76c3-3 5-8 9-19 3-11 6-18 6-16l1 9c1 11 2 17 4 20 3 5 5 2 5-10v-9l2 6 4 7c3 2 5 2 7-1s2-7 1-13l-2-5 3 3 4 6c2 5 8 11 13 14l9 3c6 0 8-1 8-6l-1-6-1-3 3 1h9c6-3 3-11-7-21-6-5-6-5-16-8l-14-2c-6 0-7 0-8 2l-1 1-4-2-8-2c-4 0-9 2-11 4-1 1-1 2-3 1-5-1-14 4-18 10-4 4-9 13-12 19l-7 11-3 5c1 1 14-8 20-15l4-3-2 5-3 15c1 2 1 2 3 2 3 0 4 0 6-3zm82-42l2-2-1-1h-3c-2 1-2 3-1 4 0 1 1 1 3-1zm-83-1l10-5 8-3c3-2 5-2 10-2l15-1h9l1-3c2-5 2-6-1-8l-9-1c-7 0-10 1-14 5-3 2-3 3-5 2l-3 1c0 2-1 2-2 1-8-2-16 1-18 8-1 2-2 2-3 2-2 0-3 1-3 2 0 3 3 4 5 2zm76-7l2-2-5-5-4-1-3-1c-3-2-5 0-5 4l1 2 2-1c1-1 2-1 2 1l1 3c1 2 5 2 9 0z"/>
  <path fill="#ddb498" d="M125 249c-2-1-3-3-4-7l-6-25-2 1-3 1-3 1c-4 3-11 4-15 1l-3-1c-1 1-3 0-5-1l-5-2-8 10h-3l-7-14-1-3-6-3c-10-3-10-3-4-9 9-8 17-13 25-15 4-1 4-2 5-4l3-6c5-5 5-6 2-12-1-4-2-5-1-6l11-5 3-1-4-5-6-4-2-2-2 3-2 5c0 2-4 6-8 8-3 1-4 2-5 1l-4 2c-2 2-3 2-4 1h-4l-4-2c-4-2-11-8-13-11l-1-2 1-2 7-4c5-3 6-4 5-5l-1-5v-7c-2-3-1-6 2-10l3-2 3 1 2 1 2-2c2-3 2-3 1-6s-1-11 1-17l1-5-1-2-6 1-6-1c-1-1-1-1 1-3l11-12 15-25 2-2-1-2-2-3 5-4 3-4c3-5 7-7 14-7l7-1 3-1 5-3c5-3 7-4 14-4s12 2 16 5l4 1 4 1 3 2c4 0 13 7 13 9l2 4c4 3 4 5 1 8l-3 1 4 6 11 21c0 2 7 7 11 7 4 1 4 2 0 6l-5 4c-3 2-3 1-1 8 2 6 2 12 1 16l1 7 2 3 3-1c4-2 5-2 7 2 2 3 2 3 0 14l-2 6-2 4c-1 3-4 6-6 7-2 0-3 0-3-2l-2-1c-1 1-3-2-3-3 1-1 0-2-2-4l-2-4-2-2c-2-1-5-4-6-7l1-4c1-2 0-5-2-6l-4-3-2-1v2c1 5-1 9-4 13l-3 4-1 2c-1 1-2 1-1 3s0 3-2 7l-2 5c0 3 0 3 4 5l12 8-3 3c-2 1-3 2-3 4s1 3 5 3c2 0 6 3 6 5l1 2v4l1 6 3 1 3 2c1 1 2 2 1 3-1 3-1 3 2 5 3 3 9 11 11 16v5h-19l-3 4-3 6c-1 2-2 1-3-1l-3-6c-2-3-2-4-4-4l-5 1-5 1h-6l-5 1-4 1-2 8c-3 11-4 16-6 18l-4 1zm5-9l1-3-3-1h-4v2c0 3 1 4 4 4l2-2zm0-11c2-8 2-8-2-8h-3v5l-1 6 1 2c3 1 4 1 5-5zm-8-3c0-5 0-5-2-5v4l2 5v-4zm57-10h14l-1-2c0-3-3-10-5-12s-3-2-7 2c-3 4-4 4-10 6l-4 3c-1 2 0 3 1 6 4 8 4 8 7 2 2-5 2-5 5-5zm-105 4l2-4-1-5-4-6-3-2c0-2-3 2-3 5-2 4-1 5 2 11 2 6 2 6 7 1zm31-3c2-1 4-2 5-1l3-1 2-1 4 2c2 1 3 1 6-1h4l4 2c2 2 3 2 7 2l5-1c1-1 1-1-3-2l-8-2c-9-5-10-5-20-2-7 3-10 3-16 4-9 0-12-1-16-5s-6-7-7-11l-2-3-1 1c-2 2-2 2-1 4l2 2c3 1 5 3 5 6 0 2 2 5 6 6l3 1 2 1c1-1 2 0 4 1 2 2 8 1 12-2zm46 0c1-1 0-1-1-1l-2 1h3zm11-3l3-4c0-2 1-2 2-2l2-1h1c2 0 6-2 6-4l1-2c2-1 2-3 1-3l-3 3c-1 2-3 3-6 4l-7 5c-2 2-4 4-6 4-3 1-3 2-2 2 2 1 7 0 8-2zm-98-9c1-4 4-7 5-7l2-2 9-12-6 1a71 71 0 00-26 18l14 5 2-3zm58 0c1-3 1-6-1-6v1a601 601 0 01-1 6h-1l1 1 2-2zm-15-1v-2l-2-1h-5c-4-1-5 0-3 2h3l6 1h1zm12-5l-1-3v3c-1 4 0 5 1 4v-4zm-26 3l2-2-5-4-5-4-1 1 2 8c1 2 4 2 7 1zm62-3c2-2 0-3-2-1l-1 2c0 1 3 1 3-1zm-40-2c-1-6 0-6-3-6-2 0-3 1-3 2l-1 1h-1l1 1 3-1c2-2 3-2 2 0-1 1-1 1 0 0l1 2 1 3v-2zm38 0l2-3-5 4c0 1 1 1 3-1zm-52 0v-4c-2-3-1-6 2-10 2-3 2-4 2-8l-1-6c-1-3-1-3-2-2-4 0-11 5-14 8-7 8-5 16 5 21 5 3 8 3 8 1zm63 0l1-4 1-2 1-1 2-1c2 0 5-3 5-4 0-3-1-2-4 0l-3 3-7 10 4-1zm-34-1l4-5 2-2h3c1-2 2-2 4-2l5-2c2-1 3-2 4-1h1c2 0 3 1 3 2-1 2 0 5 2 5 4 0 2-5-3-7-3-1-4-2-7-1l-8 2c-6 3-15 9-15 11h5zm-12-1v-1l-1 1 1 1v-1zm62-2h-1v2l1-2zm-78-4l-1 2h1v-2zm25 2l6-4c8-5 17-7 23-5h2l-2-4c-2-6-4-10-7-11l-20 3-8 1-4 1 1 6 2 8c0 3 1 6 3 6l4-1zm-18-5l3-1c3 0 6-2 5-4l-3-8c-3-12-4-16-6-19l-2-4-3 2c-1 0-2 1-1 2l5 22-3 12h2l3-2zm59-1c2-1 4-4 4-6s-5-6-10-9c-5-2-6-2-7-1-1 2 3 11 7 15 3 3 4 3 6 1zm-82-11l1-1-1 1c-2 1-4 5-4 7l1-2 3-5zm88 4l-1 1c0 1 0 2 1 1v-2zm-3-5l-2-1 1 1 2 1-1-1zm-74-6c4-2 4-4 0-4-2 0-5 3-5 4l-2 2-1 2h1l7-4zm35 0l9-2c7-1 8-1 7-3 0-2 0-2-8-2h-26l1 3 1 4c1 2 10 1 16 0zm29-2l2-3c2-2 2-2 1-3l-10-6h-2l2 1 3 2v2c1 1-1 3-2 3l-1 2 2 2h5zm-67-3l1-2c-1-4-1-4 1-5l2-2-10 2c-2 1-2 2 0 6 1 2 2 2 3 2l3-1zm-30-10v-3c-1-1-1-2-1 0l-1 1-2-1c-1-2 0-3 1-3l1-1 2 2c1 4 1 4 3 2v-1l-4-3 4-1h-6l-4 3c-3 3-3 4-2 5h9zm-11-3c2-1 2-3 0-4h-1l1-2c2-1 3-1 3 1v1l1-1c-1-2-1-2 2-2l3-1h-3c-3-1-3-1-10 5l-3 2 2 1c1 2 4 2 5 0zm54-2v-4l-1-2c-1-2-3 1-3 3 0 3 2 5 4 5v-2zm44-1l1-3c1-1 1-2-1-2-2-2-2-1-3 3 0 4 0 5 2 4l1-2zm-105-2l-1-2h7l2-4c-1-1-1-1 0 0h1c0-2-3-2-9 2l-4 3 3 3c2 0 2 0 1-2zm27 1l-1-1v1l1 1v-1zm28 0h-1v1l1-1zm46-4l-1 1 1 1v-2zm-75 1h-1-1l1 1 1-1zm5-3c4-3 13-7 18-8l14-2c9-1 10-1 10-3l-1-3c-1-2-1-2-4-1-17 2-38 9-46 15l-1 2 3 1 4 2 3-3zm26 0l1-3h-4c-3 0-4 1-4 2 0 2 1 3 4 3 2 0 2 0 3-2zm28 0c0-2-3-3-3-1l-1 1-1-1c1-2 0-1-1 0 0 2 0 2 4 2 3 0 3 0 2-1zm67-1l-1-2-1-1c-1-2-1-3-2-2-2 1-1 3 2 4l2 2v-1zm-48-2c-2-3-3-3-4-2-2 1-2 1-1 2l4 1 3 1-2-2zm-91-3l1-2-1 1h-2c-2 0-3 1-2 3 0 1 2 1 4-2zm98-4v-1c-2 0-1-1 1-2l4-2 2-6c0-4 0-4-2-3l-4 1c-2 1-3 2-2 3l-1 2c-1 2-3 8-2 9l2 1 2-2zm-77-1l4-1-1-4-1-8c1-5 0-5-1-5l-1 6c0 5 0 5-3 9-4 4-4 6-2 5l5-2zm14-3l4-2 1-3c1-3 1-3-4-5l-7-1-4 1 1 4c0 5 1 8 3 7l6-1zm29-1c0-2-1-5-2-4v3c2 3 2 3 2 1zm64-4l-6-2c-2 1 1 3 5 3l1-1zm5 0v-4l-3-2v5c1 2 2 2 3 1zm-125-8v-5l-2 2c-2 2-3 6-2 8 1 0 3-2 4-5zm5 4c2-1 3-2 1-2l-5 2h4zm62-2c4 0 4-1 5-3l2-1c1 0 5-6 5-8l1-1 1-1-2-2h-3l1-1-1-1-1-2v-1l-2-2c-1-1-2-2-2 0 0 1-5 2-9 1l-7-2-5-1-2 4c-3 4-7 7-10 7l-2 1 2 1 1 2 1 5c2 4 2 4 6 5 6 2 10 2 14 1l7-1zm-7-2l2-1 2 1h-4zm-22 2v-3c-3-4-13-11-16-10s-3 7 0 9c4 3 12 5 16 4zm42 0l1-4a176 176 0 011-6l-5 6-2 1-2 1c0 2 5 3 7 2zm36-1c1-1 1-1-4-8l-3-5-1-2-2 3c-3 8-3 11 2 12 5 2 7 2 8 0zm-26-1c5-2 8-5 10-9 1-4 2-5 0-6s-3 0-7 2l-5 2c-1 0-5 7-5 11l-1 2 3-1 5-1zm31-6l1-4-1-12-4 1-3 1v4c0 4 1 8 3 10h4zM68 97l-2-6 1 12c1 3 1 3 2 1l-1-7zm5-6c0-18 0-21 7-28l4-5-2 6c-2 4-3 6-3 12v6l2 1c4 2 6 1 9-3 4-5 7-11 9-20 4-17 4-18 5-17v9c1 11 2 18 5 22 3 6 4 5 5-6v-8l2 4c2 4 4 5 8 6 2 1 2 0 3-1l1-4c0-2 0-2 1-1 2 2 3 0 2-6v-5l2 4c3 7 8 13 13 16s15 6 19 7h3v-3l-2-8-4-10 4 4 11 7 10 2-2-3-4-5-11-22a45 45 0 00-43-17h-5l2 2c4 2 3 3-1 1-5-3-9-4-14-3l-5 3-3 2c-2-1-10 2-13 4l-6 5c-3 4-9 13-12 21L60 73l-3 3h2c2 0 8-1 11-3 2 0 2 0 0 2l-2 10c0 8 1 9 2 15l3 6V91zm86 5l3-2h-3l-3-1-2 4-2 3 2-1 5-3zm-57 1v-2-1l-2-2-2-2 2 7c1 1 3 2 2 0zm7 0c4-1 5-2 3-4s-5-2-7-1-2 4 0 5h4zm41-1c2-2 2-3 0-5l-3-2c-3 0-5 2-3 3v2 2h6zm3-1l2-3v-3l-1 2-2 4c-2 2-1 2 1 0zm17-61c2-2 2-2 1-3s-3-1-5 1v2c1 2 2 2 4 0zm-78-4l6-2 6-3c4-1 6-2 13-2l15-1h7l1-2c1-2 2-4 1-5 0-3 0-3-2-4h-17l-6 4-5 2c-1-1-3 0-3 2h-3c-6-3-15 1-17 8-1 2-1 2-3 2-3 0-5 3-2 5 2 1 2 1 3-1l6-3zm72-4c2-1 3-1 1-3s-6-5-9-5l-4-1-2-1c-2 1-2 1-2 4 0 4 0 5 3 3 1-1 1-1 2 1 1 4 7 5 11 2z"/>
  <path fill="#9ca1a1" d="M125 249c-2-1-3-3-4-7l-6-25-2 1-3 1-3 1c-4 3-11 4-15 1l-3-1c-1 1-3 0-5-1l-5-2-8 10h-3l-7-14-1-3-6-3c-10-3-10-3-4-9 9-8 17-13 25-15 4-1 4-2 5-4l3-6c5-5 5-6 2-12-1-4-2-5-1-6l11-5 3-1-4-5-6-4-2-2-2 3-2 5c0 2-4 6-8 8-3 1-4 2-5 1l-4 2c-2 2-3 2-4 1h-4l-4-2c-4-2-11-8-13-11l-1-2 1-2 7-4c5-3 6-4 5-5l-1-5v-7c-2-3-1-6 2-10l3-2 3 1 2 1 2-2c2-3 2-3 1-6s-1-11 1-17l1-5-1-2-6 1-6-1c-1-1-1-1 1-3l11-12 15-25 2-2-1-2-2-3 5-4 3-4c3-5 7-7 14-7l7-1 3-1 5-3c5-3 7-4 14-4s12 2 16 5l4 1 4 1 3 2c4 0 13 7 13 9l2 4c4 3 4 5 1 8l-3 1 4 6 11 21c0 2 7 7 11 7 4 1 4 2 0 6l-5 4c-3 2-3 1-1 8 2 6 2 12 1 16l1 7 2 3 3-1c4-2 5-2 7 2 2 3 2 3 0 14l-2 6-2 4c-1 3-4 6-6 7-2 0-3 0-3-2l-2-1c-1 1-3-2-3-3 1-1 0-2-2-4l-2-4-2-2c-2-1-5-4-6-7l1-4c1-2 0-5-2-6l-4-3-2-1v2c1 5-1 9-4 13l-3 4-1 2c-1 1-2 1-1 3s0 3-2 7l-2 5c0 3 0 3 4 5l12 8-3 3c-2 1-3 2-3 4s1 3 5 3c2 0 6 3 6 5l1 2v4l1 6 3 1 3 2c1 1 2 2 1 3-1 3-1 3 2 5 3 3 9 11 11 16v5h-19l-3 4-3 6c-1 2-2 1-3-1l-3-6c-2-3-2-4-4-4l-5 1-5 1h-6l-5 1-4 1-2 8c-3 11-4 16-6 18l-4 1zm5-9l1-3-4-1-3-1v3c0 3 1 4 4 4l2-2zm-7-8l-1 3 1 2v-2-3zm10-5l1-7-2-2-2-1h-3c-1-1-1-1-2 4v14h4c2 0 2 0 4-8zm-9 0v-8l1-2h-4c-4 0-3 0-2 7l3 7 2-4zm55-11h14l-1-2c0-3-3-10-5-12s-3-2-7 2c-3 4-4 4-10 6l-4 3c-1 2 0 3 1 6 4 8 4 8 7 2 2-5 2-5 5-5zm-106 5c4-5 3-5 2-10l-4-6-3-2h-1c-2 2-3 7-3 10l5 12 4-4zm32-3l4-2 4-1h3c3 2 6 2 9 0h5l2 2c3 2 10 3 13 1 1-1 1-1-2-2l-10-3c-8-4-9-4-19-1-10 4-20 5-26 3-4-1-9-6-12-13l-3-5-2 1v4l2 2c3 1 5 3 5 6 0 2 3 6 6 6l3 2h2c1-1 2 0 3 1 2 2 9 1 13-1zm51-2c5 0 8-2 9-6 0-2 1-2 2-2h2l1-1c2 0 6-2 6-4l2-2v-3l-3 3-6 4-7 5c-3 3-8 6-12 6l-2 1h2l6-1zm-92-12c1-3 5-7 5-6l4-4 4-5 3-5c0-2-11 3-18 7l-14 12 13 5 3-4zm58-1v-4c-1-2-2-1-1 2 0 4 0 4-2 5l-2 1h2c2 0 3-1 3-4zm-14 1c1-1 0-3-3-3h-5c-4-1-5 0-3 2h3l6 1h2zm10-1l1-5-1-4-1 2c1 3 0 7-1 8-1 0-1 0 0 0l2-1zm-25-1c2-1 2-2 0-4l-8-6-1 1c0 1 0 6 2 8 1 2 4 2 7 1zm18-1h-2v1l2-1zm45-2l-1-2c-1-1-4 2-3 3l2 1 2-2zm3 0h-2l1 1 1-1zm-44-2c0-6 0-6-3-6l-3 1-2 1c-1 1-1 1 1 2 1 1 2 0 3-1l2-1v2l1 2 2 2-1-2zm40-3l-5 4c0 2 1 1 3-1l2-3zm-54 3v-3c-2-3-1-7 2-11 2-3 2-4 2-8l-1-7c0-2-1-2-2-1-1 0-5 1-7 3-10 5-13 12-10 19 2 4 4 5 8 7 5 3 8 3 8 1zm63 0l1-4 1-3 2-1h1c2 0 5-3 5-5s-1-2-2-1l-4 4c-3 2-8 9-8 11l4-1zm-33-2l2-3c2-2 2-3 3-2l3-1 4-2 5-2c2-1 3-2 4-1h1c2 0 3 1 3 2-1 2 0 5 2 5 3 0 2-5-3-7-2-2-3-2-7-1-5 1-11 3-17 7-5 4-6 5-5 6 0 1 1 1 5-1zm49-2h-1v2l1-2zm-75 0v-1l-1 1h1zm-1-2c2-3 1-3 8-2 3 1 6-1 6-5l-4-14-4-14c0-3-1-4-4-5l-4-2c-1 0-1 1 2 14 3 14 3 15 1 22l-2 6v-1l-1-1c-1 0-2 2 0 4 1 1 1 1 2-2zm24-1l8-4c8-4 16-6 21-4l-1-4c-2-6-4-10-7-11l-20 3-8 1-4 1 1 6 2 8c0 3 1 6 3 6l5-2zm40-5c2-1 4-4 4-6 0-3-8-8-13-10h-4c-1 1 0 2 2 7 1 4 3 6 5 8 3 3 4 3 6 1zm-82-11l2-2-2 1c-2 2-4 5-4 8 0 2 0 2 1-1l3-6zm88 5v-1l-1 1 1 1v-1zm-2-6l-2-1v1c2 2 3 2 2 0zm-76-6l4-3-3-1c-2 0-5 2-5 4l-2 2-2 2h2l6-4zm34 0l10-2c8-1 9-1 8-3 0-1 0-2-5-2h-29l1 3 1 4c0 2 10 1 14 0zm31-2l2-3c2-2 2-2 1-3l-10-6h-2l2 1 3 2v2c1 1-1 3-2 3-2 0-1 3 2 4h4zm-67-3l1-2c-1-4-1-4 1-5l2-2-10 2c-2 1-2 2 0 6 1 2 2 2 3 2l3-1zm-29-11l2-2v-1l-3-2-1-2h3l-5-1-4 4c-3 3-3 4-2 5s8 1 10-1zm-3-2h1v1l-1-1zm-12 2l1-1 3-1 1-4v-2l1 2c0 2 1 1 1-1 1-2 1-2 3-2 3-1 3-1-1-1-3-1-3-1-7 2l-5 4-1 2 2 1 2 1zm57-5c-1-6-1-7-4-4v4c1 2 2 3 4 3v-3zm44 0l1-3v-2c-3-2-3-2-4 4 0 3 0 4 1 3 1 0 2 0 2-2zm-105 0v-2c0-1 1-2 3-1 2 0 5-2 5-4 0 0 0-1 0 0l1-1-1-2c-2 0-12 6-12 7l3 3h1zm54 0l1-1-1-1h-1v1c0 2 0 2 1 1zm-27-2c-1-3-1-3-3-2v1l1 2 1 1 1-2zm74-3v0zm-66-1l7-6 22-3c11-1 11-1 11-4l-1-4c-1-2-3-2-11-1-18 4-35 10-41 15-2 2-2 3-1 3h2l2 1c2 0 3 0 3 2l2 1 5-4zm-16 2h-1c-1 0-1 0 0 0h1zm38-3l1-3h-4c-3 0-4 1-4 2 0 2 1 3 4 3 2 0 2 0 3-2zm28 0c0-2-3-3-3-1l-1 1-1-1v-1h-1v2l3 1c4 0 4 0 3-1zm67-1l-1-2-1-1c-1-2-1-3-2-2-2 1-1 3 2 4l2 2v-1zm-48-2c-2-3-3-3-5-2l-1 2 5 1 3 1-2-2zm-91-3l1-2-1 1h-2c-2 0-3 1-2 3 0 1 2 1 4-2zm98-4v-1c-2 0-1-1 1-2l4-2 2-6c0-4 0-4-2-3-4 1-7 2-6 3l-1 3c-3 4-3 11 0 10l2-2zm-77-1l4-1-1-4-1-8c1-5 0-5-1-5l-1 6c0 5 0 5-3 9-4 4-4 6-2 5l5-2zm14-3l4-2 1-3c1-2 1-2-1-4-4-2-8-2-11-2l-3 1v4c1 5 2 8 4 7l6-1zm29-1c0-2-1-5-2-4v3c1 3 2 3 2 1zm64-4l-6-2c-2 1 1 3 5 3l1-1zm5 0v-4l-3-2v5c1 2 2 2 3 1zm-58-6c4 0 5-1 5-2s1-2 3-2l1-1c0-2 3-5 5-6s3-2 1-2c-1 0-2-1 0-1v-2l2-1c3-1 4-3 4-8v-3l-1 3-2 5-1 1c2-2-1-5-4-6-3 0-5 2-3 3v2c-1 1-1 1 1 2h3c2 0 2 0 1 1s-3 1-5-1l-2-2c1-1 1-2-1-2l-2-2c0-3-1-3-2-3l-3-2c-1-2-3-2-3 1v4l-7-4-7-3c-2 0-3 4-2 7 1 4-3 9-9 9-2 0-5-3-4-4v-1c-2-1-4-7-3-9h-1v5c0 4 1 8 3 8l1 2 2 5 4 6c1 3 1 3 4 4 7 3 10 3 13 1l9-2zm-7-2h2-2zm-60 0v-5l-2 2c-2 2-3 6-2 8 1 0 3-2 4-5zm5 4c2-1 3-2 1-2l-5 2h4zm33-2v-3c-3-4-13-11-16-10s-3 7 0 9c4 3 12 5 16 4zm42 0l1-4a176 176 0 011-6l-5 6-2 1-2 1c0 2 5 3 7 2zm36-1c1-1 1-1-4-8l-3-5-1-2-2 3c-3 8-3 11 2 12 5 2 7 2 8 0zm-26-1c5-2 8-5 10-9 1-4 2-5 0-6s-3 0-7 2l-5 2c-1 0-5 7-5 11l-1 2 3-1 5-1zm31-6l1-4-1-12-4 1-3 1v4c0 4 1 8 3 10h4zM68 97l-2-6 1 12c1 3 1 3 2 1l-1-7zm5-6c0-18 0-21 7-28l4-5-2 6c-2 4-3 6-3 12v6l2 1c4 2 6 1 9-3 4-5 7-11 9-20 4-17 4-18 5-17v9c1 11 2 18 5 22 3 6 4 5 5-6v-8l2 4c2 4 4 5 8 6 2 1 2 0 3-1l1-4c0-2 0-2 1-1 2 2 3 0 2-6v-5l2 4c3 7 8 13 13 16s15 6 19 7h3v-3l-2-8-4-10 4 4 11 7 10 2-2-3-4-5-11-22a45 45 0 00-43-17h-5l2 2c4 2 3 3-1 1-6-4-14-4-18 0l-5 2c-4 0-10 2-14 6-4 3-10 12-15 21L60 73l-3 3h2c2 0 8-1 11-3 2 0 2 0 0 2l-2 10c0 8 1 9 2 15l3 6V91zm86 5l3-2h-3l-3-1-2 4-2 3 2-1 5-3zm-49 1c3-1 3-2 2-4-3-3-9-2-9 2 0 3 3 4 7 2zm32-17l-3 1h1l2-1zm-35 0l-1-2c0-2-2-4-3-4l-3 5 4 2h3v-1zm33-1v-1h-1l1 1zm-36-6l-1-1 1 1c1 1 1 1 0 0zm67-39c2-2 2-2 0-3-1-1-2-1-4 1-2 1-2 1-1 2 1 2 2 2 5 0zm-84-1c2-2 7-5 11-5l6-3c4-1 6-2 13-2l15-1h7l1-2c1-2 2-4 1-5 0-3 0-3-4-4l-9-1c-6 0-10 2-13 5-2 2-2 3-4 2s-3 0-3 2l-1 1-3-1c-7-2-14 1-16 7-1 3-1 3-3 3l-3 1v3l2 2 3-2zm77-7l2-1c0-3-6-7-10-7l-4-1-2-1c-2 1-2 1-2 4 0 4 0 5 3 3 1-1 1-1 2 1 1 4 7 5 11 2z"/>
  <path fill="#c18d73" d="M125 248c-2-1-3-3-4-7 0-4-5-23-6-23h-2l-3 1-4 1c-4 3-12 3-14 1l-3-1h-3l-2-1-3-1c-2-1-2-1-4 1l-5 6-3 3-8-16c-1-2-1-2-7-4-8-3-9-4-8-6l18-14 12-6c3 0 3-1 4-3l3-5c5-6 5-8 2-14l-2-4 2-1c1-2 8-5 10-5 3 0 3 0 2-3l-2-2-5-4-4-3-2 3-3 5c0 2-3 7-5 7l-3 1c0 1-3 2-4 1l-3 1c-3 3-4 3-6 2h-3c-2 1-11-6-16-12l-2-3 1-2 7-4 5-5v-5l-1-7c-2-4-1-7 2-10l3-3 2 2 3 2 2-3 2-5c-2-2-2-12 0-16l1-6 1-4-2 1-6 1-5-1c-2-2-2-2 1-3 4-3 8-8 11-14l13-21 3-4-2-2v-4l3-3 3-2 3-4c4-4 8-6 14-5l5-1 4-1 5-3c5-3 8-4 16-3 5 0 12 3 14 5h2l4 1 6 3c4 1 9 5 10 8l3 4 3 4-2 4-3 2 3 3 10 21 3 5 10 5 2 1c1 1 1 1-2 4l-5 4-2 2 1 5c2 7 2 13 1 18-1 4-1 4 1 6l2 2h3c4-2 4-1 7 2 2 3 2 6 1 8l-1 6c0 3 0 4-2 6l-2 3c0 2-2 5-4 6-3 2-4 2-6 0l-1-1c-1 1-3-1-3-3 1-1 0-2-1-4l-3-3-1-2-6-8v-4l1-3c0-2-1-2-3-3l-5-3-2-2v2l1 3c1 2-2 8-4 11l-3 3-1 2-1 5c0 2 0 3-2 5l-2 5v3 1c2 0 11 6 13 8l3 2-4 3c-2 2-3 3-2 4 1 2 1 3 4 3s5 2 7 6c2 3 2 4 1 5l1 6 3 1c3 1 4 2 4 5-1 3-1 3 2 5s8 10 11 16v5h-3l-14-1-5 6-3 6c-1 0-3-1-3-3l-3-6-3-4-2 1-5 1-11 1-5 1h-4l-1 8c-3 13-6 20-8 20l-2-1zm5-8l1-3-4-1-3-1v3c0 3 1 4 3 4s2 0 3-2zm-7-6l-1-2v3c1 2 1 1 1-1zm10-7l1-7-2-2-2-1h-3c-1-1-1-1-2 4v14h4c2 0 2 0 4-8zm-9 0v-8l1-2h-4c-4 0-3 0-2 7l3 7 2-4zm53-11h18l-2-5-9-12c-4-3-5-3-4 0l-1 3c-4 5-6 6-7 6l-2 1-2 1-2 2c-1 3-1 3 3 11l2 4 2-5 4-6zm-102 2c3-3 3-3 2-5l-1-4-2-2c-5-4-6-7-3-9l3-4 5-6 2-4c0-1-8 1-14 4l-17 13-2 2 7 3c7 2 8 3 8 5l3 8 3 6 2-2 4-5zm26 2l5-3 4-1 3-1h3c1 1 6 2 9 1l3-1 2 1h2c3 3 9 4 13 2l7-1c10-1 11-1 13-6l2-3h2l2-1c2 0 5-2 5-4l1-2c2 0 2-2 1-3v-2l3-2v-3c-2-1-3 0-4 3-2 7-3 9-8 11l-7 4c-4 5-7 6-17 6-8 0-8 0-11-2l-10-4-11 3c-8 3-9 3-16 3-10 1-12 0-17-6l-5-9-2-4-1 2c-3 2-2 4 1 6s4 3 4 6c1 3 4 7 8 7l2 1h2l4 1c3 2 4 2 8 1zm21-16v-6l-2 1 1 2-1 4-2 1h-2l3 1c3 0 3 0 3-3zm-14 0h2l-2-1-5-2-3-1 3-1h1l-2-2-1-3v-6c4-1 5-10 4-17-1-6-2-6-8-3s-9 6-12 10l-1 7v4h-1l1 1c1-1 2 0 2 1l5 5 4 3-8-6-3-2v1c-1 2 1 8 2 9 1 2 3 2 6 2h7l3 1 3 1 3-1zm11-1l-2-9v4c0 5 0 5-2 5-3 1-3 1 0 1l4-1zm-8-1c2-1 1-1 0-1-2 0-2 0-2-2v2l2 1zm44-2v-4l-1 1v-1c3-3 3-3 1-4l-1-4c0-3-2-3-5-1l-2 2 1 5 3 5c1 0 1 0 0 0l2 3 2-2zm3 0l3-1c3-1 4-3 4-6 0-2 1-2 2-2l1-1 2-1c1 0 4-3 4-5 0-3-1-3-2-1l-4 4-6 6-4 5c-1 1-3 3-1 3l1-1zm-43-4v-4l-4-1c-3 0-4 1-5 2l2 2c1 1 2 0 4-1 1-1 1-1 0 0l-1 2 4 3v-3zm16 0l3-4c1-2 1-3 2-2l4-2 3-1 5-1c2-2 3-2 5-2 2 1 2 1 2 3 0 4 2 6 3 5 3-2 2-4 0-6-3-3-6-4-12-3-5 1-8 3-17 9l-7 4v1l9-1zm31-4l5-5c3-3 5-5 5-8s-1-3-6-6c-3-3-14-8-15-8l2 4 2 4-3-3-3-4-12 2a80 80 0 01-21 2l1 5 2 12a1182 1182 0 001 8l12-6c8-6 16-8 21-7l4 1c1 1 1 1 1-1-1-3 0-2 1 1l2 5c0 2 0 4-3 8h1l3-4zm-57 1v-1l-1 1h1zm-1-2c2-3 1-3 8-2 3 1 6-1 6-5l-4-14-4-14c0-3-1-4-4-5l-4-2c-1 0-1 1 2 14 3 14 3 15 1 22l-2 6v-1l-1-1c-1 0-2 2 0 4 1 1 1 1 2-2zm-19-14c2-3 8-8 12-10l4-2c1-1-1-2-4-2s-6 3-6 5l-1 1-2 2-2 2c-3 3-4 5-4 9v3l1-3 2-5zm89 3v-2l-1 1 1 1zm-2-6c0-1-3-3-4-2l2 2h2zm-39-7a141 141 0 0018-4v-3c1-2 1-2-1-4-2-1-3-1-3 1h2v2h-16l-18 1c-2 0-2 0-2 2 1 4 3 6 5 6 3 1 5 1 15-1zm31-5c2-2 2-2 1-3-4-3-9-6-13-7-4 0-6 0-3 1 4 3 4 4 4 7-1 4 0 5 5 7l3 1v-2l3-4zm-66 0h4l-2-9c-1-1-10 0-13 2-1 1-1 2 1 6l2 5 2-2 6-2zm-31-12c2-2 3-3 2-4v-1l1-1h-4c-5-1-7 0-11 5l-1 2 1 2h3 2l3 1 1-1 3-3zm-15 2l2-3a2753 2753 0 0010-7h2l-3-1c-5-1-7-1-10 1l-7 7 3 2c3 2 4 3 3 1zm56-7a188 188 0 00-3-10v-2h-6c-6 1-7 1-5 2l2 2v2c0 1 4 3 6 2l1 2c-1 2 1 5 3 6l3 1-1-5zm44 2l-1-2 1-2c2-2 1-3-1-4-3 0-3 1-3 6 0 3 0 3 2 3l2-1zm-102-4l5-4h3l-1-2-5-1-10 7c-1 1 2 4 4 4l4-4zm50 3l1-1-1-1h-1v1c0 2 0 2 1 1zm47-5v0zm-74 3c-1-3-1-3-3-2v1l1 2 1 1 1-2zm8-4l7-6 22-3c11-1 11-1 11-4l-1-4c-1-2-3-2-11-1-18 4-35 10-41 15-2 2-2 3-1 3h2l2 1c2 0 3 0 3 2l2 1 5-4zm51-1l-1-2-6-3-1 3v3h4l4-1zm-6-1h2c1 1 0 1-1 1l-1-1zm72 0l-1-2-2-2c0-2 0-2-2-1-1 1 0 3 3 5l2 2v-2zm-46 0l-2-2-1-2c-1-2-2-2-4 0-2 1-2 1 0 2l3 2h4c1 1 1 1 0 0zm3-3c-2-3-1-3 0-4 2 0 2 0 2-2l1-3c3 0 6-4 6-7v-7l-4 2-5 2c-2 0-2 1 0 2v3h-1l-1-3c-2-1-2 0-1 3s0 8-2 10l-1 1a245 245 0 006 5v-2zm-93-5c0-1-2-1-3 1l-2 1-2 1v2c1 1 2 0 4-2l3-3zm45 3h-1l1 1v-1zm-26-5c2-1 3-1 2-2v-9l-2-7-1 3v4c1 1 0 4-3 7l-3 6v1l2-1 5-2zm42-5c0-2-2-4-3-3l1 3 2 4v-1-3zm-28 2a270 270 0 0112-5c1-2 0-3-7-4-6-1-11-3-14-5-1-1-1-1-2 2l1 11c1 3 1 3 10 1zm92-4c0-2-7-5-8-3s1 3 8 4v-1zm5-1c1-2-1-7-3-7v6c1 2 2 2 3 1zm-74-1l-5-1 1 1h4zm16-5c4 0 5-1 5-2s1-2 3-2l1-1c0-2 3-5 5-6s3-2 1-2c-1 0-2-1 0-1v-2l2-1c3-1 4-3 4-8v-3l-1 3-2 5-1 1v-4l-4-2c-3 0-6 2-4 3v2l4 3c1 0 1 0 0 0l-3-1-2-2v-2c-1 1-2-1-2-2-2-3-2-4-3-3-1 0-2 0-3-2s-3-2-3 1v4l-7-4-7-3c-2 0-3 4-2 7 1 4-3 9-9 9-2 0-5-3-4-4v-1c-2-1-4-7-3-9h-1v5c0 4 1 8 3 8l1 2 2 5 4 6c1 3 1 3 4 4 7 3 10 3 13 1l9-2zm-7-2h2-2zm-62 4c2-3 3-8 2-9l-2 2c-2 2-2 3-2 5 0 3 1 4 2 2zm8-1c3-1 3-2 2-2l-7 3c-1 1 2 1 5-1zm76-5l2-6c1-3-5 2-7 5l-2 2c-2 0-3 2-2 3l7 1 2-5zm35 3l-3-6-5-8-2-2-2 5-1 10 12 3c2 0 2 0 1-2zm-78 1c1-1-1-5-4-7-2-3-10-7-12-7-3 0-4 2-4 6 0 3 1 4 3 5l5 2 12 1zm55-4l5-4c3-3 4-9 4-11-1-2-1-2-3-2l-5-1c-4-1-5-1-6 1l-3 5c-2 2-2 3 2 1 3-1 4-1 1 1-3 1-6 7-7 12v2l4-1 8-3zm-88 0l-1-2c-1-1-1 0-2 2 0 1 0 2 2 1l1-1zm114-3c2-1 2-2 2-6l-1-12-4 1-4 1 1 6a20 20 0 004 12l2-2zM68 96l-2-7v9l1 6 1 3 1-3-1-8zm5 0c0-14 3-26 8-33 2-5 3-4 0 3-4 9-2 24 5 28l6 2 5 2-1-3c-1-3 0-13 2-21 3-11 5-18 5-24 0-5 0-5 1-2l1 12c1 7 3 15 6 21l1 3 1-4 1-12 1-7 1 5c1 10 3 13 9 18l4 2v-6-10c0-6 1-5 2 1l3 8 1 4v-6a71 71 0 00-3-21l3 8c0 2 3 7 7 11s10 8 18 10c4 2 13 3 13 2 1-2-3-15-6-20-4-5-1-4 3 2 5 5 8 7 15 7h8l3-1h-2c-6-3-11-7-13-12l-5-12c-4-7-5-9-10-14-10-10-21-14-35-13l-8 1c-2 1-2 1 1 2l2 2-2-1c-3-2-8-3-11-3s-9 2-10 4h-2l-11 3c-6 3-12 11-20 27L59 74l-2 3 11-3c2-1 3-1 2 1-3 2-2 17 0 26l3 5V96zm37 1c3-1 4-3 2-5-3-3-8-2-9 2 0 4 3 5 7 3zm32-17l-3 1h1l2-1zm-35 0l-1-2c0-2-2-4-3-4l-3 5 4 2h3v-1zm33-1v-1h-1l1 1zm-36-6l-1-1 1 1c1 1 1 1 0 0zm66-38c3-2 3-4-1-5l-2-4c-2-4-6-7-10-8l-4-2h-3c-2 0-3 0-5-2-8-6-23-6-29 1l-5 1-3 2H98c-6 2-8 3-10 8-1 3-2 3-4 3l-2 1c-1 1-1 2 1 3l1 2 4-3c4-2 9-4 13-4l3-1c2-2 6-3 12-3l11-1c14-2 28 2 37 11l4 3 2-2z"/>
  <path fill="#79899c" d="M125 248c-2-1-3-3-4-7 0-4-5-23-6-23h-2l-3 1-4 1c-4 3-12 3-14 1l-3-1h-3l-2-1-3-1c-2-1-2-1-4 1l-5 6-3 3-8-16c-1-2-1-2-7-4-8-3-9-4-8-6l18-14 12-6c3 0 3-1 4-3l3-5c5-6 5-8 2-14l-2-4 2-1c1-2 8-5 10-5 3 0 3 0 2-3l-2-2-5-4-4-3-2 3-3 5c0 2-3 7-5 7l-3 1c0 1-3 2-4 1l-3 1c-3 3-4 3-6 2h-3c-2 1-11-6-16-12l-2-3 1-2 7-4 5-5v-5l-1-7c-2-4-1-7 2-10l3-3 2 2 3 2 2-3 2-5c-2-2-2-12 0-16l1-6 1-4-2 1-6 1-5-1c-2-2-2-2 1-3 4-3 8-8 11-14l13-21 3-4-2-2v-4l3-3 3-2 3-4c4-4 8-6 14-5l5-1 4-1 5-3c5-3 8-4 16-3 5 0 12 3 14 5h2l4 1 6 3c4 1 9 5 10 8l3 4 3 4-2 4-3 2 3 3 10 21 3 5 10 5 2 1c1 1 1 1-2 4l-5 4-2 2 1 5c2 7 2 13 1 18-1 4-1 4 1 6l2 2h3c4-2 4-1 7 2 2 3 2 6 1 8l-1 6c0 3 0 4-2 6l-2 3c0 2-2 5-4 6-3 2-4 2-6 0l-1-1c-1 1-3-1-3-3 1-1 0-2-1-4l-3-3-1-2-6-8v-4l1-3c0-2-1-2-3-3l-5-3-2-2v2l1 3c1 2-2 8-4 11l-3 3-1 2-1 5c0 2 0 3-2 5l-2 5v3 1c2 0 11 6 13 8l3 2-4 3c-2 2-3 3-2 4 1 2 1 3 4 3s5 2 7 6c2 3 2 4 1 5l1 6 3 1c3 1 4 2 4 5-1 3-1 3 2 5s8 10 11 16v5h-3l-14-1-5 6-3 6c-1 0-3-1-3-3l-3-6-3-4-2 1-5 1-11 1-5 1h-4l-1 8c-3 13-6 20-8 20l-2-1zm5-8v-4c-1 0-1 0 0 0l1-1a247 247 0 013-15c0-2-2-3-6-4-2 0-2 0-3 3 0 2 0 2 0 0s0-2-4-2l-3 1a126 126 0 005 18v-1c0-5 0-6 1-3v6 3l3 1c2 0 2 0 3-2zm-6-15v-1 1zm53-9h18l-2-5-9-12c-4-3-5-3-4 0l-1 3c-4 5-6 6-7 6l-2 1-2 1-2 2c-1 3-1 3 3 11l2 4 2-5 4-6zm-106 8l4-6c3-3 3-3 2-5l-1-4-2-2c-5-4-6-7-3-9l3-4 5-6c3-4 3-5-4-3s-18 9-25 16l-2 2 6 3 8 2 1 4 6 13 2-1zm30-4l5-3 4-1h7c3 1 5 1 8-1h3l2 1 3 1c2 2 8 3 11 1l8-1 8-1c2 0 4-3 5-6 0-1 1-2 2-1l2-1 2-1c2 0 5-2 5-4l1-2c2 0 2-2 1-3v-2l3-2v-3c-2-1-3 0-4 3-2 7-3 9-8 11l-7 4c-4 5-7 6-17 6-8 0-8 0-11-2l-10-4-11 3c-8 3-9 3-16 3l-11-1c-3-1-9-9-11-14l-2-4-1 2c-2 1-2 2-1 3l2 3c2 1 4 3 4 5 0 3 5 8 8 8l2 1h2l4 1c3 2 4 2 8 1zm22-17l-1-5-2-1 1 4-1 4-2 1h-2l3 1h3zm-15 1h2l-2-1-5-2-3-1 3-1h1l-2-2-1-3-1-2 1 1 2 1 1-3c1-2 3-3 4-2l3 1 5 1h2c1-1 0-10-4-22-4-18-4-17-6-18l-4-3c-5-4-5-1 0 16v3c-2-2-2-1-7 1-6 3-11 7-12 11-3 6 0 13 7 17l3 3c-1 1-9-5-10-9l-2-1v1l1 4c0 7 3 10 8 9h7l3 1 3 1 3-1zm-8-15l1-1c3 0 4-4 5-10v-3c1 6-1 12-4 14h-2zm5-19v-1 1zm13 34c2-1 1-10-1-10v4c0 5 0 5-2 5a4365 4365 0 003 1zm-7-2c2-1 1-1 0-1-2 0-2 0-2-3l1-3h1c0 1 4 5 5 4l-2-7-4-1c-4 0-5 2-3 4l1 3v3l3 1zm44-1l1-3c0-2-1-2-2-1l1-2 2-2-2-1-1-4c0-3-2-3-5-1l-2 2 1 5 5 8 2-1zm3-1l3-1c3-1 4-3 4-6l2-2 1-1 2-1c2 0 4-3 4-6v-3l1-2c-1-1-2 0-2 2-1 3-2 5-6 8l-5 5-4 5c-1 1-3 3-1 3l1-1zm-27-4l3-4c1-2 1-3 2-2l4-2 3-1 5-1c2-2 3-2 5-2 2 1 2 1 2 3 0 4 2 6 3 5 5-3-1-10-7-10s-11 3-22 10l-7 4v1l9-1zm31-4l5-5c3-3 5-5 5-8s-1-3-6-6c-3-3-14-8-15-8l2 4 2 4-3-3-3-4-12 2a80 80 0 01-21 2l1 5 2 12a1182 1182 0 001 8l12-6c8-6 16-8 21-7l4 1c1 1 1 1 1-1-1-3 0-2 1 1l2 5c0 2 0 4-3 8h1l3-4zm-56 0l1-1v-1c0-1-1-1-2 1v3l1-2zm-21-15c2-3 8-8 12-10 5-2 5-3 2-3-4-1-6 0-7 2l-3 3-1 2-3 3c-2 2-3 3-3 5-1 4 0 7 1 3l2-5zm87-3c0-1-3-3-4-2l2 2h2zm-39-7a141 141 0 0018-4v-3c1-2 1-2-1-4-2-1-3-1-3 1h2v2h-16l-18 1c-2 0-2 0-2 2 1 4 3 6 5 6 3 1 5 1 15-1zm31-5c2-2 2-2 1-3-4-3-9-6-13-7-4 0-6 0-3 1 4 3 4 4 4 7-1 4 0 5 5 7l3 1v-2l3-4zm-66 0h4l-2-9c-1-1-10 0-13 2-1 1-1 2 1 6l2 5 2-2 6-2zm-34-9l3-4 3-3c0-2 0-2-5-3-4 0-4 0-7 3s-3 2 0-2c2-2 3-2 6-2h2l-3-1-5-1c-2 0-7 3-10 6l-2 3 3 2c2 2 4 3 3 1l1-2h1c0 1 0 2 2 3 2 2 3 2 2 0h2l2 1c0 2 0 1 2-1zm13-4c2-1 2-3 1-2h-1v1l-1-1 10-11c2-2 8-3 7-2l1 1 2 2v2c0 1 4 3 6 2l1 1-2 2-2 1c0 2 0 2 2 1 1-1 1-1 2 1l4 3c2 1 2 0 1-5l-3-10c0-2 0-2-4-2h-3l4-1 11-1c9-1 9-1 9-5-1-2-1-2 0 0h1v-3c0-2-2-4-3-3l-1 1a147 147 0 00-43 11l-9 6-2 2v1l3 1 1 1 2 2 2 2v-4l-1-2 2 6v4c0 1 2 0 3-2zm-9-8v-1l2 1v1l-2-1zm27-8h1-1zm57 14l-1-2 1-2c2-2 1-3-1-4-3 0-3 1-3 6 0 3 0 3 2 3l2-1zm-100-5c4-3 5-4 7-3 3 1 2 0-2-2s-4-2-12 3c-4 3-4 3-2 5s2 2 9-3zm95-1v0zm-15-1v-2l-7-4-1 3c0 3 0 3 2 3h6zm-6-2h2l-1 1-1-1zm72 0l-1-2-2-2c0-2 0-2-2-1-1 1 0 3 3 5l2 2v-2zm-45 0l-2-2-2-2-1-1-4 2 4 3h5zm2-3c-2-3-1-3 0-4 2 0 2 0 2-2l1-3c3 0 6-4 6-7v-7l-4 2-5 2c-2 0-2 1 0 2v3h-1l-1-3c-2-1-2 0-1 3s0 8-2 10l-1 1a245 245 0 006 5v-2zm-93-5c0-1-2-1-3 1l-2 1-2 1v2c1 1 2 0 4-2l3-3zm45 3h-1l1 1v-1zm-26-5c2-1 3-1 2-2v-9l-2-7-1 3v4c1 1 0 4-3 7l-3 6v1l2-1 5-2zm14-3a270 270 0 0112-5c1-2 0-3-7-4-6-1-11-3-14-5-1-1-1-1-2 2l1 11c1 3 1 3 10 1zm92-4c0-2-7-5-8-3s1 3 8 4v-1zm5-1c1-2-1-7-3-7v6c1 2 2 2 3 1zm-74-1l-5-1 1 1h4zm8-3l5-2 8-1c0-2 2-3 3-3l1-2 7-6c2 0 2-1 0-1-1-1-1-1 1-3h2c-2 2-2 3 2 1 3-1 4-1 1 1-3 1-6 7-7 12v2l4-1c6-1 10-4 13-7s4-9 4-11c-1-2-1-2-3-2l-5-1h-5l-1 2c-1 1-1 1-1-1v-7 2l-1 3-1 2-2-2-4-2c-3 0-3 1-5 2l-1 2-1-3-1-3-2-1c-2 0-2 0-4-3l-2-3v4c0 5 0 6-4 4s-10-7-10-9l-1-1-1 10-2 8h-1v-4c-3-3-9-1-9 3a550 550 0 003 3l1 1c-2 0-5-2-5-3 1-1 0-2-1-3l-2-5c-1-5-2-4-1 1 0 5 3 12 5 15l4 6 3 5 11 3 5-2zm2-4h1-1zm18-15h1-1zm-3-1c-1-2-1-2 1-1v2l-1-1zm-78 20c2-3 3-8 2-9l-2 2c-2 2-2 3-2 5 0 3 1 4 2 2zm8-1c3-1 3-2 2-2l-7 3c-1 1 2 1 5-1zm76-5l2-6c1-3-5 2-7 5l-2 2c-2 0-3 2-2 3l7 1 2-5zm35 3l-3-6-5-8-2-2-2 5-1 10 12 3c2 0 2 0 1-2zm-78 1c1-1-1-5-4-7-2-3-10-7-12-7-3 0-4 2-4 6 0 3 1 4 3 5l5 2 12 1zm-33-4l-1-2c-1-1-1 0-2 2 0 1 0 2 2 1l1-1zm114-3c2-1 2-2 2-6l-1-12-4 1-4 1 1 6a20 20 0 004 12l2-2zM68 96l-2-7v9l1 6 1 3 1-3-1-8zm5 0c0-14 3-26 8-33 2-5 3-4 0 3-4 9-2 24 5 28l6 2 5 2-1-3c-1-3 0-13 2-21 3-11 5-18 5-24 0-5 0-5 1-2l1 12c1 7 3 15 6 21l1 3 1-4 1-12 1-7 1 5c1 10 3 13 9 18l4 2v-6-10c0-6 1-5 2 1l3 8 1 4v-6a71 71 0 00-3-21l3 8c0 2 3 7 7 11s10 8 18 10c4 2 13 3 13 2 1-2-3-15-6-20-4-5-1-4 3 2 5 5 8 7 15 7h8l3-1h-2c-6-3-11-7-13-12l-5-12a45 45 0 00-45-27l-8 1c-2 1-2 1 1 2l2 2-2-1c-3-2-8-3-11-3s-9 2-10 4h-2c-2 0-11 3-14 6-4 2-10 11-17 23-4 8-7 11-11 16l-2 3 11-3c2-1 3-1 2 1-3 2-2 17 0 26l3 5V96zm69-16l1-1-5 3-1 2 2-1 3-3zm-33 1l-1-3-1-2a339 339 0 00-4-3c3 2 3 2 3-1l-1-5-1-4-1 3-5 13v2h4l6 1c2 0 2 0 1-1zm32-4c-1-1-3 1-3 2h2c1 0 2-1 1-2zm-2-2l-1-2h-1l1 3 1-1zm31-40c3-2 3-4-1-5l-2-4c-2-4-6-7-10-8l-4-2h-3c-2 0-3 0-5-2-4-3-11-5-17-4-6 0-9 1-12 4-2 2-3 2-5 2l-3 2h-4c-2-1-8 0-11 2l-5 5c-1 4-2 4-4 4l-2 1c-1 1-1 2 1 3l1 2 4-3c4-2 9-4 13-4l3-1c2-2 6-3 12-3l11-1c14-2 28 2 37 11l4 3 2-2z"/>
  <path fill="#986a60" d="M126 249c-3-1-4-4-5-8l-3-14c-2-8-3-9-4-9h-3l-4 2c-4 3-12 3-15 1l-3-1c-1 1-2 0-7-3-3-1-4 0-9 6l-4 5-7-14-2-5-6-2-8-3 3-4c8-8 18-15 26-17 4-1 4-1 5-4l3-5 4-5c1-2 1-2-1-7l-2-7c1-1 7-4 10-4l4-1-4-5-5-4-3-3-2 3c-2 2-3 3-3 5s-3 7-5 7l-3 1c0 1-3 2-4 1l-4 1c-2 2-3 3-4 2h-3l-4-1c-4-2-10-7-12-11l-3-3 1-2 7-4 5-5-1-6v-7c-2-2 0-6 2-9 3-3 4-3 7 0l1 1 2-3 2-2-1-4c-1-4-1-10 1-15l1-6v-4l-2 1H54l-2-2 3-2c4-2 9-8 13-16 3-6 12-21 14-22l-1-2c-2-3-2-3-1-4l3-3c2 0 3-1 3-2l4-5c4-3 8-5 13-4l5-1 4-1 4-2c4-3 6-4 12-4 6-1 12 0 16 3l6 2 3 1 3 2c4 0 11 5 13 9l3 4 3 4-2 4-3 2 3 3 10 20 4 6 9 5 2 1c1 1 1 1-1 3s-4 4-6 4c-3 2-3 2-1 7 2 6 2 14 1 18l-1 5 2 2 2 3 3-1 3-1 3 2c2 2 3 6 2 9l-1 6c0 4-2 7-3 6l-1 2c0 2 0 3-3 6s-5 4-7 1l-2-1c-1 0-2-1-2-3 1-2 0-3-1-4l-3-3-3-4-4-5v-5l1-3c0-2-1-2-3-3l-5-3-2-1c2 5 1 11-3 15l-3 3-1 2-1 5c0 2 0 3-2 5l-2 5v3c-1 1-1 1 1 2 3 0 9 4 12 7l3 2-4 3c-3 3-3 3-2 5 1 1 1 2 3 2 4 0 6 1 8 6 2 3 2 4 1 5s0 4 1 6l3 1 3 1v6l2 3c4 2 8 8 11 15 2 4 2 5 1 6l-2 1-14-2-4 1-2 4-3 6-2 1-1-2-3-6-3-5-2 1-5 1-11 1-5 1-4 1a166 166 0 01-7 26l-3 1zm4-9v-4c-1 0-1 0 0 0l1-1a247 247 0 013-15c0-2-2-3-6-4-2 0-2 0-3 3 0 2 0 2 0 0s0-2-4-2l-3 1a126 126 0 005 18v-1c0-5 0-6 1-3v6 3l3 1c2 0 2 0 3-2zm-6-15v-1 1zm53-9h15c4 1 4 2-1-8-3-5-4-7-7-9-4-2-5-3-4 0 0 2-6 9-8 9l-2 1-2 1-2 2c-1 3-1 3 3 11l2 4 2-5 4-6zm-106 8l4-6c3-3 3-3 2-5l-1-4-2-2c-5-4-6-7-3-9l3-4 5-6c3-4 3-5-4-3s-18 9-25 16l-2 2 6 3 8 2 1 4 6 13 2-1zm30-4l5-3 4-1h7c3 1 6 1 8-1h3l2 1h2c0 2 5 3 8 3l5-1 9-1c7-1 9-1 11-6 1-2 1-3 2-2l2-1 1-1c2 1 6-2 6-4l1-2 1-3c-1 0 0-2 2-3 2-2 2-4 0-4-1 0-2 0-3 3l-2 7-6 4-6 3c-3 6-7 7-17 8h-7l-4-2-11-5-11 3c-9 3-10 3-17 3l-10-1c-3-1-9-9-11-14l-2-4-1 2c-2 1-2 2-1 3l2 3c2 1 4 3 4 5 0 3 5 8 8 8l2 1h2l4 1c3 2 4 2 8 1zm22-17l-1-5-2-1 1 4-1 4-2 1h-2l3 1h3zm-15 1h2l-2-1-4-2-3-1c-2 0-1-1 2-1h1l-2-2-1-3-1-2 1 1 2 1 1-3c1-2 3-3 4-2l3 1 5 1h2c1-1 0-10-4-22-4-18-4-17-6-18l-4-3c-5-4-5-1 0 16v3c-2-2-2-1-7 1-6 3-11 7-12 11-3 6 0 13 7 17l3 3c-1 1-9-5-10-9l-2-1v1l1 4c0 7 3 10 8 9h7l3 1 3 1 3-1zm-8-15l1-1c3 0 4-4 5-10v-3c1 6-1 12-4 14h-2zm5-19v-1 1zm13 34c2-1 1-10-1-10v4c0 5 0 5-2 5a4365 4365 0 003 1zm-7-2c2-1 1-1 0-1-2 0-2 0-2-3l1-3h1c0 1 4 5 5 4l-2-7-4-1c-4 0-5 2-3 4l1 3v3l3 1zm44-1l1-3c0-2-1-2-2-1l1-2 2-2-2-1-1-4c0-3-2-3-5-1l-2 2 1 5 5 8 2-1zm3-1l3-1c3-1 4-3 4-6l2-2 1-1 2-1c2 0 4-3 4-5v-4l1-2c-1-1-2 0-2 2-1 3-2 5-6 8l-5 5-4 5c-1 1-3 3-1 3l1-1zm-28-4l4-4c1-2 1-3 3-2l2-1 4-2 5-1c2-2 3-2 5-2 2 1 2 1 2 3 0 4 2 6 3 5 5-3-1-10-7-10s-11 3-22 10l-7 4v1c0 1 6 1 8-1zm32-5l5-4c3-3 5-5 5-8s-1-3-6-6c-3-3-14-8-15-8l1 2c3 4 3 5 0 2l-3-3-13 2-16 2h-4l2 7 1 11v6c0 1 3 1 9-3 13-8 20-11 25-9l4 1c1 1 1 1 1-1l2 4v6l-2 4 1-1 3-4zm-56 1l1-1v-1c0-1-1-1-2 1v3l1-2zm-21-16c3-3 8-7 13-9 4-2 4-3 1-3-4-1-6 0-7 2l-3 3-1 2-3 3c-2 2-3 3-3 5-1 5 0 7 1 3l2-6zm87-1c0-1-3-4-4-3l2 2 2 1zm-39-8l13-2c4-1 5-1 5-3v-3c1-1 1-2-1-3l-2-1-1 1v2l1-1h1v2h-16l-18 1c-2 0-2 0-2 2 2 7 4 8 20 5zm28-1l3-4 2-2-1-1c-6-5-14-8-17-7-1 0-1 1 2 3l3 2v7l4 2c4 3 4 3 4 0zm-68-2c1-1 2-2 5-2h4l-1-5c-1-4-1-4-3-4-3-1-9 1-11 2-1 1-1 2 1 6l2 5c0 2 0 2 1 0l2-2zm-29-11l3-4 3-3c0-2 0-2-5-3-4 0-4 0-7 3s-3 2 0-2c2-2 3-2 6-2h2l-3-1-5-1c-2 0-7 3-10 6l-2 3 3 2c2 2 4 3 3 1l1-2h1c0 1 0 2 2 3 2 2 3 2 2 0h2l2 1c0 2 0 1 2-1zm13-4c2-1 2-3 1-2h-1v1l-1-1 10-11c2-2 8-3 7-2l1 1c2 1 2 2 2 3-1 2 1 3 4 3 3 1 4 2 1 3l-2 1c0 2 0 2 2 1 1-1 1-1 2 1l4 3c2 1 2 0 1-4l-2-8-1-5h-7l4-1 11-1c9-1 9-1 9-5v-1l1 3v1c1-2 0-7-1-8h-2-1c-1-1-12 1-18 3h-5l5-1c5-1 6-2 6-3 0-2-2-4-4-4-3 0-11-2-14-4s-4-2-4-1l-1 10c2 6 2 6 6 5 7-2 6-1-3 2l-11 4-9 6-2 2v1l3 1 1 1 2 2 2 2v-4l-1-2 2 6v4c0 1 2 0 3-2zm-9-8v-1l2 1v1l-2-1zm27-8h1-1zm57 14l-1-2 1-2c2-1 2-3-1-3-3-2-3-1-3 4v4h2l2-1zm-100-5c4-3 5-4 7-3 3 1 2 0-2-2s-4-2-12 3c-4 3-4 3-2 5s2 2 9-3zm95-1v0zm-15-1v-2c-1-1-6-5-7-4l-1 3c0 3 0 3 2 3h6zm-6-2h2l-1 1-1-1zm72 0l-1-2-1-2c-1-2-1-3-2-2-2 0-2 3 0 4l4 4v-2zm-45 0l-2-2-2-2-1-1-4 2 4 3h5zm3-2l-1-2c-2-1-1-2 1-3l1-2 1-3c3 0 6-4 6-7v-7l-2 1-5 2c-4 1-4 1-2 3v3h-1l-1-3c-2-1-2 0-1 3s0 8-2 10l-1 1c5 6 7 7 7 4zm-98-1l2-2c2 0 2-3 1-4s-2 0-2 1 0 2-2 2c-1-1-2 0-2 1v2h3zm49-2h-1c0 1 0 2 1 1v-1zm-28-4c4-2 5-2 4-3v-9l-2-7c-1 0-2 5-1 8 1 1 0 2-3 6s-5 8-3 7l5-2zm109-8l-3-2c-3-2-6-2-6 0-1 1 0 1 3 2h6zm5-2c0-2-3-6-4-6s-2 1-2 3l2 3c1 3 3 3 4 0zm-75 0l-2-1-3 1h5zm8-3l5-2 8-1c0-2 2-3 3-3l1-2 7-6c2 0 2-1 0-1-1-1-1-1 1-3l3-1-1 1-2 2h2l3-1-1 2c-3 2-5 7-6 11 0 3 0 3 5 1 10-2 17-10 16-17 0-4 0-4-3-4l-6-1c-3-1-3-1-4 1-2 1-2 1-1-2l-1-4v2l-1 3-1 2-1-2-4-2c-3-1-6 1-6 2 0 2-2 1-2-2-1-3-2-3-3-3-2 0-2 0-4-3l-2-3v4c0 5 0 6-4 4s-10-7-10-9l-1-1-1 10-2 8h-1c2-3 0-5-4-5-3 0-5 1-5 4 0 2 1 2 3 3l1 1c-2 0-5-2-5-3 1-1 0-2-1-3l-2-5c-1-5-2-4-1 1 0 5 3 12 5 15l4 6 3 5 11 3 5-2zm2-4h1-1zm18-15h1-1zm-3-1c-1-2-1-2 1-1v2l-1-1zm-77 18c4-9 4-10 3-16l-2-8c0-5-1-2-1 4-1 4 0 7 2 12v1c-1-1-2 0-3 2-2 2-2 3-2 5l1 3c1 0 2-1 2-3zm6 2l4-3-9 3h5zm110-7l-5-9c-3-5-3-5-5 3-2 4-2 8 0 9l11 3h2l-3-6zm-75 5l-4-7c-2-2-9-6-13-7-2-1-2 0-3 1l-1 7c1 2 6 5 11 6h10zm42-4l2-6c1-3-5 1-7 5l-2 2c-2 0-3 2-2 2l6 2c1 0 2-1 3-5zm-78 2c2-1 2-2 2-3v-2l1-12a71 71 0 018-34l-2 5c-3 9-2 20 3 25 2 3 5 4 10 6l3 2v-6c0-7 1-13 4-24 2-4 2-9 3-13 0-7 1-7 1 1 1 5 1 6-1 9l-5 13v2h4l6 1c2 0 2 0 1-2l-1-1c0-1-1-3-4-5s-3-2 0-1l2 1v-3l-1-5 1 2 5 16c1 2 3-5 3-15l1-7v4c1 7 1 8 3 11s10 10 11 9v-9l1-10 1 4 2 9 2 4v-7c0-5-1-14-3-19l1 1 2 5c3 10 11 17 24 21 5 2 11 3 13 2 2 0 2 0 1-4 0-4-2-10-5-15-3-4-2-4 2 1s9 7 16 8l8-1 2-1-3-1c-6-2-9-6-14-17-6-12-8-16-15-22-9-8-22-13-35-11l-7 1v1h-2c-6-2-11-2-16 2l-4 1c-3 0-10 3-14 6-3 2-10 12-16 23-4 8-9 15-13 18l-2 1h4l7-2h3a47 47 0 001 26c2 5 2 5 1 6l-2 5h2zm116-4c2-2 3-5 2-11l-1-7h-4l-4 2c-1 3 3 18 5 18l2-2zm-45-28l1-1-5 3-1 2 2-1 3-3zm-1-3c-1-1-3 1-3 2h2c1 0 2-1 1-2zm-2-2l-1-2h-1l1 3 1-1zm33-42c0-2-1-3-3-3l-2-4c-2-4-6-7-10-8l-4-1-3-1-5-2c-4-3-8-4-15-4-8 0-10 1-14 4-2 2-3 2-5 2l-3 2h-4c-2-1-8 0-11 2l-5 5c-1 4-2 4-4 4l-2 1v3c2 2 3 2 5 0 3-2 10-4 13-4l4-2c2-2 6-3 12-3l11-1c14-2 29 3 38 12l3 2 2-1 2-3z"/>
  <path fill="#636b88" d="M123 247l-2-5v-5l-3-11c-3-11-3-10-5-8h-3l-3 2c-5 3-11 3-14 1l-4-1c-1 1-4-1-8-3-2-1-3 0-8 6l-4 4-7-12-2-6-6-1-7-4c-1-1-1-1 2-4 8-8 20-16 27-17 3-1 3-1 4-4 0-2 1-4 3-5l4-5 1-3-2-5-2-5c1-2 7-5 10-5l4-1c0-1-1-4-4-6l-5-4-3-2-2 3c-2 2-3 3-3 5s-3 7-5 7l-3 1c0 1-3 2-4 1l-4 1c-2 2-3 3-4 2h-3l-4-1c-4-2-10-8-13-11-2-3-2-3-1-4 1-2 10-7 11-7l1-5v-5l-1-4v-8l5-5 3 1 2 2 2-3 2-2-1-4c-1-4-1-9 1-16l1-6 1-3-3 1h-9c-3-1-2-2 1-4 3-1 7-7 12-15l12-21c3-2 3-2 1-5l-2-2 2-2 3-2 2-2c3-6 11-10 18-9l4-1 3-1c1 0 3 0 5-2 4-3 6-4 14-4 7 0 11 1 15 3l5 2 3 1 4 2c4 1 10 5 12 9l4 5 2 3-2 3-3 3 3 4 8 14 5 10c1 2 8 6 10 6l2 1c1 1 1 1-1 3l-6 5-3 1 1 4c2 7 3 14 2 19-1 4-1 5 1 7l2 3 3-1 4-1 2 2c2 3 3 5 2 9l-1 6c0 4-1 6-3 6l-1 3c-1 5-8 10-10 6l-2-1-1-3c0-2-1-3-3-4l-2-3-3-4c-3-3-4-5-4-7v-3l1-3c-1-2-1-3-3-3l-4-3-2-2v4c0 6-1 9-4 12l-3 3-1 2-1 5c0 2 0 3-2 5l-2 5v3l-1 1c2 0 11 5 14 8l3 2-3 3-4 3c0 2 2 4 4 4 3 0 7 2 8 5l1 3v6c0 2 0 3 2 3l3 2h2v5l4 6c3 3 6 6 8 11 3 6 3 6 2 8h-5l-13-1c-1 1-2 1-3 5-3 5-5 7-6 6l-1-1-3-6-3-5-2 1-6 1-10 1-5 1h-4v4l-2 7-5 16c-1 1-4 1-6-1zm7-6l1-4 1-2 1-8 1-8c-1-1-1-1 1-1h10l10-1c5 0 9-2 10-5l1-3-1 5c-1 1 0 2 2 6l3 6c0 2 2 0 4-4s2-5 4-6l16 1c2 1 2-1-2-8-4-6-9-12-12-12l-1 2c1 1 0 2-1 3-2 3-2 2 0-1v-3l2-3 2-3-2-1c-2 0-2 0-3 2l-2 6c-2 4-2 4-6 6-4 1-5 1-6 4-3 3-6 5-12 6-8 1-12 1-15-1l-12-5-10 3c-12 4-23 5-29 2-5-3-12-16-11-20l4-5 3-5 1 1 2 7c0 6 2 11 4 11h8l2 1h3l4 1c4 0 7-2 4-2v-1l5-1c2-2 3-2 3-1l-4 2c-3 2-2 2 3 2 3 0 3 0 3-3l-2-7-1 1c0 2 0 2 0 0l-1-3 4 2c0 2 2 2 10-4h2l-6 4c-4 2-4 3-3 3h4c4 0 7-2 8-6l3-1 3-1c0-2 1-2 2-2 3 1 6 0 8-2h4l1 3 2 4c2 0 2 2 1 4l-1 1 3-2c2-3 3-3 2-1l-5 4c-1 0-2-3-1-4v-2l-1-4-1-2h-3l-3 1-2 2 2 5c2 7 3 8 5 7h3l2-1 3-1c2 0 4-3 4-5s1-3 2-3l1-1 1-1c3 0 5-2 5-6v-3-2h-1-1c0-1-4-5-8-7l-13-6c-1 0-1 1 1 3l1 3-2-3-2-2-12 2-14 2-9-2h2l5 1a238 238 0 0028-4c2-1 3-1 2-2l1-3c1-2 0-3-3-5l-2-1v2c-1 3 0 3 1 2h1l-13 1h-18l-6 1-1-4-1-4-1-3-1-5-1-5c1-1 0-1 0 0-1 1-1-1-1-5v-2 2l1 3v-5l4-1 11-2h1l1-2c0-5-1-7-3-7s-2 0-1-1l-2-1-4-1-1 1 1 2c1 1-1 2-4 2-2 0-2 0-1-1h-1c-1 1-1 1-1-1 1-3 0-3-7-4-5-1-10-3-14-6h-1l-1 7 1 8 1 3-5 2c-7 3-15 8-16 10v1l3 1v2l-1-1-6-2h-8l2-1h7l-2-2c-3-1-3-1-2-3l2-2c2 0 2-3 1-4s-2 0-2 1l-2 2c-1-1-3 1-3 3l-2 1-11 7 4 4 1-1v1c0 1 0 2 3 4l4 3a317 317 0 0011 0l1-2v1l2-1c3-2 4-4 2-3l1-1 1-2v5l-1 1c0 1 2 0 3-2 0-1 0-2 0 0l2 1c2 0 5-4 4-5s-1-2 5-8c4-4 7-5 10-3l2 3c0 2 2 4 5 4 1 0 2 0 1 1l-1 1c-2 0-3 1-1 4v4c-1 0-9 1-12 3l-3 1 3 5c2 4 3 7 1 8l-1 2-2 2c-2 1-4 4-5 8 0 2 0 2-5 4l-8 2c-7 4-21 15-20 17l8 2 6 2 1 4 6 13 5-5 5-5 8 3h2l3 1c2 2 11 2 14-1l4-2 3-1h3c1 1 2 1 1 2a139 139 0 006 23l2 2c4 1 4 1 5-1zm1-24c-1-1-1-1 1-1l1 2-2-1zm-10 0h0zm6-2c-1-1-1-1 0 0l2 1c1 0 1 0 0 0l-2-1zm41-6l3-1 3-2 3-1-2 1-4 2-2 1-1 1v-1zm-93-2h1v1l-1-1zm-4-4l-1-1 1 1 2 2c1 0 0 0 0 0l-2-2zm39-4v-1 1zm-7 1c3-1 3-1 1-2s-2-4 0-4l1 1 1 3 1 2h-7zm-11-3c-1-1-1-1 0 0l2 1-2-1zm68-6v-2h1l-1 2c-1 1-1 1 0 0zm3-1l3-3 4-2-6 5h-1zm-54 0h2l-1 1-1-1zm23-1l7-4-3 2-4 2zm26-4v-1h1v1c1 2 1 2-1 0zm-39 0v-2 2zm22-1l2-1-1 1h-1c-1 0-1 0 0 0zm3-1h1-1zm4-1h2-2zm-30-1v-1 1zm-27-10l4-3-2 2-2 1zm1-6l1-1v1h-1zm10 0v-3l1-2v5h-1zm-49-12v-2l2 1c1 2 1 2-2 1zm6-8c1-2 2-3 4-3l3 1h-3l-4 2-3 2zm63 61l1-4-1-4c-2-1-2-1-2 3l1 3-3 1-3 1h7zm36-11c0-2 0-2-1-1l-1 1h2zm15-20c0-2-3-3-4-3-2 0-1 0 1 2s3 2 3 1zm-12-8c0-2 1-3 3-4l3-3-2-2c-4-3-10-6-14-6s-5 1-2 2l3 3 1 3c-1 3-1 5 3 7 5 2 5 2 5 0zm-9-19v-5c2-1 1-4-2-4l-2 1-1-1-1 3c0 6 1 7 3 7l3-1zm-5-2c0-1 0-2 1-1v2l-1-1zm-15-6c0-2-1-3-4-5l-3-3-1 4c0 4 0 5 5 5l3-1zm-5-2h1l-1 1v-1zm26 0l-3-3-2-2-3 1-2 1 1 1 4 2 3 1 3 1-1-2zm3-1l-1-3v-2c2 0 3-2 2-4l2-2c4-2 6-5 6-10l-1-4-3 1-6 2c-3 1-5 2-3 2s3 1 3 3v-1l-2-1c-2 0-2 0-1 4 0 4 0 6-2 8l-1 3 3 3 3 3 1-2zm42 1l-1-2-1-2c-1-2-1-3-2-2-2 0-2 3 0 4l4 4v-2zm-119-9c4-2 5-2 4-3v-9l-2-7c-1 0-2 5-1 8 1 1 0 2-3 6-3 3-5 8-4 7l6-2zm109-8l-3-2c-3-2-6-2-6 0-1 1 0 1 3 2h6zm5-2c0-2-3-6-4-6s-2 1-2 3l2 3c1 3 3 3 4 0zm-68-2c2-2 3-2 8-2l6-2h1l4 2 4 1v-3c1-1 1-2 1 0s0 2 5 0c10-2 17-10 16-17 0-4 0-4-3-4l-5-1h-5c-1 1-1 1-1-2l-1-3-1 1v3l-1 3-1-2c-2-2-6-3-8-2l-2 2-2-2-2-3c-1-1 1-4 4-5 2-1 2-1 0-3-1-2-2-2-3-1-2 1-2 1-2 4 0 7-1 7-4 1l-1-3-1 5-1 5-3-2c-4-1-10-7-10-9l-1-1-2 12v5l-2-2c-2-2-6-2-8 0l-3 1-2-8c1-2 1-2-1-1-2 2 0 14 5 20l4 7c2 4 3 5 11 6l4 1 3-1zm25-11l1-1c1-1 1 0 0 0l-1 1zm3-5c-1 0-1-1 1-1l2-1-3 2zm-87 13c4-9 4-10 3-16l-2-8c0-5-1-2-1 4-1 5 0 7 2 12v1c-2-1-5 2-5 4-2 6 1 9 3 3zm6 2l4-3-9 3h5zm110-7l-5-9c-3-5-3-5-5 3-2 4-2 8 0 9l11 3h2l-3-6zm-75 5l-4-7c-2-2-9-6-13-7-2-1-2 0-3 1l-1 7c1 2 6 5 11 6h10zm-36-2c2-1 2-2 2-3v-2l1-12a71 71 0 018-34l-2 5c-3 9-2 20 3 25 2 3 5 4 10 6l3 2v-6c0-7 1-13 4-24 2-4 2-9 3-13v-6l1 6c1 5 1 6-1 9l-5 15c0 2 0 2 3 1 4 0 10 1 10 3 1 3 3-5 3-14l1-4c1 7 1 8 3 11s10 10 11 9v-9l1-10 1 4 2 9 2 4v-7c0-5-1-14-3-19l1 1 2 5c3 10 11 17 24 21 5 2 11 3 13 2 2 0 2 0 1-4 0-4-2-10-5-15-3-4-2-4 2 1s9 7 16 8l8-1 2-1-3-1c-7-2-9-5-15-17-2-6-6-13-8-15l-3-4 2-1 4-5-3-2-3-3c0-4-6-9-11-9l-3-1c0-1-1-2-3-2l-5-1c-3-3-9-5-15-5s-9 1-13 4l-6 3-3 1-5 1c-8-1-13 2-15 8l-3 3-4 2 2 3 1 1-2 3-13 22-11 15-3 2h4l7-2h3a47 47 0 001 26c2 5 2 5 1 6l-2 5h2zm38-31c0-2 0-2 1-1v1h-1zm-2-5l-1-1 1-2 1 1 1 4-2-2zm55-43l-2-2 3 2 2 2-3-2zm-9-5l-5-3 10 5-5-2zm-54 1h0c-1 0-1 0 0 0zm22-3v-1h1c1 0 0 0 0 0v1h-1zm24-1l-5-1-4-1h4l6 2h-1zm-21-1h0c-1 0-1 0 0 0zm5-1h3c1 1 0 1-2 1l-1-1zm58 85c2-2 3-5 2-11l-1-7h-4l-4 2c-1 3 3 18 5 18l2-2zm-48-32l-1-2-1-2v5l2-1z"/>
  <path fill="#438268" d="M123 247l-2-5v-5l-3-11c-3-11-3-10-5-8h-3l-3 2c-5 3-11 3-14 1l-4-1c-1 1-4-1-8-3-2-1-3 0-8 6l-4 4-7-12-2-6-6-1-7-4c-1-1-1-1 2-4 8-8 20-16 27-17 3-1 3-1 4-4 0-2 1-4 3-5l4-5 1-3-2-5-2-5c1-2 7-5 10-5l4-1c0-1-1-4-4-6l-5-4-3-2-2 3c-2 2-3 3-3 5s-3 7-5 7l-3 1c0 1-3 2-4 1l-4 1c-2 2-3 3-4 2h-3l-4-1c-4-2-10-8-13-11-2-3-2-3-1-4 1-2 10-7 11-7l1-5v-5l-1-4v-8l5-5 3 1 2 2 2-3 2-2-1-4c-1-4-1-9 1-16l1-6 1-3-3 1h-9c-3-1-2-2 1-4 3-1 7-7 12-15l12-21c3-2 3-2 1-5l-2-2 2-2 3-2 2-2c3-6 11-10 18-9l4-1 3-1c1 0 3 0 5-2 4-3 6-4 14-4 7 0 11 1 15 3l5 2 3 1 4 2c4 1 10 5 12 9l4 5 2 3-2 3-3 3 3 4 8 14 5 10c1 2 8 6 10 6l2 1c1 1 1 1-1 3l-6 5-3 1 1 4c2 7 3 14 2 19-1 4-1 5 1 7l2 3 3-1 4-1 2 2c2 3 3 5 2 9l-1 6c0 4-1 6-3 6l-1 3c-1 5-8 10-10 6l-2-1-1-3c0-2-1-3-3-4l-2-3-3-4c-3-3-4-5-4-7v-3l1-3c-1-2-1-3-3-3l-4-3-2-2v4c0 6-1 9-4 12l-3 3-1 2-1 5c0 2 0 3-2 5l-2 5v3l-1 1c2 0 11 5 14 8l3 2-3 3-4 3c0 2 2 4 4 4 3 0 7 2 8 5l1 3v6c0 2 0 3 2 3l3 2h2v5l4 6c3 3 6 6 8 11 3 6 3 6 2 8h-5l-13-1c-1 1-2 1-3 5-3 5-5 7-6 6l-1-1-3-6-3-5-2 1-6 1-10 1-5 1h-4v4l-2 7-5 16c-1 1-4 1-6-1zm7-6l1-4 1-2 1-8 1-8c-1-1-1-1 1-1h10l10-1c5 0 9-2 10-5l1-3-1 5c-1 1 0 2 2 6l3 6c0 2 2 0 4-4s2-5 4-6l16 1c2 1 2-1-2-8-4-6-9-12-12-12l-1 2c1 1 0 2-1 3-2 3-2 2 0-1v-3l2-3 2-3-2-1c-2 0-2 0-3 2l-2 6c-2 4-2 4-6 6-4 1-5 1-6 4-3 3-6 5-12 6-8 1-12 1-15-1l-12-5-10 3c-12 4-23 5-29 2-5-3-12-16-11-20l4-5 3-5 1 1 2 7c0 6 2 11 4 11h8l2 1h3l4 1c4 0 7-2 4-2v-1l5-1c2-2 3-2 3-1l-4 2c-3 2-2 2 3 2 3 0 3 0 3-3l-2-7-1 1c0 2 0 2 0 0l-1-3 4 2c0 2 2 2 10-4h2l-6 4c-4 2-4 3-3 3h4c4 0 7-2 8-6l3-1 3-1c0-2 1-2 2-2 3 1 6 0 8-2h4l1 3 2 4c2 0 2 2 1 4l-1 1 3-2c2-3 3-3 2-1l-5 4c-1 0-2-3-1-4v-2l-1-4-1-2h-3l-3 1-2 2 2 5c2 7 3 8 5 7h3l2-1 3-1c2 0 4-3 4-5s1-3 2-3l1-1 1-1c3 0 5-2 5-6v-3-2h-1-1c0-1-4-5-8-7l-13-6c-1 0-1 1 1 3l1 3-2-3-2-2-12 2-14 2-9-2h2l5 1a238 238 0 0028-4c2-1 3-1 2-2l1-3c1-2 0-3-3-5l-2-1v2c-1 3 0 3 1 2h1l-13 1h-18l-6 1-1-4-1-4-1-3-1-5-1-5c1-1 0-1 0 0-1 1-1-1-1-5v-2 2l1 3v-5l4-1 11-2h1l1-2c0-5-1-7-3-7s-2 0-1-1l-2-1-4-1-1 1 1 2c1 1-1 2-4 2-2 0-2 0-1-1h-1c-1 1-1 1-1-1 1-3 0-3-7-4-5-1-10-3-14-6h-1l-1 7 1 8 1 3-5 2c-7 3-15 8-16 10v1l3 1v2l-1-1-6-2h-8l2-1h7l-2-2-4-1 3-3c3-3 4-4 2-6-1-1-1-1-2 2 0 2-1 2-2 2-1-1-2 0-3 1v2l-2 1-11 7 4 4 1-1v1c0 1 0 2 3 4l4 3a317 317 0 0011 0l1-2v1l2-1c3-2 4-4 2-3l1-1 1-2v5l-1 1c0 1 2 0 3-2 0-1 0-2 0 0l2 1c2 0 5-4 4-5s-1-2 5-8c4-4 7-5 10-3l2 3c0 2 2 4 5 4 1 0 2 0 1 1l-1 1c-2 0-3 1-1 4v4c-1 0-9 1-12 3l-3 1 3 5c2 4 3 7 1 8l-1 2-2 2c-2 1-4 4-5 8 0 2 0 2-5 4l-8 2c-7 4-21 15-20 17l8 2 6 2 1 4 6 13 5-5 5-5 8 3h2l3 1c2 2 11 2 14-1l4-2 3-1h3c1 1 2 1 1 2a139 139 0 006 23l2 2c4 1 4 1 5-1zm1-24c-1-1-1-1 1-1l1 2-2-1zm-10 0h0zm6-2c-1-1-1-1 0 0l2 1c1 0 1 0 0 0l-2-1zm41-6l3-1 3-2 3-1-2 1-4 2-2 1-1 1v-1zm-93-2h1v1l-1-1zm-4-4l-1-1 1 1 2 2c1 0 0 0 0 0l-2-2zm39-4v-1 1zm-7 1c3-1 3-1 1-2s-2-4 0-4l1 1 1 3 1 2h-7zm-11-3c-1-1-1-1 0 0l2 1-2-1zm68-6v-2h1l-1 2c-1 1-1 1 0 0zm3-1l3-3 4-2-6 5h-1zm-54 0h2l-1 1-1-1zm23-1l7-4-3 2-4 2zm26-4v-1h1v1c1 2 1 2-1 0zm-39 0v-2 2zm22-1l2-1-1 1h-1c-1 0-1 0 0 0zm3-1h1-1zm4-1h2-2zm-30-1v-1 1zm-27-10l4-3-2 2-2 1zm1-6l1-1v1h-1zm10 0v-3l1-2v5h-1zm-49-12v-2l2 1c1 2 1 2-2 1zm6-8c1-2 2-3 4-3l3 1h-3l-4 2-3 2zm63 61l1-4-1-4c-2-1-2-1-2 3l1 3-3 1-3 1h7zm36-11c0-2 0-2-1-1l-1 1h2zm15-20c0-2-3-3-4-3-2 0-1 0 1 2s3 2 3 1zm-12-8c0-2 1-3 3-4l3-3-2-2c-4-3-10-6-14-6s-5 1-2 2l3 3 1 3c-1 3-1 5 3 7 5 2 5 2 5 0zm-9-19v-5c2-1 1-4-2-4l-2 1-1-1-1 3c0 6 1 7 3 7l3-1zm-5-2c0-1 0-2 1-1v2l-1-1zm48-2l-2-2c-3-2-4-2-4-1l1 1 2 1c1 2 1 2 3 1zm-63-4c0-2-1-3-4-5l-3-3-1 4c0 4 0 5 5 5l3-1zm-5-2h1l-1 1v-1zm26 0l-3-3-2-2-3 1-2 1 1 1 4 2 3 1 3 1-1-2zm3-1l-1-3v-2c2 0 3-2 2-4l2-2c4-2 6-5 6-10l-1-4-3 1-6 2c-3 1-5 2-3 2s3 1 3 3v-1l-2-1c-2 0-2 0-1 4 0 4 0 6-2 8l-1 3 3 3 3 3 1-2zm42 2c1-2 0-3-1-3l-1-2-2-3c-2 0-2 4 0 6l2 2h2zm-133-1l-1-1-2 1h3zm14-9c4-2 5-2 4-3v-9l-2-7c-1 0-2 5-1 8 1 1 0 2-3 6-3 3-5 8-4 7l6-2zm112-6c3-1 2-6-1-9l-2-1c-1 1-1 4 1 7 1 2 0 3-1 0l-6-3-4-1 1 2c0 3 0 3 3 3a26 26 0 017 2h2zm-66-6c2-2 3-2 8-2l6-2h1l4 2 4-1v-2l1 1c0 2 1 2 7 1 4-1 5-2 8-5 4-4 6-7 6-12 1-4 0-6-2-6l-6-2-5-2-1 2c0 2 0 2 0 0l-1-3-1 1v4h-1l-3-2h-6c-3 0-3 0-3 2l-1-2-2-3c-1-1 1-4 4-5 2-1 2-1 0-3-1-2-2-2-3-1-2 1-2 1-2 4 0 7-1 7-4 1l-1-3-1 5-1 5-3-2c-4-1-10-7-10-9l-1-1-2 13c1 3 1 3-1 2-1-2-9-2-11-1s-2 1 0 2c1 0 1 0 0 0-2 0-4-5-3-8 1-2 0-2-1-1-2 2 0 14 5 20l4 7c2 4 3 5 11 6l4 1 3-1zm25-11l1-1c1-1 1 0 0 0l-1 1zm3-5l1-1 3-1-4 2zm-83 16l5-1 2-2v-2c-1-1-8 2-9 4-2 2-3 1-2-1l2-5 1-3 1-1-1-5c-2-7-1-7 1-1 3 9 3 9 6 6 4-4 6-12 3-17a30 30 0 013-28l-1 3c-3 8-3 18 0 24 2 4 4 6 11 9l5 2c2 1 2 1 1-2-2-4-2-13 0-19 1-6 5-15 6-15V53v5c1 3 1 4-1 7l-5 15c0 2 0 2 3 1l10 2 1 2c1 1 1 0 3-14l1-4v3c0 5 2 9 5 12s7 6 9 6V78 68l1 4c1 5 4 13 5 12V72l-1-7-1-3 1 3c3 10 12 18 25 21 6 2 15 3 15 2 1-1-2-10-5-16l-2-5 4 5c6 8 12 11 18 8l4-3 2-2-4-1c-4-2-9-7-11-11-2-6-8-18-11-21l-3-4 2-1 4-5-3-2-3-3c0-4-6-9-11-9l-3-1c0-1-1-2-3-2l-5-1c-3-3-9-5-15-5s-9 1-13 4l-6 3-3 1-5 1c-8-1-13 2-15 8l-3 3-4 2 2 3 1 1-2 3-13 22-11 15-3 2h3l10-2c1-1 1-1 1 1l-1 5-1 5c-2 4-2 13-1 16l2 4-3 2c-2 2-3 3-2 7 0 3 1 4 7 2zm-2-25v-1 1zm38-16v-1l1-1 1 1c0 2 0 2-2 1zm8-11l1-1v2l-1-1zm48-32l-2-2 3 2 2 2-3-2zm-7-5l-3-1 6 3-3-2zm-56 1h0c-1 0-1 0 0 0zm50-3v-1l1 1 1 1-2-1zm-29-1h1-1zm4-1h0c-1 0-1 0 0 0zm19 0h1-1zm-15-1h3l-2 1-1-1zm10 0h3l-1 1-2-1zm48 93l-4-7-5-9-3-5-1 3-2 5c-3 7-1 9 6 11a67 67 0 019 3v-1zm-79-3c0-2-3-7-5-8-1-1-10-6-13-6l-2 1c0 2-1 2-2 2-2 0-2 1 0 5 3 5 10 8 19 8h4zm-34-2c1-1-1-4-2-4l-2 5 4-1zm116-4V96l-2-8c-1-2-1-2-3-2-4 1-4 2-4 9l1 8c1 4 5 9 6 9l2-5zm-110 0l-1 1-2 1 2-1 1-1zm60-31l-1-2-1-2v5l2-1z"/>
  <path fill="#5d525f" d="M123 247l-2-5v-5l-3-11c-3-11-3-10-5-8h-3l-3 2c-5 3-11 3-14 1l-4-1c-1 1-4-1-8-3-2-1-3 0-8 6l-4 4-7-12-2-6-6-1-7-4c-1-1-1-1 2-4 8-8 20-16 27-17 3-1 3-1 4-4 0-2 1-4 3-5l4-5 1-3-2-5-2-5c1-2 7-5 10-5l4-1c0-1-1-4-4-6l-5-4-3-2-2 3c-2 2-3 3-3 5s-3 7-5 7l-3 1c0 1-3 2-4 1l-4 1c-2 2-3 3-4 2h-3l-4-1c-4-2-10-8-13-11-2-3-2-3-1-4 1-2 10-7 11-7l1-5v-5l-1-4v-8l5-5 3 1 2 2 2-3 2-2-1-4c-1-4-1-9 1-16l1-6 1-3-3 1h-9c-3-1-2-2 1-4 3-1 7-7 12-15l12-21c3-2 3-2 1-5l-2-2 2-2 3-2 2-2c3-6 11-10 18-9l4-1 3-1c1 0 3 0 5-2 4-3 6-4 14-4 7 0 11 1 15 3l5 2 3 1 4 2c4 1 10 5 12 9l4 5 2 3-2 3-3 3 3 4 8 14 5 10c1 2 8 6 10 6l2 1c1 1 1 1-1 3l-6 5-3 1 1 4c2 7 3 14 2 19-1 4-1 5 1 7l2 3 3-1 4-1 2 2c2 3 3 5 2 9l-1 6c0 4-1 6-3 6l-1 3c-1 5-8 10-10 6l-2-1-1-3c0-2-1-3-3-4l-2-3-3-4c-3-3-4-5-4-7v-3l1-3c-1-2-1-3-3-3l-4-3-2-2v4c0 6-1 9-4 12l-3 3-1 2-1 5c0 2 0 3-2 5l-2 5v3l-1 1c2 0 11 5 14 8l3 2-3 3-4 3c0 2 2 4 4 4 3 0 7 2 8 5l1 3v6c0 2 0 3 2 3l3 2h2v5l4 6c3 3 6 6 8 11 3 6 3 6 2 8h-5l-13-1c-1 1-2 1-3 5-3 5-5 7-6 6l-1-1-3-6-3-5-2 1-6 1-10 1-5 1h-4v4l-2 7-5 16c-1 1-4 1-6-1zm7-6l1-4 1-2 1-8 1-8c-1-1-1-1 1-1h10l10-1c5 0 9-2 10-5l1-3-1 5c-1 1 0 2 2 6l3 6c0 2 2 0 4-4s2-5 4-6l16 1c2 1 2-1-2-8-4-6-9-12-12-12l-1 2c1 1 0 2-1 3-2 3-2 2 0-1v-3l2-3 2-3-2-1c-2 0-2 0-3 2l-2 6c-2 4-2 4-6 6-4 1-5 1-6 4-3 3-6 5-12 6-8 1-12 1-15-1l-12-5-10 3c-12 4-23 5-29 2-5-3-12-16-11-20l4-5 3-5 1 1 2 7c0 6 2 11 4 11h8l2 1h3l4 1c4 0 7-2 4-2v-1l5-1c2-2 3-2 3-1l-4 2c-3 2-2 2 3 2 3 0 3 0 3-3l-2-7-1 1c0 2 0 2 0 0l-1-3 4 2c0 2 2 2 10-4h2l-6 4c-4 2-4 3-3 3h4c4 0 7-2 8-6l3-1 3-1c0-2 1-2 2-2 3 1 6 0 8-2h4l1 3 2 4c2 0 2 2 1 4l-1 1 3-2c2-3 3-3 2-1l-5 4c-1 0-2-3-1-4v-2l-1-4-1-2h-3l-3 1-2 2 2 5c2 7 3 8 5 7h3l2-1 3-1c2 0 4-3 4-5s1-3 2-3l1-1 1-1c3 0 5-2 5-6v-3-2h-1-1c0-1-4-5-8-7l-13-6c-1 0-1 1 1 3l1 3-2-3-2-2-12 2-14 2-9-2h2l5 1a238 238 0 0028-4c2-1 3-1 2-2l1-3c1-2 0-3-3-5l-2-1v2c-1 3 0 3 1 2h1l-13 1h-18l-6 1-1-4-1-4-1-3-1-5-1-5c1-1 0-1 0 0-1 1-1-1-1-5v-2 2l1 3v-5l4-1 11-2h1l1-2c0-5-1-7-3-7s-2 0-1-1l-2-1-4-1-1 1 1 2c1 1-1 2-4 2-2 0-2 0-1-1h-1c-1 1-1 1-1-1 1-3 0-3-7-4-5-1-10-3-14-6h-1l-1 7 1 8 1 3-5 2c-7 3-15 8-16 10v1l3 1v2l-1-1-6-2h-8l2-1h7l-2-2-4-1 3-3c3-3 4-4 2-6-1-1-1-1-2 2 0 2-1 2-2 2-1-1-2 0-3 1v2l-2 1-11 7 4 4 1-1v1c0 1 0 2 3 4l4 3a317 317 0 0011 0l1-2v1l2-1c3-2 4-4 2-3l1-1 1-2v5l-1 1c0 1 2 0 3-2 0-1 0-2 0 0l2 1c2 0 5-4 4-5s-1-2 5-8c4-4 7-5 10-3l2 3c0 2 2 4 5 4 1 0 2 0 1 1l-1 1c-2 0-3 1-1 4v4c-1 0-9 1-12 3l-3 1 3 5c2 4 3 7 1 8l-1 2-2 2c-2 1-4 4-5 8 0 2 0 2-5 4l-8 2c-7 4-21 15-20 17l8 2 6 2 1 4 6 13 5-5 5-5 8 3h2l3 1c2 2 11 2 14-1l4-2 3-1h3c1 1 2 1 1 2a139 139 0 006 23l2 2c4 1 4 1 5-1zm1-24c-1-1-1-1 1-1l1 2-2-1zm-10 0h0zm6-2c-1-1-1-1 0 0l2 1c1 0 1 0 0 0l-2-1zm41-6l3-1 3-2 3-1-2 1-4 2-2 1-1 1v-1zm-93-2h1v1l-1-1zm-4-4l-1-1 1 1 2 2c1 0 0 0 0 0l-2-2zm39-4v-1 1zm-7 1c3-1 3-1 1-2s-2-4 0-4l1 1 1 3 1 2h-7zm-11-3c-1-1-1-1 0 0l2 1-2-1zm68-6v-2h1l-1 2c-1 1-1 1 0 0zm3-1l3-3 4-2-6 5h-1zm-54 0h2l-1 1-1-1zm23-1l7-4-3 2-4 2zm26-4v-1h1v1c1 2 1 2-1 0zm-39 0v-2 2zm22-1l2-1-1 1h-1c-1 0-1 0 0 0zm3-1h1-1zm4-1h2-2zm-30-1v-1 1zm-27-10l4-3-2 2-2 1zm1-6l1-1v1h-1zm10 0v-3l1-2v5h-1zm-49-12v-2l2 1c1 2 1 2-2 1zm6-8c1-2 2-3 4-3l3 1h-3l-4 2-3 2zm63 61l1-4-1-4c-2-1-2-1-2 3l1 3-3 1-3 1h7zm36-11c0-2 0-2-1-1l-1 1h2zm15-20c0-2-3-3-4-3-2 0-1 0 1 2s3 2 3 1zm-12-8c0-2 1-3 3-4l3-3-2-2c-4-3-10-6-14-6s-5 1-2 2l3 3 1 3c-1 3-1 5 3 7 5 2 5 2 5 0zm-9-19v-5c2-1 1-4-2-4l-2 1-1-1-1 3c0 6 1 7 3 7l3-1zm-5-2c0-1 0-2 1-1v2l-1-1zm48-2l-2-2c-3-2-4-2-4-1l1 1 2 1c1 2 1 2 3 1zm-63-4c0-2-1-3-4-5l-3-3-1 4c0 4 0 5 5 5l3-1zm-5-2h1l-1 1v-1zm26 0l-3-3-2-2-3 1-2 1 1 1 4 2 3 1 3 1-1-2zm3-1l-1-3v-2c2 0 3-2 2-4l2-2c4-2 6-5 6-10l-1-4-3 1-6 2c-3 1-5 2-3 2s3 1 3 3v-1l-2-1c-2 0-2 0-1 4 0 4 0 6-2 8l-1 3 3 3 3 3 1-2zm42 2c1-2 0-3-1-3l-1-2-2-3c-2 0-2 4 0 6l2 2h2zm-133-1l-1-1-2 1h3zm122-4h-1l-1 1h1l1-1zm13-2h-1c-1 0-1 0 0 0h1zm-121-3c4-2 5-2 4-3v-9l-2-7c-1 0-2 5-1 8 1 1 0 2-3 6-3 3-5 8-4 7l6-2zm-12-1l-1-3-1 1 1 3c1 1 1 0 1-1zm120 0l1-1c0-1-3-4-6-4h-6l4 6c2 1 6 0 7-1zm-132-2c0-1-1-1-1 1l1 1v-2zm138 0v-1c-1-1-3 1-2 2s2 0 2-1zm6-1l2-7c-1-3-6 0-6 4 0 2 1 3 2 3h2zm-128-4v-3c-2 0-5 2-5 3 0 3 3 3 5 0zm120 2c3-1 2-6-1-9l-2-1c-1 1-1 4 1 7 1 2 0 3-1 0l-6-3-4-1 1 2c0 3 0 3 3 3a26 26 0 017 2h2zm-127-3c-1-1-3 1-2 2h1l1-2zm-6-2c1-3 0-5-2-7-1-1-3 1-3 5-1 5 4 7 5 2zm67-1c2-2 3-2 8-2l6-2h1l4 2 4-1v-2l1 1c0 2 1 2 7 1 4-1 5-2 8-5 4-4 6-7 6-12 1-4 0-6-2-6l-6-2-5-2-1 2c0 2 0 2 0 0l-1-3-1 1v4h-1l-3-2h-6c-3 0-3 0-3 2l-1-2-2-3c-1-1 1-4 4-5 2-1 2-1 0-3-1-2-2-2-3-1-2 1-2 1-2 4 0 7-1 7-4 1l-1-3-1 5-1 5-3-2c-4-1-10-7-10-9l-1-1-2 13c1 3 1 3-1 2-1-2-9-2-11-1s-2 1 0 2c1 0 1 0 0 0-2 0-4-5-3-8 1-2 0-2-1-1-2 2 0 14 5 20l4 7c2 4 3 5 11 6l4 1 3-1zm25-11l1-1c1-1 1 0 0 0l-1 1zm3-5l1-1 3-1-4 2zm-83 16l5-1 2-2v-2c-1-1-8 2-9 4-2 2-3 1-2-1l2-5 1-3 1-1-1-5c-2-7-1-7 1-1 3 9 3 9 6 6 4-4 6-12 3-17a30 30 0 013-28l-1 3c-3 8-3 18 0 24 2 4 4 6 11 9l5 2c2 1 2 1 1-2-2-4-2-13 0-19 1-6 5-15 6-15V53v5c1 3 1 4-1 7l-5 15c0 2 0 2 3 1l10 2 1 2c1 1 1 0 3-14l1-4v3c0 5 2 9 5 12s7 6 9 6V78 68l1 4c1 5 4 13 5 12V72l-1-7-1-3 1 3c3 10 12 18 25 21 6 2 15 3 15 2 1-1-2-10-5-16l-2-5 4 5c6 8 12 11 18 8l4-3 2-2-4-1c-4-2-9-7-11-11-2-6-8-18-11-21l-3-4 2-1 4-5-3-2-3-3c0-4-6-9-11-9l-3-1c0-1-1-2-3-2l-5-1c-3-3-9-5-15-5s-9 1-13 4l-6 3-3 1-5 1c-8-1-13 2-15 8l-3 3-4 2 2 3 1 1-2 3-13 22-11 15-3 2h3l10-2c1-1 1-1 1 1l-1 5-1 5c-2 4-2 13-1 16l2 4-3 2c-2 2-3 3-2 7 0 3 1 4 7 2zm-2-25v-1 1zm38-16v-1l1-1 1 1c0 2 0 2-2 1zm8-11l1-1v2l-1-1zm48-32l-2-2 3 2 2 2-3-2zm-7-5l-3-1 6 3-3-2zm-56 1h0c-1 0-1 0 0 0zm50-3v-1l1 1 1 1-2-1zm-29-1h1-1zm4-1h0c-1 0-1 0 0 0zm19 0h1-1zm-15-1h3l-2 1-1-1zm10 0h3l-1 1-2-1zm48 93l-4-7-5-9-3-5-1 3-2 5c-3 7-1 9 6 11a67 67 0 019 3v-1zm-79-3c0-2-3-7-5-8-1-1-10-6-13-6l-2 1c0 2-1 2-2 2-2 0-2 1 0 5 3 5 10 8 19 8h4zm-34-2c1-1-1-4-2-4l-2 5 4-1zm116-4V96l-2-8c-1-2-1-2-3-2-4 1-4 2-4 9l1 8c1 4 5 9 6 9l2-5zm-110 0l-1 1-2 1 2-1 1-1zm60-31l-1-2-1-2v5l2-1z"/>
  <path fill="#2f564e" d="M123 247l-2-5v-5l-3-11-3-9h-2c-1 1-2 2-3 1l-4 2-6 2c-3 1-4 1-7-1l-4-1h-3l-1-1-3-1c-3-2-4-1-11 8l-2 1c-2-1-6-10-7-14l-1-4-7-2-7-3c-1-1-1-1 4-6 9-8 17-13 25-15 3-1 3-1 4-4l3-6c3-3 5-5 5-7l-2-5-2-6c1-1 7-4 11-4 4-1 4-1 3-3l-4-4-6-4-2-2-2 2-3 6-2 4c-1 2-8 6-9 5s-2-1-5 1l-4 2-4-1c-4 0-18-11-17-14 0-2 2-3 12-9v-9l-1-4c-2-4 0-9 3-12l2-2 2 2 3 2 2-3c3-2 3-3 2-5V87l1-6 1-4-5 1c-4 1-7 1-8-1l2-3c3-2 8-8 12-15s11-20 13-21c2-2 2-2 0-5l-2-2 2-2 3-2 3-3c3-5 11-9 17-8l4-1 3-1c1 0 3 0 5-2 3-2 6-4 11-4 6-1 15 1 19 4l4 1 4 1 4 2c4 1 10 6 11 9 0 2 2 3 3 4 3 3 3 5 0 7l-2 2 3 5a124 124 0 0112 24c1 2 9 6 10 6l3 1c1 1 1 1-2 4a38 38 0 01-8 5l1 5c2 5 3 15 2 20-1 2-1 3 1 6l3 3 1-1c3-2 5-2 7 0 2 3 3 8 1 10v7l-1 2-1 2c-1 0-2 1-2 3l-5 7c-3 1-3 1-4-1l-2-1c-1 0-3-2-2-3l-2-4-3-3-3-5c-4-3-6-7-4-9s1-5-2-6l-4-3-2-2v4c0 4-1 8-4 12l-3 3-1 2c-1 1-2 2-1 4l-3 8-1 3-1 3v1c3 0 16 8 16 10l-3 3c-3 2-3 4-1 6l3 1 4 1c2 2 5 9 4 9v3l1 4 3 2c3 0 5 4 3 6l3 4c4 3 8 10 11 16 2 4 1 5-5 4l-14-1-3 5c-3 6-4 7-5 6l-1-1-5-11-3 1-6 1-10 1-5 1-4 1-1 6-5 18c-2 3-4 3-7 1zm2-3c0-1 0-1 0 0v0zm5-3l2-8 2-11 1-3h4l6-1 11-1 6-1 2-1 3 5c4 8 4 8 7 2l2-5 4-1 13 1h3l-1-2c-4-9-13-20-15-19v-1c2-2 2-4 0-5-2 0-2 0-3 5-3 7-3 8-8 9-4 2-6 3-8 6-1 3-5 4-13 5-7 1-10 1-14-2l-6-3c-4-2-6-2-15 2-10 4-20 5-27 2-3-2-9-9-11-14s-2-6 3-11c3-4 4-4 5-3v4l1 4c0 4 1 7 3 9h9l2 1h12v-1l2 1 2 1 1 1 3 1c4 0 5 0 5-5v-4h3c4-1 6-2 8-6l2-2 3-1 4-1c3 0 3 0 5 6 3 8 4 9 6 7h2l3-1 3-2c2 0 4-4 4-6v-1l2-1 2-1c2 0 4-4 4-6v-3-2l-1-3c0-2-3-4-5-3l-4-2c-3-1-3-5 0-8l3-2-2-2c-3-2-11-6-15-6l-3-1v3c0 5 1 5-18 5h-17l-1-4-1-3-1-1v-4c-2-6-2-16-1-16l14-1c2-1 2-8 0-10-1-1-1-1 1-3l5-2h2l-2 1c-3 1-4 3-2 4h1c1-1 1-1 2 2l2 3c1 0 3-1 3-3l4 1c3 1 6 1 6-1l2-3 2-2-2-1-9-1c-6 0-6 0-2-1h4v-1c1 1 8 3 11 2 9-1 13-3 18-11 2-2 2-4 3-8v-5l-6-2a555 555 0 01-9 0c0 3 0 3 0 0l-1-3-1 1v2h-1l-4-1c-6 0-8 1-8 2l-2-3-1-2c0 1 0 1 0 0l5-5c1 0 1-1-1-2-1-2-2-2-3-1-2 1-2 1-2 4l-1 4c0 2 0 1-2-1l-2-4-1 4-1 5-3-2c-4-1-10-7-10-9l-1-1-2 13v1c-1-2-1-2-7-2s-6 0-6 2l-1-1-1-5c1-3-1-2-2 1v-2l1-2 3-1 6 1c3 0 4 1 4 3 1 2 2 2 2 0a145 145 0 003-13c0 5 5 12 11 15l3 1v-3-14l1 4 4 9 1-6 1-3c0 2 0 2 2 1v-2l-2-2-2-4v-3l1 2c4 12 18 20 34 21 5 1 6 1 6-1l-6-15-2-4 4 4c4 7 10 10 14 9l7-3c4-3 4-3 2-3-5-2-7-4-10-7l-3-3-11-22-3-5 3-2c2-2 2-3 1-4l-2-2-2-4c-2-4-7-8-12-8l-3-2-3-1-4-1c-4-3-10-5-16-5s-10 2-14 5l-4 2-4 1-4 1c-3-1-10 0-12 2l-4 5c-1 3-2 3-4 4-3 1-4 3-1 5l2 1-3 4-12 19-12 17-3 2h5l6-1 2-1-1 11-1 7v14c-3 2-4 5-4 7 0 4 2 5 7 3l6-1c2 0 2 0 2-2v-2l-8 2-2 2h-1l2-5 1-4 2-2v-1 3c-1 1-3 5-2 6l2-1c2-1 3-1 2-2v-2c1 1 2-1 4-2l3-5a8775 8775 0 000-12l-1-5c0-1 0-1 0 0l5 9 6 3 7 4c2 1 2 1 1-4l-1-5v1l6 12 4 7c2 3 2 4 5 5l2 1c-2 0-2 1-1 3 1 1 1 1-2 1-2 1-2 1-2-1 0-1-3-4-7-4-2-1-2-1 2-1l4 1v-2c-2-5-6-11-8-11l-6-3-6-2-1 3h-2c-2-1-3 2 0 6l1 2c-3 1-3 13-1 17l1 2-2 1c-5 1-12 5-16 8-3 2-4 5-2 4h-3l1-2 2-2h-3c-3 0-3 1-1 2h1l-6-3 3-2c2-2 3-5 2-6-2-1-3-1-3 1s-1 2-4 1v2l-1 2-5 3-6 4-2 2 1 2 3 2 1 1 7 6 6 2c4 0 4 0 8-4l4-2v1l-1 1c0 1 2 0 3-2 0-1 0-2 0 0l2 1c2 0 5-4 4-5s-1-2 5-8c4-4 7-5 10-3l1 3c0 1 3 4 5 4l2 1-1 1c-3 0-3 1-2 4l2 3-5 1-8 2-3 2 2 3c2 5 3 9 2 10l-1 1-2 3c-3 2-5 6-5 8s0 2-2 3l-11 3c-8 4-21 15-20 17l6 2 7 2 3 6 3 8 2 4 4-5 6-6 3 1 3 1 2 1 2 1h3c3 3 11 2 15-2h3l3-1 3-1 3 11c4 13 4 15 6 16 3 1 4 1 5-1zm-12-37l2-1-3 2 1-1zm-6-2l2-1 2-1-3 2h-1zm7-2c0-1 0-2 1-1v2l-1-1zm-16-4c-1-1 0-2 1-2v2c0 2-1 2-1 0zm54 2l1-1s1 0 0 0l-1 1zm-38-2h2l-1 1-1-1zm37 0l1-1h1l-2 1zm1-3l1-1 1 1-1 1-1-1zm-42 0l1-1 1 1h-1-1zm-6-3h2l-1 1-1-1zm40-5h2l-1 1c-2 1-2 1-1-1zm-31-16h1-1zm6 0h1c1 0 1 0 0 0h-1zm-9-1h1l-1 1v-1zm14 0h2l-1 1-1-1zm19-3h0zm3-9c-1-1-1-1 0 0l2 1-2-1zm-96-3l-2-1 2 1 2 2-2-2zm7-10h0c-1 0-1 0 0 0zm-4-3h1-1zm62-22h0c-1 0-1 0 0 0zm-4-1h2l-1 1-1-1zm-19-2h0c-1 0-1 0 0 0zM78 76l1-8v1l-1 8v6zm19 4l1-3v3h-1zm9-4v-1l2 1h-2zm-7-1l4-11-1 3a467 467 0 00-3 8zm-4 136c-2-3-3-4-5-4l-5-3-3-2-1 3 1 4 2 3 10 2h3l-2-3zm40-1v-2h-4l-2 1 3 1c2 2 3 2 3 0zm27-2c0-2-1-4-3-4s-3 2-1 5c1 2 1 2 2 1l2-2zm-37-51h-2 2zm26-8c2-1 2-2 1-4v-2l2-2 1-2v-5-1l1-1 2-3c0-1 0-2 2-3 3-2 5-6 5-10v-4l-5 1-7 3h-3l1 3c2 5 0 11-4 13s-4 3-3 4 2 2 2 6c0 5 1 8 2 7h3zm-2-15v-1 1c1 1 0 1 0 0zm46 10c1-1 1-1-2-3h-4l1 1 2 2h3zm-63-3c1-1-1-4-4-7l-3-2-1 3-1 4c0 2 5 3 9 2zm-5-3h1l-1 1v-1zm72-1l-2-2-1-2-2-2c-2 0-2 1-2 3l3 4c3 2 4 2 4-1zm-85-1c-2-2-3-2-2 0l2 2v-2zm73-2h-1l-1 1h1l1-1zm-112-3l6-3c3-1 3-1 2-3v-8c-1-7-1-8-2-7l-1 7c1 1 0 3-3 7l-3 5-1 2h2zm125 1h-1c-1 0-1 0 0 0h1zm-133-4l-1-3-1 1 1 3c1 1 1 0 1-1zm120 0l1-1c0-1-3-4-6-4h-6l4 6c2 1 6 0 7-1zm-132-2c0-1-1-1-1 1l1 1v-2zm138 0v-1c-1-1-3 1-2 2s2 0 2-1zm6-1l2-7c-1-3-6 0-6 4 0 2 1 3 2 3h2zm-128-4v-3c-2 0-5 2-5 3 0 3 3 3 5 0zm121 2c2-2 0-9-3-10-2-1-3 4-1 6 2 3 1 3-1 1l-4-3-4-1c0-1 1-1 5 1l3 1-1-2-4-8-5-9c-2-5-4-5-5-1l-2 6-1 5c0 2 3 4 6 5 3 0 3 1 3 2v3c0 2 1 2 3 2l5 1 6 1zm-128-3c-1-1-3 1-2 2h1l1-2zm-6-2c1-3 0-5-2-7-1-1-3 1-3 5-1 5 4 7 5 2zm131-10l1-7c0-4-1-10-3-13-1-3-1-3-3-3l-3 3c-2 1-2 2-2 7l2 8 1 2c-1 1 4 8 5 7l2-4zm-110-1l-2 1c-2 2-2 2 0 1l2-2zm6-10h-1c0 1 1 3 2 2l-1-2z"/>
  <path fill="#473b4a" d="M123 247l-2-5v-5l-3-11-3-9h-2c-1 1-2 2-3 1l-4 2-6 2c-3 1-4 1-7-1l-4-1h-3l-1-1-3-1c-3-2-4-1-11 8l-2 1c-2-1-6-10-7-14l-1-4-7-2-7-3c-1-1-1-1 4-6 9-8 17-13 25-15 3-1 3-1 4-4l3-6c3-3 5-5 5-7l-2-5-2-6c1-1 7-4 11-4 4-1 4-1 3-3l-4-4-6-4-2-2-2 2-3 6-2 4c-1 2-8 6-9 5s-2-1-5 1l-4 2-4-1c-4 0-18-11-17-14 0-2 2-3 12-9v-9l-1-4c-2-4 0-9 3-12l2-2 2 2 3 2 2-3c3-2 3-3 2-5V87l1-6 1-4-5 1c-4 1-7 1-8-1l2-3c3-2 8-8 12-15s11-20 13-21c2-2 2-2 0-5l-2-2 2-2 3-2 3-3c3-5 11-9 17-8l4-1 3-1c1 0 3 0 5-2 3-2 6-4 11-4 6-1 15 1 19 4l4 1 4 1 4 2c4 1 10 6 11 9 0 2 2 3 3 4 3 3 3 5 0 7l-2 2 3 5a124 124 0 0112 24c1 2 9 6 10 6l3 1c1 1 1 1-2 4a38 38 0 01-8 5l1 5c2 5 3 15 2 20-1 2-1 3 1 6l3 3 1-1c3-2 5-2 7 0 2 3 3 8 1 10v7l-1 2-1 2c-1 0-2 1-2 3l-5 7c-3 1-3 1-4-1l-2-1c-1 0-3-2-2-3l-2-4-3-3-3-5c-4-3-6-7-4-9s1-5-2-6l-4-3-2-2v4c0 4-1 8-4 12l-3 3-1 2c-1 1-2 2-1 4l-3 8-1 3-1 3v1c3 0 16 8 16 10l-3 3c-3 2-3 4-1 6l3 1 4 1c2 2 5 9 4 9v3l1 4 3 2c3 0 5 4 3 6l3 4c4 3 8 10 11 16 2 4 1 5-5 4l-14-1-3 5c-3 6-4 7-5 6l-1-1-5-11-3 1-6 1-10 1-5 1-4 1-1 6-5 18c-2 3-4 3-7 1zm2-3c0-1 0-1 0 0v0zm5-3l2-8 2-11 1-3h4l6-1 11-1 6-1 2-1 3 5c4 8 4 8 7 2l2-5 4-1 13 1h3l-1-2c-4-9-13-20-15-19v-1c2-2 2-4 0-5-2 0-2 0-3 5-3 7-3 8-8 9-4 2-6 3-8 6-1 3-5 4-13 5-7 1-10 1-14-2l-6-3c-4-2-6-2-15 2-10 4-20 5-27 2-3-2-9-9-11-14s-2-6 3-11c3-4 4-4 5-3v4l1 4c0 4 1 7 3 9h9l2 1h12v-1l2 1 2 1 1 1 3 1c4 0 5 0 5-5v-4h3c4-1 6-2 8-6l2-2 3-1 4-1c3 0 3 0 5 6 3 8 4 9 6 7h2l3-1 3-2c2 0 4-4 4-6v-1l2-1 2-1c2 0 4-4 4-6v-3-2l-1-3c0-2-3-4-5-3l-4-2c-3-1-3-5 0-8l3-2-2-2c-3-2-11-6-15-6l-3-1v3c0 5 1 5-18 5h-17l-1-4-1-3-1-1v-4c-2-6-2-16-1-16l14-1c2-1 2-8 0-10-1-1-1-1 1-3l5-2h2l-2 1c-3 1-4 3-2 4h1c1-1 1-1 2 2l2 3c1 0 3-1 3-3l4 1c3 1 6 1 6-1l2-3 2-2-2-1-9-1c-6 0-6 0-2-1h4v-1c1 1 8 3 11 2 9-1 13-3 18-11 2-2 2-4 3-8v-5l-6-2a555 555 0 01-9 0c0 3 0 3 0 0l-1-3-1 1v2h-1l-4-1c-6 0-8 1-8 2l-2-3-1-2c0 1 0 1 0 0l5-5c1 0 1-1-1-2-1-2-2-2-3-1-2 1-2 1-2 4l-1 4c0 2 0 1-2-1l-2-4-1 4-1 5-3-2c-4-1-10-7-10-9l-1-1-2 13v1c-1-2-1-2-7-2s-6 0-6 2l-1-1-1-5c1-3-1-2-2 1v-2l1-2 3-1 6 1c3 0 4 1 4 3 1 2 2 2 2 0a145 145 0 003-13c0 5 5 12 11 15l3 1v-3-14l1 4 4 9 1-6 1-3c0 2 0 2 2 1v-2l-2-2-2-4v-3l1 2c4 12 18 20 34 21 5 1 6 1 6-1l-6-15-2-4 4 4c4 7 10 10 14 9l7-3c4-3 4-3 2-3-5-2-7-4-10-7l-3-3-11-22-3-5 3-2c2-2 2-3 1-4l-2-2-2-4c-2-4-7-8-12-8l-3-2-3-1-4-1c-4-3-10-5-16-5s-10 2-14 5l-4 2-4 1-4 1c-3-1-10 0-12 2l-4 5c-1 3-2 3-4 4-3 1-4 3-1 5l2 1-3 4-12 19-12 17-3 2h5l6-1 2-1-1 11-1 7v14c-3 2-4 5-4 7 0 4 2 5 7 3l6-1c2 0 2 0 2-2v-2l-8 2-2 2h-1l2-5 1-4 2-2v-1 3c-1 1-3 5-2 6l2-1c2-1 3-1 2-2v-2c1 1 2-1 4-2l3-5a8775 8775 0 000-12l-1-5c0-1 0-1 0 0l5 9 6 3 7 4c2 1 2 1 1-4l-1-5v1l6 12 4 7c2 3 2 4 5 5l2 1c-2 0-2 1-1 3 1 1 1 1-2 1-2 1-2 1-2-1 0-1-3-4-7-4-2-1-2-1 2-1l4 1v-2c-2-5-6-11-8-11l-6-3-6-2-1 3h-2c-2-1-3 2 0 6l1 2c-3 1-3 13-1 17l1 2-2 1c-5 1-12 5-16 8-3 2-4 5-2 4h-3l1-2 2-2h-3c-3 0-3 1-1 2h1l-6-3 6-4 3 1h2v-1l-3-1h-2c-1 1-1 1-1-1v-2c-2-1-3-1-3 1s0 2-1 1h-3v2l-1 2-5 3-6 4-2 2 1 2 3 2 1 1 7 6 6 2c4 0 4 0 8-4l4-2v1l-1 1c0 1 2 0 3-2 0-1 0-2 0 0l2 1c2 0 5-4 4-5s-1-2 5-8c4-4 7-5 10-3l1 3c0 1 3 4 5 4l2 1-1 1c-3 0-3 1-2 4l2 3-5 1-8 2-3 2 2 3c2 5 3 9 2 10l-1 1-2 3c-3 2-5 6-5 8s0 2-2 3l-11 3c-8 4-21 15-20 17l6 2 7 2 3 6 3 8 2 4 4-5 6-6 3 1 3 1 2 1 2 1h3c3 3 11 2 15-2h3l3-1 3-1 3 11c4 13 4 15 6 16 3 1 4 1 5-1zm-12-37l2-1-3 2 1-1zm-6-2l2-1 2-1-3 2h-1zm7-2c0-1 0-2 1-1v2l-1-1zm-16-4c-1-1 0-2 1-2v2c0 2-1 2-1 0zm54 2l1-1s1 0 0 0l-1 1zm-38-2h2l-1 1-1-1zm37 0l1-1h1l-2 1zm1-3l1-1 1 1-1 1-1-1zm-42 0l1-1 1 1h-1-1zm-6-3h2l-1 1-1-1zm40-5h2l-1 1c-2 1-2 1-1-1zm-31-16h1-1zm6 0h1c1 0 1 0 0 0h-1zm-9-1h1l-1 1v-1zm14 0h2l-1 1-1-1zm19-3h0zm3-9c-1-1-1-1 0 0l2 1-2-1zm-96-3l-2-1 2 1 2 2-2-2zm7-10h0c-1 0-1 0 0 0zm-4-3h1-1zm62-22h0c-1 0-1 0 0 0zm-4-1h2l-1 1-1-1zm-19-2h0c-1 0-1 0 0 0zM78 76l1-8v1l-1 8v6zm19 4l1-3v3h-1zm9-4v-1l2 1h-2zm-7-1l4-11-1 3a467 467 0 00-3 8zm-4 136c-2-3-3-4-5-4l-5-3-3-2-1 3 1 4 2 3 10 2h3l-2-3zm40-1v-2h-4l-2 1 3 1c2 2 3 2 3 0zm27-2c0-2-1-4-3-4s-3 2-1 5c1 2 1 2 2 1l2-2zm-37-51h-2 2zm26-8c2-1 2-2 1-4v-2l2-2 1-2v-5-1l1-1 2-3c0-1 0-2 2-3 3-2 5-6 5-10v-4l-5 1-7 3h-3l1 3c2 5 0 11-4 13s-4 3-3 4 2 2 2 6c0 5 1 8 2 7h3zm-2-15v-1 1c1 1 0 1 0 0zm46 10c1-1 1-1-2-3h-4l1 1 2 2h3zm-63-3c1-1-1-4-4-7l-3-2-1 3-1 4c0 2 5 3 9 2zm-5-3h1l-1 1v-1zm71-1l1-2c2-1 2-1-1-2l-3-1-1-1c-2 0-2 1-2 2v1l-5 3h2c3-1 4-1 6 1 3 2 4 2 3-1zm-84-1c-2-2-3-2-2 0l2 2v-2zm75-2c2-1 1-2-1-2-3 0-3-2 0-3 2 0 2-1 2-2l-2-3c-3-2-12-3-12-1 0 3 4 7 7 8 1 0 2 1 2 3s0 2 1 1l3-1zm13-2v-6c2-4 1-10-3-10-2 0-7 6-5 7 1 1 3 5 2 6 0 3 5 5 6 3zm-127-1l6-3c3-1 3-1 2-3v-8c-1-7-1-8-2-7l-1 7c1 1 0 3-3 7l-3 5-1 2h2zm-5-3l3-6 2-4h-7c-2 2-3 4-3 8 0 2 0 3 2 4s2 1 3-2zm124 0c1-2 0-4-2-4s-2 0-1 3 3 3 3 1zm-137 0l2-10 1-3-1-3c-2-2-3-2-5 0s-2 6-1 9l1 4-1 3h4zm6-5l1-2v-2c-4 0-5 5-1 6v-2zm129 0c2-2 0-9-3-10-2-1-3 4-1 6 2 3 1 3-1 1l-4-3-4-1c0-1 1-1 5 1l3 1-1-2-4-8-5-9c-2-5-4-5-5-1l-2 6-1 5c0 2 3 4 6 5 3 0 3 1 3 2v3c0 2 1 2 3 2l5 1 6 1zm-3-15l1-7c0-4-1-10-3-13-1-3-1-3-3-3l-3 3c-2 1-2 2-2 7l2 8 1 2c-1 1 4 8 5 7l2-4zm-110-1l-2 1c-2 2-2 2 0 1l2-2zm6-10h-1c0 1 1 3 2 2l-1-2z"/>
  <path fill="#383349" d="M124 247c-2-1-2-2-2-5l-1-4-3-11-3-10-2 1h-4l-2 1c-2 2-8 4-11 3l-4-1-3-1h-2l-4-2-3-1c-1-1-5 3-8 8l-3 2-7-14-1-4-6-2-8-3-2-1 5-4c9-8 18-14 26-16 3-1 3-1 4-4l4-6 4-7-2-5-2-5c1-2 5-4 9-5l5-1c1 0-1-5-3-6l-6-3-3-3-2 2-3 5c0 3-3 7-5 8l-4 1h-2l-4 2c-3 2-3 2-7 2l-6-2-14-13c0-1 5-5 11-7l2-2v-6l-1-8-1-3c0-3 3-7 5-8h3l3 2 2-3 2-4a66 66 0 011-24v-3l-6 1-6-1c-1-1-1-1 2-2 3-3 8-9 13-18 4-8 11-18 13-20 1-1 1-1-1-3l-2-3 2-2 3-2 3-3 4-5c3-2 10-4 13-3l4-1 3-1 5-2c5-4 12-5 19-4l11 5h4l4 1 3 2c5 1 11 6 12 10l3 3c3 3 3 5 0 7l-2 2 3 5a131 131 0 0112 24l10 6 3 1c1 1 1 1-2 4a31 31 0 01-8 5l1 5c2 6 3 14 2 19-1 3-1 3 1 7l2 3 2-1 3-1c2-1 3 0 4 2 2 2 2 2 2 6a108 108 0 00-2 10v2l-1 2c-1 0-2 1-2 3l-5 7c-3 1-4 0-4-2h-2c-1 0-3-2-2-3l-2-4-3-4-2-3c-3-1-6-6-6-8l1-2 1-3c0-2-1-3-3-3l-4-3-2-2v4c0 4-1 8-4 11l-3 4-2 3-1 2c1 2 1 4-1 7l-2 6-1 2 2 2c5 2 14 8 14 10l-3 2-3 3c0 2 3 4 5 4 3 0 6 3 6 5l1 2c1 1 2 3 1 4v3c0 3 2 5 4 5l3 1v3c0 3 0 3 3 5 5 5 12 18 11 20l-2 1-16-1-4 5-3 5c-1 2-3 1-3-1l-2-4-2-4c-1-2-2-2-4-1l-7 1-9 1-6 1c-3 0-4 0-4 2l-4 19c-2 7-4 8-7 5zm2-3l-1-1-1 2c1 1 2 1 2-1zm4-3l2-8 2-11 1-3h4l6-1 11-1 6-1 2-1 3 5 3 7c0 2 2 0 4-5l2-6 10 1h10l-2-4c-2-6-7-12-11-15l-3-3c1 0 3-3 2-4l-2-1c-2 0-2 0-3 2 0 4-2 9-4 10l-3 2c-4 1-7 3-8 5-2 4-6 5-13 6-8 1-10 1-15-2l-7-4c-3-1-4-1-8 1l-8 3c-5 2-13 3-19 2s-6-1 1-1c4 1 5 0 5-1 1-1 0-4-3-5-8-3-9-4-12-9-2-5-3-5-4-4-2 1-1 9 1 13l1 1-7-13 2-5 6-5 1 1v1 2l1 4c0 8 4 11 10 9h2l3 1 5 1c4 0 7 0 6-2v-1l1 1 2 2 2 1 3 1c4 0 5-1 5-6v-3h3c3-1 7-3 8-6 1-1 1-2 3-2l3-1 3-1c2 0 3 0 4 3l2 5 2 4c1 2 1 2 3 1h2l3-1 4-2c2-1 3-3 3-5l1-2 1-1 2-1c2 0 4-4 4-6l1-3-1-2-1-3c0-2-3-4-5-3-4 0-7-4-6-7l3-3 3-2-3-2c-5-3-11-6-15-6l-3-1v2l-1 4v2h-34l-1-3v-4l-1-1-3-16v-4h5a188 188 0 0012-2c1-2 0-8-2-9-1-1-1-1 1-2l4-3c2 0 1 0 0 1-4 2-4 3-2 7 1 3 3 5 3 3v-3-2l2 4 2 4 1-2 1-3c0-1 0-2 2-1 6 2 12 1 13-2v-3l-4-2-2-1h3c3 1 5 2 6 7 0 6-1 9-7 11-2 1-3 2 0 4l1 4c0 4 1 11 2 9l2-1c2 0 3-1 2-3-1-1 0-2 1-3l1-2 1-2v-5c-1-1-1-2 1-2l2-3c0-1 0-2 2-3 4-2 6-9 5-13l-1-2-2 1-2 2 2-3c5-3 8-9 9-14s0-7-2-7l-12-3h-3-3l-3 1h-1l-4-1c-2 0-3 0-3 2l-1-1-1-3c0 1 0 1 0 0l5-5v-1l2 1c6 5 19 9 27 9 3 0 4-1 4-2l-5-14c-3-5-3-5 1-1 1 3 4 5 6 7 6 4 9 4 16-1 3-3 4-4 1-4-2 0-8-3-10-6l-6-11-8-15c-3-4-3-4-2-5l4-4c0-1-2-4-4-4l-1-2c-1-4-7-9-12-9l-2-2-4-1c-2 0-3 0-5-2-4-2-9-4-15-4s-10 1-13 4l-5 3-4 1-4 1c-2-1-8 0-11 2-2 0-3 2-5 5l-3 4-4 2 2 3 1 2-3 3-11 19c-4 8-9 14-13 17l-2 2h3l7-1 4-1-3 14v18c-3 2-4 5-4 8 0 2 0 2 2 3h4l2-1-2 1c-2 1-3 4-3 8 0 3 0 4 3 4 1 1 1 0 2-2l3-6c3-4 3-5 0-5h-2l3-1c3 0 4 0 4-3 0-2-1-2-7 1l-4 1 1-3c0-3 1-4 2-5l1-2c0-1 0-1 0 0l-1 3-1 5 10-5c1-2 0-2-3 0-2 2-2 2-3 1 0 0 0-1 0 0l4-3c3-3 3-4 4-9l-1-8-1-3 1 2c1 3 5 6 12 10l7 3-1-3c-1-4-1-5 1-1l3 6 1 2-14-7-2 2-2 1c-3-1-3 2-1 5 1 3 2 3 1 4v16l1 2-2 1c-5 1-12 5-16 8-3 2-4 5-2 4h-3v-1-1c1 1 3-1 3-2l-3-1-3 2h-1c-2-1-2-2 0-4s5-2 7-1h2v-1l-3-1h-2l-1-1-1-3-2 2-1 1h-3l-1 1v2l-1 2-4 2-6 4-2 2 1 2 3 2 1 1 6 6 5 1 4 1 6-3 4-3v1l-1 1c0 1 2 0 3-2 0-1 0-2 0 0l2 1c2 0 5-4 4-5s-1-2 5-8l5-4 6 3-1 1-3-1h-3l2 2 3 1h3l4 2 2 1-2 1c-2 0-2 1-1 3 2 4 2 5-2 5l-8 2-4 2 2 4c2 4 3 9 2 9l-1 1-2 3c-3 2-5 6-5 8s0 2-2 3l-12 4c-9 4-20 14-19 16l6 2 7 2 3 6 3 8 2 4 4-5 6-6 3 1 3 1 2 1h2l3 1c3 3 9 2 14-1l4-1 4-1c2-2 3 0 6 11l3 13c1 3 6 4 7 1zm-45-28c2 0 2 1 1 1l-1-1zm27-11l4-2-4 2zm7-2h1v1c-1 1-1 0-1-1zm-16-4c-1-1 0-2 1-2v2c0 2-1 2-1 0zm12-3l1-1 1 1h-1-1zm-6-3h2l-1 1-1-1zm-55-38l-1-1 1 1 2 2-2-2zm95-18v-1 1c1 1 0 1 0 0zm-40-13l-2-3-2-2h2l1-3-1-1 1 1 4 3 2 1c-2 0-2 1-1 3 1 1 1 1-2 1h-2zm11-3h0c-1 0-1 0 0 0zm-4-1h2l-1 1-1-1zm-14-2h2l-2 1v-1zm50 0h1v1l-1-1zm-18 0l5-2h1l1 2h-7zm21 0h1c1 0 0 0 0 0h-1zM97 92c0-1 0-1 0 0v0zm17-1c-1-3-4-4-5-2h-2l-3-1-4 1c-1 1-1-2-1-4l1-2-2 1-1 1v-1l1-2 3-1 6 1c3 0 3 1 4 3l2 2 1 5v-1zm42-2v0zm-33-4c-2-1-7-6-7-8l2 2 6 7 2 1-3-2zm12 1v-1l1 1h-1zm-4-6v-4 4zm2 2l-1-2 2 2 1 2-2-2zm3 1h1v1l-1-1zm-58-6v-2 2zm58 1c0-1 0-2 1-1l2-1-1-3-2-4c0-1 0-1 0 0l2 2 1 3 2 2-2 1-2 2c-1 1-1 1-1-1zm-30-2v-1l2 1h-2zm9-2v-4l1 7-1-3zm21 0l1-1v2l-1-1zm-6-1h1l-1 1v-1zm-31 0l2-4-1 3-1 1zm2-5l1-2h1l-1 1-1 1zm57 144c3-1 5-5 4-7l-5-3c-3 0-4 1-5 4-1 4 0 7 3 7l3-1zm-21-6c0-2-3-5-5-5-1 0-4 3-5 6l4 3 4 2 1-2 1-4zm3-49l-1-2-11-1-11 1-2 1 2 1h23zm56-14l-3-2-4-1c-1 2 0 3 1 2l2 2c1 2 1 2 2 1l2-2zm-80-1l-2-1c-2 0-3 1-1 2l3-1zm17 0h-1c-2 0-2 0 0-1 1-1 0-4-4-7l-3-2-1 4v5l1 1h-1l4 1 5-1zm-6-4h1l-1 1v-1zm9 4h-3l3 1v-1zm63-4l-1-2c-1-1 0-1 1-1 2 0 2 0-1-2-5-2-6-2-6 0v1l-5 3h2c3-1 5 0 7 2s3 2 3-1zm-84-1l-1-1-1-2-1-1v3c1 2 3 2 3 1zm74-3c2-1 1-2-1-2-3 0-3-2 0-3 2 0 2-1 2-2l-2-3c-3-2-12-3-12-1 0 3 4 7 7 8 1 0 2 1 2 3s0 2 1 1l3-1zm13-2v-6c2-4 1-10-3-10-2 0-7 6-5 7 1 1 3 5 2 6 0 3 5 5 6 3zm-127-1l6-3 3-1-1-3-1-8v-6c-2 0-4 5-2 8 1 1 0 3-4 7-2 2-4 7-3 7l2-1zm119-3c1-2 0-4-2-4s-2 0-1 3 3 3 3 1zm-137 0l2-10 1-3-1-3c-2-2-3-2-5 0s-2 6-1 9l1 4-1 3h4zm6-5l1-2v-2c-4 0-5 5-1 6v-2zm130-2c1-4-4-12-5-8v7l1 1-2-1c-1-1-3-3-5-3l-3-2 4 1 4 1-4-8-1-1 2 2 3 3 3-12c0-4-1-11-3-13-1-3-1-3-3-3-4 1-5 3-5 9l1 9 2 4-2-2-3-6-3-4c-1-1-2 1-2 3l-1 5-2 6c0 2 2 4 6 5 3 0 3 1 3 2v3c0 2 1 2 3 2l5 1 4 1c2 0 2-1 3-2zM85 97l-1-1 1 3h1l-1-2z"/>
  <path fill="#4e2e32" d="M124 247c-2-1-2-2-2-5l-1-4-3-11-3-10-2 1h-4l-2 1c-2 2-8 4-11 3l-4-1-3-1h-2l-4-2-3-1c-1-1-5 3-8 8l-3 2-7-14-1-4-6-2-8-3-2-1 5-4c9-8 18-14 26-16 3-1 3-1 4-4l4-6 4-7-2-5-2-5c1-2 5-4 9-5l5-1c1 0-1-5-3-6l-6-3-3-3-2 2-3 5c0 3-3 7-5 8l-4 1h-2l-4 2c-3 2-3 2-7 2l-6-2-14-13c0-1 5-5 11-7l2-2v-6l-1-8-1-3c0-3 3-7 5-8h3l3 2 2-3 2-4a66 66 0 011-24v-3l-6 1-6-1c-1-1-1-1 2-2 3-3 8-9 13-18 4-8 11-18 13-20 1-1 1-1-1-3l-2-3 2-2 3-2 3-3 4-5c3-2 10-4 13-3l4-1 3-1 5-2c5-4 12-5 19-4l11 5h4l4 1 3 2c5 1 11 6 12 10l3 3c3 3 3 5 0 7l-2 2 3 5a131 131 0 0112 24l10 6 3 1c1 1 1 1-2 4a31 31 0 01-8 5l1 5c2 6 3 14 2 19-1 3-1 3 1 7l2 3 2-1 3-1c2-1 3 0 4 2 2 2 2 2 2 6a108 108 0 00-2 10v2l-1 2c-1 0-2 1-2 3l-5 7c-3 1-4 0-4-2h-2c-1 0-3-2-2-3l-2-4-3-4-2-3c-3-1-6-6-6-8l1-2 1-3c0-2-1-3-3-3l-4-3-2-2v4c0 4-1 8-4 11l-3 4-2 3-1 2c1 2 1 4-1 7l-2 6-1 2 2 2c5 2 14 8 14 10l-3 2-3 3c0 2 3 4 5 4 3 0 6 3 6 5l1 2c1 1 2 3 1 4v3c0 3 2 5 4 5l3 1v3c0 3 0 3 3 5 5 5 12 18 11 20l-2 1-16-1-4 5-3 5c-1 2-3 1-3-1l-2-4-2-4c-1-2-2-2-4-1l-7 1-9 1-6 1c-3 0-4 0-4 2l-4 19c-2 7-4 8-7 5zm2-3l-1-1-1 2c1 1 2 1 2-1zm4-3l2-8 2-11 1-3h4l6-1 11-1 6-1 2-1 3 5 3 7c0 2 2 0 4-5l2-6 10 1h10l-2-4c-2-6-7-12-11-15l-3-3c1 0 3-3 2-4l-2-1c-2 0-2 0-3 2 0 4-2 9-4 10l-3 2c-4 1-7 3-8 5-2 4-6 5-13 6-8 1-10 1-15-2l-7-4c-3-1-4-1-8 1l-8 3-15 3 2-1c3-2 3-2 3-4 1-3 0-3-1-4h-4c-1 1-3 0-6-1-4-2-4-3-6-7-3-5-4-6-6-5-3 1-2 7 1 12 2 2 2 3 1 3l-6-13 2-5 6-5 1 1v1 2l1 4c0 8 4 11 10 9h2l3 1 5 1c4 0 7 0 6-2v-1l1 1 2 2 2 1 3 1c4 0 5-1 5-6v-3h3c3-1 7-3 8-6 1-1 1-2 3-2l3-1 3-1c2 0 3 0 4 3l2 5 2 4c1 2 1 2 3 1h2l3-1 4-2c2-1 3-3 3-5l1-2 1-1 2-1c2 0 4-4 4-6l1-3-1-2-1-3c0-2-3-4-5-3-4 0-7-4-6-7l3-3 3-2-3-2c-5-3-11-6-15-6l-3-1v4l-1 4h-8l-8-1h6c5 0 7-1 6-3s-11-3-19-2-9 1-9 3c0 1 3 2 10 2h6l-5 1h-13l-1-3v-4l-1-1-3-16v-4h5a186 186 0 0011-1c1 0 2-3 1-6s0-4 1 0l3 5 1-1v-3c1-1 1 0 1 1l1 4c1 2 1 2 2 1l2-5v-3l2 1 5 1h4l3 1 1-4c0-3 0-4-3-5v-1c3 0 6 6 5 11-1 2-3 5-7 6-2 1-3 2 0 4l1 4c0 4 1 11 2 9l2-1c2 0 3-1 2-3-1-1 0-2 1-3l1-2 1-2v-5c-1-1-1-2 1-2l2-3c0-1 0-2 2-3 4-2 6-9 5-13-1-2-1-2-2-1l-2 1 3-3c5-5 7-8 7-15l1-5-5-1c-7-1-6-1 2-1l7 1-3-12-2-5 2 5 3 6h1l5-1c6 0 9-1 13-5 2-2 2-3 0-3s-8-3-10-6l-6-11-8-15c-3-4-3-4-2-5l4-4c0-1-2-4-4-4l-1-2c-1-4-7-9-12-9l-2-2-4-1c-2 0-3 0-5-2-4-2-9-4-15-4s-10 1-13 4l-5 3-4 1-4 1c-2-1-8 0-11 2-2 0-3 2-5 5l-3 4-4 2 2 3 1 2-3 3-11 19c-4 8-9 14-13 17l-2 2h3l7-1 4-1-3 14v18c-4 3-5 9-3 11l-1 1-1 5h1c1 1 1 0 1-1l1-2 1-2 1-1c2 0 2 0 1 1l-2 6c0 4 0 5 3 5 1 1 1 0 2-2l3-6c3-4 3-5 0-5h1l4-1v-2c0-4-1-4-7-1l-3 1 3-2 3-2 2-3 5-6c2-3 3-4 4-2 0 2 1 1 1-1l-2-4c-2-1-5-5-4-6 0 2 5 6 11 9 7 4 9 4 8 3-1-3-1-4 1-1l3 5 2 2-2-2-6-3-7-3-2-1-1 2c0 2-1 3-2 2h-2c-1 1-1 3 1 6 2 2 2 2 1 3v16l1 2-2 1c-5 1-11 4-15 7l-3 1-1-3h-4l-2 2c0 2-1 2-1 1-1-1 2-4 4-5l4 1h2l-2-2-3-1v-1l-1-2h-2l-1 1-1 2c-3 0-4 0-4 2v2l-5 3-6 4-2 2 1 2 3 2 1 1 6 6 5 1 4 1 6-3 4-3v1l-1 1c0 1 2 0 3-2 0-1 0-2 0 0l2 1c2 0 5-4 4-5s-1-2 5-8l5-4 6 3h-1c-2-2-5-2-5 0s4 4 5 3h2l4 2 2 1-2 1c-2 0-2 1-1 3 2 4 2 5-2 5l-8 2-4 2 2 4c2 4 3 9 2 9l-1 1-2 3c-3 2-5 6-5 8s0 2-2 3l-12 4c-9 4-20 14-19 16l6 2 7 2 3 6 3 8 2 4 4-5 6-6 3 1 3 1 2 1h2l3 1c3 3 9 2 14-1l4-1 4-1c2-2 3 0 6 11l3 13c1 3 6 4 7 1zm-40-26h1-1zm22-13l4-2-4 2zm7-2h1v1c-1 1-1 0-1-1zm-16-4c-1-1 0-2 1-2v2c0 2-1 2-1 0zm12-3l1-1 1 1h-1-1zm-6-3h2l-1 1-1-1zm-55-38l-1-1 1 1 2 2-2-2zm9-11h-1l2-1h1l1 1h-3zm86-7v-1 1c1 1 0 1 0 0zm-40-13c0-2-2-4-3-5-1 0-1 0 0 0l2-1 4 1 2 1c-2 0-2 1-1 3 1 1 1 1-2 1h-2zm13-1c-1-1 0-1 1-2l3-2-1 1-2 2-1 1zm-2-2h0c-1 0-1 0 0 0zm-4-1h2l-1 1-1-1zm28-2h2l-1 1-1-1zm-10 0l5-2h1l1 2h-7zm-20-24l-1-2v-1c1 0 2 3 1 4v-1zm-15-2v-4l1-2-2 1h-1c0-2 1-2 5-3 3 0 9 1 9 3h-3c-5-3-8-2-8 3 0 3 0 3-1 2zm40-1l-1-3c0 1 0 1 0 0l5-5v-1l2 1 6 3c3 2 3 2 3 4h-1l-8-5c-3 0-5 2-5 5v3zm7-1h1v1c0 1-1 1-1-1zm-26-4h1l1 1-2-1zm11 0v-1 1zm5 0h1v1l-1-1zm-18-3c-1-1-1-1 0 0l1 1-1-1zm13-3v-1l1 1-1 2v-2zm7 0l1-1-1-3-2-3 2 3 3 3-2 1-2 1 1-1zm-32-1v-1l2 1h-2zm9-1l1-1v2c-1 1-1 0-1-1zm21-1l1-1v2l-1-1zm23 138l3-4 1-2-2-2c-3-3-4-3-8-2-4 2-5 4-2 9 1 3 1 3 3 2l5-1zm-22-6c2-6 2-6 1-8-2-2-4-2-7 0l-5 8c0 2 0 2 4 4l5 2 2-6zm58-61c2-2 2-5 1-6s0-1 0 0c3 2 3 2 3-1-1-3-1-3 1-3 1 0 1-1-1-1l-3-2c-1-1-4-1-4 1l-3 2-2 2 1 1 2-1h3l2 1h-2c-2-1-3 1-5 4l2 1c1-1 1 0 2 1 0 2 1 2 3 1zm-79-3c0-3 0-3-2-3s-4 2-4 3l4 2c2 0 2 0 2-2zm17 0c-1-4-2-6-5-8l-3-2-1 2a14304 14304 0 010 7c-1 2 0 3 4 3h5v-2zm-6-4h1l-1 1v-1zm9 4h-3l3 1v-1zm7 0v-1l-1 1h1zm-28-5l-1-1-1-2-1-1v3c1 2 3 2 3 1zm74-3c2-1 1-2-1-2-3 0-3-2 0-3 2 0 2-1 2-2l-2-3c-3-2-12-3-12-1 0 3 4 7 7 8 1 0 2 1 2 3s0 2 1 1l3-1zm13-2v-6c2-4 1-10-3-10-2 0-7 6-5 7 1 1 3 5 2 6 0 3 5 5 6 3zm-127-1l6-3 3-1-1-3-1-8v-6c-2 0-4 5-2 8 1 1 0 3-4 7-2 2-4 7-3 7l2-1zm119-3c1-2 0-4-2-4s-2 0-1 3 3 3 3 1zm-137 0l3-11v-2l-1-3c-2-2-3-2-5 0s-2 6-1 9l1 4-1 3h4zm136-7c0-2-1-6-3-8-1-2-2-2-3 0l-1 2 1-3 2-6c1-6 0-15-2-20-1-3-1-3-5-3l-3 1-2 1v2c0 3 0 3-2 3h-2l-1 4c0 4 0 6-2 9-3 7-2 9 5 11 2 0 3 1 2 2l1 3c0 2 1 2 3 2l4 1 5 1c2 0 3 0 3-2zm-6-2l-1-1c1-1 1 0 2 1 1 2 0 2-1 0zm-7-3l1-1v1h-1zm0-11c-2-2-4-7-3-7l2 4 1 3zm-4-9v-1 1c0 1 0 0 0 0zm-97 13c4-2 5-2 3-4-1-1-1-1-4 2l-3 3 4-1z"/>
  <path fill="#2e2934" d="M125 248c-2-1-3-2-3-6l-1-4-3-11-3-10-2 1h-3l-3 1-6 3c-4 1-7 0-9-2h-3l-4-1c-5-3-6-3-10 2l-5 5-1 1-7-15c-1-3-1-3-6-4-7-2-10-4-10-5l14-12c6-4 13-8 17-8l3-4 4-6c5-5 5-6 2-13-2-3-2-4-1-5s7-4 10-4l4-1c0-2-3-5-6-7l-5-4-2-2-2 3-3 6c0 2-3 6-7 7-3 1-3 2-4 1s-2 0-4 2c-3 2-3 2-6 1h-4c-2 0-10-6-14-11l-3-3 3-2c1-2 4-3 6-4 4-2 6-4 4-5v-5l-1-6c-1-3-1-6 1-9 3-4 4-4 7-2l2 1 2-3c3-3 3-3 2-5V87l1-6 1-4h-2l-6 1c-6 0-7-1-3-4l12-14 13-22 2-2-2-2-1-3 4-4 3-3 4-5c3-2 10-4 13-3h4l3-2c2 0 3 0 5-2 4-3 4-3 10-4h9l12 5h2l4 1 5 3c5 1 9 5 11 8 0 2 2 4 3 5 3 2 3 4 0 7l-2 2 2 3 8 15 6 11 10 5 1 1c1 1 1 1-1 3l-5 4-3 3 1 4c2 6 3 14 2 18s-1 5 1 8l3 3c6-3 6-3 9 0l1 6a116 116 0 00-2 9v2l-1 2-2 4c-1 5-8 9-9 6 0-1-1-2-2-1-1 0-3-2-2-3l-2-4-3-4-2-2c-2-1-4-4-5-7v-4l1-3c0-2-1-3-3-4l-4-2-2-2-1 5c0 5-1 9-4 11l-3 3-1 3-1 2c1 1 0 5-2 8-1 2-2 3-1 4l-1 3v1l14 8 2 3-3 2c-4 3-3 7 2 7 2 0 6 3 6 5l1 2c1 1 2 3 1 4l1 6 3 2c3 1 4 2 3 5-1 2 0 2 3 5 5 4 12 17 11 19l-3 1-10-1h-7l-2 6-4 5v-1l3-6 4-5h14l4 1c1-1-2-7-6-12l-6-8c-3-2-3-2-3-4 2-2 1-4-2-4l-3 5c-2 7-3 8-7 9l-5 2c-2 2-2 2-2 0 1-2-3-5-6-4l-2-1h2l3-1a557 557 0 017-6l1-3 1-1 2-1c2-1 5-3 4-6v-2-3l-1-3c0-2-3-4-5-4h-4l-2-4c0-2 1-3 3-4l3-3-3-2c-3-3-10-6-14-7l-3-1h1l2-1c1-1 2-1 1-3v-2l4-6v-3c-1-2 0-2 1-3s2-3 1-4l2-2c4-2 5-5 5-10s0-6-2-4l2-3c4-4 6-8 6-14l1-5-5-1c-7-1-6-1 2-1l7 1-3-12-2-5 2 5 3 6h1l5-1c6 0 9-1 13-5 2-2 2-3 0-3-5-1-12-6-13-11l-11-21-3-4 3-2c3-2 3-4-1-6l-2-3-3-6-8-4-4-1-3-1-3-1c-1-1-7-4-11-4-8-2-15-1-20 4l-5 2-3 1-3 1c-1-1-7-1-11 1-3 1-6 4-7 7l-2 3-3 1-2 1 2 2 2 2-3 4-12 20c-5 8-9 14-12 16l-2 2c2 1 7 0 11-1l2-1v4l-2 8v16c1 2 1 2-2 5-2 2-2 3-2 6l1 4-1 1c-2 2-2 5 0 5 1 1 1 1 1-1l1-2 1-2 1-1c2 0 2 0 1 1l-2 6c0 4 0 5 3 5 1 1 1 0 2-2l3-6c3-4 3-5 0-5h1l4-1v-2c0-4-1-4-7-1l-3 1 3-2 3-2 2-3 5-6c2-3 3-4 4-2 0 2 1 1 1-1l-2-4c-2-1-5-5-4-6l2 4 17 9 2 1c0 1-1 1-4-1l-7-3-2-1-1 2c0 2-1 3-2 2h-2c-1 1-1 3 1 5 1 3 2 3 1 4-2 1-2 11 0 15l1 3a260 260 0 01-15 6l-5 3-1-2-2-2c-2 1-5 3-4 4h-1c-1 0 0-3 3-4h7l-2-2-3-1v-1l-1-2h-2l-1 1-1 2-4 1c1 1-1 4-5 6l-6 4-3 1 2 3c4 5 12 11 15 11h3c2 1 3 0 6-2s3-3 4-2l3 1 2-1c2 0 5-4 5-7-1-2 7-10 10-10 2-1 5 1 5 2h-1c-2-2-5-2-5 0s4 5 5 3h2l4 2c3 0 3 1 0 2-2 0-2 1-1 4 2 3 1 3-1 3l-12 4-1 1 2 5 2 5c0 2-2 6-4 7-1 1-4 5-4 8l-4 3c-6 1-12 4-18 8l-12 12 8 2 7 3 1 3c1 5 5 14 6 14l4-4 5-6h3l4 1 2 1 2 1 4 1 7 1 6-3 4-1 3-1c2-1 3 0 4 2a1917 1917 0 019 27l2-2c2 0 3-3 5-15l2-8h5l6-1 8-1 8-2 2-1 2 4 3 5 1 4-1-1-6-10-2 1-8 1-8 1-5 1h-4l-1 3c-1 9-4 19-5 22-2 2-3 3-5 2zm70-103c2-2 2-5 1-6s0-1 0 0c3 2 3 2 3-1-1-3 0-3 1-3s1-1-1-1l-3-2c-1-1-4-1-4 1l-3 2-2 2 1 1 2-1h3l2 1h-2c-2-1-3 1-5 4l2 1c1-1 1 0 2 1 0 2 1 2 3 1zm-6-11c2-1 1-2-1-2-3 0-3-2 0-3 2 0 2-1 2-2l-2-3c-3-2-12-3-12-1 0 3 4 7 7 8 1 0 2 1 2 3s0 2 1 1l3-1zm-116-2l7-3 4-3c-1-3-2-6-1-11 0-5 0-6-2-5-1 1-2 7-1 9l-3 5-3 5-3 3c-2 3-2 3 2 0zm129 0v-6c2-4 1-10-3-10-2 0-7 6-5 7 1 1 3 5 2 6 0 3 5 5 6 3zm-8-4c1-2 0-4-2-4s-2 0-1 3 3 3 3 1zm-137 0l3-11v-2l-1-3c-2-2-3-2-5 0s-2 6-1 9l1 4-1 3h4zm136-7c1-3 0-5-2-7-2-3-3-3-4-1l-1 2 1-2c4-6 4-18 0-27-1-3-2-3-5-3l-3 1-2 1v2c0 3 0 3-2 3h-2l-1 4c0 4 0 6-2 9-2 4-2 5-1 7 0 2 5 4 8 4v2l1 3c0 2 1 2 3 2l4 1 5 1c2 0 3 0 3-2zm-6-2l-1-1c1-1 1 0 2 1 1 2 0 2-1 0zm-7-3l1-1v1h-1zm0-11c-2-2-4-7-3-7l2 4 1 3zm-4-9v-1 1c0 1 0 0 0 0zm-97 13c4-2 5-2 3-4-1-1-1-1-4 2l-3 3 4-1zm60 106l-4-3 2-6c2-6 2-7 0-9-3-2-9 3-10 8v3l-3 1-11 3-12 3c-4 0-4 0-2-1s2-1 2-3l-1-4h-4c-1 1-3 0-6-1-4-2-4-3-6-7l-4-5c-3-2-5 3-3 9v1l-2-5-2-4 2-2c4-6 8-9 8-5v2l1 3c-1 2 1 8 2 9 1 2 6 2 9 1h1l11 2 7 1 5 1c3 0 3 0 4-2v-4c0-3 1-3 2-3 3 0 6-2 8-4l2-3 1-1c2 1 2 0 3-1l4-1c3 0 3 0 4 4l1 4 4 6v1c-3 0-4 4-1 8 1 3 1 3 3 3h1l-13 2-3-1zm-48 0h1-1zm69-4l1-1-1 1-1 1 1-1zm-48-52l-1-7-1-1-2-11-1-2v-4c1-2 1-3 2-2l2 2 2 4 7-3-1-1-2 1c-3 2-4 1-4-1l1-2 5-1c6-1 6-2 5-7-1-3 0-4 1 0l3 5 1-1v-3c1-1 1 0 1 1l1 4c1 2 1 2 2 1l2-5v-3l2 1 5 1h4l3 1 1-4-1-4-1-2c2 0 3 3 4 7 0 4-1 7-6 10l-3 2 1 2c2 1 2 7 3 16 0 6-1 7-10 6-6-1-6-1-2-1 5 0 7-1 7-3s-9-3-19-2c-8 1-9 1-9 3 0 1 3 2 9 2h6a84 84 0 01-17 1zm4-17c0-3 0-3-2-3s-4 2-4 3l4 2c2 0 2 0 2-2zm17-1l-3-6-3-1c-3-3-3-2-3 6v3l4 1h5v-3zm-6-3h1l-1 1v-1zm12 5c1-1-3-4-4-4s-2 2-1 4h5zm-17-3c1-3 0-3-3-2-1 1-2 1-2 3s0 2 3 2c2-1 2-1 2-3zm21 2v-1l-1 1h1zm-34-21c1-1-2-5-3-5h4l2 1 1 2c0 2 0 2-2 2h-2zm13-1l1-2h1l-1 2h-1zm16-5h1-1zm-38-29c0-3-1-4-3-2 0 1 0 1 0 0s2-2 6-2l8 2h-3l-4-2c-2 0-4 2-4 5v-1zm13 3v-1l1 1h-1zm26-2c-1-3 0-4 3-6 1 0 2-1 1-2l3 1c1 1 3 3 5 3l3 3c0 2 0 2-1 1l-8-5c-3 0-5 2-5 4v3zm7 0h1v1c0 1-1 1-1-1zm-15-10v-1 1zm-16-2l1-1v2l-1-1z"/>
  <path fill="#2e131a" d="M125 248c-2-1-3-2-3-6l-7-25h-2l-3 1-4 1-5 3c-4 1-7 0-9-2h-5l-2-1-3-2c-3-1-4 0-9 5l-4 5-6-13-2-5-6-2-8-2v-3l15-12c4-3 11-7 15-7l3-4 4-5 2-4 1-1c1-1 1-4-1-9-2-4-2-4-1-5l12-5h2c0-2-3-5-4-6l-6-4-3-3-3 4c-2 2-2 3-2 5 1 3-8 10-11 8-1-1-2 0-4 2-3 2-3 2-6 1h-4-1c-2 0-11-8-13-11l-3-3 3-2c1-2 4-3 6-4 4-3 5-4 4-7v-5l-1-4-1-4c0-3 4-9 6-9l3 2h3l2-3 2-2-1-3V87l1-6v-4l-6 1-5-1v-2c4-3 9-9 12-15l14-22 2-2-2-2-1-3c0-1 3-4 5-4l1-2 7-7 11-2h3l4-2c2 0 4 0 5-2 7-5 19-6 28 0l6 2h3l5 2c5 2 9 5 11 9l3 5c3 2 3 4 0 7l-2 2 2 3 8 15 6 11 9 5 2 1c1 1 1 1-1 3l-5 5c-3 1-3 2-3 3 3 10 4 16 3 21-1 4-1 4 1 8l3 3 2-1c3-2 5-2 7 2l1 5-1 6-1 4v1l-1 2-2 4c-2 6-8 9-9 6l-2-2c-2 1-2 0-2-2s0-3-2-4l-3-4-2-2c-3-2-7-10-5-11l1-3c0-2 0-3-3-3l-4-3c-3-2-3-2-3 1 1 5 0 9-3 12l-3 2-1 2-1 3-1 2c1 3 0 5-2 8-1 2-2 3-1 4l-1 3v1c2 0 10 5 13 8l3 2-3 3c-4 3-3 7 2 7 2 0 6 3 6 5l1 2 1 3c-1 2-1 6 1 7l3 2c3 1 4 2 3 5-1 2 0 2 3 5l10 15c2 5 1 5-4 4h-9c-5 0-6 0-7 2l-3 6c-2 4-2 4-6-3-2-5-3-5-4-5a238 238 0 01-18 2l-5 1c-5 0-4-1-6 9l-5 17c-1 2-2 2-4 1zm2-3l1-2c2 0 3-3 5-15l2-8h5l6-1 8-1 8-2 2-1 2 4 3 5 1 3c0 2 1 1 4-4l4-6h14l4 1c1-1-2-7-6-12l-6-8-3-3c2-2 2-4 0-5l-3 1h-1c0-2-1-1-1 1v1c2-3 0 3-1 6l-2 3c0-2-3-5-5-5l-2 1c-1 3-5 4-7 3-1-1-1-1 1-1l2-1c2 0 4-4 4-6l1-2 1-1 2-1c3-1 5-3 4-6v-2-3l-1-3c0-2-3-4-5-4h-4l-2-4c0-2 1-3 3-4l3-3-3-2c-3-3-10-6-14-7l-3-1 1-1h2c1-1 2-1 1-3v-2l2-2 2-3v-4c-1-2 0-2 1-3s2-3 1-4l2-2 4-3c1-3 2-8 1-10s-1-3 2-5l1-1c-1 2 2 6 7 7 2 0 2 1 2 3l1 4-1 1c-2 0-2 0 0 3 1 3 4 6 6 6l1 2 1 3 6-3c0-1 0-1 0 0 0 0-2 3-4 3v2h2c2-1 2-1 1 1-2 1-2 5-2 5l2-1 1 1 1 2 3-1 2-3 1-2 1-2 1-3c1 0 2 0 1-1l1-1v-3l1-4c1-3 1-7-1-9l-4-1-3 3c-2 2-2 2-2 0l-3-6-1-4c2-8 2-9 1-14l-2-8c-2-4-2-4 0-6 4-1 9-5 9-6l-1-1c-2 0-10-4-11-6l-6-11-7-14-4-5 3-2c3-2 3-4-1-6l-2-3-3-6-8-4-4-1-3-1-3-1c-1-1-7-4-11-4-8-2-15-1-20 4l-5 2-3 1-3 1c-1-1-7-1-11 1-3 1-6 4-7 7-1 2-1 3-3 3l-3 1c-1 1-1 1 1 3l2 2-3 4-12 20c-5 8-9 14-12 16-5 3-2 3 6 2l5-1-2 14v13c1 2 1 3-2 5l-2 6c0 2 0 2-1 1-1-2-4-6-5-5-2 0-4 4-4 7l1 3v15l-5 3-6 3-2 2 2 2c4 5 12 11 15 11h3c2 1 3 0 6-2s3-3 4-2l3 1 2-1c2 0 5-4 5-7-1-1 0-2 2-4l6-5c-1 1 2 4 7 6l3 3 1 3c2 3 1 3-1 3l-12 4-1 1 2 5 2 5c0 2-2 6-4 7-1 1-4 5-4 8l-4 3-8 3c-5 2-15 9-20 14-3 3-3 3 7 6l6 2 1 3c1 5 5 14 6 14l4-4 5-6h3l4 1 2 1 2 1 4 1 7 1 6-3 4-1 3-1c2-1 3 0 4 2a1917 1917 0 018 28l2-1zm-26-31l2-1 3-1 4-2 5-1 5-1h-2c-3 0-4-1-4-3v1c1 1 8 2 9 0v2l1-2v-2-1l-1-2c1-3 1-3 3-3s6-2 8-5l3-3c1 1 2 0 2-1l4-1c2 0 3 0 4 4l1 5c-2 1-4 0-5-3-2-2-2-2-5-2l-6 3-4 4c-2 1-3 8-2 9h-2l-8 2c-8 4-11 4-14 5-3 0-3 0-1-1zm35 0v-1l1-3 1-3 2 3 1 4h7c4 0 5 0 4 1h-8l-8-1zm-37-8l-6-1-4-1c-1 0-1 0 0 0l4-1 3 1h2l4 1h10l-2 1a1510 1510 0 01-11 0zm64 0c0-1 5-3 6-2l-3 1-3 1zm-77-4c-1-1-1-1 0 0l1 1-1-1zm63-2l1-1v2l-1-1zm-66-4h1l-1 1v-1zm-5-6l2-2-2 2-2 2zm34-31l-1-7-1-1-1-5-1-4 2 2c2 2 2 3 2 7 1 7 1 7 4 8 3 0 3 0 0 0h-4zm27 0c-1-1-1-1 1-1 4 0 5-1 4-4-1-2-7-8-9-8l-1-2h3l4-1-2-2-4-2c-2 0-2 0-3-2v-1c2 1 5 1 8-1l3-1-1 3v5c1 4 2 4 3 2 1-1 1-1 1 1v13c-1 1-5 2-7 1zm-15-1h2l-1 1-1-1zm-8-15h7v-3c0-3-1-3-2-3l-2 1-2 1c0 2 0 2-1 1 0-2 0-2-1-1l-2-1c-2 0-4-7-3-7l1 3c2 4 3 5 6 3 4-3 5-4 1-2s-4 2-4-1c0-2 1-3 6-4l4-1 1 1 2 3 1 1-1-1-2-2-1 2-1 10-3 1-4-1zm-17-1h1-1zm-33-7v-2c1 2 2 1 2 0l-1-2-2-2-3-2c-1 0-1 0 0 0l2-2c0-2 0-2 0 0 0 3 1 5 4 6 2 1 3 0 3-2s1-3 2-3c2-1 5-6 5-7v-4c1-3 0-5-2-4l2-1c4-2 6-3 7-2l-1 2c-1 2-1 12 1 15l1 3-5 2c-4 1-8 3-13 7-2 0-2 0-2-2zm11-5l6-2 1-2c-1-3-2-7-1-11 0-5 0-6-3-5l-1 6c0 5 0 5-2 8l-4 6-2 3-2 1h2l6-4zm31 2s0-1 0 0v0zm88 0l-1-3a309 309 0 001-1l1 4h-1zm-5-3v-1l1 3-1-2zm-136 0c3-1 4-2 4-5v-2l1 2-1 4-3 1h-1zm95-1l1-1v2l-1-1zm1-4c0-1 0-2 1-1v2c-1 1-1 0-1-1zm-87-2l1-1-1 1zm48-3h-2l-2-1v-2c2-1 4 0 5 2 0 2 0 3-1 1zm-51 1l1-2v1l-1 1zm61-2h1v1l-1-1zm-44-12c1-1 3-3 3-5 2-2 3-3 4-2 1 2 1 1 2-1l-1-2 1-1v4l-1 2-1-1h-2l-1 2v1l-2 1-2 3-2 1zm21-5h2l-1 1-1-1zm72-2c0-1 0-1 0 0v0zm-79 0c-2-1-2-2 1-1l2 2-3-1zm80-6v-4 4zm3-4l2-1v1l-2 1v-1zm-8 0h1-1zm-15-4c-3-2-3-2 0-1l2 1h-2zm-52-1c0-2 0-2-2-1h-1l6-1c3 0 9 1 8 2l-2-1c-3-1-7-1-9 1l-1 1zm39 0c1-2 6-5 6-4l-2 2c-2 0-3 1-3 2l-1 1v-1zm36 0v-1h3l1-1c1 0 1 0 0 0l-1 1c0 1-2 2-3 1zm6-1h1-1z"/>
</svg>
