<svg xmlns="http://www.w3.org/2000/svg" viewBox="0 0 256 256">
  <defs/>
  <rect width="14.2" height="7.1" x="20" y="82" fill="#fff" ry="1.3" transform="rotate(-49)"/>
  <rect width="13.7" height="10.6" x="118" y="33" fill="#fff" ry="1.3"/>
  <rect width="75.7" height="86" x="81" y="125" fill="#fff" ry="1.3"/>
  <path fill="#fbf9e6" d="M119 245c-3-3-7-13-8-19 0-2-1-3-3-4l-3-1h-1l-5-1c-5 1-7 0-10-4-2-2-3-3-6-2-6 0-7 0-10-3-1-1-3-3-3-5-1-3-3-5-4-5-2 0-5-3-7-6l1-3 2-4 15-15 3-3h-2l-3-1-3-2-4 4-4 4-2-3c-4-5-6-13-6-23 0-9 0-10 2-16l4-10 11-27v-2l-1 1-6 4c-4 3-4 3-5 2s-2-2-1-5V80c1-16 2-21 8-32a47 47 0 0123-25v-2c-2-4 2-11 7-11v10l2-1c4-3 9-4 19-4l16 2c9 2 19 6 23 11l4 3c2 0 5 3 5 4l1 3a914 914 0 0115 50c2 4 2 6-1 6l-3 1v3l2 3c0 1-2 3-4 3l-1 4 4 12c4 15 4 17 4 23-1 8-3 13-8 18l-4 4-4-3c-5-3-5-3-6-2l-2 1-3 2-2 3 11 10a162 162 0 0016 15v5c-1 3-1 4-5 9l-6 5-3 3c-2 3-6 5-10 5l-5 1h-2l-4 2-3 2c-2 0-2 1-3 5 0 7-3 14-7 17-2 2-3 2-5-1l-2-2-2 2c-2 3-4 3-6 1zm8-18l-1 1 1 2v-3zm-1-6v0zm5-12l-1-1-1 1 1 1 1-1zm7 0c0-1 0-2-2-1l-1 1h3zm-24-2c-1-2-2-2-2-1l1 2 1-1zm20-1l1-1-3 2c0 1 2 1 2-1zm-4-7c1-1 0-2-1-1l-1 1h2zm24-1l-1-1-1 1 1 1 1-1zm-71-6l-1 1-1 2 1-1 1-2zm35 2l-1-1-1 1 1 1 1-1zm-5-3v-1l-1 1 1 1v-1zm-24-2h-2v1l2-1zm-4-2v-1l-2 1 1 1 1-1zm5-26h-1v1c1 1 1 1 1-1zm20-3l-1-1c-1 0-2 1-1 2l2-1zm-20-13l-1-1-1 1h2zm1-6h-1l-1 1 1 1 1-2zm33-9h-2c-2 1-1 2 0 1l2-1zm2-92v-2c-1-1-3 1-3 3 1 1 3 1 3-1zm-45-1c2-1 4-4 2-5l-3 2c-4 4-3 5 1 3zm174 106v-2c1-1 1 0 1 1 0 2 0 3-1 1z"/>
  <path fill="#f2ead1" d="M118 244l-7-17c-1-4-3-6-6-6h-2l-4-1c-5 1-7 0-10-4-2-2-3-2-5-2-8 0-8 0-11-3-1-1-3-3-3-5-1-3-3-5-4-5-2 0-5-3-7-6l1-3 2-4 15-15c3-2 3-3 1-3l-3-2-3-1-4 4-4 4-2-3c-3-5-5-13-6-23 0-10 0-13 6-24l11-29v-2l-2 2-6 4c-3 2-3 2-5 0v-2-16l2-20c3-11 10-23 17-31l11-8 1-2c-2-4 2-11 7-11v10l3-1c4-3 9-4 19-4a59 59 0 0142 16c2 0 5 3 5 4l1 3a276 276 0 018 28c2 11 5 18 7 23 2 3 2 5-1 5l-3 1v3l2 3c0 1-2 3-4 3l-1 3 4 16c4 10 4 12 4 18 0 9-2 14-8 20l-4 4-4-3c-5-3-5-3-6-2l-2 1-3 2-2 2 5 6 21 19 1 6c-1 3-1 4-5 9l-6 5-3 3c-2 3-7 5-11 5l-4 1h-2l-4 2-4 2-2 6c0 6-3 13-7 16-2 2-3 2-6-1l-2-2c0 2-3 4-4 4l-4-2zm4-8l-1-7c0-3-1-3-2-3-3 0-3 2-2 6l4 7 1-3zm12-1v-7l-1-3h-2l-1 6v8c1 1 3-1 4-4zm-7-8c0-1-1-1-1 1l1 2v-3zm-1-6v0zm-6-2c1-1 0-1-4-1-4 1-3 3 1 3 2 0 3-1 3-2zm21-2c1-3-2-4-6-3v2c0 2 1 3 4 3 1 0 2 0 2-2zm-36 0l-1-1v2l1-1zm-6-1c0-2-1-4-5-5-3-1-3-1-3 1 0 3 0 3 2 4 3 2 6 2 6 0zm-18-7c1-1 1-1-1-2l-3-1h-3c-1 1 0 2 1 4 2 1 5 1 6-1zm6 1h-1-1l1 1 1-1zm44-1l-1-1-1 1 1 1 1-1zm7 0c0-1 0-2-2-1l-1 1h3zm-24-2c-1-2-2-2-2-1l1 2 1-1zm20-1l1-1-3 2c0 1 2 1 2-1zm-4-7c1-1 0-2-1-1l-1 1h2zm24-1l-1-1-1 1 1 1 1-1zm-86 0l-3-5c-1 0-2 3-1 4l4 1zm15-6l-1 1c-2 2-2 3 0 1l1-2zm51 3l-1-9c-1-9-1-13 1-34 0-6 0-6 2-7s2-3-1-5l-1-2 1-1h5c3 0 3-1 1-2l-3-2c-3-2-8-1-8 2 0 2 2 6 4 7l2 1-2 2-3 3-4 13-7 22-2 8 6 2 7 1 3 1zm-16-1l-1-1-1 1 1 1 1-1zm-4-3l-1-1-1 1 1 1 1-1zm-25-2h-2v1l2-1zm-4-2v-1l-2 1 1 1 1-1zm5-26h-1v1c1 1 1 1 1-1zm20-3l-1-1-1 1h2zm7-3c1-2-1-2-4 0l-1 1h2l3-1zm-43-1l3-3c2-2 4-2 5 0 0 2 1 1 3-6l2-11-1-3c-1 0-14 13-15 16v6c0 1 1 2 3 1zm16-9l-1-1-1 1h2zm1-6h-1l-1 1 1 1 1-2zm28-4v-3h-2c-3 0-6 3-4 3v2c-1 1-1 1 2 1s4 0 3 1h1v-4zm5-5c0-2-3-1-3 1h1l2-1zm9-6c3-3 1-7-4-7-4 0-5 2-4 4l5 5 3-2zm-13-2c2-2 2-4-1-4-2 0-4 2-3 2v2l1 2 3-2zm48 0l-1-3h-2l-1 1 1 1c0 2 0 3 1 2l2-1zm-15-6l3-4c0-2 0-2-5 0-4 2-7 4-6 5s4 0 8-1zm-34-6l-1-2c-1-2-1-2 4-3 3 0 6 1 6 3h4l4-1-3-3-2-6 1-4-3-1c-6-1-20 0-20 2l1 2c1 2 0 6-2 9-2 1-2 2-2 3l13 1zm29-4l-1-1-1 1h2zm21-1c3-2 3-2 1-4s-3-3-3-1l-1 3v3l3-1zm-13-2l-2-1c-2 0-3 1-2 2 2 1 3 0 4-1zm-7-2l-1-1c-2-1-3 0-2 1 0 2 3 2 3 0zm13 0l-1-1v1l1 1v-1zm15-1l-2-1c-1 1 0 2 2 2v-1zm-78-4h-2l1 1c1 0 2 0 1-1zm58 0c0-2-1-2-4-2-3 1-3 2 1 2h3zm16 0v-1l-1 1h1zm-31-1l-1-1-1 1 1 1 1-1zm-46-3v-2c1-1 1-2-1-2s-3 2-1 3l2 1zm40-2l1-1 1-1-2-1-1-1-1-1v5c0 2 2 2 2 0zm37-13l-1-1-1 1 1 1 1-1zm-15-24l3-2c1-1 1-1-4-1-6 0-9 2-8 3h9zm-32-15c1-1 0-3-2-3l-1 4c1 1 3 1 3-1zm-44-1c2-2 3-6 1-6l-6 7 5-1zm58-5l-1-1-1 1 1 1 1-1zm115 111v-2c1-1 1 0 1 1 0 2 0 3-1 1z"/>
  <path fill="#fcd5ab" d="M118 244c-2-2-6-14-7-18-1-3-3-5-6-5h-2l-4-1c-4 1-7 0-10-4-2-2-3-2-5-2-8 0-8 0-10-2-2-1-3-4-4-6l-5-5c-2-1-6-5-6-7l2-3 2-3c0-1 8-10 14-14 3-3 3-3 2-4l-2-1-2-1c-3-1-4-1-7 3l-4 3c-1 0-4-5-6-11l-2-13c0-10 0-14 6-27l11-27v-2l-2 2-6 4c-3 2-3 2-4 1l-1-10 1-15c0-10 1-15 5-24 5-13 13-23 22-27 3-2 3-3 3-4-1-3 0-6 3-9s5-3 4-1v9l2-1c3-2 6-3 13-3a66 66 0 0150 15c2 1 3 2 3 4l2 3a269 269 0 018 29c2 10 5 20 8 23 2 2 1 4-1 4l-3 1-2 1 2 2 1 2-1 2-3 2c-2 0-1 7 3 18 4 13 4 16 4 23-1 7-4 13-8 17l-4 3-4-3c-5-3-5-3-6-2l-2 1-3 2-2 3 11 11 14 13c2 1 2 1 2 4l-1 5-8 9c-9 9-10 10-16 10h-4l-2 1-4 2-4 2-1 3-3 13-7 7-3-2-3-1-4 3-4-2zm4-12l-1-6h-5v3c0 5 4 12 6 10v-7zm11 7l2-13-3-1-2-1v8l1 7 1 1 1-1zm-6-13l-1-6v4a83 83 0 011 8v-6zm-6-2h-4c-1 0-1 1 1 1l3-1zm15-1l-4-1-1 1h5zm-16-3l1-1c0-2-1-2-3-1h-5v1c0 2 4 3 7 1zm21-2l1-1c1-2-4-4-7-3-1 1-2 3 0 4 2 2 6 2 6 0zm-36-1l-2-1c-1 0 1 3 2 2v-1zm-5-1c0-2-1-2-3-4l-4-1-3 1c0 3 3 6 7 6l3-2zm28 1l-2-1v1h2zm-48-6c3-2 2-3-2-5h-4c-1 1 0 3 3 5h3zm8-1l-1-1c-2 0-3 0-2 1h3zm43-1l-1-1-1 1 1 1 1-1zm7 0c0-1 0-2-2-1l-1 1h3zm-24-2c-1-2-2-2-2-1l1 2 1-1zm20-1l1-1-3 2c0 1 2 1 2-1zm-63-5v-1l-1 1h1zm59-2c1-1 0-2-1-1l-1 1h2zm-62-1l-3-6-2 3c0 1 2 4 4 4l1-1zm86 0l-1-1-1 1 1 1 1-1zm-71-6l-1 1c-2 2-2 3 0 1l1-2zm51 1v-7l-1-11a6361 6361 0 001-28c0-1 1-2 3-2 2-1 2-2 0-4l-1-3 4-1c4 0 4 0 0-3-5-4-12-2-10 2 1 4 2 5 4 6l1 1-2 2-3 6-3 7a125 125 0 00-7 18l-3 8-2 6 2 2 7 1 7 1c3 2 3 2 3-1zm-16 1l-1-1-1 1 1 1 1-1zm-4-3l-1-1-1 1 1 1 1-1zm-25-2h-2v1l2-1zm-4-2v-1l-2 1 1 1 1-1zm57-8c0-2-1-7-3-10l-2-2c-2 0-2 9 0 12s5 3 5 0zm-52-18h-1v1c1 1 1 1 1-1zm20-3l-1-1-1 1h2zm-23-23v-4c-1-1-13 11-15 14-2 2-2 8-1 9h4l5-2 1 2c0 2 1 2 3-6l3-13zm30 20l1-3c0-2 0-2-2-3-4-1-8 1-8 3-1 4-1 4 6 4l3-1zm-27-10l-1-1-1 1h2zm1-6h-1l-1 1 1 1 1-2zm27 1l1-5-1-5-6 1-4 3-2 4c1 2 3 3 7 2h5zm9-6v0zm-3-4c0-2-3-1-3 1h1l2-1zm-22-1l4-4 2-2c5-1 5-1 0-2-7 0-8 0-10 3-2 2-2 3 0 6 1 1 1 1 4-1zm32-5c3-3 1-6-3-7-3-1-7 1-7 3l2 3c3 3 5 3 8 1zm-15 0c2-2 3-6 2-6h-5c-1 1 0 7 1 7l2-1zm49-1c1-1-1-5-2-5-2 0-2 2-1 2v2l-1 1h4zm-26-2c0-2-2-2-2 0l1 1 1-1zm10-5l5-4-1-2-10 5c-4 4 0 4 6 1zm-32-6c-4-3-2-5 6-4 3 0 3 3 0 4l-1 1 12-3v-6l-1-3-2-4c-1-1-1-3 1-3l1-2 1-1 1-1-1-1c-1 0-2 0-2-2-1-4-2-2-2 2v5l-2-1c-3-1-17 0-21 1l-3 1c1 2-1 8-3 10l-1 3c1 1 0 2-1 2-3 1 7 4 14 4h6l-2-2zm28-4v-1c-1-1-4 0-3 1h3zm21-1c3-1 3-2 1-5-2-2-3-2-3 0l-1 3-1 3c1 1 2 1 4-1zm-13-2l-2-1c-3 0-3 0-2 2 1 1 4 0 4-1zm7-1v-2h-2l-2 1-2 1h6zm-13-1l-4-1v1c0 2 4 2 4 0zm27-1l-1-1-1 1 1 1 1-1zm-78-4h-2l1 1c2 0 2 0 1-1zm56 1l2-2c0-2-1-2-4-1s-4 2-2 2l4 1zm18-2l-1-1c-1 1 1 3 2 3l-1-2zm-31 0l-1-1-1 1 1 1 1-1zm-46-3c-1-1-1-1 1-2 1-1 1-1-1-2l-2-2v-2l-1 7 4 3-1-2zm77-8v-1l-2 1h2zm1-7l-1-1c-3 0-3 2-1 2l2-1zm-15-24l3-2-4-1-7 1-4 1 2 1c2 2 7 2 10 0zm-32-14l-2-4-2 2c0 1 0 3 2 3l2-1zm-44-3c2-2 2-4 1-4-1-1-2 0-4 2l-3 4c0 1 4 0 6-2zm57-4l-1-1-1 1 1 1 1-1zm115 111v-1c1-1 1-1 1 1h-1z"/>
  <path fill="#d2afea" d="M118 244c-2-2-6-14-7-18-1-3-3-5-6-5h-2l-4-1c-4 1-7 0-10-4-2-2-3-2-5-2-8 0-8 0-10-2-2-1-3-4-4-6l-5-5c-2-1-6-5-6-7l2-3 2-3c0-1 8-10 14-14 3-3 3-3 2-4l-2-1-2-1c-3-1-4-1-7 3l-4 3c-1 0-4-5-6-11l-2-13c0-10 0-14 6-27l11-27v-2l-2 2-6 4c-3 2-3 2-4 1l-1-10 1-15c0-10 1-15 5-24 5-13 13-23 22-27 3-2 3-3 3-4-1-3 0-6 3-9s5-3 4-1v9l2-1c3-2 6-3 13-3a66 66 0 0150 15c2 1 3 2 3 4l2 3a269 269 0 018 29c2 10 5 20 8 23 2 2 1 4-1 4l-3 1-2 1 2 2 1 2-1 2-3 2c-2 0-1 7 3 18 4 13 4 16 4 23-1 7-4 13-8 17l-4 3-4-3c-5-3-5-3-6-2l-2 1-3 2-2 3 11 11 14 13c2 1 2 1 2 4l-1 5-8 9c-9 9-10 10-16 10h-4l-2 1-4 2-4 2-1 3-3 13-7 7-3-2-3-1-4 3-4-2zm4-12l-1-6h-5v3c0 5 4 12 6 10v-7zm11 7l2-13-3-1-2-1v8l1 7 1 1 1-1zm-6-13l-1-6v4a83 83 0 011 8v-6zm-6-1v-1h-8l5 1h3zm16-2c1-1-1-2-4-2l-3 1 1 1h6zm-17-3l1-1c0-2-1-2-3-1h-5v1c0 2 4 3 7 1zm21-2l1-1c1-2-4-4-7-3-1 1-2 3 0 4 2 2 6 2 6 0zm-36-1l-2-1c-1 0 1 3 2 2v-1zm-5-1c0-2-1-2-3-4l-4-1-3 1c0 3 3 6 7 6l3-2zm28 1l-2-1v1h2zm-48-6c3-2 2-3-2-5h-4c-1 1 0 3 3 5h3zm8-1l-1-1c-2 0-3 0-2 1h3zm43-1l-1-1-1 1 1 1 1-1zm7 0c0-1 0-2-2-1l-1 1h3zm-24-2c-1-2-2-2-2-1l1 2 1-1zm20-1l1-1-3 2c0 1 2 1 2-1zm-63-5v-1l-1 1h1zm59-2c1-1 0-2-1-1l-1 1h2zm-62-1l-3-6-2 3c0 1 2 4 4 4l1-1zm86 0l-1-1-1 1 1 1 1-1zm-71-6l-1 1c-2 2-2 3 0 1l1-2zm51 1v-7l-1-11a6361 6361 0 001-28c0-1 1-2 3-2 2-1 2-2 0-4l-1-3 4-1c4 0 4 0 0-3-5-4-12-2-10 2 1 4 2 5 4 6l1 1-2 2-3 6-3 7a125 125 0 00-7 18l-3 8-2 6 2 2 7 1 7 1c3 2 3 2 3-1zm-16 1l-1-1-1 1 1 1 1-1zm-4-3l-1-1-1 1 1 1 1-1zm-25-2h-2v1l2-1zm-4-2v-1l-2 1 1 1 1-1zm57-8c0-2-1-7-3-10l-2-2c-2 0-2 9 0 12s5 3 5 0zm-52-18h-1v1c1 1 1 1 1-1zm20-3l-1-1-1 1h2zm-23-23v-4c-1-1-13 11-15 14-2 2-2 8-1 9h4l5-2 1 2c0 2 1 2 3-6l3-13zm30 20l1-3c0-2 0-2-2-3-4-1-8 1-8 3-1 4-1 4 6 4l3-1zm-27-10l-1-1-1 1h2zm1-6h-1l-1 1 1 1 1-2zm27 1l1-5-1-5-6 1-4 3-2 4c1 2 3 3 7 2h5zm9-6v0zm-23-3l5-2 6-2h-2l-4 1h-1l1-2 1-1-1-1 2-1c5-1 4-1-2-2-8 0-9 0-11 2s-2 3-1 5c1 7 2 7 7 3zm20-1c0-2-3-1-3 1h1l2-1zm10-6c3-3 1-6-3-7-3-1-7 1-7 3l2 3c3 3 5 3 8 1zm-15 0c2-2 3-6 2-6h-5c-1 1 0 7 1 7l2-1zm24 0v-3c-1-4-3-4-4-1s-1 4 1 4a576 576 0 013 0zm25-1c1-1-1-5-2-5-2 0-2 2-1 2v2l-1 1h4zm-57-3h-3c-4 1-4 1-1 1l4-1zm-4-2l-1-1-2 1 1 1 2-1zm45-2l5-4-1-2-10 5c-4 4 0 4 6 1zm-26-3c9-1 16-5 18-9v-1l-1-1-1-3c-2-2-2-2-1-3 2-1 2-2 0-2l-4-1c-1-2-2-4 0-4v-2h-1l-1-2-2-2c-4 2-11 4-12 3l-1-1h-2l-5 3-6 4-3 2v1l-2 4c-1 3-2 3-3 3-4 0-2 6 2 8 5 2 9 3 20 4l5-1zm-4-2l-4-4c1-2 9-2 10 0 2 1-3 4-6 4zm26-5v-1c-1-1-4 0-3 1h3zm21-1c3-1 3-2 1-5-2-2-3-2-3 0l-1 3-1 3c1 1 2 1 4-1zm-13-2l-2-1c-3 0-3 0-2 2 1 1 4 0 4-1zm7-1v-2h-2l-2 1-2 1h6zm-13-1l-4-1v1c0 2 4 2 4 0zm27-1l-1-1-1 1 1 1 1-1zm-78-3c2 0 1-1-1-1l-1 1h2zm56 0l2-2c0-2-1-2-4-1s-4 2-2 2l4 1zm18-2l-1-1c-1 1 1 3 2 3l-1-2zm-76-2l-1-2 1-1c1-1 1-1-1-2l-2-2v-2c-2 1-1 6 0 8l2 2 1-1zm76-9v-1l-2 1h2zm1-7l-1-1c-3 0-3 2-1 2l2-1zm-15-24l3-2-4-1-7 1-4 1 2 1c2 2 7 2 10 0zm-32-14l-2-4-2 2c0 1 0 3 2 3l2-1zm-44-3c2-2 2-4 1-4-1-1-2 0-4 2l-3 4c0 1 4 0 6-2zm57-4l-1-1-1 1 1 1 1-1zm115 111v-1c1-1 1-1 1 1h-1z"/>
  <path fill="#d4d0b5" d="M118 244c-2-2-6-14-7-18-1-3-3-5-6-5h-2l-4-1c-4 1-7 0-10-4-2-2-3-2-5-2-8 0-8 0-10-2-2-1-3-4-4-6l-5-5c-2-1-6-5-6-7l2-3 2-3c0-1 8-10 14-14 3-3 3-3 2-4l-2-1-2-1c-3-1-4-1-7 3l-4 3c-1 0-4-5-6-11l-2-13c0-10 0-14 6-27l11-27v-2l-2 2-6 4c-3 2-3 2-4 1l-1-10 1-15c0-10 1-15 5-24 5-13 13-23 22-27 3-2 3-3 3-4-1-3 0-6 3-9s5-3 4-1v9l2-1c3-2 6-3 13-3a66 66 0 0150 15c2 1 3 2 3 4l2 3a269 269 0 018 29c2 10 5 20 8 23 2 2 1 4-1 4l-3 1-2 1 2 2 1 2-1 2-3 2c-2 0-1 7 3 18 4 13 4 16 4 23-1 7-4 13-8 17l-4 3-4-3c-5-3-5-3-6-2l-2 1-3 2-2 3 11 11 14 13c2 1 2 1 2 4l-1 5-8 9c-9 9-10 10-16 10h-4l-2 1-4 2-4 2-1 3-3 13-7 7-3-2-3-1-4 3-4-2zm4-12l-1-6h-5v3c0 5 4 12 6 10v-7zm11 7l2-13-3-1-2-1v8l1 7 1 1 1-1zm-6-13l-1-6v4a83 83 0 011 8v-6zm-6-1v-1h-8l5 1h3zm16-2c1-1-1-2-4-2l-3 1 1 1h6zm-17-3l1-1c0-2-1-2-3-1h-5v1c0 2 4 3 7 1zm21-2l1-1c1-2-4-4-7-3-1 1-2 3 0 4 2 2 6 2 6 0zm-36-1l-2-1c-1 0 1 3 2 2v-1zm-5-1c0-2-1-2-3-4l-4-1-3 1c0 3 3 6 7 6l3-2zm28 1l-2-1v1h2zm-48-6c3-2 2-3-2-5h-4c-1 1 0 3 3 5h3zm19-1l-2-1v2h1l1-1zm-11 0l-1-1c-2 0-3 0-2 1h3zm42 0l1-2h-2c-2 2-2 3 1 2zm8-2h-1c-2 0-4 0-3 1s4 0 4-1zm-24-1c1-1 0-2-1-2-2 0-2 2-1 3s2 0 2-1zm21-1c2-1 0-2-2-1l-1 2c0 1 2 1 3-1zm-64-5v-1l-1 1h1zm59-2c2-2 0-2-2-1l-1 1h3zm37-3c-2-1-2 0-1 2l1 2v-2-2zm-12 2c0-1-3-2-4-1v2c1 1 4 0 4-1zm-87 0l-3-6-2 3c0 1 2 4 4 4l1-1zm71-1v-1l-1 1h1zm-55-5l-1-1-3 4c1 1 4-2 4-3zm18 2l1-2c-1-1-3 0-3 2s1 2 2 0zm16 1c1-1 0-1-1-2l-1 1 2 1zm16-2v-7l-1-11a6361 6361 0 001-28c0-1 1-2 3-2 2-1 2-2 0-4l-1-3 4-1c4 0 4 0 0-3-5-4-12-2-10 2 1 4 2 5 4 6l1 1-2 2-3 6-3 7a125 125 0 00-7 18l-3 8-2 6 2 2 7 1 7 1c3 2 3 2 3-1zm29-3c-1-2-2 0 0 2l1 1c1-1 0-2-1-3zm4 0l-1-2v5c1 1 2-1 1-3zm-53 2l-1-2c-1 0-2 1-1 2h2zm-26-2c2 0 2-2 1-2-2 0-4 2-3 3l2-1zm-3-2v-3l-2 3c0 2 2 1 2 0zm-9-5l-1-1-1 1h2zm66-4c0-2-1-7-3-10l-2-2c-2 0-2 9 0 12s5 3 5 0zm21-1l-2-1v1h2zm-52-4l-3-1c-1 1 2 2 3 2v-1zm-18-1h-1v1c1 1 2 1 1-1zm60 0c2-1 1-3-1-1l-1 1h2zm-39-3h-3l1 2c2 1 2 0 2-2zm44 2l-1-1h-1l1 1h1zm-3-3l-1-1v1l1 1v-1zm-65-6c1-1 2-2 1-3v-1l-2 1c-3 3-2 5 1 3zm57-1h-1c0 2 0 2 1 1v-1zm-48-2l-1-1h-1v1c-1 1 0 1 1 1l1-1zm11-2l-1-1c-2-1-2 0-1 2 0 1 2 1 2-1zm-23-23v-4c-1-1-13 11-15 14-2 2-2 8-1 9h4l5-2 1 2c0 2 1 2 3-6l3-13zm13 17c-1-1-2 0-2 2v3l1-3 1-2zm17 3l1-3c0-2 0-2-2-3-4-1-8 1-8 3-1 4-1 4 6 4l3-1zm3-4h-1v2l1-2zm6-3l-1-1-1 1 1 1 1-1zm-36-3l-1-2-1 2 1 1 1-1zm36-2l-2-1v2l2-1zm-35-4l-1-1-1 2c0 2 0 2 1 1l1-2zm27 1l1-5-1-5-6 1-4 3-2 4c1 2 3 3 7 2h5zm9-6v0zm-23-3l5-2 6-2h-2l-4 1h-1l1-2 1-1-1-1 2-1c5-1 4-1-2-2-8 0-9 0-11 2s-2 3-1 5c1 7 2 7 7 3zm-8 0c0-2-2-1-2 0v1l2-1zm28-1c1-1 0-2-2-1l-1 2 1 1 2-2zm14 0h-1v1l1-1zm-45-2h-1c-1 0-2 0-1 1s2 0 2-1zm43-2c0-2 0-2-1-1l-1 2c2 2 3 1 2-1zm4 0h-1l-1 1 1 1 1-2zm-6-2c3-3 1-6-3-7-3-1-7 1-7 3l2 3c3 3 5 3 8 1zm-15 0c2-2 3-6 2-6h-5c-1 1 0 7 1 7l2-1zm24 0v-3c-1-4-3-4-4-1s-1 4 1 4a576 576 0 013 0zm25-1c1-1-1-5-2-5-2 0-2 2-1 2v2l-1 1h4zm-57-3h-3c-4 1-4 1-1 1l4-1zm-4-2l-1-1-2 1 1 1 2-1zm45-2l5-4-1-2-10 5c-4 4 0 4 6 1zm-26-3c9-1 16-5 18-9v-1l-1-1-1-3c-2-2-2-2-1-3 2-1 2-2 0-2l-4-1c-1-2-2-4 0-4v-2h-1l-1-2-2-2c-4 2-11 4-12 3l-1-1h-2l-5 3-6 4-3 2v1l-2 4c-1 3-2 3-3 3-4 0-2 6 2 8 5 2 9 3 20 4l5-1zm-4-2l-4-4c1-2 9-2 10 0 2 1-3 4-6 4zm26-5v-1c-1-1-4 0-3 1h3zm21 0c3-2 3-3 1-6-2-2-3-2-3 0l-1 3-1 3h4zm-13-3l-2-1c-3 0-3 0-2 2 1 1 4 0 4-1zm7-1v-2h-2l-2 1-2 1h6zm-13-1l-4-1v1c0 2 4 2 4 0zm27-1l-1-1-1 1 1 1 1-1zm-78-3c2 0 1-1-1-1l-1 1h2zm58-2c0-2 0-2-4-1-4 2-4 3 1 3 2 0 3-1 3-2zm16 0l-1-1c-1 1 1 3 2 3l-1-2zm-76-2l-1-2 1-1c1-1 1-1-1-2l-2-2v-2c-2 1-1 6 0 8l2 2 1-1zm76-9c2 0 1-1-1-1l-1 1h2zm1-7l-1-1c-3 0-3 2-1 2l2-1zm-15-24l3-2-4-1-7 1-4 1 2 1c2 2 7 2 10 0zm-32-14l-2-4-2 2c0 1 0 3 2 3l2-1zm-44-3c2-2 2-4 1-4-1-1-2 0-4 2l-3 4c0 1 4 0 6-2zm57-4l-1-1-1 1 1 1 1-1zm115 111v-1c1-1 1-1 1 1h-1z"/>
  <path fill="#deb396" d="M119 244c-2-2-6-10-7-17-2-4-4-7-7-6h-2l-4-1c-4 1-8-1-10-4-2-2-4-3-8-2h-4c-3-1-6-5-7-8l-4-5c-1 0-7-5-7-7l2-3 2-3c0-2 8-9 14-14 3-2 3-3 3-4l-2-1-4-1-2-1-4 4-3 3-2-1a39 39 0 01-7-26c0-9 1-11 7-24l10-27v-2l-2 2-10 5V83c0-20 1-23 6-34 4-7 8-13 13-18 3-3 9-8 11-8v-3c-1-2 0-5 2-8 3-2 6-3 5 0l-1 8 1 1 2-2c4-2 7-3 17-3a60 60 0 0139 10l6 4c2 2 5 4 5 6l1 2 2 3 6 27c2 10 6 21 9 23 1 1-1 3-3 3l-4 2 2 3 1 2-2 1-2 2-1 4 1 7a252 252 0 017 26c0 9-2 14-8 20-3 3-5 4-5 3l-2-1-3-3c-3-2-3-2-4 0l-2 1-3 2-2 2 2 2c5 7 16 17 20 21 6 4 6 4 4 11l-8 9c-9 9-11 10-17 10h-3l-2 1-4 2-4 1c-2 1-2 1-2 4 0 4-1 11-3 14l-6 6c-2 0-4-3-4-5v-2l-1 2c-2 6-5 7-8 3zm14-4l4-12v-3h-8l1 7c0 7 0 9 2 9l1-1zm-11-7v-7h-8l4 13 3 1h1zm4-13v5a520 520 0 010-5zm-5 5v-1h-8l5 1h3zm16-2c1-1-1-2-4-2l-3 1 1 1h6zm-16-3l3-2h10l7 2c2 0 2 0 3-2l-1-3c-1-2-6-2-19 1l-8 2-6 1-5-3-7-3-8-3c-9-2-13-4-16-6l-8-12c-1-2-2-1-3 1v3l4 3 3 1 1 1 1 3c0 3 4 8 6 8l4-1 3-1 2 1c1 0 2 0 3 2 2 4 4 5 9 5h6l3 1c4 2 10 3 13 1zm31-5v-1h-1l-1 1 2 1v-1zm11-1c3-1 3-3 0-4l-6 3c0 2 2 2 6 1zm-64-4l-2-1v2h1l1-1zm31 0l1-2h-2c-2 2-2 3 1 2zm8-2h-1c-2 0-4 0-3 1s4 0 4-1zm-24-1c1-1 0-2-1-2-2 0-2 2-1 3s2 0 2-1zm21-1c2-1 0-2-2-1l-1 2c0 1 2 1 3-1zm36 1l-1-1-1 1 1 1 1-1zm5-5l1-3c-2-2-3-1-5 2-2 4 0 5 4 1zm-46-3c2-2 0-2-2-1l-1 1h3zm37-3c-2-1-2 0-1 2l1 2v-2-2zm-12 2c0-1-3-2-4-1v2c1 1 4 0 4-1zm-16-1v-1l-1 1h1zm-55-5l-1-1-3 4c1 1 4-2 4-3zm51 3l2-1 4-2c5-5 7-12 5-23a302 302 0 01-4-14l-3 1c-3-1-3 0-4 4-1 2-1 2-1-1v-8c0-5 0-5 3-6l2-2 2-3c3-2 3-4 0-6s-4-2-7-2l-4 1c-1 2 0 6 3 8l2 2-2 2-3 4-2 3-5 7a427 427 0 01-12 25l6 8 7 1 7 1c3 2 3 2 4 1zm-33-1l1-2c-1-1-3 0-3 2s1 2 2 0zm16 1c1-1 0-1-1-2l-1 1 2 1zm45-5c-1-2-2 0 0 2l1 1c1-1 0-2-1-3zm4 0l-1-2v5c1 1 2-1 1-3zm-53 2l-1-2c-1 0-2 1-1 2h2zm-26-2c2 0 2-2 1-2-2 0-4 2-3 3l2-1zm-3-2v-3l-2 3c0 2 2 1 2 0zm-9-5l-1-1-1 1h2zm87-5l-2-1v1h2zm-52-4l-3-1c-1 1 2 2 3 2v-1zm-18-1h-1v1c1 1 2 1 1-1zm60 0c2-1 1-3-1-1l-1 1h2zm-39-3h-3l1 2c2 1 2 0 2-2zm44 2l-1-1h-1l1 1h1zm-3-3l-1-1v1l1 1v-1zm-76-4c0-1 1-7 2-6l1-2 3-7 3-16c0-5-1-6-4-2l-6 6c-6 6-8 8-8 12 0 6 1 8 6 12l3 3zm11-2c1-1 2-2 1-3v-1l-2 1c-3 3-2 5 1 3zm57-1h-1c0 2 0 2 1 1v-1zm-48-2l-1-1c-2-1-2-1-2 1l2 1 1-1zm11-2l-1-1c-2-1-2 0-1 2 0 1 2 1 2-1zm-11-4c2-2 1-3-1-2l-1 4 2-2zm19 1l1-11 1-9v-3c-1-3-1-3-3-3l-10 5-2 2 1 2 2 3c2 2 2 3-1 8l-2 5c1 2 3 2 8 2l5-1zm2-4h-1v2l1-2zm6-3l-1-1-1 1 1 1 1-1zm-36-3l-1-2-1 2 1 1 1-1zm36-2l-2-1v2l2-1zm-35-4l-1-1-1 2c0 2 0 2 1 1l1-2zm37-2v-4-2a284 284 0 010 6zm-24-6l5-2 6-2h-2l-4 1h-1l1-2 1-1-1-1 2-1c5-1 4-1-2-2-8 0-9 0-11 2s-2 3-1 5c1 7 2 7 7 3zm-8 0c0-2-2-1-2 0v1l2-1zm28-1c1-1 0-2-2-1l-1 2 1 1 2-2zm14 0h-1v1l1-1zm-45-2h-1c-1 0-2 0-1 1s2 0 2-1zm43-2c0-2 0-2-1-1l-1 2c2 2 3 1 2-1zm4 0h-1l-1 1 1 1 1-2zm-7 0l5-7-9-2-4 1v3c0 2 4 6 5 6l3-1zm-15-2c2-1 4-5 4-6l-7-1c-2 1-2 4 0 4v3c0 2 1 2 3 0zm25 0v-3c-1-4-3-4-4-1s-1 4 1 4a576 576 0 013 0zm24 0c2-1 2-3 0-5s-2-2-3-1v3h1l-1 1-1 1c0 1 2 2 4 1zm-56-4h-3c-4 1-4 1-1 1l4-1zm-4-2l-1-1-2 1 1 1 2-1zm45-2c7-3 8-4 8-6 0-1-2-1-8 1-5 2-8 5-8 7 0 1 1 1 8-2zm-26-3c9-1 16-5 18-9v-1l-1-1-1-3c-2-2-2-2-1-3 2-1 2-2-1-2-1 0-2 0-3-2v-3c1-1 1-2-1-2l-1-3c-1-2-1-2-3-1-1 1-10 4-11 3l-1-1h-2l-5 3-6 4-3 2v1l-2 4c-1 3-2 3-3 3-4 0-2 6 2 8 5 2 9 3 20 4l5-1zm-4-2l-4-4 10-1c2 2-3 5-6 5zm28-5l-1-1-1-1h-1l-2 2h5zm20-1l2-2-3-4c-2-2-3-3-4-2v2c2 0 2 1 1 3-2 4-1 6 4 3zm-14-1l1-1h4l2-2c0-2-1-2-3-1-2 2-9 1-11 0-3-1-5-1-4 1l2 1 3 1c2 2 5 2 6 1zm22-4l-2-1-1-2c0-1-2-3-5-4l1 2 3 4c1 2 1 2 3 2l1-1zm-79-3c2 0 1-1-1-1l-1 1h2zm59-1c2-1 2-1 2-3 0-1 0-2-1-1l-9 3c-2 0-2 0 0 1h8zm-61-3c-2-1-2-3 0-3 1-1 1-2-1-2l-2-2c0-2 0-3-1-2l-1 3c1 4 3 7 4 7l1-1zm75-5c2-1 3-1 3-3l-1-2-7 1c-1 1 1 5 1 5l4-1zm2-11c0-1-1-2-2-1h-2l-1 1c0 1 0 2 2 2s3-1 3-2zm-16-23l6-2 1-2h-2c-2-1-11 0-14 2-2 1-2 1-1 2 2 1 4 2 10 0zm-9-10c1-1 2-3 0-3-2-1-4 2-2 4l2-1zm-23-5c2-1 0-5-2-4-1 1-2 3-1 4s2 2 3 0zm-45-1c2-1 4-3 4-5 0-3-2-3-6 1-3 4-2 6 2 4zm6-1l-1-1-1 1 1 1 1-1zm45 0h-1l1 1v-1zm8-5l-1-1c-1 0-2 1-1 2s2 0 2-1zm115 110h1v1l-1-1z"/>
  <path fill="#e39471" d="M119 244c-2-2-6-10-7-17-2-4-4-7-7-6h-2l-4-1c-4 1-8-1-10-4-2-2-4-3-8-2h-4c-3-1-6-5-7-8l-4-5c-1 0-7-5-7-7l2-3 2-3c0-2 8-9 14-14 3-2 3-3 3-4l-2-1-4-1-2-1-4 4-3 3-2-1a39 39 0 01-7-26c0-9 1-11 7-24l10-27v-2l-2 2-10 5V83c0-20 1-23 6-34 4-7 8-13 13-18 3-3 9-8 11-8v-3c-1-2 0-5 2-8 3-2 6-3 5 0l-1 8 1 1 2-2c4-2 7-3 17-3a60 60 0 0139 10l6 4c2 2 5 4 5 6l1 2 2 3 6 27c2 10 6 21 9 23 1 1-1 3-3 3l-4 2 2 3 1 2-2 1-2 2-1 4 1 7a252 252 0 017 26c0 9-2 14-8 20-3 3-5 4-5 3l-2-1-3-3c-3-2-3-2-4 0l-2 1-3 2-2 2 2 2c5 7 16 17 20 21 6 4 6 4 4 11l-8 9c-9 9-11 10-17 10h-3l-2 1-4 2-4 1c-2 1-2 1-2 4 0 4-1 11-3 14l-6 6c-2 0-4-3-4-5v-2l-1 2c-2 6-5 7-8 3zm14-4l4-12v-3h-8l1 7c0 7 0 9 2 9l1-1zm-11-7v-8l-4 1h-4l3 11c1 3 2 3 3 3h2zm4-13v5a520 520 0 010-5zm-6 5l3-2c0-2 0-2-2-1h-5l-3 1c0 2 3 3 7 2zm18-2c1-1 0-2-4-3h-4l-1 2 1 1h8zm-15-4c2-1 3-2 4-1h8l5 2c3 0 3 0 4-2v-3c-2-2-9-1-21 1l-12 2c-3 0-10-4-13-6l-8-2c-10-2-15-5-19-10l-5-7-1-3-2 1-1 3c0 2 3 5 5 5l3 1 1 1 1 2c0 2 2 7 4 8h10l4 2c1 4 6 6 10 4l3 1h2l3 1c4 3 10 3 15 0zm29-4v-1h-1l-1 1 2 1v-1zm12-1c2-1 1-3-1-4-3 0-7 3-5 5l6-1zm-65-4l-2-1v2h1l1-1zm31 0l1-2h-2c-2 2-2 3 1 2zm8-2h-1c-2 0-4 0-3 1s4 0 4-1zm-24-1c1-1 0-2-1-2-2 0-2 2-1 3s2 0 2-1zm21-1c2-1 0-2-2-1l-1 2c0 1 2 1 3-1zm36 1l-1-1-1 1 1 1 1-1zm5-5c2-2 1-4-1-4s-5 4-4 5c1 2 3 1 5-1zm-46-3c2-2 0-2-2-1l-1 1h3zm37-3c-2-1-2 0-1 2l1 2v-2-2zm-12 2c0-1-3-2-4-1v2c1 1 4 0 4-1zm-16-1v-1l-1 1h1zm-55-5l-1-1-3 4c1 1 4-2 4-3zm51 3l2-1 4-2c6-6 7-12 4-27l-2-12h-1v2l-3 1c-2-1-3 0-4 3-1 2-1 2-1 0v-13l3-1 2-2 2-3c3-2 3-4 0-6s-4-2-7-2l-4 1c-1 2 0 6 3 8l2 2-2 2-3 4-2 2-4 7-12 22-2 4 2 3c4 5 6 6 12 6l7 1c3 2 3 2 4 1zm-33-1l1-2c-1-1-3 0-3 2s1 2 2 0zm16 1c1-1 0-2-1-2l-1 1c0 1 1 2 2 1zm45-5c-1-2-2 0 0 2l1 1c1-1 0-2-1-3zm4 0l-1-2v5c1 1 2-1 1-3zm-53 2c1-1 0-2-1-2s-2 1-1 2h2zm-26-2c2 0 2-2 1-2-2 0-4 2-3 3l2-1zm-3-2v-3l-2 3c0 2 2 1 2 0zm-9-5l-1-1-1 1h2zm87-5l-2-1v1h2zm-52-4l-3-1c-1 1 2 2 3 2v-1zm-18-1h-1v1c1 1 2 1 1-1zm60 0c2-1 1-3-1-1l-1 1h2zm-39-3h-3l1 2c2 1 2 0 2-2zm44 2l-1-1h-1l1 1h1zm-3-3l-1-1v1l1 1v-1zm-75-9l1-1 1-2 3-7c2-9 3-10 3-16v-5l-2 1-2 2-7 7-7 7v4c0 5 2 10 4 11l4 3 2 2v-2-4zm10 3c1-1 2-2 1-3v-1l-2 1c-3 3-2 5 1 3zm57-1h-1c0 2 0 2 1 1v-1zm-48-2l-1-1c-2-1-2-1-2 1l2 1 1-1zm11-2l-1-1c-2-1-2 0-1 2 0 1 2 1 2-1zm6-2c2 0 2-2 3-10l1-12v-5h-2c-3 0-8 2-11 5l-3 2 2 2 2 3c2 2 2 3-1 8-2 4-2 6-1 6l8 2 2-1zm-17-2c2-2 1-3-1-2l-1 4 2-2zm21-3h-1v2l1-2zm6-3l-1-1-1 1 1 1 1-1zm-36-3l-1-2-1 2 1 1 1-1zm36-2l-2-1v2l2-1zm-35-4c0-2-2-1-2 1v2s2-1 2-3zm37-3v-3-2c-2-1-2-1-1 2a235 235 0 011 7v-4zm-26 0l4-3 6-4c3-1 4-3 1-2-4 1-5 1-2-1 2 0 3-1 3-2v-1c1-1 0-2-4-2h-1l3-1c1-2 0-1-6 0l-8 3-1 9v8l2-2 3-2zm7-12h2l-1 1-1-1zm-13 7c0-2-2-1-2 0v1l2-1zm28-1c1-1 0-2-2-1l-1 2 1 1 2-2zm14 0h-1v1l1-1zm-45-2h-1c-1 0-2 0-1 1s2 0 2-1zm43-2c0-2 0-2-1-1l-1 2c2 2 3 1 2-1zm4 0h-1l-1 1 1 1 1-2zm-7-1c2-1 5-6 5-7l-5-1h-7l-2 1c-1 1 5 9 6 9l3-2zm-14-2c3-3 4-5 1-6l-2-1-3 1-2 2 2 2v3c-1 2 1 2 4-1zm24 2c1-1-1-7-2-8l-2 3c-2 3-2 5 0 4l2 1h2zm24-1c2-1 2-3 0-5s-2-2-3-1l-1 4c0 2 0 2 2 2h2zm-61-5l2-2h-2c-4 2-3 3 0 2zm47-3c6-3 8-4 7-6h-3c-6 1-10 4-12 6-3 4-1 4 8 0zm-17-5l6-3h1l1-3c1-2 1-3-1-6v-4l-1-1c-5-1-7-4-5-5v-2c-2 0-3-4-1-8v-2 1l-1 1-2 1c-1 2-1 2-1-1l-1-2-4 5-6 4v-1h-4l-5 2-1-2c-1-1-1-1-1 2-1 4-4 7-9 8-3 0-5 1-5 2l2 1-1 1c-4 2-1 8 5 11s12 4 21 4l13-3zm-17-2l-1-2c0-1 8-2 10 0l-1 2c-2 2-6 2-8 0zm31-3l-3-2-2 2h5zm20-1l2-2-3-4c-2-2-3-3-4-2v5c-1 4 0 5 5 3zm-14-1l2-1h3l2-2-2-1h-16c0 1 2 3 4 3l2 1h5zm22-4l-2-1-1-2-5-4h-2l2 1 4 5c1 2 2 3 3 2l1-1zm-20-4c2 0 2-1 3-3 0-1 0-2-1-1l-6 1c-5 2-5 2-4 3h8zm-61-4c-2-1-2-1-1-2 2-1 2-2 0-2-2-1-2-1-2-4l1-4-1-1c-1 1-2 2-2 7 0 4 2 7 4 8 3 0 3 0 1-2zm75-4c2-1 3-1 3-3l-1-2-7 2 1 4 4-1zM98 78v-1l-2 1h2zm76-1c0-1-1-2-2-1h-2l-1 1c0 1 0 2 2 2s3-1 3-2zm-69-2l-4-1c-1 1 0 1 1 1h3zm-1-3v-1l-1 1 1 1v-1zm33-2l-1-1c-1 1 0 3 1 3v-2zm21-15l6-3 1-2h-2c-3-1-14 0-16 2l2 2c3 1 4 2 9 1zm-9-11c1-1 2-3 0-3-2-1-4 2-2 4l2-1zm-23-5c2-1 0-5-2-4-1 1-2 3-1 4s2 2 3 0zm-45-1c2-1 4-3 4-5 0-3-2-3-6 1-3 4-2 6 2 4zm6-1l-1-1-1 1 1 1 1-1zm45 0h-1l1 1v-1zm8-5l-1-1c-1 0-2 1-1 2s2 0 2-1zm115 110h1v1l-1-1z"/>
  <path fill="#a9a093" d="M119 244c-2-2-6-10-7-17-2-4-4-7-7-6h-2l-4-1c-4 1-8-1-10-4-2-2-4-3-8-2h-4c-3-1-6-5-7-8l-4-5c-1 0-7-5-7-7l2-3 2-3c0-2 8-9 14-14 3-2 3-3 3-4l-2-1-4-1-2-1-4 4-3 3-2-1a39 39 0 01-7-26c0-9 1-11 7-24l10-27v-2l-2 2-10 5V83c0-20 1-23 6-34 4-7 8-13 13-18 3-3 9-8 11-8v-3c-1-2 0-5 2-8 3-2 6-3 5 0l-1 8 1 1 2-2c4-2 7-3 17-3a60 60 0 0139 10l6 4c2 2 5 4 5 6l1 2 2 3 6 27c2 10 6 21 9 23 1 1-1 3-3 3l-4 2 2 3 1 2-2 1-2 2-1 4 1 7a252 252 0 017 26c0 9-2 14-8 20-3 3-5 4-5 3l-2-1-3-3c-3-2-3-2-4 0l-2 1-3 2-2 2 2 2c5 7 16 17 20 21 6 4 6 4 4 11l-8 9c-9 9-11 10-17 10h-3l-2 1-4 2-4 1c-2 1-2 1-2 4 0 4-1 11-3 14l-6 6c-2 0-4-3-4-5v-2l-1 2c-2 6-5 7-8 3zm14-4l4-12-1-3 1-1c4-1 3-3-1-4l-4-2h-2l-1 3c0 2 1 3 3 3h2l-2 1h-3l1 7c0 7 0 9 2 9l1-1zm-11-7v-8l-4 1h-4l3 11c1 3 2 3 3 3h2zm4-13v5a520 520 0 010-5zm-4 4l1-2-2-1-5 1c-3 0-4 1-3 3l9-1zm1-5c2-1 3-2 4-1h8l5 2c3 0 3 0 4-2v-3c-2-2-9-1-21 1l-12 2c-3 0-10-4-13-6l-8-2c-10-2-15-5-19-10l-5-7-1-3-2 1-1 3c0 2 3 5 5 5l3 1 1 1 1 2c0 2 2 7 4 8h10l4 2c1 4 6 6 10 4l3 1h2l3 1c4 3 10 3 15 0zm29-4v-1h-1l-1 1 2 1v-1zm12-1c2-1 1-3-1-4-3 0-7 3-5 5l6-1zm-65-4l-2-1v2h1l1-1zm31 0l1-2h-2c-2 2-2 3 1 2zm8-2h-1c-2 0-4 0-3 1s4 0 4-1zm-24-1c1-1 0-2-1-2-2 0-2 2-1 3s2 0 2-1zm21-1c2-1 0-2-2-1l-1 2c0 1 2 1 3-1zm36 1l-1-1-1 1 1 1 1-1zm5-5c2-2 1-4-1-4s-5 4-4 5c1 2 3 1 5-1zm-50-1l-2-1v1h2zm2 0h-1c-1 0-1 0 0 0h1zm2-2c2-2 0-2-2-1l-1 1h3zm37-3c-2-1-2 0-1 2l1 2v-2-2zm-12 2c0-1-3-2-4-1v2c1 1 4 0 4-1zm-16-1v-1l-1 1h1zm-55-5l-1-1-3 4c1 1 4-2 4-3zm51 3l2-1 4-2c6-6 7-12 4-27l-2-12h-1v2l-3 1c-2-1-3 0-4 3-1 2-1 2-1 0v-13l3-1 2-2 2-3c3-2 3-4 0-6s-4-2-7-2l-4 1c-1 2 0 6 3 8l2 2-2 2-3 4-2 2-4 7-12 22-2 4 2 3c4 5 6 6 12 6l7 1c3 2 3 2 4 1zm-33-1l1-2c-1-1-3 0-3 2s1 2 2 0zm16 1c1-1 0-2-1-2l-1 1c0 1 1 2 2 1zm45-5c-1-2-2 0 0 2l1 1c1-1 0-2-1-3zm4 0l-1-2v5c1 1 2-1 1-3zm-53 2c1-1 0-2-1-2s-2 1-1 2h2zm-26-2c2 0 2-2 1-2-2 0-4 2-3 3l2-1zm-3-2v-3l-2 3c0 2 2 1 2 0zm-9-5l-1-1-1 1h2zm87-5l-2-1v1h2zm-52-4l-3-1c-1 1 2 2 3 2v-1zm-18-1h-1v1c1 1 2 1 1-1zm60 0c2-1 1-3-1-1l-1 1h2zm-39-3h-3l1 2c2 1 2 0 2-2zm44 2l-1-1h-1l1 1h1zm-3-3l-1-1v1l1 1v-1zm-75-9l1-1 1-2 3-7c2-9 3-10 3-16v-5l-2 1-2 2-7 7-7 7v4c0 5 2 10 4 11l4 3 2 2v-2-4zm10 3c1-1 2-2 1-3v-1l-2 1c-3 3-2 5 1 3zm57-1h-1c0 2 0 2 1 1v-1zm-48-2l-1-1c-2-1-2-1-2 1l2 1 1-1zm11-2l-1-1c-2-1-2 0-1 2 0 1 2 1 2-1zm6-2c2 0 2-2 3-10l1-12v-5h-3l-4 1v-1c3-2 2-3 0-2-2 0-2 0-1-1l3-3-2-2h-2l2-2-2-1-4 1 1-2v-2l-3 2-3 3-3 2c-3 2-3 4-3 8v11l2-2 5-4 5-3 3-2v1l-4 3-2 4 3 3c2 2 2 3-1 8-2 4-2 6-1 6l8 2 2-1zm-6-32l1 1h-1v-1zm-6-4h0s-1 0 0 0zm-5 34c2-2 1-3-1-2l-1 4 2-2zm21-3h-1v2l1-2zm6-3l-1-1-1 1 1 1 1-1zm-36-3l-1-2-1 2 1 1 1-1zm36-2l-2-1v2l2-1zm-35-4c0-2-2-1-2 1v2s2-1 2-3zm37-3v-3-2c-2-1-2-1-1 2a235 235 0 011 7v-4zm-32-5c0-2-2-1-2 0v1l2-1zm28-1c1-1 0-2-2-1l-1 2 1 1 2-2zm14 0h-1v1l1-1zm-45-2h-1c-1 0-2 0-1 1s2 0 2-1zm43-2c0-2 0-2-1-1l-1 2c2 2 3 1 2-1zm4 0h-1l-1 1 1 1 1-2zm-7-1c2-1 5-6 5-7l-5-1h-7l-2 1c-1 1 5 9 6 9l3-2zm10-3l-1-5-2-2-2 4c-2 5-2 6 1 6l2 1h1l1-4zm-24 2l3-4-1-3-3-1-3 1-2 2 2 2v3c-1 2 1 2 4 0zm48 0c2-1 2-3 0-5s-2-2-3-1l-1 4c0 2 0 2 2 2h2zm-14-8c6-3 8-4 7-6h-3c-6 1-10 4-12 6-3 4-1 4 8 0zm-28 0h-2c-2 0-3 0-2 1 2 1 3 1 4-1zm5-3c7-2 14-5 14-7l1-2v-2c-1-2-1-3 1-4s2-2-1-2c-1 0-2-1-1-2s0-1-1-1h-4c-3-1-4-3-2-4v-2c-2 0-3-4-1-8v-2 1l-1 1-1 1c-1 1-2 1-2-1l2-4 1-1-1-1h3l1 1c2-1 2-1 1-3-2-2-2-3-3-2-2 0-2 0-4 4-1 3-8 12-10 12v-5l-4 2c-3 3-6 5-7 4l-1-2c-1-2-1-1-1 2 0 4-1 6-4 7-3 2-6 1-8-1-2-1-2-1-1-2 2-1 2-2 0-2-2-1-2-1-2-4l1-4-1-1c-2 1-3 8 0 14v4 4l2 5c2 2 6 5 11 6 9 3 15 3 23 1zm-11-4v-2c3-2 10-1 9 1-2 3-7 3-9 1zm7 0l-3-1-2 1h5zm24-3l-3-2-2 2h5zm20-1l2-2-3-4c-2-2-3-3-4-2v5c-1 4 0 5 5 3zm-14-1l2-1h3l2-2-2-1h-16c0 2 1 3 3 3l3 1h5zm22-4l-2-1-1-2-5-4h-2l2 1 4 5c1 2 2 3 3 2l1-1zm-20-4c2 0 2-1 3-3 0-1 0-2-1-1a449 449 0 01-10 4h8zm14-8c2-1 3-1 3-3l-1-2-7 2 1 4 4-1zM98 78v-1l-2 1h2zm9 0l-1-3-1-1 1-2-1-2-1-1-4 3-3 3h3l6 2 1 1zm67-1c0-1-1-2-2-1h-2l-1 1c0 1 0 2 2 2s3-1 3-2zm-69-10l-1-1v2l1-1zm31 0v-1h-1c0 2 0 2 1 1zm22-12l6-3 1-2h-2c-3-1-14 0-16 2l2 2c3 1 4 2 9 1zm-9-11c1-1 2-3 0-3-2-1-4 2-2 4l2-1zm-23-5c2-1 0-5-2-4-1 1-2 3-1 4s2 2 3 0zm-45-1c2-1 4-3 4-5 0-3-2-3-6 1-3 4-2 6 2 4zm6-1l-1-1-1 1 1 1 1-1zm45 0h-1l1 1v-1zm8-5l-1-1c-1 0-2 1-1 2s2 0 2-1zm115 110h1v1l-1-1z"/>
  <path fill="#93b369" d="M120 245l-4-5-5-15c0-2-4-5-5-4l-3-1h-4c-3 1-6-1-10-4l-3-2-2-1h-1l-4 1-6-3-3-5c-1-3-2-4-4-5s-7-5-7-7l2-3 2-3 14-14 4-3c0-1-2-3-3-2l-3-1c-3-2-4-1-8 3-3 4-3 3-6-2s-4-13-4-21c-1-10 0-11 6-25 5-11 11-29 10-29l-2 1-5 4c-3 2-4 2-5 1V83c0-19 1-22 6-33s13-20 21-25l4-3-1-4c0-2 0-3 2-5 3-4 5-4 4 0v6l1 2 3-2 9-3c5-1 18 0 26 1 7 2 17 6 21 10l6 4c2 1 2 2 6 9 2 3 5 18 8 31l6 19c2 2 2 2 1 3l-3 1-2 1c-2 1-2 1 0 3s1 4-1 5l-3 3 7 24c2 5 2 6 1 12 0 9-2 14-7 19l-4 4-3-2-4-3c-2-2-2-2-3-1l-2 1-5 5a185 185 0 0027 27l-1 4c0 4-1 4-8 12-4 4-8 8-10 8l-12 3-4 1-4 2c-2 1-2 1-2 4s-1 10-3 13c-1 3-5 7-6 7l-3-2-2-12c0-10-1-13-2-12l1 5v11c0 7 0 7-2 9l-2 1-2-1zm4-5v-8l-2-7h-2 2l1-3-2-1-5 1-3 1c0 1 1 2 3 2s2 1 0 1h-3l3 7 3 7h5zm11-1c2-1 3-7 4-12 0-2 0-2-2-2l-2-1h2c4-1 3-3-1-4l-4-2h-2l-1 12 1 10c1 2 4 1 5-1zm-3-15h0c-1 0-1 0 0 0zm-9-5l4-1h7c4 2 10 2 13 0l4-2h2l2-1c6 1 10-1 13-6l2-1 1-2 2-2 4-3c2-2 2-3 2-5v-2c1-1 1-2-1-3-2 0-2 0-3 3l-1 3-2 4c-2 3-2 4-11 9l-6 4-9-1-12 1-24 4-11-5-1-2 1-1h-9c-9-3-13-4-16-8-3-2-6-7-9-11 0-1-1-1-2 1-2 2-2 2-1 4 2 2 3 3 6 3l1 2 2 1 1 2c0 3 2 6 5 7h10l3 3c2 3 6 5 9 4h4l3 1h2c2 2 3 2 8 2 3 0 4 0 7-2zm7-9l1-2h-2c-2 2-2 3 1 2zm8-2h-1c-2 0-4 0-3 1s4 0 4-1zm-24-1c1-1 0-2-1-2-2 0-2 2-1 3s2 0 2-1zm21-1c2-1 0-2-2-1l-1 2c0 1 2 1 3-1zm-9-5l-2-1v1h2zm2 0h-1c-1 0-1 0 0 0h1zm2-2v-2c-2 0-4 2-3 2h3zm37-3c-2-1-2 0-1 2l1 2v-2-2zm-12 2c0-1-3-2-4-1v2c1 1 4 0 4-1zm-16-1v-1l-1 1h1zm-55-5l-1-1-3 4c1 1 4-2 4-3zm58 2c3 0 3-1 5-4l1-8a396 396 0 00-6-34l1-6v-6l-3-3-2-2-1-1-3 1c-5 1-6 2-4 7v6l-15 30-5 10 1 2 4 4 1 4 1 1 2-1c0-1 8-1 12 1 3 1 6 1 11-1zm-40 0l1-2c-1-1-3 0-3 2s1 2 2 0zm61-4c-1-2-2 0 0 2l1 1c1-1 0-2-1-3zm4 0l-1-2v5c1 1 2-1 1-3zm-53 2c1-1 0-2-1-2s-2 1-1 2h2zm-26-2c2 0 2-2 1-2-2 0-4 2-3 3l2-1zm-3-2v-3l-2 3c0 2 2 1 2 0zm-9-5l-1-1-1 1h2zm87-5l-1-2c-1 0-2 1-1 2h2zm-52-4l-3-1c-1 1 2 2 3 2v-1zm-18-1h-1v1c1 1 2 1 1-1zm60 0c2-1 1-3-1-1l-1 1h2zm-39-3h-3l1 2c2 1 2 0 2-2zm44 2l-1-1h-1l1 1h1zm-72-3c-2-2-1-10 0-17 1-6 1-6 3-6l1-1-1-1-2-2 1-1h2l1-2c0-1-2-2-3 0v-5-5l-17 16v12c1 3 12 13 15 14v-2zm69 0l-1-1v1l1 1v-1zm-60-7l2-1c2 0 3-1 1-2-1-1-1-1 1-4s2-4 0-3c-2 0-2 0-2-5l-1-4-3 18-1 6 1-2 2-3zm-5 1c1-1 2-2 1-3v-1l-2 1c-3 3-2 5 1 3zm57-1c-1-1-2 0-1 1h1v-1zm-37-4l3-1c3 0 5-1 5-2l1-2 1-2-1-9 1-9 4-4h-3c-1 1-1 0-1-3v-1l-2 2-4 2-2 1 1-1c3-2 2-3 0-2-2 0-2 0-1-1l3-3-2-1c-2 0-3-1-1-1v-2l1-2v2l1 2c2 0 2 0 1 2v3c1 2 7-4 7-7l-2-2c-4-2-11-3-11-2v2l1 1c2 0 2 0 0 1h-3l1-2v-2l-2 2-4 3-4 4c-2 1-2 2-2 4l-1 2-1 1c-1 1 0 2 1 1h2v3l-1 5c-1 2 0 2 2-1l5-3 4-3c1-1 1-1 0 0l-4 4v7l1 8c0 2 0 2 2 3l1 2 1 2c0 1 2 1 2-1zm0-34l1 1h-1v-1zm-6-4h0s-1 0 0 0zm25 18v-5c1-1 0-5-2-7-1-1-1 0-1 7 1 10 1 9-1 9l-2 1 2 1 1 3v3l2-5c2-4 2-4 1-7zm-3 10l-1-1-1 1 1 1 1-1zm-33-20h-1c-1 0-2 0-1 1s2 0 2-1zm43-2c0-2 0-2-1-1l-1 2c2 2 3 1 2-1zm0-4c2-2 3-7 3-10h-2l-3 1-5 3-5 3v2l3 4 3 3 2-2 4-4zm4 4h3c1-1 0-6-1-9l-2-2-2 4c-2 4-2 6 0 6l1 1v2l1-2zm28-3c1-2-1-5-3-5-1-1-2 0-2 3v3c1 1 4 0 5-1zm-15-7c8-4 9-5 9-7l-1-1-15 6c-2 1-3 4-2 5h2l7-3zm-28 0h-2c-2 0-3 0-2 1 2 1 3 1 4-1zm5-3c7-2 14-5 14-7l1-2v-2c-1-2-1-3 1-4s2-2-1-2c-1 0-2-1-1-2s0-1-1-1c-3 1-8-2-6-4 2 0 1-2-1-2l-1-4c1-4 2-6 5-6l1-1c-2 0-5 1-7 3l-2 2v-2l2-4 1-1-1-1h3l1 1c2-1 2-1 1-3-2-2-2-3-3-2-2 0-2 0-4 4-1 3-8 12-10 12v-5l-4 2c-3 3-6 5-7 4l-1-2c-1-2-1-1-1 2 0 4-1 6-4 7-3 2-5 1-7 0-3-2-3-3-1-3 1 0 1-2-1-3-3-1-2-6 2-8l1-2c-3 0-5 2-7 4-1 4 0 7 2 12 1 3 2 3 0 4v4l2 5c2 2 6 5 11 6 9 3 15 3 23 1zm-10-4c-2-2-2-2 2-3 6-1 8 2 4 4-3 1-5 1-6-1zm6 0l-3-1-2 1h5zm43-4l3-2c-1-3-7-8-8-8-1 1-1 3 1 4v4 2l1 2 3-2zm-18 1v-1h-6l2 1h4zm8-3c4 0 6-2 6-3h-16c-3-1-5-1-4 2l5 1 2 1 3 1 4-2zm19-2l-1-2-2-2c0-2-2-3-5-4l-3-2c-1-2-3-2-3-1v1c2 0 8 5 10 8 1 3 3 3 4 2zm-19-5l3-1 1-3-1-1-4 1-6 2-4 2h11zm18-3l-2-1v1h2zm-5-5c3-1 3-1 3-3l-1-2h-4c-3 1-4 1-5 3s-1 2 1 3l6-1zm2-11c0-2-2-2-3-1h-1-1c-2 1-1 2 1 3 4 0 4 0 4-2zm-67 1l-1-3-1-1 1-2-1-2-1-1-4 3-3 3h3l6 2 1 1zm-2-11l-1-1v2l1-1zm31 0v-1h-1c0 2 0 2 1 1zm28-14c4-2 4-3 1-3-6-2-14 0-18 2l-2 1 2 1c3 2 13 1 17-1zm-15-9l1-3c-2-1-5 2-3 4l2-1zm-22-5c1-4-3-6-4-2v2c1 2 3 2 4 0zm-45-2c3-2 4-7 1-6-2 0-7 6-6 7s3 1 5-1zm4-1h-1v2h1v-2zm46 1v-1l-1 1 1 1v-1zm8-4c1-1 0-3-2-2v1c0 2 2 2 2 1zm115 109h1v1l-1-1z"/>
  <path fill="#895dae" d="M120 245l-4-5-5-15c0-2-4-5-5-4l-3-1h-4c-3 1-6-1-10-4l-3-2-2-1h-1l-4 1-6-3-3-5c-1-3-2-4-4-5s-7-5-7-7l2-3 2-3 14-14 4-3c0-1-2-3-3-2l-3-1c-3-2-4-1-8 3-3 4-3 3-6-2s-4-13-4-21c-1-10 0-11 6-25 5-11 11-29 10-29l-2 1-5 4c-3 2-4 2-5 1V83c0-19 1-22 6-33s13-20 21-25l4-3-1-4c0-2 0-3 2-5 3-4 5-4 4 0v6l1 2 3-2 9-3c5-1 18 0 26 1 7 2 17 6 21 10l6 4c2 1 2 2 6 9 2 3 5 18 8 31l6 19c2 2 2 2 1 3l-3 1-2 1c-2 1-2 1 0 3s1 4-1 5l-3 3 7 24c2 5 2 6 1 12 0 9-2 14-7 19l-4 4-3-2-4-3c-2-2-2-2-3-1l-2 1-5 5a185 185 0 0027 27l-1 4c0 4-1 4-8 12-4 4-8 8-10 8l-12 3-4 1-4 2c-2 1-2 1-2 4s-1 10-3 13c-1 3-5 7-6 7l-3-2-2-12c0-10-1-13-2-12l1 5v11c0 7 0 7-2 9l-2 1-2-1zm4-5v-8l-2-7h-2 2l1-3-2-1-5 1-3 1c0 1 1 2 3 2s2 1 0 1h-3l3 7 3 7h5zm11-1c2-1 3-7 4-12 0-2 0-2-2-2l-2-1h2c4-1 3-3-1-4l-4-2h-2l-1 12 1 10c1 2 4 1 5-1zm-3-15h0c-1 0-1 0 0 0zm-9-5l4-1h7c4 2 10 2 13 0l4-2h2l2-1c6 1 10-1 13-6l2-1 1-2 2-2 4-3c2-2 2-3 2-5v-2c1-1 1-2-1-3-2 0-2 0-3 3l-1 3-2 4c-2 3-2 4-11 9l-6 4-9-1-12 1-24 4-11-5-1-2 1-1h-9c-9-3-13-4-16-8-3-2-6-7-9-11 0-1-1-1-2 1-2 2-2 2-1 4 2 2 3 3 6 3l1 2 2 1 1 2c0 3 2 6 5 7h10l3 3c2 3 6 5 9 4h4l3 1h2c2 2 3 2 8 2 3 0 4 0 7-2zm7-9l1-2h-2c-2 2-2 3 1 2zm8-2h-1c-2 0-4 0-3 1s4 0 4-1zm-24-1c1-1 0-2-1-2-2 0-2 2-1 3s2 0 2-1zm21-1c2-1 0-2-2-1l-1 2c0 1 2 1 3-1zm-9-5l-2-1v1h2zm2 0h-1c-1 0-1 0 0 0h1zm2-2v-2c-2 0-4 2-3 2h3zm37-3c-2-1-2 0-1 2l1 2v-2-2zm-12 2c0-1-3-2-4-1v2c1 1 4 0 4-1zm-16-1v-1l-1 1h1zm-55-5l-1-1-3 4c1 1 4-2 4-3zm58 2c3 0 3-1 5-4l1-8a396 396 0 00-6-34l1-6v-6l-3-3-2-2-1-1-3 1c-5 1-6 2-4 7v6l-15 30-5 10 1 2 4 4 1 4 1 1 2-1c0-1 8-1 12 1 3 1 6 1 11-1zm-40 0l1-2c-1-1-3 0-3 2s1 2 2 0zm61-4c-1-2-2 0 0 2l1 1c1-1 0-2-1-3zm4 0l-1-2v5c1 1 2-1 1-3zm-53 2c1-1 0-2-1-2s-2 1-1 2h2zm-26-2c2 0 2-2 1-2-2 0-4 2-3 3l2-1zm-3-2v-3l-2 3c0 2 2 1 2 0zm-9-5l-1-1-1 1h2zm87-5l-1-2c-1 0-2 1-1 2h2zm-52-4l-3-1c-1 1 2 2 3 2v-1zm-18-1h-1v1c1 1 2 1 1-1zm60 0c2-1 1-3-1-1l-1 1h2zm-39-3h-3l1 2c2 1 2 0 2-2zm44 2l-1-1h-1l1 1h1zm-72-3c-2-2-1-10 0-17 1-6 1-6 3-6l1-1-1-1-2-2 1-1h2l1-2c0-1-2-2-3 0v-5-5l-17 16v12c1 3 12 13 15 14v-2zm69 0l-1-1v1l1 1v-1zm-91-13l5-25c2-9 2-15 1-15s-7 10-9 18c-3 8-3 20 0 30 2 4 2 4 3-8zm31 6l2-1c2 0 3-1 1-2-1-1-1-1 1-4s2-4 0-3c-2 0-2 0-2-5l-1-4-3 18-1 6 1-2 2-3zm-5 1c1-1 2-2 1-3v-1l-2 1c-3 3-2 5 1 3zm57-1c-1-1-2 0-1 1h1v-1zm32-10c2-4 3-12 2-16l-3-12-4-12-1-3-2 2-2 2 2 8 3 16v20l-1 4 3-3 3-6zm-69 6l3-1c3 0 5-1 5-2l1-2 1-2-1-9 1-9 4-4h-3c-1 1-1 0-1-3v-1l-2 2-4 2-2 1 1-1c3-2 2-3 0-2-2 0-2 0-1-1l3-3-2-1c-2 0-3-1-1-1v-2l1-2v2l1 2c2 0 2 0 1 2v3c1 2 7-4 7-7l-2-2c-4-2-11-3-11-2v2l1 1c2 0 2 0 0 1h-3l1-2v-2l-2 2-4 3-4 4c-2 1-2 2-2 4l-1 2-1 1c-1 1 0 2 1 1h2v3l-1 5c-1 2 0 2 2-1l5-3 4-3c1-1 1-1 0 0l-4 4v7l1 8c0 2 0 2 2 3l1 2 1 2c0 1 2 1 2-1zm0-34l1 1h-1v-1zm-6-4h0s-1 0 0 0zm25 18v-5c1-1 0-5-2-7-1-1-1 0-1 7 1 10 1 9-1 9l-2 1 2 1 1 3v3l2-5c2-4 2-4 1-7zm-3 10l-1-1-1 1 1 1 1-1zm-33-20h-1c-1 0-2 0-1 1s2 0 2-1zm43-2c0-2 0-2-1-1l-1 2c2 2 3 1 2-1zm18 0c3-2 3-3 4-5v-3l-4 1-5 2c-2 0-3 2-2 5s3 3 7 0zm-18-4c2-2 3-7 3-10h-2l-3 1-5 3-5 3v2l3 4 3 3 2-2 4-4zm4 4h3c1-1 0-6-1-9l-2-2-2 4c-2 4-2 6 0 6l1 1v2l1-2zm-57-11l-1-6 2 2 3 3-1-3c-1-10-2-11-6-7l-2 4 3 16 1 2 1-2v-9zm85 8c1-2-1-5-3-5-1-1-2 0-2 3v3c1 1 4 0 5-1zm-15-7c8-4 9-5 9-7l-1-1-15 6c-2 1-3 4-2 5h2l7-3zm-28 0h-2c-2 0-3 0-2 1 2 1 3 1 4-1zm5-3c7-2 14-5 14-7l1-2v-2c-1-2-1-3 1-4s2-2-1-2c-1 0-2-1-1-2s0-1-1-1c-3 1-8-2-6-4 2 0 1-2-1-2l-1-4c1-4 2-6 5-6l1-1c-2 0-5 1-7 3l-2 2v-2l2-4 1-1-1-1h3l1 1c2-1 2-1 1-3-2-2-2-3-3-2-2 0-2 0-4 4-1 3-8 12-10 12v-5l-4 2c-3 3-6 5-7 4l-1-2c-1-2-1-1-1 2 0 4-1 6-4 7-3 2-5 1-7 0-3-2-3-3-1-3 1 0 1-2-1-3-3-1-2-6 2-8l1-2c-3 0-5 2-7 4-1 4 0 7 2 12 1 3 2 3 0 4v4l2 5c2 2 6 5 11 6 9 3 15 3 23 1zm-10-4c-2-2-2-2 2-3 6-1 8 2 4 4-3 1-5 1-6-1zm6 0l-3-1-2 1h5zm43-4l3-2c-1-3-7-8-8-8-1 1-1 3 1 4v4 2l1 2 3-2zm-18 1v-1h-6l2 1h4zm8-3c4 0 6-2 6-3h-16c-3-1-5-1-4 2l5 1 2 1 3 1 4-2zm19-2l-1-2-2-2c0-2-2-3-5-4l-3-2c-1-2-3-2-3-1v1c2 0 8 5 10 8 1 3 3 3 4 2zm-19-5l3-1 1-3-1-1-4 1-6 2-4 2h11zm18-3l-2-1v1h2zm-71-1c2-2 1-3-3-2h-3c-2 0-3 1-2 2h8zm-35-6l8-10 2-4 1 2c2 3 3 3 4-1l2-7 5-18 2-2v2l1 2c2 2 4-1 8-6l7-8-2 4c-2 4-2 14-1 19 2 4 3 5 7 6 4 0 4 0 9-7h7c3-2 4-5 5-12v-6h8v-1c-1-4 4-6 7-4 1 2 2 2 3-1l-1-5c-1-3-2-3-6-5-9-4-14-5-28-5-12 0-12 0-16 2l-4 2-4 2c-5 1-13 5-16 9l-3 4-2 4c-4 6-8 14-9 21-2 7-2 29-1 29s4-2 7-6zm74 5l2-1-4-1c-5 1-6 1-4 2h6zm11-6c5-4 6-6 6-12 1-11-2-15-9-15h-4v2c3 12 2 22-1 29h2l6-4zm16 3c3-1 3-1 3-3l-1-2h-4c-3 1-4 1-5 3s-1 2 1 3l6-1zm2-11c0-2-2-2-3-1h-1-1c-2 1-1 2 1 3 4 0 4 0 4-2zm-67 1l-1-3-1-1 1-2-1-2-1-1-4 3-3 3h3l6 2 1 1zm-2-11l-1-1v2l1-1zm31 0v-1h-1c0 2 0 2 1 1zm28-14c4-2 4-3 1-3-6-2-14 0-18 2l-2 1 2 1c3 2 13 1 17-1zm-14-3l9-2 6-1c1-2 0-3-2-6-2-2-2-2-7-2s-5 0-6-2l-2-1h-2 1c2 1 3 3 1 3-1 1-1 0-2-1l-1-1 1 3v2c-1 2-2 5-1 7 1 3 0 3 5 1zm10-15c0-1 0-2-1-1v3l1-2zM95 16c0-2 0-2-1-1l-1 4c1 0 2-1 2-3zm160 126h1v1l-1-1z"/>
  <path fill="#9e665b" d="M120 245l-4-5-5-15c0-2-4-5-5-4l-3-1h-4c-3 1-6-1-10-4l-3-2-2-1h-1l-4 1-6-3-3-5c-1-3-2-4-4-5s-7-5-7-7l2-3 2-3 14-14 4-3c0-1-2-3-3-2l-3-1c-3-2-4-1-8 3-3 4-3 3-6-2s-4-13-4-21c-1-10 0-11 6-25 5-11 11-29 10-29l-2 1-5 4c-3 2-4 2-5 1V83c0-19 1-22 6-33s13-20 21-25l4-3-1-4c0-2 0-3 2-5 3-4 5-4 4 0v6l1 2 3-2 9-3c5-1 18 0 26 1 7 2 17 6 21 10l6 4c2 1 2 2 6 9 2 3 5 18 8 31l6 19c2 2 2 2 1 3l-3 1-2 1c-2 1-2 1 0 3s1 4-1 5l-3 3 7 24c2 5 2 6 1 12 0 9-2 14-7 19l-4 4-3-2-4-3c-2-2-2-2-3-1l-2 1-5 5a185 185 0 0027 27l-1 4c0 4-1 4-8 12-4 4-8 8-10 8l-12 3-4 1-4 2c-2 1-2 1-2 4s-1 10-3 13c-1 3-5 7-6 7l-3-2-2-12c0-10-1-13-2-12l1 5v11c0 7 0 7-2 9l-2 1-2-1zm4-5v-8l-2-7h-2 2l1-3-2-1-5 1-3 1c0 1 1 2 3 2s2 1 0 1h-3l3 7 3 7h5zm11-1c2-1 3-7 4-12 0-2 0-2-2-2l-2-1h2c4-1 3-3-1-4l-4-2h-2l-1 12 1 10c1 2 4 1 5-1zm-3-15h0c-1 0-1 0 0 0zm-9-5l4-1h7c4 2 10 2 13 0l4-2h2l2-1c6 1 10-1 13-6l2-1 1-2 2-2 4-3c2-2 2-3 2-5v-2c1-1 1-2-1-3-2 0-2 0-3 3l-1 3-2 4c-2 3-2 4-11 9l-6 4-9-1-12 1-24 4-12-6 1-2-1-1-1 1h-7c-9-3-13-4-16-8-3-2-6-7-9-11 0-1-1-1-2 1-2 2-2 2-1 4 2 2 3 3 6 3l1 2 2 1 1 2c0 3 2 6 5 7h10l3 3c2 3 6 5 9 4h4l3 1h2c2 2 3 2 8 2 3 0 4 0 7-2zm-7-2c1-1 1-2-2-5l-4-4v6c1 3 1 3 3 3h3zm27-5h6l-2-2-4-4-2-3-2 2c-1 1-2 2-3 0-1-1-3-1-4 1l-2 2-2 1v2l2 1 4 1 9-1zm-29-4c1-1 0-3-1-3s-2 1-1 3h2zm-24-4l1-11 2-10v-2l-3 2c-3 3-3 3-4 2h-2l-1 3-2 4-1 4 1 5v4l2 1c7 3 7 3 7-2zm15-4l-1-1-1 2c1 1 2 1 2-1zm21 1l-2-1v1h2zm2 0h-1c-1 0-1 0 0 0h1zm6-3c0-2-4-4-10-4l-6-1h5l8 2h8c6-1 7-2 8-7v-14l-1-10 1-1-1-2-1 1-1-4a553 553 0 00-1-16c1-5 1-6-3-9l-2-3-1-1-1 1-2 1c-5 1-6 2-4 7v6l-15 30c-6 11-6 10-1 15 3 3 3 3 1 4v3c1 2 2 2 6 1 4 0 5 0 5 2l4 1c3 0 4 0 4-2zm20 1c2-1 0-3-1-3-2 0-3 3-1 3h2zm14-1l-2-3c-1 2 0 5 1 5l1-2zm-28-1l-1-1-2 1h3zm-37-4l-1-1c-2 0-3 1-2 2 1 2 3 1 3-1zm62 0l-3-4v3c1 2 2 2 3 1zm3-2c0-2-1-3-2-2s0 4 1 4l1-2zm-54 0c0-1-2-2-3 0v1c1 1 3 0 3-1zm39-1c0-1-1-2-2-1l1 1h1zm-79-2v-1l-1 1h1zm2-7c-1-1-3 1-2 2h2v-2zm87-3c1-1-1-2-2-2-1 1-1 3 1 3l1-1zm-51-4l-3-1-2 1 1 1c2 1 4 0 4-1zm-18 0l-2-1-1 1h3zm59-1c2-1 2-2 0-2l-3 3 3-1zm-39-1c1-1-1-3-2-3v3h2zm44 0l-1-1c-1-1-2 0-1 1h2zm-72-3c-2-2-1-10 0-17l1-6v3l-1 5c0 3 0 3 1 2l1-1v7c-2 2-1 3 2 2l1-5c-1 0-1-4 1-11l2-11v-4l2-1 1 3-1 5c-1 2 0 2 2-1l5-3 4-3c1-1 1-1 0 0l-4 4v7l1 8 1 3 2 1v2c1 2 1 2 3 1l2 1c0 1 5 1 5-1l-2-1c-2 0-2 0 0-1 2 0 3-1 3-2l1-2v-2-9l2-10v4c0 5 0 5 3 4 1 0 2-1 2-5 0-6-1-7-3-7-1-1-1 0-2 1l-1-3v-1l-2 2-4 2-2 1 1-1c3-2 2-3 0-2-2 0-2 0-1-1l3-3-2-1c-2 0-3-1-1-1v-2l1-2v2l1 2c2 0 2 0 1 2v3c1 2 7-4 7-7l-2-2c-4-2-11-3-11-2v2l1 1c2 0 2 0 0 1h-3l1-2v-2l-2 2-4 3-4 4c-2 1-2 2-2 4l-1 2c-1 0-2-4 0-5v-1l-4 4c-2 3-3 4-3 2v-1l-17 16v12c1 3 12 13 15 14v-2zm25-12h1v1l-1-1zm-24-15l1-1v2c0 2-1 1-1-1zm1-6c0-2 0-3 1-2v4c-1 1-1 0-1-2zm22-12l1 1h-1v-1zm-6-4h0s-1 0 0 0zm51 49h-1l1 1v-1zm-91-13l5-25c2-9 2-15 1-15s-7 10-9 18c-3 8-3 20 0 30 2 4 2 4 3-8zm36 10l2-6-1 1-2 4-1 2 2-1zm-5-3c1-1 1-2 2-1 3 0 3-2 1-3l-1-1 2-2c2-3 2-5-1-5-1 1-1 0-1-4l-1-4-4 18c0 5 0 6 1 5l2-3zm84-11c2-4 3-12 2-16l-3-12-4-12-1-3-2 2-2 2 2 8 3 16v20l-1 4 3-3 3-6zm-77 6v0zm24-10l-1-1-1 1 1 2 1-2zm3-10v-5c1-1 0-5-2-7-1-1-1 0-1 7l1 9h-2c-3 0-3 2-1 2s2 1 2 3v3l2-5c2-4 2-4 1-7zm14-8c0-2 0-2-2-1v2c1 1 2 0 2-1zm-7-1v-7c2-2 3-7 3-10h-2l-3 1-5 3-5 3v2l3 4c3 2 3 3 4 2 2-2 3-2 2 0-2 1-2 2-1 3s1 1 4-1zm18-3c3-2 3-3 4-5v-3l-4 1-5 2c-2 0-3 2-2 5s3 3 7 0zm-14 1v-2h1l2 1c1-1 0-6-1-9l-2-2-2 4c-2 4-2 6 0 6l1 1-1 1h2zm-57-12l-1-6 2 2 3 3-1-3c-1-10-2-11-6-7l-2 4 3 16 1 2 1-2v-9zm85 8c1-2-1-5-3-5-1-1-2 0-2 3v3c1 1 4 0 5-1zm-15-7c8-4 9-5 9-7l-1-1-15 6c-2 1-3 4-2 5h2l7-3zm-28 0h-2c-2 0-3 0-2 1 2 1 3 1 4-1zm5-3c7-2 14-5 14-7l1-2v-2c-1-2-1-3 1-4s2-2-1-2c-1 0-2-1-1-2s0-1-1-1c-3 1-8-2-6-4 2 0 1-2-1-2l-1-4c1-4 2-6 5-6l1-1c-2 0-5 1-7 3l-2 2v-2l2-4 1-1-1-1h3l1 1c2-1 2-1 1-3-2-2-2-3-3-2-2 0-2 0-4 4-1 3-8 12-10 12v-5l-4 2c-3 3-6 5-7 4l-1-2c-1-2-1-1-1 2 0 4-1 6-4 7-3 2-5 1-7 0-3-2-3-3-1-3 1 0 1-2-1-3-3-1-2-6 2-8l1-2c-3 0-5 2-7 4-1 4 0 7 2 12 1 3 2 3 0 4v4l2 5c2 2 6 5 11 6 9 3 15 3 23 1zm-10-4c-2-2-2-2 2-3 6-1 8 2 4 4-3 1-5 1-6-1zm6 0l-3-1-2 1h5zm44-4l3-3-1-4c-1-1-2-2-3-1l-3-1-2-1c-1 1-1 3 1 4v4l-1 1 3 3 3-2zm-19 1v-1h-6l2 1h4zm8-3c4 0 6-2 6-3h-20c0 2 2 3 3 3l4 1 3 1 4-2zm19-2l-1-2-2-2c0-2-2-3-5-4l-3-2c-1-2-3-2-3-1v1c2 0 8 5 10 8 1 3 3 3 4 2zm-22-3l3-2 3-1 1-3-1-1-4 1-6 2c-4 1-5 2-2 3l1 1c0 3 5 3 5 0zm21-5l-2-1v1h2zm-71-1c2-2 1-3-3-2h-3c-2 0-3 1-2 2h8zm-35-6l8-10 2-4 1 2c2 3 3 3 4-1l2-7 5-18 2-2v2l1 2c2 2 4-1 8-6l7-8-2 4c-2 4-2 14-1 19 2 4 3 5 7 6 4 0 4 0 9-7h7c3-2 4-5 5-12v-6h8v-1c-1-4 4-6 7-4 1 2 2 2 3-1l-1-5c-1-3-2-3-6-5-9-4-14-5-28-5-12 0-12 0-16 2l-4 2-4 2c-5 1-13 5-16 9l-3 4-2 4c-4 6-8 14-9 21-2 7-2 29-1 29s4-2 7-6zm74 5l2-1-4-1c-5 1-6 1-4 2h6zm11-6c5-4 6-6 6-12 1-11-2-15-9-15h-4v2c3 12 2 22-1 29h2l6-4zm19 3v-4l-1-6c0-3-1-4-3-2h-1-1c-2 1-1 3 1 3h2c-2 0-2 1-2 2 0 2 0 2-2 3l-3 2c-1 2-1 2 1 2l6 1 3-1zm-68-10l-1-3-1-1 1-2-1-2-1-1-4 3-3 3h3l6 2 1 1zm-2-11l-1-1v2l1-1zm31 0v-1h-1c0 2 0 2 1 1zm28-14c4-2 4-3 1-3-6-2-14 0-18 2l-2 1 2 1c3 2 13 1 17-1zm-14-3l9-2 6-1c1-2 0-3-2-6-2-2-2-2-7-2s-5 0-6-2l-2-1h-2 1c2 1 3 3 1 3-1 1-1 0-2-1l-1-1 1 3v2c-1 2-2 5-1 7 1 3 0 3 5 1zm10-15c0-1 0-2-1-1v3l1-2zM95 16c0-2 0-2-1-1l-1 4c1 0 2-1 2-3zm160 126h1v1l-1-1z"/>
  <path fill="#6f4a9c" d="M120 245c-3-2-6-10-9-19 0-3-4-6-6-5l-2-1h-3c-3 1-7 0-10-3s-6-5-7-4l-4 1-6-3-3-5c-1-3-2-5-4-5l-6-5c-1-2-1-2 1-4l2-4 14-14c3-3 4-3 3-4l-2-1-3-1-4-1-3 4-3 3-2-1a44 44 0 01-6-26c0-9 1-13 6-24l6-16c5-13 6-16 2-12l-5 4c-3 2-4 2-5 1s0-31 1-37c4-15 16-33 27-38l3-2v-1l-1-4c0-2 0-3 2-5 4-4 4-4 4 2s0 7 3 5c4-3 8-4 19-4 9 0 12 0 17 2 8 1 17 6 22 10l4 3c1 0 4 3 4 5l1 2 2 1 7 28c2 12 3 16 6 20 2 5 2 7-1 7l-2 1c-2 1-2 1 0 3s1 4-1 5c-3 1-3 1-2 5l4 14c3 11 3 12 3 19 0 9-1 14-7 20l-4 4-4-3c-5-3-5-4-6-3l-2 1-4 3-2 3 11 11 14 13 3 1-1 4c0 5 0 5-6 10-9 10-11 11-14 12l-5 1h-3l-2 1-4 1-4 2c-1 0-2 0-2 5-1 9-4 16-8 18-2 1-2 1-4-1l-1-5a243 243 0 00-2-19l-1 2 1 11v9l-1 2c-3 3-3 3-5 1zm4-4v-22l2-1 2 1 1 6a205 205 0 001 13v3h2c3 0 3-1 4-3 2-4 4-15 3-17l2-1 6-2c2-1 3-2 4-1l2-1 4-1c5 0 8-1 10-4l3-3 1-2 2-2c3-1 6-4 6-9l-1-4c-2-1-1-1-3 3-2 5-6 11-8 12l-7 5-6 3-8-1c-8 0-9 0-16 2l-13 2h-9l-7-3c-2-1-2-2-2-3l-1-2-1 1h-6c-9-2-14-4-16-7-3-2-8-8-9-11l-1-2-4 4c0 2 4 5 6 5l2 1 1 2 2 4c2 5 3 6 10 5h6l2 3c2 4 6 5 11 4h2l2 1 4 1 3 1 1 1v2l1 3 2 8 4 6h4zm-8-24c1-1 1-2-2-5l-4-4v6c1 3 1 3 3 3h3zm27-5h6l-2-2-4-4-2-3-2 2c-1 1-2 2-3 0-1-1-3-1-4 1l-2 2-2 1v2l2 1 4 1 9-1zm-29-4c1-1 0-3-1-3s-2 1-1 3h2zm-24-4l1-11 2-10v-2l-3 2c-3 3-3 3-4 2h-2l-1 3-2 4-1 4 1 5v4l2 1c7 3 7 3 7-2zm38-3c0-1 3-2 4-1 2 0 2 0 2-2l-6-4h1l2 1 4 1 2 1h2l1-1 2-2c3 0 4-2 6-6l-1-12a233 233 0 00-1-12l1-2-1-1-1-1-1-3v-4l-1-2v-9c1-5 1-6-3-9l-2-3-1-1-1 1-2 1-3 1c-1 1-2-1-2-3l1-2h2l1-1v1c-2 1-2 2-1 3s1 1 4-1v-4l-1-2 2 1 1 3 1 1 1-1 2-1 1-2-2-8-2-3c0-2 0-2 3-4l7-2c2-1 3-3 1-3h-2 3l4 1 3-1h1l2-1c3 0 5-1 4-3h-15l-3-2 1-2c2 0 3 1 3 2l2 2c2 1 3 0 3-2l3-2c3-1 4-1 4-4 0-2 0-2-2-1l-4 1c-3 2-12 4-13 3l1-1-2-1c-4 0-6-1-6-2l1-2c1 0 1-2-1-2-2-1-2-4-1-7 1-2 2-3 6-3h2l-1-1c-3-1-7 0-9 2-1 2-2 2-2 1 0-2 3-4 6-4l3-1-2-3-3-3c-1 0-1 0 0 0v-4l-1 2-9 15-4 4v-7l-2 3c-2 2-6 5-8 5l-6-13c-1-5-2-5-7-1l-4 4h4c5 0 7 1 9 4 3 4 1 11-3 13-2 1-6 1-8-1l-2-1 2-1 1-2-2-1c-2 0-2-3-1-6l4-3 2-1h-2c-4 0-5 1-7 4-1 3-1 6 2 12v3c-2 0-1 2 0 6 2 6 6 9 16 11l2 1-6 3-4 3-1 1-3 2c-1 1-2 2-3 1l-4 4-2 2v-2l-11 9c-8 9-9 10-8 17l2 5 6 6c6 6 9 7 8 4v-15l2-8v1l-1 4-1 5v1l1-1 1-1v7l-1 2c1 1 2 0 3-1l2-1v2c0 2 0 3 1 2l2-3c1-1 1-2 2-1 3 0 3-2 1-3l-1-1 2-2c2-3 2-5 0-5-2 1-2 0-2-5s0-5 2-7l3-2v2l1 8 2 8 2 3c1 2 1 2 3 2h2c0 1 5 1 5-1l-2-1c-2 0-2 0 0-1l3-2 1-2v-2l1-10c0-7 1-8 1-5 0 5 0 5 3 4 1 0 2-1 2-5 0-6-1-7-3-7-1-1-2 0-2 1l-1-2v-3l-2 2 1-1 3-5c1-2 1-2 3 1l1 12v9h-2l-1 1 1 1c2 0 3 2 1 3v3c2 0-4 14-13 29l-2 5 2 3c2 2 2 3 0 3l-1 1c-1 1 1 2 3 1l2-1-1 2v3c1 1 2 2 6 2l5 1-1 1c-1 0-1 1 1 1h2zm-7-8h4c1 1 0 1-2 1-3 0-4 0-2-1zm-31-36l2-9 2-11 1-4 1 5-2 11-1 8c0 2 0 2-2 2l-1-2zm21 0h1v1l-1-1zm16-9l3-6-1 4-2 2zm-39-13c0-2 0-2 1-1v3c-1 1-1 0-1-2zm6-7l1-3 1 1v3l-1 1-1-2zm37-14h0s-1 0 0 0zm3-1l3-1c1-1 1-1 0 0l-3 1c-1 0-1 0 0 0zm-7-4l-2-2-5 1h-1c0-1 3-2 7-2 2 1 2 2 1 3-1 0-1 0 0 0zm-22 91l-1-1-1 2c1 1 2 1 2-1zm49-1c2-1 0-3-1-3-2 0-3 3-1 3h2zm14-1l-2-3c-1 2 0 5 1 5l1-2zm-65-5l-1-1c-2 0-3 1-2 2 1 2 3 1 3-1zm62 0l-3-4v3c1 2 2 2 3 1zm3-2c0-2-1-3-2-2s0 4 1 4l1-2zm-15-1c0-1-1-2-2-1l1 1h1zm-79-2v-1l-1 1h1zm2-7c-1-1-3 1-2 2h2v-2zm87-3c1-1-1-2-2-2-1 1-1 3 1 3l1-1zm-51-4l-3-1-2 1 1 1c2 1 4 0 4-1zm-18 0l-2-1-1 1h3zm59-1c2-1 2-2 0-2l-3 3 3-1zm-39-1c1-1-1-3-2-3v3h2zm44 0l-1-1c-1-1-2 0-1 1h2zm-3-3h-1l1 1v-1zm-91-13l5-25c2-9 2-15 1-15s-7 10-9 18c-3 8-3 20 0 30 2 4 2 4 3-8zm36 10l2-6-1 1-2 4-1 2 2-1zm79-14c2-4 3-12 2-16l-3-12-4-12-1-3-2 2-2 2 2 8 3 16v20l-1 4 3-3 3-6zm-77 6v0zm41-28c0-2 0-2-2-1v2c1 1 2 0 2-1zm11-4c3-2 3-3 4-5v-3l-4 1-5 2c-2 0-3 2-2 5s3 3 7 0zm-71-11l-1-6 2 2 3 3-1-3c-1-10-2-11-6-7l-2 4 3 16 1 2 1-2v-9zm83 9c2 0 3-1 3-2 0-2-2-4-4-5-2 0-2 0-2 3-1 3 0 5 1 5l2-1zm-15-7c10-4 13-7 12-9-2-1-16 4-18 7-2 2-2 4-1 4l7-2zm19-12c4-3 4-4 2-7-1-1-2-2-3-1l-3-1c-1-2-3-1-3 1l2 2v3 4c1 2 2 2 5-1zm8-5l-1-1-2-3-3-3-5-2c-1-2-2-2-3-2l1 2 8 8 3 3c2 0 2-1 2-2zm-1-7c0-1-1-2-2-1l1 2 1-1zm-71-1c2-2 1-3-3-2h-3c-2 0-3 1-2 2h8zm-35-6l8-10 2-4 1 2c2 3 3 3 4-1l2-7 5-18 2-2v2l1 2c2 2 4-1 8-6l7-8-2 4c-2 4-2 14-1 19 2 4 3 5 7 6 4 0 4 0 9-7h7c3-2 4-5 5-12v-6h8v-1c-1-4 4-6 7-4 1 2 2 2 3-1l-1-5c-1-3-2-3-6-5-9-4-14-5-28-5-12 0-12 0-16 2l-4 2-4 2a33 33 0 00-21 17c-4 6-8 14-9 21-2 7-2 29-1 29s4-2 7-6zm74 5l2-1-4-1c-5 1-6 1-4 2h6zm11-6c5-4 6-6 6-12 1-11-2-15-9-15h-4v2c3 12 2 22-1 29h2l6-4zm19 1l-1-7v-4h-3c-2 0-3 1-3 3l1 1 1 2c0 2 0 2-2 2l-3 3c-1 2-1 2 1 2l5 1h5zm-26-6h-1l1 2v-2zm-58-1v-1l-1 1h1zm14-12c0-2-1-3-2-1l1 2 1-1zm58-13c3-2 5-3 4-4l-3-1h-1c3-1 3-4 0-8-2-2-2-2-7-2s-5 0-6-2l-2-1h-2 1c2 1 3 3 1 3-1 1-1 0-2-1l-1-1 1 3v2c-1 2-2 5-1 7s1 2 4 1h2l-2 1-2 1c-2 2-2 2 0 2 3 2 13 1 16 0zm-11-5h3-3zm8-14c0-1 0-2-1-1v3l1-2zM95 16c0-2 0-2-1-1l-1 4c1 0 2-1 2-3z"/>
  <path fill="#64954c" d="M120 245c-3-2-6-10-9-19 0-3-4-6-6-5l-2-1h-3c-3 1-7 0-10-3s-6-5-7-4l-4 1-6-3-3-5c-1-3-2-5-4-5l-6-5c-1-2-1-2 1-4l2-4 14-14c3-3 4-3 3-4l-2-1-3-1-4-1-3 4-3 3-2-1a44 44 0 01-6-26c0-9 1-13 6-24l6-16c5-13 6-16 2-12l-5 4c-3 2-4 2-5 1s0-31 1-37c4-15 16-33 27-38l3-2v-1l-1-4c0-2 0-3 2-5 4-4 4-4 4 2s0 7 3 5c4-3 8-4 19-4 9 0 12 0 17 2 8 1 17 6 22 10l4 3c1 0 4 3 4 5l1 2 2 1 7 28c2 12 3 16 6 20 2 5 2 7-1 7l-2 1c-2 1-2 1 0 3s1 4-1 5c-3 1-3 1-2 5l4 14c3 11 3 12 3 19 0 9-1 14-7 20l-4 4-4-3c-5-3-5-4-6-3l-2 1-4 3-2 3 11 11 14 13 3 1-1 4c0 5 0 5-6 10-9 10-11 11-14 12l-5 1h-3l-2 1-4 1-4 2c-1 0-2 0-2 5-1 9-4 16-8 18-2 1-2 1-4-1l-1-5a243 243 0 00-2-19l-1 2 1 11v9l-1 2c-3 3-3 3-5 1zm4-4v-22l2-1 2 1 1 6a205 205 0 001 13v3h2c3 0 3-1 4-3 2-4 4-15 3-17l2-1 6-2c2-1 3-2 4-1l2-1 4-1c5 0 8-1 10-4l3-3 1-2 2-2c3-1 6-4 6-9l-1-4c-2-1-1-1-3 3-2 5-6 11-8 12l-7 5-6 3-9-1h-9l7-1h7l-5-5c-4-5-6-6-8-4l-6 1c-2 0-3 1-4 4l1 3 2 1c1 1 2 2 4 1 5-1 1 1-5 2-16 3-17 4-21 2l-7-3c-2-1-2-2-2-3 0-2-1-3-2-2-1 2-1 2-6 1l-2-1h2v-6c0-6 1-17 3-23s-1-5-8 3l-9 12-3 6 2 2 6 3 4 2c-1 1-9-3-11-5-3-2-8-8-9-11l-1-2-4 4c0 2 4 5 6 5l2 1 1 2 2 4c2 5 3 6 10 5h6l2 3c2 4 6 5 11 4h2l2 1 4 1 3 1 1 1v2l1 3 2 8 4 6h4zm-6-25l2-1-2-6c-1-4-1-5-3-7l-7-7c-3-6-4-7-3-10v-13c-1-1-4-2-4 0v20c-2 1-2 3 0 3s2 1 2 4l1 2v2l7 14c1 1 4 0 7-1zm42-10l2-2-3-4c-2-5-5-7-7-5l-2 2 5 10c2 2 4 1 5-1zm-32-5l4-1c2 0 2 0 2-2-1-2 0-2 1-2l3 1c0 1 2 1 2-1l2-2c3 0 4-2 6-6l-1-12a233 233 0 00-1-12l2-1c0-1-1-3-2-2l-1-1-1-3v-4l-1-2v-9c1-5 1-6-2-8l-2-4 3-4 1-2-2-8-2-3c0-2 0-2 3-4l7-2c2-1 3-3 1-3h-2 3l4 1 3-1h1l2-1c3 0 5-1 4-3h-16c-2-1-2-2-2-3h1c1 2 3 3 6 3l3-1c0-2 1-2 2-2l3-2 1-5-5 2c-4 2-13 4-14 3l1-1-2-1c-4 0-6-1-6-2l1-2c1 0 1-2-1-2-2-1-2-4-1-7 1-2 2-3 6-3h2l-1-1c-3-1-7 0-9 2-1 2-2 2-2 1 0-2 3-4 6-4l3-1-2-3-3-3c-1 0-1 0 0 0v-4l-1 2-9 15-4 4v-7l-2 3c-2 2-6 5-8 5l-6-13c-1-5-2-5-7-1l-4 4h4c5 0 7 1 9 4 3 4 1 11-3 13-2 1-6 1-8-1l-2-1 2-1 1-2-2-1c-2 0-2-3-1-6l4-3 2-1h-2c-4 0-5 1-7 4-1 3-1 6 2 12v3c-2 0-1 2 0 6 2 6 6 9 16 11l2 1-6 3-4 3-1 1-3 2c-2 2-3 3-2 5l-1 2v-5-1l-4 3-2 2v-1l-11 9c-8 9-9 10-8 17l2 5 6 6c6 6 9 7 8 4l-1-13 1-3v4 6c0 2 3 2 5 0l1-1v2c0 3 1 3 3 0 0-1 1-2 3-2 2-1 2-3 0-3-1-1-1-1 1-4 2-2 2-4 0-4l-1-4-1-5 5-5v2l1 8 2 8 2 3c0 2 1 2 5 3l6-1c2-2 2-3 0-3s-2 0-1-1l1-1 1-1c1 0 2-4 0-4v-5c1-4 1-5 2-4h2c2 0 3-1 3-3v4c-1-1-4 1-4 2l2 1c2-1 3 1 1 1v4c2 0-4 14-13 29-3 4-3 5 0 8l1 2-1 1c-2 1-2 1 1 4 3 4 3 4 8 4l5 1-1 1c-1 0-1 1 1 1h2zm1-7h1l-1 1v-1zm-8-1h4c1 1 0 1-2 1-3 0-4 0-2-1zm-31-35l2-10 2-11 1-4 1 5-2 11-1 8c0 2 0 2-2 2l-1-1zm-4-7v-1 1zm41-3l3-6-1 4-2 2zm-40 0v-1 1zm33-13c0-1 0-2 1-1v2c-1 1-1 0-1-1zm9-4l1-4h2l1-1-1 1v3c2 1 2 1 0 2l-3-1zm-3-2c-1-3-1-4-3-4a8183 8183 0 00-3 2v-3l-2 2 1-1 3-5c1-2 1-2 3 1l1 7v4zm10 0c2-2 2-3 0-4-1-2-1-2 1-1 2 2 1 4-1 6-1 2-2 1 0-1zm-5-15h0s-1 0 0 0zm3-1l3-1c1-1 1-1 0 0l-3 1c-1 0-1 0 0 0zm-7-4l-2-2-5 1h-1c0-1 3-2 7-2 2 1 2 2 1 3-1 0-1 0 0 0zm41 90c0-2-1-5-2-4v4c1 2 2 2 2 0zm-3-6h2l1-2c0-3-2-4-3-1 0 2 0 2-1 1-1-2-3-2-3-1l3 4 1-1zm-12-3c-1-2-2-2-2-1l1 1h1zm-79-3s-2 1-1 2l1-1v-1zm2-5l-1-1c-1 0-2 2-1 3s2-1 2-2zm88-4l-2-1h-2c0 1 0 2 2 2l2-1zm-70-4l-2-1c-2 0-2 0 0 1 1 2 2 2 2 0zm18 0c0-1-3-2-5-1v2c1 1 5 1 5-1zm42-1l1-2c-1-1-5 1-5 3 1 1 2 1 4-1zm-39-1l-3-3c-1 0-2 1-1 2 1 2 4 2 4 1zm43 0l-1-1c-1-1-2 0-1 1h2zm-3-4c-1-1-2 0-1 2h1v-2zm-53-6l1-7v-4l-1 5-4 10-1 2c0 2 4-3 5-6zm-38-6l5-25c2-9 2-15 1-15s-7 10-9 18c-3 8-3 20 0 30 2 4 2 4 3-8zm115-4c2-4 3-12 2-16l-3-12-4-12-1-3-2 2-2 2 2 8 3 16v20l-1 4 3-3 3-6zm-35-22c0-2-1-2-3-2-1 1-2 2-1 3 2 2 4 1 4-1zm10-4c3-2 3-3 4-5v-3l-4 1-5 2c-2 0-3 2-2 5s3 3 7 0zm-71-11l-1-6 2 2 3 3-1-3c-1-10-2-11-6-7l-2 4 3 16 1 2 1-2v-9zm83 9c2 0 3-1 3-2 0-2-2-4-4-5-2 0-2 0-2 3-1 3 0 5 1 5l2-1zm-15-7c10-4 13-7 12-9-2-1-16 4-18 7-2 2-2 4-1 4l7-2zm18-11l3-3c2-1 3-2 4-1 2 0 2 0 2-2l-1-1-2-3-3-3-5-2c-1-2-2-2-3-2l1 2c4 2 7 6 8 8 1 1 1 1 0 0-2-3-3-3-4-3h-3c-2-2-3-2-3 1l2 2v4c-2 1-2 1-1 3 2 1 2 2 5 0zm8-13c0-1-1-2-2-1l1 2 1-1zm-71-1c2-2 1-3-3-2h-3c-2 0-3 1-2 2h8zm-35-6l8-10 2-4 1 2c2 3 3 3 4-1l2-7 5-18 2-2v2l1 2c2 2 4-1 8-6l7-8-2 4c-2 4-2 14-1 19 2 4 3 5 7 6 4 0 4 0 9-7h7c3-2 4-5 5-12v-6h8v-1c-1-4 4-6 7-4 1 2 2 2 3-1l-1-5c-1-3-2-3-6-5-9-4-14-5-28-5-12 0-12 0-16 2l-4 2-4 2a33 33 0 00-21 17c-4 6-8 14-9 21-2 7-2 29-1 29s4-2 7-6zm74 5l2-1-4-1c-5 1-6 1-4 2h6zm11-6c5-4 6-6 6-12 1-11-2-15-9-15h-4v2c3 12 2 22-1 29h2l6-4zm19 2l-1-8v-4h-3c-2 0-3 1-3 3l1 1 1 2c0 2-1 2-2 2l-3 2-1 3 2 1h7l2 1v-3zm-26-7h-1l1 2v-2zm-58-1v-1l-1 1h1zm14-12c0-2-1-3-2-1l1 2 1-1zm58-13c3-2 5-3 4-4l-3-1h-1c3-1 3-4 0-8-2-2-2-2-7-2s-5 0-6-2l-2-1h-2 1c2 1 3 3 1 3-1 1-1 0-2-1l-1-1 1 3v2c-1 2-2 5-1 7s1 2 4 1h2l-2 1-2 1c-2 2-2 2 0 2 3 2 13 1 16 0zm-11-5h3-3zm8-14c0-1 0-2-1-1v3l1-2zM95 16c0-2 0-2-1-1l-1 4c1 0 2-1 2-3z"/>
  <path fill="#685a54" d="M120 245c-3-2-6-10-9-19 0-3-4-6-6-5l-2-1h-3c-3 1-7 0-10-3s-6-5-7-4l-4 1-6-3-3-5c-1-3-2-5-4-5l-6-5c-1-2-1-2 1-4l2-4 14-14c3-3 4-3 3-4l-2-1-3-1-4-1-3 4-3 3-2-1a44 44 0 01-6-26c0-9 1-13 6-24l6-16c5-13 6-16 2-12l-5 4c-3 2-4 2-5 1s0-31 1-37c4-15 16-33 27-38l3-2v-1l-1-4c0-2 0-3 2-5 4-4 4-4 4 2s0 7 3 5c4-3 8-4 19-4 9 0 12 0 17 2 8 1 17 6 22 10l4 3c1 0 4 3 4 5l1 2 2 1 7 28c2 12 3 16 6 20 2 5 2 7-1 7l-2 1c-2 1-2 1 0 3s1 4-1 5c-3 1-3 1-2 5l4 14c3 11 3 12 3 19 0 9-1 14-7 20l-4 4-4-3c-5-3-5-4-6-3l-2 1-4 3-2 3 11 11 14 13 3 1-1 4c0 5 0 5-6 10-9 10-11 11-14 12l-5 1h-3l-2 1-4 1-4 2c-1 0-2 0-2 5-1 9-4 16-8 18-2 1-2 1-4-1l-1-5a243 243 0 00-2-19l-1 2 1 11v9l-1 2c-3 3-3 3-5 1zm4-4v-22l2-1 2 1 1 6a205 205 0 001 13v3h2c3 0 3-1 4-3 2-4 4-15 3-17l2-1 6-2c2-1 3-2 4-1l2-1 4-1c5 0 8-1 10-4l3-3 1-2 2-2c3-1 6-4 6-9l-1-4c-2-1-1-1-3 3-2 5-6 11-8 12l-7 5-6 3-9-1h-9l7-1h7l-5-5c-4-5-6-6-8-4l-6 1c-2 0-3 1-4 4l1 3 2 1c1 1 2 2 4 1 5-1 1 1-5 2-16 3-17 4-21 2l-7-3c-2-1-2-2-2-3 0-2-1-3-2-2-1 2-1 2-6 1l-2-1h2v-6c0-6 1-17 3-23s-1-5-8 3l-9 12-3 6 2 2 6 3 4 2c-1 1-9-3-11-5-3-2-8-8-9-11l-1-2-4 4c0 2 4 5 6 5l2 1 1 2 2 4c2 5 3 6 10 5h6l2 3c2 4 6 5 11 4h2l2 1 4 1 3 1 1 1v2l1 3 2 8 4 6h4zm-6-25l2-1-2-6c-1-4-1-5-3-7l-7-7c-3-6-4-7-3-10v-13c-1-1-4-2-4 0v20c-2 1-2 3 0 3s2 1 2 4l1 2v2l7 14c1 1 4 0 7-1zm42-10l2-2-3-4c-2-5-5-7-7-5l-2 2 5 10c2 2 4 1 5-1zm-32-5l4-1c2 0 2 0 2-2-1-2 0-2 1-2l3 1c0 1 2 1 2-1l2-2c3 0 4-2 6-6l-1-12a233 233 0 00-1-12l2-1c0-1-1-3-2-2l-1-1-1-3v-4l-1-2v-9c1-5 1-6-2-8l-2-4 3-4 1-2-2-8-2-3c0-2 0-2 3-4l7-2c2-1 3-3 1-3h-2 3l4 1 3-1h1l2-1c3 0 5-1 4-3h-16c-2-1-2-2-2-3h1c1 2 3 3 6 3l3-1c0-2 1-2 2-2l3-2 1-5-5 2c-4 2-13 4-14 3l1-1-2-1c-4 0-6-1-6-2l1-2c1 0 1-2-1-2-2-1-2-4-1-7 1-2 2-3 6-3h2l-1-1c-3-1-7 0-9 2-1 2-2 2-2 1 0-2 3-4 6-4l3-1-2-3-3-3c-1 0-1 0 0 0v-4l-1 2-9 15-4 4v-7l-2 3c-2 2-6 5-8 5l-6-13c-1-5-2-5-7-1l-4 4h4c5 0 7 1 9 4 2 4 2 10-2 13h-2c-1 0-1 0 0 0 3-1 5-5 1-4l-4 1c-4 1-4 1-2 3l1 1-3-2-2-1 2-1 1-2-2-1c-2 0-2-3-1-6l4-3 2-1h-2c-4 0-5 1-7 4-1 3-1 6 2 12v3c-2 0-1 2 0 6 2 6 6 9 16 11l2 1-6 3-4 3-1 1-3 2c-2 2-3 3-2 5l-1 2v-5-1l-4 3-2 2v-1l-11 9c-8 9-9 10-8 17l2 5 6 6c6 6 9 7 8 4l-1-13 1-3v4 6c0 2 3 2 5 0l1-1v2c0 3 1 3 3 0 0-1 1-2 3-2 2-1 2-3 0-3-1-1-1-1 1-4 2-2 2-4 0-4l-1-4-1-5 5-5v2l1 8 2 8 2 3c0 2 1 2 5 3l6-1c2-2 2-3 0-3s-2 0-1-1l1-1 1-1c1 0 2-4 0-4v-5c1-4 1-5 2-4h2c2 0 3-1 3-3v4c-1-1-4 1-4 2l2 1c2-1 3 1 1 1v4c2 0-4 14-13 29-3 4-3 5 0 8l1 2-1 1c-2 1-2 1 1 4 3 4 3 4 8 4l5 1-1 1c-1 0-1 1 1 1h2zm1-7h1l-1 1v-1zm-8-1h4c1 1 0 1-2 1-3 0-4 0-2-1zm-31-35l2-10 2-11 1-4 1 5-2 11-1 8c0 2 0 2-2 2l-1-1zm-4-7v-1 1zm41-3l3-6-1 4-2 2zm-40 0v-1 1zm33-13c0-1 0-2 1-1v2c-1 1-1 0-1-1zm9-4l1-4h2l1-1-1 1v3c2 1 2 1 0 2l-3-1zm-3-2c-1-3-1-4-3-4a8183 8183 0 00-3 2v-3l-2 2 1-1 3-5c1-2 1-2 3 1l1 7v4zm10 0c2-2 2-3 0-4-1-2-1-2 1-1 2 2 1 4-1 6-1 2-2 1 0-1zm-5-15h0s-1 0 0 0zm3-1l3-1c1-1 1-1 0 0l-3 1c-1 0-1 0 0 0zm-7-4l-2-2-5 1h-1c0-1 3-2 7-2 2 1 2 2 1 3-1 0-1 0 0 0zm41 90c0-2-1-5-2-4v4c1 2 2 2 2 0zm-3-6h2l1-2c0-3-2-4-3-1 0 2 0 2-1 1-1-2-3-2-3-1l3 4 1-1zm-12-3c-1-2-2-2-2-1l1 1h1zm-79-3s-2 1-1 2l1-1v-1zm2-5l-1-1c-1 0-2 2-1 3s2-1 2-2zm88-4l-2-1h-2c0 1 0 2 2 2l2-1zm-70-4l-2-1c-2 0-2 0 0 1 1 2 2 2 2 0zm18 0c0-1-3-2-5-1v2c1 1 5 1 5-1zm42-1l1-2c-1-1-5 1-5 3 1 1 2 1 4-1zm-39-1l-3-3c-1 0-2 1-1 2 1 2 4 2 4 1zm43 0l-1-1c-1-1-2 0-1 1h2zm-92-3l1-13 1-16 5-30c0-6 0-6-3 2l-1 3-9 21c-3 8-1 28 3 33 2 2 2 2 3 0zm89-1c-1-1-2 0-1 2h1v-2zm-53-6l1-7v-4l-1 5-4 10-1 2c0 2 4-3 5-6zm77-10l2-10c1-6 0-7-4-23l-3-11-1-2-3 3-2 3 1 3a86 86 0 013 45v2l3-3 4-7zm-35-22c0-2-1-2-3-2-1 1-2 2-1 3 2 2 4 1 4-1zm12-3c2-2 3-6 3-10v-2l-6 2-6 3c-1 1-2 1-1 3l1 4 1 3 1 2 2-2 5-3zm-72-6c0-2 1-3 2-2 2 1 3-3 3-8v-3l1 3 2 3v-3c-1-4-3-10-5-11l-5-1-4 1v6c0 8 2 15 4 19l1 3v-2l1-5zm82 3c2 0 3-1 3-2 0-2-2-4-4-5-2 0-2 0-2 3-1 3 0 5 1 5l2-1zm-15-7c10-4 13-7 12-9-2-1-16 4-18 7-2 2-2 4-1 4l7-2zm3-8l4-2c-1-1-2-1-6 1l-6 3c-1 2 0 2 3 0l5-2zm15-3l3-3c2-1 3-2 4-1 2 0 2 0 2-2l-1-1-2-3-3-3-5-2c-1-2-2-2-3-2l1 2c4 2 7 6 8 8 1 1 1 1 0 0-2-3-3-3-4-3h-3c-2-2-3-2-3 1l2 2v4c-2 1-2 1-1 3 2 1 2 2 5 0zM72 90l5-7 4-5v3c0 4 3 8 5 7l1-8a93 93 0 017-31v4c0 5 1 6 3 5 3 0 6-5 8-12l4-8-1 3-1 12 1 11c2 4 4 5 8 5s5-1 7-4c2-4 2-4 3-3 1 2 4 1 6-1 3-3 6-11 5-17-1-4 0-4 2-1l2 3 1-3 2-5c-1-1 2-4 4-4l3 2 2 1c3-1 4-3 4-5s0-3-4-5c-9-6-19-9-33-9-11 0-16 1-20 4l-6 3c-9 1-18 10-25 25-5 10-6 15-6 32v14l4-2 5-4zm105 3c0-1-1-2-2-1l1 2 1-1zm-24-3c4-2 8-6 9-11 2-5 1-15-1-18l-1-3h-12l1 4c2 6 2 20 0 24l-1 6 5-2zm-7 1l1-2-9 1c-1 1 1 2 4 2l4-1zm29-4l-1-8v-4h-3c-2 0-3 1-3 3l1 1 1 2c0 2-1 2-2 2l-3 2-1 3 2 1h7l2 1v-3zm-26-7h-1l1 2v-2zm-58-1v-1l-1 1h1zm84-5a162 162 0 00-4-20c-1-2-2-2-2 0-1 1 2 16 3 18s3 3 3 2zm-70-7c0-2-1-3-2-1l1 2 1-1zm58-13c3-2 5-3 4-4l-3-1h-1c3-1 4-3 2-6s-5-5-10-5c-4 1-4 1-5-1l-2-2c-3 0-4 2-3 5v3c-2 4-1 10 2 8v1c-2 2-2 2 0 3 3 1 13 0 16-1zm-10-5h1l-1 1v-1zm4 0h1-1zm-11-10c0-2 1-3 2-2s1 3-1 3l-1-1zm14-3l1-2-1-1c-2 0-3 3-2 4s2 1 2-1zM95 17c0-3 0-4-1-2l-1 5c1 2 2 1 2-3z"/>
  <path fill="#4e823d" d="M119 244c-2-2-7-14-8-19 0-2-3-5-6-5h-2-4c-5 0-7-1-10-5l-2-2h-5c-3 1-6 1-9-2l-3-6-4-4c-4-2-6-5-6-7l2-3 1-3c0-2 9-9 15-14l3-3-1-1-2-2h-4l-3-2-3 4-3 4-2-3c-4-4-6-14-6-24 0-8 0-11 6-23 6-13 11-27 11-30h-2l-6 5c-6 3-6 3-5-9V74c0-8 2-14 5-22 6-12 14-23 22-27l4-3-1-4c0-2 0-3 2-5 3-3 4-3 4 3l1 5 2-1c3-2 5-3 12-4 7 0 18 0 26 2a57 57 0 0124 13l4 4 2 3 5 14 4 19c2 9 3 14 6 18l1 3-3 1c-3 1-4 3-2 5v3l-2 2c-3 1-2 6 4 23 2 7 2 9 2 15 0 9-2 15-7 20l-4 3-3-2c-6-4-6-4-7-3l-2 1-3 3-3 2 4 5 20 19 4 3-1 4c0 4 0 4-8 12-7 7-9 8-12 9h-6l-2 1h-2l-4 2-4 2-2 6c-2 10-7 19-11 17-2-1-2-3-2-14l-1-11c-2-1-2 0-1 9 1 10 0 14-2 16s-2 2-5-1zm5-3v-22h3c2 0 2 1 2 7v11l2 4h3c3-1 5-9 5-17l1-4h2c2 0 3 0 5-2l3-1 3-1h5c5-1 7-2 10-6l2-2 2-1 1-2 3-3c2-2 3-3 3-5l1-4-2-2-2-1-1 3c-1 5-6 12-8 13l-5 3c-7 5-8 5-14 4h-6l4-1h4l-5-5c-4-5-6-6-8-4l-6 1c-2 0-3 1-4 4l1 3 2 2 2 1-7 2c-6 1-11 2-7 0l2-1-2-6c-1-4-1-5-3-7l-7-7c-3-6-4-7-3-10v-13c-1-1-4-2-4 0v20c-2 1-2 3 0 3s2 1 2 4l1 2v2l7 14c1 2-3 0-8-2-4-2-4-3-4-4 0-2-1-3-2-2s-1 2-4 1l-3-1 1-8c0-8 1-14 3-21 2-6-1-5-8 3l-9 12-3 7 2 2 2 1c-2 0-9-8-11-12l-2-4-2 2-2 3c0 2 4 5 5 5 2 0 5 3 6 6 0 3 3 6 6 7h3c4-1 7 0 8 2 2 3 6 5 10 4l4 1h2l4 1 2 1c1 0 2 1 2 3 1 5 4 15 6 16 2 2 4 2 5 1zm-10-24h2l-2 1v-1zm20-4h1l-1 1v-1zm3 0h1-1zm-49-5h1l-1 1v-1zm-7-2c-2 0-2 0 0 0l3 1-3-1zm79 0l2-2-3-4c-2-5-5-7-7-5l-2 2 5 10c2 2 4 1 5-1zm-31-5l3-1c2 0 2 0 2-2-1-2 0-2 1-2l2 1h3c0-1 1-2 3-2 2-1 3-2 4-6 2-4 2-5 0-18v-8l1-1-2-1c-2 0-4-15-2-22 0-2 0-3-3-5l-2-4 3-4 2-1-3-10c-3-3-2-4 1-6l5-2 9-3h3l2-1 3 2 2 2c1 0 6-3 7-5h3c3 0 3-1 1-3l-1-2-1-1v-2h2c0-2-1-3-2-2l-1 1c0 1-4 0-5-2l-2-1 2-1h4l2 1v-3l-1-8c0-3-1-5-2-4h-2l-2 2 1 2 1 2c0 2-1 2-2 2-2 0-4 3-4 5s-1 2-2 2l-4 2-13 3v-1-1l1-2c2-3 2-3-3-3-6 1-8 3-2 4l3 1h-3c-4 0-6-2-3-4 1-1 0-2-1-2s-2-3-1-6 3-4 6-4h2c-1-2-8-1-10 1h-2c0-1 3-3 6-3l3-1-2-3-3-3c-1 0-1 0 0 0v-3l-1-2v2l-1 3-2 4c-2 5-9 13-10 13v-3c0-4 0-4-2-2l-7 6c-1 0-5-7-6-12-2-6-3-6-9-1l-3 3c2-1 8 0 10 1 5 3 5 11 2 14l-1 1c2-2 2-3-1-3l-4 1c-4 0-4 1-3 2v1c-2 0-2-2-1-3 2-1 1-3-1-3l-1-4c0-2 3-5 6-5v-1c-2-1-5 0-7 2-3 2-3 7-1 13l1 4c-2 0-1 2 0 6 2 5 6 8 12 10l5 2-3 1-8 6c-4 4-5 5-4 7l-1 2v-5-1l-3 2-3 3c-1-1-5 1-5 2l-7 7c-7 8-8 10-7 16l1 4a118 118 0 0014 13l1-1-1-9 1 2c0 2 2 2 5 0l1-1v2c0 3 1 3 3 0 0-1 1-2 3-2 2-1 2-3 0-3-1-1-1-1 1-4 2-2 2-4 0-4l-2-5c0-5 1-8 3-9l2 1c0 6 2 17 3 17l2 3c1 2 1 2 5 3l6-1c2-2 2-3 0-3h-1l1-2 1-1c1 0 2-3 1-4l-1-5 2-4c2 1 5 0 5-3v4c-1-1-4 1-4 2l2 1c2 0 2 0 1 1v4l-2 9a578 578 0 01-13 25l2 3 1 2-1 1c-2 1-2 1 1 4 3 4 3 4 8 4s7 1 3 2c-3 0-3 1 0 1l3 1 2-1zm-9-8h3c1 1 0 1-1 1-2 0-3 0-2-1zm-30-35l2-10 2-11 1-4c1-1 1 0 1 3l-1 6c0 5-3 17-4 17l-1-1zm-5-1l1-1v2l-1-1zm35-22c0-1 0-2 1-1v2c-1 1-1 0-1-1zm9-4l1-4h2c1-1 1 0 0 0-1 1-1 3 1 3v1h-4zm7-2l1-4c-1-1-1-1 0 0v5c-3 2-3 1-1-1zm-16-4v-2l2-3c1-2 1-2 2 0l1 3c2 2 1 3-1 2h-3-1zm7-17l-4-1h-4 8v1c0 1 0 1 0 0zm27-7l3-2c0-2 1-2 3-3l3 1c-1 2-6 4-9 4-2 0-2 0 0 0zm-6-2l-1-1h2l1 2h1l-3-1zm17-4c-2-1-2-3 0-3l6 4h-1-1c-1 1-2 0-4-1zm3 104c0-2-1-5-2-4v4c1 2 2 2 2 0zm-3-6h2l1-2c0-3-2-4-3-1 0 2 0 2-1 1-1-2-3-2-3-1l3 4 1-1zm-12-3c-1-2-2-2-2-1l1 1h1zm-79-3s-2 1-1 2l1-1v-1zm2-5l-1-1c-1 0-2 2-1 3s2-1 2-2zm88-4l-2-1h-2c0 1 0 2 2 2l2-1zm-70-4l-2-1c-2 0-2 0 0 1 1 2 2 2 2 0zm18 0c0-1-3-2-5-1v2c1 1 5 1 5-1zm42-1l1-2c-1-1-5 1-5 3 1 1 2 1 4-1zm-39-1l-3-3c-1 0-2 1-1 2 1 2 4 2 4 1zm43 0l-1-1c-1-1-2 0-1 1h2zm-92-3l1-13 1-16a270 270 0 005-34l-7 15c-7 15-8 19-7 31 0 7 2 14 4 17 2 2 2 2 3 0zm90 0l-1-1c-1 0-2 1-1 2s2 0 2-1zm-54-7l1-7v-4l-1 5-4 10-1 2c0 2 4-3 5-6zm75-5c3-4 5-11 5-16s-1-7-4-18l-5-15v-2l-3 3-2 3 1 3a84 84 0 013 45v2l2-1 3-4zm-33-27c0-2-1-2-3-2-1 1-2 2-1 3 2 2 4 1 4-1zm12-3c2-2 3-6 3-10v-2l-6 2-6 3c-1 1-2 1-1 3l1 4 1 3 1 2 2-2 5-3zm-72-6c0-2 1-3 2-2 2 1 3-3 3-8v-3l1 3 2 3v-3c-1-4-3-10-5-11l-5-1-4 1v6c0 8 2 15 4 19l1 3v-2l1-5zm84 2v-3c-1-2-4-4-5-3v7c1 1 4 1 5-1zm-15-7c7-3 10-5 10-7s-1-2-4-1h-2l1-1c-1-1-2-1-6 1-6 2-7 3-7 5l-1 2c-1 2-1 4 1 4l8-3zm-6-4l2-1c1 0 1 1-2 2v-1zm5-2l2-1-1 1c-3 2-4 2-1 0zM72 90l5-7 4-5v3c0 4 3 8 5 7l1-8a93 93 0 017-31v4c0 5 1 6 3 5 3 0 6-5 8-12l4-8-1 3-1 12 1 11c2 4 4 5 8 5s5-1 7-4c2-4 2-4 3-3 1 2 4 1 6-1 3-3 6-11 5-17-1-4 0-4 2-1l2 3 1-3 2-5c-1-1 1-3 3-4 1 0 2 0 3 2l4 1c2-1 3-3 3-5s-1-3-4-5c-13-10-43-13-53-5l-6 2c-9 2-18 12-25 26-5 11-6 14-6 31v15l4-2 5-4zm81 0c4-2 8-6 9-11 2-5 1-15-1-18l-1-3h-12l1 4c1 5 2 14 1 17l-1 1h-1l2 2-1 4-1 6 5-2zM92 78h-1v1l1-1zm83-4a162 162 0 00-4-20c-1-2-2-2-2 0-1 1 2 16 3 18s3 3 3 2zm-70-7c0-2-1-3-2-1l1 2 1-1zm60-14c3-2 4-3 1-4-2 0-2 0-1-1v-5c-2-3-5-5-10-5-4 1-4 1-5-1l-2-2c-3 0-4 2-3 5v3 8l1 2c-2 3 13 3 19 0zm-18-14c-1-2-1-2 1-2l1 1c-1 2-2 2-2 1zm13-3l1-2-1-1c-2 0-3 3-2 4s2 1 2-1zM95 17l-1-3-1 6c1 2 2 1 2-3z"/>
  <path fill="#513587" d="M119 244c-2-2-7-14-8-19 0-2-3-5-6-5h-2-4c-5 0-7-1-10-5l-2-2h-5c-3 1-6 1-9-2l-3-6-4-4c-4-2-6-5-6-7l2-3 1-3c0-2 9-9 15-14l3-3-1-1-2-2h-4l-3-2-3 4-3 4-2-3c-4-4-6-14-6-24 0-8 0-11 6-23 6-13 11-27 11-30h-2l-6 5c-6 3-6 3-5-9V74c0-8 2-14 5-22 6-12 14-23 22-27l4-3-1-4c0-2 0-3 2-5 3-3 4-3 4 3l1 5 2-1c3-2 5-3 12-4 7 0 18 0 26 2a57 57 0 0124 13l4 4 2 3 5 14 4 19c2 9 3 14 6 18l1 3-3 1c-3 1-4 3-2 5v3l-2 2c-3 1-2 6 4 23 2 7 2 9 2 15 0 9-2 15-7 20l-4 3-3-2c-6-4-6-4-7-3l-2 1-3 3-3 2 4 5 20 19 4 3-1 4c0 4 0 4-8 12-7 7-9 8-12 9h-6l-2 1h-2l-4 2-4 2-2 6c-2 10-7 19-11 17-2-1-2-3-2-14l-1-11c-2-1-2 0-1 9 1 10 0 14-2 16s-2 2-5-1zm5-3v-22h3c2 0 2 1 2 7v11l2 4h3c3-1 5-9 5-17l1-4h2c2 0 3 0 5-2l3-1 3-1h5c5-1 7-2 10-6l2-2 2-1 1-2 3-3c2-2 3-3 3-5l1-4-2-2-2-1-1 3c-1 5-6 12-8 13l-5 3c-7 5-8 5-14 4h-6l4-1h4l-5-5c-4-5-6-6-8-4l-6 1c-2 0-3 1-4 4l1 3 2 2 2 1-7 2c-6 1-11 2-7 0l2-1-2-6c-1-4-1-5-3-7l-7-7c-3-6-4-7-3-10v-13c-1-1-4-2-4 0v20c-2 1-2 3 0 3s2 1 2 4l1 2v2l7 14c1 2-3 0-8-2-4-2-4-3-4-4 0-2-1-3-2-2s-1 2-4 1l-3-1 1-8c0-8 1-14 3-21 2-6-1-5-8 3l-9 12-3 7 2 2 2 1c-2 0-9-8-11-12l-2-4-2 2-2 3c0 2 4 5 5 5 2 0 5 3 6 6 0 3 3 6 6 7h3c4-1 7 0 8 2 2 3 6 5 10 4l4 1h2l4 1 2 1c1 0 2 1 2 3 1 5 4 15 6 16 2 2 4 2 5 1zm-10-24h2l-2 1v-1zm20-4h1l-1 1v-1zm3 0h1-1zm-49-5h1l-1 1v-1zm-7-2c-2 0-2 0 0 0l3 1-3-1zm79 0l2-2-3-4c-2-5-5-7-7-5l-2 2 5 10c2 2 4 1 5-1zm-31-5l3-1c2 0 2 0 2-2-1-2 0-2 1-2l2 1h3c0-1 1-2 3-2 2-1 3-2 4-6 2-4 2-5 0-18v-8l1-1-2-1c-2 0-4-15-2-22 0-2 0-3-3-5l-2-4 3-4 2-1-3-10c-3-3-2-4 1-6l5-2 9-3h3l2-1 3 2 2 2c1 0 6-3 7-5h3c3 0 3-1 1-3l-1-2-1-1v-2h2c0-2-1-3-2-2l-1 1c0 1-4 0-5-2l-2-1 2-1h4c1 2 3 1 3 0a9150 9150 0 00-2-14l1 1-1-1h-4l-2 2 1 2 1 2c0 2-1 2-2 2-2 0-4 3-4 5s-1 2-2 2l-4 2-13 3v-1-2l2-1-1 2 2 1 2-1 4-2c7-4 9-10 9-21l-1-10-1-2h-7c-6 0-7 0-6 1l2 15c0 6 0 7-1 6h-1l2 2-1 4-1 2-5-1-4 1-1 1c-1 2 0 3 3 3l3 1h-3c-4 0-6-2-3-4 1-1 0-2-1-2s-2-3-1-6 3-4 6-4h2c-1-2-8-1-10 1h-2c0-1 3-3 6-3l3-1-2-3-3-3c-1 0-1 0 0 0v-3l-1-2v2l-1 3-2 4c-2 5-9 13-10 13v-3c0-4 0-4-2-2l-7 6c-1 0-5-7-6-12-2-6-3-6-9-1l-3 3c2-1 8 0 10 1 3 2 4 6 4 10l-1 3h-1c1-2 0-3-4-3-3 0-6 4-5 5v1c-2 0-2-2-1-3 2-1 1-3-1-3l-1-4c0-2 3-5 6-5v-1c-2-1-5 0-7 2-3 2-3 7-1 13l1 4c-2 0-1 2 0 6 2 5 6 8 12 10l5 2-3 1-8 6c-4 4-5 5-4 7l-1 2v-5-1l-3 2-3 3c-1-1-5 1-5 2l-7 7c-7 8-8 10-7 16l1 4a118 118 0 0014 13l1-1-1-9 1 2c0 2 2 2 5 0l1-1v2c0 3 1 3 3 0 0-1 1-2 3-2 2-1 2-3 0-3-1-1-1-1 1-4 2-2 2-4 0-4l-2-5c0-5 1-8 3-9l2 1c0 6 2 17 3 17l2 3c1 2 1 2 5 3l6-1c2-2 2-3 0-3h-1l1-2 1-1c1 0 2-3 1-4l-1-5 2-4c2 1 5 0 5-3v4c-1-1-4 1-4 2l2 1c2 0 2 0 1 1v4l-2 9a578 578 0 01-13 25l2 3 1 2-1 1c-2 1-2 1 1 4 3 4 3 4 8 4s7 1 3 2c-3 0-3 1 0 1l3 1 2-1zm-9-8h3c1 1 0 1-1 1-2 0-3 0-2-1zm-30-35l2-10 2-11 1-4c1-1 1 0 1 3l-1 6c0 5-3 17-4 17l-1-1zm-5-1l1-1v2l-1-1zm35-22c0-1 0-2 1-1v2c-1 1-1 0-1-1zm9-4l1-4h2c1-1 1 0 0 0-1 1-1 3 1 3v1h-4zm7-2l1-4c-1-1-1-1 0 0v5c-3 2-3 1-1-1zm-16-4v-2l2-3c1-2 1-2 2 0l1 3c2 2 1 3-1 2h-3-1zm7-17l-4-1h-4 8v1c0 1 0 1 0 0zm27-7l3-2c0-2 1-2 3-3l3 1c-1 2-6 4-9 4-2 0-2 0 0 0zm-6-2l-1-1h2l1 2h1l-3-1zm17-4c-2-1-2-3 0-3l6 4h-1-1c-1 1-2 0-4-1zm3 104c0-2-1-5-2-4v4c1 2 2 2 2 0zm-3-6h2l1-2c0-3-2-4-3-1 0 2 0 2-1 1-1-2-3-2-3-1l3 4 1-1zm-12-3c-1-2-2-2-2-1l1 1h1zm-79-3s-2 1-1 2l1-1v-1zm2-5l-1-1c-1 0-2 2-1 3s2-1 2-2zm88-4l-2-1h-2c0 1 0 2 2 2l2-1zm-70-4l-2-1c-2 0-2 0 0 1 1 2 2 2 2 0zm18 0c0-1-3-2-5-1v2c1 1 5 1 5-1zm42-1l1-2c-1-1-5 1-5 3 1 1 2 1 4-1zm-39-1l-3-3c-1 0-2 1-1 2 1 2 4 2 4 1zm43 0l-1-1c-1-1-2 0-1 1h2zm-91-13l2-23 4-28 1-5-2 3a358 358 0 01-12 28c-3 9-1 27 3 35l2 2 1-1 1-11zm89 10l-1-1c-1 0-2 1-1 2s2 0 2-1zm-54-7l1-7v-4l-1 5-4 10-1 2c0 2 4-3 5-6zm75-5c3-4 5-11 5-16s-1-8-5-19a165 165 0 01-4-17l-5 7 1 5a85 85 0 013 44l5-4zm-33-27c0-2-1-2-3-2-1 1-2 2-1 3 2 2 4 1 4-1zm9 0c4-3 5-5 6-8v-7l-7 3c-8 3-8 3-5 8l1 4 1 2 4-2zm-68-7l1-1-1-1v-1-1l2 1 2-7v-3l2 3 2 2-3-12c-2-4-3-5-8-4h-4v7c0 8 2 15 4 19l1 3 1-3 1-2zm83 0v-3c-1-2-4-4-5-3v7c1 1 4 1 5-1zm-15-7l9-4c1-2 2-4 0-4h-4c1-2-1-2-6-1-5 2-7 3-7 6l-1 2c-1 2-1 4 1 4l8-3zM74 88l4-6 2-2 1 2c0 3 2 6 3 7 2 0 3-2 3-5a114 114 0 017-35v9c0 1 1 2 2 1 3 0 6-3 7-5l1-1 1-4 3-8 1-2c-2 8-3 10-3 16 0 10 3 15 10 15 3 0 6-2 8-5 0-2 2-3 2-2h4c4-2 7-10 7-18v-4l2 3 2 4v-2l2-4 1-3c-1-2 1-4 3-5 1 0 2 0 3 2l4 1c2-1 4-3 4-6 0-2-7-6-14-9-14-6-37-6-44 0l-5 2c-9 2-19 12-26 26-5 11-6 14-6 31v16l4-3c4-2 6-3 7-6zm102-9v0zm-84-1h-1v1l1-1zm13-11c0-2-1-3-2-1l1 2 1-1zm60-14l3-2-2-2h-3 3c2 0 2 0 2-2 1-3-1-7-3-9l-1-2c0-2-2-3-4-2-2 0-2 0-2 2 0 1 0 2-2 2h-5l-2-2c-2-2-4-1-4 2l-1 5-1 4c0 3 1 6 2 5l1 1c-2 3 13 3 19 0zm-18-14c-1-2-1-2 1-2l1 1c-1 2-2 2-2 1zm13-3c0-2 3-2 3 0l-2 1c-1 1-1 0-1-1zm-21 12c0-1 0 0 0 0v0zM95 18l-1-4c-2 2-1 8 1 8v-4z"/>
  <path fill="#487437" d="M119 244c-2-2-7-14-8-19 0-2-3-5-6-5h-2-4c-5 0-7-1-10-5l-2-2h-5c-3 1-6 1-9-2l-3-6-4-4c-4-2-6-5-6-7l2-3 1-3c0-2 9-9 15-14l3-3-1-1-2-2h-4l-3-2-3 4-3 4-2-3c-4-4-6-14-6-24 0-8 0-11 6-23 6-13 11-27 11-30h-2l-6 5c-6 3-6 3-5-9V74c0-8 2-14 5-22 6-12 14-23 22-27l4-3-1-4c0-2 0-3 2-5 3-3 4-3 4 3l1 5 2-1c3-2 5-3 12-4 7 0 18 0 26 2a57 57 0 0124 13l4 4 2 3 5 14 4 19c2 9 3 14 6 18l1 3-3 1c-3 1-4 3-2 5v3l-2 2c-3 1-2 6 4 23 2 7 2 9 2 15 0 9-2 15-7 20l-4 3-3-2c-6-4-6-4-7-3l-2 1-3 3-3 2 4 5 20 19 4 3-1 4c0 4 0 4-8 12-7 7-9 8-12 9h-6l-2 1h-2l-4 2-4 2-2 6c-2 10-7 19-11 17-2-1-2-3-2-14l-1-11c-2-1-2 0-1 9 1 10 0 14-2 16s-2 2-5-1zm5-3v-22h3c2 0 2 1 2 7v11l2 4h3c3-1 5-9 5-17l1-4h2c2 0 3 0 5-2l3-1 3-1h5c5-1 7-2 10-6l2-2 2-1 1-2 3-3c2-2 3-3 3-5l1-4-2-2-2-1-1 3c-1 5-6 12-8 13l-6 4-7 3h-7l-5-1 6 1c6 0 8-1 13-4l6-4c2-1 5-6 7-12l2-3-9-9a70 70 0 01-12-13l-5-5-4-3c-1 0-2-2-2-8v-13c0-2 0-3-3-5-3-3-2-3 0-1 2 1 2 1 3-1 2-1 2-2 2-3s-1-2-3-2h-2l1-1 2-1-3-10c-3-3-2-4 1-6l5-2 9-3h3l2-1c2 0 2 0 1 1s-1 3 1 4l8-4c2-2 4-2 5-2 3 0 3-1 1-3l-1-2-1-1v-2h2c0-2-1-3-2-2l-1 1h-2c-2 0-5-2-4-3l2 1h4l2-2c-2-8-2-10-1-12 0-2 0-7-4-23-1-2-1-3-3-1v3l2 8c1 7 1 9 4 11l1 1-1-1h-4l-2 2c0 3-1 6-3 8l-1 4-1 1-4 1c-4 2-13 5-14 4v-1-2l2-1-1 2 2 1 2-1 4-2c7-4 9-10 9-21l-1-10-1-2h-7c-6 0-7 0-6 1l2 15c0 6 0 7-1 6h-1l2 2-1 4-1 2-5-1-4 1-1 1c-1 2 0 3 3 3l3 1h-3c-4 0-6-2-3-4 1-1 0-2-1-2s-2-3-1-6 3-4 6-4h2c-1-2-8-1-10 1h-2c0-1 3-3 6-3l3-1-2-3-3-3c-1 0-1 0 0 0v-3l-1-2v2l-1 3-2 4c-2 5-9 13-10 13v-3c0-4 0-4-2-2l-7 6c-1 0-5-7-6-12-2-6-3-6-9-1l-3 3c2-1 8 0 10 1 3 2 4 6 4 10l-1 3h-1c1-2 0-3-4-3-3 0-6 4-5 5v1c-2 0-2-2-1-3 2-1 1-3-1-3l-1-4c0-2 3-5 6-5v-1c-2-1-5 0-7 2-3 2-3 7-1 13l1 4c-2 0-1 2 0 6 2 5 6 8 12 10l5 2-3 1c-4 2-12 10-13 12v-1l-1-2-3 3-2 2-5 2-7 7c-7 8-8 10-7 16l1 4a118 118 0 0014 13l1-1v-3c-1-2-1-2 0 0l2 4 3 1c3 0 3-1 6-3 5-4 5-6 6-13l1-3 1 2v2l-1 2c0 1 4 3 10 3 3 1 4 1 6-2 3-2 4-5 5-8 0-3 0-3 1-1l-11 23-5 10 2 3 1 2-2-2-1-2-2 2-1 2 4 4c4 5 6 6 10 6 3 0 3 1 2 1-2 1-2 1 0 1l3 1 3-1h8l5-4 2-2-3 1c-2 0-2 0 1-1s4-2 5-6c2-4 2-5 0-18l-1-5 3 14c1 5 1 6-1 9-2 6-6 10-10 13-4 1-5 2-7 1l-2-1c-1 1-4 0-13-2l-6-5-4-5 2-5 4-8 7-14h-6l-8-1c-1-1-1 0-3 2 0 2-3 4-4 6l-4 3-5-1h-6l-6 5-9 8-3 3 2 3 4 7c5 6 5 7 1 3l-5-8-2-4-2 2-2 3c0 2 4 5 5 5 2 0 5 3 6 6 0 3 3 6 6 7h3c4-1 7 0 8 2 2 3 6 5 10 4l4 1h2l4 1 2 1c1 0 2 1 2 3 1 5 4 15 6 16 2 2 4 2 5 1zm-16-24zm7 0h1l-1 1v-1zm7-1l7-2-3 1-8 2 4-1zm12-3h1l-1 1v-1zm4 0h1c1 0 1 0 0 0h-1zm-43-3h-1 1zm-4-1h0s-1 0 0 0zm43-13h1-1zm-14-3h3c1 1 0 1-1 1-2 0-3 0-2-1zm-28-24l-1-7 1 3 1 3 2-1 2-1-4 4-1-1zm-7-7v-1 1zm7-4v-6l2-10h1l-1 6a13211 13211 0 00-2 10zm25-1l1-2h1l-2 2zm-17-10c-1-7-1-7-2-6v-1c2-3 3-4 4-2a150 150 0 001 12l-1-3c-1-6-1-7-1-2 0 6 0 7-1 2zm20-3v-1 1zm6-4v-1 1zm-31-3l1-5v7c-1 1-1 0-1-2zm25-3h1v1c-1 1-1 0-1-1zm9-3c0-2 0-3 2-4l2-1-2 2c-2 1-1 3 1 3 1-1 1-1 0 0h-3zm-4-7c-2-3-2-4 0-1l1 2-1-1zm-5-1l2-3 1-1c1 1-2 5-3 5v-1zm7-15l-4-1h-4 8v1c0 1 0 1 0 0zm25-7l4-1h2l-6 1zm-4-2l-1-1 2 1c2 2 2 2-1 0zm13-1l1-1c1-2 1-1 1 1h-2zm7-4c-2-1-4-2-4 0l-1-1c0-2 2-2 6 1l1 2-2-2zM67 159l2-23 4-28 1-5-2 3a358 358 0 01-12 28c-3 9-1 27 3 35l2 2 1-1 1-11zm110-2c3-4 5-11 5-16s-1-8-5-19a165 165 0 01-4-17l-5 7 1 5a85 85 0 013 44l5-4zm-31-1l-1-1v1h1zm7-26c4-3 5-5 6-8v-7l-7 3c-8 3-8 3-5 8l1 4 1 2 4-2zm-68-7l1-1-1-1v-1-1l2 1 2-7v-3l2 3 2 2-3-12c-2-4-3-5-8-4h-4v7c0 8 2 15 4 19l1 3 1-3 1-2zm83 0v-3c-1-2-4-4-5-3v7c1 1 4 1 5-1zm-70-1l1-2-3 2h2zm55-6l9-4c1-2 2-4 0-4h-4c1-2-1-2-6-1-5 2-7 3-7 6l-1 2c-1 2-1 4 1 4l8-3zM74 88l4-6 2-2 1 2c0 3 2 6 3 7 2 0 3-2 3-5a114 114 0 017-35v9c0 1 1 2 2 1 3 0 6-3 7-5l1-1 1-4 3-8 1-2c-2 8-3 10-3 16 0 10 3 15 10 15 3 0 6-2 8-5 0-2 2-3 2-2h4c4-2 7-10 7-18v-4l2 3 2 4v-2l2-4 1-3c-1-2 1-4 3-5 1 0 2 0 3 2l4 1c2-1 4-3 4-6 0-2-7-6-14-9-14-6-37-6-44 0l-5 2c-9 2-19 12-26 26-5 11-6 14-6 31v16l4-3c4-2 6-3 7-6zm102-9v0zm-84-1h-1v1l1-1zm13-11c0-2-1-3-2-1l1 2 1-1zm60-14l3-2-2-2h-3 3c2 0 2 0 2-2 1-3-1-7-3-9l-1-2c0-2-2-3-4-2-2 0-2 0-2 2 0 1 0 2-2 2h-5l-2-2c-2-2-4-1-4 2l-1 5-1 4c0 3 1 6 2 5l1 1c-2 3 13 3 19 0zm-18-14c-1-2-1-2 1-2l1 1c-1 2-2 2-2 1zm13-3c0-2 3-2 3 0l-2 1c-1 1-1 0-1-1zm-21 12c0-1 0 0 0 0v0zM95 18l-1-4c-2 2-1 8 1 8v-4z"/>
  <path fill="#4d2f63" d="M119 244c-2-2-7-14-8-19 0-2-3-5-6-5h-2-4c-5 0-7-1-10-5l-2-2h-5c-3 1-6 1-9-2l-3-6-4-4c-4-2-6-5-6-7l2-3 1-3c0-2 9-9 15-14l3-3-1-1-2-2h-4l-3-2-3 4-3 4-2-3c-4-4-6-14-6-24 0-8 0-11 6-23 6-13 11-27 11-30h-2l-6 5c-6 3-6 3-5-9V74c0-8 2-14 5-22 6-12 14-23 22-27l4-3-1-4c0-2 0-3 2-5 3-3 4-3 4 3l1 5 2-1c3-2 5-3 12-4 7 0 18 0 26 2a57 57 0 0124 13l4 4 2 3 5 14 4 19c2 9 3 14 6 18l1 3-3 1c-3 1-4 3-2 5v3l-2 2c-3 1-2 6 4 23 2 7 2 9 2 15 0 9-2 15-7 20l-4 3-3-2c-6-4-6-4-7-3l-2 1-3 3-3 2 4 5 20 19 4 3-1 4c0 4 0 4-8 12-7 7-9 8-12 9h-6l-2 1h-2l-4 2-4 2-2 6c-2 10-7 19-11 17-2-1-2-3-2-14l-1-11c-2-1-2 0-1 9 1 10 0 14-2 16s-2 2-5-1zm5-3v-22h3c2 0 2 1 2 7v11l2 4h3c3-1 5-9 5-17l1-4h2c2 0 3 0 5-2l3-1 3-1h5c5-1 7-2 10-6l2-2 2-1 1-2 3-3c2-2 3-3 3-5l1-4-2-2-2-1-1 3c-1 5-6 12-8 13l-6 4-7 3h-7l-5-1 6 1c6 0 8-1 13-4l6-4c2-1 5-6 7-12l2-3-9-9a70 70 0 01-12-13l-5-5-4-3c-1 0-2-2-2-8v-13c0-2 0-3-3-5-3-3-2-3 0-1 2 1 2 1 3-1 2-1 2-2 2-3s-1-2-3-2h-2l1-1 2-1-3-10c-3-3-2-4 1-6l5-2 9-3h3l2-1c2 0 2 0 1 1s-1 3 1 4l8-4c2-2 4-2 5-2 3 0 3-1 1-3l-1-2-1-1v-2h2c0-2-1-3-2-2l-1 1h-2c-2 0-5-2-4-3l2 1h4l2-2c-2-8-2-13-1-10l1 4c2 3 3 3 1 0l-2-12-5-19s-2 0-3 2c-5 3-8 4-15 3l-5 1c2 3 3 11 3 17s0 6-1 5c-2-1-2-1-1 1 2 2 2 3 1 6-1 2-1 2-2 1 0-2-1-2-4-2l-4 1h-2c-1-1-2-3-1-6s3-4 6-4h2c-1-2-8-1-10 1h-2c0-1 3-3 6-3l3-1-2-3-3-3c-1 0-1 0 0 0v-3c0-1 0-2-1 0v-1l2-18 1 5c1 10 3 18 7 22 1 1 2 0 2-5 0-6-2-13-4-15s-2-8 0-11l1-4 1-3h1l-1 4-1 3c-2 4-1 11 1 10l1 1c-1 1 2 2 7 2 6 0 9 0 12-2s4-3 2-3v-1c3 0 1-10-2-11l-1-2c-1-4-6-4-6 0l-4 2c-4 0-4 0 0-1l3-2 1-2c1-1 1-2-1-4-7-7-22-11-38-11-9 0-15 1-19 4l-3 2c-4 0-11 3-16 8-6 5-13 18-16 29-1 4-2 7-2 21v16l3-2c4-2 7-5 9-9 2-3 4-4 3-2l-1 4c0 2 0 2 1 1h2c1 2 7 4 11 4l2-1c-3-9-5-20-4-26a72 72 0 014-14l-1 18 1 2 4-4c5-5 6-8 8-16l2-8c0-1 0-1 0 0l-2 16c2 10 6 23 8 24l9-13c2-7 3-5 1 5v6l-1 2v-3c0-4 0-4-2-2l-7 6c-1 0-5-7-6-12-2-6-3-6-9-1l-3 3c2-1 8 0 10 1 4 2 5 8 4 12h-1c0-1-1-2-3-2h-5c-4 1-5 1-5-4 0-2 3-5 6-5v-1c-2-1-5 0-7 2-3 2-3 7-1 13l1 4c-2 0-1 2 0 6 2 5 6 8 12 10l5 2-3 1c-4 2-12 10-13 12v-1l-1-2-3 3-2 2-5 2-7 7c-7 8-8 10-7 16l1 4a118 118 0 0014 13l1-1v-3c-1-2-1-2 0 0l2 4 3 1c3 0 3-1 6-3 5-4 5-6 6-13l1-3 1 2v2l-1 2c0 1 4 3 10 3 3 1 4 1 6-2 3-2 4-5 5-8 0-3 0-3 1-1l-11 23-5 10 2 3 1 2-2-2-1-2-2 2-1 2 4 4c4 5 6 6 10 6 3 0 3 1 2 1-2 1-2 1 0 1l3 1 3-1h8l5-4 2-2-3 1c-2 0-2 0 1-1s4-2 5-6c2-4 2-5 0-18l-1-5 3 14c1 5 1 6-1 9-2 6-6 10-10 13-4 1-5 2-7 1l-2-1c-1 1-4 0-13-2l-6-5-4-5 2-5 4-8 7-14h-6l-8-1c-1-1-1 0-3 2 0 2-3 4-4 6l-4 3-5-1h-6l-6 5-9 8-3 3 2 3 4 7c5 6 5 7 1 3l-5-8-2-4-2 2-2 3c0 2 4 5 5 5 2 0 5 3 6 6 0 3 3 6 6 7h3c4-1 7 0 8 2 2 3 6 5 10 4l4 1h2l4 1 2 1c1 0 2 1 2 3 1 5 4 15 6 16 2 2 4 2 5 1zm-16-24zm7 0h1l-1 1v-1zm7-1l7-2-3 1-8 2 4-1zm12-3h1l-1 1v-1zm4 0h1c1 0 1 0 0 0h-1zm-43-3h-1 1zm-4-1h0s-1 0 0 0zm43-13h1-1zm-14-3h3c1 1 0 1-1 1-2 0-3 0-2-1zm-28-24l-1-7 1 3 1 3 2-1 2-1-4 4-1-1zm-7-7v-1 1zm7-4v-6l2-10h1l-1 6a13211 13211 0 00-2 10zm25-1l1-2h1l-2 2zm-17-10c-1-7-1-7-2-6v-1c2-3 3-4 4-2a150 150 0 001 12l-1-3c-1-6-1-7-1-2 0 6 0 7-1 2zm20-3v-1 1zm6-4v-1 1zm-31-3l1-5v7c-1 1-1 0-1-2zm25-3h1v1c-1 1-1 0-1-1zm9-3c0-2 0-3 2-4l2-1-2 2c-2 1-1 3 1 3 1-1 1-1 0 0h-3zm-4-7c-2-3-2-4 0-1l1 2-1-1zm-5-1l2-3 1-1c1 1-2 5-3 5v-1zm7-15l-4-1h-4 8v1c0 1 0 1 0 0zm25-7l4-1h2l-6 1zm-4-2l-1-1 2 1c2 2 2 2-1 0zm13-1l1-1c1-2 1-1 1 1h-2zm-17-3l1-1v-2c2 0 2 0 1 1l3 1c7-1 13-7 15-13a70 70 0 001-24l5 11c0 3 1 5 3 6l1 1h-4l-2 2c0 3-1 6-3 8l-1 4-1 1-4 1-8 3a276 276 0 00-7 1zm24-1c-2-1-4-2-4 0l-1-1c0-2 2-2 6 1l1 2-2-2zm-71-2h1v1l-1-1zm41 0l-1-2c0-1 0-1 0 0l2 2 1 1-2-1zm-12-12l5-8 3-4-2 4c-2 5-7 11-8 11l2-3zm21-41v-2l2 1c0 1-1 2-2 1zm13-2l1-3c2 0 2 1 1 3h-2zM66 169l1-10 2-19c3-19 6-35 5-38l-3 6-6 14c-6 13-7 16-6 25l1 14c1 5 4 10 5 10l1-2zm109-10c4-4 6-9 6-17 1-6 1-7-3-20l-5-16v-2l-3 2-3 3 2 8c3 12 4 19 4 27l-1 16c-1 3 0 2 3-1zm-29-3l-1-1v1h1zm7-26l3-3h2c1 1 1 1 1-1l1-12-6 3-7 3c-3 0-3 1-1 6l2 5c1 1 2 1 5-1zm-67-4c3 0 4-1 5-7l1-4 1 2v2-3c1-3-2-12-3-15-1-2-2-3-5-4l-3-1h-3l-1 10c0 8 2 17 4 20 1 2 1 2 2 1l2-1zm82-3v-3c-1-2-4-4-5-3v7c1 1 4 1 5-1zm-70-1l1-2-3 2h2zm55-6c7-3 10-5 10-7 0-1-1-2-3-1l-2-1c0-2-1-2-7 0-5 1-6 2-6 6l-1 2c-1 2-1 4 1 4l8-3zM92 78h-1v1l1-1zm13-11c0-2-1-3-2-1l1 2 1-1zm-9-46l-1-5-1-2c-2 2-1 6 0 8l2 1v-2z"/>
  <path fill="#2d552e" d="M119 244c-2-2-7-14-8-19 0-2-3-5-6-5h-2-4c-5 0-7-1-10-5l-2-2h-5c-3 1-6 1-9-2l-3-6-4-4c-4-2-6-5-6-7l2-3 1-3c0-2 9-9 15-14l3-3-1-1-2-2h-4l-3-2-3 4-3 4-2-3c-4-4-6-14-6-24 0-8 0-11 6-23 6-13 11-27 11-30h-2l-6 5c-6 3-6 3-5-9V74c0-8 2-14 5-22 6-12 14-23 22-27l4-3-1-4c0-2 0-3 2-5 3-3 4-3 4 3l1 5 2-1c3-2 5-3 12-4 7 0 18 0 26 2a57 57 0 0124 13l4 4 2 3 5 14 4 19c2 9 3 14 6 18l1 3-3 1c-3 1-4 3-2 5v3l-2 2c-3 1-2 6 4 23 2 7 2 9 2 15 0 9-2 15-7 20l-4 3-3-2c-6-4-6-4-7-3l-2 1-3 3-3 2 4 5 20 19 4 3-1 4c0 4 0 4-8 12-7 7-9 8-12 9h-6l-2 1h-2l-4 2-4 2-2 6c-2 10-7 19-11 17-2-1-2-3-2-14l-1-11c-2-1-2 0-1 9 1 10 0 14-2 16s-2 2-5-1zm5-3v-22h3c2 0 2 1 2 7v11l2 4h3c3-1 5-9 5-17l1-4h2c2 0 3 0 5-2l3-1 3-1h5c5-1 7-2 10-6l2-2 2-1 1-2 3-3c2-2 3-3 3-5l1-4-2-2h-2l-1-1-6-7-10-11c-5-5-13-13-14-12v-2-1-2c0-1 0-1 0 0a1710 1710 0 00-2-21l2-2c2-2 2-3 1-4l-2-1-1-3-3-10-1-2 3-3 5-2 9-3h3c1-2 2 0 2 2l-1 2-2-1c0-2-1-2-7 0-5 1-6 2-6 6l-1 2c-1 2-1 4 1 4l17-7 1-3 2-2 6-2 5-3c3 0 3-1 1-3l-1-2-1-2v-1c1 1 3 0 2-1 0-2-3-2-3 0l-4-1h1l5-2-1-6-1-6 1 1c0 1 2 7 3 6l-1-2-2-12-5-19s-2 0-3 2c-5 3-8 4-15 3l-5 1c2 3 3 11 3 17s0 6-1 5c-2-1-2-1-1 1 2 2 2 3 1 6-1 2-1 2-2 1 0-2-1-2-4-2l-4 1h-2c-1-1-2-3-1-6s3-4 6-4h2c-1-2-8-1-10 1h-2c0-1 3-3 6-3l3-1-2-3-3-3c-1 0-1 0 0 0v-3c0-1 0-2-1 0v-1l2-18 1 5c1 10 3 18 7 22 1 1 2 0 2-5 0-6-2-13-4-15s-2-8 0-11l1-4 1-3h1l-1 4-1 3c-2 4-1 11 1 10l1 1c-1 1 2 2 7 2 6 0 9 0 12-2s4-3 2-3v-1c3 0 1-10-2-11l-1-2c-1-4-6-4-6 0l-4 2c-4 0-4 0 0-1l3-2 1-2c1-1 1-2-1-4-7-7-22-11-38-11-9 0-15 1-19 4l-3 2c-4 0-11 3-16 8-6 5-13 18-16 29-1 4-2 7-2 21v16l3-2c4-2 7-5 9-9 2-3 4-4 3-2l-1 4c0 2 0 2 1 1h2c1 2 7 4 11 4l2-1c-3-9-5-20-4-26a72 72 0 014-14l-1 18 1 2 4-4c5-5 6-8 8-16l2-8c0-1 0-1 0 0l-2 16c2 10 6 23 8 24l9-13c2-7 3-5 1 5v6l-1 2v-3c0-4 0-4-2-2l-7 6c-1 0-5-7-6-12-2-6-3-6-9-1l-3 3c2-1 8 0 10 1 4 2 5 8 4 12h-1c0-1-1-2-3-2h-5c-4 1-5 1-5-4 0-2 3-5 6-5v-1c-2-1-5 0-7 2-3 2-3 7-1 13l1 4c-2 0-1 2 0 6 2 5 6 8 12 10l5 2-3 1-5 4-4 3-2 1 2-1c1-2 1-2-1-2s-3 2-2 3v1l-4 2c-1 1-3 3-5 3l-3 3-8 7c-6 7-7 9-6 15l1 4 6 6c5 5 6 7 8 7l4 1 1 1-4-1c-2-1-2-1-6 3a68 68 0 00-19 19c0 2 4 5 5 5 2 0 5 3 6 6 0 3 3 6 6 7h3c4-1 7 0 8 2 2 3 6 5 10 4l4 1h2l4 1 2 1c1 0 2 1 2 3 1 5 4 15 6 16 2 2 4 2 5 1zm-20-26v-1l1 1h-1zm20 0h1v1l-1-1zm3 0h1-1zm23-2h3l8-4 5-4c2 0 4-3 7-8l2-4c-1 4-6 12-8 13l-5 3c-6 4-8 5-11 5l-1-1zm-6 0h0c-1 0-1 0 0 0zm-13-11c-3-1-3-2 1-1 2 1 3 1 6-1 2 0 4-2 4-3l2-2h-3l3-1 3-4 2-4-5 10c-3 4-4 5-8 6h-5zm-7-1l1 1h-1v-1zm-8-2c-2 0-4-3-6-5l-4-4 2-4 2-4v3l-2 2-1 3 4 4c4 5 5 5 10 5 3 0 3 1 2 1-3 1-5 1-7-1zm-45 0c-1-1-1-1 0 0l1 1-1-1zm65-3h1l-1 1v-1zm-69-4l-1-2 1 2c2 3 1 3 0 0zm81-9v-3c0-1 1-1 1 1 0 3 0 3-1 2zm-37-3l1-3v3l-2 2 1-2zm37-4v-1 1zm-34-1l1-2-1 2-1 2 1-2zm-18-5c4-4 6-7 7-12 0-4 1-4 1 0v2l4 1 7 1c3 0 4 0 6-2l2-2-2 3-1 1-5 1-7-1c-5-1-5-1-5 1l-9 10c-1 0 0-2 2-3zm51 1v-1 1zm-55-2v-7 3c0 4 0 4 3 2h1l-4 2zm25-1l2-2-1 2c-1 2-1 2-1 0zm29-1c0-1 0-2 1-1v2c-1 1-1 1-1-1zm-54-11l1-3-1 4v-1zm33-4v-2l1 2-1 2v-2zm-32-1c0-1 0-1 0 0v0zm1-3v-1 1zm9 0v-1 1zm-3-3l-1-5v-2h1v4l1 6-1-3zm-6 0l1-3v2c0 2-1 3-1 1zm8-1c0-1 0-1 0 0v0zm18 0c0-1 0-1 0 0v0zm-19-4c0-1 0-2 1-1v2c-1 1-1 0-1-1zm18-16l2-1c0-1 0-1 0 0l-2 1zm8-16l-4-1h-4 8v1c0 1 0 1 0 0zm20-10l1-1v1l-1 1v-1zm15-1l1-1-1 3v-2zm-18-2l1-1v-2c2 0 2 0 1 1l3 1c7-1 13-7 15-13a70 70 0 001-24l5 11c0 3 1 5 3 6l1 1h-4c-1 0-2 1-2 4l-2 6-2 3-1 1-4 2-8 3a280 280 0 00-7 1zm25-1c-1-1-1-1 0 0l1 2-1-2zm-6-1c1-1 2-2 3-1 2 1 2 1 0 1l-2 1-1-1zm-66-1h1v1l-1-1zm41 0l-1-2c0-1 0-1 0 0l2 2 1 1-2-1zm-12-12l5-8 3-4-2 4c-2 5-7 11-8 11l2-3zm21-41v-2l2 1c0 1-1 2-2 1zm13-2l1-3c2 0 2 1 1 3h-2zM66 169l1-10 2-19c3-19 6-35 5-38l-3 6-6 14c-6 13-7 16-6 25l1 14c1 5 4 10 5 10l1-2zm109-10c4-4 6-9 6-17 1-6 1-7-3-20l-5-16v-2l-3 2-3 3 2 8c3 12 4 19 4 27l-1 16c-1 3 0 2 3-1zm-22-29l3-3h2c1 1 1 1 1-1l1-12-6 3-7 3c-3 0-3 1-1 6l2 5c1 1 2 1 5-1zm-67-4c3 0 4-1 5-7l1-4 1 2v2-3c1-3-2-12-3-15-1-2-2-3-5-4l-3-1h-3l-1 10c0 8 2 17 4 20 1 2 1 2 2 1l2-1zm82-3v-3c-1-2-4-4-5-3v7c1 1 4 1 5-1zM92 78h-1v1l1-1zm13-11c0-2-1-3-2-1l1 2 1-1zm-9-46l-1-5-1-2c-2 2-1 6 0 8l2 1v-2z"/>
  <path fill="#4e2f2e" d="M119 244c-2-2-7-14-8-19 0-2-3-5-6-5h-2-4c-5 0-7-1-10-5l-2-2h-5c-3 1-6 1-9-2l-3-6-4-4c-4-2-6-5-6-7l2-3 1-3c0-2 9-9 15-14l3-3-1-1-2-2h-4l-3-2-3 4-3 4-2-3c-4-4-6-14-6-24 0-8 0-11 6-23 6-13 11-27 11-30h-2l-6 5c-6 3-6 3-5-9V74c0-8 2-14 5-22 6-12 14-23 22-27l4-3-1-4c0-2 0-3 2-5 3-3 4-3 4 3l1 5 2-1c3-2 5-3 12-4 7 0 18 0 26 2a57 57 0 0124 13l4 4 2 3 5 14 4 19c2 9 3 14 6 18l1 3-3 1c-3 1-4 3-2 5v3l-2 2c-3 1-2 6 4 23 2 7 2 9 2 15 0 9-2 15-7 20l-4 3-3-2c-6-4-6-4-7-3l-2 1-3 3-3 2 4 5 20 19 4 3-1 4c0 4 0 4-8 12-7 7-9 8-12 9h-6l-2 1h-2l-4 2-4 2-2 6c-2 10-7 19-11 17-2-1-2-3-2-14l-1-11c-2-1-2 0-1 9 1 10 0 14-2 16s-2 2-5-1zm5-3v-22h3c2 0 2 1 2 7v11l2 4h3c3-1 5-9 5-17l1-4h2c2 0 3 0 5-2l3-1 3-1h5c5-1 7-2 10-6l2-2 2-1 1-2 3-3c2-2 3-3 3-5l1-4-2-2h-2l-1-1-6-7-10-11c-5-5-13-13-14-12v-2-1-2c0-1 0-1 0 0a1710 1710 0 00-2-21l2-2c2-2 2-3 1-4l-2-1-1-3-3-10-1-2 3-3 5-2v1c-1 0-3 5-2 6l-1 1-1 3 2 2h1l-1 1 4 11c1 1 4-1 6-4 2-1 2-2 3-1s1 1 2-1c1-5 2-12 0-12l1-2c2-2 3-2 2-3l2-2 6-2 5-3c3 0 3-1 1-3l-1-2-1-2v-1c1 1 3 0 2-1 0-2-3-2-3 0l-4-1c-1 0 0-1 0 0l6-2-1-6v-2l3 4v-3l-4-15-4-17-3 2-6 3h-15l1 2c2 3 3 12 3 17s0 6-1 5c-2-1-2-1 0 1v4l-1 1c0-2 0-2-5-2-6 0-8 1-5 2 1 1 1 1-1 1-1-1-2-3-1-6s3-4 6-4h2c-1-2-8-1-10 1h-2c0-1 3-3 6-3l3-1-2-3-3-3c-1 0-1 0 0 0V56l2-8v6l2 11c2 6 6 10 7 9l-1-15-2-6-2-3 1 1c2 4 8 5 17 4 5-1 8-3 8-7 1-4 0-6-2-9l-2-4-2-2-5-4a53 53 0 00-35-11c-11 0-18 1-22 4-3 2-5 1-5-6l-1-2-1 4c0 2 0 3 2 4l1 2h-2c-3 1-9 4-13 8-6 5-13 19-16 29-1 4-2 8-2 21v16l7-4 5-6c2-4 3-4 2-1l-1 4h2c1-2 2-2 2-1 0 3 10 6 13 4h1l1 1-1 1c-2 0-1 1 0 6 2 5 6 8 12 10l5 2-3 1-5 4-4 3-2 1 2-1c1-2 1-2-1-2s-3 2-2 3v1l-4 2c-1 1-3 3-5 3l-3 3-7 7c-7 6-8 9-7 13l1 4c0 4 11 14 14 15l4 1 1 1-4-1c-2-1-2-1-6 3a68 68 0 00-19 19c0 2 4 5 5 5 2 0 5 3 6 6 0 3 3 6 6 7h3c4-1 7 0 8 2 2 3 6 5 10 4l4 1h2l4 1 2 1c1 0 2 1 2 3 1 5 4 15 6 16 2 2 4 2 5 1zm-20-26v-1l1 1h-1zm20 0h1v1l-1-1zm3 0h1-1zm23-2h3l8-4 5-4c2 0 4-3 7-8l2-4c-1 4-6 12-8 13l-5 3c-6 4-8 5-11 5l-1-1zm-6 0h0c-1 0-1 0 0 0zm-13-11c-3-1-3-2 1-1 2 1 3 1 6-1 2 0 4-2 4-3l2-2h-3l3-1 3-4 2-4-5 10c-3 4-4 5-8 6h-5zm-7-1l1 1h-1v-1zm-8-2c-2 0-4-3-6-5l-4-4 2-4 2-4v3l-2 2-1 3 4 4c4 5 5 5 10 5 3 0 3 1 2 1-3 1-5 1-7-1zm-45 0c-1-1-1-1 0 0l1 1-1-1zm65-3h1l-1 1v-1zm-69-4l-1-2 1 2c2 3 1 3 0 0zm81-9v-3c0-1 1-1 1 1 0 3 0 3-1 2zm-37-3l1-3v3l-2 2 1-2zm37-4v-1 1zm-34-1l1-2-1 2-1 2 1-2zm-18-5c4-4 6-7 7-12 0-4 1-4 1 0v2l4 1 7 1c3 0 4 0 6-2l2-2-2 3-1 1-5 1-7-1c-5-1-5-1-5 1l-9 10c-1 0 0-2 2-3zm51 1v-1 1zm-55-2v-7 3c0 4 0 4 3 2h1l-4 2zm25-1l2-2-1 2c-1 2-1 2-1 0zm29-1c0-1 0-2 1-1v2c-1 1-1 1-1-1zm-54-11l1-3-1 4v-1zm33-4v-2l1 2-1 2v-2zm-32-1c0-1 0-1 0 0v0zm1-3v-1 1zm9 0v-1 1zm-3-3l-1-5v-2h1v4l1 6-1-3zm-6 0l1-3v2c0 2-1 3-1 1zm8-1c0-1 0-1 0 0v0zm18 0c0-1 0-1 0 0v0zm-19-4c0-1 0-2 1-1v2c-1 1-1 0-1-1zm18-16l2-1c0-1 0-1 0 0l-2 1zm32-7l6-2-10 4 4-2zm-24-9l-4-1h-4 8v1c0 1 0 1 0 0zm32-1c-1-2-1-2-6-1l-4 1 3-1 4-2h3c1-2 2 0 2 2 1 2-2 3-2 1zm-12-9l1-1v1l-1 1v-1zm15-1l1-1-1 3v-2zm-18-2l1-1v-2c2 0 2 0 1 1v3l-2-1zm25-1c-1-1-1-1 0 0l1 2-1-2zm-22 0h2l-1 1-1-1zm16-1c1-1 2-2 3-1 2 1 2 1 0 1l-2 1-1-1zm-66-1l-1-1 1 1c1 1 0 1 0 0zm42 0h1v1l-1-1zm17 0c3-2 8-7 8-10 3-7 3-19 2-23-1-1-1-1 0 0l2 6 3 8c1 2 1 2-1 2-1 0-2 1-2 4l-2 6-2 3-1 1-4 2-3 1zm-19-1v-1 1c1 1 0 2 0 0zm-28-4c0-2-2-2-8-2-4 0-6 1-5 2 1 0 1 0 0 0l-1-4c0-2 3-5 6-5v-1c-3-2-8 1-9 5-1 3-2 2-2 0l1-3 1-1h-1c-1 1-2 0-2-6s2-13 3-17v19l10-10 2-7 1-4v7a91 91 0 004 20l-2-5c-2-7-3-8-9-2l-3 3c2-1 8 0 10 1 3 2 4 6 4 9v1zm-4-20c0-2-1-3-2-1l1 2 1-1zM91 86v-1 1zm21-1c-1 0 0 0 0 0 2 0 6-6 9-12l3-4v2l-2 8-2 1-7 6-1-1zm10-3c0-2 0-2 0 0l1 2c0-1 1-1 0 0s-1 1-1-2zm-12 1l1-1v2l-1-1zm15-2l2-1-1 1-2 2 1-2zm3-3l1-1c1-1 1-1 0 0l-1 1zm3-5l1-2-1 2c-1 2-1 2 0 0zm-26-22c0-1 0-2 1-1v1h-1zm42-12v-2l2 1c0 1-1 2-2 1zm10-3v-2l1 2-1 2v-2zm3 0l2-1 1 1h-3zM66 170c1-2 2-4 2-12l1-15 1-5v4l-1 4 5-5 4-4v-6-8l-1-3c0-2-2-2-2 0l-2 8-2 6 2-18 1-10v-6l-3 8-6 15c-6 12-7 15-6 24 0 9 1 16 4 22 1 3 2 3 3 1zm4-34l1-1v2l-1-1zm7 30l-3-3-4-6c-1-4-1-3-1 4 1 4 1 4 3 4h3c1 2 2 2 2 1zm79-10c2-5 4-16 3-20-1-1-1-2-3-2-4 0-5 2-5 7l-1 12v9c1 1 1 1 3-1l3-5zm21 1c3-4 5-11 5-16s-1-8-4-18a83 83 0 01-4-19l-4 2-4 3 2 6 4 17-1-1-3-1h-4l-1 13c0 14 0 14 6 17l2 2 6-5zm-6 1h1v1l-1-1zm1-13l1-9v16c-1 3-1 0-1-7zm-85-19c2 0 3-1 4-6 1-2 1-3 2-1l1 1c1 0 0-9-2-14-2-7-3-8-5-9l-5-2h-3c-3 3-1 21 2 30 2 3 2 3 3 2l3-1zm81-3v-3c-1-2-4-4-5-3v7c1 1 4 1 5-1zm-90-4c0-1 0 0 0 0v0z"/>
  <path fill="#351d52" d="M119 243c-2-2-6-11-7-17-1-3-1-4-3-5l-4-1h-2-5l-7-2-3-4c0-1-4-2-7-1h-3c-3 0-8-6-8-7 0-2-2-5-4-5-1 0-6-5-6-7l1-2 3-5 9-9c8-7 8-7 7-8l-2-2h-3l-3-1-6 5-2 1c-4-4-8-19-7-29 0-6 2-10 5-19 6-12 13-32 12-32l-3 2c-4 3-9 6-10 5s1-34 2-39l9-20c4-6 13-14 17-16s4-2 3-3c-1-2-1-6 1-8 2-4 4-3 4 4v3c1 1 2 0 3-1 4-3 9-4 18-4 17 0 30 4 40 12a232 232 0 008 7l1 3 3 7a743 743 0 0011 42c3 5 3 6 1 6l-3 1-2 2 1 2c2 2 2 3 1 4l-2 1c-1 0-2 1-2 3 0 4 1 7 6 23 3 8 3 15 0 22-1 4-2 6-5 9l-4 4-2-2c-2 0-4-2-5-3h-3l-2 1-4 3-2 2 3 3a182 182 0 0023 23c2 1 2 1 1 5l-5 9-5 5-4 3c-3 3-7 4-11 4l-3 1h-2l-3 2-5 2c-1 0-2 0-2 2l-3 15-4 5-2 2-2-2c-2-1-2-2-2-7l-1-17-2-1 1 11c0 11 0 13-2 15-2 1-3 1-5-2zm6-3l-1-13 1-8h2c2 0 2 1 2 11 0 11 0 12 4 12 2 0 2-1 4-3l3-16c0-2 0-3 2-2l4-2 5-2h2l4-1c4 0 9-2 11-5l2-3 2-1 3-3c3-2 4-5 5-9 0-3 0-4-2-4l-2-1a110 110 0 01-18-18c0-1-12-13-13-12v-2-1-2c0-1 0-1 0 0h-1v-4l-1-2 1-8c1-3 0-4-1-6l-1-1 3-2c2-2 2-3 1-4l-2-1v-2l-1-4 1-2 1 2 4 11c1 1 4-1 6-4 2-1 2-2 3-1s1 1 2-1l1-8-1-4 1-2c2-2 3-2 2-3 0-1 0-2 2-2l4-1c2-1 1-1 0 1l-3 2 2 6 4 17-1-1-3-1h-4l-1 13c0 14 0 14 6 17l3 2c0 2 5-3 7-7 2-6 3-13 3-19l-4-14-4-14c0-4 0-5-2-4l1-1 2-1c1 1 4-1 4-2l-1-1c-2-2-3-4-1-5v-2l-1-4-1-6c-1-3-1-3 1 1 2 5 4 5 2 0l-3-14-5-18-3 2-6 3h-15l1 2c2 3 3 12 3 17v6l-2-2c-2-1-2 0 0 2 2 3 2 3-4 3l-7 1h-1c-1-2 1-6 2-7l5-1c3 1 3 0 0-1-2-1-8 0-9 2h-1c0-1 3-3 6-3l2-1-1-3c-5-7-5-7-4-16l2-7v6l2 11c2 6 6 10 7 9l-1-15-2-6-2-3 1 1c1 3 5 5 11 5 9-1 14-3 14-8 1-4 0-6-2-9l-2-4-2-2-5-4c-9-8-28-13-44-11-7 1-10 1-13 4-3 2-4 1-4-5 0-5-1-5-3-2-1 3-1 6 2 7l1 2h-3c-4 1-12 7-15 11-7 9-12 20-14 28l-1 35 5-3 7-6c2-5 3-5 2-2l-1 4h2c1-2 2-2 2 0l11 4c5 0 4 0 3 1l-1 4 3 6c2 3 8 7 10 7 3 0 3 1-1 4l-4 3h-2l-3 1v3l-4 2-3 2c0-1-5 2-7 5l-4 5h-1l1-8c0-8-1-11-2-11l-4 10-1 5v-4l2-10 1-13c0-8 0-8-3 2l-6 13c-5 12-7 17-7 25 0 9 3 20 6 24l1 1 1-2c1-2 2-3 2-12l1-15 1-5v19-2l-1-2v8l2 4 4 1c2 1 3 0 0-2v-2l4 5 5 4-4 3a76 76 0 00-18 18v5l4 3 3 1 1 2 2 3c1 5 6 7 10 6h5l3 3c2 2 6 4 9 4h6c2 0 7 3 7 5 2 6 5 16 7 17 1 1 5 1 6-1zm-21-25v-1l1 1h-1zm20 0h1v1l-1-1zm3 0h1-1zm24-2h1v1l-1-1zm-6 0h0c-1 0-1 0 0 0zm19-6l2-2c1 0 1 1-1 2h-1zm4-3l2-1-1 1-2 1 1-1zm-37-2c-3-1-2-1 1-1 2 1 3 1 6-1 3-1 5-4 5-5l1-1 2-2 1-1-5 7c-1 2-4 3-7 5l-4-1zm-15-3c-2 0-4-3-6-5l-4-4 1-3 2-3 1 1c1 1 1 1 0 0l-2 2-1 3 4 4c4 5 5 5 9 5l3 1c-3 1-5 1-7-1zm55 0l1-1v1l-1 2v-2zm-100 0c-1-1-1-1 0 0l1 1-1-1zm65-3h1l-1 1v-1zm-69-3l-1-2 1 2c1 2 1 2 0 0zm81-12c0-2 0-2 1-1v2l-1-1zm-34-6l1-2-1 2-1 2 1-2zm34 0s0-1 0 0v0zm-62-3v-1l3 1c2 1 2 1 0 1l-3-1zm10-2c4-4 6-7 7-12 0-4 1-4 1 0v2l4 1 7 1c3 0 4 0 6-2l2-2-2 3-1 1-5 1-7-1c-5-1-5-1-5 1l-9 10c-1 0 0-2 2-3zm51 1v-1 1zm-55-2v-2c0-1 0-1 0 0 0 2 1 2 3 0h1l-4 2zm54-2c0-1 0-2 1-1v2c-1 1-1 0-1-1zm-28 0l1-1-1 1c0 1-1 1 0 0zm-26-4s0-1 0 0v0zm-21-3l-1-2c1-1 1 0 2 1 1 3 1 3-1 1zm100-2h1v1l-1-1zm-79-1s0-1 0 0v0zm0-3l1-1v2c-1 1-1 0-1-1zm80-9l1-9v16c-1 3-1 0-1-7zm-47 6c0-1 0-1 0 0v0zm-23-3h1v1l-1-1zm-2-2v-7l1 10-1-3zm2-2c0-1 0-1 0 0v0zm18 0c0-1 0-1 0 0v0zm-26 0l1-1v2l-1-1zm-22-2l2-1-1 1-2 2 1-2zm29-1h1l-1 1v-1zm-31-5l1-1v2l-1-1zm50-12l1-1c0-1 0 0 0 0l-1 1zm-22-1l1-2v1l-1 1zm52-5l4-2-3 2c-4 2-5 2-1 0zm-9-3c-2-3-1-4 2-6l4-2v1l-2 3-2 6-2-2zm18-9l-3-1-4 1c0 1-1 0 0 0l2-1h2l2-1 3 1v2c-1 1-2 1-2-1zm3-8l1-2-1 2c-1 1-1 1 0 0zm7-4c-1-1-1-1 0 0l1 2-1-2zm-6 0c1-2 3-2 4-1h-1l-2 1h-1zm-7-2c3-2 8-7 8-10 3-7 3-19 2-23-1-1-1-1 0 0l2 6 3 7c1 3 1 3-1 3l-2 2-2 7-2 5h-1l-4 2-3 1zm14 0h1l3-1v1h-4zm-75-8c1-4 2-5 5-6l3-1c0-1 4 1 5 3l1 4c0 2 0 2-1 1-2-1-11 0-12 1s-1 1-1-2zm21-2l5-9 3-4v2c0 4-1 8-2 7l-2 2c-1 2-3 4-5 4l-2 1 3-3zm-25-3l4-3-1 2c-2 2-3 2-3 1zm-2-7c0-6 2-13 3-17v19l10-10 2-7 1-4v7a86 86 0 003 18l-3-10c0-4-1-4-3-1-2 4-10 11-12 11l-1-6zm8 4h2-2zm8-25c0-1 0-2 1-1v1h-1zm42-13v-1l1 1-1 1v-1zm10-2v-2l1 2-1 2v-2zm3 0l2-1c1 0 1 1-1 2l-1-1zm-4 120c2-5 4-16 3-20-1-1-1-2-3-2-4 0-5 2-5 7l-1 12v9c1 1 1 1 3-1l3-5zm-69-30c2 0 3-1 4-6 1-2 1-3 2-1l1 1c1 0 0-9-2-14-2-7-3-8-5-9l-5-2h-3c-3 3-1 21 2 30 2 3 2 3 3 2l3-1zm81-2c2-1 1-3-1-6-2-2-4-2-4 0l-1 6h6zm-90-5c0-1 0 0 0 0v0z"/>
  <path fill="#1c4631" d="M119 243c-2-2-6-11-7-17-1-3-1-4-3-5l-4-1h-2-5l-7-2-3-4c0-1-4-2-7-1h-3c-3 0-8-6-8-7 0-2-2-5-4-5-1 0-6-5-6-7l1-2 3-5 9-9c8-7 8-7 7-8l-2-2h-3l-3-1-6 5-2 1c-4-4-8-19-7-29 0-6 2-10 5-19 6-12 13-32 12-32l-3 2c-4 3-9 6-10 5s1-34 2-39l9-20c4-6 13-14 17-16s4-2 3-3c-1-2-1-6 1-8 2-4 4-3 4 4v3c1 1 2 0 3-1 4-3 9-4 18-4 17 0 30 4 40 12a232 232 0 008 7l1 3 3 7a743 743 0 0011 42c3 5 3 6 1 6l-3 1-2 2 1 2c2 2 2 3 1 4l-2 1c-1 0-2 1-2 3 0 4 1 7 6 23 3 8 3 15 0 22-1 4-2 6-5 9l-4 4-2-2c-2 0-4-2-5-3h-3l-2 1-4 3-2 2 3 3a182 182 0 0023 23c2 1 2 1 1 5l-5 9-5 5-4 3c-3 3-7 4-11 4l-3 1h-2l-3 2-5 2c-1 0-2 0-2 2l-3 15-4 5-2 2-2-2c-2-1-2-2-2-7l-1-17-2-1 1 11c0 11 0 13-2 15-2 1-3 1-5-2zm6-3l-1-13 1-8h2c2 0 2 1 2 11 0 11 0 12 4 12 2 0 2-1 4-3l3-16c0-2 0-3 2-2l4-2 5-2h2l4-1c4 0 9-2 11-5l2-3 2-1 3-3c3-2 4-5 5-9 0-4 0-4-2-4l-24-24-8-8v-1c1-1 1-2-1-4l-1-1v-2l-1-2 1-8v-5c-1-1-1-1 1-3 2-3 2-5 0-6l-1-3-1-3 1-2 1 2 4 11c1 1 4-1 6-4 2-1 2-2 3-1s1 1 2-1l1-8-1-4 1-2c2-1 3-2 2-3l4-2 4-2-2 2-3 2 2 6 4 17-1-1-3-1h-4l-1 13c0 14 0 14 6 17l3 2c0 2 5-3 7-7 2-6 3-13 3-19l-4-14-4-14c0-4 0-5-2-4l1-1 2-1c1 1 4-1 4-2l-1-1c-2-2-3-4-1-4v-2l-2-12 1 2c2 5 4 5 2 0l-3-14-5-18-3 2-6 3h-15l1 2c2 3 3 12 3 17v6l-2-2c-2-1-2 0 0 2 2 3 2 3-4 3l-7 1h-1c-1-2 1-6 2-7l5-1c3 1 3 0 0-1-2-1-8 0-9 2h-1c0-1 3-3 6-3l2-1-1-3c-5-7-5-7-4-16l2-7v6l2 11c2 6 6 10 7 9l-1-15-2-6-2-3 1 1c1 3 5 5 11 5 9-1 14-3 14-8 1-4 0-6-2-9l-2-4-2-2-5-4c-9-8-28-13-44-11-7 1-10 1-13 4-3 2-4 1-4-5 0-5-1-5-3-2-1 3-1 6 2 7l1 2h-3c-4 1-12 7-15 11-7 9-12 20-14 28l-1 35 5-3 7-6c2-5 3-5 2-2l-1 4h2c1-2 2-2 2 0l11 4c5 0 4 0 3 1l-1 4 3 6c2 3 8 7 10 7 3 0 3 1-1 4l-4 3h-1c-2-1-5 0-5 2v2l-3 2-2 2c-2 0-6 3-8 5l-4 5h-1l1-8c0-8-1-11-2-11l-4 10-1 5v-4l2-10 1-13c0-8 0-8-3 2l-6 13c-5 12-7 17-7 25 0 9 3 20 6 24l1 1 1-2c1-2 2-3 2-12l1-15 1-5v19-2l-1-2v8l2 4 4 1c2 1 3 0 0-2v-2c2 2 8 9 7 10a637 637 0 01-17 16l-3 4v4c1 2 2 3 5 4l2 1 1 2 2 3c1 5 6 7 10 6h5l3 3c2 2 6 4 9 4h6c2 0 7 3 7 5 2 6 5 16 7 17 1 1 5 1 6-1zm-54-80l-1-2c1-1 1 0 2 1 1 3 1 3-1 1zm100-2h1v1l-1-1zm1-13l1-9v16c-1 3-1 0-1-7zm-100-3l2-1-1 1-2 2 1-2zm-2-6l1-1v2l-1-1zm80-18l4-2-3 2c-4 2-5 2-1 0zm-9-3c-2-3-1-4 2-6l4-2v1l-2 3-2 6-2-2zm18-9l-3-1-4 1c0 1-1 0 0 0l2-1h2l2-1c2 0 3 0 3 2s-2 2-2 0zm-3-14c3-2 8-7 8-10 3-7 3-19 2-23-1-1-1-1 0 0l2 6 3 7c1 3 1 3-1 3l-2 2-3 8-1 3-1 1h-1l-4 3h-2zm-61-8c1-4 2-5 5-6l3-1c0-1 4 1 5 3l1 4c0 2 0 2-1 1-2-1-11 0-12 1s-1 1-1-2zm21-2l5-9 3-4v2c0 4-1 8-2 7l-2 2c-1 2-3 4-5 4l-2 1 3-3zm-25-3l4-3-1 2c-2 2-3 2-3 1zm-2-7c0-6 2-13 3-17v19l10-10 2-7 1-4v7a86 86 0 003 18l-3-10c0-4-1-4-3-1-2 4-10 11-12 11l-1-6zm8 4h2-2zm8-25c0-1 0-2 1-1v1h-1zm42-13v-1l1 1-1 1v-1zm10-2v-2l1 2-1 2v-2zm3 0l2-1c1 0 1 1-1 2l-1-1zm-4 120c2-5 4-16 3-20-1-1-1-2-3-2-4 0-5 2-5 7l-1 12v9c1 1 1 1 3-1l3-5zm-69-30c2 0 3-1 4-6 1-2 1-3 2-1l1 1c1 0 0-9-2-14-2-7-3-8-5-9l-5-2h-3c-3 3-1 21 2 30 2 3 2 3 3 2l3-1zm81-2c2-1 1-3-1-6-2-2-4-2-4 0l-1 6h6zm-90-5c0-1 0 0 0 0v0z"/>
  <path fill="#28201f" d="M119 243c-2-2-6-11-7-17-1-3-1-4-3-5l-4-1h-2-5l-7-2-3-4c0-1-4-2-7-1h-3c-3 0-8-6-8-7 0-2-2-5-4-5-1 0-6-5-6-7l1-2 3-5 9-9c8-7 8-7 7-8l-2-2h-3l-3-1-6 5-2 1c-4-4-8-19-7-29 0-6 2-10 5-19 6-12 13-32 12-32l-3 2c-4 3-9 6-10 5s1-34 2-39l9-20c4-6 13-14 17-16s4-2 3-3c-1-2-1-6 1-8 2-4 4-3 4 4v3c1 1 2 0 3-1 4-3 9-4 18-4 17 0 30 4 40 12a232 232 0 008 7l1 3 3 7a743 743 0 0011 42c3 5 3 6 1 6l-3 1-2 2 1 2c2 2 2 3 1 4l-2 1c-1 0-2 1-2 3 0 4 1 7 6 23 3 8 3 15 0 22-1 4-2 6-5 9l-4 4-2-2c-2 0-4-2-5-3h-3l-2 1-4 3-2 2 3 3a182 182 0 0023 23c2 1 2 1 1 5l-5 9-5 5-4 3c-3 3-7 4-11 4l-3 1h-2l-3 2-5 2c-1 0-2 0-2 2l-3 15-4 5-2 2-2-2c-2-1-2-2-2-7l-1-17-2-1 1 11c0 11 0 13-2 15-2 1-3 1-5-2zm6-3l-1-13 1-8h2c2 0 2 1 2 11 0 11 0 12 4 12 2 0 2-1 4-3l3-16c0-2 0-3 2-2l4-2 5-2h2l4-1c4 0 9-2 11-5l2-3 2-1 3-3c3-2 4-5 5-9 0-4 0-4-2-4l-24-24-8-8v-1c1-1 1-2-1-4l-1-1v-1c0-1 1-1 2 2l1 4c0 1 4 6 6 6l5-6c1-2 1-2 2-1h2c1-1 1-1 3 1l4 2 2 2c1 1 6-3 8-7 2-6 3-13 3-19l-4-14c-4-13-5-22-2-20l3-2-1-1c-2-2-3-4-1-5v-2l-1-3c1-1 1-1 1 1l2 1h3l-2-2-4-15-5-21-1-4-2 2-1 1c1-2 2-7 1-9l-2-4-2-4-2-2-5-4c-9-8-28-13-44-11-7 1-10 1-13 4h-4v-5c0-4-1-5-3-2-1 2-1 5 1 7l2 2h-3c-4 1-12 7-15 11-7 9-12 20-14 28l-1 35 4-2c3-2 6-4 9-9l2-2-2 3v4c1 2 1 2 2 0l1-1 2 1c2 2 5 4 10 4l3-1c-1-1 0-1 0 0v1l-1 2h-1l-1-1c-2 0-9-2-10-4l-2-1-1 4-1 1c0-2-1-3-2-1a129 129 0 01-4 13l-6 13c-5 12-7 17-7 25 0 9 3 20 6 24l1 1 2-3c3-4 5-5 7-3h3c0-1 2 0 3 2l2 4a654 654 0 01-17 16l-3 4v4c1 2 2 3 5 4l2 1 1 2 2 3c1 5 6 7 10 6h5l3 3c2 2 6 4 9 4h6c2 0 7 3 7 5 2 6 5 16 7 17 1 1 5 1 6-1zm-55-86v-1 1zm73-6v-1l1 1h-1zm-70-6l1-1-1 1-1 1 1-1zm70 0l1-1v1h-1zm0-7l2-2c2-3 2-5 0-6v-1l-1-3v-4l1 3 4 10c1 1 3 0 6-3 2-2 3-3 3-1 1 2 2 0 3-3 0-1 0-2 1-1l-2 6-1 1-1-2-1-1-1 1-7 5-1-2h-2l-2 3h-1zm-57-6l-1-1-1 1-1-1h-1l2-1h2c2 1 2 2 0 2 0 1 0 0 0 0zm3-1l4-4-2 2-2 2zm-8-3c-2-4-4-13-4-20v-6 6l4 19v1zm83 0h1l-1 1v-1zm-70-3l3-3c2 0 1 0 0 1l-2 2v2l-1-2zm68-5l-1-4v-1h2c-1 1 0 4 1 4v1l-2 3v-3zm-62 3l-1-1a41 41 0 00-5-15l2 2 5 4 3 2h-2l-3-1 1 4v5zm67-2l-1-2 1 2 1 1-1-1zm-18 0l2-1-1 1-2 1 1-1zm-46 0l1-1h1l-2 1zm39-1l1-1h1l-2 1zm-36-3v-1l3 1h-3zm38-2v-3c-3 2-3 2-1 0l3-1-1 4-1 3zm21-4l2-1-1 1-3 1 2-1zm-5-1v-3c-1 0-1 0 0 0l1 3h-1zm-8-1l2-1c1 0 1 1-1 1h-1zm4-14h1c1 0 0 0 0 0h-1zm3-1zm16-5l1-1v2l-1-1zm-80-2v-1 1zm13 0c-1-3-3-5-5-6h-2l1-1c1-1 5 1 6 3l1 6-1-2zm28 0v-1l1 1-1 1v-1zm12-2l-3-3c-4-2-7-1-8 2l-1 1 2-3c1-2 2-2 4-2 4 1 4 0 1-1-2-1-8 0-9 2h-1l6-3c3-1 3-1 5 1l3 3 1 2c2 2 2 4 1 4l-1-3zm18 1v-1 1c-1 1-1 1 0 0zm-48-1l2-2-1 2-2 1 1-1zm57 0c0-1 0-1 0 0v0zm-79-1l3-2c1 0 1 0 0 0l-3 2c0 1 0 1 0 0zm71-9c0-10 0-11 1-2l2 4-1 1-1 3-1 2v-8zm-17 9zm-59-2l4-3-1 2c-2 2-3 2-3 1zm30-2l2-4v2l-1 3-1-1zm-31 0a59 59 0 012-19 183 183 0 00-2 19zm7-1h2-2zm-2-2h1l-1 1v-1zm4-3l2-1-1 1-2 1 1-1zm39-3l-1-3 1 2c2 3 1 3 0 1zm-33-2v-1l-1-6 1-5v12zm43-2l1-1v2l-1-1zm-13-1v-1l1 1c1 1 0 2-1 0zm1-3l1-6 1-5v4l-2 7zm13-4h0c-1 0-1 0 0 0zm9 0h0c-1 0-1 0 0 0zm-12-1v-1l1 1h-1zm-4-4v-1l1 1h-1zm5-13v-1l1 1-1 1v-1zm10-2v-2l1 2-1 2v-2zm3 0l2-1c1 0 1 1-1 2l-1-1z"/>
</svg>
