<svg xmlns="http://www.w3.org/2000/svg" viewBox="0 0 256 256">
  <defs/>
  <path fill="#ecd6e1" d="M130 249l-3-3-2-4c-3-2-4-6-7-21l-2-16-1-2h-3c-4 0-9-2-11-5l-4-2-2-1-4-3c-3-1-7-5-7-8-1-3-5-5-6-4-1 0-2 0-5-3-8-9-11-22-8-35l5-10c6-10 7-13 7-20s-1-8-3-6l-5 2c-8 4-10 2-7-3s5-13 9-37c2-11 5-19 10-25l2-3-4 2c-4 4-5 4-14 8-7 2-8 2-16 2-9 0-9 0-13-2-6-3-14-13-17-19-1-4 0-5 6-6h6l11-1 19-4c23-6 28-6 33-4l4 1c4 0 6 1 8 5l1 3 2-2c2-1 3-2 15-2h13l2-3c2-4 7-8 9-9h4l11 1c8-1 9 0 18 14l7 9 9 12c5 9 5 10 3 23-2 8-4 12-6 15l-2 2-3-3-4-2v31l5 14c8 26 9 35 5 45l-4 6-2 5c-2 5-3 5-7 3l-3-3-2 2c-4 1-5 0-5-3v-2l-1 2a6211 6211 0 011 13l-3 4c-1 2-2 3-4 3l-9-2h-2l-5 3c-2 1-3 1-4 4l-5 29c-1 10-2 12-5 14l-3 3-2-2zm3-9c1-6 1-6-1-7-1-1-1-1-2 4v5c1 1 2 0 3-2zm-7-8c0-5 0-5-2-6-2 0-2 0-1 6l2 5 1-5zm5-30l-1-2v3l1-1zm34-10l-1-1-1 1 1 1 1-1zm-81-41l-3-5c0-2 0-2 0 0 0 4 1 8 3 11l2 3 1-3-3-6zm96 6v-6c0-4 0-7-3-15-3-9-4-10-4-5l5 26h2zm-42-18c1-1 2-2 1-4l-1-2-3 1-1 3c0 3 1 4 4 2zm-16-2c2-3 1-4-1-4-2 1-2 1-2 3l2 3 1-2zm-26-19c0-2-1-3-3-3l-4-1h-2l1 4c1 4 4 5 6 3l2-3zm39-9l2-2 1-4c1-3 1-3-1-4-1-1-2-2-6-2-5 0-6 0-9 2l-4 1v4l1 4c2 2 14 2 16 1zm-38-7v-1l-1 1h1zm12-1h-1v1l1-1zm40-1l-1-1-1 1h2zm-57-3l-1 1h1v-1zm52-3l1-1-2-1-1-1c-2-1-2 1-1 3s1 2 2 1l1-1zm-41-1c-2-1-2-1-2 1h2v-1zm83-27c3-4 3-4 3-11v-8l-4-7a79 79 0 00-9-16c-2-4-5-7-8-8-2-2-2-2-5-1s-3 1-7-1l-5-2c-3 0-7 3-9 6-1 2-1 1 2-1l5-3 7 5c4 5 6 7 6 9l3 5 5 13 6 14 8 10 2-4zm-11-18v-1l9-3-5 3c-4 2-7 3-4 1zm-29-1c2-1 1-4-1-5h-3v4l4 1zm6-1h-1-1l1 1 1-1zm-65-2c3-2 2-4 0-4s-5 4-4 5c0 2 2 2 4-1zm6 0h-1l1 1v-1zm-36-6l13-5a305 305 0 0125-13l-8 1 1-2c1-2 0-2-4-1l-8 1-12 3a153 153 0 01-38 6l-2 1 2 3c2 3 6 5 11 7 4 2 10 1 20-1z"/>
  <path fill="#e5d1d5" d="M129 248l-2-3-2-3c-3-3-5-7-7-22l-2-13-1-4h-3c-4 0-9-2-11-5l-4-2-2-1-3-2c-1 0-7-6-8-9l-3-4h-3c-1 0-2 0-5-4-9-9-11-22-8-34l5-10c6-10 7-13 7-19 0-9 0-9-5-7-5 3-10 5-11 4s-1-2 1-5 5-13 7-25c4-24 6-30 12-38l2-2-5 3c-4 3-6 4-15 7-6 2-7 2-15 2-7 0-8 0-11-2-5-2-10-7-14-13s-5-9-4-10l17-3 26-4 18-4 8-2 4 2 6 1c4 0 6 1 8 5l2 2 3-1c2-2 4-2 14-2l12-1 9-9c2-2 3-2 5-2l11 1c8 0 8 0 10 2l7 9a314 314 0 0015 20l4 6c4 6 4 10 2 21l-4 11c-3 5-3 6-7 3l-3-2-1 16v15l3 10c12 34 12 39 2 57l-3 6c-1 2-2 2-5-1l-2-2-3 1c-4 2-5 1-4-2 0-3 0-3-1-2l-1 3 1 3v4c1 3 1 4-1 6l-3 4c-1 2-2 2-4 2l-5-1-2-1h-3l-5 3c-2 1-3 1-4 5l-5 27c-1 9-2 13-4 15-2 3-5 2-7 0zm4-8c2-6 2-6 0-7-3-1-3 0-3 5 0 4 0 4 2 4l1-2zm-7-7c0-5 0-6-3-7h-1l1 5 2 6 1-4zm7-4l2-17-1-2c-2 0-2 0-3 13v8c1 1 2 1 2-2zm-8-6l-1-8v-5l-2-1c-2 0-3 0-2 2l1 7c1 5 2 7 3 7l1-2zm6-21l-1-2v4l1-2zm34-10c1-1 1-2-1-1l-1 1h2zm-49-21v-1l-1 1h1zm-31-20l-4-5v-2 2c0 4 0 7 3 11l2 4 1-4c0-3 0-4-2-6zm95 6c1-3 0-11-2-17l-5-13c-1 0 1 18 5 30h2zM69 146l7-9 6-7c0-2 0-3-2-5l-2-2-2 3-4 8-5 13c0 2 0 1 2-1zm70-7l1-6h-3c-3 1-3 1-3 4v4l2-1 3-1zm48-13l-5-13-3 3c-4 5-4 4 0 11 1 4 4 8 6 10l3 4v-5l-1-10zm-65 11c2-3 2-5-1-5-2 0-3 2-3 5l3 3 1-3zm-26-17c1-2 0-4-3-5l-5-2-2-1v2c1 4 3 7 4 7 3 2 5 1 6-1zm57-5l5-8c0-2-3-4-5-4-4 0-8 9-7 15l1 4 6-7zm-26-1l-2-2-2-2h13l1-1c1 0 4-4 4-6 0-3-3-6-7-6l-3-1h-7l-4 2c-3 2-4 2-4 5s1 5 3 6l2 2-1 2 7 2c1 0 2 0 0-1zm9 0l2-1c0-1-1-2-2-1l-2 2c-2 0-2 1-1 1l3-1zm-41-2l-1-1v2l1-1zm-3-3l1-2-2 1v3l1-2zm-3 0l1-3c0-1-2 1-2 3h1zm13 0h-3l2 1 1-1zm-2-5h-1v1l1-1zm-9-4l1-3-3 6c0 1 1 1 2-3zm6 2c1-2 0-2-1-1v1h1zm12-1l-1-1-1 1 1 1 1-1zm-38-4c5-6 7-13 10-27a516 516 0 001 8v8l3 2 4 3c2 0 3-3 2-12 0-10 0-12 3-23 2-6 4-11 6-11 1-1 1 0 1 1l-2 15c0 3 1 4 3 2 3-3 7-13 8-19 1-7 1-8 5 7 4 12 6 16 9 19l4 2c2 0 3-1 4-3l1-10c0-6 0-9-2-15a98 98 0 00-3-10l9 15c4 8 5 9 7 9v-4-5l8 13c4 7 6 11 7 16l3 6c1 1 4-2 6-6 3-6 1-20-3-29-3-6-7-11-10-13-8-5-23-10-25-9s-4 1-7-1c-5-3-11-3-14 1l-6 2c-7 0-17 8-22 18-4 8-5 12-7 23-2 15-4 21-5 24-2 8-2 8 2 3zm78 3l-1-1-1 1h2zm-46-7c-3-2-3-2-1 1 0 2 1 2 1 1v-2zm40 2l1-1 1-1-2-1-1-1c-1-2-1-2-2-1-1 2 0 4 2 5 1 2 1 2 1 0zm13-1v-1l-1 1h1zm31-28l2-3V47l-3-7c-3-7-11-19-14-22-4-4-6-4-9-4-3 1-4 1-7-1-4-2-6-2-9 0l-6 7 3-2c5-5 6-5 13 2 5 6 8 13 13 29l6 13c2 4 6 8 7 8l4-4zM56 39l15-6 23-10c2 0 3-2 3-3h-9c2-2 1-3-2-3l-24 6c-9 2-12 3-27 4a142 142 0 00-12 2l2 3c2 3 5 5 10 7 4 2 5 2 10 2l11-2z"/>
  <path fill="#fcd6a9" d="M129 248l-1-2-3-3-3-5-5-25c-2-11-1-10-5-10s-9-3-12-5l-3-2-2-1-3-2c-1 0-7-6-8-9s-4-6-6-4c-1 0-2 0-5-4-5-5-6-8-8-16-3-9-1-17 6-29 5-9 6-14 6-20 0-7-1-7-4-5l-7 3-5 1c-1-1-1-2 1-5 3-4 5-12 8-30 4-19 6-25 11-33l2-3-3 3-16 8c-7 2-7 2-15 2l-12-1c-5-3-13-12-17-20-2-3-2-3-1-4l12-2c17-2 20-2 31-5a401 401 0 0129-5l7 2c4 1 6 2 8 5l1 3 3-2c3-2 4-2 9-2h12c6 0 6 0 7-2l8-9 5-1 10 1c9-1 10 0 17 10a393 393 0 0018 25l5 7v5c0 9-4 22-7 26-2 1-2 1-5-1l-3-2v33l2 9c10 26 11 38 6 49l-4 6-2 4-2 4c-1 1-1 1-4-2l-2-2-3 1-4 1v-4c0-2 0-2-1-1l-1 3 1 3v9c-1 0-2 1-2 3-1 2-3 4-5 4a182 182 0 00-9-2h-3l-4 3c-2 0-3 1-4 4l-5 25c-1 13-2 16-4 18s-4 2-7 0zm5-9l1-4-2-2h-3v4l1 5c3 1 3 0 3-3zm-8-7v-5l-2-1h-2l2 10 1 1 1-5zm7-3l2-17-1-2c-2 0-2 0-3 13v8c1 1 2 1 2-2zm-8-6l-1-8v-5l-2-1c-2 0-3 0-2 2l1 7c1 5 2 7 3 7l1-2zm6-22c-1-2-1-1-1 2v2l1-2v-2zm35-9l2-2h-3l-3 2c0 2 2 1 4 0zm-25-19c2-1 2-1 1-4 0-3 0-3-2-1l-5 3-3 3 4 1 5-2zm-24-2c0-1-1-2-2-1l-1 2v2l1-1 2-2zm-32-19l-3-5-1-3v3c0 4 1 7 4 11l1 3 1-4c0-3 0-4-2-5zm95-1c0-5 0-6-3-14l-3-10c-1-1-1-1-1 2l3 22 3 7 1-7zM76 138l6-8c1-2 1-3-1-4-2-3-3-3-4-1l-5 8c-4 8-7 19-3 13l7-8zm113-1l-2-12-5-12-6 6c-1 2-1 2 3 9 3 7 8 14 10 13v-4zm-66-2l2-5h-3c-2 0-2 0-3 3v7l2 1 2-6zm17 0c0-4 0-5-1-4l-3 1-2 1v7h6zm-16-10c2-1 1-3-1-3-5-1-5-1-2 2 2 3 2 3 3 1zm14 0l1-2-3-1h-4l2 2c1 2 1 2 4 1zm-39-4v-3c-1-2-1-2-5-3-3 0-6-1-7-3h-1l1 5 3 4h9zm56-8l4-6c0-1-3-4-5-4-2-1-3 0-5 3-2 2-4 10-4 12l1 2 1 3 2-3 6-7zm-28 1l-2-2-2-2h13l1-1c1 0 4-4 4-6 0-3-3-6-7-6l-3-1h-7l-4 2c-3 2-4 2-4 5s1 5 3 6l2 2-1 2 7 2c1 0 2 0 0-1zm9 0l2-1c0-1-1-2-2-1l-2 2c-2 0-2 1-1 1l3-1zm-41-2l-1-1v2l1-1zm-3-3l1-2-2 1v3l1-2zm-3 0l1-3c0-1-2 1-2 3h1zm13 0l-1-1-2 1h3zm-2-5h-2v1l2-1zm-9-4l1-3h-1l-1 4-1 3 2-4zm-20-3c6-7 8-13 10-26 1-6 3-6 2 0l-1 10c0 5 1 6 2 7 3 4 7 4 8 0V78c-1-7 0-10 1-16 1-7 4-14 6-17 1-1 1-1 1 1l-1 10c0 9 0 10 3 8a49 49 0 009-23l4 9c4 13 5 16 8 20l4 2c3 0 6-2 7-6 1-5-2-23-5-30h1l6 12c5 10 7 12 8 10l1-3a1416 1416 0 00-1-5l7 11 5 8 3 9c1 6 1 6 3 7l4-3c4-5 5-13 3-23-2-7-3-10-8-16-4-6-6-8-16-13-7-2-12-4-16-3l-6-1c-5-3-11-3-14 1l-6 2c-5 0-10 3-15 9-8 8-11 15-15 35a534 534 0 01-6 28c-1 2 1 1 4-4zm26 5c1-2 0-2-1-1v1h1zm12-1l-1-1-1 1 1 1 1-1zm40-1l-1-1-1 1h2zm-46-7l-2-3h-1l1 3c1 3 1 3 3 2 1-1 1-1-1-2zm40 2l1-1v-2l-2-2c-1-2-3-2-3 1l2 4c2 1 3 2 2 0zm14-3v-3 1l-2 4v1l2-3zm33-23c3-4 3-6 4-9l1-8-2-8-7-10a216 216 0 01-14-19c-3-2-3-2-7-2l-6 1-4-1c-4-2-6-2-9 0l-6 8c0 2 3 0 6-4 4-4 4-4 10 3 4 4 5 7 9 16 5 10 6 14 9 26 0 4 1 5 3 7 2 3 6 5 9 5l4-5zM57 44a207 207 0 0041-22c6-1 1-3-7-2l-4 1 4-2h2l-2-1c-3-2-5-1-28 4a218 218 0 01-41 7c-1 0 3 7 6 10s5 4 12 6c6 1 11 1 17-1z"/>
  <path fill="#d2afc6" d="M129 248l-1-2-3-3-3-5-5-25c-2-11-1-10-5-10s-9-3-12-5l-3-2-2-1-3-2c-1 0-7-6-8-9s-4-6-6-4c-1 0-2 0-5-4-5-5-6-8-8-16-3-9-1-17 6-29 5-9 6-14 6-20 0-7-1-7-4-5l-7 3-5 1c-1-1-1-2 1-5 3-4 5-12 8-30 4-19 6-25 11-33l2-3-3 3-16 8c-7 2-7 2-15 2l-12-1c-5-3-13-12-17-20-2-3-2-3-1-4l12-2c17-2 20-2 31-5a401 401 0 0129-5l7 2c4 1 6 2 8 5l1 3 3-2c3-2 4-2 9-2h12c6 0 6 0 7-2l8-9 5-1 10 1c9-1 10 0 17 10a393 393 0 0018 25l5 7v5c0 9-4 22-7 26-2 1-2 1-5-1l-3-2v33l2 9c10 26 11 38 6 49l-4 6-2 4-2 4c-1 1-1 1-4-2l-2-2-3 1-4 1v-4c0-2 0-2-1-1l-1 3 1 3v9c-1 0-2 1-2 3-1 2-3 4-5 4a182 182 0 00-9-2h-3l-4 3c-2 0-3 1-4 4l-5 25c-1 13-2 16-4 18s-4 2-7 0zm5-9l1-4-2-2h-3v4l1 5c3 1 3 0 3-3zm-8-7v-5l-2-1h-2l2 10 1 1 1-5zm11-4l2-11c2-10 2-11-1-11-6-1-5-1-6 7-2 19-2 19 2 19 2 0 2 0 3-4zm-9-7l-1-10v-7h-9v2a332 332 0 014 19h3c2 0 2 0 3-4zm3-20c-1-2-1-1-1 2v2l1-2v-2zm36-5l-1-1c-1 0-2 1-1 2s1 0 2-1zm-1-4l2-2h-3l-3 2c0 2 2 1 4 0zm-25-19c2-1 2-1 1-4 0-3 0-3-2-1l-5 3-3 3 4 1 5-2zm-24-2c0-1-1-2-2-1l-1 2v2l1-1 2-2zm-32-19l-3-5-1-3v3c0 4 1 7 4 11l1 3 1-4c0-3 0-4-2-5zm95-1c0-5 0-6-3-14l-3-10c-1-1-1-1-1 2l3 22 3 7 1-7zM76 138l6-8c1-2 1-3-1-4-2-3-3-3-4-1l-5 8c-4 8-7 19-3 13l7-8zm113-1l-2-12-5-12-6 6c-1 2-1 2 3 9 3 7 8 14 10 13v-4zm-66-2l2-5h-3c-2 0-2 0-3 3v7l2 1 2-6zm17 0c0-4 0-5-1-4l-3 1-2 1v7h6zm4 2h-1l1 1h1l-1-1zm-20-12c2-1 1-3-1-3-5-1-5-1-2 2 2 3 2 3 3 1zm14 0l1-2-3-1h-4l2 2c1 2 1 2 4 1zm-39-4v-3c-1-2-1-2-5-3-3 0-6-1-7-3h-1l1 5 3 4h9zm56-8l4-6c0-1-3-4-5-4-2-1-3 0-5 3-2 2-4 10-4 12l1 2 1 3 2-3 6-7zm-16 2c5-2 5-2 6-5l2-5 1-2 1-2 1-2-3-2c-3 0-5-2-3-3v-2l-2-2c-1-2-3-2-3 0s-2 5-4 5l-8-4-6-3-2 2-3 4c-1 3-5 5-7 5-3 0-7-5-4-5l-1-1-3-3h-1c-1 1 3 8 5 8l1 6c0 6 1 7 5 9s16 4 20 4l8-2zm-13-2c-2-1-1-2 2-3 4 0 8 0 8 2s-7 3-10 1zm-31 0l3-2c3-1 5-2 4-3l-8 3c-2 2-3 2-1-1l4-3 4-3-10 4-2 1 5-5 4-3c-1-1-9 5-10 7s-1 3 2 5h5zm-3-11v-2l1-4-3 3c-2 6-2 7 0 5l2-2zm-21-5c6-7 8-13 10-26 1-6 3-6 2 0l-1 10c0 5 1 6 2 7 3 4 7 4 8 0V78c-1-7 0-10 1-16 1-7 4-14 6-17 1-1 1-1 1 1l-1 10c0 9 0 10 3 8a49 49 0 009-23l4 9c4 13 5 16 8 20l4 2c3 0 6-2 7-6 1-5-2-23-5-30h1l6 12c5 10 7 12 8 10l1-3a1413 1413 0 00-1-5l7 11 5 8 3 9c1 6 1 6 3 7l4-3c4-5 5-13 3-23-2-7-3-10-8-16-4-6-6-8-16-13-7-2-12-4-16-3l-6-1c-5-3-11-3-14 1l-6 2c-5 0-10 3-15 9-8 8-11 15-15 35a534 534 0 01-6 28c-1 2 1 1 4-4zm86-5v-3l-1 1-1 5c-2 2-2 2 0 1l2-4zm33-23c3-4 3-6 4-9l1-8-2-8-7-10a216 216 0 01-14-19c-3-2-3-2-7-2l-6 1-4-1c-4-2-6-2-9 0l-6 8c0 2 3 0 6-4 4-4 4-4 10 3 4 4 5 7 9 16 5 10 6 14 9 26 0 4 1 5 3 7 2 3 6 5 9 5l4-5zM57 44a207 207 0 0041-22c6-1 1-3-7-2l-4 1 4-2h2l-2-1c-3-2-5-1-28 4a218 218 0 01-41 7c-1 0 3 7 6 10s5 4 12 6c6 1 11 1 17-1z"/>
  <path fill="#daaaa5" d="M129 248l-1-3-2-2-3-3c-2-2-4-12-5-21l-2-15-5-1c-4-1-8-3-11-6l-3-1-2-1-3-2c-4-2-7-6-8-9s-4-6-6-4c-1 0-2 0-5-4-4-4-7-10-9-17v-12c1-4 2-8 4-10 9-17 9-17 9-22l-1-11-3 2-7 3-5 1v-3c3-3 6-14 10-33 3-18 5-25 11-34h-1c-6 6-13 9-24 12-7 1-17 0-22-3-4-2-12-11-15-17-2-3-2-4-1-5l16-2 26-5 19-4 7-2 4 2 7 1 4 1 5 6 3-1 15-2 13-1c4-7 10-12 14-11l9 1h8c3 1 6 5 11 13l8 10 9 13c4 6 4 7 4 11 0 9-4 23-8 26-1 1-1 1-4-1l-4-3v31l4 14c6 17 8 26 8 34 0 7-1 10-6 17l-3 7-2 3c-1 1-1 1-4-2l-2-2-3 1c-3 2-4 1-4-2s0-3-1-2l-1 3v3l1 4c1 3 1 3-1 5l-1 3-2 2-6 1-6-1h-3l-4 3c-2 0-3 1-4 4-2 6-4 16-5 29-2 10-2 13-5 14-2 2-4 2-6 0zm6-6l1-2v-4c1-2 1-2-1-3l-4-1-1 5 1 5h4zm-7-10c1-5 1-6-2-6h-3c-2-1-2-1 0 5 1 6 1 6 3 6s2 0 2-5zm9-4l2-11c2-10 2-11-1-11-6-1-5-1-6 7-2 19-2 19 2 19 2 0 2 0 3-4zm-9-7l-1-10v-7h-9v2a332 332 0 014 19h3c2 0 2 0 3-4zm3-19v-2l-1 3c0 3 1 2 1-1zm36-6l-1-1c-1 0-2 1-1 2s1 0 2-1zm-1-4c3-2 3-2 2-3l-5 2-4 2h2l5-1zm-26-18l3-2-3-11c0 2-5 9-7 10-3 3 2 5 7 3zm-24-4c-2-2-2-2-2 2v2l2-2c2-1 2-1 0-2zm-29-12c0-4-1-5-3-8l-3-5v4l3 9 3 4v-4zm53-14l-1-15c0-1-4 1-5 3l-1 4c-1 2 1 8 4 15a37 37 0 012 7l1-14zm40 13v-6c0-5 0-7-2-13l-5-12c-1 0 1 19 4 28 1 4 2 5 3 3zm-58-19l4-8-3-1h-3l-1 4a7293 7293 0 00-4 19v5l2-6 5-13zm-46 1c6-7 7-9 7-15l1-6c2-2 1-4-2-7l-2-3v5l-2 10-4 7c-3 4-6 11-7 15-1 7-1 7 1 3l8-9zm116 4a271 271 0 00-10-32l-1-4-4 4-4 5c0 4 6 16 10 22l6 7c4 5 5 5 3-2zm-48-6h-1l1 1h1l-1-1zm5-13c2-5 7-11 11-14l2-3c0-2-3-5-6-6-2-1-3-1-5 1-4 4-6 10-6 16l2 10 2-4zm-25 1l1-2-2-1-3-1c-2 0-2 1 1 3 2 3 2 3 3 1zm15-2c0-2 0-2-2-2-5 1-5 1-3 3 1 2 1 2 3 2 2-1 2-2 2-3zm-42-1c2-1 2-1 2-3 0-3-1-4-3-4l-8-2-2-2v2c0 3 2 8 4 9h7zm42-7c5-2 5-2 6-5l2-5 1-2 1-2 1-2-3-2c-3 0-5-2-3-3v-2l-2-2c-1-2-3-2-3 0s-2 5-4 5l-8-4-6-3-2 2-3 4c-1 3-5 5-7 5-3 0-7-4-4-5l-1-1-3-2c0-2-1-2-1-1-1 1 3 8 5 8l1 6c0 6 1 7 5 9s16 4 20 4l8-2zm-13-2c-2-1-1-2 2-3 4 0 8 0 8 2s-7 3-10 1zm-20-1c0-2-3-8-4-7l1 1 1 3c0 3 0 6 1 5l1-2zm-11 1l3-2c3-1 5-2 4-3l-8 3c-2 2-3 2-1-1l4-3 4-3-10 4-2 1 5-5 4-3c-1-1-9 5-10 7s-1 3 2 5h5zM73 98l4-5c2-3 4-10 4-14l1-8 1-4-1 5c-1 12 0 19 5 21 5 3 7-2 6-12-1-8 1-24 3-27v2c-1 6 1 13 4 14 4 0 9-11 10-24l1-4 2 8 4 14c3 10 6 13 13 12 3 0 3 0 4-3 2-4 1-19 0-24v-3l2 5c1 5 9 16 11 15V56l5 11 8 19 2 2c3 0 8-4 9-8 2-8-4-35-11-48-2-3-3-4-10-6l-20-2c-5 0-5 0-3 1l2 2c-6-3-12-4-17-2l-3 2-5 2c-5 0-10 2-16 8-8 8-11 16-15 38l-5 22-2 8 2-2 5-5zm19 4v-2l1-4-3 3c-2 6-2 7 0 5l2-2zm65-10v-4l-1 2-1 4v2l2-4zm36-18c2-3 3-6 3-10 2-11 2-12-3-20l-8-11-7-10-6-8c-3-3-3-3-7-3-5 0-7 1-6 2l-4-1c-4-2-6-2-9 0l-7 9 2 1 5-5 4-4 2 2c5 4 9 10 14 21l5 17c4 14 4 14 7 17l4 3 2 1 7 3 2-4zM54 47a121 121 0 0039-20c3-3 4-3 7-3 3 1 4 0 3-1-1-3-4-4-12-3-4 1-5 0-1-1h3l-3-1c-3-1-8-1-26 4-12 3-15 4-29 5l-12 1-2 1 2 4c2 4 9 12 11 13l14 2 6-1z"/>
  <path fill="#b58ead" d="M129 248l-1-3-2-2-3-3c-2-2-4-12-5-21l-2-15-5-1c-4-1-8-3-11-6l-3-1-2-1-3-2c-4-2-7-6-8-9s-4-6-6-4c-1 0-2 0-5-4-4-4-7-10-9-17v-12c1-4 2-8 4-10 9-17 9-17 9-22l-1-11-3 2-7 3-5 1v-3c3-3 6-14 10-33 3-18 5-25 11-34h-1c-6 6-13 9-24 12-7 1-17 0-22-3-4-2-12-11-15-17-2-3-2-4-1-5l16-2 26-5 19-4 7-2 4 2 7 1 4 1 5 6 3-1 15-2 13-1c4-7 10-12 14-11l9 1h8c3 1 6 5 11 13l8 10 9 13c4 6 4 7 4 11 0 9-4 23-8 26-1 1-1 1-4-1l-4-3v31l4 14c6 17 8 26 8 34 0 7-1 10-6 17l-3 7-2 3c-1 1-1 1-4-2l-2-2-3 1c-3 2-4 1-4-2s0-3-1-2l-1 3v3l1 4c1 3 1 3-1 5l-1 3-2 2-6 1-6-1h-3l-4 3c-2 0-3 1-4 4-2 6-4 16-5 29-2 10-2 13-5 14-2 2-4 2-6 0zm6-6l1-5c1-3 1-3-1-4l-4-1-1 5 1 6 4-1zm-7-5l1-6v-5h-6c-2-1-2-1 0 5l2 6h3zm9-8a198 198 0 016-27l-5-1c-4 0-4 0-4 2-2 6-3 13-3 20-1 8 0 9 3 9s3 0 3-3zm-10-4h1v-11l-1-12c0-3-2-3-6-2-3 2-3 1-1 14 1 9 1 10 3 11h4zm4-23v-2l-1 3c0 3 1 2 1-1zm12-10l-1-8-15 3h-3l3 3c2 2 3 3 3 5 1 3 4 5 10 5h2zm-34 2l1-5 3 5 5 5 2-1-5-15c-2-4-4-4-7-1l-2 2v7c0 7 1 8 2 8l1-5zm58 1c1-2 1-2-1-1-1 0-2 2-1 3s2 0 2-2zm-4 0v1c-1 0 0 1 0 0v-1zm-4 1l-1-1v1h1zm-2-3v-3l2-1c3 1 3 1 2-2l-3-2-1 1-2 1h-3c-3 1-2 3 1 5s3 2 4 1zm9-1c3-1 3-2 2-3h-1l-5 2-3 2 7-1zm-68-4c0-5 0-6-4-8-2-1-7 2-7 4 0 3 4 6 7 6l2 2 1 1 1-5zm35-4c4-1 6-3 5-5-1-1-3-1-8 1l-6-1h-5c-1 1 1 3 4 5h10zm7-10c3-2 3-2 1-11l-1-21v-14l-2 1c-3 0-3 0-4 5-2 3-2 4 0 10l3 8 2 6c1 3 1 4-1 7l-4 5-2 4 4 1 4-1zm-24-1c2-2 2-3 0-4s-2-1-2 2v3l2-1zm-29-15c0-4-1-5-3-8l-3-5v4l3 9 3 4v-4zm93-1v-6c0-5 0-7-2-13l-5-12c-1 0 1 19 4 28 1 4 2 5 3 3zm-58-19c4-8 4-10 2-9h-3l-1-1a220 220 0 00-5 25v4l2-5 5-14zm-46 1c6-7 7-9 7-15l1-6c2-2 1-4-2-7l-2-3v5l-2 10-4 7c-3 4-6 11-7 15-1 6-1 7 1 3l8-9zm116 4a249 249 0 00-10-32l-1-4-4 4-4 5c0 4 6 16 10 22a330 330 0 0110 10l-1-5zm-47-5l-1-1-1 1h2zm4-14c2-5 7-11 11-14l2-3c0-2-3-5-6-6-2-1-3-1-5 1-4 4-6 10-6 16l2 10 2-4zm-24-1l-1-1-3-1c-3 0-3 0 0 4 1 2 2 2 3 1l1-3zm14 0v-3l-3 1-3 1 1 2c1 2 2 2 3 2 2-1 2-1 2-3zm-41-1l1-4v-2l-4-1c-4-1-6-1-8-3-1-2-1-2-1 0 0 4 2 9 4 10h8zm42-6c3-1 4-1 5-5l2-5 1-3 1-2c2-1 1-3-2-4l-3-1v-2l1-1-2-2-2-6-1 1-1 4c0 3-2 5-5 5-3-1-15-14-18-20l-4-5c-2 2-2 2 0 2l2 2h-2c-3 0-4 1-1 3l5 6-3-2-3-2 2 3c3 2 4 3 4 5v6c0 2-3 5-6 6-2 0-3 0-5-2l-1-2v-2l-3-4-1-3v-1-1l-1 3c-1 1 0 2 1 6 2 2 3 5 5 5l1 3c-1 3 1 8 3 11s3 3 13 5c5 1 14 1 18-1zm-14-3c-2-2-1-3 5-3 5 0 6 1 4 2-2 2-7 2-9 1zm-20-1c0-2-3-8-4-7l1 1 1 3c0 3 0 6 1 5l1-2zm-9 2l2-2 1-1 2-2c1-1 1-1-1-1l-8 3-1 2c-1 0 2-4 5-5 2-1 5-3 4-4s-8 2-9 3l-2 2 1-2 4-3 3-2c0-2 0-2-4 0s-7 6-7 7c0 4 5 6 10 5zM73 98l4-5c2-3 4-10 4-14l1-8 1-4-1 5c-1 12 0 19 5 21 5 3 7-2 6-12-1-8 1-24 3-27v2c-1 6 1 13 4 14 4 0 9-11 10-24l1-4 2 8 4 14c3 10 6 13 13 12 3 0 3 0 4-3 2-4 1-19 0-24v-3l2 5c1 5 9 16 11 15V56l5 11 8 19 2 2c3 0 8-4 9-8 2-8-4-35-11-48-2-3-3-4-10-6l-20-2c-5 0-5 0-3 1l2 2h-2c-1-2-9-4-12-3-3 0-6 2-7 4l-4 1c-9 0-21 10-26 23l-6 26-4 19-2 8 2-2 5-5zm19 4v-6l-4 8h2l2-2zm63-6l3-7-1-2-1 3-1 4c-2 2-2 3 0 2zm39-22l3-13 1-8-4-7-8-12a268 268 0 01-16-21l-7-1-5 1h-2c-6-3-10-1-15 5-2 4-2 5 0 5l4-4 4-3 1-1 4 3a92 92 0 0118 40c2 9 3 11 8 15s9 6 10 5l4-4zM52 48l15-5 24-14c6-5 8-6 10-4 2 1 3 0 2-3-1-2-4-3-12-2h-4 3l3-1-2-1-4-1-24 5a187 187 0 01-40 6l-2 1 2 4c2 4 8 11 11 13l11 2h7z"/>
  <path fill="#de8f6f" d="M129 248l-1-3-3-3c-3-3-4-6-6-17l-3-21-5-1-10-5-4-2-2-1-3-2c-3-2-7-6-8-9s-4-6-6-5c0 1-2 0-5-3-4-4-7-10-9-18v-11c2-7 3-10 7-16l6-15c1-4 0-12-1-12l-3 2-7 3-5 1c-1-1 0-2 1-4 3-4 6-15 8-30 4-19 6-27 12-35l2-3-4 4c-6 4-8 5-18 8-5 2-6 2-13 2-8 0-12-1-17-5-3-2-10-11-12-15-2-5-2-6 9-7 15-1 23-2 33-5 19-5 26-6 30-4l6 1c4 1 6 2 8 6 1 2 1 2 4 0l14-2h13l3-4 6-6 6-2 9 1 10 1 7 8a404 404 0 0018 26c5 7 5 7 5 12 0 9-4 23-8 26-1 1-1 1-4-1l-4-3v30l4 16c6 17 8 25 8 33 0 7-1 10-6 17l-3 7-2 3c-1 1-1 0-4-2l-2-2-3 1c-3 2-4 1-4-2 0-2 0-3-1-2l-1 3 1 5v5l-4 7-6 1-6-1c0-1-1-1-3 1l-5 2c-2 0-2 1-3 5l-5 27c-2 11-2 14-4 15-3 2-4 2-7 0zm6-6l1-5v-4h-4l-2-2v6l1 6 4-1zm-7-5l1-6v-5h-6c-2-1-2 0 0 6 1 5 2 6 5 5zm9-8a198 198 0 016-27l-5-1c-4 0-4 0-4 2-2 6-3 13-3 20-1 8 0 9 3 9s3 0 3-3zm-10-4h1v-11l-1-12c0-3-2-3-6-2-3 2-3 1-1 14 1 9 1 10 3 11h4zm4-23v-2l-1 3c0 3 1 2 1-1zm12-10l-1-8-15 3h-3l3 3c2 2 3 3 3 5 1 3 4 5 10 5h2zm-34 2l1-5 3 5 5 5 2-1-5-15c-2-4-4-4-7-1l-2 2v7c0 7 1 8 2 8l1-5zm58 1c1-2 1-2-1-1-1 0-2 2-1 3s2 0 2-2zm-4 0v1c-1 0 0 1 0 0v-1zm-4 1l-1-1v1h1zm-2-3v-3l2-1c3 1 3 1 2-2l-3-2-1 1-2 1h-3c-3 1-2 3 1 5s3 2 4 1zm10-1l2-3c0-1-1-2-2 0l-5 2-3 2 8-1zm-69-4c0-5 0-6-4-8-2-1-7 2-7 4 0 3 4 6 7 6l2 2 1 1 1-5zm35-4c4-1 6-3 5-5-1-1-3-1-8 1l-6-1h-5c-1 1 1 3 4 5h10zm7-10c3-1 3-2 2-9-1-3-2-10-2-21l-1-16-2 1c-2 0-2 1-3 4-2 5-1 8 4 21l1 6c0 2-2 7-5 10l-2 4 4 1 4-1zm-24-5c-2-2-3-1-3 3v3l3-2c2-2 2-2 0-4zm-2-7v0zm-27-4c0-4-1-5-3-8l-2-5-2-1 1 9 6 9v-4zm31-10l5-11c3-6 4-11 1-8h-2-1c-2-1-1-1-4 10l-3 15v7l1-4 3-9zm62 9v-6c0-5 0-7-3-14a1090 1090 0 01-4-7l2 18c3 10 4 12 5 9zm-112-4l10-14 3-4 2-7 1-7v-3c2-1 2-2 1-5l-3-6-3-2 1 4c0 7-2 13-8 24-3 6-6 14-6 19 0 4 1 4 2 1zm125-8l-6-21-5-13V80l-2-1-2-1v6c0 6 0 7-2 13-3 8-4 15-3 20s7 18 10 22l7 9 4 5-1-8zm-48-7l-1-1-1 1h2zm5-15l6-8c5-4 12-14 13-17l1-2-5 2-7 2h-3l-4 3c-3 3-4 5-5 9-2 5-1 11 0 15l2 3v-2l2-5zm-26 3c2-1 1-4-1-5l-4 1 4 5 1-1zm14 0l1-4-1-2-3 1c-3 1-3 2-1 4 1 2 1 1 4 1zm-39-5v-3c0-2 0-2-4-3s-6-1-8-3c-1-2-1-2-1 0 0 4 2 9 4 10l9-1zm7-7l-1-6c-2-4-3-4-3-2-1 1-1 1 1 1v3l1 5c1 3 1 3 2-1zm34 2c3-1 4-1 5-5l2-5 1-3 1-2c2-1 1-3-2-4l-3-1v-2l1-1-2-2-2-6-1 1-1 4c0 3-2 5-5 5-3-1-15-14-18-20l-4-5c-2 2-2 2 0 2l2 2h-2c-3 0-4 1-1 3l5 6-3-2-3-2 2 3c3 2 4 3 4 5v6c0 2-3 5-6 6-2 0-3 0-5-2l-1-2v-2l-3-4-1-3v-1-1l-1 3c-1 1 0 2 1 6 2 2 3 5 5 5l1 3c-1 3 1 8 3 11s3 3 13 5c5 1 14 1 18-1zm-14-3c-2-2-1-3 5-3 5 0 6 1 4 2-2 2-7 2-9 1zm-29 1l2-2 1-1 2-2c1-1 1-1-1-1l-8 3-1 2c-1 0 2-4 5-5 2-1 5-3 4-4s-8 2-9 3l-2 2 1-2 4-3 3-2c0-2 0-2-4 0s-7 6-7 7c0 4 5 6 10 5zm-27-10c8-6 11-11 11-22v-9c1-1 1 0 1 2-1 6 0 13 2 16s6 5 7 4 1 0 2 1l4 2h2l-2-4c-3-8-4-14-4-22l3-17v1c-1 6-1 17 1 21 1 2 1 2 3-1 3-3 8-12 9-16l2-11 1-6 1 7c3 17 8 27 14 33l8 6 1-9c2-9 1-17-1-26-1-8-1-7 2 2 3 7 4 10 9 16l3 3v-5l-1-8c-1-3 0-3 5 7 6 12 7 15 7 21v4l2-1c3-1 6-5 8-7 1-3 2-12 1-16l-2-13c-1-11-5-23-8-26-3-4-14-6-26-7h-10l2 1c2 2 2 3 0 1-4-2-8-3-12-2l-8 4-3 1c-7 0-17 7-22 16-4 7-6 14-9 29a160 160 0 01-8 33l5-3zm22-2v-6l-4 8h2l2-2zm63-6l3-7-1-2-1 3-1 4c-2 2-2 3 0 2zm39-22c2-4 4-13 4-19 0-3-7-15-12-21l-9-12-7-9h-12-3c-5-3-11 0-15 7v3c2 1 2 0 5-3l4-4 1-1 7 6c6 7 13 26 15 37 2 9 3 11 9 15l10 6 3-5zM53 48l10-3c8-2 25-13 30-18 3-3 3-3 7-2h4l-1-2-1-2c-1-1-5-2-10-1h-4l2-1c3 0 3 0 1-1l-4-1-25 5a178 178 0 01-40 7c-2 1 8 15 12 17 3 2 11 3 13 3l6-1z"/>
  <path fill="#ac8c96" d="M129 248l-1-3-3-3c-3-3-4-6-6-17l-3-21-5-1-10-5-4-2-2-1-3-2c-3-2-7-6-8-9s-4-6-6-5c0 1-2 0-5-3-4-4-7-10-9-18v-11c2-7 3-10 7-16l6-15c1-4 0-12-1-12l-3 2-7 3-5 1c-1-1 0-2 1-4 3-4 6-15 8-30 4-19 6-27 12-35l2-3-4 4c-6 4-8 5-18 8-5 2-6 2-13 2-8 0-12-1-17-5-3-2-10-11-12-15-2-5-2-6 9-7 15-1 23-2 33-5 19-5 26-6 30-4l6 1c4 1 6 2 8 6 1 2 1 2 4 0l14-2h13l3-4 6-6 6-2 9 1 10 1 7 8a404 404 0 0018 26c5 7 5 7 5 12 0 9-4 23-8 26-1 1-1 1-4-1l-4-3v30l4 16c6 17 8 25 8 33 0 7-1 10-6 17l-3 7-2 3c-1 1-1 0-4-2l-2-2-3 1c-3 2-4 1-4-2 0-2 0-3-1-2l-1 3 1 5v5l-4 7-6 1-6-1c0-1-1-1-3 1l-5 2c-2 0-2 1-3 5l-5 27c-2 11-2 14-4 15-3 2-4 2-7 0zm6-6l1-5v-4h-4l-2-2v6l1 6 4-1zm-7-5l1-6v-5h-6c-2-1-2 0 0 6 1 5 2 6 5 5zm9-5l1-3a215 215 0 016-28h-5l-6-1v5a248 248 0 00-3 24c0 2 0 2 2 3h5zm-10-7c2 0 2 0 2-5l-1-13c-1-8-1-9-7-7-3 1-4 1-3 2l1 11c2 12 2 11 4 12h4zm4-23v-2l-1 3c0 3 1 2 1-1zm-22-8v-6l2 4 3 6c1 2 1 2 4 2l3-1-3-10-3-11h1l6 8 4 4c2 1 4 3 4 5 0 3 3 4 8 5h4l1-8v-9l-4 1-11 3c-1-1 1-2 4-2 5-2 9-5 9-7 1-3-1-3-7 0l-7 2-5-2c-5-2-10-2-11 0l-4 4c-2 2-2 3-2 9l-1 7 3 1 2 1v-6zm54 2l-1-1 2 2-1-1zm5-1c0-2 0-3-2-1-2 1-2 1-1 2 0 2 2 1 3-1zm-9 0h-1v1l1-1zm2 0c-1-1-1 0-1 1h1v-1zm-3-2l3-2 1-1-1-2c-1-3-2-3-9-2-2 0-3 1-2 3 0 1 0 2 3 3 3 2 4 2 5 1zm8-1h3l1-1-1-1v-1c0-1-1-2-2 0l-5 2-3 2 7-1zm-67-4l-1-5-3-2c-3-2-6-3-8-2l-1 3c0 5 3 8 8 9l2 1 1 1c1 0 2 0 2-5zm41-14c3-1 3-2 2-9-1-3-2-10-2-21l-1-16-2 1c-2 0-2 1-3 4-2 5-1 8 4 21l1 6c0 2-2 7-5 10l-2 4 4 1 4-1zm-24-5c-2-2-3-1-3 3v3l3-2c2-2 2-2 0-4zm-2-7v0zm-27-4c0-4-1-5-3-8l-2-5-2-1 1 9 6 9v-4zm31-10l5-11c3-6 4-11 1-8h-2-1c-2-1-1-1-4 10l-3 15v7l1-4 3-9zm62 9v-6c0-5 0-7-3-14a1090 1090 0 01-4-7l2 18c3 10 4 12 5 9zm-112-4l10-14 3-4 2-7 1-7v-3c2-1 2-2 1-5l-3-6-3-2 1 4c0 7-2 13-8 24-3 6-6 14-6 19 0 4 1 4 2 1zm125-8l-6-21-5-13V80l-2-1-2-1v6c0 6 0 7-2 13-3 8-4 15-3 20s7 18 10 22l7 9 4 5-1-8zm-48-8c-1-1-2 0-2 2s0 2 1 0l1-2zm5-14l6-8c5-4 12-14 13-17l1-2-5 2-7 2h-3l-4 3c-3 3-4 5-5 9-2 5-1 11 0 15l2 3v-2l2-5zm-26 3c2-1 1-4-1-5l-4 1 4 5 1-1zm14 0l1-4-1-2-3 1c-3 1-3 2-1 4 1 2 1 1 4 1zm-39-5v-3c0-2 0-2-4-3s-6-1-8-3c-1-2-1-2-1 0 0 4 2 9 4 10l9-1zm41-4l4-2 1-4c1-4 3-6 5-9 5-6 8-10 8-13 0-2-1-2-1-1l-1 3-2 4c-2 2-3 2-5 2l-5-1-2-1 2-1c2-1 2-2 0-2-2-1-2-1-2-3l-1-4-3 5-2 4c-1 1-1 1-6-4-8-9-12-15-15-28l-2-6-1 3-3 8c-1 4-1 5 2 5l2 1-3 1c-3-1-3-1-5 2-1 3-1 4 1 4l8 4 2 5c1 5-2 9-7 9-3 0-6-2-4-4l-1-1-3-4-1-3v-1c1-1 1-1 0 0-2 2-1 5 2 10 3 6 4 8 2 7v2c4 10 5 10 11 12 10 3 17 3 25 1zm-13-4c-2-1-1-3 4-3s6 2 3 3h-7zm-14-32l-4-2-3-1c0-2 7 1 9 3 1 2 0 2-2 0zm-7 33l-1-6c-2-4-3-4-3-2-1 1-1 1 1 1v3l1 5c1 3 1 3 2-1zm-7-1l2-2 2-3-9 3-2 1 1-2 4-2c2 0 4-2 4-4 0-1-7 1-9 3-1 0-1 0 0 0l3-3 3-2c0-2 0-2-5 1l-2 1c2-2 3-6 2-7s-1-1-4 3c-1 4-2 5-1 6v2c-1 2 0 4 2 5l5 1 4-1zm-29-9c8-6 11-11 11-22v-9c1-1 1 0 1 2-1 6 0 13 2 16s6 5 7 4 1 0 2 1l4 2h2l-2-4c-3-8-4-14-4-22l3-17v1c-1 6-1 17 1 21 1 2 1 2 3-1 3-3 8-12 9-16l2-11 1-6 1 7c3 17 8 27 14 33l8 6 1-9c2-9 1-17-1-26-1-8-1-7 2 2 3 7 4 10 9 16l3 3v-5l-1-8c-1-3 0-3 5 7 6 12 7 15 7 21v4l2-1c3-1 6-5 8-7 1-3 2-12 1-16l-2-13c-1-11-5-23-8-26-3-4-14-6-26-7h-10l2 1c2 2 2 3 0 1-4-2-8-3-12-2l-8 4-3 1c-7 0-17 7-22 16-4 7-6 14-9 29a160 160 0 01-8 33l5-3zm43-8c2-1 1-2-2-1h-4c-2 0-3 1 0 2 2 1 4 1 6-1zm39-1l1-2h-2l-3 1c-3 0-4 1-2 2 1 1 4 0 6-1zm-9-16h-2c-2 2-1 3 1 2l1-2zm12 0h-1l1 1v-1zm-9 0h-1-1l1 1 1-1zm48-5c2-4 4-13 4-19 0-3-7-15-12-21l-9-12-7-9h-12-3c-5-3-11 0-15 7v3c2 1 2 0 5-3l4-4 1-1 7 6c6 7 13 26 15 37 2 9 3 11 9 15l10 6 3-5zm-50 0c-2-3-3-3-4 1v3h3l2-1zm-3-5v-1h-1l1 2v-1zM53 48l10-3c8-2 25-13 30-18 3-3 3-3 7-2h4l-1-2-1-2c-1-1-5-2-10-1h-4l2-1c3 0 3 0 1-1l-4-1-25 5a178 178 0 01-40 7c-2 1 8 15 12 17 3 2 11 3 13 3l6-1z"/>
  <path fill="#99728f" d="M129 248l-1-3-3-3-4-8a220 220 0 01-5-28v-3l-5-1c-6-1-7-1-10-4l-3-2-3-1-3-3c-3 0-7-5-8-8 0-2-4-5-6-5-1 1-2 0-5-4-5-5-7-9-9-17-1-9 0-14 9-32 4-6 5-13 4-18l-1-3-4 1-7 3-4 1c-1-1 0-2 1-4 3-4 6-14 8-30 4-20 6-26 11-34l3-4-2 2-16 9c-10 3-14 4-21 3-4-1-7-1-10-3-4-2-11-10-14-16-2-5-2-5-1-6l3-1 36-5c21-6 30-7 33-5l5 1c6 1 8 2 9 6l1 2 2-1c3-2 6-3 17-2h10l3-4c4-6 8-9 11-9l11 1c10 0 10 0 15 7a54155 54155 0 0120 28c5 7 5 8 5 12 0 6-3 19-5 22-3 5-4 5-7 3l-4-3v6a319 319 0 001 30l9 31c2 10 2 18-1 24a2087 2087 0 00-9 15l-3-2c-2-2-2-2-5-1-3 2-4 1-4-2v-3l-1 1c-2 1-2 2-1 3l1 6-1 6-1 2-1 3-7 1-6-2c-1-1-1 0-3 1l-4 3c-2 0-3 1-4 4l-5 28c-2 11-3 14-5 16-2 1-4 1-6-1zm6-5l1-3a962 962 0 018-39h-5l-6-1-1 8a248 248 0 00-2 34l5 1zm-4-11h1c2 0 2 1 1 1l-2-1zm-3 5l1-6c0-5 0-5-2-5h-1l2-1 1-5-1-13c-1-8-1-9-7-7-3 1-4 1-3 2l2 15c3 21 4 22 8 20zm3-35v-2l-1 3c0 3 1 3 1-1zm-22-8c0-6 1-6 4 1l2 5h2l4-1-3-10-3-11h1l6 8 4 4c2 1 4 3 4 5 0 3 3 5 9 5 3 0 3 0 4-2v-15l-4 1-7 2c-5 0-5 0 1-2s10-7 7-8l-5 1c-7 4-8 4-13 1-5-2-10-2-11 0l-4 4c-2 2-2 3-2 9l-1 7 3 1 2 1v-6zm54 2l-1-1 2 2-1-1zm5-1c0-2 0-3-2-1-2 1-2 1-1 2 0 2 2 1 3-1zm-9 0h-1v1l1-1zm2 0c-1-1-1 0-1 1h1v-1zm-3-2l3-3c3 0 3-1 0-3-1-2-1-2-6-1h-5v2l1 4c4 2 6 2 7 1zm8 0l3-1 1-1-1-1v-3l-5 3-5 3h7zm-67-5l-1-5-3-2c-3-2-6-3-8-2l-1 3c0 5 3 8 8 9l2 1 2 1 1-5zm39-13l4-2v-7l-2-21v-17c-1-2-1-2-3-1l-2 1h-2c-2 1 0 12 3 21l2 11c1 3 1 3-3 6l-4 3 2 6h5zm-21-3l2-3-2-2c-2-2-2-3-2-6 0-4 3-15 8-25l3-8-1-2-1 2c-1 2-1 1-4-1l-2-1-2 12a172 172 0 00-4 27v9c2 1 2 1 5-2zm-30-14c0-4-1-5-3-8l-2-5-2-1c-1 1 1 9 4 14l3 4v-4zm93-3c1-6 1-10-4-24l-3-5v12l6 21 1-4zm-111-4l7-9 5-7 2-6 1-7c-1-2 0-3 1-4v-3-3l-3-5-3-3v4c2 7 0 13-7 24-4 8-6 14-6 20v4l3-5zm124-3l-9-32-2-19V80l-2-1-2-2v6c0 7-1 12-4 18l-2 9c0 5 0 6 2 10 2 7 6 14 10 19a98 98 0 0110 15l-1-6zm-48-11c-1-1-2 0-2 2s0 2 1 0l1-2zm6-15l4-6c5-3 16-18 15-19 0-1-4 0-7 2l-8 1c0-1-5 3-8 7l-1 1 2-4c8-9 10-12 10-15l-1-3-1 2c0 3-1 6-3 8h-9v-2c2-1 1-3-1-3-1 0-2-1-2-5 0-2 0-2-1-1l-2 4-1 4c-1 2-2 2-8-4-8-8-11-15-14-27l-2-6-1 3-3 8c-1 4-1 5 2 5l2 1-3 1c-3-1-3-1-5 2-1 3-1 4 1 4l8 4c2 3 3 7 2 10-2 4-8 6-11 3l-1-2c2-1 1-2 0-2-2 0-3-4-3-8v-2l-1 2-2 2 5 11 2 3c0 1 0 2-1 1v2c4 10 5 10 11 12 11 3 17 3 26 0 3-1 3-1 4-4l1-1v16l2 3v-3l3-5zm-24-9c-2-1-1-2 4-2s6 1 3 2h-7zm-14-32l-4-2-3-1c0-2 7 1 9 3 1 2 0 2-2 0zm11 45l1-4c0-2 0-2-2-3-5-1-6 2-2 6 1 2 2 2 3 1zm14 0c2-1 2-1 2-4l-1-3-7 2 3 5h3zm-40-4c2-1 4-2 4-5v-3h-7l4-1 2-2c2-1 3-3 1-3-3 0-7 1-8 3l-2 1 1-2 4-2c2 0 4-2 4-4 0-1-7 1-9 3-1 0-1 0 0 0l3-3 3-2c0-2 0-2-5 1l-2 1c2-2 3-6 2-7s-1-1-4 3c-1 3-2 5-1 6 1 0 0 4-2 5-1 1 0 3 1 8 1 2 2 3 4 3h7zm-9-9l-2-1h1l2 1v1l-1-1zm17-2l-2-5-2-3v2c-1 2-1 2 1 2v2l1 6 1 3 1-2v-5zm-35-8c8-5 10-9 10-20v-8 5l1 7c1 4 7 9 9 8 1 0 2 0 3 2l4 1h2l-3-5c-2-6-4-12-4-18l2-18 1-1v16l1 6c1 1 3-1 7-8 5-8 7-13 7-20s1-7 2-1 4 19 7 24c3 6 7 11 11 14l4 2 2-16-1-16-1-8 2 8c3 6 3 8 7 13l5 6a145 145 0 00-1-17l11 24 1 7v4c3 0 10-7 11-10V67l-2-13c-1-7-2-12-6-19-1-3-2-4-5-6-5-3-13-4-24-5h-9l2 1 2 2-2-1c-2-1-9-3-12-2-3 0-6 1-7 3l-4 1-5 1c-4 2-10 6-13 10-7 8-10 16-13 36a161 161 0 01-8 32l6-4zm42-7c2-1 1-2-2-1h-4c-2 0-3 1 0 2 2 1 4 1 6-1zm39-1l1-2h-2l-3 1c-3 0-4 1-2 2 1 1 4 0 6-1zm-9-16h-2c-2 2-1 3 1 2l1-2zm12 0h-1l1 1v-1zm39-1c2-4 4-16 4-21s0-5-4-12l-7-11a289 289 0 01-17-21h-13l-3-1h-6l-4 3c-2 1-5 7-5 8h2l16 4c4 2 4 1-1-5-3-4-4-5-6-5l-1-1 1-1c2 0 10 10 13 17l3 7c3 5 5 13 6 18 1 7 3 12 5 13l15 11 2-3zm-48 1h-1-1l1 1 1-1zm-2-5c-2-3-3-3-4 1v3h3l2-1zm-3-5v-1h-1l1 2v-1zM63 47l9-3a175 175 0 0025-19v1c-2 2-2 3 1 2a335 335 0 017-1l-1-3c-1-3-2-4-4-4l-6-1h-2c2 0 1 0 0-1-4-2-10-1-30 4-11 3-14 4-29 5l-12 2 8 13c6 6 11 8 22 7 5 0 8 0 12-2z"/>
  <path fill="#cb6b64" d="M129 248l-1-3-2-2c-4-4-5-6-8-25l-2-15-5-1c-4 0-7-1-10-4l-3-2-2-1-4-3c-4-1-7-5-8-8 0-2-4-5-6-5-1 0-2 0-5-4-5-5-7-9-8-17-2-5-2-6 0-12l4-11c8-14 10-20 8-27l-1-4-5 3c-6 2-9 3-10 2-1 0-1-1 1-3 3-4 6-14 8-26 3-19 4-24 8-32l4-7c3-3 2-3-2 0l-7 5c-4 2-16 6-20 6-5 1-14-1-18-3S24 39 21 33c-2-5-2-5-1-6l4-1a232 232 0 0037-6l27-5 4 1 6 1c4 1 6 2 8 6l1 2 2-1c3-2 6-3 17-2h10l3-4c5-7 10-10 14-8h8c9 0 10 0 16 9a424 424 0 0019 27c4 6 5 7 5 11 0 8-4 23-8 26-1 1-1 1-4-1l-3-3-2 26 5 21c6 17 8 26 7 34 0 5 0 6-3 11a190 190 0 01-6 11c-1 4-2 4-5 1l-3-2-2 1c-4 1-5 1-4-3v-2l-1 1c-2 1-2 2-1 3l1 6-1 6-1 2-1 3-5 1h-5l-2-1c-1-2-2-2-4 0l-4 2c-3 2-3 2-4 6l-6 29c-1 10-2 11-4 13-3 2-3 2-6 0zm7-6v-9l1-1 1-3a220 220 0 016-28h-5l-6-1-1 8a248 248 0 00-2 34h6zm-7-11c0-6 0-6-1-5h-2l2-1 1-5a768 768 0 01-3-21l-5 1-3 1 4 30c1 5 2 7 5 6 2 0 2 0 2-6zm2-29v-2l-1 3c0 3 1 3 1-1zm-22-8c0-6 1-6 4 1l2 5h2l4-1-3-10-3-11h1l6 8 4 4c2 1 4 3 4 5 0 3 3 5 9 5 3 0 3 0 4-2v-15l-4 1-7 2c-5 0-5 0 1-2s10-7 7-8l-5 1c-7 4-8 4-13 1-5-2-10-2-11 0l-4 4c-2 2-2 3-2 9l-1 7 3 1 2 1v-6zm54 2l-1-1 2 2-1-1zm5-1c0-2 0-3-2-1-2 1-2 1-1 2 0 2 2 1 3-1zm-9 0h-1v1l1-1zm2 0c-1-1-1 0-1 1h1v-1zm-3-2l3-3c3 0 3-1 0-3-1-2-1-2-6-1h-5v2l1 4c4 2 6 2 7 1zm8 0l3-1 1-1-1-1 1-3-3 1-5 3-3 2h7zm-67-5l-1-5-3-2c-3-2-6-3-8-2l-1 3c0 5 3 8 8 9l2 1 2 1 1-5zm39-13l4-2 1-1-1-6c-1-5-2-10-2-23v-17l-2 1h-3c-3-1-4 9 0 19 3 11 4 15 3 16l-3 4-4 3 1 4c1 3 2 3 6 2zm-22-2c4-5 4-4 1-6-2-2-2-3-2-5 0-4 3-14 7-24l4-10-1-2-1 2-1 1-2-2-3-3-2 14a284 284 0 00-5 32c-1 5 2 6 5 3zm-29-12v-5l-3-6-2-5c-1-3-2-2-2 0 0 4 2 9 5 14l3 4-1-2zm93-5l1-8c-1-4-6-21-8-22v12l6 21 1-3zm-112-2c1-3 4-8 9-13 4-4 4-4 5-9l2-9 1-6c2-1 2-1 2 1 1 3 3 4 7 4 6 0 9-2 8-6l-2-4v1c1 1 0 2-4 2l-5-1h4l4-1 2-2c2-1 3-3 1-3-3 0-7 1-8 3l-2 1 1-2 4-2c2 0 4-2 4-4 0-1-7 1-9 3-1 0-1 0 0 0l3-3 3-2c0-2 0-2-5 1l-2 1c2-2 3-6 2-7-1-2-1-1-3 2l-2 7v2l-1 3-2 1c0 2 0 2 0 0l-3-5-3-3v4c1 5 0 11-4 18l-5 11c-3 5-4 13-4 17 0 3 1 3 2 0zm21-41l-2-1h1l2 1v1l-1-1zm105 36l-9-31-3-8V95l1-15-3-2-3-2 1 6c0 6 0 10-4 17-2 5-3 12-2 17 1 4 6 16 9 20l12 18c2 4 2 2 1-5zm-49-12c-1-1-2 0-2 2s0 2 1 0l1-2zm6-15l5-6c5-4 16-19 15-20l-8 2c-8 3-8 3-8 1l-8 8-1 1 2-4c8-8 10-12 10-15l-1-4-1 2c0 4-1 7-3 9h-9v-2c2-1 1-3-1-3-1 0-2-1-2-5 0-2 0-2-1-1l-2 4-1 4c-1 2-2 2-8-4-8-8-11-15-14-27l-2-6-1 3-3 8c-1 4-1 5 2 5l2 1-3 1c-3-1-3-1-5 2-1 3-1 4 1 4l8 4c2 3 3 7 2 10-2 4-8 6-11 3l-1-2c2-1 1-2 0-2-2 0-3-4-3-8v-2l-1 2-2 2 5 11 2 3c0 1 0 2-1 1v2l5 10c3 2 20 5 25 4 8-2 10-3 10-5 1-1 1 0 1 5l1 10 2 3v-3l3-6zm-24-9c-2-1-1-2 4-2s6 1 3 2h-7zm-14-32l-4-2-3-1c0-2 7 1 9 3 1 2 0 2-2 0zm11 45l1-4v-2l-2-1-4-1 1 7c2 2 3 2 4 1zm15-1l1-4-1-3-4 1-4 1 1 2c2 4 3 4 5 4l2-1zm-33-11c1-3-2-10-4-10l-1 2 1 1c2 0 2 0 1 2v6l2 5 1-2v-4zm-36-10c9-6 11-9 11-20v-8 6c1 6 2 9 6 12 1 1 2 2 4 1 1 0 2 0 3 2l6 2c-6-13-7-16-7-26l1-11c1-2 1-1 1 4 0 8 1 12 3 12 1 1 5-4 9-12 4-7 4-10 4-17a1660 1660 0 013 8c4 15 9 25 17 30 4 4 4 4 6-7 1-9 1-13-1-21l-1-8 3 6 3 9 8 10-1-13c0-2 0-2 1-1l1 2 4 9c4 9 6 14 5 19v3c2 0 6-3 9-6 2-2 3-4 3-7a103 103 0 00-5-44l5 15a2263 2263 0 015 17l16 11c2-2 4-7 5-14 2-11 2-14-3-23l-8-11-8-10c-5-8-7-10-11-11-3-1-10 0-10 1l-4-1c-3-2-9 1-12 7l-2 4 4 1a64 64 0 0117 5c1 0 0-3-4-7l-6-6h-1l2-1c3 1 12 15 12 17l-2-1c-4-5-16-7-31-7h-13c-4 0-7 1-9 3h-3l-1-4c-2-3-4-4-9-4h-3c2 0 1 0 0-1-4-2-11-1-32 4-7 2-14 4-24 5l-15 2c0 1 4 8 8 12 6 7 9 8 19 9 7 0 7 0 14-3l17-7 6-5 8-7 4-3-1 2v2l4-1h2l-3 1c-6 2-14 10-19 19-4 8-5 12-8 32-2 10-5 21-7 24-2 4-1 4 5 0zm25-46s0-1 0 0v0zm69-22c0-1 0-2 1 0v1l-1-1zm-38-10l-1-1 2 1h-1zm-39 76c-1-1-1 0-1 1h1v-1zm26-6c2-1 1-2-2-1h-4c-2 0-3 1 0 2 2 1 4 1 6-1zm39-1l1-2h-2l-3 1c-3 0-4 1-2 2 1 1 4 0 6-1zm-9-16h-2c-2 2-1 3 1 2l1-2zm12 0h-1l1 1v-1zm-9 0h-1-1l1 1 1-1zm-2-5c-2-3-3-3-4 1v3h3l2-1zm-3-5v-1h-1l1 2v-1z"/>
  <path fill="#a75f66" d="M129 248l-1-3-2-2c-4-4-5-6-8-25l-2-15-5-1c-4 0-7-1-10-4l-3-2-2-1-4-3c-4-1-7-5-8-8 0-2-4-5-6-5-1 0-2 0-5-4-5-5-7-9-8-17-2-5-2-6 0-12l4-11c8-14 10-20 8-27l-1-4-5 3c-6 2-9 3-10 2-1 0-1-1 1-3 3-4 6-14 8-26 3-19 4-24 8-32l4-7c3-3 2-3-2 0l-7 5c-4 2-16 6-20 6-5 1-14-1-18-3S24 39 21 33c-2-5-2-5-1-6l4-1a232 232 0 0037-6l27-5 4 1 6 1c4 1 6 2 8 6l1 2 2-1c3-2 6-3 17-2h10l3-4c5-7 10-10 14-8h8c9 0 10 0 16 9a424 424 0 0019 27c4 6 5 7 5 11 0 8-4 23-8 26-1 1-1 1-4-1l-3-3-2 26 5 21c6 17 8 26 7 34 0 5 0 6-3 11a190 190 0 01-6 11c-1 4-2 4-5 1l-3-2-2 1c-4 1-5 1-4-3v-2l-1 1c-2 1-2 2-1 3l1 6-1 6-1 2-1 3-5 1h-5l-2-1c-1-2-2-2-4 0l-4 2c-3 2-3 2-4 6l-6 29c-1 10-2 11-4 13-3 2-3 2-6 0zm7-6l1-9v-1l1-4a181 181 0 016-27h-5l-6-1-1 9a195 195 0 00-2 33h6zm-7-11c0-6 0-6-1-5h-2l2-1 1-9c-1-15-1-16-3-17l-8 2 4 30c1 5 2 7 5 6 2 0 2 0 2-6zm2-29v-2l-1 3c0 3 1 3 1-1zm-21-5v-3l1 2c0 3 1 3 2 4l8-1v-4c-1-2-2-3-1-4l2 3 4 4c1 0 2 0 2-2 1-2 1-2 2 0 0 2 3 3 8 4l4-1 1-10c1-9 1-10-1-10v-1c0-3-1-3-4-2h-6c-2 0-2 0-1 1 2 1 2 1 0 2s-6 1-10-2c-5-3-8-2-12 2-4 5-5 7-5 13l-1 5 3 2c3 2 4 1 4-2zm21-11l3-1-2 1h-1zm19 8c0-2 1-3 3-1h5l2-2c4-1 6-4 3-4l-2-1-7-1-5 1v5l-1 7c-1 1-1 1 0 0 2-1 2-1 2-4zm18 1v-2h-3l-1 1 3-2 3-1-1-2 1-2-3 1-5 3c-2 1-5 3-5 5h3l3 1h2c2 0 2 0 3-2zm-9-1h0zm-60-6v-5l-3-2c-5-3-6-4-8-3l-2 6c1 3 5 6 8 7l2 1 2 1 1-5zm30-11c1-1 0-1-2-1l-3 1h5zm9-2l4-2 1-1-1-6c-1-5-2-10-2-23v-17l-2 1h-3c-3-1-4 9 0 19 3 11 4 15 3 16l-3 4-4 3 1 4c1 3 2 3 6 2zm-22-2c4-5 4-4 1-6-2-2-2-3-2-5 0-4 3-14 7-24l4-10-1-2-1 2-1 1-2-2-3-3-2 14a284 284 0 00-5 32c-1 5 2 6 5 3zm10-7c0-1-1-2-3-1l-1 1c1 2 4 2 4 0zm-39-5v-5l-3-6-2-5c-1-3-2-2-2 0 0 4 2 9 5 14l3 4-1-2zm93-5l1-8c-1-4-6-21-8-22v12l6 21 1-3zm-112-2c1-3 4-8 9-13 4-4 4-4 5-9l2-9 1-6c2-1 2-1 2 1 1 3 3 4 7 4 6 0 9-2 8-6l-2-4v2h-2c-2 0-2 0 0 0 1 0 2 0 1-1l1-2 2-2c1-1 1-1-2-1h-2l1-1 2-3h-3l1-2c-1-2-2-2-4-1-2 2-2 2-2-1 1-2 0-4-1-4s-4 7-4 11l-1 4-2 2v-1l-3-5-3-3v4c1 5 0 11-4 18l-5 11c-3 5-4 13-4 17 0 3 1 3 2 0zm126-5l-9-31-3-8V95l1-15-3-2-3-2 1 6c0 6 0 10-4 17-2 5-3 12-2 17 1 4 6 16 9 20l12 18c2 4 2 2 1-5zm-49-12c-1-1-2-1-2 1l-1 1v1c1 1 4-2 3-3zm-16 1c1-1 0-1-2-1l-4 2 6-1zm22-16l5-6c5-4 16-19 15-20l-8 2c-8 3-8 3-8 1l-3 2-1 1c5-6 7-10 7-13l-1-4-1 2-1 5c-1 3-2 4-2 2 1-2 0-3-3-4-3 0-5 1-4 2h-1l-2-1c-1 0-2-1-2-5 0-2 0-2-1-1l-1 2-2 4-1 4-2-1c-3-2-12-14-14-19l-5-13-2-8-1 5a81 81 0 01-5 13l4 1 3 1-4-1h-3l-2 3-1 3 2 1c6 1 9 4 10 9v4c-1 3-3 5-4 5l1-2c2-2 2-2 0-3-2-2-7-2-7 0l-1 1-1-1c-2 0-3-4-3-8v-2l-1 2c-2 2-2 3 2 10 2 5 3 6 2 7v4l-2-2-1 2 1 1c2 0 2 0 1 2v6l2 5 1-3v-7l7 6 17 3c4 0 13-3 14-4l1 5 1 8 2 3v-3l3-6zm-24-9c-3-1-1-2 3-2 6-1 7 0 4 2h-7zm18-1c0-1 0-1 0 0v0zm-1-16v-2 2zm-20 30l1-4v-2l-2-1-4-1 1 7c2 2 3 2 4 1zm5 0l-1-1v1h1s1 0 0 0zm10-1l1-4-1-3-4 1-4 1 1 2c2 4 3 4 5 4l2-1zm-69-21c9-6 11-9 11-20v-8 6c1 6 2 9 6 12 1 1 2 2 4 1 1 0 2 0 3 2l6 2c-6-13-7-16-7-26l1-11c1-2 1-1 1 4 0 8 1 12 3 12 1 1 5-4 9-12 4-7 4-10 4-17a1660 1660 0 013 8c4 15 9 25 17 30 4 4 4 4 6-7 1-9 1-13-1-21l-1-8 3 6 3 9 8 10-1-13c0-2 0-2 1-1l1 2 4 9c4 9 6 14 5 19v3c2 0 6-3 9-6 2-2 3-4 3-7a103 103 0 00-5-44l5 15a2263 2263 0 015 17l16 11c2-2 4-7 5-14 2-11 2-14-3-23l-8-11-8-10c-5-8-7-10-11-11-3-1-10 0-10 1l-4-1c-3-2-9 1-12 7l-2 4 4 1a64 64 0 0117 5c1 0 0-3-4-7l-6-6h-1l2-1c3 1 12 15 12 17l-2-1c-4-5-16-7-31-7h-13c-4 0-7 1-9 3h-3l-1-4c-2-3-4-4-9-4h-3c2 0 1 0 0-1-4-2-11-1-32 4-7 2-14 4-24 5l-15 2c0 1 4 8 8 12 6 7 9 8 19 9 7 0 7 0 14-3l17-7 6-5 8-7 4-3-1 2v2l4-1h2l-3 1c-6 2-14 10-19 19-4 8-5 12-8 32-2 10-5 21-7 24-2 4-1 4 5 0zm25-46s0-1 0 0v0zm69-22c0-1 0-2 1 0v1l-1-1zm-38-10l-1-1 2 1h-1zm-39 76c-1-1-1 0-1 1h1v-1zm56-21v-2l1-2h2l-2-3-2-3c-1 0-2 1-2 4l1 4c1 0 1 0 0 0l-1 1-1 2v2l2-2 2-1zm13-1l-1-3-1-2v5h2zm-9-1l-3-1 2 2 1-1zm-5-9l-1-3c-2-2-2-2-1 0v2l1 1h1z"/>
  <path fill="#7b608a" d="M129 248l-1-3-2-2c-4-4-5-6-8-25l-2-15-5-1c-4 0-7-1-10-4l-3-2-2-1-4-3c-4-1-7-5-8-8 0-2-4-5-6-5-1 0-2 0-5-4-5-5-7-9-8-17-2-5-2-6 0-12l4-11c8-14 10-20 8-27l-1-4-5 3c-6 2-9 3-10 2-1 0-1-1 1-3 3-4 6-14 8-26 3-19 4-24 8-32l4-7c3-3 2-3-2 0l-7 5c-4 2-16 6-20 6-5 1-14-1-18-3S24 39 21 33c-2-5-2-5-1-6l4-1a232 232 0 0037-6l27-5 4 1 6 1c4 1 6 2 8 6l1 2 2-1c3-2 6-3 17-2h10l3-4c5-7 10-10 14-8h8c9 0 10 0 16 9a424 424 0 0019 27c4 6 5 7 5 11 0 8-4 23-8 26-1 1-1 1-4-1l-3-3-2 26 5 21c6 17 8 26 7 34 0 5 0 6-3 11a190 190 0 01-6 11c-1 4-2 4-5 1l-3-2-2 1c-4 1-5 1-4-3v-2l-1 1c-2 1-2 2-1 3l1 6-1 6-1 2-1 3-5 1h-5l-2-1c-1-2-2-2-4 0l-4 2c-3 2-3 2-4 6l-6 29c-1 10-2 11-4 13-3 2-3 2-6 0zm7-7l1-4a343 343 0 017-36c0-1 1-2 3-2l5-3 6-2c-1 2-1 2 2 2l3 1c2 1 4 0 5-2l2-3v-3l-1-2v-2l-2-4c-3-3-4-3-5-1s-6 3-11 4c-7 2-7 2-7-4s-1-7-2-6l-2 1 2-2c2-1 2 0 0-7l-2-30v-16c-1-2-1-2-3-1l-4 1c-2 0-2 1 0 4 1 2 2 2 4 2h1l-3 1h-2v7c-1 5 0 7 2 15 4 12 4 13 2 15l-4 4-2 2v2c-1-2-1-2-3-1h-5c-3-2-3-2-4-1l-1 1 1-2-2-3c-2-2-2-2-2-6s5-16 8-24l3-9c-1-1-1 0-2 1s-1 1-4-2l-2-2v3a402 402 0 01-5 31l-2 12 1 5 1 1-2-1-4 4c-1 4-3 5-3 5-2 0-7-2-10-5l-3-3-2 2c-3 2-4 5-2 9l7 4 2 2 2 1c1-1 2 0 3 1l4 3c2 2 3 2 8 2 4 0 6 0 5 1l3 23 3 14 3-1c2 0 2 1 2 2l1 3c2 2 5 1 6-1zm-7-26c-1-13-1-15-3-16h-3l-3 1 2-1 3-1h3l4 1c1 0 2 1 1 3l-2 12c0 6-1 11-2 11v-10zm2-13v-2l-1 3c0 3 1 3 1-1zm11-2h1l-1 1v-1zm17-8l1-1-1 1c-1 0-1 0 0 0zm-27-16l2-1 3 1h-5zm6-1h0c-1 0-1 0 0 0zm-9-9c2-2 2-3 0-3l-3-3-2-2-2 2-3 3c0 5 7 7 10 3zm-42-5v-5l-3-6-2-5c-1-3-2-2-2 0 0 4 2 9 5 14l3 4-1-2zm93-5l1-8c-1-4-6-21-8-22v12l6 21 1-3zm-112-2c1-3 4-8 9-12 4-5 4-5 5-11l2-9 1-5 2-1v2c1 2 2 3 5 4 5 2 11-1 10-6l-2-4v2l-1-1 1-2 2-1h1c-1 1 0 3 1 5l1 5 1-2v-5c0-2 1-2 2 0 2 2 5 3 12 4 8 2 13 2 20 0l4-1 1 3c0 4 1 10 3 11v-1c0-3 4-9 8-13 5-4 16-19 15-20l-8 2c-8 3-8 3-8 1v-1l1-3c2-3 3-8 1-10-1-1-1-1-1 2v5l-1 2-2-2c-1-2-2-2-4-2l-4 1h-1c-1 0-2 0-2-3l-1-4-1-1 6-3 1-1-1-1-1-1c2 0-2-6-4-6l-1 4 1 4h-1l-1 3v4a115 115 0 00-4 8l-9-9c-4-5-7-11-8-15l1 3c3 5 8 12 12 14 4 4 4 4 6-7 1-9 1-13-1-21l-1-8 3 6 3 9 8 10-1-13c0-2 0-2 1-1l1 2 4 9c4 9 6 14 5 19v3c2 0 6-3 9-6 2-2 3-4 3-7a103 103 0 00-5-43l6 17c1 9 2 12 5 15l15 10c1 0 4-8 5-14 2-11 2-14-3-22-2-4-5-9-8-11a198 198 0 01-13-18c-3-3-3-4-6-4h-13c-3-1-5-1-8 1l-7 9 1 1c2 1-12 1-17 1-11 0-11 0-14 2l-3 2-2-4c-2-4-3-5-7-5l-5-1c-4-2-9-1-31 4-10 3-13 3-29 5l-11 2 8 12c2 3 4 5 7 6l12 3c7 0 8 0 14-2l10-4a157 157 0 0024-17v2l1 1c-1 0-8 5-11 9-6 7-10 16-12 30-4 20-6 30-9 37-1 2 0 1 5-2l7-6c3-4 4-9 4-12s0-3 1 0l4 7c2 2 3 3 4 2h2l-2 3-3 4v2c1 1 1 4-1 6l-1 2-1-2-3-4-3-3 1 4 1 4-1 5c-1 4-2 8-8 19-4 7-6 15-5 19 0 3 1 3 2 0zm58-42c-1-1 1-1 5-1s6 1 4 2h-3c1-1 1-1-1-1l-3 1-2-1zm-25-9l-2-2c-1-2-1-2-4 0-2 2-2 2-2 0l1-2c0-2 0-2 1-1h5c-5-10-7-16-7-25l1-11c1-2 1-1 1 4 0 8 1 12 3 12 1 1 5-4 9-12 4-7 4-10 4-17 0-6 1-6 2 0l-1 10-3 9c-2 4-2 4 0 5h-1c-2 0-2 1-4 4l-2 4 1-1c0-1 7 1 9 3 4 3 5 10 3 13h-1c1-2 1-3-2-4-2-1-5-1-6 1l-1 1-1-1c-2-1-3-6-3-8 1-2 0-2-2 1l-2 1 3 5a318 318 0 004 10l-1 1c1 2 1 2-2 0zM81 81v-1 1zm31-8h1l-1 1v-1zm3-12c0-1 0-1 0 0v0zm43-32c-4-3-4-3 0-1l3 1 1 1v1l-4-2zm-58-1h2l-1 1-1-1zm48-3s-1 0 0 0h3v1l-3-1zm-4-1h1-1zm50 124l-9-30-2-6V80l-3-2-3-2 1 6c0 6 0 10-4 17-2 5-3 12-2 17 1 4 6 16 9 20l12 18c2 4 2 2 1-6zm-49-9c1-1-1-4-2-3v2l-1 1h-1c0 2 3 2 4 0zm-14 0c0-2-1-2-4-3-2-1-2-1-3 1-1 3-1 3 4 3l3-1zm-7-13l1-4c1-2 1-2-2-3h-4l-1 2 2 4c3 3 3 3 4 1zm6 0l-1-1h-2c0 2 2 2 3 1zm25-48c-1-3-1-3-1-1-1 2 0 4 1 4v-3zm-13-8l-1-3-2-2v2c0 3 1 4 2 4l1-1z"/>
  <path fill="#66495b" d="M130 248l-2-3-2-2-3-4-6-27-1-10h-5c-5 0-7-2-10-4l-3-2-3-2-3-1c-2 0-7-6-8-9 0-3-5-6-6-5s-2 0-4-3c-5-5-8-11-10-20-1-5 1-15 5-21 7-13 9-20 8-26 0-5-1-5-4-3-5 3-11 4-12 3v-2l3-4 7-28 3-15a62 62 0 0110-22l-5 4-16 8c-6 2-8 2-13 2-8 0-12-1-16-4-4-2-10-10-13-15l-2-6 4-1a1528 1528 0 0037-5l27-6 5 1 6 1c4 1 5 2 7 5 2 4 2 4 3 2 3-2 6-2 17-2h12l1-2 9-9 10-1h10c3 0 7 4 13 13l8 10c6 8 12 19 13 22 0 7-4 24-8 28-1 1-1 1-4-2l-4-2-1 16v15l5 14c6 19 8 28 7 36 0 6 0 5-7 20l-4 5-3-2c-2-2-2-2-4-1-4 1-5 1-5-2v-3l-1 1-2 2 1 6 1 5-1 2-2 3-1 2-5 1-4-1-2-1c-1-1-2-1-3 1l-5 2-3 2-2 6-5 26c-1 12-2 12-4 14-3 2-3 2-5 0zm7-10a354 354 0 017-37c0-1 1-2 3-2l5-3 6-2c-1 2-1 2 2 2l3 1c2 1 4 0 5-2l2-3v-3l-1-2v-2l-2-4c-3-3-4-3-5-1s-6 3-11 4c-7 2-7 2-7-4s-1-7-2-6l-2 1 2-2c2-1 2 0 0-7l-2-30v-16c-1-2-1-2-3-1l-4 1c-2 0-2 1 0 4 1 2 2 2 4 2h1l-3 1h-2v7c-1 5 0 7 2 15 4 12 4 13 2 15l-4 4-2 2v2c-1-2-1-2-3-1h-5c-3-2-3-2-4-1l-1 1 1-2-2-3c-2-2-2-2-2-6s5-16 8-24l3-9c-1-1-1 0-2 1s-1 1-4-2l-2-2v3a355 355 0 01-5 31l-2 12 1 5 1 1-2-1-4 4c-1 4-3 5-3 5-2 0-7-2-10-5l-3-3-2 2c-3 2-4 5-2 9l7 4 2 2 2 1c1-1 2 0 3 1l4 3c2 2 3 2 8 2 4 0 6 0 5 1l3 23 3 14 3-1c2 0 2 1 2 2 0 3 1 4 3 4 3 1 4-1 5-5zm-8-23c-1-13-1-15-3-16h-3l-3 1 2-1 3-1h3l4 1c1 0 2 1 1 3l-2 12c0 6-1 11-2 11v-10zm2-13v-2c-1-1-1 0-1 3s1 3 1-1zm11-2h1l-1 1v-1zm17-8l1-1-1 1c-1 0-1 0 0 0zm-27-16l2-1 3 1h-5zm6-1h0c-1 0-1 0 0 0zm49-1c3-3 4-5 3-9 0-4-3-10-5-12-2-1-2-1-3 5l-3 10c-3 7-3 8 5 9l3-3zm-103-1c4-3 3-7-1-13l-4-7c-1-3-2-3-6 1-5 6-6 11-1 18 2 3 8 3 12 1zm45-7c2-2 2-3 0-3l-3-3-2-2-2 2-3 3c0 5 7 7 10 3zm-41-2l-1-7-1-5-4-7c-2-4-2-1-2 4l4 9 4 7c1 3 2 3 0-1zm92-8c1-3 1-10-2-18l-5-12a76 76 0 006 33l1-3zm13-10l-6-20-4-14V95c0-16 0-17-2-17l-3-3-3-3-1 6c-1 8-4 14-7 17l-11 5 1-3c1-4 1-4-1-2l-1 3 1-3c2-3 3-8 1-10-1-1-1-1-1 2v5l-1 2-2-2c-1-2-2-2-4-2l-4 1h-1c-1 0-2 0-2-3l-1-4-1-1 6-3 1-1-1-1-1-1c2 0-2-6-4-6l-1 4 1 4h-1l-1 3v4a115 115 0 00-4 8l-9-9-8-15 2 4c3 5 13 19 15 19l4-13c0-7 0-13-2-21l-1-5 3 13c0 3 1 4 2 3v-3l2 4 6 9c3 5 4 6 4 4 0-3-1-12-3-17l-1-5c1 0 9 21 9 24v11l3-1c9-4 11-10 11-23a81 81 0 00-6-33c1-1 5 11 6 16 1 9 3 12 5 15l15 10c1 0 4-8 5-14 2-11 2-14-3-22-2-4-5-9-8-11a198 198 0 01-13-18c-3-3-3-4-6-4h-13c-3-1-5-1-8 1l-7 9 1 1a154 154 0 01-24 1c-4 0-4 0-7 2l-3 2-2-4c-2-4-3-5-7-5l-5-1c-4-2-9-1-31 4-10 3-13 3-29 5l-11 2 8 12c2 3 4 5 7 6l12 3c7 0 8 0 14-2l10-4a157 157 0 0024-17v2l1 1c-1 0-8 5-11 9-6 7-10 16-12 29a11462 11462 0 00-9 37l-1 3 13-8c4-3 4-3 2 0l-1 4c1 3 2 9 1 12-1 4-2 8-8 19-4 7-6 15-5 19 0 3 2 4 2 2 0-3 3-9 9-14l5-8 1-6 1-6 1-4 2-2v2c1 5 10 6 14 2l1-4-2-4v2l-1-1 1-2 2-1h1c-1 1-1 2 1 9v10l1-3c1-2 2-4 2-9s0-5 1-4c2 2 5 3 12 4 8 2 13 2 20 0l4-1 1 3 2 11 1-2c1-4 4-9 10-13a71 71 0 0014-16v3c-3 7 2 24 11 37l10 17 1 2v-2c1-1 0-6-1-10zm-67-34c-1-1 1-1 5-1s6 1 4 2h-3c1-1 1-1-1-1l-3 1-2-1zm-41-1l1-1c1-1 0-3-2-8l-2-6 2 3 2 4c2 3 2 5 0 7l-1 1zm18-8h-1c-1 1-4-1-4-2 0-2 0-2-3 0-2 2-2 2-2 0l1-3c0-1 0-1 0 0l5 1c4 1 4 1 0-6-4-10-6-17-5-27l1-6v9l1 13 1 3 4-4c7-10 11-24 11-32-1-6 0-6 1 0l-1 10-3 9c-2 4-2 4 0 5h-1l-3 3-2 3 4 2 5 2c4 3 5 10 3 13h-1c1-2 1-3-2-4-2-1-5-1-6 1l-1 1-1-1c-2-1-3-6-3-8 1-2 0-2-2 1l-2 1 3 5a318 318 0 004 10l-1 1v0zm0-23v-1l-1 1v1l1-1zm-15 21c1-2 1-2-2-5l-5-9 2 2c2 4 7 8 8 7l1-1-2 3-2 3zm-7-20v-1 1zm31-8h1l-1 1v-1zm3-12c0-1 0-1 0 0v0zm46-30l-3-3-3-1 3 1 3 1 1 1c1 1 0 2-1 1zm-61-3h2l-1 1-1-1zm48-3s-1 0 0 0h3v1l-3-1zm-4-1h1-1zM97 153l4 1c2 0 2 0 2-2v-3l-2 1-9 3 1 1h1l3-1zm67-11l1-1c0-4-8-21-9-20l-4 10c0 2 0 3 3 8 4 6 5 6 9 3zm-19-3c1-1-1-4-2-3v2l-1 1h-1c0 2 3 2 4 0zm-14 0c0-2-1-2-4-3-2-1-2-1-3 1-1 3-1 3 4 3l3-1zm-7-13l1-4c1-2 1-2-2-3h-4l-1 2 2 4c3 3 3 3 4 1zm6 0l-1-1h-2c0 2 2 2 3 1zm25-48c-1-3-1-3-1-1-1 2 0 4 1 4v-3z"/>
  <path fill="#923035" d="M129 247l-1-2-3-3c-2-2-3-3-4-9a244 244 0 01-5-27v-4h-5c-4 0-8-2-11-5l-3-2-2-1-3-1c-1 0-7-6-7-9l-4-4c-2-2-2-2-3-1s-2 0-5-3c-5-6-9-15-9-23 0-7 3-17 8-24 4-6 7-15 5-21l-1-4-3 1c-4 3-11 5-12 4l1-3c3-4 6-14 9-32s6-25 12-33l1-3-4 3-16 8c-6 2-7 3-15 3s-9-1-12-2c-8-4-21-21-17-23l10-1c17-2 20-3 33-6 24-6 25-6 29-4l5 1c5 1 7 2 8 5l2 3 3-1c3-2 7-3 13-2h14l2-3c2-4 7-9 9-9h14c8 1 8 1 10 3l7 8a300 300 0 0015 21l4 6c3 5 3 9 1 19-1 7-4 15-6 16l-4-2-4-1v33l2 7 5 15c6 19 6 27 1 36a495 495 0 00-7 14l-3-2c-3-2-4-3-7-1-2 2-4 0-3-3v-2l-1 1-2 2 1 4 1 5v4l-3 3c-1 3-2 3-4 3-5 0-7-1-9-2-1-1-1-1-2 1l-5 2c-3 1-3 1-5 7l-4 25c-2 13-2 14-4 16s-5 2-7-1zm3-3h-1v3l1-3zm3-1c1-1 2-1 2-5a323 323 0 017-37c0-1 1-2 3-2l5-3c2-2 7-4 6-2-2 2-1 2 1 2l4 1c2 1 4 0 5-2l2-3c1-1 0-6-1-6v-1l-2-4c-3-3-4-3-5-1-2 2-10 5-16 5-2 0-2-1-3-13l-1-8c-2-9-3-24-1-24v1h4c1-1 1-3-1-6v-3c1-3 0-4-1-4-2 0-2 0-2 5v4l-1-10v-9h-2l-4 1c-3 1-3 1-2 5 2 2 2 2 1 4-2 3-1 11 2 20 4 13 4 14 2 16l-6 5-5 3-3-1-5-4c-3-2-3-3-3-6 0-4 4-15 8-23 3-6 3-7 3-13v-6h1l11-1 5-2 2 5 1 8 2 2 1-3c1-5 3-9 7-11 4-4 8-7 12-13l4-3v14c1 5 5 16 9 21a111 111 0 0114 22c1-2-2-17-8-33l-4-13V95c0-16 0-17-2-18l-4-3-2-2-1 3c-1 14-4 19-14 23l-4 2v-2l2-4v-4 8l3-2c8-4 10-8 11-18l1-7 1-2-3-11 1 3c2 8 3 9 12 15l9 5c2-2 6-17 6-24 0-4-1-5-4-11l-9-13-10-13c-5-8-6-9-16-8l-9-1c-2 0-3 0-5 2-2 1-7 7-8 10l-13 1h-13l-3 1c-1 2-3 2-3 2l-2-4c-2-3-2-4-8-4l-5-2a464 464 0 00-29 5l-26 4-15 2 2 5c3 6 8 12 12 14s13 4 18 3c4 0 15-4 20-6 3-2 16-11 19-15h3c1 1 1 1-3 4-7 5-14 15-16 26l-3 10a147 147 0 01-9 39l14-8 2-2-1 2v15c0 5-1 5-9 21-3 6-5 14-4 19 0 3 1 4 2 0s3-8 9-13c4-5 5-5 5-9l2-7v-5l1-3c1-1 1-1 2 1 2 6 15 5 15-2 0-2 1-2 2 1v12l2-4 1-9v-4l3 1 7 3 3 1a270 270 0 01-5 20 228 228 0 00-4 36l1 1h-1l-4 4c-1 4-3 5-3 5-2 0-7-2-10-5l-3-3-2 2c-3 1-3 3-3 7 1 2 5 6 8 6l2 2 2 1c1-1 2 0 3 1l4 3c2 2 3 2 8 2 4 0 6 0 5 1v8a322 322 0 015 24l1 5h2c3 0 3 0 3 2s0 2 2 3a429 429 0 014 0zm-6-28c-1-13-1-15-3-16h-3l-3 1 2-1 3-1h3l4 1c1 0 2 1 1 2-1 2-2 9-2 19-1 8-2 6-2-5zm2-12v-3h-1v6l1-3zm11-3h1l-1 1v-1zm-10-24l2-1 3 1h-5zm6-1h0c-1 0-1 0 0 0zm2-1h2-2zm-9-1c-1-1-1-1 0 0l1 1-1-1zm-29-60l-2-1h-1l1-1 2 1v1zm24-1c-1-1 1-1 5-1s6 1 4 2h-3c1-1 1-1-1-1l-3 1-2-1zm-41-9c-3-6-3-7 0-1 2 3 3 5 2 6l-2-5zm17 0l-1-1c-1 1-3 0-3-1l-1-1-2 1-2 1v-1l1-3 4 1c5 2 5 2 4-1s-1-3 1 0c2 2 2 4 1 4l-1 1h-1zm-15-7l-5-7 2 3 5 4c2 1 2 1 1 2l-3-2zm27 0c1-2 1-3-2-4-2-1-5-1-6 1l-1 1-1-1c-1 0-2-2-2-6-1-4-2-5-4-1l-1 2-1-3-2-15 1 3 1 9 1 3 3-4 4-4c1-1 0 0 0 0-1 2-1 3 3 4 5 1 8 4 9 8l-1 6-1 2v-1zm-11-16v-1l-1 1v1l1-1zm-4 12l-1-3 2 3c1 4 1 4-1 0zm37 0l1-4h1l-3 6 1-2zm17 0c-1-2-2-2-4-2l-4 1h-3v-5l-1-2-1-1c0-1 3-3 6-3 2-1 2-1 4 3l3 2c1-1-1-11-2-15-1-5-1-5 1 0l3 5 1 4-1-2-1-2v2l1 3 3 3v2c-1-1-1-1-2 3-1 5-1 6-3 4zm-22-1zm7-6l1-2v1c0 2-1 3-1 1zm1-10l1-5h3c1 1 0 1-1 1-2 0-2 1-2 4l1 4-2 1v-5zm7 3l-1-1 1-1v1c2 1 2 2 0 1zm-2-4v-2l1 2v1l-1-1zm-32-1h1l-1 1v-1zm7 0v-1 1c0 1 0 0 0 0zm-12-2l2-4-1 2c-1 2-1 3 1 4h-3zm32-3v-1 1zm-1-6l-1-5 1 3 1 4v1l-1-3zm-44 1l1-1v3l-1-2zm15 2l1-2h1l-1 2h-1zm6-4c0-1 0-1 0 0v0zm-4-1s0-1 0 0v0zm60-6v-1 1zm-59-2v-2l1 1c0 2 0 3-1 1zm56-7v-1 1c0 1 0 0 0 0zm-19 138l1-4c0-4 1-6 4-4l2 2c1 1 2 2 2 0l-4-5c-2-2-5-5-5-7-1-1-1-2-3-2s-2 0-3-2v4a493 493 0 013 16c0 2 1 2 3 2zm-44-4c3-3 6-13 4-15l-3 1-5 6c-5 3-6 6-4 8s6 1 8 0zm83-5c3-4 3-5 3-9l-6-16c-2-1-2 0-2 2l-4 17c-2 5-3 7-2 8l5 1c3 0 4 0 6-3zm-104-1c4-4 4-6-2-14a38 38 0 01-5-11l-6 6c-3 5-3 5-3 9 1 4 3 9 6 11l5 1 5-2zm5-8l-2-8c0-3 0-4-2-6l-3-6c-1-4-2-2-2 3 1 4 1 6 4 10l5 10 1 1-1-4zm40 1c2-2 2-3 0-3l-3-3-2-2-2 2-3 3c0 5 7 7 10 3zm51-8v-1-15l-7-16v14l6 20 1-2zm-82-4l4 1 1-3v-3c-1-1-11 4-10 5v1l1-1h4zm-8-9v-12c-2-4-2-4 0-4l1-2 1-1c2-1 2-2 0-2l-4-2c-3-2-3-1-1 2l1 3c-3 1-4 4-4 11v7h6zm74-1l2-3-5-14-3-5c-1-1-1-2-2-1-1 0-4 6-4 10-1 2-1 3 2 7 3 5 5 7 7 7l3-1zm-50-3l2-13c1-1 0-1-3-1l-5 1 1 2v5 5c2 2 5 3 5 1zm17-2c0-2-1-2-4-3-2-1-2-1-3 1-1 3-1 3 4 3l3-1zm-1-13l-1-1h-2c0 2 2 2 3 1z"/>
  <path fill="#563859" d="M129 247l-1-2-3-3c-2-2-3-3-4-9a244 244 0 01-5-27v-4h-5c-4 0-8-2-11-5l-3-2-2-1-3-1c-1 0-7-6-7-9l-4-4c-2-2-2-2-3-1s-2 0-5-3c-5-6-9-15-9-23 0-7 3-17 8-24 4-6 7-15 5-21l-1-4-3 1c-4 3-11 5-12 4l1-3c3-4 6-14 9-32s6-25 12-33l1-3-4 3-16 8c-6 2-7 3-15 3s-9-1-12-2c-8-4-21-21-17-23l10-1c17-2 20-3 33-6 24-6 25-6 29-4l5 1c5 1 7 2 8 5l2 3 3-1c3-2 7-3 13-2h14l2-3c2-4 7-9 9-9h14c8 1 8 1 10 3l7 8a300 300 0 0015 21l4 6c3 5 3 9 1 19-1 7-4 15-6 16l-4-2-4-1v33l2 7 5 15c6 19 6 27 1 36a495 495 0 00-7 14l-3-2c-3-2-4-3-7-1-2 2-4 0-3-3v-2l-1 1-2 2 1 4 1 5v4l-3 3c-1 3-2 3-4 3-5 0-7-1-9-2-1-1-1-1-2 1l-5 2c-3 1-3 1-5 7l-4 25c-2 13-2 14-4 16s-5 2-7-1zm3-3h-1v3l1-3zm3-1c1-1 2-1 2-5a271 271 0 017-36c0-2 1-2 4-3l5-3c2-2 4-2 4 0l3 1c7 1 8 1 8-2l2-3v-3l-1-3v-2c1-1 0-1-2-4l-4-2-2 2c-2 2-5 3-12 4l-4 1-1-7-2-14c-2-9-3-24-1-24v1h4c1-1 1-3-1-6v-3c1-3 0-4-1-4-2 0-2 0-2 5v4l-1-10-1-9 4-2 2 5 1 8 2 2 1-3c1-5 3-9 7-11 4-4 8-7 12-13l4-3v14c1 5 5 16 9 21a111 111 0 0114 22c1-2-2-17-8-33l-4-13V95c0-16 0-17-2-18l-4-3-2-2-1 3c-1 14-4 19-14 23l-4 2v-2l2-4v-4 8l3-2c8-4 10-8 11-18l1-7 1-2-3-11 1 3c2 8 3 9 12 15l9 5c2-2 6-17 6-24 0-4-1-5-4-11l-9-13-10-13c-5-8-6-9-16-8l-9-1c-2 0-3 0-5 2-2 1-7 7-8 10l-13 1h-13l-3 1c-1 2-3 2-3 2l-2-4c-2-3-2-4-8-4l-5-2a464 464 0 00-29 5l-26 4-15 2 2 5c3 6 8 12 12 14s13 4 18 3c4 0 15-4 20-6 3-2 16-11 19-15h3c1 1 1 1-3 4-7 5-14 15-16 26l-3 10a147 147 0 01-9 39l14-8 2-2-1 2v15c0 5-1 5-9 21-3 6-5 14-4 19 0 3 1 4 2 0s3-8 9-13c4-5 5-5 5-9l2-7v-5l1-3c1-1 1-1 2 1 2 6 15 5 15-2 0-2 1-2 2 1v12l2-4 1-9v-4l2 1 6 2 4 2-1 3-2 12-4 31c-1 8-2 10-4 14-4 7-4 7-9 4l-6-4-2-2-2 1-3 3c-2 4 2 10 7 11l3 2 2 1 3 2c4 4 7 5 13 5h3l1 5a335 335 0 015 27l1 5h2c3 0 3 0 3 2s0 2 2 3a429 429 0 014 0zm-5-22a467 467 0 01-1-22l1-1 2 1v5a247 247 0 00-2 17zm1-18v-3h-1v6l1-3zm-8-33h1c2 1 2 1 5-1l5-4c4-3 4-4 1-14l-3-9c1-1 4 10 6 16l-1 6-11 7-3-1zm-5-3l-3-3 3 2c3 3 3 3 0 1zm-3-7c1-4 1-4 1 0l-1 2v-2zm1-5h1l-1 1v-1zm3-8v-2h1l-1 2zm7-18v-3c0-2 0-2 1 0 1 3 3 3 5 1l2-1-1 1-1 2-2 1h-3l-1-1zm5-7c-2-2-4-2-5-1 0 1 0 1 0 0l-1-2h3c2 0 3 1 4 3v2l-1-2zm2-3h1-1zm-32-6v-2l1 1c1 3 0 3-1 1zm29-2h1-1zm-45-8c-3-6-3-7 0-1 2 3 3 5 2 6l-2-5zm14-2l-2-1h-3c0-1 0-2 4-1 5 2 5 2 4-1l-1-2 2 2v5l-1-1h-2l-1-1zm-12-5l-5-7 2 3 5 4c2 1 2 1 1 2l-3-2zm12-4l-1-3 2 3c1 4 1 4-1 0zm16 0l-6-3-5 2-2 1v-2l-1-4c0-3-1-4-3 0l-1 2-1-3-2-15 1 3 1 9 1 3 2-2 2-3 4 1c5 0 8 2 10 4l1 8-1-1zm39-2c-2-2-3-2-5-2l-5 1c-2 2-2 1-2-2l-1-3-1-1c0-1 3-3 6-3 2 0 3 0 5 3l2 3v-5-2l3 2 2 2v2c-1-1-1-1-2 3l-1 4-1-2zm-23 0l-2-2 2 2 1 1-1-1zm-4-4l-1-2 1 2 2 1-2-1zm11-1l1-1v1h-1zm-14-3c-1-1-1-1 0 0l1 1-1-1zm-22-3l1-1c1-1 1-1 0 0l-1 1zm44-2h1v1l-1-1zm6-2l1-1v2l-1-1zm-13-2l1-1v2l-1-1zm13-1zm-13-4v-1 1zm-45-5l1-1v3l-1-2zm43-2c-1-5 0-5 1-1l1 4-2-3zm34-7v-1 1zm-59-2v-2l1 1c0 2 0 3-1 1zm56-7v-1 1c0 1 0 0 0 0zm-19 138l1-4c0-4 1-6 4-4l2 2c1 1 2 2 2 0l-4-5c-2-2-5-5-5-7-1-1-1-2-3-2s-2 0-3-2v4a493 493 0 013 16c0 2 1 2 3 2zm-44-4c3-3 6-13 4-15l-3 1-5 6c-5 3-6 6-4 8s6 1 8 0zm83-5c3-4 3-5 3-9l-6-16c-2-1-2 0-2 2l-4 17c-2 5-3 7-2 8l5 1c3 0 4 0 6-3zm-104-1c4-4 4-6-2-14a38 38 0 01-5-11l-6 6c-3 5-3 5-3 9 1 4 3 9 6 11l5 1 5-2zm5-8l-2-8c0-3 0-4-2-6l-3-6c-1-4-2-2-2 3 1 4 1 6 4 10l5 10 1 1-1-4zm91-7v-1-15l-7-16v14l6 20 1-2zm-82-4l4 1 1-3v-3c-1-1-11 4-10 5v1l1-1h4zm-8-9v-12c-2-4-2-4 0-4l1-2 1-1c2-1 2-2 0-2l-4-2c-3-2-3-1-1 2l1 3c-3 1-4 4-4 11v7h6zm74-1l2-3-5-14-3-5c-1-1-1-2-2-1-1 0-4 6-4 10-1 2-1 3 2 7 3 5 5 7 7 7l3-1zm-50-3l2-13c1-1 0-1-3-1l-5 1 1 2v5 5c2 2 5 3 5 1z"/>
  <path fill="#382751" d="M129 247l-1-2-3-3c-3-3-4-7-7-24-2-15-2-16-4-16-7 0-8-1-12-4l-5-3-2-1-3-1c-1 0-7-6-7-9l-4-4c-2-2-2-2-3-1s-2 0-5-3c-4-5-6-8-8-15-2-8-1-17 5-27 7-14 9-19 7-26l-1-4-4 2c-4 2-10 4-11 3l2-4c3-4 5-12 9-34 3-16 5-23 11-30l2-3-6 3c-5 5-7 5-17 9-7 2-7 2-15 2l-11-3-8-6-9-15 8-2c20-2 25-3 36-6 23-5 25-6 28-4l6 1c4 1 7 2 8 6l2 2 3-2 18-1 10-1 8-10 5-1h11c9 1 9 0 16 11a356 356 0 0019 25c4 7 4 10 2 22-2 8-3 12-6 14-1 1-1 1-4-1l-4-3v6l-1 17 1 12 4 11c6 19 8 28 7 36 0 5-1 7-3 11l-4 8c-3 6-3 6-6 4s-4-3-7-1c-2 2-4 0-3-3 1-2 0-3-2-1v6l1 4-1 4-2 4c-2 3-3 4-7 3l-4-1-1-1h-3l-5 3c-3 1-4 3-5 8a342 342 0 00-7 38c-2 4-6 4-8 1zm3-2l-1-1c-1 0-2 0-1 2 1 1 2 1 2-1zm3-2c2-1 2-2 3-9a229 229 0 016-32c0-2 1-2 4-3l5-3c2-2 4-2 4 0l3 1c7 1 8 1 8-2l2-3v-3l-1-3v-2c1-1 0-1-2-4l-4-2-2 2c-2 2-5 3-12 4l-4 1-1-5a468 468 0 001 0v4l3-1 4-1 2-2c2 0 4-2 4-3l-3-4-4-7c-2-3-2-4-4-4-3 0-3 0-4-2l-1-3v4a296 296 0 00-1-20c1 3 1 3 3 1s2-4 0-7v-3c2-3 1-4-1-5h-3l1 6v4l-1-10-1-9 4-2 1 4 4 11c1 1 1 1 1-2 0-4 5-11 11-16l6-6 4-5 1 6c0 7 1 11 6 21l3 8 1 4c3 7 1 16-4 32l-2 7 3-1c2-1 2-1 4 1l2 2a162 162 0 016-11c3-3 3-5 3-8 0-4 0-6-2-10l-1-4 3 6c1 3 1 4 2 3 1-2-3-21-10-39l-2-7V76l-4-2c-3-3-6-5-6-7l2 2c1 2 16 12 17 12 3-1 7-16 7-24 0-4-1-5-4-11l-10-14-9-13c-5-7-7-8-15-7l-10-1c-4-1-8 3-12 10l-1 2h-18c-2-1-8 1-11 3l-3 1-2-4c-2-3-2-4-7-4l-6-2a497 497 0 00-29 4 260 260 0 01-42 7c0 2 5 9 8 13s5 5 9 7 4 2 12 2 9 0 22-5c3-1 17-11 21-16h3c1 1 1 1-3 4-7 5-14 16-17 28l-3 16-7 28-2 3 2-1c3 0 7-3 11-6l2-1 1 7v9c-1 4-1 5-9 20-3 6-5 14-4 19 0 4 2 5 2 2s3-9 8-15c5-5 6-5 6-9l2-7v-5l1-3 2-2v3l3 3c4 2 11 0 12-3s3 2 2 7v5l2-4 1-9 1-5 2 1 5 2 4 2-1 3-2 15-4 23c-1 13-1 14-4 19-4 7-4 7-9 4l-6-4-2-2-2 1-3 3c-2 4 2 10 7 11l3 2 2 1 3 2c4 4 7 5 13 5l3 1 1 7a154 154 0 014 23l2 6h2c3 0 4 0 3 2-1 1 0 3 4 4l2-1zm-5-22a467 467 0 01-1-22l1-1 2 1v5a247 247 0 00-2 17zm1-18c1-3 0-5-1-3v6l1-3zm-8-33h1c2 1 2 1 5-1l5-4c4-3 4-4 1-14l-3-9c1-1 4 10 6 16l-1 6-11 7-3-1zm-6-4l-2-2c1-1 2 0 3 2 2 2 2 3-1 0zm-2-6c1-4 1-4 1 0l-1 2v-2zm1-5h1l-1 1v-1zm3-8v-2h1l-1 2zm66-3l-3-6 3 4 3 5-3-3zm-59-15v-3c0-2 0-2 1 0 1 3 3 3 5 1l2-1-1 1-1 2-2 1h-3l-1-1zm5-7c-2-2-4-2-5-1 0 1 0 1 0 0l-1-2h3c2 0 3 1 4 3v2l-1-2zm2-3h1-1zm-3-8h1-1zm-43-5l-2-2c0-2 0-2 1-1l2 4-1-1zm11-6h5l-1-2-1-2 3 5c-3 1-5 0-6-1zm-4-1l3 1h-2l-1-1zm62 0l1-1c0 1 7-3 10-6 2-1 4-5 5-10 1-3 1-3 1-1 0 3-2 8-4 11-1 2-6 5-11 7h-2zm-67-1l-2-2-3-4-1-2 1 2 4 4 2 2h-1zm26-6l1-1v2l-1-1zm-13-3l-1-5c1-2-1-1-2 1l-2 2-2-8 1 3 1 4 2-3c2-3 2-3 5-3l10 4 1 5c-2-1-4-2-4 0h-1l-4-1c-3 0-3 1-3 2 0 3 0 2-1-1zm53 1c0-1 0-2-1-1l-2-1c0-2-2-2-3 0h-1c0-1-3-2-4-1l-1 2c-1 1-1 0-1-2l-1-3-1-1c0-1 3-3 6-3 2 0 3 0 4 3 3 5 4 5 3-1v-3c1 1 1 2 3 2 1-1 2 1 2 3h-1l-1 2v5c-1 1-1 1-1-1zm-9-13h1v1l-1-1zm27-1s0-1 0 0v0zm-21-1l1-1v2l-1-1zm-13-2l1-1v2l-1-1zm13-2v-1l1 3-1-2zm21-6c0-1 0-1 0 0v0zm-35-2v-1l1 1c0 1 0 2-1 0zm34-1s0-1 0 0v0zm-1-3l1-1v2l-1-1zm-45 179l-1 2h1v-2zm-23-58c4-2 7-9 7-15l-1-2-2 1-5 4c-5 4-6 5-7 8l1 4h7zm-16-7c1-5 0-8-4-14s-5-11-5-15v-2l-7 9c-2 2-2 4-3 8 0 6 2 11 6 15 2 2 3 3 4 2l1-1 3 3 3 2 1-1 1-6zm88-3c2-4 2-8 0-15-3-10-4-17-4-27l-2-14-1-5-1 2-2 6v11l2 10c4 7 6 29 4 36v2l1-2 3-4zm-86-5l-2-8c0-3 0-4-2-7l-3-5c-1-3-1-3-2-2-1 2 0 9 2 12a59543 59543 0 017 10zm4 1c0-6-1-12-3-12v10c2 3 3 4 3 2zm87-8v-1-15l-7-16c-2 0 0 18 3 26l2 5c0 3 2 4 2 1zm-83-4l5 1c2 0 2 0 2-2 0-3-1-5-2-5l-10 6c0 1 1 2 2 0h3zm67-3h4c2-4-1-13-6-22l-4-9-1-3-3 2c-3 4-5 8-4 12l3 7 7 13v3l2-1 2-2zm-74-5v-13c-2-3-2-4 0-4l1-1 2-2c2-1 2-2 0-2l-5-2c-2-2-3-2-3-1l2 3 1 2-2 2-2 4v13c1 2 1 2 3 2l3-1zm24-4l3-15h-9l1 3v4c-1 3-1 6 1 7 1 2 3 2 4 1z"/>
  <path fill="#4e2932" d="M129 247l-1-2-3-3c-3-3-4-7-7-24-2-15-2-16-4-16-7 0-8-1-12-4l-5-3-2-1-3-1c-1 0-7-6-7-9l-4-4c-2-2-2-2-3-1s-2 0-5-3c-4-5-6-8-8-15-2-8-1-17 5-27 7-14 9-19 7-26l-1-4-4 2c-4 2-10 4-11 3l2-4c3-4 5-12 9-34 3-16 5-23 11-30l2-3-6 3c-5 5-7 5-17 9-7 2-7 2-15 2l-11-3-8-6-9-15 8-2c20-2 25-3 36-6 23-5 25-6 28-4l6 1c4 1 7 2 8 6l2 2 3-2 18-1 10-1 8-10 5-1h11c9 1 9 0 16 11a356 356 0 0019 25c4 7 4 10 2 22-2 8-3 12-6 14-1 1-1 1-4-1l-4-3v6l-1 17 1 12 4 11c6 19 8 28 7 36 0 5-1 7-3 11l-4 8c-3 6-3 6-6 4s-4-3-7-1c-2 2-4 0-3-3 1-2 0-3-2-1v6l1 4-1 4-2 4c-2 3-3 4-7 3l-4-1-1-1h-3l-5 3c-3 1-4 3-5 8a342 342 0 00-7 38c-2 4-6 4-8 1zm3-2l-1-1c-1 0-2 0-1 2 1 1 2 1 2-1zm3-2c2-1 2-2 3-9a229 229 0 016-32c0-2 1-2 4-3l5-3c2-2 4-2 4 0l3 1c7 1 8 1 8-2l2-3v-3l-1-3v-2c1-1 0-1-2-4l-4-2-2 2c-2 2-5 3-12 4l-4 1-1-5a468 468 0 001 0v4l3-1 4-1 2-2c2 0 4-2 4-3l-3-4-4-7c-2-3-2-4-4-4-3 0-3 0-4-2l-1-3v4a296 296 0 00-1-20c1 3 1 3 3 1s2-4 0-7v-3c2-3 1-4-1-5h-3l1 6v4l-1-10-1-9 4-2 1 4 4 11c1 1 1 1 1-2 0-2 0-2 1 1 0 3 1 5 3 8 1 2 3 4 2 5l3 13-1-10-1-3c1-1 3 6 3 9l1 2 3-2 2-2 1 2 2 1v-2l1-6-9-21-2-5c0-3-1-3-3 0-2 1-1 0 1-2a235 235 0 007-6l-5 7 6 12c2 3 5 10 5 14 1 3 0 10-1 10l-2-1c-1-1-1-1-4 1l-4 2c-1 0 4 13 6 15h2c1-1 2 0 3 3l1 3 5-6c2-4 3-9 0-15-3-9-4-16-4-29a153 153 0 00-1-24v4c1 6 2 12 6 21a37 37 0 014 11l2 10c0 6-1 12-5 25l-3 7 3-1c3-2 3-1 6 1l2 2 2-3a508 508 0 016-17l1-4 1-1c1-3-4-22-10-39l-2-7V75l4 3 5 3c3-1 7-16 7-24 0-4-1-5-4-11l-10-14-9-13c-5-7-7-8-15-7l-10-1c-4-1-8 3-12 10l-1 2h-18c-2-1-8 1-11 3l-3 1-2-4c-2-3-2-4-7-4l-6-2a497 497 0 00-29 4 260 260 0 01-42 7c0 2 5 9 8 13s5 5 9 7 4 2 12 2 9 0 22-5c3-1 17-11 21-16h3c1 1 1 1-3 4-7 5-14 16-17 28l-3 16-7 28-2 3 2-1c2 0 10-4 12-7h1v4l1 8c0 8 1 6-9 24-4 9-5 17-3 24l2 7 4 7c4 3 5 3 5 2l3 1 3 3 2 1v3c1 3 4 6 7 7l3 2 2 1 3 2c4 4 7 5 13 5l3 1 1 7a154 154 0 014 23l2 6h2c3 0 4 0 3 2-1 1 0 3 4 4l2-1zm-5-22a467 467 0 01-1-22l1-1 2 1v5a247 247 0 00-2 17zm1-18c1-3 0-5-1-3v6l1-3zm-32-21l-6-4c-2-2-3-2-6 0l-1 1c3-7 2-11-2-18-5-7-6-10-6-15v-5l-3 4-3 3c0-1 2-4 5-6 4-4 5-5 5-7l1-6 1-7 1-4c1-1 2-1 2 1 1 5 13 5 15 0 1-2 1-2 2 1v11l2-4 1-9 1-5 2 1 5 2 4 2-1 3-2 15-4 23c-1 13-1 14-4 18l-4 7-5-2zm4-2c4-2 7-9 7-15l-1-2-2 1-5 4c-5 4-6 5-7 8l1 4h7zm-14-15l-2-8c0-3 0-4-2-7l-3-5c-1-3-1-3-2-2-1 2 0 9 2 12a59543 59543 0 017 10zm14-6c4-3 5-4 5-10v-5l-3 1-2 2 1 3 1 4c0 2-3 3-7 1-3-1-3-1-4 2l-1-1c-1 0-1 0 0 0l1-1c1-2 2-2 3-1l4 1h3v-3l-1-4-6 2-7 4-1 4 1 7 2 3 3-3 8-6zm-13-13v-13c-2-3-2-4 0-4l1-1 2-2c2-1 2-2 0-2l-5-2c-2-2-3-2-3-1l2 3 1 2-2 2-2 4v13c1 2 1 2 3 2l3-1zm24-4l3-15h-9l1 3v4c-1 3-1 6 1 7 1 2 3 2 4 1zm-1-25l-2-1c-2-1-2 0-2 1 0 2 0 2 2 1l2-1zm10 53h1c2 1 2 1 5-1l5-4c4-3 4-4 1-14l-3-9c1-1 4 10 6 16l-1 6-11 7-3-1zm-6-4l-2-2c1-1 2 0 3 2 2 2 2 3-1 0zm-2-6c1-4 1-4 1 0l-1 2v-2zm-47-3v-1 1zm124-1c0-2 0-2 1-1v2l-1-1zm-76-1h1l-1 1v-1zm75-3v-1l1 2c0 1-1 1-1-1zm-72-5v-2h1l-1 2zm68-2l-2-2 2 1v1zm-3-4c-1-1-1-1 0 0l1 1-1-1zm-58-12v-3c0-2 0-2 1 0 1 3 3 3 5 1l2-1-1 1-1 2-2 1h-3l-1-1zm5-7c-2-2-4-2-5-1 0 1 0 1 0 0l-1-2h3c2 0 3 1 4 3v2l-1-2zm2-3h1-1zm-3-8h1-1zm-44-6v-1l2 3-2-2zm12-5h1l1 1c-1 1-1 0-2-1zm3 1h0zm-7-1l1-1h1l-1 1h-1zm62-1h1v1l-1-1zm4-1l3-2 2-1-5 3zm-75-4l-1-2 2 1 1 3-2-2zm82-1l3-4 1-2c0 1-2 6-4 7v-1zm-52-1l1-1v2l-1-1zm-13-3l-1-5c1-2-1-1-2 1l-2 2 2-4 2-3 4 1c4 0 7 1 9 4 2 2 2 5 1 4-2-1-4-2-4 0h-1l-4-1c-3 0-3 1-3 2 0 3 0 2-1-1zm53 1c0-1 0-2-1-1l-2-1c0-2-2-2-3 0h-1c0-1-3-2-4-1l-1 2c-1 1-1 0-1-2l-1-3-1-1c0-1 3-3 6-3 2 0 3 0 4 3 3 5 4 5 3-1v-3c1 1 1 2 3 2 1-1 2 1 2 3h-1l-1 2v5c-1 1-1 1-1-1zm16-5h1v1l-1-1zm1-3v-1 1c0 1 0 0 0 0zm-26-5h1v1l-1-1zm6-2l1-1v2l-1-1zm-13-2l1-1v2l-1-1zm13-2v-1l1 3-1-2zm-14-8v-1l1 1c0 1 0 2-1 0zm-12 175l-1 2h1v-2zm54-80v-1-15l-7-16c-2 0 0 18 3 26l2 5c0 3 2 4 2 1z"/>
  <path fill="#321929" d="M130 248l-2-3-3-4c-2-2-3-3-4-7l-1-7-3-21-1-4h-3c-4 0-8-1-11-4-2-2-3-3-5-3l-2-1-2-1c-2 0-7-6-8-9s-5-6-7-5c-1 1-7-6-10-10-6-12-5-24 3-37 5-9 8-17 7-24-1-4-2-5-5-3-4 3-10 4-11 4v-3l2-3 6-20 5-27 8-16 3-3-6 3c-6 5-8 6-17 9-6 2-7 3-14 3l-13-3c-5-3-11-10-15-16-2-4-2-5-1-5l17-3 24-4c20-5 28-6 32-4l5 1c3 0 5 1 7 5l2 3 2-2c3-2 4-2 9-2h19l3-4 6-6 6-2h9l10 2 8 9 9 13c7 8 12 17 12 21 1 5-2 18-5 24-2 5-3 5-6 2l-4-3v3l-1 18 1 15 2 7 9 29c1 8 0 15-3 21a212 212 0 00-8 13l-3-2-2-2-3 1c-3 2-4 1-4-2 1-2 0-3-2-1v14l-1 2c0 2-3 5-5 5l-8-2c-1-1-2-1-4 1l-4 2c-3 1-3 2-4 4l-6 28-3 14c-2 4-4 4-6 2zm4-3l1-2c1-1 2-3 3-10l5-28c2-4 2-5 4-5l7-4c0-2 3-2 3 0l2 1 5 1c2 0 3 0 4-2l2-4 1-3-1-4-2-4c-5-4-5-4-6-2l-7 4v-1l3-1 2-1-1-4-2-6-5-9c-3-8-3-8-5-8l-4 1-2 1v-5-6c1 1 4-2 5-4l-1-4v-4-5c-1-2-1-3-3-3l-2 2v-3c0-5 0-6 2-6 2-1 2-1 2 2 0 4 2 9 3 11l2 2v-3c0-2 0-2 1 1 0 3 1 5 3 8 1 2 3 4 2 5l3 13-1-10-1-3c1-1 3 6 3 9l1 2 3-2 2-2 1 2 2 1v-2l1-6-9-21-2-5c0-3-1-3-3 0-2 1-1 0 1-2a235 235 0 007-6l-5 7 6 12c2 3 5 10 5 14 1 3 0 10-1 10l-2-1c-1-1-1-1-4 1l-4 2c-1 0 4 13 6 15h2c1-1 2 0 3 3l1 3 5-6c2-4 3-9 0-15-3-9-4-16-4-29a153 153 0 00-1-24v4c1 6 2 13 6 20 3 8 6 15 6 21 0 5-1 12-5 24l-3 9 3-1c3-2 3-1 6 1l2 2 1-3 4-8 4-8 1-4c2-1-4-29-10-43-2-3-2-4-2-22V76l5 3 4 3c2-1 4-8 6-15 2-11 2-14-4-23l-8-11a394 394 0 01-17-21h-6l-11-1c-5 0-9 2-13 9l-1 3h-18c-2-1-9 1-11 3l-3 1-2-4c-1-3-1-3-4-4h-4l-3-1-5-2-27 6-25 4-15 2c-1 1 3 8 7 13 4 6 9 8 16 9s11 1 20-2c9-4 11-4 21-12l10-7c2 0 0 1-3 3-6 5-14 16-17 27l-3 17c-3 16-5 25-8 29l-1 3h2l11-7 2-1v6c2 8 0 17-5 25-4 5-5 8-7 15-1 7-1 10 1 14l1 4c0 3 3 8 6 10 3 3 4 3 4 2l3 1 3 3 2 3c0 4 4 8 7 8l3 2 1 1c2 0 3 1 5 3 3 3 6 4 11 4h4l1 5 2 13c1 11 3 17 4 20 2 2 3 2 3 0l1-1c1-1 1 0 1 1v3l1 2c0 3 0 3 2 3s2-1 2-2zm-4-27l-1-11c-1-8 0-9 2-8 2 0 2 1 1 4l-1 12-1 8zm1-15v-3c-1-1-2 0-1 4 0 3 1 3 1-1zm-29-20l-2-1 2 1c2 0 2 0 5-4l2-4-5 9-2-1zm45 1h1-1zm5-1h2l-1 1-1-1zm-59-6l-2-2-2 2h-2v-8l-4-11c-3-3-5-8-5-13v-4l-3 3 2-2c4-4 5-6 5-8v2c1 6 2 10 4 13l4 3 3-2c3-3 3-3 4-8 2-6 1-10-2-11l-1-1 7-4c2-2 1-3-4-3h-5c4 0 9-1 10-3s2-1 2 5v6l2-4 1-9c1-5 1-5 2-4l5 2 4 2v6h-5c-5 0-5 0-6 2l1 4c2 2 2 3 1 5-1 3-1 6 1 8 2 3 3 3 3 1l1-1-1 5a586 586 0 00-3 23l-1-14c-1-1-18 13-18 16l2 4c2 2 2 3 0 0zm-4-13l-2-7c0-3 0-4-2-6l-4-9-1-1v6c0 5 1 6 3 10l6 11 1 2-1-6zm14-5c4-3 5-4 5-10v-5l-3 1-2 2 1 3 1 4c0 2-3 3-7 1-3-1-3-1-4 2l-1-1c-1 0-1 0 0 0l1-1c1-2 2-2 3-1l4 1h3v-3l-1-4-6 2-7 4-1 4 1 7 2 3 3-3 8-6zm10-42l-2-1c-2-1-2 0-2 1 0 2 0 2 2 1l2-1zm-45 40v-1 1zm124-1c0-2 0-2 1-1v2l-1-1zm-1-4v-1l1 2c0 1-1 1-1-1zm-5-8l-1-1 1 1 1 1-1-1zm-2-3c-1-1-1-1 0 0l1 1-1-1zM83 131v-1 1zm0-3l1-2h1l-1 2h-1zm1-8s0-1 0 0v0zm3 0l-1-1 1 1 1 2-1-2zm42 0h0c-1 0-1 0 0 0zm-44-2h1c1 0 0 0 0 0h-1zm16-17v-1l1 1h-1zm59-3l3-2 2-1-5 3zm-75-4l-1-2 2 1 1 3-2-2zm82-1l3-4 1-2c0 1-2 6-4 7v-1zm-65-7c0-4-1-4-3-2v-1c2-2 5-3 9-2l7 5-2-1-8-2c-2 0-2 0-3 4v-1zm51 2l1-2c0-2 0-1 0 0v2h-1zm3-1l-1-3c-2-3-2-4 0-3 2 0 3 1 3 3h-1c-1-2-1-1-1 1v2zm-14-2l-1-2v-1c2-1 7-2 8-1l-3 1c-3 0-3 1-3 2l-1 1zm29 0h1v1l-1-1zm1-3v-1 1c0 1 0 0 0 0zm8 75c2-6 0-18-5-28l-2-4v2l-1 7a117 117 0 006 25c0 2 1 1 2-2z"/>
  <path fill="#2f131a" d="M130 248l-2-3-1-2-2-2c-2-2-4-8-6-20l-2-14-1-5h-4c-5-1-8-2-11-5l-3-2-3-1-3-2-3-2h1l2 1 3 1 3 2 4 3c4 3 5 4 10 4h5v4a626 626 0 018 34c2 3 3 3 3 0v-1l1 2v2l1 2c0 3 1 4 3 3 1 0 3-2 2-3l1-2 2-6c0-7 4-25 5-31 2-5 2-5 5-6l5-3c2-2 3-2 4 0l3 1 3 1h-2l-4-1-3-1c-3 3-5 4-7 4l-2 5c-2 6-6 22-6 28-1 8-2 12-4 14-2 3-3 3-5 1zm0-32l-1-15 1 5c0 4 1 3 1-2v-5l-1-1 1 1c2 1 2 1 0 10a14319 14319 0 00-1 7zm36-18l2-2 2-3 1-4-1-4-2-4c-4-4-5-4-6-2l-2 2v-2c0-4-10-27-12-27l-4 1h-3v-4c0-3 0-4 2-5 3-2 4-5 2-8v-4l1-2 2 2c3 3 6 8 7 12l1 8a5831 5831 0 018 19c1 2 1 2 2 1s2-1 3 3l1 3 2-3 4-5a534 534 0 012-6l-1-4-2-7a78 78 0 01-4-31l1-4 10 28-1 11-4 15-3 9 3-1 3-1 2 2 3 2 2-4 4-7 3-7 1-4c2-2-1-17-8-37l-4-14V93l1-17 4 3 5 3c2-2 7-20 6-26 0-4-1-6-5-12l-8-11-7-10c-6-9-9-11-12-12h-7l-5 1c-1-1 1-1 5-1 10-1 11-1 22 16a196 196 0 0012 15l3 6c3 4 4 10 3 15l-2 8c-1 4-3 10-5 11-1 1-2 1-5-1l-3-3-1 11c0 13 0 24 2 28 5 12 11 38 10 41v5l-3 7-8 14-3-2-3-2-2 1-3 1-1-3c1-4 1-4-1-2l-2 1v3l1 4 1 4-1 4-3 4-2 2v-1zm14-38v-16a96 96 0 00-6-17l-1-3v3 10l4 20 1 4c0 3 1 2 2-1zm-94 27l-2-4c0-2-4-5-6-5-2 1-8-6-10-10l-4-18c2-6 3-11 6-16 7-12 9-19 8-25-2-7-1-6-3-5a38 38 0 01-12 5l4-2 7-4h3l1 5c2 7 0 14-7 26l-4 9-2 6 2 11v1l4 11c3 3 6 6 7 5l4 2 3 3 2 5 1 2-2-2zm71-5l1-1 1 1h-2zm-69-6c1-5-1-10-7-20-2-4-2-4-2-10l1-7 2-3 1 4c0 5 2 9 5 11l1 2c-2 1 0 12 3 15l3-3 7-5c5-4 7-6 6-12v-5l-2 2-15 8 1-1c3-3 5-5 6-9s0-8-1-11l2-4 3-5h-5l4-3h3v6c-1 6 0 7 1 2l1-2 2 3 1 6c-2 3-1 7 2 10l2 2v6a341 341 0 00-3 12v-8c-1-1-1-1-8 4-6 5-11 10-11 12l2 3v1c-2-2-2-2-4 0l-2 1zm2-1l-1-1v2l1-1zm0-5c1-1 0-3-1-5l-1-7-2-7c-3-3-5-8-5-10 0-3-1-1-1 2-1 5 0 10 3 14l6 12c0 3 1 3 1 1zm68-15h1v1l-1-1zm8-3l-2-2 2 2 2 2-2-2zm-26-26v-1 1zm0-5c0-4 0-4 3-4l1 3v4h-2c-2 0-2 0-2-3zm-33 1l1-2 1-1 3-1 2-1-3-1c-4-1-4-1-3-2h1l6 3 3 1v5h-6l-5-1zm22-2h0c-1 0-1 0 0 0zm-66-15c2-3 5-14 7-23l6-29 8-13-2 4c-5 7-7 13-11 35-2 15-6 26-9 28l1-2zm49-21c-3-2-8-2-10 0 0 1 0 1 0 0s-1-2-2-1l1-1 2-1c3-1 7 1 10 3 2 2 2 2-1 0zm42-1v-2c0-1 2 0 3 2 1 1 1 1 0 0h-3zm-13-1c2-1 7-2 8-1h-2l-4 1-2 1v-1zM43 51c-4 0-9-3-12-5-4-4-13-18-12-18l3 4 5 8c5 7 10 9 18 11 7 0 10 0 20-4 9-3 9-3 20-11l10-7v2l-1-1h-1l-1 2h-1l-1 1-2 2-8 5-13 8c-12 4-15 4-24 3zm43-13l1-2-1 2-1 1 1-1zM21 27l15-2 26-4 25-5 5 1 7 1c3 1 4 1 5 4l3 4 2-1c2-2 6-3 17-3h11l2-3 8-8-1 1-6 7-3 4h-7a110 110 0 01-13 0c-4 0-6 1-9 3l-1 1-2-3-2-4-5-1-8-2c-3-1-8 0-21 3a232 232 0 01-48 7zm128-17l5 1h-3c-2 0-3 0-2-1z"/>
  <path fill="#fff" d="M131 242h-1v-2a43 43 0 011-7h1l2 1-1 2v5l-1 1h-1zM125 237l-2-6-1-4h3v1a69 69 0 010 9z"/>
  <path fill="#fff" d="M132 241h1a55 55 0 001-5 60 60 0 01-2 5zM131 242h-1a3 3 0 010-1v1a3 3 0 001 0h1v-1 1h-1zM130 241v-4a58 58 0 000 4zM130 236a105 105 0 011-3h2v1l1 1v1a11 11 0 000-2h-1l-1-1h-1l-1 3zM130 237v-1 1zM125 236zM125 237a3 3 0 010-1v0a27 27 0 001-3l-1 4zM126 231l-1-3v-1h-1a4 4 0 011 0l1 2v3zM126 233v-1a82 82 0 010 1zM123 231a19 19 0 01-1-4l1-1h1v1l-1-1-1 1v1a29 29 0 001 3zM123 231zM163 193v-1l1-1v1c1 0 0 0 0 0v1h-1z"/>
  <path fill="#fff" d="M163 193a1 1 0 010-1l1-1 1 1-1 1a3 3 0 01-1 0zm1 0v-1-1l-1 1v1h1zM121 139l-2-2v-2l1-1 2-1 1 1v2l-2 3zM135 140v-3-3h1l1-1h2v4l-1 2-3 1z"/>
  <path fill="#fff" d="M119 136v-1-1l2-1h2v2a3 3 0 000-1l-1-1h-1l-1 1-1 1a5 5 0 000 1zM121 139a18 18 0 002-3 16 16 0 01-2 3zM121 139h-1l-1-2v-1 1l1 2h1zM135 139v-3-2h1a14 14 0 002-1h1-1a17 17 0 01-3 1v2a18 18 0 000 3zM138 139a7 7 0 001-1v-1-1-2a1 1 0 000-1v2a8 8 0 010 1v2a7 7 0 01-1 1zM135 140v-1 1h2l1-1-2 1h-1zM129 110l-9-2-1-2-1-6 6-2 6-1c5 0 6 1 7 2l1 3a4686 4686 0 01-1 5c-1 2-2 2-5 3h-3zM91 122l-3-3-1-6 1 1 5 1c2 1 2 1 2 3v1c-1 2-2 3-4 3zM144 47l-2-2v-2l2-1c2 0 3 1 3 3l-2 2h-1zM83 46v-1l1-2 2-2 2-1 1 3-4 3h-2zM183 69l-8-9-5-15a126 126 0 00-9-21l-5-5-7-5c-1-1-3 1-6 3l-2 2 2-2 5-4 4-1a77 77 0 017 3h8l9 9 2 4c4 4 5 6 9 15l2 4v7l-1 10-4 6-1-1zm-7-20l8-5h-1l-8 3v1c-2 1-2 2 1 1zM40 40l-7-3-8-6-1-2 12-2c12-1 16-2 29-5a191 191 0 0123-5l-1 2v2h1l6-1h2v1l-7 3a490 490 0 00-34 14 66 66 0 01-15 2zM151 47v-1h1l-1 1zM92 45v-1h1v1h-1zM142 95l-1-1-1-3h1l2 1 1 1h1l-2 1-1 1zM147 100l1-1 1 1h-2zM102 94l-1-1 2 1h-1zM96 102v-1h1v1h-1zM91 99v-1l1-1v1l-1 1zM108 102l-1-1h2v1h-1z"/>
  <path fill="#fff" d="M92 122l-2-1-2-2a19 19 0 01-1-5v-1l1 1a174 174 0 012 1h3l2 1 1 2v1a5 5 0 01-2 2 3 3 0 01-2 1zm0 0l1-1 2-1v-1-1l-1-2-1-1h-3l-2-1-1-1v1l1 4 1 2 1 1 2 1zM96 102v-1h1v1h-1zm0 0h1v-1h-1a2 2 0 000 1zM91 99v-1a10 10 0 011-1v1l-1 1zm0 0l1-1a2 2 0 000-1l-1 1v1zM102 94h-1v-1-1l2 1v1a1 1 0 01-1 0zm0 0h1v-1h-2a3 3 0 001 1zM108 102h-1l1-1h1v1h-1zm1 0v-1h-1a2 2 0 00-1 0v1h2zM119 105l-1-1a1499 1499 0 011-4 11 11 0 00-1 0 57 57 0 001 5zM119 100zM133 97a52 52 0 00-7 0 21 21 0 015 0 50 50 0 012 0zM138 101v-1l-1-1a5 5 0 00-3-2h-1l4 1v1h1v1a2 2 0 010 1zM137 104a15 15 0 011-2 34 34 0 000-1v2l-1 1zM131 110h2l2-1a2 2 0 001-1v-1h1v-2a14 14 0 000 2l-2 2a10 10 0 01-4 1zM129 110a45 45 0 01-9-2 29 29 0 009 2zM120 108h-1a9 9 0 010-3v3h1zM119 105zM130 110h-1 1zM148 100h-1l1-1h1v1h-1zm0 0h1v-1h-1l-1 1h1zM142 95l-1-1v-1l-1-2h2v1a4 4 0 001 0h1l1 1h-1v1h-1 1v-1h1l-1-1h-1a4 4 0 01-2-1h-1l1 3 1 1h1-1z"/>
  <path fill="#fff" d="M142 95a3 3 0 011-1v1h-1zM84 46h-1v-1-1a37 37 0 012-3l2-1 1 1h1v1l-2 2-2 2h-1zm0 0h1l3-3 1-1v-1l-1-1h-1l-1 1h-1l-1 1-1 2v2a1 1 0 001 0zM92 45a2 2 0 010-1h1v1h-1zm1 0v-1h-1v1h1zM144 47l-1-1h-1v-3-1h2l1 1c2 0 2 2 1 3v1h-2zm1 0l1-1 1-1-2-3h-2-1l-1 2 1 1 1 1 1 1h1zM151 47h-1v-1h2v1h-1zm0 0h1v-1h-1-1v1h1zM173 49h1l1-1 1-1h-1l4-2 4-1h-1a36 36 0 00-7 3h1l-1 1-1 1h-1c1 0 0 0 0 0zM178 48a40 40 0 006-4l-5 3a42 42 0 01-1 1z"/>
  <path fill="#fff" d="M174 49h-1 1a15 15 0 004-1 326 326 0 00-4 1zM172 53a202 202 0 01-2-5l2 5zM170 48a223 223 0 01-1-3v-1a281 281 0 011 4zM169 44a288 288 0 00-1-4 374 374 0 011 4zM168 40a186 186 0 00-2-4 130 130 0 012 4zM166 36a50 50 0 00-2-4l1 1a33 33 0 011 3zM164 32a27 27 0 01-2-4h1a76 76 0 001 4zM162 28a10 10 0 00-1-3 9 9 0 011 3zM161 25a31 31 0 00-3-4v1a31 31 0 013 3zM158 21a105 105 0 00-4-3h1a135 135 0 013 3zM154 18l-4-4h-1a1 1 0 00-1 0h1l4 2 1 2zM144 17a18 18 0 014-3h-1l-3 3zM141 19l1-1v-1a35 35 0 014-3 24 24 0 00-5 5h1a64 64 0 002-2 65 65 0 01-3 2zM146 14a14 14 0 013-2 6 6 0 011 0h1a4 4 0 00-1 0l-2 1-2 1zM154 13a94 94 0 00-3-1 29 29 0 014 1zM158 15a80 80 0 01-3-2 48 48 0 013 2zM160 16a4 4 0 01-2-1 6 6 0 002 0 8 8 0 003 0 20 20 0 011 0 13 13 0 00-2 0l-2 1zM168 15h-2a14 14 0 00-2 0h1a5 5 0 011 0h2v0zM171 18a17 17 0 00-3-2v-1a21 21 0 013 3zM174 21a31 31 0 00-3-3 21 21 0 013 3zM176 25a174 174 0 01-2-4v1a36 36 0 012 3zM179 28a73 73 0 00-3-3h1a93 93 0 002 3zM181 31a84 84 0 00-2-3 62 62 0 002 3zM182 33l-1-2a39 39 0 011 2zM183 35a67 67 0 00-1-2 103 103 0 011 2zM184 37l-1-1v-1a122 122 0 011 2zM185 39a233 233 0 00-1-2l1 1a149 149 0 010 1zM186 41a451 451 0 00-1-2 1968 1968 0 011 3zM187 44l-1-2a588 588 0 011 2zM189 47a6875 6875 0 00-2-3l1 1 1 2zM189 55a1819 1819 0 000-5v5zM189 58v-3 3zM189 60v-1-1 2zM187 64a10 10 0 001-1 8 8 0 001-3l-1 3-1 1zM185 67a55 55 0 002-3v1a76 76 0 01-2 2zM184 70l-1-1-3-3a56 56 0 003 3l1 1 1-2v-1 1a23 23 0 01-1 2zM180 66a55 55 0 01-3-3 65 65 0 003 3zM177 62a30 30 0 01-2-3 20 20 0 002 3v1zM175 59a152 152 0 00-2-3h1a73 73 0 001 3zM173 55a167 167 0 01-1-2h1a169 169 0 000 3zM80 28a377 377 0 009-4h-1a502 502 0 00-8 4zM89 24a231 231 0 005-2l-5 2zM94 22a23 23 0 012-1v-1h-1a46 46 0 01-5 1 53 53 0 005-1h1v1h-1a10 10 0 00-1 1zM87 21a18 18 0 003 0 24 24 0 01-3 0zM87 21v-2l1-1v-1h-1a27 27 0 00-3 1h1l3-1v2a11 11 0 00-1 2zM78 19l5-1h1a129 129 0 01-6 1zM71 21a94 94 0 017-2 24 24 0 01-2 1 114 114 0 00-5 1zM65 22a922 922 0 016-1 290 290 0 00-6 1zM59 24l1-1a277 277 0 005-1 817 817 0 01-6 2zM51 25l8-1a224 224 0 01-8 1zM45 26zM39 27a194 194 0 006-1 178 178 0 01-6 1zM31 28zM25 29a580 580 0 016-1h-1a197 197 0 00-5 1zM26 31a5067 5067 0 01-1-2 11 11 0 00-1 0l1 1a86 86 0 001 1zM29 35a20 20 0 01-3-4 23 23 0 003 4zM35 38a24 24 0 01-6-3 20 20 0 006 3zM41 40a21 21 0 01-4-1 28 28 0 01-2-1 18 18 0 007 2h-1zM42 40a44 44 0 007-1 44 44 0 01-7 1zM49 39a77 77 0 006-1 75 75 0 01-6 1zM55 38h1a62 62 0 007-2h-1a63 63 0 01-7 2zM63 36a93 93 0 006-3 84 84 0 01-6 3zM69 33a127 127 0 003-2 316 316 0 00-3 2zM72 31a293 293 0 017-3 443 443 0 00-7 3zM79 28h1a314 314 0 01-1 0z"/>
</svg>
