<svg xmlns="http://www.w3.org/2000/svg" viewBox="0 0 256 256">
  <defs/>
  <path fill="#fce6ce" d="M18 250c-2-2-2-3-2-8 0-6 1-9 5-11l3-2v-71h-4c-6 1-7 0-7-10v-8l5-5a485 485 0 0118-20l4-6h39l-1-4-3-4c-2-2-2-2-1-5s0-3-2-5c-3-3-4-4-2-8l1-4c-2-3-4-14-3-17 1-9 3-17 7-23 1-2 1-3-1-6-3-4-3-6 0-8 2-2 2-3 3-8 1-7 2-11 4-12 4-2 15-3 22-2 11 1 27 5 32 8h2c2-2 12-5 17-5l12-1h13l9 2c4 0 5 1 6 4 3 3 3 5 1 10l-1 9-1 7c-2 3-3 7-1 9l1 4 2 5 1 3 4 5 4 6c-1 5-7 14-11 14v3c2 4-2 7-5 5h-2l-4 15h-6l-2 2-1 1 22 1h21l4 3 15 18c4 4 4 4 3 18l-2 9-3 1h-3v68l3 2c5 6 5 21 1 21l-2 1-107 1c-105 0-105 0-107-2zM195 69c1-3 0-2-3 1l-3 3 3-1 3-3zm-15-43l-1-6-2-6c-1-3-1-3-1-1v6c2 3 2 6 1 9 0 4 1 6 2 3l1-5zm-97-8v0zm11 2c1-1 0-11-1-11l-1 7c0 5 0 6 2 4zm95-1v-4c-1-1-1-1-1 3s0 4 1 1zm22-11c0-1 0-1 0 0v0z"/>
  <path fill="#fde4bb" d="M18 250c-2-2-2-3-2-7 0-7 2-10 5-13l3-1v-71h-4c-6 0-7-1-7-11v-7l9-10 14-15 4-6h20l19-1-1-5-1-2c-3 0-4-2-3-5 1-2 0-3-2-6-4-3-4-3-2-7 1-2 2-3 1-4-2-3-4-15-3-18 1-8 2-12 5-18l3-6-2-4c-3-4-3-6 0-8 2-2 2-4 3-9 1-9 3-11 9-13 10-2 25 0 39 5l8 2 1 1c1 1 2 0 5-1 5-2 9-3 25-5h14l10 2c4 0 5 1 6 4 3 3 3 4 1 9l-1 10-1 7c-3 3-3 7-2 9l2 4c1 4 4 9 7 13 4 5 4 6 2 11-2 4-7 9-9 9v3c1 2 1 3-1 4-1 2-2 2-4 1s-2-1-4 7l-1 8h-3c-2-1-3 0-5 1-4 3-3 3 19 3l23 1 18 20 3 4v11l-1 12h-3l-3 1-1 34v33l3 3c3 4 5 12 3 18-1 5 0 5-112 5-104 0-104 0-106-2zm191-41v0zm-107-4h-2 2zm-19-6l-1-1h-1l1 1h1zm16-4h-1 1zm110-16v0zm24-31l-1 1c0 2 0 2 1 1v-2zm-107-19v-1l-1 1v1l1-1zm0-4l-1 1 1 1v-2zm20-16c3-2 3-2 2-7l-1-5 3-1c3-1 3-2 3-8 1-7 1-9-2-12l-3-4c-1-3-2-1-2 3s0 4-3 4c-2 0-3-1-5-6s-2-5-3-3c-3 7-4 9-8 12-2 3-4 4-5 4s-6-5-6-7l-1-3-2-5-1-5v-2l-1-1-1 5c0 5-2 10-3 10l-4-4c-2-4-2-4-5 1-3 6-3 9-1 13 2 3 2 6 2 11v8l3 2 22 1 22-1zm-39-10l-1-8c0-7 1-10 4-9 1 1 2 3 2 8v8c-1 3-4 3-5 1zm30 1v-9l1-9c3-2 4 0 5 7s0 11-3 11h-3zm-43-4l-1-1-1 1 1 1 1-1zm70-3l-3-1c-3-1-4 1-1 2l4-1zm30-22c3-2 3-4 2-5l-7 6c0 2 2 2 5-1zm-9-31v-1l-1 1v2l1-2zm3-10c0-2 0-2-1 1v3l1-4zm-8 1c2-4 1-8 0-12l-3-6-1-2c-2 0-2 4 0 8l1 8v5c0 2 3 1 3-1zM84 16l-1-4-1 11c1 2 1 1 2-7zm106 1c0-2-2-4-3-4v6l1 5 1-3 1-4zm-95 3v-5-6l-2-1-2 2 1 12 3-2z"/>
  <path fill="#f2d1af" d="M18 250c-2-2-2-3-2-7 0-7 2-10 5-13l3-1v-71h-4c-6 0-7-1-7-11v-7l9-10 14-15 4-6h20l19-1-1-5-2-3c-3 0-3-2-2-4s0-3-2-6c-4-3-4-3-2-7 1-2 2-3 1-6-2-5-4-13-3-16l5-18 4-7-3-3c-3-4-3-6 0-8 2-2 2-4 3-9 1-9 3-11 9-13 9-2 18-1 34 3l14 5 5-1c5-2 9-3 25-5h14l10 2c5 1 6 2 8 6l-1 7-1 10-1 7c-3 3-3 7-1 10l2 4c0 2 3 8 7 13 3 4 3 5 1 10-2 4-7 9-9 9v3c1 3-2 6-5 5-2-1-2-1-4 7l-1 8h-3c-2-1-3 0-5 1-4 3-3 3 19 3l23 1 18 20 3 4v11l-1 12h-7v68l3 3c3 4 5 12 3 18-1 5 0 5-112 5-104 0-104 0-106-2zm207-6h5v-4l-1-6-1 1-2 1a236787 236787 0 01-201 1c-1-1-3 2-3 5v3h99l104-1zm-3-48v-34h-14l-14 1 1 1 1 5c0 4 1 4 3 3 3-2 8 0 9 3 2 3 1 44 0 47-1 2-6 4-8 4-4-1-6-3-7-6l1-3h5l2 2 1-8c0-7 0-8-2-8s-7-5-7-6l-3 2-4 3c-2 1-2 2-2 11v11c0 2-5 2-7 0l-1-4v-1c-2 2-3 2-5 1-1-1-2-4-3-15v-6h3c3 0 4 1 4 6l1 2 1-4c0-3-1-4-2-4l-2-2-1-2-3 1-3 1v12c0 14 0 17-3 17-4 0-5-2-4-13 0-8 0-9-1-4 0 8-2 11-5 13-3 1-5 1-7-2 0-1 0-2 2-3l2-4 2-11c0-3 0-3 3-3s3 1 3 2c1 2 1 1 1-1 0-3 0-3-4-3-6 0-10-4-6-8l2-3 2-2-3-3c-4-3-4-6 1-9l3-3 5-3c6-3 10-3 10-1 1 3-1 5-6 7-4 2-6 4-5 6 0 1 3 0 6-3l6-3c2 0 2 1 2 3l-1 4v1l4 4c2 3 2 3 2 1l-1-3v-1l1-4v-4l6-1h6v-4l2-5c2-1 0-1-54-1H81v2c0 2-1 2 12 3 9 0 9 0 10 2 1 4-1 4-12 5l-11 1 9 2c9 0 11 1 11 4 0 2-3 3-8 3-4 0-4 0-4 2 0 1 1 2 8 2 10 0 12 1 10 4-1 2-2 3-7 3s-5 0-3 1l7 1c4 0 6 1 6 4 0 2-8 4-21 5h-7c0 3 2 3 12 3h10l1 1 2 3c0 3-3 4-14 4H81v4c-1 5-3 7-5 4-2-1-2-2-2-5v-3H63l-12-1c-2-2-2-3-1-4 0-1 3-2 12-2 11 0 12 0 12-2s-2-2-14-2l-1-1c1-1 0-2-5-1s-5 0-6-2c-3-3-1-4 4-5 7-1 7-3 1-2h-5l-1-2v-3c1-2 1-2 10-2 8 0 11-1 11-3l-7-1c-7 0-9-1-9-4s4-4 11-4c6 1 7 0 8-1 2-2 2-2-9-2-10 0-12 0-12-3l1-2c1-1 4-2 12-2 11 0 11 0 11-2v-2H30v68h192zm-80 7c-1-1-1-2 1-2l1 1c0 1-1 2-2 1zm35 6h-1c0 1 0 2 1 1v-1zM74 199v-3c-1-2-3-2-7 1l-2 2h9zm12 0c1-1-2-4-3-4-2 0-2 0-2 2s0 2 2 2h3zm115-12v-8h-5a111 111 0 005 17v-9zm-14-3c1-4 1-4-1-4s-2 0-2 7v8l2-3 1-8zm-21 5c2-1 2-1 2-4l-1-3-1 1-1 1c-1-1-3 1-2 2 1 0 0 1 0 0l-3 2c-1 1-1 1 2 1h4zm-86-2c0-2-2-3-3-2-2 2-2 3 1 3l2-1zm153-40v-5H20v10h213v-5zM29 136c-1-1 5-3 9-3l1-1 4-5c4-5 5-8 3-9s-2-1-4 1l-9 10c-7 7-8 9-6 9l2-2zm193 1l-4-2a4060 4060 0 00-180 2h184zm9-1l-4-5-4-5-1-1-2-3-3-2-1-1h-3l-5 1c-2 0-2 0 1 6l5 4 2 1 2 1c3 0 11 3 10 4l1 1 2-1zm-160-9c2-3 2-5 1-5l-5 7 1 1 3-3zm26 0l2-4-2-1c-2 0-3 2-3 4l-1 2c-1 1-1 2 2 2 1 0 2-1 2-3zm29-1c0-4 0-4-2-4-1 0-2 0-3 3-1 4-1 5 3 5 2 0 2 0 2-4zm27 2l-1-1-1-3c0-2 0-2-2-2s-3 0-2 5c1 2 1 3 3 3s3-1 3-2zm29 1l-4-7-1 5c1 2 1 3 3 3l2-1zM55 117h-1 1zm38 0zm25 0h-5 5zm15 0h-3 3zm11 0h-1 1zm2-8c3-2 3-2 2-7l-1-5 3-1c3-1 3-2 3-8 1-7 1-9-2-12l-3-4c-1-3-2-1-2 3s0 4-3 4c-2 0-3-1-5-6s-2-5-3-3c-3 7-4 9-8 12-2 3-4 4-5 4s-6-5-6-7l-1-3-2-5-1-5v-2l-1-1-1 5c0 5-2 10-3 10l-4-4c-2-4-2-4-5 1-3 6-3 9-1 13 2 3 2 6 2 11v8l3 2 22 1 22-1zm-39-10l-1-8c0-7 1-10 4-9 1 1 2 3 2 8v8c-1 3-4 3-5 1zm30 1v-9l1-9c3-2 4 0 5 7s0 11-3 11h-3zm-43-4l-1-1-1 1 1 1 1-1zm70-3l-3-1c-3-1-4 1-1 2l4-1zm30-22c3-2 3-4 2-5l-7 6c0 2 2 2 5-1zm-9-31v-1l-1 1v2l1-2zm3-10c0-2 0-2-1 1v3l1-4zm-8 1c2-4 1-8 0-12l-3-6-1-2c-2 0-2 4 0 8l1 8v5c0 2 3 1 3-1zM84 16l-1-4-1 11c1 2 1 1 2-7zm106 1c0-2-2-4-3-4v6l1 5 1-3 1-4zm-95 3v-5-6l-2-1-2 2 1 12 3-2z"/>
  <path fill="#d8c6a7" d="M19 250c-3-1-3-2-3-7 0-6 2-10 5-12l3-2v-71h-4c-6 0-7-1-7-11v-7l11-11c13-14 14-15 14-17 1-2 4-2 24-3h17l-1-4-3-5c-2 0-2-2-1-4s1-3-2-6c-4-3-4-4-1-8v-5c-3-5-3-21 0-27l5-12c1-1 0-3-1-5-4-5-4-6-1-8 2-1 2-2 2-3 0-6 3-14 5-16 3-3 14-4 24-3l22 6 5 1 2 1c1 1 2 0 6-2l16-3 12-1h8l11 2c7 1 11 6 8 13l-1 9-2 8-1 4-1 2 1 3 2 4c1 5 4 11 8 14l3 5c0 4-6 12-10 13-2 1-2 2-2 5v3h-6l-2 7-1 8h-3l-5 2-3 3h44l4 4a2212 2212 0 0012 13l6 8-1 11v12h-7v68l3 3c5 6 5 21 0 21l-2 1c-1 1-210 1-212-1zm211-10v-6h-2v2H126c-114 0-104 0-104 6v3h208zm-8-8c2 0 2-1 2-37v-37H30v37l1 37h191zm-147-8v-7H63l-12-1c-2-2-2-4 0-5l17-1c7 0 7 0 7-2-1-2-1-2-7-2l-8-2h-5c-4 1-8 0-8-3 0-2 2-3 7-4s6-2 0-2c-5 0-7-1-7-4s3-3 12-3c7 0 8-1 9-2v-2h-7c-5 0-7-1-8-2-1-2-1-2 1-4l9-1c7 0 10-1 10-3l-10-1H52l-1-3c0-2 0-2 11-3 12 0 12 0 12-2 2-5 7-5 7 0 0 2 0 2 10 2l12 2-1 3-12 1c-11 0-11 0-11 2 1 2 1 2 10 3 10 0 11 0 11 2 0 3-2 4-8 4s-7 0-5 2l8 2c8 0 11 0 11 4 0 2-1 2-8 3h-4l3 2 6 1c3-1 5 1 5 3s-8 4-20 5c-7 0-7 0-7 2l12 2c12 0 14 1 12 4-1 2-5 3-15 3h-8l-1 4c0 3-1 4-2 4-2 1-3 1-4-1zm0-27c-1-2-1-3-3-2l-5 2-2 2h5c5 0 5 0 5-2zm11 0l-3-2c-2-1-2-1-2 1 0 3 0 3 3 3s3 0 2-2zm-7-12c-1-2-1-2-3 0s-2 3 2 3h3zm81 40v-28h-3c-5 0-6-1-8-2-2-2-1-5 2-8l3-3-3-2c-3-2-4-4-3-7 1-2 10-8 14-10 5-2 7-1 7 2 0 2-2 3-5 5l-7 4v2c2 1 2 1 7-2 4-4 6-4 8-2 1 2-1 5-4 7l-7 5-4 4h4c8-1 8-1 7-5 0-3 1-4 4-3l3 3c1 3 1 3 2-5v-7h6l6-1 1-4c0-3 0-4 2-4 3-1 4 1 4 5v4l3-1c9-1 10 0 10 26 0 22-1 26-6 27-4 2-10-1-9-5 0-2 1-3 2-3l4 1c2 1 2 0 2-5v-8l-3-3c-2 0-3-1-5-3l-1-4-3 3-4 4c-2 1-2 1-3 11 0 11 0 12-2 12-3 0-4-2-4-5 0-2 0-3-1-2 0 2-2 3-4 2-1-1-2-2-3-12-1-8-1-9 3-9 2 1 3 3 4 11 1 6 1 6 1-2s0-8-3-11c-2-2-3-2-5-2-2 1-2 1-3 15 0 11-1 14-2 15h-4zm43-36c0-9-1-10-4-10s-3 1-2 8c2 6 4 10 5 9l1-7zm-17 2l2-8c0-4 0-4-2-4s-2 0-3 8c0 8 1 10 3 4zm-38 31c-2-1-2-4 0-6l3-7c2-10 2-10 4-10 3 1 3 1 3 6 1 11-5 20-10 17zm85-74v-6H116l-96-1v12h213zM30 136c0-2 3-3 8-3h2c-1-1 0-2 2-4a56 56 0 006-7l1-2-2-2c-3-2-3-2-4-1l-17 18c-2 2-1 3 2 3 2 0 2-1 2-2zm202 0l-14-16-3-3-3 2-5 1c-1 0-1 1 2 5 2 4 3 5 6 6l9 3c4 1 4 2 3 2h-4l-92-2c-89 0-90 0-93 2l-4 2h99l99-2zM63 126l2-4H52l-2 4-3 3 7 1h7zm9 0c2-5 2-5 0-5l-4 5-2 4h2l4-4zm17 1l1-4c1-1 0-1-5-1h-6l-2 3-1 4 6 1c6 0 6 0 7-3zm9-1c2-5 2-5-1-5l-3 3c-2 5-2 6 1 6l3-4zm19 1c1-5 1-5-7-5h-7l-1 4v4h14zm9-1c0-4 0-5-2-5s-2 1-3 3c-1 5-1 6 2 6h3zm17 2l-1-4c0-2 0-2-6-2h-6v8h6c7 0 7 0 7-2zm10 1l-3-7c-2-2-3 0-3 4s0 4 3 4l3-1zm21 0l-2-4-1-3h-8c-8 0-9 0-7 5 1 3 1 3 10 3l8-1zm9 0l-2-4c-1-3-2-4-3-3-2 0-2 1-1 5 1 2 2 3 4 3l2-1zm23 0l-3-4-2-3h-16l2 4 1 4h9l9-1zm0-12l-78-1a1216 1216 0 0075 2c1 1 2 0 3-1zm-59-8c1-2 2-2 1-6l1-6 3-2 2-12c1-2 0-3-2-5l-2-4-2-3-1-2-1 2-1 5c0 5-4 3-7-4-3-4-3-5-3-3l-8 14c-4 4-5 4-6 2-3-3-9-16-9-20l-1-2-1 4c0 5-2 10-3 11l-3-4c-1-2-2-4-3-3-1 0-5 8-5 11-1 1 0 4 1 6l2 12c0 10 0 10 25 10l23-1zm-39-9l-1-9 1-9c3-1 4 2 4 9 0 6-1 10-2 9h-2zm29 0v-8c0-7 0-8 2-10h2c2 2 2 13 1 16-1 2-3 3-5 2zm-43-3c2-1 1-3-2-3-1 0-2 2-1 3h3zm70-4c0-2-3-3-5-2-3 1-2 3 1 3 4 1 4 0 4-1zm29-21c4-2 4-4 2-6l-4 2c-2 3-3 5-2 6s1 1 4-2zm-8-32v-1l-1 1v2l1-2zm3-10c0-2 0-2-1 1v4l1-5zm-7 1c2-3 1-6-1-12l-2-6c-1-3-4-3-4-1 0 4 0 7 2 10v5c0 3 1 7 3 7l2-3zM84 16l-1-4-1 11c1 2 1 1 2-7zm106 1c0-2-2-4-3-4v6l1 5 1-3 1-4zm-96 4l2-3-1-11c-2 0-4 2-4 4 0 11 0 13 3 10z"/>
  <path fill="#ceb297" d="M18 249c-2-1-2-3-2-6 0-7 2-11 7-14l1-35v-36h-4c-5 0-5 0-6-3v-14c1-3 3-5 14-16l10-11 2-4h39v-4c-1-5-1-6-3-6s-3-3-1-6c0-1 0-2-3-3-3-2-4-5-1-8v-7c-3-6-3-19 0-25 0-3 2-7 4-10l2-5-1-2-3-4c-1-3-1-3 1-5l3-5C79 5 80 5 89 3h15l21 5 7 2 2 1h4c5-4 32-7 46-4 6 1 8 1 10 3 2 3 2 6 0 11v8c0 4 0 5-2 8-2 4-3 8-1 9l2 4c1 6 3 10 6 12 4 5 5 7 3 11s-7 10-10 10v5c0 2 0 2-3 2-4 0-4 0-4 3l-1 5-1 5c-1 3-4 4-5 2l-6 5h45l10 12 11 12-1 11-1 12-3 1h-3v28c0 44 0 40 3 44s3 4 3 11l-1 8-108 1c-107 1-107 1-109-1zm212-8a1195 1195 0 00-2-6v1H126c-97 0-102 0-103 2l-2 4v3h209zm-6-45v-38H30v75h194zM76 225l-1-5-1-3H63l-12-1c-3-4-1-5 12-6h11l1-2v-3h-7l-7-1-7-1-6-1c-2-3 0-4 6-5 7-1 8-4 1-3-4 1-5 1-6-1-4-3 0-5 13-5 5 0 6-1 6-4l-7-1-7-1c-2-4 0-5 9-5 8 0 10 0 10-2 0-1-2-2-10-2-10 0-14-1-12-4l12-2h11l1-3 2-3c2 0 4 2 4 4s1 2 10 2c7 0 10 0 11 2v3l-11 1-12 1c-2 3-1 4 10 4h10v2c0 3 0 3-6 3-7 0-8 1-6 4l10 2c7 0 8 0 9 2 0 2-2 3-8 4h-5l3 2 8 1 4 1v1c1 2-4 4-8 4l-11 1c-8 0-8 1-8 3s0 2 10 2h12c2 1 3 3 1 5l-12 1H81v4c0 3-1 4-2 5h-3zm-1-29c0-2-1-2-3-2l-5 2-2 3h5c5 0 5 0 5-3zm11 0l-4-2-1 2c0 3 0 3 3 3h4zm-6-10c-1-3-4-3-5-1-1 3-1 3 2 3 4 0 4-1 3-2zm117 38c-2-1-3-2-3-4 0-3 2-4 5-2s4 1 4-8l-1-8c-3 0-6-1-8-4l-1-3-2 2c-2 3-3 4-6 5-2 1-2 1-2 11 0 9-1 11-2 11-3 2-4-1-4-14l-1-12-3-2c-1-2-1-2-4-1l-3 1v9c0 17-1 20-4 20l-2-1v-28h-4c-8 0-9-3-5-9l3-3-3-3c-3-2-3-5-1-7 7-7 13-10 18-10l1 3-5 4c-5 3-8 5-7 7 1 1 3 1 7-2 5-4 7-4 7-1 1 2 0 3-2 5l-12 10 11-1v-3c0-3 2-5 4-4l3 4 2 3v-7c0-10 0-10 7-10h5l1-3c0-7 6-7 6 0v3h5c7 0 7 1 8 23 0 21 0 25-3 28-2 3-6 3-9 1zm6-36l-1-9h-6c-1 1 2 13 4 15 2 4 3 3 3-6zm-17 4l2-9 1-4h-6v8l1 9 2-4zm-39 28l1-3c2-2 3-4 4-9 1-8 2-10 4-8 1 0 2 2 2 7l-2 8c-2 7-6 9-9 5zm24-1l-2-9c-1-9-1-11 3-11 1 0 2 1 3 9 2 7 1 11-1 11h-3zm62-71v-6H20v10l107 1h106zM28 138l2-2c1-1 4-3 8-3 3 0 2 2-1 3l-3 2 198-1a1534 1534 0 01-18-20c-1 2-7 3-8 2s0-2 2-3a3516 3516 0 00-81 1h76l5 7 4 6 6 2 8 3c2 1 1 1-3 1l-7-2-89-1H41c-1-1 1-4 3-7l5-6-2-2-3-2-5 6-15 16h4zm124-14c-1-3-1-3-3-3l-2 1v4c0 3 0 4 3 4s3-1 2-6zm-89 2l3-4-6-1h-7l-3 4-3 4 7 1h7l2-4zm8 2l2-5c1-2 1-2-1-2l-4 4-2 5h2l3-2zm18-2c3-5 2-5-9-4l-3 4-2 4h13zm9 1l1-4c1-2 0-2-2-2l-3 2-2 4c-1 3-1 3 3 3 2 0 3-1 3-3zm19 1c1-6 1-6-6-6h-7l-2 4-1 4h7c8 0 8 0 9-2zm9-3c0-4 0-4-2-4-3 0-3 0-4 5v4h6zm17 1l-1-4h-11l-1 4v4h13zm31 2l-1-1-1-3c0-2 0-2-6-2l-8-1c-2 0-3 1-2 5l1 4h8c7 0 9 0 9-2zm9 0c-2-5-4-7-5-7-2 0-3 3-1 7l4 2c2 0 2 0 2-2zm23 1l-2-4-2-3h-9l-8 1 1 4 2 3h9l9-1zm-60-20c2-1 4-6 2-7-1-2 0-4 2-6 2-1 3-2 4-6 1-7 1-9-3-16-4-5-4-5-5-4l-1 6c0 5-3 4-7-4l-3-5c0 4-5 13-9 16l-4 3-3-3-3-5v-2l-4-12c0-4-2-2-2 3 0 4-2 10-3 10l-3-4-3-4-2 4c-4 7-4 10-2 16l2 11c0 7 0 7 3 8 2 2 4 2 22 2l22-1zm-8-10l-1-9c1-8 1-9 4-8 1 1 2 10 1 15 0 3-3 4-4 2zm-31 0c-1-1 0-15 1-16 2-2 3 1 3 9 0 7 0 8-2 8l-2-1zm-12-3l-3-2c-2 0-2 0-1 2s4 2 4 0zm69-4c-2-2-5-2-7 0-1 1 0 2 3 2 4 1 6-1 4-2zm29-19c4-3 5-5 3-7-1-1-1-1-4 2s-5 7-3 7l4-2zm-7-35l2-10 2-9c1-2 1-3-1-4l-2-2v9c0 7 0 11-2 14l-2 5c-1 3 2 0 3-3zm-5-7c2-3 1-8 0-12l-3-5c0-2-1-3-2-3l-2 1c0 4 0 7 2 10v5l1 6c1 1 3 1 4-2zM84 19v-7c0-6-1-1-2 6s1 9 2 1zm11 2l1-9-2-4c-3 0-4 3-3 9l1 5 3-1z"/>
  <path fill="#f88f8f" d="M19 250c-2-2-3-5-2-10 0-4 1-5 3-8l4-3v-35l1-36h-5c-5 0-6-1-6-10v-8l4-5a264 264 0 0118-20l4-5h20l20-1-2-5c0-3 0-4-2-4s-3-2-1-5c1-2 0-2-3-5-3-2-3-4-1-7v-8c-4-11-2-26 5-35 2-3 2-4 0-6l-3-4 1-5c2-1 2-2 4-13 1-5 2-6 6-7 10-3 23-2 40 3l8 2 3 1c1 2 1 2 2 0 6-4 27-7 43-5 14 2 17 5 15 13l-1 9-2 8c-3 6-3 8-1 11l2 4 1 4 2 3 3 5c4 4 4 4 3 7l-2 6c-1 3-6 6-8 7v3c2 3 0 5-4 4-3 0-3 0-3 3l-3 12h-3c-1-1-2 0-4 2l-3 3h45l4 6a244 244 0 0011 12l5 6v11c0 12 0 13-4 13h-3v28c0 44-1 40 3 44 3 4 4 9 3 15-1 3-1 4-3 5H19zm212-8l-1-9c-1-1-1-1-2 1v2H126c-97 0-102 0-104 2l-1 4v3h209zm-7-46v-38l-97-1H30v76h194zM75 221v-5H52c-2-1-2-4 1-5l12-1h10v-2c0-2 0-2-7-3l-8-2h-4c-4 1-6 1-8-1s0-3 6-5l6-2-6-1c-5 0-6 0-6-2-1-3 1-4 10-4l10-1c1-3 0-4-7-4s-7 0-7-3c0-2 0-2 8-2 9 0 11-1 11-4l-10-1c-11 0-13-1-12-4 1-2 2-2 12-2h11l1-3 3-2 3 3c0 2 5 3 15 3 6 0 8 1 5 4l-11 1c-11 0-12 0-12 3 0 1 2 2 11 2h10v2c0 3 0 3-6 3s-7 0-7 2c0 3 2 3 10 3s10 1 10 4l-7 2-6 1c0 1 6 4 10 4l4 1c1 2-4 4-8 4l-10 1c-8 0-8 1-8 3s0 2 10 2 14 1 14 3-3 3-14 3H81v3c0 4-1 6-3 6s-2-1-3-4zm12-22c1-1-3-5-4-5-3 0-3 5 0 5h4zm-12-3c0-1 0-2-3-2-2 0-3 0-5 2l-3 3h6c5 0 5 0 5-3zm6-9l-1-2c-1-3-4-2-5 0s-1 2 1 3l5-1zm79 37v-28h-4c-5 0-8-2-7-5l3-4 2-3-3-3c-3-2-3-5-1-8 4-3 12-8 15-8 4-1 4-1 4 1l-3 4-10 7 1 2c2 1 3 0 6-2 6-5 9-5 9-1l-4 4c-5 3-12 10-11 11l6-1c7-1 6-1 6-6l2-2c2 0 2 1 4 4l1 3 1-7 1-8 6-2h5v-3c0-3 1-4 2-5l3 1 2 5v2h4c8 0 8 1 8 27 0 19 0 21-2 23-3 5-13 3-12-2 0-2 4-3 6-1 2 1 3-1 3-8v-8l-3-1c-2-1-4-1-5-4l-3-3-2 2-4 4-3 1v11c0 10 0 11-2 11-3 0-4-2-4-14l-1-12h-2l-1-3h-4l-3 1v13l-1 14c-1 2-5 2-5 1zm43-38l-1-8h-2c-4-1-5 1-3 7 1 8 5 14 6 11v-10zm-17 8l3-14-3-1h-3v8l1 9 2-2zm-38 28c-1-1 0-4 1-6l3-8c1-8 1-9 3-9 3 0 4 4 2 11-1 7-2 9-4 11-2 1-4 2-5 1zm23-6l-2-10c0-6 0-6 2-7 2 0 2 1 3 5l1 10c1 5 0 5-1 5-2 1-2 0-3-3zm62-69l-1-5H126l-106-1v12h213zM31 137c0-2 8-5 8-3l-3 2-2 2c1 2 199 0 199-1l-8-10c-10-12-10-11-11-10-2 2-9 3-9 1l3-1c2-1-26-1-78-1a1109 1109 0 00-3 1h76l4 7c4 5 5 7 7 7 9 2 14 5 7 4l-92-1c-84-1-92-1-88-3l8-11-5-4h-1l-7 9-10 10-3 4h4c3 0 3-1 4-2zm29-7c1 0 6-6 6-8l-7-1h-6l-3 4c-2 2-4 4-3 5h13zm12-4l3-5h-3l-4 3-2 4c-2 1 0 3 2 3 1 0 3-1 4-5zm16 4l4-8-7-1h-6l-3 4-2 5h14zm10-2l1-5c1-2 1-2-2-2-2 0-3 0-4 4-2 5-1 6 2 6l3-3zm19 2v-5l1-4h-7l-8 1c-1 2-3 7-2 8h16zm9-4c0-5 0-5-2-5-3 0-3 0-4 4 0 5 0 6 4 6 2 0 2 0 2-5zm17 0v-5h-13l-1 4 1 5h13zm10 1c-1-6-1-6-5-6h-2v4c1 6 1 6 4 6h3v-4zm22 3l-1-3-2-4c0-2 0-2-9-2h-9l1 3c1 6 1 6 11 6h9zm8 0l-1-5c-1-3-3-4-4-4-2 0-2 0-2 3l2 5c1 2 5 2 5 1zm24-1l-6-7-9-1c-9 0-9 0-6 6 2 3 2 3 11 3l10-1zm-62-19c3-1 3-2 4-4l-1-4c-1-2 0-5 3-6 4-2 5-14 2-19l-4-6c-2-3-2-3-3-1l-1 5c0 7-3 5-7-4l-3-5v2c-2 7-9 17-13 17-1 0-6-5-6-7l-1-4-2-8c-1-5-3-5-3 1l-3 10-3-4-2-4-3 3-3 8c-2 3-2 4 1 8l2 12v7l3 2c3 2 4 2 22 2l21-1zm-7-11c-1-1 0-16 1-16 2-2 3 0 3 8l-1 9c-2 1-2 1-3-1zm-31-1v-9c0-5 0-6 2-6s2 1 2 8-1 8-2 8c-1 1-2 0-2-1zm55 3h-2 2zm-67-5c0-1 0-2-3-2-4 0-3 4 2 4l1-2zm69-4c-2-2-5-2-7 0-1 1 0 2 3 2 4 1 6-1 4-2zm30-20c4-4 4-5 2-6-1-1-2-1-4 1l-3 2-1 3c0 4 2 3 6 0zm-8-33l1-4 2-8c-1-3 0-6 1-7 1-4 1-4-1-6s-3-1-2 3 0 14-2 19l-1 6 2-3zm-5-8c2-3 1-8 0-12l-3-5c0-2-1-3-2-3-3 0-3 5 0 11v5 5c2 2 4 2 5-1zm-97-8v-8-5c-2 2-3 14-2 14l2-1zm11-2l1-9c-1-4-1-4-3-4s-3 2-2 9l1 5 3-1z"/>
  <path fill="#b7a68c" d="M19 250c-2-2-3-5-2-10 0-4 1-5 3-8l4-3v-35l1-36h-5c-5 0-6-1-6-10v-8l4-5a264 264 0 0118-20l4-5h20l20-1-2-5c0-3 0-4-2-4s-3-2-1-5c1-2 0-2-3-5-3-2-3-4-1-7v-8c-4-11-2-26 5-35 2-3 2-4 0-6l-3-4 1-5c2-1 2-2 4-13 1-5 2-6 6-7 10-3 23-2 40 3l8 2 3 1c1 2 1 2 2 0 6-4 27-7 43-5 14 2 17 5 15 13l-1 9-2 8c-3 6-3 8-1 11l2 4 1 4 2 3 3 5c4 4 4 4 3 7l-2 6c-1 3-6 6-8 7v3c2 3 0 5-4 4-3 0-3 0-3 3l-3 12h-3c-1-1-2 0-4 2l-3 3h45l4 6a244 244 0 0011 12l5 6v11c0 12 0 13-4 13h-3v28c0 44-1 40 3 44 3 4 4 9 3 15-1 3-1 4-3 5H19zm212-8l-1-9c-1-1-1-1-2 1v2H126c-97 0-102 0-104 2l-1 4v3h209zm-7-46v-38l-97-1H30v76h194zM75 221v-5H52c-2-1-2-4 1-5l12-1h10v-2c0-2 0-2-7-3l-8-2h-4c-4 1-6 1-8-1s0-3 6-5l6-2-6-1c-5 0-6 0-6-2-1-3 1-4 10-4l10-1c1-3 0-4-7-4s-7 0-7-3c0-2 0-2 8-2 9 0 11-1 11-4l-10-1c-11 0-13-1-12-4 1-2 2-2 12-2h11l1-3 3-2 3 3c0 2 5 3 15 3 6 0 8 1 5 4l-11 1c-11 0-12 0-12 3 0 1 2 2 11 2h10v2c0 3 0 3-6 3s-7 0-7 2c0 3 2 3 10 3s10 1 10 4l-7 2-6 1c0 1 6 4 10 4l4 1c1 2-4 4-8 4l-10 1c-8 0-8 1-8 3s0 2 10 2 14 1 14 3-3 3-14 3H81v3c0 4-1 6-3 6s-2-1-3-4zm12-22c1-1-3-5-4-5-3 0-3 5 0 5h4zm-12-3c0-1 0-2-3-2-2 0-3 0-5 2l-3 3h6c5 0 5 0 5-3zm6-9l-1-2c-1-3-4-2-5 0s-1 2 1 3l5-1zm79 37v-28h-4c-5 0-8-2-7-5l3-4 2-3-3-3c-3-2-3-5-1-8 4-3 12-8 15-8 4-1 4-1 4 1l-3 4-10 7 1 2c2 1 3 0 6-2 6-5 9-5 9-1l-4 4c-5 3-12 10-11 11l6-1c7-1 6-1 6-6l2-2c2 0 2 1 4 4l1 3 1-7 1-8 6-2h5v-3c0-3 1-4 2-5l3 1 2 5v2h4c8 0 8 1 8 27 0 19 0 21-2 23-3 5-13 3-12-2 0-2 4-3 6-1 2 1 3-1 3-8v-8l-3-1c-2-1-4-1-5-4l-3-3-2 2-4 4-3 1v11c0 10 0 11-2 11-3 0-4-2-4-14l-1-12h-2l-1-3h-4l-3 1v13l-1 14c-1 2-5 2-5 1zm43-38l-1-8h-2c-4-1-5 1-3 7 1 8 5 14 6 11v-10zm-17 8l3-14-3-1h-3v8l1 9 2-2zm-38 28c-1-1 0-4 1-6l3-8c1-8 1-9 3-9 3 0 4 4 2 11-1 7-2 9-4 11-2 1-4 2-5 1zm23-6l-2-10c0-6 0-6 2-7 2 0 2 1 3 5l1 10c1 5 0 5-1 5-2 1-2 0-3-3zm62-69l-1-5H126l-106-1v12h213zM31 137c0-2 8-5 8-3l-3 2-2 2c1 2 199 0 199-1l-8-10c-10-12-10-11-11-10-2 2-9 3-9 1l3-1c2-1-26-1-78-1a1109 1109 0 00-3 1h76l4 7c4 5 5 7 7 7 9 2 14 5 7 4l-92-1c-84-1-92-1-88-3l8-11-5-4h-1l-7 9-10 10-3 4h4c3 0 3-1 4-2zm29-7c1 0 6-6 6-8l-7-1h-6l-3 4c-2 2-4 4-3 5h13zm12-4l3-5h-3l-4 3-2 4c-2 1 0 3 2 3 1 0 3-1 4-5zm16 4l4-8-7-1h-6l-3 4-2 5h14zm10-2l1-5c1-2 1-2-2-2-2 0-3 0-4 4-2 5-1 6 2 6l3-3zm19 2v-5l1-4h-7l-8 1c-1 2-3 7-2 8h16zm9-4c0-5 0-5-2-5-3 0-3 0-4 4 0 5 0 6 4 6 2 0 2 0 2-5zm17 0v-5h-13l-1 4 1 5h13zm10 1c-1-6-1-6-5-6h-2v4c1 6 1 6 4 6h3v-4zm22 3l-1-3-2-4c0-2 0-2-9-2h-9l1 3c1 6 1 6 11 6h9zm8 0l-1-5c-1-3-3-4-4-4-2 0-2 0-2 3l2 5c1 2 5 2 5 1zm24-1l-6-7-9-1c-9 0-9 0-6 6 2 3 2 3 11 3l10-1zm-62-19c3-1 3-2 4-4l-1-4c-1-2 0-5 3-6 4-2 5-14 2-19l-4-6c-2-3-2-3-3-1l-1 5c0 7-3 5-7-4l-3-5v2c-2 7-9 17-13 17-1 0-6-5-6-7l-1-4-2-8c-1-5-3-5-3 1l-3 10-3-4-2-4-3 3-3 8c-2 3-2 4 1 8l2 12v7l3 2c3 2 4 2 22 2l21-1zm-7-11c-1-1 0-16 1-16 2-2 3 0 3 8l-1 9c-2 1-2 1-3-1zm-31-1v-9c0-5 0-6 2-6s2 1 2 8-1 8-2 8c-1 1-2 0-2-1zm55 3h-2 2zm-67-2v-4c-1-3-1-3-3-3h-3l1 4c1 3 1 4 3 4l2-1zm70-7l-1-6-3-1c-3-1-3-1-4 2l-1 7c0 3 1 3 5 3h4zm-90-7v0zm118-10l4-4 1-3-5-4-5-5v5l1 6c-1 2 0 7 1 7l3-2zm-7-36l1-4 2-8c-1-3 0-6 1-7 1-4 1-4-1-6s-3-1-2 3 0 14-2 19l-1 6 2-3zm-4-14c0-10-1-13-5-14s-25 0-30 2l-4 1h4l13 5 5 3 10 8c4 5 5 5 6 4l1-9zm-98-2v-8-5c-2 2-3 14-2 14l2-1zm12-3l16-5 7-1 3-1h1l-4-2-6-1-16-3c-7 0-8 1-9 10v6h2l6-3z"/>
  <path fill="#b29a84" d="M19 249c-3-2-3-4-2-10 1-4 1-5 4-7l3-3v-35l1-36h-4l-6-1-1-9c0-9-1-7 14-23l10-11 2-4h20l20-1-2-5c0-3 0-4-2-4s-2-2-1-6l-2-4c-4-2-4-3-2-7v-8c-4-10-2-25 5-36 1-2 1-3-1-6-3-4-3-7 0-7l2-5C79 6 79 6 89 4c9-2 25 0 37 4l5 2 4 1c1 2 1 2 2 0 6-4 28-7 44-5l11 3c3 2 4 7 2 12l-1 7c1 3 0 5-1 8-3 6-3 8-1 11l2 4 1 3 1 3 4 6c3 4 4 5 3 8l-2 5c-1 3-6 6-8 7v7h-4c-3-1-3-1-3 3l-3 12h-3c-1-1-2 0-5 2l-3 3h23l23 1 10 12 10 12v10c0 11 0 13-5 13h-2v60c-1 7 1 11 4 14 3 2 3 14 0 17l-108 1c-100 1-106 1-107-1zm211-4l1-6-1-6c-1-1-1-1-2 1v3l-102-1c-97 0-102 0-104 2v7h208zm-14-12l8-1v-75H30v2l1 73 185 1zM75 221v-5H52c-2-1-2-4 1-5l12-1c10 0 10 0 10-2 1-3-1-4-8-4l-7-1h-4c-5 1-8 0-8-2s1-2 3-3l8-3c1-1 0-1-4-1-6-1-7-1-7-3s1-2 9-2l11-2 1-3-7-1c-8 0-8 0-8-3 0-2 0-2 8-2 9 0 11-1 11-4l-9-1c-9 1-12 0-12-3s1-3 12-3h10l1-3c2-3 4-3 5 1 0 2 1 2 4 2l11 1 7 1c1 4-2 5-13 4l-10 1c-2 4-1 4 9 4s12 1 11 4l-7 1c-6 0-7 1-5 4l9 1c8 0 10 1 9 4 0 1-2 2-6 2l-7 1 12 4c2-1 3-1 3 1 1 2-2 3-7 4l-5 1H81v5l12 1c11 0 11 0 11 2s0 2-9 2c-14 0-14 0-14 4s-1 6-3 6-2-1-3-4zm13-22l-5-5c-2 0-2 0-2 2v3h7zm-12-3c0-2-1-2-4-2-2 0-4 0-6 2l-2 3h12zm5-8c0-5-5-7-6-3-2 4-2 3 2 3h4zm79 36v-28h-5c-7 0-8-4-3-10l3-3-4-2c-5-3-4-6 4-12 6-3 12-5 13-4 2 2 0 3-5 6l-6 4c-2 2-2 2 0 3 2 2 3 2 6-1 4-4 6-5 8-3 1 1 1 3-3 6l-12 10h9c4-1 4-1 4-5 0-2 0-3 2-3s2 1 4 4l2 3 1-9v-7h6c5-1 5-1 5-3 0-4 1-6 3-6 3 0 4 2 4 6 0 2 0 2 4 2l6 2c2 2 3 13 2 30 0 15-1 17-2 19-2 2-7 2-10 0-4-3-2-7 3-4h3l1-9v-9h-2c-3 1-4 1-5-1l-2-4c0-3-2-2-4 1l-4 4-3 1v22h-5v-24l-3-3c-4-3-4-3-7-2l-3 1v12c0 14 0 17-2 17l-3-1zm43-44c-1-2-2-2-4-2h-4l1 4c1 7 2 12 5 14l2 3v-8-11zm-16 11l2-9c0-4 0-4-3-4h-2l-1 9 1 9 3-5zm-39 31c-1-2 0-4 2-6l2-5c0-7 1-11 2-11 3-1 4 2 4 5l-1 7c-1 7-6 12-9 10zm23-7l-1-10c-1-5 0-5 1-5l3 4c2 7 2 14 1 15-2 1-3 0-4-4zm62-68v-6H20v6l-1 6h213zM31 137l2-2 3-1c3-1 3 1 0 2l-2 2a7245 7245 0 00199-1l-17-21-4 2-5 1c-2 0-2 0-1-1l3-2a4046 4046 0 00-6 2l5 7c3 5 4 5 8 7l7 1 1 1h-8l-88-1-87-1 4-6 4-6c0-1-3-4-5-4l-4 3-9 10c-9 10-9 10-4 10 3 0 3-1 4-2zm33-11l3-5H53l-4 4-3 5 8 1 7-1zm8 0l3-5h-3l-4 3-2 4c-2 2-1 3 2 3 2 0 2-1 4-5zm18 1l2-5-7-1h-6l-3 4-2 5 7 1h7zm8 2l1-5c1-3 1-3-2-3-2 0-3 0-4 4l-1 5c0 1 5 1 6-1zm18 1l2-5v-4h-7c-9 0-9 0-10 7l-1 3h8l8-1zm10-4c0-5 0-5-2-5-3 0-4 1-4 7 0 2 0 3 3 3h3zm17 0v-4l-7-1h-6l-1 4v5h15zm10 1c-1-6-1-6-5-6-2 0-2 0-2 3l1 5c0 1 0 2 3 2h3zm21 3v-3l-2-4c0-2 0-2-8-2-10 0-11 0-8 7l1 3h8l9-1zm9 0l-1-5c-1-3-2-4-4-4s-2 0-2 4l2 5h5zm22 0c2 0 2 0 1-3-4-6-4-6-14-6-9 0-9 0-6 6 1 3 2 3 8 3a98 98 0 0011 0zm-59-21c3-1 4-5 2-8l1-3 3-2c2 0 4-17 1-19l-3-5c-3-4-3-4-4-2l-1 5-1 4c-1 0-6-6-7-10l-1-4-2 5c-3 8-9 15-12 15-2 0-8-11-9-18-1-6-1-6-2-5l-1 4-3 11-3-4c-2-4-3-4-6 2-4 8-4 8-2 13 2 3 2 6 3 12v8l3 1c3 2 5 2 22 2s20 0 22-2zm-38-11l-1-8c0-6 0-7 2-7s2 1 2 8c0 8-1 10-3 7zm30-7v-8h4v8c0 8 0 8-2 8-2 1-2 0-2-8zm24 10h-4 4zm-67-2v-4c-1-3-1-3-3-3h-3l1 4c1 3 1 4 3 4l2-1zm70-7l-1-6-3-1c-3-1-3-1-4 2l-1 7c0 3 1 3 5 3h4zm-90-7v0zm118-10l4-4 1-3-5-4-5-5v5l1 6c-1 2 0 7 1 7l3-2zm-7-35l2-5 1-7c-1-3 0-5 1-8 1-4 1-4-1-6-2-3-3-1-2 4s0 15-3 20l-1 4c1 1 3-1 3-2zm-4-15c0-9-1-13-4-14-2-1-22 0-30 2l-5 1h4l13 5 5 3c4 2 8 6 13 12 3 3 4 0 4-9zm-98-9l-1-7c-1 2-2 12-1 14 1 4 2 1 2-7zm12 4l16-5 7-1 3-1h1l-4-2-6-1-16-3c-7 0-8 1-9 10v6h2l6-3z"/>
  <path fill="#d47474" d="M18 249c-1-2-2-10 0-14l4-4 3-2v-71h-4c-6 0-7-1-7-10s-1-7 13-21a194 194 0 0013-16l21-1 19-1-1-5c-1-3-1-4-3-4s-3-3-1-4c1-2 1-4-2-5-3-2-4-4-2-8v-7c-4-10-2-23 4-34l3-5-3-4c-3-4-3-6 0-7l2-4c1-11 1-13 4-15 5-5 27-5 44 1l6 2 3 1c1 2 2 2 4 0 4-4 24-6 40-5 12 1 15 3 17 6v7l-2 9-1 8-2 6v4l3 5 1 5 2 2 3 5 3 5c1 3-3 10-7 13l-4 2 1 3v4h-4c-3-1-3-1-3 2l-1 5-1 5c-1 3-2 4-4 3s-2-1-5 2l-3 3h22l24 1 11 13 9 11v10c0 11-1 14-5 13h-2v33l1 37 3 4c2 1 2 15 0 17l-108 1c-102 1-106 1-108-1zm212-4c1-1 2-10 0-12h-2v2l-103 1-103 1v9l208-1zm-11-12h6v-76l-98 1H30v34 42h92l97-1zM76 220v-4H52c-2-2-2-4 0-5a258 258 0 0015 0h9l-1-3v-3l-7-1-8-1h-5c-5 1-7 0-7-2s1-2 4-3l6-2 4-2h-7c-6-1-7-1-7-3s1-2 9-2l11-2 1-3-7-1c-7 0-9-1-8-4l9-1c7 0 9 0 9-2 2-3 1-3-9-3s-11-1-11-3 1-2 11-2 13-1 13-4c0-1 2-2 3-1l1 2c0 3 1 3 10 3 11 0 12 0 12 2s-2 2-12 2l-11 1-1 2-1 3h11l11 1c2 3-1 4-8 4h-6l1 3 1 2h8c9 0 11 1 10 4-1 1-2 2-7 2l-6 1 12 4c2-1 3 0 3 1v1c-4 3-9 4-19 4l-7 1v3c0 2 0 2 11 2h12v3l-11 1c-12 0-13 0-13 6 0 3-1 3-2 4-2 0-2 0-2-5zm13-21l-1-1-2-2c-1-3-6-3-6 0l1 3h8zm-13-3c0-2-1-2-4-2-2 0-4 0-6 2l-2 3h12zm5-8c0-3-1-5-4-5l-2 1-1 2c0 2 0 2 3 2h4zm79 36v-28h-5c-7 0-8-3-3-10l3-3-3-1-3-3c-1-2 1-7 2-7l4-2c4-3 11-6 13-5s1 3-4 6l-8 6 2 2c2 1 2 1 4-1 4-3 7-5 8-4 3 1 1 3-4 8l-9 7-2 2h3l7-1c4-1 4-1 4-5 0-3 0-3 2-3l4 4 2 3 1-8v-7l6-2c5 0 6 0 6-2 0-5 0-6 2-5 2 0 2 1 2 4l1 3h5c8 0 8 1 8 28 0 21 0 22-3 23-2 2-6 2-9 0-4-3-2-7 3-4h3c1-1 2-31 1-37 0-4 0-4-4-4-3 0-3 0-3 2 0 5 2 14 5 16 2 3 2 5 0 5-3 1-4 0-6-4l-3-3-2 3-4 4-3 1v10c0 10-1 13-4 12l-1-13-1-13-3-2c-2-2-2-2-5-1l-4 1v26c-1 3-4 4-5 2zm27-32l2-9c0-5 0-5-3-5h-3v9l1 9 3-4zm-38 29c-2-1-2-3 1-5 1-1 2-3 2-8 1-7 2-9 4-8l1 8c0 7-2 12-5 13h-3zm22-6l-2-10 1-5c3-1 3 0 5 9v9c-2 3-3 2-4-3zm62-67v-6l-29-1H20v6l-1 7h214zM31 137c0-2 2-3 5-3h3l-3 2-2 2a6904 6904 0 00199-1c0-2-17-21-18-21l-2 1-8 2 3-2c3-1-7-1-79-1-76 0-81 0-79 1l77 1h76l4 6c4 6 5 6 10 8l6 2h-6l-89-1-87-1 4-6 5-6-2-2-4-2-4 4a601 601 0 01-17 18l4 1c3 0 4-1 4-2zm33-11l3-5H53l-3 4c-5 5-5 6 4 6h7zm8 0c3-5 3-5 1-5s-3 1-5 4l-3 5 3 1c2 0 3-1 4-5zm18 1c3-6 2-6-5-6h-7l-2 4-2 5h14zm8 1c2-5 2-7-1-7-2 0-3 0-4 4-2 5-2 6 1 6s3-1 4-3zm19 0l1-5v-2h-7c-9 0-9 0-10 6l-1 4h8c8 0 9 0 9-3zm9-2c0-5 0-5-2-5-3 0-4 1-4 6 0 4 0 4 3 4h3zm17 4v-9h-14v9h14zm10-1l-1-5c0-3-1-3-3-3-3 0-4 1-3 7 1 2 1 3 4 3 2 0 3-1 3-2zm22 0l-2-5-1-3h-18l1 4 1 5 10 1c8 0 9 0 9-2zm9 1l-2-5c-2-3-2-4-4-4-3 0-3 0-2 4l1 5h7zm23 0l-3-5-2-4h-10c-8 0-9 0-8 1l2 5 1 4h10l10-1zm-60-21c2-1 2-2 2-4l-1-4c-1-1 0-2 1-3l3-2c1 0 3-6 3-12 0-4-1-5-4-11-4-5-4-5-5-4l-1 6-1 4-6-8-3-6-1 5c-2 5-5 10-9 13-3 3-3 3-6-1s-4-8-6-15l-1-7-2 5-3 12-3-4c-3-5-3-5-9 9-1 1-1 2 1 6a1337 1337 0 003 19l3 2c2 2 4 2 22 2 19 0 20 0 23-2zm-39-10c-1-2-2-12-1-15 1-2 3-2 4 1l-1 14h-2zm30-8c0-8 0-8 2-8s2 0 2 8 0 8-2 8c-2 1-2 0-2-8zm24 10h-4 4zm-67-2v-4c-1-3-1-3-3-3h-3l1 4c1 3 1 4 3 4l2-1zm70-7l-1-6-3-1c-3-1-3-1-4 2l-1 7c0 3 1 3 5 3h4zm-90-7v0zm118-10l4-4 1-3-5-4-5-5v5l1 6c-1 2 0 7 1 7l3-2zm-6-38c2-4 2-6 2-9-1-3 0-5 1-8v-5c-1-3-3-3-4-1l1 4c0 4-1 16-3 20-2 3-2 5 0 5l3-6zm-5-12c0-9-1-13-4-14-2-1-22 0-30 2l-5 1h4l13 5 5 3c4 2 8 5 13 11 2 2 2 2 3 1l1-9zm-98-8c1-8 0-9-1-7s-2 11-1 13c1 4 2 1 2-6zm13 4l15-6 7-1 3-1h1l-4-2-6-1-16-3c-7 0-8 1-9 10v6h2l7-2z"/>
  <path fill="#a58e76" d="M18 249c-1-2-2-10 0-14l4-4 3-2v-71h-4c-6 0-7-1-7-10s-1-7 13-21a194 194 0 0013-16l21-1 19-1-1-5c-1-3-1-4-3-4s-3-3-1-4c1-2 1-4-2-5-3-2-4-4-2-8v-7c-4-10-2-23 4-34l3-5-3-4c-3-4-3-6 0-7l2-4c1-11 1-13 4-15 5-5 27-5 44 1l6 2 3 1c1 2 2 2 4 0 4-4 24-6 40-5 12 1 15 3 17 6v7l-2 9-1 8-2 6v4l3 5 1 5 2 2 3 5 3 5c1 3-3 10-7 13l-4 2 1 3v4h-4c-3-1-3-1-3 2l-1 5-1 5c-1 3-2 4-4 3s-2-1-5 2l-3 3h22l24 1 11 13 9 11v10c0 11-1 14-5 13h-2v33l1 37 3 4c2 1 2 15 0 17l-108 1c-102 1-106 1-108-1zm212-4c1-1 2-10 0-12h-2v2l-103 1-103 1v9l208-1zm-11-12h6v-76l-98 1H30v34 42h92l97-1zM76 220v-4H52c-2-2-2-4 0-5a258 258 0 0015 0h9l-1-3v-3l-7-1-8-1h-5c-5 1-7 0-7-2s1-2 4-3l6-2 4-2h-7c-6-1-7-1-7-3s1-2 9-2l11-2 1-3-7-1c-7 0-9-1-8-4l9-1c7 0 9 0 9-2 2-3 1-3-9-3s-11-1-11-3 1-2 11-2 13-1 13-4c0-1 2-2 3-1l1 2c0 3 1 3 10 3 11 0 12 0 12 2s-2 2-12 2l-11 1-1 2-1 3h11l11 1c2 3-1 4-8 4h-6l1 3 1 2h8c9 0 11 1 10 4-1 1-2 2-7 2l-6 1 12 4c2-1 3 0 3 1v1c-4 3-9 4-19 4l-7 1v3c0 2 0 2 11 2h12v3l-11 1c-12 0-13 0-13 6 0 3-1 3-2 4-2 0-2 0-2-5zm13-21l-1-1-2-2c-1-3-6-3-6 0l1 3h8zm-13-3c0-2-1-2-4-2-2 0-4 0-6 2l-2 3h12zm5-8c0-3-1-5-4-5l-2 1-1 2c0 2 0 2 3 2h4zm79 36v-28h-5c-7 0-8-3-3-10l3-3-3-1-3-3c-1-2 1-7 2-7l4-2c4-3 11-6 13-5s1 3-4 6l-8 6 2 2c2 1 2 1 4-1 4-3 7-5 8-4 3 1 1 3-4 8l-9 7-2 2h3l7-1c4-1 4-1 4-5 0-3 0-3 2-3l4 4 2 3 1-8v-7l6-2c5 0 6 0 6-2 0-5 0-6 2-5 2 0 2 1 2 4l1 3h5c8 0 8 1 8 28 0 21 0 22-3 23-2 2-6 2-9 0-4-3-2-7 3-4h3c1-1 2-31 1-37 0-4 0-4-4-4-3 0-3 0-3 2 0 5 2 14 5 16 2 3 2 5 0 5-3 1-4 0-6-4l-3-3-2 3-4 4-3 1v10c0 10-1 13-4 12l-1-13-1-13-3-2c-2-2-2-2-5-1l-4 1v26c-1 3-4 4-5 2zm27-32l2-9c0-5 0-5-3-5h-3v9l1 9 3-4zm-38 29c-2-1-2-3 1-5 1-1 2-3 2-8 1-7 2-9 4-8l1 8c0 7-2 12-5 13h-3zm22-6l-2-10 1-5c3-1 3 0 5 9v9c-2 3-3 2-4-3zm62-67v-6l-29-1H20v6l-1 7h214zM31 137c0-2 2-3 5-3h3l-3 2-2 2a6904 6904 0 00199-1c0-2-17-21-18-21l-2 1-8 2 3-2c3-1-7-1-79-1-76 0-81 0-79 1l77 1h76l4 6c4 6 5 6 10 8l6 2h-6l-89-1-87-1 4-6 5-6-2-2-4-2-4 4a601 601 0 01-17 18l4 1c3 0 4-1 4-2zm33-11l3-5H53l-3 4c-5 5-5 6 4 6h7zm8 0c3-5 3-5 1-5s-3 1-5 4l-3 5 3 1c2 0 3-1 4-5zm18 1c3-6 2-6-5-6h-7l-2 4-2 5h14zm8 1c2-5 2-7-1-7-2 0-3 0-4 4-2 5-2 6 1 6s3-1 4-3zm19 0l1-5v-2h-7c-9 0-9 0-10 6l-1 4h8c8 0 9 0 9-3zm9-2c0-5 0-5-2-5-3 0-4 1-4 6 0 4 0 4 3 4h3zm17 4v-9h-14v9h14zm10-1l-1-5c0-3-1-3-3-3-3 0-4 1-3 7 1 2 1 3 4 3 2 0 3-1 3-2zm22 0l-2-5-1-3h-18l1 4 1 5 10 1c8 0 9 0 9-2zm9 1l-2-5c-2-3-2-4-4-4-3 0-3 0-2 4l1 5h7zm23 0l-3-5-2-4h-10c-8 0-9 0-8 1l2 5 1 4h10l10-1zm-60-21c2-1 2-2 2-4l-1-4c-1-1 0-2 1-3l3-2c1 0 3-6 3-12 0-4-1-5-4-11-4-5-4-5-5-4l-1 6-1 4-6-8-3-6-1 5c-2 5-5 10-9 13-3 3-3 3-6-1s-4-8-6-15l-1-7-2 5-3 12-3-4c-3-5-3-5-9 9-1 1-1 2 1 6a1337 1337 0 003 19l3 2c2 2 4 2 22 2 19 0 20 0 23-2zm-39-10c-1-2-2-12-1-15 1-2 3-2 4 1l-1 14h-2zm30-8c0-8 0-8 2-8s2 0 2 8 0 8-2 8c-2 1-2 0-2-8zm-43 7v-6c-1-4-1-4-2-3l-2 2c-2 0-2 0-2 4l2 6c2 1 4 0 4-3zm67 3h-4 4zm3-4l1-7-1-5-4-1-3-1c-1 1-3 12-2 13 1 2 8 2 9 1zM76 86c0-2-1-2-2-1 0 1 0 3 2 3v-2zm119-11l3-5c0-2-9-13-10-12v10c1 12 1 12 7 7zm-8-38c2-4 2-6 2-9-1-3 0-5 1-8v-5c-1-3-3-3-4-1l1 4c0 4-1 16-3 20-2 3-2 5 0 5l3-6zm-5-2c1-7 1-20-1-23-1-1-3-2-7-2-7-1-25 1-31 3l-5 1 10 3c13 3 20 7 27 14l6 5 1-1zM84 17c1-8 0-9-1-7s-2 11-1 13c1 4 2 1 2-6zm14 3c9-3 18-5 24-5l6-1c-1-3-21-7-31-7h-7l-1 3-1 13c0 1 4 0 10-3z"/>
  <path fill="#907865" d="M19 249c-2-1-2-2-2-6 0-7 1-10 5-12l3-2v-36l-1-35h-4c-3 0-4-1-5-2l-1-8c0-9 0-8 13-22l13-15 21-1h19v-2l-2-5-1-3c-2 1-3-2-2-4 1-3 1-4-2-5-3-2-4-5-2-7l2-3-2-6c-3-10-1-26 5-35l2-4-2-2c-3-4-4-6-1-8l2-4C79 7 80 5 89 4s19 0 29 3l12 2 4 2c1 1 2 1 6-1 7-3 14-4 30-4l18 2c6 1 9 6 6 12l-1 9-1 7-2 5v5l3 4 1 6 2 3 2 4c4 4 5 5 4 9-1 3-7 10-9 10l-2 1v2c3 4 1 6-3 5l-3-1v3l-4 14-2-2c-1-1-2 0-4 2l-4 4h45l3 3 10 12 8 10v9l-1 12-3 1-3 1v34l1 37 3 4c1 1 2 3 2 8v7l-4 1c-2 1-18 2-107 2-93 0-104 0-106-2zm212-9v-7c-2-1-3-1-3 2l-97 1a4451 4451 0 01-108 1l-2 5v4h210zm-8-7c2 0 2-4 2-38v-38H30v37 39l96 1 97-1zm-147-9v-4c0-3-1-4-2-4a747 747 0 00-23-1v-3l13-1 12-1v-6h-7l-8-1-7-1c-5 0-6 0-6-2l4-2c4 0 10-3 9-4l-7-1c-5 0-6 0-6-2s2-3 11-3l9-1c3-3 2-4-6-4l-8-1c-2-3 1-4 10-4l8-1 1-2v-2l-10-1c-10 0-11 0-11-2 0-1 1-2 11-2h11l1-3c2-3 4-3 5 0s1 3 10 3c10 0 13 1 12 3l-12 1H79l-1 3c-1 3 0 4 10 4 11-1 11-1 11 2-1 1-1 2-7 2s-6 0-6 2c1 4 0 4 16 4 3 0 3 1 3 2-1 2-1 2-7 3l-6 1 11 4c2-1 3 0 3 1 1 3-6 5-18 5l-8 1v2l1 3h11l12 1c1 3-1 3-12 3l-12 1v4c0 3-1 5-2 5l-2-1zm13-25l-7-6c-2 0-3 3-2 6 1 1 9 2 9 0zm-13-3c0-2-1-2-3-3-2 0-4 1-7 4l-2 2h12zm5-8v-3l-4-2-2 1-1 2c0 2 0 2 3 2h4zm80 36l-1-15v-13h-5c-3 0-5-1-5-2-1-2-1-4 2-7l3-3-3-3c-4-3-4-6 2-10 7-6 13-8 14-6s-2 5-3 5l-1 1-2 1-5 2c-1 2-2 2-1 4 2 2 4 2 7-1 5-3 7-4 8-2 1 1 0 2-2 4l-13 11c-1 2 6 1 10 0s4-1 3-5c0-3 0-3 2-3l4 4 2 4 1-8c0-10 0-10 6-10h6v-3l2-4c2 0 2 1 2 4l1 3h4c6 0 7 1 8 4v44c-2 5-7 6-11 3-4-4-1-7 4-4 2 2 2 2 3-1v-39l-4-2c-3 0-3 1-3 3-1 5 2 14 5 17 2 2 2 3 0 4s-5-1-7-5c-1-3-3-4-3-1 0 2-3 6-6 6l-2 11c0 11-1 13-4 11l-1-13-1-12-3-2c-2-2-3-3-6-1-3 1-3 1-3 10 0 13-1 19-2 20l-2-1zm26-32l2-9 1-5h-7v9l1 9 3-4zm-38 29c-2-1-2-3 1-5 1-1 2-3 2-8 1-7 2-10 4-8s1 12-1 17c-1 3-5 6-6 4zm23-2l-3-14 1-5c2-2 3 0 4 4l1 9v5c-1 2-2 2-3 1zm61-71v-6l-5-1a5463 5463 0 00-208 1c-1 1-2 5-1 9l1 3h213zM31 137l2-2c3-1 4 1 1 1l-1 2h100l99-1c0-2-15-20-17-21l-2 1-5 2c-3 0-3 0-1-1l3-2a2791 2791 0 00-156-1H44l-6 6a1936 1936 0 01-15 17h4c4 0 5 0 4-1zm187-3l-89-1-88-1 4-6c5-6 5-6 3-8v-2l1 1 78 1h76l4 6c4 7 4 7 10 8l6 2h-5zm-154-8l3-5H53l-8 9 8 1h8zm9 0c2-5 2-5 1-6l-3 1c-2 1-6 8-6 9l3 1c2-1 3-1 5-5zm16 4l2-5 1-4H78l-2 4-2 5 7 1 8-1zm10-3c1-5 1-6-2-6-2 0-3 1-4 3-2 6-2 7 2 7 2 0 3-1 4-4zm19 2v-8h-16l-1 4-1 5 9 1c7 0 8-1 9-2zm8-2l1-5-3-1c-3 0-4 0-4 4v5l3 1c3 0 3 0 3-4zm18 0l-1-5-7-1h-7v10h15zm9 2l-1-5c0-3-1-3-4-3h-3v4c1 5 1 6 5 6 2 0 3-1 3-2zm22 1l-1-5-2-4h-17v2l1 5c0 3 1 3 10 3l9-1zm9 0l-2-5c-1-4-2-4-4-4-3 0-3 0-2 3 1 6 1 7 5 7l3-1zm23 0l-3-5-2-4h-19l2 5 3 5h9l10-1zm-60-21c2-2 3-2 2-6-1-5 0-5 2-6s4-5 4-12c0-5 0-6-4-12-4-5-4-5-5-4l-1 6c0 3 0 3-2 3-1 0-5-7-6-11-1-2-1-2-3 2-2 7-6 12-9 15l-3 2-2-3c-2-2-6-12-7-17s-1-6-2-5l-1 4-3 11-3-4-2-4-2 4c-2 2-4 5-4 8-2 4-2 4 0 9 2 3 2 6 2 11l1 7 3 2c2 2 4 2 22 2 19 0 20 0 23-2zm-39-11l-1-11 2-4c1 0 2 2 2 10l-1 6-2-1zm30-7c0-7 0-8 2-8s2 1 2 6c0 8 0 11-2 11s-2-1-2-9zm24 10h-4 4zm-67-2v-8c-1-3-1-4-2-2l-2 2c-2 0-2 0-2 4l2 6c2 1 4 0 4-2zm61 1l-2-1-2 1h4zm9-3l1-7-1-5-4-1-3-1c-1 1-3 12-2 13 1 2 8 2 9 1zM76 86c0-2-1-2-2-1 0 1 0 3 2 3v-2zm119-11l3-6c0-1-9-12-10-11v10c1 12 1 12 7 7zm-7-25l-1-1-1 1 1 1 1-1zm-2-10l2-5 1-7c-1-2 0-4 1-7 2-5 1-9-2-9-2 0-2 1-2 11 0 9 0 11-2 15-1 2-2 4-1 5 0 1 3-1 3-3zm-4-5c2-7 1-20-1-23s-26-2-38 1l-6 2 9 2c13 2 22 7 29 14l6 5 1-1zM84 17l1-8c-2-2-5 11-4 15 2 3 3 0 3-7zm10 5c6-3 22-7 28-7l6-1c-1-3-21-7-31-7h-7l-1 3-1 12c0 2 4 1 6 0z"/>
  <path fill="#8a6f59" d="M19 249c-2-1-2-3-2-6 0-6 2-10 5-12l3-2v-72h-5c-5 0-6-1-6-10 0-7 0-6 14-22l10-11 4-4h39l-1-3-2-6-1-1c-2 1-4-2-2-4 1-3 1-4-2-6-3-1-4-4-1-7 1-2 1-3-1-6l-1-13c0-10 1-16 6-23l2-5-2-2c-3-4-4-6-1-8 2-2 2-3 3-9 1-9 2-11 8-13 10-1 28 1 38 4l7 2 3 1c0 2 3 2 4 1l6-3c4-2 7-2 21-2 23 0 29 1 30 7l-1 6-1 9-1 7-3 6c0 2 0 3 2 5l2 5 1 3 1 3 4 5c2 3 3 4 3 7 0 4-4 9-9 11l-2 3 1 4c0 2 0 2-3 1-4 0-4 0-4 2l-1 6-2 6c-1 3-1 3-3 2-2-2-2-1-5 2l-3 3h23l22 1 10 11 11 14v11l-1 10h-7v34c0 32 1 34 2 37l3 5c1 1 2 3 2 8v7l-4 1c-2 1-16 2-107 2-103 0-105 0-106-2zm212-9v-7c-2-2-3-1-4 1v2h-77a8901 8901 0 01-127 1l-2 5v4h210zm-6-45v-39l-98 1H30v37 39l97 1 97-1zM76 224v-9H52c-2-3 0-3 12-4l12-1v-6h-7l-8-1-7-1c-5 0-6 0-6-2l4-2c4 0 11-3 10-4l-7-1c-6 0-7 0-7-2l5-2 10-1c4 0 4 0 6-2v-3l-10-1c-4 0-5 0-5-2l8-1h8c1 0 3-2 3-4 0-3 0-3-10-3l-11-1c-2-2 1-3 12-3h10l1-3c2-3 4-3 5 0s4 4 15 4c6 0 7 0 6 2 0 1-2 2-11 1l-11 1-1 3v2h10l11 2c0 2-1 2-9 3-4 0-4 0-4 2 0 4 2 4 10 5 8 0 8 0 8 2l-6 2-6 1c0 1 7 4 10 4 4 0 5 1 3 3-1 1-3 2-5 1l-6 1-8 1h-6v5h12c12 1 12 1 12 3s-1 2-12 2l-12 1v4c0 3-1 5-2 5l-2-1zm11-28c-4-4-6-4-7 0 0 4 2 5 7 4h3l-3-4zm-12 3v-3c0-2 0-3-3-3l-6 3c-3 3-3 3-1 3l6 1 4-1zm7-11l-1-3-4-2-3 2-1 2 4 1h5zm79 36v-13c0-15 0-15-5-15-7 0-9-4-4-9l3-4-3-2c-6-3-2-8 9-14 4-2 5-3 7-2 1 2 0 3-6 6l-6 4v3c3 2 5 2 8-1l6-3c3 0 2 3-1 5l-13 11h11c3-1 3-1 2-4l1-3c2-1 4 1 5 4 2 5 3 4 3-3 0-10 1-12 5-11 7 0 7 0 7-4l2-4c2 0 2 1 2 4 1 4 1 4 8 3 2 0 3 1 4 3 2 3 2 4 2 24 0 19-1 21-2 23-3 3-7 4-10 1-2-2-2-3-1-4 1-2 2-2 4 0s2 2 3 0c1-1 2-6 2-20l-1-20c-1-2-2-2-4-2h-4l1 6c0 7 2 12 5 14s2 4-1 4-5-3-6-7c-1-2-3-2-3 1 0 1-4 6-7 6l-2 11c0 11 0 11-2 11s-2-1-2-13c0-11 0-12-2-12l-2-3c-1-1-4-2-7 0-1 0-2 2-2 9 0 14-1 20-2 21l-2-1zm25-30c2-2 4-12 3-14 0-2 0-2-3-2h-3l-1 8 1 9c0 2 2 2 3-1zm-38 26c0-1 0-2 2-3 1-2 2-4 2-9 1-7 2-8 4-8l1 7c-1 7-2 12-4 14-2 1-5 0-5-1zm22-10c-1-9-1-10 2-10l2 5 1 8c1 4 0 6-2 6l-3-9zm63-57v-7l-1-5H126c-84-1-106 0-107 1v12h107l107-1zm0-16c0-1-10-14-16-19l-2-2h-33a12508 12508 0 01-139 0l-6 6a13486 13486 0 00-14 16 4276 4276 0 00210-1zm-201-1l2-1c2 0 2 0 1 1h-3zm187-2l-89-1-89-1 4-6 5-6-2-2v-2l1 1 77 1h77l4 6c4 7 4 7 15 10h-3zm-154-8c2-4 2-5 1-6h-7c-6 0-7 1-8 3l-4 4-2 3 9 1h8l3-5zm8 0c3-5 3-6 0-6-2 0-3 1-5 5l-3 5 3 1c2-1 3-1 5-5zm17 2l2-6c0-1 0-2-6-2l-7 1-6 9 8 1h8l1-3zm9-2c2-5 1-6-2-6-2 0-3 1-4 5l-2 5h3c4 0 4 0 5-4zm19-1v-5l-8 1h-7l-2 4-1 5h18zm9 3c1-5 0-7-2-8-3 0-5 1-5 3l-1 5c0 3 0 3 3 3 4 0 4-1 5-3zm17 2v-5l-1-4h-14v9h15zm9-1l-1-5-1-3c-6-1-6-1-5 3 0 6 0 7 4 7 3 0 4-1 3-2zm22 1l-1-5-1-4h-9c-10 0-10 0-9 7l1 3h9l10-1zm9 0c0-3-4-9-6-9-3-1-4 0-2 4l1 5h7zm24 0l-3-5-3-4h-19l2 5 3 5h10l10-1zm0-12l3-2c2 0 1 2-3 3-2 0-2 0 0-1zm-61-8c2-2 4-6 2-8-1-2 0-5 2-6 3-1 3-2 4-11 1-5 0-5-2-8l-4-7c-2-4-4-3-4 4l-1 4c-2 0-6-7-7-10-1-5-1-4-3 2-3 8-9 14-12 14s-9-15-9-21l-1-2-3 7-1 6c-1 3-1 3-3 1l-1-4-1-3c-2 0-9 12-9 15l2 6c2 3 2 5 2 11 0 7 0 7 3 9s4 2 23 2l23-1zm-9-19c0-7 0-8 2-8s2 1 2 6c0 8 0 11-2 11s-2-1-2-9zm-30 0c0-7 1-10 2-7l1 8c0 5-1 6-2 6-1 1-1 0-1-7zm54 10h-5 5zm-67-2c1-3-1-12-2-12v2l-2 2c-2 0-2 0-2 4 1 6 1 6 4 6 1 0 2 0 2-2zm59 0h-2c-1 1-1 1 1 1 3 0 3 0 1-1zm12-8c0-6 0-6-3-6l-3-1c-2-2-3-1-3 2l-1 7c-1 4 0 5 5 5l5-1zm-89-5c-1-2-3-2-3 0l2 2 1-2zm118-11l3-6-10-11v16c1 5 2 5 7 1zM76 55zm111-6h-1l1 1v-1zm0-12c2-4 2-6 2-9l1-7c1-3 1-9-1-9h-2l-1 10c0 10 0 12-2 16-1 2-2 4-1 5s2-1 4-6zm-5-4c2-7 1-20-2-22s-27-1-39 2l-3 2 8 2c13 2 22 7 29 14l6 5 1-3zM85 17c0-11-2-12-4 0 0 5 0 8 2 8l2-8zm14 3c8-3 14-4 22-5 9 0 9-2 2-4-12-3-32-5-34-3l-2 15c1 1 2 1 12-3zm15 2h-2c-1 0-1 0 0 0h2zm20-2h-13c-2 1 0 1 5 1l8-1z"/>
  <path fill="#6d5648" d="M19 249c-2-2-2-3-2-8s1-6 4-9l4-3v-72h-5l-5-1-1-8c0-6 0-6 3-11l10-11 10-10c2-3 4-5 6-5l20-1h18l-1-3-2-5c0-2-1-2-2-2-2 0-3-2-1-3 1-2 1-5-2-7s-3-4-1-7v-5l-2-8c-2-9 0-17 5-27 3-7 3-7 2-9l-4-6 2-2c2-1 2-2 3-8C79 6 81 5 93 4c9-1 19 1 30 4l8 2 3 1c0 2 4 2 4 1l6-3c6-2 8-2 22-2 24 0 29 1 29 9l-2 6v7l-1 7-3 6 1 5 2 3 2 5 2 4 3 4 3 6c0 5-4 11-9 13-2 0-3 1-2 2v4c1 1 0 1-3 1s-3 0-3 2l-1 5-2 6c0 2-2 4-4 2h-2l-2 3c-2 1-3 2-2 3h43l3 3 16 18 3 4v11l-1 11h-7v35c0 36 0 37 5 41 1 1 2 3 2 7 0 7-1 9-3 9l-2 1-106 1H21zm212-5v-11a436 436 0 01-106 2l-103 2v9h208l1-2zm-97-10h91v-78H29v3l1 75h104zm-58-11v-7l-12-1H52l-1-2 18-2 7-1v-2c1-3-1-4-8-4-5 0-7 0-8-2H49c-2-1 0-4 3-4s10-3 10-4l-6-1c-5 1-6 1-7-1-2-2 0-3 10-3 8-1 9-1 10-3l1-3-8-1c-7 0-8 0-8-2l9-1c8 0 9-1 10-4 0-2 0-2-10-3-9 0-10 0-10-2 0-1 1-2 11-2h10l2-3 2-2 2 1v2c0 1 1 2 4 2l11 1 6 1c0 2-1 2-11 2-12 0-13 0-13 5 0 2 1 2 11 2l11 1c0 2-1 2-6 2-8 0-9 1-7 4s2 3 9 3c9 0 11 1 9 3-1 1-3 2-7 2l-5 1c0 1 8 4 11 4s3 0 2 2-3 2-5 2l-5 1H81l-1 4v3h12c11 0 12 0 12 2s-1 2-12 2H80v4c0 3-1 6-3 6l-1-2zm13-23l-1-3-2-3-4-1c-2 0-2 0-2 3l2 4h7zm-14-1l1-3c-1-3-1-3-3-3-4 0-11 6-9 6h11zm7-12c0-2-3-5-5-5-1 0-4 4-4 6h4l5-1zm79 37v-15l-1-13h-4l-6-2c-1-1-1-4 2-7l3-4-3-2c-3-2-3-4-2-7 2-2 16-10 17-9 2 1 0 4-5 6l-6 4c-2 2-2 2 0 4 3 2 3 2 7-2 4-3 7-4 8-2 1 1 0 2-1 3-4 2-14 11-14 12 0 2 12 1 14-1v-3c-2-1-1-3 1-3l4 4 2 4 1-9 1-9h11v-4l2-4h2c1 8 1 8 5 8 6 0 6 0 8 4 1 4 2 38 0 42s-4 6-6 6c-3 0-6-3-6-5s2-2 4-1c2 2 3 2 4-1 1-4 1-39-1-40l-4-1h-3l1 7c0 7 2 12 5 14 3 1 2 3-1 3s-5-3-6-7c-1-1-3-2-3 0s-4 7-6 7-2 1-3 11c0 10 0 11-2 11l-1-12v-12l-2-2-4-2c0-2-1-2-3-1-6 2-6 0-6 15l-1 15h-2zm26-30c2-6 4-14 2-16h-6l-1 10c0 7 0 8 2 8l3-2zm-39 26s0-2 2-3c1-2 2-4 2-9 1-6 2-9 4-8 3 2 0 17-3 20-2 2-4 2-5 0zm23-9c-2-10-2-10 0-11 2 0 3 4 3 12 1 5 0 6-1 6-1 1-1-1-2-7zm63-63l-1-6c-1-1-23-2-107-1H19v13h215v-6zm-36-9c34 0 35 0 35-2s-6-9-14-18l-4-4H43l-2 2-12 14c-4 4-7 7-6 8h175zm-165-4h2l-1 1c-1 0-2 0-1-1zm92-2l-83-1 4-7 5-7h76a532 532 0 0177 3l7 11-86 1zm-60-8c2-2 3-4 2-5H53l-8 10h17zm8 1l2-5h-6l-2 4c-3 5-3 6 1 6 3 0 3-1 5-5zm26 0l1-5H79l-6 9h25zm-9 2l1-2 1 2-1 1-1-1zm2-4v-1 1zm26 1v-5h-7c-8 0-10 1-10 4l-1 3v2c0 2 0 2 9 2h9zm9 1l1-4v9h17l-1-4c-1-7 0-7-12-7-11 0-11 0-12 2l-1 6c0 3 0 3 4 2h4zm26 1c-1-6-2-7-5-7h-3v4l1 5c0 1 1 2 4 2h4zm23 3h8l-2-5c-1-4-3-6-6-5-1 1-2 1-1 4l1 4-3-6c0-2-3-2-11-2h-8l1 5v5l11 1 10-1zm32 0l-3-5c-3-5-2-4-15-4h-7l2 5 2 5h10l11-1zm7 3h1-1zm-6-16l3-1v1l-3 1v-1zm-62-7c2-2 3-7 2-9-1-1 0-2 2-5 3-2 4-3 4-6l1-5v3c-1 10-2 9 4 9h6v-6c0-6 0-7-1-6l-5-1c-1-2-3-2-4-2v-1l-3-4-4-7c-2-3-2-3-3-2l-1 6-1 4c-2-1-6-7-7-10 0-3-2-5-2-3l-3 9c-3 6-7 10-10 10-2 0-9-15-9-21l-1-3c-1 0-3 4-3 7l-3 9-2-4-2-4c-1-1-8 12-8 16l-1 3-1 2c0 1 0 2-1 1-2 0-2 0-2 3 0 6 1 8 4 8 2 0 3 0 3-4l-1-7v-2c2 1 4 9 3 14 0 5 0 5 3 8l23 1 23-1zm-9-11c-1-1 0-15 1-16 2-1 3 2 3 8 0 7-1 10-4 8zm-30-1v-7l1-7 2 5v7c0 2-2 3-3 2zm55 3l-4-1-6-1h-2l3 1 3 1h6zM77 88l-1-3h-2v2c2 2 3 2 3 1zm118-13c5-4 4-7-1-13l-6-4v16c1 5 3 5 7 1zM76 55c2-8 1-10-1-3l-1 9 2-6zm112-6l-2-1 1 2 1 1v-2zm-3-7l3-6c2-4 2-6 1-8v-5c2-3 2-8 1-10-3-3-4-2-4 9 0 9 0 11-2 15l-2 5c0 2 2 2 3 0zm-3-8V14l-2-3c-3-3-35 0-40 3-3 1-3 1 6 3 7 1 19 6 24 9l6 7c4 4 5 4 6 1zM80 29h-1 1zm25-5h-2l-4 1 6-1zm-20-7V8c-1-1-3 3-4 9 0 6 0 8 2 8l2-8zm9 5c11-4 23-7 30-7l4-1c0-3-29-9-36-7-3 1-5 5-5 11 0 7 0 7 7 4zm32 0c8-1 14-1 13-2-6-1-29 0-31 2-1 1 0 1 1 1l17-1z"/>
  <path fill="#4c4845" d="M21 250c-4-2-4-3-4-9 1-6 3-9 6-10 2-1 2-2 2-37v-37h-5l-5-1v-8c0-8 0-8 4-12a277 277 0 0120-23l1-2h20c18 0 20-1 20-2-1-7-1-9-3-9-2-1-3-2-2-6 1-2 1-2-2-4s-3-4-1-7c1-2 1-3-1-7a47 47 0 017-39l-2-4c-3-3-3-5-1-7 2-1 2-3 3-9C79 5 82 4 98 4c7 0 11 1 19 3a178 178 0 0017 5h4c0-1 9-4 16-5a115 115 0 0135 2c5 0 7 7 5 12l-2 7c0 4 0 8-2 11l-2 5 2 3 2 4 1 4 2 3 3 5c4 4 5 7 2 11-1 3-6 8-8 8s-2 2-1 4c2 3 0 4-3 3s-3-1-3 2l-1 5-2 4c0 4-1 6-3 4-1-1-3-1-3 1l-2 2-2 1c-2 3-4 2 21 2l22 1 12 12 9 12v10c0 12 0 12-5 12h-2v35c0 36 0 36 5 41 1 2 2 3 1 8 0 11 11 10-109 10l-105-1zm210-5c2-2 1-11 0-12-2-2-3-2-3 0v3H23l-1 2-1 5v4l105-1 105-1zm-12-11h6v-78l-98 1H29v38l1 39h189zM77 224l-1-5v-3H64c-10 0-12-1-12-2l6-2h12c6 0 7-1 6-5v-3h-7c-5 0-8-1-8-2h-7l-6-1c0-1 2-3 5-3s9-2 9-4-2-2-6-1h-7l-1-2 15-3c4 0 7-1 7-4 0-1-1-2-8-2-6 0-7 0-7-2l8-1c8 0 9-1 10-2 2-4 1-5-10-5-8 1-10 0-10-1l-1-2h11c10 0 11 0 13-4 1-2 4-1 4 1-1 2 1 3 11 3h10v2c-1 1-3 2-11 1l-12 1-1 3v3h11l10 1c0 1-1 2-6 2l-7 1v2c0 3 2 4 10 5 9 0 11 1 9 3l-7 1-6 1 11 5c3 0 3 2 1 3l-4 1H80v7h4c19 0 22 1 19 3l-13 1H80v4c0 4-2 7-3 5zm13-24l-2-3-3-3-3-2c-2 1-3 7-1 8h9zm-14-3c0-3 0-4-3-4-3-1-3-1-6 2l-4 4 7 1h6zm6-9l-1-3c-1-4-5-4-7 0-2 3-1 3 3 3h5zm115 35c-2-2-2-3-1-4h2c2 2 4 2 5-1 1-4 2-35 1-38s-2-3-5-3h-4v4c1 9 2 13 6 17 2 2 2 2 0 3-2 0-5-2-6-5l-3-4-2 4c-2 3-3 4-5 4l-3 1v11c0 9 0 11-2 11l-1-13c0-11 0-13-2-13l-3-2c-2-2-2-2-6-1l-3 1-1 14c0 13 0 15-2 15l-1-14-1-15h-5c-6-1-7-2-3-7 3-4 3-5 0-7-4-3-3-5 1-9 5-4 14-8 15-7 0 2-2 4-6 6s-7 5-7 6 2 3 4 3l5-3c3-3 6-4 7-2l-8 8-8 7h13c2 0 3-2 1-5 0-2 0-2 2-2l3 4c4 7 5 5 5-5v-9h11v-4l2-4 2 4v4h6c5 1 6 1 6 3l1 2c2 2 1 37 0 41-2 4-2 4-5 5-2 1-3 0-5-1zm-10-30l1-5 1-3 1-4c0-4 0-4-4-4h-3l-1 9 1 10c0 2 3 1 4-3zm-39 27l1-2c2-2 3-3 4-13 1-5 2-5 3-4l1 4a1207 1207 0 00-3 14c-2 2-4 2-6 1zm24-2l-1-7-1-7c-1-1 0-4 1-4 2 0 5 18 3 18h-2zm61-64l1-7-1-6H19v14h106l108-1zm-3-15l4-2-10-12-9-10H43l-1 2-16 16c-2 3-4 5-3 6h207zm-196-4h1c1 1 0 1-1 1v-1zm181-2h1-1zm-173-1l4-7 5-6 2-1c1 0 1 1-4 6l-5 6 9 1h9l3-5c3-5 3-7 0-7h-5a1719 1719 0 01144 0 74 74 0 008 13 3760 3760 0 01-170 0zm134-2h1l4 1 4-1-2-4-2-5-3-1c-3 0-3 1-3 4 0 2 0 2-1 1l-1-3c0-2-2-2-10-2-9 0-10 0-9 3h-1l-1-2-4-1c-3 0-3 0-3 3 0 4 0 4-1-1l-1-2h-41l-1 3-1 3 1-3v-3H78l-3 4-2 6 13 1c13 0 13 0 13-2v-2 2c1 2 1 2 14 2h14v-9l1 4v5h8c8 0 9-1 9-2s0-1 0 0c1 2 4 2 19 2l12-1zm-58-4l1-1v3l-1-2zm36 1v-1 1zm-81-1c3-5 3-6 0-6-3-1-5 0-4 1l-2 4-3 5 4 1c3 0 3-1 5-5zm135 4l-3-6-3-4h-10l-9 1 2 5 2 5h10l11-1zm-61-20c2-2 4-8 2-9-1-1 1-4 3-4l2-2c1-1 1-1 1 1s2 3 7 3l4-1v-7c0-7 0-8-1-7l-5-1c-3-2-7-6-12-15-2-2-3 0-4 6 0 4 0 4-1 3-2-1-6-9-6-11 0-3-2-1-4 4l-3 7-1 2-3 3-3 3-3-2c-2-3-7-16-7-20l-1-3c-1-1-3 3-3 7l-1 5c-1 2-1 3-2 2l-3-4-1-3-2 3c-3 4-6 10-6 13l-1 3-1 3-1 1c-2 0-2 0-2 4 0 6 1 7 4 7h3v-5l-1-8 1 1 2 10v8l3 2c2 2 4 2 23 2l23-1zm-9-12c-1-6 1-18 3-14v14c-1 2-2 2-3 0zm-30 0v-7l1-7 1 6c1 8 0 10-2 8zm47-8v-1 1zm9 11c1-1 1-1-2-1l-7-1h-4l2 1 3 1c2 2 6 1 8 0zM77 87c0-3-1-4-3-3-1 1-2 2 0 4s3 1 3-1zm115-9c3-2 6-5 7-8 0-2-1-3-5-8l-7-5c-1 1 1 22 2 22l3-1zM78 53c2-1 2-1 1-2v-4-4c-2 0-7 15-6 19 1 2 1 2 2-2l3-7zm43 2v-2l-3 1-1-1-1-2v2l1 2 1 1c0 1 1 1 3-1zm53-3l-3-8c-2 0-1 2 1 7s3 6 2 1zm14-2v-2h-2v2c1 2 3 2 2 0zm-2-8c4-11 5-12 3-14l1-7c2-5 1-8-2-9s-3 1-2 6c1 6 0 15-3 20l-1 4c1 2 3 2 4 0zm-4-8c2-3 2-18 0-21l-1-3h-13l-20 1c-12 3-14 4-5 6 12 1 26 8 33 15l5 5 1-3zm-99-5l-3-1c-3 0-4 0-3 1l2 1 4-1zm24-5l21-1 18-1c1 0-8-3-13-3-9-1-28 2-37 6l-3 2 5-1 9-2zm-23-4l1-8c1-3 0-5-2-3-2 1-3 13-2 15l2 1 1-5zm12 2l26-7 7-1c0-3-29-9-37-7-2 0-3 1-4 4l-1 8c0 6 1 6 9 3z"/>
  <path fill="#594738" d="M21 250c-4-2-4-3-4-9 1-6 3-9 6-10 2-1 2-2 2-37v-37h-5l-5-1v-8c0-8 0-8 4-12a277 277 0 0120-23l1-2h20c18 0 20-1 20-2-1-7-1-9-3-9-2-1-3-2-2-6 1-2 1-2-2-4s-3-4-1-7c1-2 1-3-1-7a47 47 0 017-39l-2-4c-3-3-3-5-1-7 2-1 2-3 3-9C79 5 82 4 98 4c7 0 11 1 19 3a178 178 0 0017 5h4c0-1 9-4 16-5a115 115 0 0135 2c5 0 7 7 5 12l-2 7c0 4 0 8-2 11l-2 5 2 3 2 4 1 4 2 3 3 5c4 4 5 7 2 11-1 3-6 8-8 8s-2 2-1 4c2 3 0 4-3 3s-3-1-3 2l-1 5-2 4c0 4-1 6-3 4-1-1-3-1-3 1l-2 2-2 1c-2 3-4 2 21 2l22 1 12 12 9 12v10c0 12 0 12-5 12h-2v35c0 36 0 36 5 41 1 2 2 3 1 8 0 11 11 10-109 10l-105-1zm210-5c2-2 1-11 0-12-2-2-3-2-3 0v3H23l-1 2-1 5v4l105-1 105-1zm-12-11h6v-78l-98 1H29v38l1 39h189zM77 224l-1-5v-4l-8-1-8 1h-8v-1c0-1 8-2 19-2h6l-1-4v-4h-7c-6 0-7-1-9-2-1-2-2-2-2-1H48c0-1 2-3 5-3l7-2h1l1-2c0-2 0-2-3-2l-4 1c-1 1-5 1-6-1s-1-2 3-2l4-1h6c5 0 6-1 7-2 3-4 3-5-6-5-7 0-8 0-8-2l8-1c9 0 11-1 11-4s-2-5-2-4l-10 1-9-1v-2h11c8 0 11-1 11-2l1-1v-1c0-2 1-2 3 0v1 2l11 1c10 0 12 0 11 2l-10 1-10-1c-3-1-6 4-4 7l11 1 10 1c0 1-1 2-6 2l-8 1v1l1 2c0 3 2 4 11 4l8 1c1 2-2 3-7 3-7-1-9 0-6 2l2 1 6 2 2 1c2 0 2 0 2 2h-4l-4 1c-2 1-3 2-8 1l-7 1a1203 1203 0 010 6h10c11 0 15 1 13 2l-12 1c-12 0-11 0-11 6 0 3-2 6-3 4zm14-24l-2-2c-1-1-2-1-1-2h-1l-1-2c0-2-6-3-6-1v3c-1 4 2 6 8 5l3-1zm-15-4v-4h-3c-3 0-4 1-7 3-4 4-4 5 4 5h6zm7-8l-1-2-1-2c0-1-1-2-3-2s-3 1-4 3v3h9zm114 34c-2-2-2-2-1-3s1-1 3 1 4 1 4-1l1-1v-19c0-22 0-23-6-22-4 0-5 0-4 2l1 5 1 3v3l1 3 1 1s0 2 2 3c1 1 2 2 1 3s-5-1-6-4c-1-5-3-5-5-2-1 4-3 6-5 6-2 1-2 1-3 12 0 9 0 11-2 11l-1-9c0-19 0-18-2-17-1 0-2 0-3-2 0-2-1-3-2-3l-4 2c-4 1-4 1-4 6 0 19 0 24-2 24l-1-15v-14l-6-1c-7 0-7-1-3-6l3-4c0-1-3-4-5-4-1 0-1-5 2-6l3-3 10-5 1-1h1c1 1-1 4-6 6l-6 4c-1 2-1 2 1 4s4 2 7 0c3-4 6-5 7-4 2 0 2 0 0 2l-2 1-3 3-4 3c-1 0-7 6-6 7h11l3-1c1 0 2 0 2-2l-1-3c-2-1-1-2 1-2l3 4 3 4c1 0 2-1 2-9v-9h11v-4l2-4 2 4v4h5c6 0 7 1 7 4l1 2a229 229 0 01-1 41c0 2-1 3-5 4-1 1-3 0-4-2zm-10-29l2-6v-1l1-5v-4h-8v10c0 9 0 10 2 10l3-4zm-39 27l1-2c2-1 4-6 4-8v-1-4c1-5 2-6 3-3l1 6-1 5c0 4-5 10-8 7zm24-1a229 229 0 01-3-16l1-2c1-2 2-1 2 2l1 2 1 5a371 371 0 000 8l-2 1zm61-65l1-7-1-6H19v14h106l108-1zm-3-15l4-2-10-12-9-10H43l-1 2-16 16c-2 3-4 5-3 6h207zm-196-4h1c1 1 0 1-1 1v-1zm181-2h1-1zm-173-1l4-7 5-6 2-1c1 0 1 1-4 6l-5 6 9 1h9l3-5c3-5 3-7 0-7h-5a1719 1719 0 01144 0 74 74 0 008 13 3760 3760 0 01-170 0zm134-2h1l4 1 4-1-2-4-2-5-3-1c-3 0-3 1-3 4 0 2 0 2-1 1l-1-3c0-2-2-2-10-2-9 0-10 0-9 3h-1l-1-2-4-1c-3 0-3 0-3 3 0 4 0 4-1-1l-1-2h-41l-1 3-1 3 1-3v-3H78l-3 4-2 6 13 1c13 0 13 0 13-2v-2 2c1 2 1 2 14 2h14v-9l1 4v5h8c8 0 9-1 9-2s0-1 0 0c1 2 4 2 19 2l12-1zm-58-4l1-1v3l-1-2zm36 1v-1 1zm-81-1c3-5 3-6 0-6-3-1-5 0-4 1l-2 4-3 5 4 1c3 0 3-1 5-5zm135 4l-3-6-3-4h-10l-9 1 2 5 2 5h10l11-1zm-61-20c2-2 4-8 2-9-1-1 1-4 3-4l2-2c1-1 1-1 1 1s2 3 7 3l4-1v-7c0-7 0-8-1-7l-5-1c-3-2-7-6-12-15-2-2-3 0-4 6 0 4 0 4-1 3-2-1-6-9-6-11 0-3-2-1-4 4l-3 7-1 2-3 3-3 3-3-2c-2-3-7-16-7-20l-1-3c-1-1-3 3-3 7l-1 5c-1 2-1 3-2 2l-3-4-1-3-2 3c-3 4-6 10-6 13l-1 3-1 3-1 1c-2 0-2 0-2 4 0 6 1 7 4 7h3v-5l-1-8 1 1 2 10v8l3 2c2 2 4 2 23 2l23-1zm-9-12c-1-6 1-18 3-14v14c-1 2-2 2-3 0zm-30 0v-7l1-7 1 6c1 8 0 10-2 8zm47-8v-1 1zm-60 19l-2-1-2 1 2 1 2-1zm65-1c1-2 1-2-3-3s-5-1-5 2 6 5 8 1zm8-3c-1-1-1 0-1 1s0 2 1 1v-2zm-4-4c1-1 1-1-2-1l-7-1h-4l2 1 3 1c2 2 6 1 8 0zM83 91c0-5 0-6-2-4v8c1 0 2-1 2-4zm98-2c0-4 1-5 4-4l1-2-2-12c-1-13-2-20-4-25-6-13-15-20-36-26-13-3-30-2-47 5l-15 3h-6l4 4 3 4-4 6c-4 6-7 15-6 21l5 16 1-5c-1-6 3-19 5-19v6c0 7 2 17 4 21 2 3 4 4 4 2 0-4 0-6 3-10 3-5 8-11 9-10l1 3c1 3 1 3 2-3a105 105 0 003-20c0-5 4-16 5-16v13c0 13 1 21 4 31 2 7 3 7 7 0 3-3 5-8 6-11 2-5 3-7 3-4l1 3 3 4 2 6 2 2v-3c0-4 2-9 3-9l3 4 11 16 3 2v-7c0-7-2-17-4-21-1-4 1-4 4 0s6 10 6 15l2 9c1 3 1 3 2 2 5-7 3-31-3-38-2-2-4-7-3-7l3 3c6 6 10 19 10 29l-1 9-1 6 1 5c1 5 2 6 2 2zM77 87c0-3-1-4-3-3-1 1-2 2 0 4s3 1 3-1zm115-9c3-2 6-5 7-8 0-2-1-3-5-8l-7-5c-1 1 1 22 2 22l3-1zm-4-28v-2h-2v2c1 2 3 2 2 0zm-1-12c2-3 3-6 3-10l1-9c0-4-1-7-3-8-3 0-3 2-2 8 1 5 0 14-3 19l-1 4c1 3 3 1 5-4zm-5-4c2-3 2-18 0-21l-1-3h-13l-20 1c-12 3-14 4-5 6 12 1 26 8 33 15l5 5 1-3zM85 17c1-8 0-10-2-8-2 1-3 13-2 15 2 2 3 1 4-7zm11 5l26-7 7-1c0-3-29-9-37-7-2 0-3 1-4 4l-1 8c0 6 1 6 9 3z"/>
  <path fill="#4e3329" d="M71 250H20l-2-2-1-7c1-5 3-8 6-10 2-1 2-5 2-38v-36h-3c-7 1-7 0-7-9s-1-8 12-21l10-11 4-5h20l20-1-1-6c-1-4-2-5-3-5-2 0-2-2-1-5 0-2 0-3-3-4-3-2-4-5-1-6v-7c-1-2-3-13-2-18 1-6 5-17 7-20 2-2 2-4 0-5l-3-6 2-2 2-3c-1-2 2-14 3-16l12-3c5-1 16 1 25 3a897 897 0 0020 5l8-4c10-2 31-2 43 0 5 2 7 8 4 13v7l-1 7-3 6c-1 4-1 4 1 6l2 4 1 4 2 3 3 6 4 5c0 4-4 10-8 12-4 1-4 2-3 5 2 3 0 4-3 3s-3-1-4 3l-2 8c-1 5-1 5-3 4s-2-1-5 2l-3 4 23 1h22l4 4 10 12 6 8v11l-1 11h-4c-2-1-2 0-2 35a305 305 0 002 38l2 3c2 2 3 3 3 8 0 10 2 10-61 9H71zm160-4v-14c-2-2-3-1-3 1v3l-90-1H48h88l88-1 1-77-195-1h-2v38a438 438 0 000 42l-3-1c-2-3-6 6-4 11l105 1 105-1zM43 235h1-1zm33-16v-4H52v-2l12-1 13-1-1-3v-4h-7c-6 0-7-1-9-2-1-2-1-2-2-1-2 1-9 1-9-1l1-1h3l7-3h1l1-2c0-2 0-2-3-2l-5 1h-4c-2-2-1-3 2-3l4-1h6c5 0 6-1 7-2 3-4 3-5-6-5l-8-1c-2-2 1-2 9-2s10-1 10-4-2-5-2-4c-1 2-17 2-18 0l-2-1 11-1h12l1-3c1-2 3-3 3-1 0 4 1 4 11 4s11 0 10 1c0 2-1 2-8 2l-10-1-4 1c-2 2-2 5-1 6l11 1c8 0 9 0 10 2l-7 1-7 1v1l1 2c0 3 2 4 9 4l9 1c2 1 0 2-5 2-6 0-8 0-8 2l11 5 2 1c0 2-1 2-3 1l-5 1c-2 1-3 2-8 1l-7 1v3c-1 3 0 3 13 4l10 1-11 1c-13 0-13 0-12 5 0 2-1 5-3 5l-1-5zm14-19l-1-3-3-3c-2-2-6-3-6-1v7c3 2 10 2 10 0zm-14-4v-4h-3c-3 0-4 1-7 3-4 4-4 5 4 5h6zm6-8v-3c-1-3-2-3-5-3l-4 3c-1 3 1 4 6 4l3-1zm79 35v-28h-5c-6 0-7-2-5-6l3-3c2-1 2-3-2-5-3-3-3-3-2-5l2-3 3-1c2-3 11-7 12-6s-2 3-6 5l-6 4c-1 2-1 2 1 4s4 2 7 0c3-3 6-5 7-4s1 2-1 3l-9 6c-5 5-6 6-4 7h10l3-1c2 0 2-2 1-5-1-2-1-2 1-2l4 7 2 1c1 0 2-1 2-9v-8h6l5-1v-3l2-5c2 0 2 1 2 4v4h5c4 0 6 1 6 2 1 1 2 6 2 23 0 21 0 22-2 24s-6 3-8 0c-3-3-1-5 2-2 2 2 2 2 4 0l1-22c0-23 1-22-9-21l1 10v3c0 3 2 6 5 8v2c-1 1-5-1-6-4-1-4-4-5-4-2-1 3-4 6-7 6l-2 12c0 9 0 11-2 11l-1-22c0-4-1-5-2-5s-2 0-3-2l-2-2-4 2c-4 1-4 1-4 6l-1 23h-2zm26-30c2-3 3-7 3-10v-6h-8v10c0 9 0 10 2 10l3-4zm-38 27l1-3c2-2 4-9 4-13l1-3c2 0 2 2 1 5v6c0 3-2 7-5 9l-2-1zm23-6l-1-8-1-3v-2c1-2 2-1 2 2l1 3 1 4 1 5-2 4-1-5zm61-66v-7H19a103 103 0 000 11v3l107-1h107zm1-11l-9-12-9-10h-83a7065 7065 0 00-92 1l-9 12-10 10 106 1c105 0 105 0 106-2zm-191-5c0-2 9-14 10-14v2l-5 5-3 6-1 1h-1zm12 0l8-2c1-2 1-2 2 0 0 2 0 2-8 2h-2zm15-1l2-2 1 1c1 2 1 2 10 1l10 1H80c-9 0-12 0-10-1zm26 0c2 0 3-1 3-2 0-2 0-2 0 0 1 2 1 2 11 2l11 1h-13c-10 0-14 0-12-1zm30 0h2l3 1h-3c-4 0-4 0-2-1zm10 1h2-2zm7 0l3-2c1 2 1 2-1 2h-2zm11 0v-1l2 1h-2zm6 0l8-1a178 178 0 0011 0c3 1 6 0 6-2-1-2-1-2 1 0l2 2h22c1 1-6 1-25 1h-25zm45-8l-3-4h-10c-11 0-10 0-9 5l-1-1c-2-4-2-5-5-4-2 0-3 1-3 2 0 2 0 2-1 0 0-2 0-2-9-2l-11 1h-1l-5-1-2 2-1 3v-3l-1-2a16102 16102 0 01-64 0l-4 4-1 1c2-4 1-5-1-6l64-1h66l2 4a393 393 0 000 2zm-51 3v-1 1zm-87-4l1-3 1-2v3l-1 2c-1 2-2 2-1 0zm-3-4h1-1zm83-9c2-1 2-2 2-3l1-3v-2c-1-2-1-4 1-4l2-2 2-2v2c0 2-1 3-2 3-3 0-2 1 2 2h9c5-1 4-2-2-2h-6 5l6-2v-2l-1-2 1-1 1 1v-4l-1-3c0-1-1-2-3-2-6-1-9-4-14-14-3-4-3-4-4-3l-2 6-1 4-6-12c0-2-2-1-3 2-2 8-6 14-10 16-2 1-2 1-4-1-3-5-7-16-7-21l-1-1c-1 0-3 3-3 6s-1 7-3 7c-1 1-1 0-2-2l-1-3c-2 0-9 11-9 15l-1 3-1 3-2 1c-2 0-2 0-1 5 0 6 0 6 4 6l3 1v-6-6l2 13c-1 4 0 4 2 6 3 2 4 2 24 2l23-1zm-8-12c-2-2-1-14 1-14l1 6c0 8 0 10-2 8zm-31-6v-7c1-3 2 0 2 6l-1 7-1-6zm-13 17l-2-1-2 1 2 1 2-1zm65-1c1-2 1-2-3-3s-5-1-5 2 6 5 8 1zm8-3c-1-1-1 0-1 1s0 2 1 1v-2zm-75-1h-2l1 1 1-1zM83 91c0-5 0-6-2-4v8c1 0 2-1 2-4zm98-2c0-4 1-5 4-4l1-2-2-12c-1-13-2-20-4-25-6-13-15-20-36-26-13-3-29-2-47 5-10 3-14 4-18 3-4-2-4 0 0 4s4 5 1 9c-5 5-8 15-7 22l5 16 1-5c-1-6 3-19 5-19v6c0 7 2 17 4 21 2 3 4 4 4 2 0-4 0-6 3-10 3-5 8-11 9-10l1 3c1 3 1 3 2-3a105 105 0 003-20c0-5 4-16 5-16v13c0 13 1 21 4 31 2 7 3 7 7 0 3-3 5-8 6-11 2-5 3-7 3-4l1 3 3 4 2 6 2 2v-3c0-4 2-9 3-9l3 4 10 15 4 4v-8c0-7-2-17-4-21-1-4 1-4 4 0s6 10 6 15l2 9c1 3 1 3 2 2 5-7 3-31-3-38-2-2-4-7-3-7l3 3c6 6 10 19 10 29l-1 9-1 6 1 5c1 5 2 6 2 2zM77 86c0-2-3-3-4-1 0 1 1 4 3 4l1-3zm116-8c3-2 5-5 6-8 0-2 0-3-5-8l-7-5v10c1 13 1 13 6 11zm-6-30c-2-1-3 0-1 2 2 3 2 3 2 1l-1-3zm1-11c2-4 2-6 2-9-1-2 0-5 1-8 1-4 0-7-3-8h-2v7c1 5 0 14-3 19l-1 5c2 2 3 1 6-6zm-5-5c1-4 1-14-1-19l-1-3h-14c-13 0-23 1-28 4-3 1-2 2 5 3 13 2 26 8 32 16l5 4 2-5zM85 19l1-9c1-3-3-3-4 0-2 4-2 12-1 14 2 4 3 2 4-5zm10 4c9-4 17-6 23-7 9 0 11-1 11-2 0-2 0-2-9-4-8-3-23-4-28-3-4 0-5 3-5 11 0 6 0 6 2 6l6-1z"/>
  <path fill="#312d2a" d="M19 248l-1-7c0-5 1-8 4-9l3-2v-33-40l-5-1h-4l-1-8v-7l3-4a537 537 0 0121-23l2-3h40l-1-3-1-6c0-3 0-3-2-3s-2-1-2-2c2-4 2-5-2-7-3-3-3-4-1-6v-9c-4-9-1-25 4-34l3-5-2-2-3-6 9 8-3 4c-6 7-9 18-6 30 1 6 4 11 5 9v-6c-1-5 3-17 5-17l1 10c0 9 2 18 5 21 2 1 2 3 0 3s-2 0-2 5l1 6 4 1h3V90l1 4v8c0 5 1 7 6 9 4 2 40 2 44 0l2-3 1-3v-7h1c-1 1 0 2 1 3h1l4 1c5 1 9 0 10-3l2-3c1 0 0-9-2-11 0-2-1-2-2-2s-2-1-2-3v-5c1-1-1-14-3-19l-1-4c1-1 7 6 8 10l2 10 2 8c1 2 1 2 2 0l3-7c2-11 0-21-6-31-3-5-4-6-2-6l10 16c1 5 2 8 1 16l-1 11v3l1 6 1 4 2-4c0-3 0-4 3-3 2 1 2 0 1-1l-2-16a53 53 0 00-2-14c-2-12-9-22-19-27-7-4-18-7-27-8-11-2-26 0-42 6-8 4-11 4-16 2-2-1-3-1-1-2l1-2c-1-2 2-14 3-16 3-3 19-4 29-1a9088 9088 0 00-3 1C95 5 90 5 88 9v15c1 1 8-1 10-3l23-5c7 0 9-1 8-3 0-2 3-3 5-1 2 1 2 1 5-1 7-3 11-3 29-3l22 1c5 3 6 7 2 14v11l-3 7v5l3 4 1 5 2 4 2 4c4 3 5 5 4 9s-7 10-10 10v8l-3-1c-4-1-4-1-4 2l-1 5-1 3-1 4c-1 2-1 2-2 0h-3l-3 4-2 3 22 1h23l2 3 11 12 8 9-1 11v10h-3l-4 1v35c0 28 1 35 2 38l2 3 2 3c1 5-1 14-3 12l-1 1-106 1c-94 0-105 0-106-2zm210-2c2 0 3 0 3-6l-1-7c-1-2-3-2-4 0 0 2 0 2-7 2h-2c6 0 7-1 7-2l1-40-1-37H29a1158 1158 0 00-1 80l-2-1c0-2-2-1-4 1l-2 6v5h103l106-1zm-34-11h1-1zm11 0h2-2zM76 219v-4h-8a1159 1159 0 00-16-2l12-1 12-1v-4c0-4 1-4-9-3-4 0-5-1-6-2-1-2-2-2-3-1h-9l3-2c5 0 10-3 10-5s0-2-6-2h-7v-1l9-1c8-1 9-1 11-3 4-4 3-5-6-5l-8-1 8-1c9-1 11-1 11-6 0-2-1-4-2-2-1 1-17 1-19-1v-2h21l2-3c1-2 4-3 3 0-1 2 2 3 10 3 10 0 12 0 11 2s-14 2-18 0c-4-1-7 3-5 7 0 1 2 2 11 2l10 1-6 1c-9 0-9 0-6 5l1 3h8c8 1 11 2 3 3-5 0-8 1-8 2 0 0 8 5 11 5l2 2h-3l-6 1c-1 1-3 2-8 1-6 0-6 0-7 2-1 5 0 5 12 6l12 1-12 1-11 1-1 4c-1 6-2 6-3 0zm14-19l-1-3-3-3c-2-2-6-3-6-1-1 3-1 5 1 7 1 2 9 2 9 0zm-14-4v-4h-3c-3 0-5 1-7 3-4 4-4 5 4 5h6zm6-8v-3c-1-3-2-3-5-3l-4 3 1 3h8zm79 35v-28l-5-1c-5 0-5 0-5-2l2-5 3-3-5-4v-5l1-2 3-2c3-3 12-7 12-5 0 1-2 4-4 4-3 1-9 5-9 7 0 1 3 3 6 3l4-2c3-3 7-4 6-2l-1 2-4 2-3 3c-2 0-8 7-8 8h13c4-1 4-1 3-5 0-4 1-4 4 1l3 4c2 0 2-1 2-7 0-11 0-11 6-11h5v-3c0-4 2-6 3-4l1 4v3h5c4 0 6 1 6 2 1 1 2 6 2 23 0 21 0 22-2 24l-4 2c-3 0-5-2-5-4s1-2 2 0c2 2 3 2 5-1l1-21-1-21h-8v6c1 7 2 12 5 14l2 3h-2c-2 0-4-1-5-5-1-3-3-3-5 0s-3 4-6 5c-2 1-2 2-2 11l-1 11c-2 2-2 3-2-12 0-14 0-14-2-14-1 0-2 0-3-2s-3-2-8 0c-2 1-2 2-2 15 0 12-1 16-3 14zm27-30l2-10c1-7 0-7-5-6h-3v10c0 10 0 10 2 10l4-4zm-40 26l2-1c1 0 3-5 4-12l1-5c1 0 2 1 1 7l-1 8-2 2c-1 2-5 3-5 1zm24-6c-2-11-2-12-1-12s2 2 2 7c2 9 2 9 1 10-1 0-2-2-2-5zm62-65l-1-7v-2c2-2 0-5-9-15l-8-9-87-1H43l-3 4a379 379 0 01-18 21v1l-3 1-1 6v7h216zm-202-8l1-1 1 1h-2zm152-9l12 1h-6l-6-1zm19 1h1-1zm5 0l1-2 1 1c0 2-1 2-2 1zm-145-1h0c-1 0-1 0 0 0zm113 0l1-1c1 1 1 2-1 2v-1zM50 121l2-2v1l-2 1zm152 0l-10-1-11-1 11-1c10 0 11 0 12 2v2l-2-1zm-126-1v-1c2-1 3 0 2 1h-2zm76 0l-3-1 14-1 17 1h-12a60 60 0 00-16 1zm-51-1l1-1 2 1h-3zm35 0h-8l8-1 9 1-1 1-8-1zm-26-1l2 1h-1c-2 0-2 0-1-1zm7 0h7c2 1 0 1-4 1-3 0-5 0-3-1zm-22-8v-1l-3-1c-1 0-3 1-2 2h5zm65-2c2-2 2-3-2-3l-3-1c-3-2-4 3-2 5 3 3 5 2 7-1zm9-2l-2-2v2c0 2 2 2 2 0zm-75-2h-3l1 1 2-1zm-12-4v0zm1-7c0-8 0-8-2-6l-1 5c-1 2-1 3 1 3 1 1 2 1 1 2v1l1-5zm-5-5c0-2-2-5-4-5-2 1-1 5 0 6 2 1 4 1 4-1zm117-12l4-5c1-3 1-3-5-9l-7-6 1 22c1 2 4 1 7-2zm-7-28l-2-1c-2 0-1 2 0 4h2v-3zm-3-5l2-2 2-5 1-8c-1-3 0-5 1-7 2-5 0-10-5-10l-1 11c0 10 0 12-2 16l-1 5c1 2 1 2 3 0zm-3-7c3-5 3-22 0-25-2-2-10-2-24-1-10 0-14 1-20 3-3 2-1 3 5 4a65 65 0 0128 11l5 5 4 5 2-2zM85 24l1-10-1-7c-2 0-4 4-4 10-1 6 0 9 2 9l2-2zm54 67l1-7 1 7-1 7c-1 1-1-1-1-7zm14 7l1-1v1l-1 1v-1zm-45-3v-7l1-5 1 4-1 11-1-3zM92 85c0-3 3-11 7-16 3-5 6-6 6-3v5l1 2-2-3-2-2c-2 0-7 9-8 15-1 3-2 4-2 2zm28-3c-3-5-6-13-7-20l-1-3c-1 0-3 3-3 6s0 5-2 5v-3l2-17c1-9 4-22 6-22v16a71 71 0 004 30l1 3 2 2 3-5a41 41 0 015-6l1-3 2-7c1-3 2-3 2-1l2 4 2 4 2 6 2 3v-5l1-7c1-2 4-2 4 0v2l3 5 6 8c4 4 4 5 2 4-2 0-8-8-11-13l-2-2-2 8-1 3-6-11c0-3-2-3-3 0-1 6-4 10-4 10l-1 2c0 1-5 6-7 6l-2-2zm4-72h2c1 0 1 1-1 1l-1-1z"/>
  <path fill="#382218" d="M19 248l-1-7c0-5 1-8 4-9l3-2v-33-40l-5-1h-4l-1-7c0-9 0-9 13-23l11-12 2-3h40l-1-3-1-6c0-3 0-3-2-3s-2-1-2-2c2-4 2-5-2-7-3-3-3-4-1-6v-9c-4-9-1-25 4-34l3-5-2-2-3-6 7 7c1 1 0 3-2 6l-5 9c-2 9-1 21 3 29l1 2 2-3 1-10c0-11 2-12 3-1 0 8 3 16 6 19 2 2 2 4 0 4s-2 0-2 5l1 6 4 1h3V90l1 4v8c0 5 1 7 6 9 4 2 40 2 44 0 2-2 3-3 2-5 0-1 2 0 3 3l2 2h7c7-1 8-1 8-5 0-2-1-2-2-2h-13c-3 0-6-4-4-6h1c-1 2 3 4 9 4 7 0 9-1 8-2l-1-2c1-1 3 2 3 4s2 1 3-1l2-2 2-1 2 1 2-7c2-6 2-6 4-6s2 0 2-2l-2-12c-2-20-3-25-9-34-3-6-5-7-13-11-7-4-11-5-23-8-12-2-26-1-44 6l-12 3c-9-1-9-2-7-3l1-2c-1-2 2-14 3-16 3-3 19-4 29-1a9088 9088 0 00-3 1C95 5 90 5 88 9v15c1 1 8-1 10-3l23-5c7 0 9-1 8-3 0-2 3-3 5-1 2 1 2 1 5-1 7-3 11-3 29-3l22 1c5 3 6 7 2 14v11l-3 7v5l3 4 1 5 2 4 2 4c4 3 5 5 4 9s-7 10-10 10v8l-3-1c-4-1-4-1-4 2l-1 4-1 3-1 5c-1 2-1 2-2 0h-3l-3 4-2 3 22 1h23l2 3 11 12 8 9-1 11v10h-3l-4 1v35c0 36 1 37 4 42 3 3 2 16-1 14l-1 1-106 1c-94 0-105 0-106-2zm210-2c2 0 3 0 3-6l-1-7c-1-2-3-2-4 0 0 2 0 2-7 2h-2c6 0 7-1 7-2l1-40-1-37H29a1158 1158 0 00-1 80l-2-1c0-2-2-1-4 1l-2 6v5h103l106-1zm-34-11h1-1zm11 0h2-2zm28-87l-1-7v-2c2-2 0-5-9-15l-8-9-87-1H43l-3 4a379 379 0 01-18 21v1l-3 1-1 6v7h216zm-202-8l1-1 1 1h-2zm152-9l12 1h-6l-6-1zm19 1h1-1zm5 0l1-2 1 1c0 2-1 2-2 1zm-145-1h0c-1 0-1 0 0 0zm113 0l1-1c1 1 1 2-1 2v-1zM50 121l2-2v1l-2 1zm152 0l-10-1-11-1 11-1c10 0 11 0 12 2v2l-2-1zm-126-1v-1c2-1 3 0 2 1h-2zm76 0l-3-1 14-1 17 1h-12a60 60 0 00-16 1zm-51-1l1-1 2 1h-3zm35 0h-8l8-1 9 1-1 1-8-1zm-26-1l2 1h-1c-2 0-2 0-1-1zm7 0h7c2 1 0 1-4 1-3 0-5 0-3-1zm-21-8c0-1-1-2-3-2-3-1-3 0-3 1 0 2 0 2 3 2l3-1zm-10-5v-2-7-1-5c1-1 1-2-1-5l-2-6c-1-2-1-1-2 6-2 9-2 11-1 11s2 1 2 3c0 5 1 9 3 9l1-3zm8-1h-3l1 1 2-1zM78 88c0-2-2-5-4-5-2 1-1 5 0 6 2 1 4 1 4-1zm117-12l4-5c1-3 1-3-5-9l-7-6 1 22c1 2 4 1 7-2zm-7-28l-2-1c-2 0-1 2 0 4h2v-3zm-2-6l2-3 1-4 1-6 1-8c2-6 0-10-5-10l-1 11c0 10 0 12-2 15-2 4-2 7 0 7l3-2zm-4-6c3-5 3-22 0-25-2-2-10-2-24-1-10 0-14 1-20 3-3 2-1 3 5 4a65 65 0 0128 11l5 5 4 5 2-2zM85 24l1-10-1-7c-2 0-4 4-4 10-1 5 0 9 2 9l2-2zm54 67l1-7 1 7-1 7c-1 1-1-1-1-7zm14 7l1-1v1l-1 1v-1zm-45-3v-7l1-5 1 4-1 11-1-3zM92 85c0-2 3-11 6-14 5-7 6-7 6-4 1 2 0 2-1 1s-1 0-3 1c-2 3-6 10-6 14-1 2-2 4-2 2zm79-1h-4l-3-1v-9l-2-14v-5c2 2 4 10 4 15l1 4 3 5 2 4 1-3 2-4c2-3 2-14 1-19l-3-11a762 762 0 011 0c4 7 5 11 5 19 0 9-2 16-5 19-2 2-2 2-3 0zm-51-2l-5-15-1-3-1-3-1-3c-1 0-3 4-3 8l-1 4c-2 0 1-12 3-13v-8l3-18v10c-1 14 1 24 5 34l4 8v-1l1-1 2-2 1-2 1-1 1-1v-1l1-1 2-6c2-5 3-7 3-5a52 52 0 01-6 16l-6 6-3-2zm38-1l-10-13-2-2c-1 0-2-1-1-2 0-4 2-3 5 3l7 10 3 5-2-1zm-16-6l-5-10v-1l5 10 2 3-2-2zm-37-4c-1-1-1-1 0 0l1 1c-1 1-1 0-1-1zm38 0l1-3h1l-1 3h-1zm-19-61h2c1 0 1 1-1 1l-1-1z"/>
  <path fill="#2a110d" d="M19 248c-3-3-1-13 3-16 2-1 3-2 3-4l1-37v-34h-5l-5-1v-14c0-2 5-9 14-17 3-3 7-7 8-10l4-3 20-1c18 0 20 0 19-1l-1-7c-1-3-1-4-3-4s-2-1-1-4l1-3v-2c2-1 1-5 0-6-1-2-3-2-4 1-1 1-1 2 1 4l2 2-3-2-3-2 2-3c2-3 2-3 0-8l-2-11c0-6 0-9 3-15l4-10c3-3 3-3 0-6-4-5-3-6 1-2 3 4 4 5 1 8-7 9-8 26-4 36 3 6 4 7 4 4 1-3 3-3 2-1-3 17-3 17-1 17l1 3c0 5 2 9 4 9l1 2h1v-3-9c1-6 1-7 1-2s0 5 2 6h2l-2 2-2 1h6l1-1v-1l2-4v3l1 6c4 4 6 4 26 4s25-1 25-3c0-1 3-1 3 1 1 2 16 2 16 0 2-4 0-10-2-7h-6a229 229 0 00-9-1h3c5 1 11 0 13-1h1l2 2c2 1 3 1 4-2 1-2 2-2 3-2 2 0 3 0 4-2l1-7c0-1 4-5 5-4v-2l-2-11c-1-22-4-32-13-40-2-3-5-5-6-5l-2-1-22-8c-7-2-25-1-30 0a256 256 0 01-20 7c-7 2-12 2-14 0v-1l1-1c-1-3 1-15 3-17l3-2-2 3c-2 1-2 3-2 6l-1 5c-1 3 1 7 3 7 2-1 2-1 3-10 0-7 1-10 2-11 2-1 19 0 25 2l2 1c-12-2-21-3-24-2-2 1-3 1-4 4v13c0 2 4 2 6 1l10-4h2l5-2a211 211 0 0021-4l-2-1 2-1c2 0 5 2 5 3s2 2 6 2a91 91 0 0122 7c3 1 6 3 11 9l6 5c1 0 2 1 1 2-2 2-1 4 0 4 2 1 5-2 6-5l1-3 1-8 1-6c2-5 1-10-4-12h-2v13l-1-7-2-5c-2-2-2-2-17-2l-20 2c-9 2-10 3-6 1 5-3 17-5 31-5 14 1 21 2 23 4 1 2 1 7-1 11v6c1 3 1 4-1 8l-2 4-1 3c-1 2 0 3 1 4l2 3 1 5 2 3 3 5c3 3 4 4 4 7 0 4-3 8-8 10l-3 3 1 4c0 2 0 2-2 2l-3-1c-2-1-2-1-2 2l-1 6-2 6c-1 2-1 2-3 1h-2l-3 4-3 4h23c26 0 21-2 38 18l2 3c3 3 4 12 3 17-1 2-3-7-2-11 0-3-1-5-8-12-8-10-11-13-13-12h-57c-94-1-114 0-114 1l-15 17c-3 3-6 6-5 7l-2 1c-2 0-2 1-2 8v7h10v40a1737 1737 0 01-2 39l-3 1c-2 2-4 11-2 12 1 1 209 0 211-1v-13h1c2 2 2 3 1 8 0 6 0 7-2 7l-2 1a2858 2858 0 01-211-1zm78-138l-5-3c-2 0-3 0-3 2l2 2c2 1 6 0 6-1zm99-34c5-6 5-7-2-14l-7-6v21c1 3 5 3 9-1zm-7-26c-1-2-2-3-4-3v3c2 3 5 3 4 0zm36 184l1-40v-39h10l-4 1h-4v36c0 30 1 35 2 37v2l-2 1-3 4v-2zM139 98V85c2-2 2 0 2 6 0 5-1 8-2 7zm-30-4v-4 4zm-22-7l-1-2v-1c-3-2-6-23-4-24l1 5c1 7 3 15 6 20l2 5-2-1c-1 0-2 0-2-2zm83-4l-2-3-1-2c-2-1-2-1-1 1v3c-1-1-2-4-2-10l-2-13c-1-5-1-6 1-3l3 13 2 8a568 568 0 015 5c4-5 5-19 3-29a1936 1936 0 013 13c0 8-4 19-7 18l-2-1zm-50-2v-1l1 1-1 1v-1zm5 0l1-1h1c-1 2-2 2-2 1zm30-3c-3-4-3-5 1-1 3 3 4 4 2 4l-3-3zm-27 0v-2l3-4 1-1c-1 4-4 8-4 7zm-10-1l-1-2h1l1 2h-1zm33-6c-1-1-1-1 0 0l1 1-1-1zm-52 0l1-3v2l-1 1zm39-2c0-2 0-2 1-1v2l-1-1zm-23-1v-1 1zm30-4l1-2 2 2-1 1-2-1zm-32-4c0-2 0-3 1-2l-1 4v-2zm-4 0l1-1 1 1h-1-1zm3-13l1-9 1-5v4l-1 9-1 5v-4zm72-14c0-1 0-2 1-1v2c-1 1-1 0-1-1zM119 9V8l1 1h-1z"/>
</svg>
